<?xml version="1.0" encoding="utf-8" ?>
<svg baseProfile="full" height="200mm" version="1.1" viewBox="0,0,200,200" width="200mm" xmlns="http://www.w3.org/2000/svg" xmlns:ev="http://www.w3.org/2001/xml-events" xmlns:xlink="http://www.w3.org/1999/xlink"><defs /><rect fill="#1a1a1a" height="200" width="200" x="0" y="0" /><text alignment-baseline="middle" fill="#e1ed5e" style="dominant-baseline: central; font-size:9.0px; font-family:Arial;" text-anchor="middle" x="100.0" y="100.0">2025</text><line stroke="#e1ed5e" stroke-width="0.3" x1="100.0" x2="100.0" y1="15.0" y2="10.0" /><path d="M 100.0 14.0 a86.0,86.0 0 0,1 42.46469731375804,11.215312516191453" fill="none" id="id61" stroke="none" /><text fill="#e1ed5e" style="font-size:6.75px; font-family:Arial;" text-anchor="middle"><textPath startOffset="22.20632615414155" xlink:href="#id61">January</textPath></text><path d="M 100.0 79.0 l 0.0 -40.950355820723864 a61.950355820723864,61.950355820723864 0 0,0 1.0663735387228062,0.009178613713928524 l -0.7048930594502778 40.944288583618494" fill="#31ff3b" stroke="none" /><path d="M 100.72285384407766 79.0124445844662 l 1.0480589263511095 -30.429657358473676 a51.44770064335262,51.44770064335262 0 0,0 0.8848004161826707,0.03810136714794194 l -1.5717001749231116 30.40710826480154" fill="#96ff23" stroke="none" /><path d="M 101.08401301168833 79.027996857942 l 1.58659859826781 -30.695342610540703 a51.73631977141214,51.73631977141214 0 0,0 0.8889727441378588,0.053625263605656 l -2.114733391245281 30.66348407755474" fill="#93ff23" stroke="none" /><path d="M 101.44485096284872 79.0497635885617 l 1.7436075668094266 -25.282185964293777 a46.342239334363654,46.342239334363654 0 0,0 0.7953427477630033,0.06173390452277379 l -2.178540503934771 25.24842679758254" fill="#d2ff1c" stroke="none" /><path d="M 101.80526077348638 79.07773832637324 l 2.6126319563955422 -30.279375839437137 a51.39188126729684,51.39188126729684 0 0,0 0.8806974637934147,0.08363283612621344 l -3.1334545472792015 30.229917458795743" fill="#97ff23" stroke="none" /><path d="M 102.52436894288641 79.15227682838746 l 2.633464775174569 -21.74870070785164 a42.90755849477051,42.90755849477051 0 0,0 0.7324632264792039,0.09509474863235763 l -3.0074427301616193 21.700147636055146" fill="#fdff18" stroke="none" /><path d="M 102.88285421437855 79.19881850522331 l 4.22408744292304 -30.47882515591932 a51.77014295726558,51.77014295726558 0 0,0 0.8816480480552921,0.12993200426776488 l -4.748104471406988 30.401598667490585" fill="#92ff23" stroke="none" /><path d="M 103.2404852339499 79.25152402106235 l 4.435416347741283 -28.39949047862875 a49.743764151960605,49.743764151960605 0 0,0 0.8448641833200168,0.13940982932346732 l -4.923609737200175 28.318934386365655" fill="#aaff21" stroke="none" /><path d="M 103.59715602781102 79.31037775812273 l 1.3920900186801923 -8.006829948576842 a29.12694533299788,29.12694533299788 0 0,0 0.4932230413230066,0.09013335819943906 l -1.5297081811061 7.981681109026663" fill="#ff4706" stroke="none" /><path d="M 103.95276090670814 79.375362276772 l 10.28182905836058 -53.64832441571807 a75.62470797541603,75.62470797541603 0 0,0 1.2763779419393726,0.25602940761278437 l -11.203773409767079 53.46339105202808" fill="#42ffd8" stroke="none" /><path d="M 104.307194497241 79.44645832069477 l 3.7408691123537037 -17.85108828190565 a39.23884466089207,39.23884466089207 0 0,0 0.6598801660858823,0.14422424562541836 l -4.047592002593114 17.78405053818436" fill="#ffd213" stroke="none" /><path d="M 105.01212808612495 79.60689891045804 l 7.1002032908221615 -28.888959136313883 a50.74869487474392,50.74869487474392 0 0,0 0.8465150821646962,0.21579554288833164 l -7.596427261671883 28.76246059725668" fill="#9eff22" stroke="none" /><path d="M 105.36241919743992 79.69619591428918 l 2.592457625112579 -9.81585918272154 a31.15243458649319,31.15243458649319 0 0,0 0.5172818902919262,0.14139268105339414 l -2.7610374046282162 9.769779960841852" fill="#ff6409" stroke="none" /><path d="M 106.0581310904928 79.89281104454417 l 8.87393952511013 -29.452974216865815 a51.76076222909104,51.76076222909104 0 0,0 0.8508843924345142,0.26437392262239184 l -9.379609290255361 29.295860159360902" fill="#93ff23" stroke="none" /><path d="M 106.40334571778207 80.00007090966166 l 6.785790448635119 -21.19444018424877 a43.25424109549653,43.25424109549653 0 0,0 0.7071392370929482,0.23313268855201652 l -7.149612507970485 21.074493771437517" fill="#f8ff18" stroke="none" /><path d="M 106.74666289553966 80.11325718540242 l 10.414295476294074 -30.69760842344876 a53.41605641016426,53.41605641016426 0 0,0 0.8681838726076376,0.3028923059155999 l -10.941161352964984 30.51379526436095" fill="#80ff25" stroke="none" /><path d="M 107.4271985657038 80.35727306442388 l 10.245458635236174 -27.09618499106522 a49.96847706933113,49.96847706933113 0 0,0 0.8019151424615567,0.31113061677585485 l -10.710356942697398 26.915811670398817" fill="#a7ff21" stroke="none" /><path d="M 108.09893153111575 80.62456947434976 l 10.43132066309108 -24.95530774917629 a48.04773254142256,48.04773254142256 0 0,0 0.760335329755311,0.3255359079195799 l -10.859339750636707 24.772052313293916" fill="#beff1f" stroke="none" /><path d="M 108.43124777332544 80.76684994638697 l 8.966093108548934 -20.453225760600734 a43.33215774718758,43.33215774718758 0 0,0 0.6805581176400336,0.3053465895921118 l -9.316833344655747 20.295858840492095" fill="#f7ff18" stroke="none" /><path d="M 109.08828744355905 81.06846463323043 l 12.434288639787844 -25.901488768557233 a49.7314923804047,49.7314923804047 0 0,0 0.7685380100901478,0.37711826382730335 l -12.878297916888423 25.683615344595097" fill="#aaff21" stroke="none" /><path d="M 109.73455568895987 81.39251694778311 l 12.961506719298686 -24.775760118571558 a48.961383118283436,48.961383118283436 0 0,0 0.7434085493376094,0.39710310118769293 l -13.386060315164608 24.54897829088211" fill="#b3ff20" stroke="none" /><path d="M 110.05341064243156 81.56283822128135 l 12.597583202771409 -23.102973487432216 a47.31437794270927,47.31437794270927 0 0,0 0.7116891539353953,0.3960542436355496 l -12.99339644577884 22.882703846236485" fill="#c6ff1e" stroke="none" /><line stroke="#e1ed5e" stroke-width="0.3" x1="143.23703022742887" x2="145.7803849466894" y1="26.81831364943548" y2="22.513508569990506" /><path d="M 143.74570117128098 25.957352633546492 a86.0,86.0 0 0,1 28.547481713284135,27.462654790039103" fill="none" id="id62" stroke="none" /><text fill="#e1ed5e" style="font-size:6.75px; font-family:Arial;" text-anchor="middle"><textPath startOffset="19.985693538727396" xlink:href="#id62">February</textPath></text><path d="M 110.68208982089419 81.91981866633111 l 12.417145787837523 -21.016884453786776 a45.410959458002374,45.410959458002374 0 0,0 0.6695693170309756,0.40340802164893985 l -12.777077171086136 20.800029822679225" fill="#ddff1b" stroke="none" /><path d="M 110.99172775467656 82.1063720568725 l 10.607970222111712 -17.2689022711178 a41.266820616037094,41.266820616037094 0 0,0 0.6020649275830099,0.3770130024189382 l -10.903654302066984 17.083744927375914" fill="#ffed16" stroke="none" /><path d="M 111.60114157652 82.49532879139004 l 11.435607550502745 -17.254901073476514 a41.700355820723864,41.700355820723864 0 0,0 0.5949157545459861,0.40168977311615484 l -11.730927999455274 17.055499388061687" fill="#fff216" stroke="none" /><path d="M 112.19680574252982 82.90503203632743 l 12.22734300307069 -17.137768800355918 a42.05257790317363,42.05257790317363 0 0,0 0.5856415889133476,0.4254935205141773 l -12.520529908337826 16.924756045025067" fill="#fff717" stroke="none" /><path d="M 112.48926042617603 83.11751280151076 l 16.861100352655637 -22.79216712140479 a49.35100681091184,49.35100681091184 0 0,0 0.6785853825022397,0.5110964415503458 l -17.25093188891626 22.4985540903486" fill="#aeff20" stroke="none" /><path d="M 112.77801427241765 83.33499621200491 l 11.157959367691603 -14.552138631607114 a39.3375242605039,39.3375242605039 0 0,0 0.5338054178509388,0.4166435957138942 l -11.406797340701972 14.357916646669997" fill="#ffd413" stroke="none" /><path d="M 113.06298171725822 83.55741782278167 l 19.156124461977765 -24.11211754564115 a51.79531323006147,51.79531323006147 0 0,0 0.6933088818694251,0.5606075660708347 l -19.56833674241168 23.77880388230619" fill="#92ff23" stroke="none" /><path d="M 113.34407831869373 83.78471172551755 l 19.59893731942189 -23.815988704347507 a51.84347033030227,51.84347033030227 0 0,0 0.6841917647584234,0.5729909266833819 l -20.00598662113943 23.475096620270307" fill="#92ff23" stroke="none" /><path d="M 113.89432698308785 84.25364557470407 l 14.76339569452379 -16.731264595242465 a43.313517593358014,43.313517593358014 0 0,0 0.5548028724371944,0.4981074967849731 l -15.049209554556976 16.474658089688194" fill="#f7ff18" stroke="none" /><path d="M 114.16331599549186 84.49514656593476 l 9.683002222262067 -10.60016808956945 a35.35702251734177,35.35702251734177 0 0,0 0.4458219435752466,0.4143429091225466 l -9.86403204963216 10.431920594372263" fill="#ff9e0e" stroke="none" /><path d="M 114.42810811169701 84.74124197986012 l 7.662531743859449 -8.103676296021305 a32.15275581353556,32.15275581353556 0 0,0 0.3988729358792499,0.3837154482892255 l -7.800887923351117 7.970577760969778" fill="#ff720a" stroke="none" /><path d="M 114.68862486808459 84.99185889309783 l 29.04248018953374 -29.674230548701587 a62.52138743126191,62.52138743126191 0 0,0 0.7626543420837154,0.7593792619680562 l -29.54897033178478 29.16991543608341" fill="#31ff42" stroke="none" /><path d="M 115.4437574822437 85.77008943001954 l 13.540783665781778 -12.476506499992869 a39.41238813212091,39.41238813212091 0 0,0 0.4554126961318201,0.5028780736691668 l -13.753540002529633 12.241575639054153" fill="#ffd513" stroke="none" /><path d="M 115.68641384162765 86.03803664274999 l 16.62441444955905 -14.796846986436316 a43.255737159903674,43.255737159903674 0 0,0 0.4902484471902426,0.560438723151613 l -16.876654760327142 14.508492707081755" fill="#f8ff18" stroke="none" /><path d="M 115.9244219780498 86.31012108654704 l 19.573192927113446 -16.826647867733296 a46.81174073608166,46.81174073608166 0 0,0 0.5200324894247912,0.615554440788168 l -19.859936030025356 16.487234477316022" fill="#ccff1d" stroke="none" /><path d="M 116.15771136456269 86.58626213691792 l 8.767604044369236 -7.278651022099757 a32.395158681666246,32.395158681666246 0 0,0 0.35249250515165487,0.43211413213296573 l -8.891595041597299 7.12665272035869" fill="#ff750a" stroke="none" /><path d="M 116.38621287248628 86.86637796730983 l 33.30522628219477 -26.694286050562912 a63.682818621284554,63.682818621284554 0 0,0 0.678209643853572,0.861257374426376 l -33.75979000664231 26.1170362821835" fill="#33ff50" stroke="none" /><path d="M 116.60985879189232 87.15038557335679 l 20.53922773412675 -15.889428098772989 a46.96793794702225,46.96793794702225 0 0,0 0.48919133652736296,0.6437184565060913 l -20.809695010878226 15.533524866385864" fill="#cbff1d" stroke="none" /><path d="M 116.82858285166822 87.43820079747576 l 8.121897812207056 -6.062640589504674 a31.1351287603781,31.1351287603781 0 0,0 0.3168924323950033,0.43224092165590605 l -8.225052857115687 5.921937224177275" fill="#ff6309" stroke="none" /><path d="M 117.2510076193507 88.02491185347247 l 13.940357536179071 -9.676942586391192 a37.969878787334224,37.969878787334224 0 0,0 0.3680827791726186,0.5401160594064544 l -14.104864781020423 9.435548503714331" fill="#ffc212" stroke="none" /><path d="M 117.45458315368197 88.32363383020206 l 17.108132607492816 -11.444605640118507 a41.58317758688855,41.58317758688855 0 0,0 0.3928686831308387,0.5983659575793417 l -17.30259792598158 11.14842161856149" fill="#fff116" stroke="none" /><path d="M 117.65298651832404 88.62581576622439 l 25.95676901948257 -16.7244830009185 a51.87818306796535,51.87818306796535 0 0,0 0.47721111074434425,0.7548333747014215 l -26.240807726472873 16.275201978502874" fill="#91ff24" stroke="none" /><line stroke="#e1ed5e" stroke-width="0.3" x1="172.23445277983987" x2="176.4835382374775" y1="55.19839476539836" y2="52.563006222186495" /><path d="M 173.08426987136738 54.67131705675599 a86.0,86.0 0 0,1 12.851231095245387,41.99856678651699" fill="none" id="id63" stroke="none" /><text fill="#e1ed5e" style="font-size:6.75px; font-family:Arial;" text-anchor="middle"><textPath startOffset="22.20632615414155" xlink:href="#id63">March</textPath></text><path d="M 117.84615892207809 88.93136811851018 l 4.330736377377637 -2.686030475592561 a26.096080580814434,26.096080580814434 0 0,0 0.23347815560879492,0.38377669887335053 l -4.376330331272656 2.611086003512129" fill="#ff1a02" stroke="none" /><path d="M 118.03404312379186 89.2402003453031 l 34.77551307531881 -20.748400733614737 a61.49484464292133,61.49484464292133 0 0,0 0.5345375695007385,0.913697979175725 l -35.127510319289875 20.146723342085117" fill="#30ff35" stroke="none" /><path d="M 118.21658344932153 89.55222093294921 l 7.264183117908111 -4.166235701093049 a29.374119433562164,29.374119433562164 0 0,0 0.24778099054376113,0.44077473403144135 l -7.334821749744306 4.040577457126814" fill="#ff4a06" stroke="none" /><path d="M 118.56541770881063 90.18545643968196 l 17.983100634204824 -9.506703662273445 a41.34132058009561,41.34132058009561 0 0,0 0.32716845243406845,0.6319853144757369 l -18.14407851979901 9.195745625537363" fill="#ffee16" stroke="none" /><path d="M 118.73160827565052 90.50648371742162 l 9.218045582780947 -4.671871445626929 a31.334347931567407,31.334347931567407 0 0,0 0.23969282123049482,0.4832061013464699 l -9.297098416964849 4.5125057557815085" fill="#ff6609" stroke="none" /><path d="M 118.89224826269711 90.83032412892265 l 27.747683472597444 -13.467812834079503 a51.84340967904252,51.84340967904252 0 0,0 0.3827569463828825,0.8061837442736169 l -27.975398612822083 12.988186674165345" fill="#92ff23" stroke="none" /><path d="M 119.196687751892 91.48605970444005 l 24.04752025829484 -10.665337394739444 a47.30651349602847,47.30651349602847 0 0,0 0.32373264163485216,0.7472195711075269 l -24.22754360977237 10.249818679045314" fill="#c6ff1e" stroke="none" /><path d="M 119.34039704204932 91.81776055985345 l 20.556067225447276 -8.696546592123966 a43.31998706106459,43.31998706106459 0 0,0 0.2846294637522594,0.6892528230826456 l -20.702718376085734 8.341419198588017" fill="#f7ff18" stroke="none" /><path d="M 119.47837535516314 92.15188598940014 l 3.1362288567618903 -1.2636311387579997 a24.381226862667578,24.381226862667578 0 0,0 0.15349311681153366,0.39062323999076853 l -3.1575155234551247 1.2094588938714468" fill="#ff0000" stroke="none" /><path d="M 119.61058180528143 92.48833698450437 l 13.26052305187187 -5.079328169042242 a35.20003684002444,35.20003684002444 0 0,0 0.21186300672156377,0.5676875263538751 l -13.345990647095059 4.850317505659033" fill="#ff9c0e" stroke="none" /><path d="M 119.85752413597 93.16781622104841 l 9.60331715885659 -3.3041192480797865 a31.15583105703914,31.15583105703914 0 0,0 0.1701148525614115,0.5086217565314919 l -9.658769305189772 3.1383243886259806" fill="#ff6409" stroke="none" /><path d="M 120.08093135843002 93.85539295169968 l 48.75860644337408 -14.919750058877812 a71.9902014520361,71.9902014520361 0 0,0 0.3523889607147561,1.1880803935939528 l -49.008201301200536 14.078240278537328" fill="#3dffb1" stroke="none" /><path d="M 120.28053869075195 94.5502522615342 l 11.998319941380473 -3.2241656872627624 a33.423965783704126,33.423965783704126 0 0,0 0.14452469983818228,0.5569126238119521 l -12.052040973088959 3.01715663790196" fill="#ff840c" stroke="none" /><path d="M 120.37134235888165 94.90015583598534 l 29.977188711187875 -7.504610555801883 a51.902281835172346,51.902281835172346 0 0,0 0.2095052900591094,0.8685346832121573 l -30.101926801507805 6.98749064093032" fill="#91ff24" stroke="none" /><path d="M 120.53481517161879 95.60439243477599 l 30.118997664560062 -6.447162678838375 a51.80129748769004,51.80129748769004 0 0,0 0.17913555695584538,0.8735285944148639 l -30.225512517430904 5.9277584282601" fill="#92ff23" stroke="none" /><path d="M 120.6074358757038 95.95851677861258 l 13.106104796393748 -2.5703393159563404 a34.355771304316576,34.355771304316576 0 0,0 0.10881663132500222,0.5813027957193468 l -13.148407151628609 2.344358442774431" fill="#ff910d" stroke="none" /><path d="M 120.67395015179393 96.31383870115 l 35.06815119041851 -6.252644549843038 a56.62121266578011,56.62121266578011 0 0,0 0.16282141101685862,0.9609811846131101 l -35.170584462955595 5.64807757691409" fill="#5dff2a" stroke="none" /><path d="M 120.73433829027371 96.67025291283417 l 30.28524876321182 -4.863536874996453 a51.673282895446214,51.673282895446214 0 0,0 0.13347481255818033,0.8794322463070245 l -30.3644794692093 4.341505516297346" fill="#94ff23" stroke="none" /><path d="M 120.83666639777658 97.38593545837742 l 30.320070525776856 -3.8038052607775374 a51.55774224562413,51.55774224562413 0 0,0 0.10289365606885992,0.881530009101172 l -30.381054534849305 3.2813315133515126" fill="#95ff23" stroke="none" /><path d="M 120.87857604477298 97.74499172005257 l 22.133042271974197 -2.390497966753027 a43.26176185170543,43.26176185170543 0 0,0 0.07359211816161082,0.7410625868045646 l -22.170911515818037 2.0091598492440275" fill="#f8ff18" stroke="none" /><path d="M 120.94382443527127 98.46500227214037 l 30.502614630402263 -2.2355727959882055 a51.58442879991374,51.58442879991374 0 0,0 0.05728182823756171,0.8861245292977885 l -30.536577049644244 1.7101892024373817" fill="#95ff23" stroke="none" /><path d="M 120.96714384426684 98.82574320788733 l 27.467055595314697 -1.53828183903807 a48.51009731157676,48.51009731157676 0 0,0 0.03951584424966864,0.8341170169451355 l -27.48946504779786 1.0652537154699346" fill="#b8ff1f" stroke="none" /><path d="M 120.98425023603335 99.18683210126433 l 20.27955998925326 -0.7858602045941975 a41.294780846781435,41.294780846781435 0 0,0 0.02141096148794916,0.7105255750230718 l -20.290082645196858 0.4366644821461266" fill="#ffed16" stroke="none" /><line stroke="#e1ed5e" stroke-width="0.3" x1="184.98032266829074" x2="189.97916517819016" y1="98.17113171792111" y2="98.06355123074" /><path d="M 185.9800911702706 98.14961562048488 a86.0,86.0 0 0,1 -9.607161424134198,41.387399972396054" fill="none" id="id64" stroke="none" /><text fill="#e1ed5e" style="font-size:6.75px; font-family:Arial;" text-anchor="middle"><textPath startOffset="21.466115282336823" xlink:href="#id64">April</textPath></text><path d="M 120.99980553446 99.90962569577887 l 30.68062062381623 -0.1320364484994811 a51.68090473708802,51.68090473708802 0 0,0 -0.0038285773133535424,0.8896265343007433 l -30.678347749213373 -0.396099564004947" fill="#93ff23" stroke="none" /><path d="M 120.9764740272857 100.99374915477107 l 14.577698156318498 0.6906105955893926 a35.59404764044136,35.59404764044136 0 0,0 -0.03426121854744987,0.6117570725495084 l -14.563650586883519 -0.9414393844743243" fill="#ffa20e" stroke="none" /><path d="M 120.95626037817324 101.35467743843564 l 24.42860940543103 1.5791408112280207 a45.479596466951804,45.479596466951804 0 0,0 -0.057225116629242685,0.7807912508391763 l -24.397807730137448 -1.9994051985639674" fill="#ddff1b" stroke="none" /><path d="M 120.92983693683757 101.71520430193887 l 10.421482778178397 0.8540425875106836 a31.45641870035582,31.45641870035582 0 0,0 -0.048870398084593605,0.5392807705588991 l -10.405237783816728 -1.0333047466181533" fill="#ff6809" stroke="none" /><path d="M 120.89721153311464 102.0752229133903 l 30.41096802396922 3.019998029962729 a51.56055242065917,51.56055242065917 0 0,0 -0.09530771325258844,0.8824310564589013 l -30.35447800921558 -3.5430254083064217" fill="#95ff23" stroke="none" /><path d="M 120.8583938346157 102.4346265915055 l 28.20256355525124 3.291850356487617 a49.39402877116055,49.39402877116055 0 0,0 -0.10584079747238027,0.8436552935444235 l -28.14172124853201 -3.776823404319435" fill="#aeff20" stroke="none" /><path d="M 120.81339534386255 102.79330883721812 l 30.3399284770696 4.07183878148717 a51.61194425475327,51.61194425475327 0 0,0 -0.12575114793679623,0.8795032357837217 l -30.2653432781162 -4.593487489251301" fill="#94ff23" stroke="none" /><path d="M 120.70491114924044 103.5080841355445 l 20.82964521336412 3.529218135510026 a42.12651178880782,42.12651178880782 0 0,0 -0.1272893830876173,0.7139064591739396 l -20.765809387937317 -3.887243345417184" fill="#fff817" stroke="none" /><path d="M 120.64145759157962 103.86396538481128 l 30.563456489018023 5.721308070895484 a52.09434415771125,52.09434415771125 0 0,0 -0.17258128641146628,0.8799882613022031 l -30.460445269630892 -6.246560059265631" fill="#8fff24" stroke="none" /><path d="M 120.5718875245553 104.21870165774334 l 29.948368874875044 6.1415479385805885 a51.571611167020095,51.571611167020095 0 0,0 -0.18581978730865814,0.8680881837135418 l -29.838215048841942 -6.656149941710299" fill="#95ff23" stroke="none" /><path d="M 120.41448212921028 104.9243191809786 l 29.82222297333725 7.193625764177357 a51.67756891780182,51.67756891780182 0 0,0 -0.21603361217715408,0.8629468927188353 l -29.693978046865034 -7.705900496293588" fill="#93ff23" stroke="none" /><path d="M 120.32669344350535 105.2749913415812 l 29.529129785180118 7.66312063367208 a51.50726018042627,51.50726018042627 0 0,0 -0.230095007613827,0.856269120774898 l -29.392846701224514 -8.170280687622526" fill="#95ff23" stroke="none" /><path d="M 120.13307415673323 105.97154293290107 l 29.15014679514235 8.64603943403971 a51.40534584696115,51.40534584696115 0 0,0 -0.2589194924129309,0.8461638821870284 l -28.997000530223286 -9.146530288778797" fill="#97ff23" stroke="none" /><path d="M 120.02730092923936 106.31721596034902 l 25.108941515405107 7.920118974045476 a47.32844903497107,47.32844903497107 0 0,0 -0.251759738313757,0.7748368019318053 l -24.968889526075102 -8.351154675955076" fill="#c6ff1e" stroke="none" /><path d="M 119.9155931802556 106.66101706037122 l 28.948363993365735 9.68213925060556 a51.52460644071452,51.52460644071452 0 0,0 -0.28856029283188067,0.8386912830484319 l -28.777412869590624 -10.179003236743293" fill="#95ff23" stroke="none" /><path d="M 119.67450827220406 107.3425965602758 l 31.67230674381747 11.820217681460836 a54.806102415267944,54.806102415267944 0 0,0 -0.33746393121325097,0.881011836624932 l -31.46414853301071 -12.363653084918912" fill="#71ff27" stroke="none" /><path d="M 119.41010516605496 108.01547362559984 l 20.61631028903306 8.513580424485324 a43.30500619990656,43.30500619990656 0 0,0 -0.2904508396532294,0.68653998714922 l -20.46670846818752 -8.867194937300708" fill="#f8ff18" stroke="none" /><path d="M 119.26925614724726 108.34839909993367 l 39.158562677288366 16.965434831093454 a63.67574264098049,63.67574264098049 0 0,0 -0.44439275097108255,1.0019883371797857 l -38.86072884158601 -17.636971504765928" fill="#33ff50" stroke="none" /><path d="M 118.97047184881838 109.00673069616215 l 36.93692913004028 17.53677905688053 a61.88857240412609,61.88857240412609 0 0,0 -0.4651861717502745,0.958421297398309 l -36.629589701675286 -18.169989310244116" fill="#30ff3a" stroke="none" /><path d="M 118.81262510543309 109.33194174019688 l 30.953248990413165 15.354258888884274 a55.55223421270172,55.55223421270172 0 0,0 -0.4323057148278309,0.8529801882091029 l -30.684364605799065 -15.884793288796072" fill="#69ff28" stroke="none" /><path d="M 118.64920377521936 109.65438752849418 l 34.841597509991935 18.036924714193255 a60.23350061100528,60.23350061100528 0 0,0 -0.48458565947922444,0.9166534468608306 l -34.52595934228782 -18.63399317614022" fill="#37ff2e" stroke="none" /><line stroke="#e1ed5e" stroke-width="0.3" x1="174.80103733775053" x2="179.2010983576182" y1="140.37084112569926" y2="142.7455964860345" /><path d="M 175.68104954172406 140.8457921977663 a86.0,86.0 0 0,1 -30.038265399797805,32.042727171017184" fill="none" id="id65" stroke="none" /><text fill="#e1ed5e" style="font-size:6.75px; font-family:Arial;" text-anchor="middle"><textPath startOffset="22.206326154141568" xlink:href="#id65">May</textPath></text><path d="M 118.30583269289576 110.29060199501025 l 26.626538633297326 14.968076906240032 a51.54530873737555,51.54530873737555 0 0,0 -0.441443851625062,0.7696945647212838 l -26.364942785519883 -15.42419131681963" fill="#95ff23" stroke="none" /><path d="M 118.12598468904814 110.60418214915192 l 17.75884371190072 10.389394932739837 a41.5746459763505,41.5746459763505 0 0,0 -0.3666866438521839,0.6145879068726074 l -17.57737619235031 -10.693544933498547" fill="#fff116" stroke="none" /><path d="M 117.94076556474637 110.91462005526583 l 19.030029785558447 11.577295517305235 a43.27500404341731,43.27500404341731 0 0,0 -0.3926389756563276,0.6330590477295438 l -18.827926170234157 -11.903150896400051" fill="#f8ff18" stroke="none" /><path d="M 117.75023020441432 111.22182372390056 l 24.214674367364474 15.308692008661364 a49.64797559573015,49.64797559573015 0 0,0 -0.46289676975327887,0.7184260662461537 l -23.947572734234143 -15.723239674828971" fill="#abff21" stroke="none" /><path d="M 117.35343817320211 111.8261652097733 l 18.491360694085316 12.601646102583791 a43.37703967940193,43.37703967940193 0 0,0 -0.42579540997637794,0.6133900453932746 l -18.2717043769468 -12.918077410164086" fill="#f7ff19" stroke="none" /><path d="M 117.14729908036423 112.12312394758627 l 25.041181353038457 17.704091117446282 a51.66750080868347,51.66750080868347 0 0,0 -0.5196771546782778,0.7217861155997254 l -24.732724405984577 -18.13251083849714" fill="#94ff23" stroke="none" /><path d="M 116.93607887273984 112.41649034213515 l 17.955881938959756 13.164147165048304 a43.26451137548072,43.26451137548072 0 0,0 -0.4454982446137968,0.5968177009428332 l -17.72662242765087 -13.471277745500451" fill="#f8ff18" stroke="none" /><path d="M 116.498646956653 112.99209946851258 l 24.170841604159303 19.033680712360994 a51.76541215900514,51.76541215900514 0 0,0 -0.5572967840118539,0.6953134263526364 l -23.839626908092594 -19.446921972291882" fill="#92ff23" stroke="none" /><path d="M 116.27256486870786 113.27417163493432 l 28.581756822465863 23.315263988835067 a57.88520513603853,57.88520513603853 0 0,0 -0.6364726387092431,0.7666722946785368 l -28.176188183863076 -23.803797540627375" fill="#50ff2b" stroke="none" /><path d="M 116.0416608686014 113.55231037782055 l 8.514073350016963 7.192856498095277 a32.145700050318084,32.145700050318084 0 0,0 -0.3607321429499262,0.4196129784417433 l -8.388998697496259 -7.338346575698548" fill="#ff720a" stroke="none" /><path d="M 115.80600337817218 113.82643327865902 l 23.148572885874977 20.249407193264695 a51.75540470114653,51.75540470114653 0 0,0 -0.5923311191804456,0.6654902916583121 l -22.796582917046194 -20.644871654663874" fill="#93ff23" stroke="none" /><path d="M 115.56566222782051 114.09645910891815 l 8.264645068420172 7.4845663198628705 a32.15002650684686,32.15002650684686 0 0,0 -0.3750125940897566,0.4070021049975744 l -8.134586066334695 -7.625719679661779" fill="#ff720a" stroke="none" /><path d="M 115.32070863581623 114.36230785411682 l 22.343293352701153 20.94558843421536 a51.62581317614923,51.62581317614923 0 0,0 -0.6133477222467983,0.6430926346438892 l -21.97943907907539 -21.327088185441756" fill="#94ff23" stroke="none" /><path d="M 115.07121518719521 114.62390073753431 l 8.00752859327983 7.769864728663922 a32.15756748014233,32.15756748014233 0 0,0 -0.3888912255710182,0.3939447583202314 l -7.872596742653276 -7.906549980964818" fill="#ff720a" stroke="none" /><path d="M 114.81725581225074 114.88116024355365 l 21.728111954295557 21.821821792022543 a51.79452476368472,51.79452476368472 0 0,0 -0.6371960923510025,0.6236304883653322 l -21.34926590956876 -22.19260238331045" fill="#92ff23" stroke="none" /><path d="M 114.55890576462653 115.13401014063108 l 22.46591669889712 23.35336299557427 a53.40519983466916,53.40519983466916 0 0,0 -0.6679824882745502,0.6316191360282982 l -22.060598376231766 -23.73661676834849" fill="#80ff25" stroke="none" /><path d="M 114.0293411484842 115.62618273729858 l 19.49069210522358 21.70915321604771 a50.174893523344,50.174893523344 0 0,0 -0.6476327896000055,0.571460637848731 l -19.114116962716988 -22.041436995668732" fill="#a5ff21" stroke="none" /><path d="M 113.75828350139079 115.86535959552629 l 20.140737767471723 23.225284401781273 a51.74187947022248,51.74187947022248 0 0,0 -0.6779036832879773,0.5777242257043431 l -19.7379686076067 -23.568533017708564" fill="#93ff23" stroke="none" /><path d="M 113.20401910651253 116.32954008644616 l 29.64678082706959 36.6644649666508 a68.15097670991625,68.15097670991625 0 0,0 -0.9185534915112431,0.7297544471184135 l -29.011269842841 -37.16935332777434" fill="#39ff86" stroke="none" /><path d="M 112.92097659922987 116.55440617244103 l 15.810563265486062 20.25655600425218 a46.696341605865655,46.696341605865655 0 0,0 -0.6378970900560406,0.4891122873276242 l -15.459537446936528 -20.525707633407176" fill="#ceff1d" stroke="none" /><path d="M 112.63410532772338 116.77436683061366 l 8.684589201564759 11.530573891968992 a35.43524242533156,35.43524242533156 0 0,0 -0.4903816202696703,0.362772599306702 l -8.484822610876524 -11.678356440015463" fill="#ff9f0e" stroke="none" /><path d="M 112.34349029814194 116.9893568818739 l 17.98712947469429 24.75715981014337 a51.601532455162996,51.601532455162996 0 0,0 -0.7230914686987296,0.5159065636472964 l -17.558310678146675 -25.063110635634885" fill="#94ff23" stroke="none" /><path d="M 112.04921762599082 117.19931262002967 l 7.596099969963181 10.842836616593306 a34.23887610969342,34.23887610969342 0 0,0 -0.4856101679772487,0.3340071015646729 l -7.408332917363048 -10.971984507523073" fill="#ff8f0d" stroke="none" /><path d="M 111.7513745106137 117.40417183066458 l 17.20437557509031 25.480245606819924 a51.74464921108436,51.74464921108436 0 0,0 -0.742474857720232,0.4920718497804331 l -16.763226018630114 -25.772615477691676" fill="#93ff23" stroke="none" /><path d="M 111.45004920935366 117.60387380957326 l 8.848080627696259 13.60347820161788 a37.2278510584768,37.2278510584768 0 0,0 -0.5401906518192535,0.3447752322271444 l -8.612608173830074 -13.753767862668834" fill="#ffb811" stroke="none" /><line stroke="#e1ed5e" stroke-width="0.3" x1="143.8653032363475" x2="146.44561519142675" y1="172.8068346515853" y2="177.08958963109032" /><path d="M 144.38136562736335 173.6633856474863 a86.0,86.0 0 0,1 -40.68145358897372,12.25698825130547" fill="none" id="id66" stroke="none" /><text fill="#e1ed5e" style="font-size:6.75px; font-family:Arial;" text-anchor="middle"><textPath startOffset="21.466115282336833" xlink:href="#id66">June</textPath></text><path d="M 110.8373102113329 117.98757091392108 l 10.789856185041186 17.908807581836992 a41.90804595119146,41.90804595119146 0 0,0 -0.6211014458299862,0.3669576819944874 l -10.479986868182818 -18.09188383612523" fill="#fff517" stroke="none" /><path d="M 109.89434966115114 118.52300852407294 l 14.504494221571058 27.153565348353546 a51.784679042518775,51.784679042518775 0 0,0 -0.7898620860506803,0.41321851223410566 l -14.034941232993882 -27.39921327953237" fill="#92ff23" stroke="none" /><path d="M 109.57404056367764 118.69057910512821 l 5.085722079067813 9.928419479037697 a32.15518186392553,32.15518186392553 0 0,0 -0.4948010174798907,0.24810350206504309 l -4.914067153905163 -10.014490822012041" fill="#ff720a" stroke="none" /><path d="M 109.2508944713604 118.85261126421891 l 13.540977129866313 27.595469687539037 a51.73870538762894,51.73870538762894 0 0,0 -0.8029042218998276,0.3854428189211295 l -13.063960239966253 -27.82446678295973" fill="#93ff23" stroke="none" /><path d="M 108.92500713936063 119.00905698771935 l 5.168094944762659 11.007342603646975 a33.16021367214175,33.16021367214175 0 0,0 -0.5187710218328262,0.23814233201160853 l -4.977855927162413 -11.09467200599266" fill="#ff800b" stroke="none" /><path d="M 108.59647513512805 119.15986991738527 l 10.93678020388399 24.375954414754478 a47.71704165618374,47.71704165618374 0 0,0 -0.7522917123265319,0.32978257886844514 l -10.515567816899704 -24.56060154691738" fill="#c2ff1e" stroke="none" /><path d="M 108.2653958097858 119.30500536409082 l 12.096386672916132 28.252828416309605 a51.733448945117345,51.733448945117345 0 0,0 -0.821646748658457,0.34344840757675943 l -11.608268464760213 -28.456861866906337" fill="#93ff23" stroke="none" /><path d="M 107.59598834532513 119.57807347666477 l 16.965800616826026 43.72804116676765 a67.90394412895807,67.90394412895807 0 0,0 -1.0933497922776776,0.4134113372166123 l -16.210580603788074 -44.013600754090895" fill="#38ff83" stroke="none" /><path d="M 107.2578585660854 119.70592522655815 l 5.604625273254648 15.217205674648923 a37.216509272903714,37.216509272903714 0 0,0 -0.6030500060576773,0.21623227668076703 l -5.341855706567236 -15.31142549236965" fill="#ffb811" stroke="none" /><path d="M 106.91757812671514 119.82793768551818 l 4.7872442319765405 13.721735928129116 a35.53285051935449,35.53285051935449 0 0,0 -0.5792366765615341,0.19650852982444325 l -4.55033782247778 -13.802107444851682" fill="#ffa10e" stroke="none" /><path d="M 106.57524785965236 119.94407469862006 l 8.043667186974423 24.398091547584432 a46.68983170398592,46.68983170398592 0 0,0 -0.7654434503323161,0.24507082088894044 l -7.6225023915511665 -24.53293521513308" fill="#ceff1d" stroke="none" /><path d="M 106.2309692047433 120.05430185196036 l 9.119968069504868 29.35251106791907 a51.736683678970635,51.736683678970635 0 0,0 -0.8527314743219346,0.25692099815025166 l -8.613361620742687 -29.505147435175047" fill="#93ff23" stroke="none" /><path d="M 105.53697534728816 120.25689768951611 l 2.141590341728897 7.834959291719674 a29.122376271430113,29.122376271430113 0 0,0 -0.48469280166211876,0.12801177422328747 l -2.006407097255281 -7.870662415246545" fill="#ff4706" stroke="none" /><path d="M 105.18746579009965 120.34920634021253 l 7.584087783259369 29.750589873454402 a51.70205180965389,51.70205180965389 0 0,0 -0.8642778790388245,0.21241847489141755 l -7.070856619477333 -29.876729606659847" fill="#93ff23" stroke="none" /><path d="M 104.83641907484287 120.43548508189849 l 7.456540808347473 31.50637405351456 a53.37671395967365,53.37671395967365 0 0,0 -0.8959150553526525,0.20390734974926814 l -6.9131056036019585 -31.630058136841512" fill="#80ff25" stroke="none" /><path d="M 104.48393922423573 120.51570834832081 l 4.068008281843545 18.61266785637153 a40.052036534521804,40.052036534521804 0 0,0 -0.6747977387169676,0.14141042708366006 l -3.7470190816971995 -18.679934264181732" fill="#ffdd14" stroke="none" /><path d="M 104.13013068566511 120.58985236759428 l 6.094146080183932 30.38101640053404 a51.986202961578556,51.986202961578556 0 0,0 -0.878894554609941,0.16844223317766516 l -5.570283911002287 -30.481415832060176" fill="#90ff24" stroke="none" /><path d="M 103.7750983002368 120.6578951692458 l 3.6444746772050145 19.94310342169087 a41.273370952090005,41.273370952090005 0 0,0 -0.6999787388286891,0.12170027612301075 l -3.3006469669042753 -20.00288227633489" fill="#ffed16" stroke="none" /><path d="M 103.41894727170886 120.7198165907248 l 3.378655125306913 20.475634444248552 a41.752515904108115,41.752515904108115 0 0,0 -0.7101191088124966,0.11090600045943035 l -3.025700152885899 -20.530758752055085" fill="#fff316" stroke="none" /><path d="M 102.70371172650421 120.8252237178851 l 5.115359255936156 39.40083547293032 a60.73150810480538,60.73150810480538 0 0,0 -1.0378510864546424,0.1256693130669706 l -4.4363807464301335 -39.48305031472264" fill="#32ff2f" stroke="none" /><path d="M 102.34483914955558 120.86867818915974 l 2.7223963759398697 24.228874668691656 a45.381341426158215,45.381341426158215 0 0,0 -0.7770310047218241,0.08054244072751286 l -2.3049327746124426 -24.272146477874927" fill="#deff1b" stroke="none" /><path d="M 101.98527174616119 120.90594882070398 l 1.9944164769608632 21.002247614280595 a42.096732020271006,42.096732020271006 0 0,0 -0.7219703448386758,0.0622946392454597 l -1.6326018143806456 -21.033466505804718" fill="#fff717" stroke="none" /><path d="M 101.62511606390274 120.93702456842531 l 1.412594596105942 18.19902493171412 a39.25376487079035,39.25376487079035 0 0,0 -0.6741128281921352,0.046490767443097415 l -1.0991190071348764 -18.220644043673502" fill="#ffd313" stroke="none" /><path d="M 101.26447882468166 120.96189622390904 l 2.696187296606552 44.69604172763968 a65.77728857420121,65.77728857420121 0 0,0 -1.1307802858426828,0.05844842454538114 l -1.9264189423503897 -44.735829958947264" fill="#35ff6a" stroke="none" /><path d="M 100.90346689309514 120.98055641714683 l 1.2565398469580817 29.179713557828013 a50.20675565179887,50.20675565179887 0 0,0 -0.8637466202589791,0.029749180045104212 l -0.7540728750244505 -29.197019536299212" fill="#a4ff21" stroke="none" /><line stroke="#e1ed5e" stroke-width="0.3" x1="102.19456741930631" x2="102.32365962044197" y1="184.97166512339345" y2="189.96999836594603" /><path d="M 102.22038585953345 185.97133177190398 a86.0,86.0 0 0,1 -42.740103519485714,-10.115201625700543" fill="none" id="id67" stroke="none" /><text fill="#e1ed5e" style="font-size:6.75px; font-family:Arial;" text-anchor="middle"><textPath startOffset="22.20632615414155" xlink:href="#id67">July</textPath></text><path d="M 100.18074693466247 120.99922214144158 l 0.270029195309025 31.372056558293345 a52.373218650037735,52.373218650037735 0 0,0 -0.9015522599429393,0.0 l 0.27002919530900343 -31.372056558293345" fill="#8cff24" stroke="none" /><path d="M 99.81925306533755 120.99922214144158 l -0.26448145945816437 30.727519278967566 a51.728657495597176,51.728657495597176 0 0,0 -0.8903248574592671,-0.015327749837377209 l 0.7933660068100994 -30.718414051851028" fill="#93ff23" stroke="none" /><path d="M 99.45781275523022 120.99299961872073 l -0.2875020377970038 11.131818809969792 a32.13553085576681,32.13553085576681 0 0,0 -0.5528530136342901,-0.01904137562489473 l 0.4790754031059368 -11.125220635918803" fill="#ff720a" stroke="none" /><path d="M 99.09653310690486 120.98055641714683 l -0.37054807834705383 8.60496928270625 a29.612943877367645,29.612943877367645 0 0,0 -0.5090774318634019,-0.026313488337702407 l 0.5186135786239446 -8.597315987606345" fill="#ff4e07" stroke="none" /><path d="M 98.73552117531835 120.96189622390904 l -1.8439515456019777 30.568104571111917 a51.62367016497143,51.62367016497143 0 0,0 -0.8865437088930672,-0.06114124472133799 l 2.3698580152739748 -30.531834981874294" fill="#94ff23" stroke="none" /><path d="M 98.37488393609728 120.93702456842531 l -0.5576451252979735 7.184366672733348 a28.20597617079395,28.20597617079395 0 0,0 -0.48374012340752914,-0.041739133319886865 l 0.6812295664470444 -7.173703287134797" fill="#ff3905" stroke="none" /><path d="M 97.65516085044442 120.86867818915974 l -0.5208973648351068 4.635899856237665 a25.665072511950545,25.665072511950545 0 0,0 -0.43859479571126875,-0.0531077217253524 l 0.6006195835977649 -4.626246605786965" fill="#ff1302" stroke="none" /><path d="M 97.2962882734958 120.8252237178851 l -3.308721556781258 25.485286010594905 a46.69917199798728,46.69917199798728 0 0,0 -0.7962684908441807,-0.11035555721598556 l 3.7469186388122697 -25.424555887886314" fill="#ceff1d" stroke="none" /><path d="M 96.93821686468263 120.77559828337769 l -4.480573196752467 30.40273745754693 a51.731123980160305,51.731123980160305 0 0,0 -0.8798334390921279,-0.13741188849762231 l 5.003242499453112 -30.321107261702203" fill="#93ff23" stroke="none" /><path d="M 96.58105272829116 120.7198165907248 l -6.253061564918972 37.89537493828454 a59.407814577867235,59.407814577867235 0 0,0 -1.0075311554526267,-0.17517220598200145 l 6.904441691843648 -37.78212415378153" fill="#40ff2d" stroke="none" /><path d="M 96.22490169976321 120.6578951692458 l -2.9170581980404124 15.96257306834316 a37.22692107249398,37.22692107249398 0 0,0 -0.6293696471675605,-0.12062019079204477 l 3.191395459779668 -15.909995679202646" fill="#ffb811" stroke="none" /><path d="M 95.51606077576429 120.51570834832081 l -4.404668922473829 20.15301690441361 a41.62874690004673,41.62874690004673 0 0,0 -0.6987283089662287,-0.15902828825664264 l 4.750917380832921 -20.07421188257928" fill="#fff116" stroke="none" /><path d="M 95.16358092515715 120.4354850818985 l -6.842995924171919 28.913942104665793 a50.71266802645294,50.71266802645294 0 0,0 -0.8477388348854437,-0.20835358023146122 l 7.339688043800573 -28.791867266120303" fill="#9fff22" stroke="none" /><path d="M 94.81253420990036 120.34920634021253 l -7.604133975465558 29.829226363418012 a51.78320319519822,51.78320319519822 0 0,0 -0.8618440199312574,-0.22762083884224799 l 8.116468438208305 -29.693914175272184" fill="#92ff23" stroke="none" /><path d="M 94.46302465271185 120.25689768951611 l -5.347168744404356 19.56249457332836 a41.280123459008735,41.280123459008735 0 0,0 -0.6838127775325092,-0.19325232135190284 l 5.6831126900414795 -19.467553458637937" fill="#ffed16" stroke="none" /><path d="M 94.11515582081647 120.15858648285463 l -8.609554439805121 29.492105902748953 a51.72309779678683,51.72309779678683 0 0,0 -0.852507549854405,-0.2568535315450654 l 9.115936964099772 -29.339537002098165" fill="#93ff23" stroke="none" /><path d="M 93.76903079525671 120.05430185196036 l -6.009268405245474 19.34076040955271 a41.252810175035044,41.252810175035044 0 0,0 -0.6763077142038016,-0.21653237299436212 l 6.341297464540216 -19.234455189898643" fill="#ffec16" stroke="none" /><path d="M 93.08242187328487 119.8279376855182 l -3.677921387598051 10.5420704688388 a32.1652297559573,32.1652297559573 0 0,0 -0.5211999292287114,-0.18688375121614612 l 3.858840877456489 -10.477199176582696" fill="#ff720a" stroke="none" /><path d="M 92.40401165467489 119.57807347666478 l -18.954552545907873 48.853895713185786 a73.40208191064946,73.40208191064946 0 0,0 -1.1740101089731587,-0.4671628511677466 l 19.792683730922892 -48.52038601761197" fill="#3fffc1" stroke="none" /><path d="M 92.06813273071674 119.44442032107085 l -4.23405684159287 10.379495533171834 a32.20986908313266,32.20986908313266 0 0,0 -0.5115671726226214,-0.21383511964558263 l 4.412095473712953 -10.305075370506279" fill="#ff730a" stroke="none" /><path d="M 91.7346041902142 119.30500536409082 l -16.07398453853742 37.543072936856696 a61.83938423246954,61.83938423246954 0 0,0 -0.974940076726981,-0.42738507878930837 l 16.717845289922145 -37.260823304772934" fill="#30ff39" stroke="none" /><path d="M 91.40352486487194 119.15986991738527 l -1.9951661547051918 4.446837033415305 a25.873915016353376,25.873915016353376 0 0,0 -0.4047813884602875,-0.1858152821687352 l 2.0714155389328988 -4.411834680912495" fill="#ff1702" stroke="none" /><path d="M 90.7491055286396 118.85261126421891 l -8.939884853034084 18.2187975879424 a41.2939923804047,41.2939923804047 0 0,0 -0.6354282035193163,-0.31861689251770486 l 9.25216696423616 -18.062212854515394" fill="#ffed16" stroke="none" /><path d="M 90.42595943632237 118.69057910512821 l -14.025383095008861 27.380553745669065 a51.76371392373217,51.76371392373217 0 0,0 -0.7895423089898725,-0.4130512199894883 l 14.49461630652523 -27.135073106734858" fill="#93ff23" stroke="none" /><path d="M 90.10565033884886 118.52300852407294 l -5.7235611722953585 10.714961166042459 a33.147820598066346,33.147820598066346 0 0,0 -0.5009696235284312,-0.2731685822993129 l 5.90715360769243 -10.614851931983381" fill="#ff800b" stroke="none" /><line stroke="#e1ed5e" stroke-width="0.3" x1="58.666819895761336" x2="56.23545636021788" y1="174.27360380694188" y2="178.64263932499728" /><path d="M 58.180547188652646 175.14741091055294 a86.0,86.0 0 0,1 -31.652253787137756,-30.449443065178592" fill="none" id="id68" stroke="none" /><text fill="#e1ed5e" style="font-size:6.75px; font-family:Arial;" text-anchor="middle"><textPath startOffset="22.20632615414155" xlink:href="#id68">August</textPath></text><path d="M 89.7882731507175 118.34994917583269 l -14.93969579521692 26.845866775597703 a51.72287540883442,51.72287540883442 0 0,0 -0.7742452220546603,-0.4396366436416936 l 15.399589784192788 -26.584726966161373" fill="#93ff23" stroke="none" /><path d="M 89.4739219176387 118.17145234162733 l -13.205411537484132 22.796857911122263 a47.345390953527655,47.345390953527655 0 0,0 -0.7016860392123805,-0.4145684801831077 l 13.595865447724895 -22.566170858645407" fill="#c6ff1e" stroke="none" /><path d="M 89.1626897886671 117.98757091392108 l -5.591788399245115 9.281148957227446 a31.835489073787873,31.835489073787873 0 0,0 -0.46695203881211356,-0.2868400808057057 l 5.750719637989538 -9.183520409593363" fill="#ff6d0a" stroke="none" /><path d="M 88.8546689885994 117.79835938074946 l -8.898504103455451 14.21032482771195 a37.76653533048197,37.76653533048197 0 0,0 -0.5480071708969364,-0.34976410452832213 l 9.14179307639931 -14.055046294359824" fill="#ffbf11" stroke="none" /><path d="M 88.24862548938628 117.40417183066458 l -11.339126691892536 16.793619263612975 a41.26330284297164,41.26330284297164 0 0,0 -0.585237650928563,-0.40253179279047374 l 11.62652122744399 -16.595946681457402" fill="#ffed16" stroke="none" /><path d="M 87.95078237400918 117.19931262002967 l -18.595849801856144 26.5441163156799 a53.40980933041009,53.40980933041009 0 0,0 -0.7484308243210109,-0.5339855210821788 l 19.050007954026043 -26.220086532753506" fill="#80ff25" stroke="none" /><path d="M 87.65650970185807 116.9893568818739 l -25.238453108198446 34.73775055878385 a63.93822107608813,63.93822107608813 0 0,0 -0.8848289528291299,-0.6545753060303008 l 25.83266703144614 -34.29816530401378" fill="#33ff53" stroke="none" /><path d="M 87.36589467227662 116.77436683061367 l -6.30493012170428 8.371088253536916 a31.479850303705568,31.479850303705568 0 0,0 -0.4300316515932721,-0.3297299329513831 l 6.4480905017910395 -8.261318978758165" fill="#ff6809" stroke="none" /><path d="M 87.07902340077011 116.55440617244103 l -24.054870765244026 30.81919528413676 a60.09551899507601,60.09551899507601 0 0,0 -0.8099803034675213,-0.6434973401072889 l 24.581808561428904 -30.40056403002434" fill="#39ff2e" stroke="none" /><path d="M 86.79598089348748 116.32954008644616 l -13.401797022719947 16.574133977508467 a42.314550911116704,42.314550911116704 0 0,0 -0.5624407217385347,-0.46285042322142084 l 13.68510787300317 -16.340988435429864" fill="#fffa17" stroke="none" /><path d="M 86.51685102203217 116.09983520530335 l -6.508060057452469 7.771084826134873 a31.136301351399922,31.136301351399922 0 0,0 -0.40793673492716986,-0.34765253550340175 l 6.640862268956695 -7.657907900408519" fill="#ff6309" stroke="none" /><path d="M 86.24171649860922 115.8653595955263 l -30.682223982243315 35.381195380918236 a67.83191064946269,67.83191064946269 0 0,0 -0.8755408618330444,-0.7725630131772052 l 31.286707196982945 -34.84780922596874" fill="#38ff82" stroke="none" /><path d="M 85.70375840098266 115.38237550388516 l -36.65947560087511 39.444620151560514 a74.84974661251482,74.84974661251482 0 0,0 -0.9362069638111895,-0.8852421193758229 l 37.33301839907712 -38.80774339543876" fill="#41ffd0" stroke="none" /><path d="M 85.44109423537348 115.13401014063109 l -12.202888325628896 12.684925546655192 a38.601642525967726,38.601642525967726 0 0,0 -0.4748921992836347,-0.46478196855765225 l 12.419430477288325 -12.472993475174968" fill="#ffca12" stroke="none" /><path d="M 85.18274418774928 114.88116024355367 l -17.159624185045946 17.233630872843747 a45.319760180426265,45.319760180426265 0 0,0 -0.5480656175263898,-0.555187576996724 l 17.453730427627868 -16.93570280186636" fill="#dfff1b" stroke="none" /><path d="M 84.9287848128048 114.62390073753433 l -13.231470035609547 12.838759317617043 a39.43652733350106,39.43652733350106 0 0,0 -0.4685312002891993,-0.49125309034017095 l 13.450507787277703 -12.609099110694373" fill="#ffd513" stroke="none" /><path d="M 84.67929136418377 114.36230785411682 l -7.998315174941228 7.4979733370955834 a31.96324084390612,31.96324084390612 0 0,0 -0.37283384080059195,-0.4046374986111842 l 8.126195423737547 -7.359184583683055" fill="#ff6f0a" stroke="none" /><path d="M 84.43433777217949 114.09645910891817 l -13.818320516725276 12.514044521009572 a39.6426203141286,39.6426203141286 0 0,0 -0.45370252234532477,-0.5097395935223933 l 14.03168188871894 -12.274330757746315" fill="#ffd814" stroke="none" /><path d="M 84.19399662182784 113.82643327865904 l -16.7845558058037 14.682430175951978 a43.30011366495346,43.30011366495346 0 0,0 -0.48590457721823627,-0.5652167983082144 l 17.03480289259271 -14.391336278482234" fill="#f8ff18" stroke="none" /><path d="M 83.95833913139862 113.55231037782056 l -23.489888863221083 19.844719772001874 a51.75041108076053,51.75041108076053 0 0,0 -0.5690179488429269,-0.6854187753261343 l 23.828002811957546 -19.43743973956198" fill="#93ff23" stroke="none" /><path d="M 83.72743513129214 113.27417163493432 l -33.11684623209404 27.014714916754937 a63.73780909679043,63.73780909679043 0 0,0 -0.6861893791262409,-0.8561267569003327 l 33.57695352327514 -26.440660326276344" fill="#33ff51" stroke="none" /><path d="M 83.50135304334701 112.99209946851258 l -15.916255375887054 12.533486749129302 a41.25871356431729,41.25871356431729 0 0,0 -0.434578389084733,-0.5617511496483976 l 16.129640582189854 -12.257657605367653" fill="#ffed16" stroke="none" /><path d="M 83.28015986056508 112.70617746262583 l -25.725004423692308 19.54961702434771 a53.310422132767854,53.310422132767854 0 0,0 -0.5489418168542868,-0.7353972704659417 l 26.05770750724168 -19.103906874372463" fill="#81ff25" stroke="none" /><path d="M 83.06392112726016 112.41649034213515 l -8.329210564468823 6.106464389333967 a31.32785824677425,31.32785824677425 0 0,0 -0.3150988915862474,-0.4376448010854281 l 8.43308924843068 -5.962185982797401" fill="#ff6609" stroke="none" /><path d="M 82.85270091963577 112.12312394758628 l -16.55434198991046 11.70390385528598 a41.27381572799483,41.27381572799483 0 0,0 -0.4051498539107669,-0.5836485820624369 l 16.753352750983357 -11.41721401103653" fill="#ffed16" stroke="none" /><path d="M 82.6465618267979 111.8261652097733 l -26.78022784021541 18.250412145002514 a53.40768653631888,53.40768653631888 0 0,0 -0.5111799590951066,-0.7641446810395526 l 27.09041090472125 -17.786730549757138" fill="#80ff25" stroke="none" /><path d="M 82.44556493220864 111.52570212397912 l -8.499843831682487 5.580736020611766 a31.16818369694138,31.16818369694138 0 0,0 -0.29059898977295123,-0.45101608548480693 l 8.594647684832484 -5.433598335205511" fill="#ff6409" stroke="none" /><path d="M 82.24976979558568 111.22182372390057 l -25.793632218902058 16.306920565326365 a51.51601417891672,51.51601417891672 0 0,0 -0.46741058687859954,-0.7536146928191564 l 26.070507445448616 -15.860509541141944" fill="#95ff23" stroke="none" /><path d="M 82.05923443525364 110.91462005526583 l -40.2090127536074 24.461949264045646 a68.06539778241023,68.06539778241023 0 0,0 -0.6003339701195015,-1.0061942650657318 l 40.62412759942513 -23.766192905093803" fill="#38ff85" stroke="none" /><line stroke="#e1ed5e" stroke-width="0.3" x1="26.63291911575756" x2="22.317208475507996" y1="142.92168965132927" y2="145.44649492493687" /><path d="M 25.769776987707644 143.4266507060508 a86.0,86.0 0 0,1 -11.730757126820373,-40.83630448921669" fill="none" id="id69" stroke="none" /><text fill="#e1ed5e" style="font-size:6.75px; font-family:Arial;" text-anchor="middle"><textPath startOffset="21.46611528233685" xlink:href="#id69">September</textPath></text><path d="M 81.87401531095188 110.60418214915194 l -14.880517316470822 8.705497593893902 a38.239938629910505,38.239938629910505 0 0,0 -0.3274941252307145,-0.5710136119017247 l 15.028163437853912 -8.44806413613387" fill="#ffc512" stroke="none" /><path d="M 81.51974371655577 109.97397251340807 l -31.23218796983082 16.856313005992018 a56.49063050354024,56.49063050354024 0 0,0 -0.4544738253508507,-0.8596932046309108 l 31.51771430340656 -16.31620478627498" fill="#5eff29" stroke="none" /><path d="M 81.35079622478065 109.6543875284942 l -12.596999202487323 6.521260288792918 a35.18489424217374,35.18489424217374 0 0,0 -0.2738077247850266,-0.5402486171464463 l 12.707385597058616 -6.303457459943788" fill="#ff9c0e" stroke="none" /><path d="M 81.18737489456691 109.33194174019688 l -38.306927870850714 19.0020274753396 a63.76093744384143,63.76093744384143 0 0,0 -0.4792598252715712,-0.9874171921306589 l 38.628340952737 -18.339821327243655" fill="#33ff51" stroke="none" /><path d="M 81.02952815118164 109.00673069616217 l -27.657166633910258 13.130967625669657 a51.616028106243036,51.616028106243036 0 0,0 -0.37415569788948194,-0.805898086800435 l 27.879096948639567 -12.652949471590393" fill="#94ff23" stroke="none" /><path d="M 80.87730276802145 108.67885076344099 l -19.718689075143686 8.94934211726573 a42.654501222010566,42.654501222010566 0 0,0 -0.2976855919250555,-0.6712024230898919 l 19.86981575180002 -8.608591357683142" fill="#fffe18" stroke="none" /><path d="M 80.58989483394504 108.01547362559985 l -10.11113439490068 4.1754297760816375 a31.939344247564964,31.939344247564964 0 0,0 -0.20547247191330315,-0.5099658246140376 l 10.18150948107137 -4.000764583624794" fill="#ff6f0a" stroke="none" /><path d="M 80.45479744820244 107.68017299344265 l -18.84793108109733 7.406184248420541 a41.250828900549905,41.250828900549905 0 0,0 -0.25399848325478575,-0.6631098897820632 l 18.972623843945623 -7.080650791805319" fill="#ffec16" stroke="none" /><path d="M 80.32549172779594 107.34259656027581 l -19.79059141676738 7.385919203270698 a42.123903784638614,42.123903784638614 0 0,0 -0.2476800071025275,-0.6815090052158728 l 19.914795684875134 -7.044162401048709" fill="#fff817" stroke="none" /><path d="M 80.20201598880116 107.00284435728193 l -29.06498839429875 10.280723019896755 a51.829641843079465,51.829641843079465 0 0,0 -0.2902686242702216,-0.8436564938604632 l 29.2376478495122 -9.778893822946994" fill="#92ff23" stroke="none" /><path d="M 80.0844068197444 106.66101706037122 l -23.372632404954043 7.817266690782347 a45.645275491499845,45.645275491499845 0 0,0 -0.242806236995172,-0.747280758323517 l 23.503730892965464 -7.413787032481027" fill="#dbff1b" stroke="none" /><path d="M 79.97269907076064 106.31721596034903 l -51.52680788500733 16.253112404266915 a75.02939564389175,75.02939564389175 0 0,0 -0.3779095873413768,-1.2350303971340122 l 51.79894424485484 -15.363755034580855" fill="#41ffd2" stroke="none" /><path d="M 79.86692584326677 105.97154293290107 l -16.64218593473631 4.936132804803891 a38.35879488193222,38.35879488193222 0 0,0 -0.18230905568535533,-0.6346417395419006 l 16.72468762730777 -4.6489335897573945" fill="#ffc712" stroke="none" /><path d="M 79.76711848015287 105.62410040840567 l -9.78453246257031 2.7197902070854427 a31.15550758365381,31.15550758365381 0 0,0 -0.13917895709385641,-0.5179366751891334 l 9.82989949600594 -2.5509625987207705" fill="#ff6409" stroke="none" /><path d="M 79.67330655649465 105.27499134158121 l -29.639478710588616 7.691757343705643 a51.621264331668044,51.621264331668044 0 0,0 -0.21579823571926246,-0.8620066807725897 l 29.76748826060294 -7.180422823535661" fill="#94ff23" stroke="none" /><path d="M 79.58551787078972 104.9243191809786 l -29.747166647329234 7.175520905897058 a51.60035986414118,51.60035986414118 0 0,0 -0.20084686728926646,-0.865243047631275 l 29.866274080549054 -6.6624092009172085" fill="#94ff23" stroke="none" /><path d="M 79.50377843672027 104.57218783832718 l -10.882859223950032 2.427690217748061 a32.150349980232185,32.150349980232185 0 0,0 -0.11584224459999645,-0.5411764009021852 l 10.923035507274468 -2.239999997429712" fill="#ff720a" stroke="none" /><path d="M 79.35854240842038 103.8639653848113 l -40.96870714713799 7.669112783081227 a62.68033416597779,62.68033416597779 0 0,0 -0.1893947713428472,-1.0622264584498955 l 41.09464836082003 -6.962767573898118" fill="#31ff44" stroke="none" /><path d="M 79.29508885075956 103.50808413554451 l -32.238556385370494 5.46225807940858 a53.698024116737955,53.698024116737955 0 0,0 -0.14656554936364377,-0.9126638157951666 l 32.327803689095425 -4.9065150339202" fill="#7dff26" stroke="none" /><path d="M 79.18660465613746 102.79330883721812 l -11.052531042504517 1.4833299480740119 a32.151623656686915,32.151623656686915 0 0,0 -0.06889402570544025,-0.549153170308883 l 11.076426577456806 -1.2928590234777202" fill="#ff720a" stroke="none" /><path d="M 79.1416061653843 102.43462659150553 l -36.404830993864266 4.24923272135348 a57.65198082521655,57.65198082521655 0 0,0 -0.10656748616859019,-0.9866825694862306 l 36.47258078153391 -3.6219538299824676" fill="#52ff2b" stroke="none" /><path d="M 79.10278846688536 102.07522291339032 l -14.180867639178778 1.4082482445059892 a35.25061999065522,35.25061999065522 0 0,0 -0.05476503374659644,-0.6043275838970403 l 14.20300726920245 -1.1639392720603827" fill="#ff9d0e" stroke="none" /><path d="M 79.07016306316243 101.71520430193888 l -46.399271049152844 3.8024294957722695 a67.55481526075549,67.55481526075549 0 0,0 -0.08500146180877315,-1.159777412404807 l 46.45784906962595 -3.003178946870702" fill="#38ff7f" stroke="none" /><path d="M 79.04373962182676 101.35467743843564 l -16.6292858479339 1.0749684318179324 a37.66399426733278,37.66399426733278 0 0,0 -0.03625365544256595,-0.6473333717552542 l 16.645325854263998 -0.7885633437272407" fill="#ffbe11" stroke="none" /><path d="M 79.0095281055655 100.63252640178507 l -15.521112483791226 0.4677128499277301 a36.52815790892427,36.52815790892427 0 0,0 -0.013529224878464863,-0.6286499180338849 l 15.5268637713547 -0.20047311610371632" fill="#ffae10" stroke="none" /><line stroke="#e1ed5e" stroke-width="0.3" x1="15.007084014347285" x2="10.007500721073583" y1="101.09737516637583" y2="101.16192664675087" /><path d="M 14.007167355692545 101.11028546245083 a86.0,86.0 0 0,1 10.666146001902534,-42.60595125391555" fill="none" id="id70" stroke="none" /><text fill="#e1ed5e" style="font-size:6.75px; font-family:Arial;" text-anchor="middle"><textPath startOffset="22.20632615414155" xlink:href="#id70">October</textPath></text><path d="M 79.00175016825051 100.2711162175752 l -22.26320163699601 0.28744848105436444 a43.265057236818464,43.265057236818464 0 0,0 -0.0032051222291964647,-0.7447575293373979 l 22.264851056514708 0.0958185264867089" fill="#f8ff18" stroke="none" /><path d="M 79.00486145842228 99.54816195383935 l -24.320941785040826 -0.5234129222428042 a45.32657333860475,45.32657333860475 0 0,0 0.02350140856139718,-0.7798973362937255 l 24.308328682023784 0.9419804059615241" fill="#deff1b" stroke="none" /><path d="M 79.12142395522702 97.74499172005258 l -10.082214855874037 -1.0889381503532551 a31.140850195881107,31.140850195881107 0 0,0 0.062147716137023634,-0.5324436788913604 l 10.061976786733425 1.2623255675694771" fill="#ff6409" stroke="none" /><path d="M 79.21141760316559 97.0276538004421 l -30.400443820292594 -4.346647690026229 a51.709613000035944,51.709613000035944 0 0,0 0.13356865513268537,-0.8800505516225839 l 30.321119271720608 4.8692973540409055" fill="#93ff23" stroke="none" /><path d="M 79.26566170972629 96.67025291283419 l -11.034363264910782 -1.7720188812247395 a32.17574264098049,32.17574264098049 0 0,0 0.09252539058539022,-0.5460900927970409 l 11.002226012805169 1.9616947623376084" fill="#ff720a" stroke="none" /><path d="M 79.32604984820605 96.31383870115002 l -47.00184660717002 -8.380420126087976 a68.743114958847,68.743114958847 0 0,0 0.2177332632223272,-1.1631397984947094 l 46.850627620037834 9.18823800204526" fill="#39ff8c" stroke="none" /><path d="M 79.3925641242962 95.95851677861259 l -12.140612339298576 -2.3809891421034646 a33.37188656866621,33.37188656866621 0 0,0 0.11540428091721315,-0.5627522587484898 l 12.097828762466369 2.589617057015357" fill="#ff830c" stroke="none" /><path d="M 79.46518482838121 95.60439243477599 l -29.85112440042919 -6.389822705895127 a51.527355964489814,51.527355964489814 0 0,0 0.1931186732071136,-0.8657131452210535 l 29.736711340220037 6.9027140206661395" fill="#95ff23" stroke="none" /><path d="M 79.54389044137918 95.25157060432595 l -28.816061159592273 -6.689005623754316 a50.582227383819145,50.582227383819145 0 0,0 0.20417684628081342,-0.8464448437255486 l 28.696651513050647 7.184035699139262" fill="#a0ff22" stroke="none" /><path d="M 79.62865764111835 94.90015583598534 l -22.42644367921535 -5.614326532938818 a44.11852154692161,44.11852154692161 0 0,0 0.19076778994854116,-0.7351061137508258 l 22.3264795573965 5.9995290722385075" fill="#edff19" stroke="none" /><path d="M 79.71946130924805 94.55025226153421 l -15.787839565779164 -4.242478184669736 a37.34792033569349,37.34792033569349 0 0,0 0.1721796562061321,-0.6194218330348502 l 15.712473139006672 4.513611321123529" fill="#ffb911" stroke="none" /><path d="M 79.91906864156998 93.8553929516997 l -60.24279407529007 -18.433821144900918 a84.0,84.0 0 0,0 0.4349780649271846,-1.378999334294342 l 59.91656052659468 19.468070645621676" fill="#4dd2ff" stroke="none" /><path d="M 80.02781315780177 93.51064311812611 l -16.539343851647157 -5.373958580168777 a38.39049527369443,38.39049527369443 0 0,0 0.20961705150113258,-0.6267283034264722 l 16.44438950637425 5.657859986517572" fill="#ffc712" stroke="none" /><path d="M 80.14247586403 93.16781622104843 l -28.885445315312783 -9.938332169698377 a51.547330446033854,51.547330446033854 0 0,0 0.295898660845147,-0.836545360351436 l 28.710093573657826 10.434075156476425" fill="#95ff23" stroke="none" /><path d="M 80.2630227832202 92.82701384747504 l -19.810353329379485 -7.199653145845299 a42.078071649354854,42.078071649354854 0 0,0 0.25326072291324786,-0.6786128240980052 l 19.683488017964606 7.539589106972645" fill="#fff717" stroke="none" /><path d="M 80.38941819471856 92.48833698450439 l -30.336699885498906 -11.620209374956987 a53.486068181001336,53.486068181001336 0 0,0 0.3367239621426677,-0.8569257554148069 l 30.132182373474546 12.140684135267557" fill="#7fff26" stroke="none" /><path d="M 80.52162464483688 92.15188598940014 l -18.80083370852714 -7.575122860528434 a41.26952970563922,41.26952970563922 0 0,0 0.2711571472278081,-0.6566285400041207 l 18.66765487441313 7.897625970985866" fill="#ffed16" stroke="none" /><line stroke="#e1ed5e" stroke-width="0.3" x1="26.266209847984243" x2="21.928928074336255" y1="57.711370442889674" y2="55.22380399835377" /><path d="M 25.398753493254645 57.213857153982495 a86.0,86.0 0 0,1 29.58750427330803,-30.492523968695096" fill="none" id="id71" stroke="none" /><text fill="#e1ed5e" style="font-size:6.75px; font-family:Arial;" text-anchor="middle"><textPath startOffset="21.46611528233685" xlink:href="#id71">November</textPath></text><line stroke="#e1ed5e" stroke-width="0.3" x1="56.762969772571076" x2="54.21961505331055" y1="26.818313649435495" y2="22.513508569990535" /><path d="M 56.25429882871897 25.957352633546506 a86.0,86.0 0 0,1 42.265352541879196,-11.944610805530505" fill="none" id="id72" stroke="none" /><text fill="#e1ed5e" style="font-size:6.75px; font-family:Arial;" text-anchor="middle"><textPath startOffset="22.20632615414155" xlink:href="#id72">December</textPath></text></svg>