<?xml version="1.0" encoding="utf-8" ?>
<svg baseProfile="full" height="200mm" version="1.1" viewBox="0,0,200,200" width="200mm" xmlns="http://www.w3.org/2000/svg" xmlns:ev="http://www.w3.org/2001/xml-events" xmlns:xlink="http://www.w3.org/1999/xlink"><defs /><rect fill="#1a1a1a" height="200" width="200" x="0" y="0" /><text alignment-baseline="middle" fill="#e1ed5e" style="dominant-baseline: central; font-size:9.0px; font-family:Arial;" text-anchor="middle" x="100.0" y="100.0">2024</text><line stroke="#e1ed5e" stroke-width="0.3" x1="100.0" x2="100.0" y1="15.0" y2="10.0" /><path d="M 100.0 14.0 a86.0,86.0 0 0,1 42.35913384403234,11.155469271406648" fill="none" id="id49" stroke="none" /><text fill="#e1ed5e" style="font-size:6.75px; font-family:Arial;" text-anchor="middle"><textPath startOffset="22.145653131862478" xlink:href="#id49">January</textPath></text><path d="M 100.0 79.0 l 0.0 -14.963594976151974 a35.963594976151974,35.963594976151974 0 0,0 0.6173629305253622,0.005299318255218719 l -0.25687000567650736 14.96139005609119" fill="#ff730a" stroke="none" /><path d="M 100.72087961077811 79.0123766808444 l 1.2781950033930658 -37.213252890707174 a58.235198041294545,58.235198041294545 0 0,0 0.9988008647991873,0.04289280671009088 l -1.9168216287930895 37.185827515571255" fill="#61ff29" stroke="none" /><path d="M 101.08105385017728 79.02784411241856 l 1.3451362888502576 -26.09528464764663 a47.1299305869205,47.1299305869205 0 0,0 0.8076177002527788,0.048584275355542564 l -1.7928983412354986 26.068348394466394" fill="#ecff1a" stroke="none" /><path d="M 102.15924093988457 79.11130261209362 l 2.4193386859140342 -23.40490713908703 a44.52961703611955,44.52961703611955 0 0,0 0.7596839571193893,0.08512417194432637 l -2.8207585446342205 23.35992720663573" fill="#ffef16" stroke="none" /><path d="M 102.51750503828377 79.15144685158666 l 2.2466179112416595 -18.60521914134079 a39.74037009603667,39.74037009603667 0 0,0 0.6765744607429085,0.08759610943576249 l -2.5656701938753597 18.56391143570463" fill="#ffab0f" stroke="none" /><path d="M 103.23170211078529 79.25015418208739 l 5.768458528651037 -37.037641766878856 a58.4841569392779,58.4841569392779 0 0,0 0.9906728732512394,0.16301484429825047 l -6.403408904955347 36.93316092408494" fill="#5eff29" stroke="none" /><path d="M 103.94208987418118 79.37332000966035 l 7.057356394690125 -36.927070811973124 a58.59540980005605,58.59540980005605 0 0,0 0.9863658712416011,0.1973007990356657 l -7.690218751462684 36.8004806162746" fill="#5dff2a" stroke="none" /><path d="M 104.29559338865022 79.4440306129975 l 4.831057801445837 -23.118360442529006 a44.617741404114,44.617741404114 0 0,0 0.7483831146713104,0.1631066166171731 l -5.227203332736282 23.032022367778115" fill="#fff016" stroke="none" /><path d="M 104.9986988182912 79.60360301121754 l 9.777380340514036 -39.895048328519636 a62.07568681663141,62.07568681663141 0 0,0 1.032805542529961,0.2625351301564595 l -10.460791176269392 39.72132796652791" fill="#36ff2e" stroke="none" /><path d="M 106.38641147887787 79.99465700312896 l 5.663221348503199 -17.739960213762398 a39.62198336450807,39.62198336450807 0 0,0 0.6461727805544484,0.21240982759051183 l -5.96691686670539 17.640129464769863" fill="#ffa90f" stroke="none" /><path d="M 107.06938296918511 80.22567764915836 l 12.516183238947978 -35.009992109352034 a58.1800267666366,58.1800267666366 0 0,0 0.9375596292801536,0.34428488242570315 l -13.115332019882254 34.78997637791761" fill="#62ff29" stroke="none" /><path d="M 108.07796709384702 80.6158196554323 l 8.799438602693247 -21.115449323317932 a43.87558348650752,43.87558348650752 0 0,0 0.6927430733598757,0.29569082496791205 l -9.160616751223552 20.961283848690616" fill="#ffe615" stroke="none" /><path d="M 108.73861861582097 80.90454125486305 l 12.950446748320083 -28.29906332860444 a52.12155292168819,52.12155292168819 0 0,0 0.8103940609273727,0.3793053397089646 l -13.43432952311896 28.072581757324944" fill="#abff21" stroke="none" /><path d="M 109.3889696526874 81.21577127319529 l 21.22443496024221 -42.46308760581252 a68.47199646528952,68.47199646528952 0 0,0 1.0468806733299294,0.5345447311223829 l -21.95024285528572 42.0924849230173" fill="#37ff7b" stroke="none" /><path d="M 109.71004243097381 81.37971332152246 l 8.679232077363462 -16.643571907989912 a39.770656762861705,39.770656762861705 0 0,0 0.602641323116976,0.32087256065227343 l -8.963662216266998 16.492128879615066" fill="#ffab0f" stroke="none" /><path d="M 110.34350942703115 81.72400993836675 l 9.254421451659754 -16.35167596354625 a39.78886966322765,39.78886966322765 0 0,0 0.5915421335324098,0.3415270100319424 l -9.533756053052562 16.190402056238135" fill="#ffac0f" stroke="none" /><line stroke="#e1ed5e" stroke-width="0.3" x1="143.13028292997686" x2="145.6673583964461" y1="26.7553504044142" y2="22.446841604673864" /><path d="M 143.63769802327073 25.89364864446614 a86.0,86.0 0 0,1 29.32050498858742,28.57503671076993" fill="none" id="id50" stroke="none" /><text fill="#e1ed5e" style="font-size:6.75px; font-family:Arial;" text-anchor="middle"><textPath startOffset="20.669276256404974" xlink:href="#id50">February</textPath></text><path d="M 110.65571695917076 81.90426304109057 l 9.482307795291705 -16.103031666896722 a39.68747682245328,39.68747682245328 0 0,0 0.5840999552717311,0.3507352405858314 l -9.75734050712087 15.93788242577497" fill="#ffaa0f" stroke="none" /><path d="M 111.27062007382361 82.28071324371311 l 19.994451094756002 -31.43459811101081 a58.25469142244174,58.25469142244174 0 0,0 0.8391848163677668,0.5439494592262705 l -20.531121543380777 31.086734810080646" fill="#61ff29" stroke="none" /><path d="M 111.8722381534696 82.67804972795209 l 21.08692024177091 -30.766446822990066 a58.299228616617306,58.299228616617306 0 0,0 0.8206446742788208,0.5728737171238616 l -21.61196000722349 30.39992829006108" fill="#61ff29" stroke="none" /><path d="M 113.59037401385872 83.9905735841838 l 12.808630054237977 -15.088533997050181 a40.79204037097912,40.79204037097912 0 0,0 0.5299478893116635,0.45775636486463095 l -13.065757423312501 14.866433499720829" fill="#ffba11" stroke="none" /><path d="M 114.13192950727249 84.46653392183569 l 12.526569131562482 -13.768893807513813 a39.61443984895614,39.61443984895614 0 0,0 0.4990857814336908,0.46194634837694476 l -12.76108468431014 13.551829713004492" fill="#ffa90f" stroke="none" /><path d="M 114.91283532996326 85.21462403516908 l 13.31009608050104 -13.196335259119047 a39.743049963739566,39.743049963739566 0 0,0 0.476184568257125,0.4886073166026431 l -13.534667449908977 12.965905250448662" fill="#ffab0f" stroke="none" /><path d="M 115.41159269507618 85.73525988315684 l 21.203275956232524 -19.625435678558915 a49.89180916539152,49.89180916539152 0 0,0 0.5763746482229652,0.633536704374156 l -21.537048305297365 19.258561398627087" fill="#c7ff1d" stroke="none" /><path d="M 115.6541949942343 86.00192230759917 l 14.227286622487178 -12.722127427630895 a40.08581177008934,40.08581177008934 0 0,0 0.454284747310466,0.5168926505384552 l -14.443582433756234 12.476022499281141" fill="#ffb010" stroke="none" /><path d="M 116.1254893667686 86.54754324733833 l 15.294416797567981 -12.759146457314337 a40.91770577895272,40.91770577895272 0 0,0 0.44532722882083975,0.5432268099668722 l -15.51119084562745 12.494717365648969" fill="#ffbc11" stroke="none" /><path d="M 116.35404254752997 86.82634096563983 l 43.84331909334053 -35.31707435587879 a77.29860007299604,77.29860007299604 0 0,0 0.8235377000353347,1.0405129811405418 l -44.44312322401743 34.55924143082357" fill="#44ffe5" stroke="none" /><path d="M 116.7966241395341 87.39550010848427 l 15.051590320327254 -11.294993981151643 a39.818269320137304,39.818269320137304 0 0,0 0.40557368529736576,0.5502385967874556 l -15.243266025208445 11.034949075095312" fill="#ffac0f" stroke="none" /><path d="M 117.01052211995028 87.68569379921539 l 15.141194648362367 -10.961057269778877 a39.69225914251591,39.69225914251591 0 0,0 0.39481493524322403,0.5553566504485271 l -15.327124682135553 10.699523392620847" fill="#ffaa0f" stroke="none" /><path d="M 117.21940702142032 87.97951657250589 l 15.51687329952027 -10.831982664175644 a39.92366786408932,39.92366786408932 0 0,0 0.387469202603695,0.5653291462562049 l -15.700532238939289 10.564018782849391" fill="#ffae10" stroke="none" /><path d="M 117.62189284568427 88.57770195909679 l 33.38567292897164 -21.64018983830228 a60.78568804429592,60.78568804429592 0 0,0 0.5600454875675676,0.8804845275391885 l -33.7522361081651 21.06389163608442" fill="#44ff2d" stroke="none" /><line stroke="#e1ed5e" stroke-width="0.3" x1="172.87174338648825" x2="177.1583165268699" y1="56.24261187166439" y2="53.66864786411523" /><path d="M 173.72905801456457 55.72781907015455 a86.0,86.0 0 0,1 12.242430191666344,42.057860355516425" fill="none" id="id51" stroke="none" /><text fill="#e1ed5e" style="font-size:6.75px; font-family:Arial;" text-anchor="middle"><textPath startOffset="22.145653131862474" xlink:href="#id51">March</textPath></text><path d="M 118.18653347947321 89.5 l 16.2981891607292 -9.409763899250448 a39.81952779850089,39.81952779850089 0 0,0 0.33669616941036096,0.5949098697442678 l -16.45731869516094 9.128597259407062" fill="#ffac0f" stroke="none" /><path d="M 118.36410011445183 89.81374322990088 l 32.57028890533218 -18.06619021886809 a58.24528088766588,58.24528088766588 0 0,0 0.47748552227487445,0.8785195806705826 l -32.87561977722239 17.504415804722907" fill="#61ff29" stroke="none" /><path d="M 118.70294669586156 90.45014215332178 l 10.812799560342869 -5.521092499758231 a33.14080296862763,33.14080296862763 0 0,0 0.25436369041505363,0.5088977723112487 l -10.90598316396966 5.334662871283231" fill="#ff4706" stroke="none" /><path d="M 118.8641267826498 90.77261029715802 l 33.617833541938644 -16.44416699648401 a58.4241814908723,58.4241814908723 0 0,0 0.43295307031877733,0.9047053999005263 l -33.89516587021733 15.864649094518379" fill="#5fff29" stroke="none" /><path d="M 119.16976305983485 91.42560881287824 l 37.33623726381065 -16.700024030336824 a61.900921941117545,61.900921941117545 0 0,0 0.4255426571528422,0.9737248777616897 l -37.617413802980465 16.056637082799284" fill="#38ff2e" stroke="none" /><path d="M 119.4528033332814 92.08871423366111 l 17.84721051254146 -7.258305143873864 a40.26670487241023,40.26670487241023 0 0,0 0.25490995716601095,0.6425396115669638 l -17.969179144673593 6.950864515093334" fill="#ffb310" stroke="none" /><path d="M 119.58574465831526 92.42381321644754 l 24.3745785690489 -9.428610616093561 a47.13462795925456,47.13462795925456 0 0,0 0.2854323050590072,0.7571431005668513 l -24.532841557922346 9.008799235332553" fill="#ecff1a" stroke="none" /><path d="M 119.83427380445688 93.10060997987247 l 35.74870093545787 -12.435253889214694 a58.84977090897692,58.84977090897692 0 0,0 0.32371459414825565,0.9570046772854673 l -35.95690095117849 11.819747537455065" fill="#5aff2a" stroke="none" /><path d="M 120.05942366710727 93.78553927170692 l 25.325510590812804 -7.845907918513627 a47.51301110306346,47.51301110306346 0 0,0 0.23467735044372648,0.7811645749554407 l -25.45646426126016 7.410005739967463" fill="#e7ff1a" stroke="none" /><path d="M 120.26092885502905 94.47779374421319 l 29.110393945345333 -7.934167317975808 a51.172272812680745,51.172272812680745 0 0,0 0.22372156834924783,0.8495072351454435 l -29.24230499449931 7.433279578457566" fill="#b7ff1f" stroke="none" /><path d="M 120.35273937422433 94.82641323984039 l 19.674937152398403 -5.0012920858964325 a41.3006422183949,41.3006422183949 0 0,0 0.1687671554869598,0.6886275863198087 l -19.757891834401654 4.662808674968529" fill="#ffc112" stroke="none" /><path d="M 120.51834098615036 95.52812308129327 l 39.99012343349296 -8.715661274913947 a61.92887396062879,61.92887396062879 0 0,0 0.21746556818695376,1.040651467196457 l -40.13384671250429 8.027893356432086" fill="#38ff2e" stroke="none" /><path d="M 120.65975698304385 96.23510406497455 l 18.681043211396794 -3.404308371407591 a39.9886990326802,39.9886990326802 0 0,0 0.11727196800836777,0.6763935476595031 l -18.736729996897395 3.0831217908274953" fill="#ffae10" stroke="none" /><path d="M 120.7213421655516 96.59031103205396 l 29.482140477872754 -4.851274996363742 a50.8786123547826,50.8786123547826 0 0,0 0.13441283311995067,0.8630268098905973 l -29.56107480313097 4.344460004541704" fill="#bbff1f" stroke="none" /><path d="M 120.9064616781168 98.02013634271609 l 18.612320563829794 -1.7626061085514118 a39.69559458976002,39.69559458976002 0 0,0 0.05842128683945916,0.6789439089785877 l -18.639835473366993 1.4428411521971622" fill="#ffaa0f" stroke="none" /><path d="M 120.93736805541906 98.37931529534042 l 22.421868535363508 -1.7355944304444788 a43.48894120771616,43.48894120771616 0 0,0 0.05122591136210594,0.7448135086628891 l -22.44835840789068 1.3504374976272557" fill="#ffe015" stroke="none" /><path d="M 120.98066250479742 99.09900007780936 l 18.65734286061836 -0.8012265800404276 a39.67453899434281,39.67453899434281 0 0,0 0.023380230395749827,0.6806898979032502 l -18.668347778010958 0.4808304175730574" fill="#ffaa0f" stroke="none" /><line stroke="#e1ed5e" stroke-width="0.3" x1="184.99686870605535" x2="189.99668451229388" y1="99.2704041080226" y2="99.22748670261217" /><path d="M 185.99683186730306 99.26182062694052 a86.0,86.0 0 0,1 -10.086455211305974,41.156179273409016" fill="none" id="id52" stroke="none" /><text fill="#e1ed5e" style="font-size:6.75px; font-family:Arial;" text-anchor="middle"><textPath startOffset="21.40746469413373" xlink:href="#id52">April</textPath></text><path d="M 120.99922638620191 99.81974689727618 l 18.63661579282891 -0.1599729322950977 a39.63730236779419,39.63730236779419 0 0,0 0.0,0.6804520700378469 l -18.63661579282891 -0.15997293229509546" fill="#ffa90f" stroke="none" /><path d="M 120.98066250479742 100.90099992219065 l 11.137548407697379 0.47829425054786945 a32.14781368358431,32.14781368358431 0 0,0 -0.0284101106863604,0.5511485574933266 l -11.127696707554447 -0.6694146014179266" fill="#ff3705" stroke="none" /><path d="M 120.86939407059847 102.33845913500097 l 18.527805574566244 2.0760792599343576 a39.64375725283017,39.64375725283017 0 0,0 -0.08158668958550704,0.6756548281572095 l -18.489436798721073 -2.3938277650149753" fill="#ffa90f" stroke="none" /><path d="M 120.77682067341334 103.0534771498775 l 22.99871766565891 3.380019492512471 a44.24576404497076,44.24576404497076 0 0,0 -0.11688995087701289,0.7505173358233853 l -22.937306222643628 -3.774325010267307" fill="#ffeb16" stroke="none" /><path d="M 120.7213421655516 103.40968896794604 l 19.013392608888065 3.128646518348082 a40.26908216642637,40.26908216642637 0 0,0 -0.11809422736378954,0.6811361211146643 l -18.95688356403204 -3.454575672383334" fill="#ffb310" stroke="none" /><path d="M 120.592083275326 104.11899336999214 l 25.65448771745109 5.131616039322411 a47.16268761461406,47.16268761461406 0 0,0 -0.1656135499227159,0.7925207891601282 l -25.56261645670401 -5.571253279767948" fill="#ebff1a" stroke="none" /><path d="M 120.51834098615036 104.47187691870673 l 11.203330063221827 2.4417136432322515 a32.46632330003984,32.46632330003984 0 0,0 -0.12335523640478645,0.5435259321680819 l -11.159763965259376 -2.6336739093393504" fill="#ff3c05" stroke="none" /><path d="M 120.43855184770803 104.8234425847677 l 21.74119842667154 5.130863630480356 a43.3384303527014,43.3384303527014 0 0,0 -0.1770941859745975,0.7226047123155209 l -21.649916714180648 -5.503324167403976" fill="#ffde14" stroke="none" /><path d="M 120.26092885502905 105.52220625578681 l 25.965983624014104 7.0771443023253635 a47.91316178078126,47.91316178078126 0 0,0 -0.2230962480190194,0.7916898799373484 l -25.840668883920507 -7.52184210616572" fill="#e1ff1b" stroke="none" /><path d="M 120.16314734710363 105.8691983318838 l 11.054769466151297 3.217882277660153 a32.51358737764344,32.51358737764344 0 0,0 -0.16059185393774827,0.5345580520889324 l -10.997901292209919 -3.407177933339809" fill="#ff3d05" stroke="none" /><path d="M 119.94978838288452 106.5578916946017 l 14.699628718472471 4.832059931487901 a36.473457520619995,36.473457520619995 0 0,0 -0.2006293366329844,0.5931249842585508 l -14.614513960267121 -5.083686590220612" fill="#ff7a0b" stroke="none" /><path d="M 119.83427380445688 106.89939002012753 l 24.69643387732808 8.590701686677786 a47.14792538093083,47.14792538093083 0 0,0 -0.2724697241433628,0.7621463117136544 l -24.545323983140776 -9.01338295477236" fill="#ecff1a" stroke="none" /><path d="M 119.71291397450082 107.23885506374661 l 17.622019315053834 6.47104958288888 a39.77258765978566,39.77258765978566 0 0,0 -0.24085013217262663,0.6388835903049557 l -17.508338499066767 -6.772601453387995" fill="#ffab0f" stroke="none" /><path d="M 119.4528033332814 107.91128576633889 l 17.302641788630492 7.036833784684244 a39.67882337244335,39.67882337244335 0 0,0 -0.262020348617121,0.6287534515224165 l -17.179295595476887 -7.332819745647939" fill="#ffaa0f" stroke="none" /><path d="M 119.31412917781788 108.2440532568976 l 28.578290609835545 12.198372891135408 a52.072801537219036,52.072801537219036 0 0,0 -0.3579784862109188,0.819124832418007 l -28.36467824160766 -12.68715979332926" fill="#acff21" stroke="none" /><path d="M 118.8641267826498 109.22738970284198 l 33.387503890280115 16.33150122189178 a58.16777297853777,58.16777297853777 0 0,0 -0.44645174747433186,0.8932025611179857 l -33.10223222959405 -16.902235639173515" fill="#62ff29" stroke="none" /><path d="M 118.5362547648365 109.86951160357373 l 6.806050519117473 3.623838549110024 a28.710676332125157,28.710676332125157 0 0,0 -0.23536554506019852,0.4330460931369404 l -6.7428396244419355 -3.7401394757215676" fill="#ff0000" stroke="none" /><line stroke="#e1ed5e" stroke-width="0.3" x1="174.33088141563837" x2="178.70328620479359" y1="141.23008692659167" y2="143.65538615756765" /><path d="M 175.20536237346943 141.71514677278685 a86.0,86.0 0 0,1 -30.301960400862466,31.631185727798858" fill="none" id="id53" stroke="none" /><text fill="#e1ed5e" style="font-size:6.75px; font-family:Arial;" text-anchor="middle"><textPath startOffset="22.145653131862474" xlink:href="#id53">May</textPath></text><path d="M 118.18653347947321 110.5 l 14.019180973538305 8.093977908890416 a37.18795581778084,37.18795581778084 0 0,0 -0.32393594217165983,0.5501140489687961 l -13.878171321236879 -8.333443126152762" fill="#ff850c" stroke="none" /><path d="M 117.81537515405839 111.11811171558189 l 10.121317298849098 6.316450563872702 a32.93057465463545,32.93057465463545 0 0,0 -0.3034039809649919,0.47700145213872475 l -10.011395626258217 -6.4892656906900985" fill="#ff4406" stroke="none" /><path d="M 117.62189284568427 111.42229804090321 l 10.788195115810177 6.992777734792501 a33.85628617855873,33.85628617855873 0 0,0 -0.3203055548850287,0.4849834346296002 l -10.666565122004423 -7.176941047761162" fill="#ff5207" stroke="none" /><path d="M 117.423217284605 111.72311816256416 l 15.723856455307244 10.579712356548447 a39.9517802692626,39.9517802692626 0 0,0 -0.387742040541662,0.5657272249615553 l -15.53992467795026 -10.848074316580046" fill="#ffae10" stroke="none" /><path d="M 116.79662413953412 112.60449989151573 l 14.917379456449092 11.194279646822347 a39.650472022416764,39.650472022416764 0 0,0 -0.4132108285273516,0.5409062387881 l -14.723016650567438 -11.448706798851324" fill="#ffaa0f" stroke="none" /><path d="M 116.57777611688842 112.89097897827486 l 16.089740702939302 12.511479688532214 a41.381778133528385,41.381778133528385 0 0,0 -0.44088061562920383,0.557038255414093 l -15.872593656668538 -12.785837887860989" fill="#ffc312" stroke="none" /><path d="M 116.1254893667686 113.45245675266167 l 21.438430826389812 17.884701479588674 a48.91896959617067,48.91896959617067 0 0,0 -0.5434791216388949,0.6402170387318046 l -21.1282571412438 -18.250085300770035" fill="#d4ff1c" stroke="none" /><path d="M 115.89218393027572 113.72728997021213 l 17.33492033736568 14.973491316584427 a43.906438075585726,43.906438075585726 0 0,0 -0.4975831658560427,0.5661583026622556 l -17.075326107551053 -15.268861897057976" fill="#ffe615" stroke="none" /><path d="M 115.41159269507618 114.26474011684316 l 17.05167411937357 15.782774998178862 a44.23479237945659,44.23479237945659 0 0,0 -0.5205890896414496,0.5528475727414505 l -16.77822919599586 -16.07316403086481" fill="#ffeb16" stroke="none" /><path d="M 115.16444852881244 114.52719865689866 l 26.30278590602025 25.197473904878876 a57.42456914782918,57.42456914782918 0 0,0 -0.6880371207534272,0.7059866986550765 l -25.86636198411602 -25.64528329560169" fill="#6bff28" stroke="none" /><path d="M 114.65682725009322 115.03919595460226 l 9.328565272561642 9.571929771394416 a34.3657760565165,34.3657760565165 0 0,0 -0.42601700248106283,0.4081146514823881 l -9.162875784215267 -9.730656553182383" fill="#ff5a08" stroke="none" /><path d="M 114.39649973595853 115.28858382429668 l 22.952301356048395 24.37454865268336 a54.48024431752088,54.48024431752088 0 0,0 -0.6863738427598779,0.6352973818920539 l -22.53049774197455 -24.76496378070779" fill="#8eff24" stroke="none" /><path d="M 113.59037401385872 116.0094264158162 l 19.46130714666842 22.925370884014633 a51.07183243546348,51.07183243546348 0 0,0 -0.6732378104533001,0.5616389260126118 l -19.064895002053227 -23.256071993939113" fill="#b8ff1f" stroke="none" /><path d="M 112.7482090630111 116.68781488649013 l 18.82570563678053 24.643452991815245 a52.01140061465328,52.01140061465328 0 0,0 -0.7141586623714288,0.5359179742076043 l -18.399893985498334 -24.962989993286865" fill="#acff20" stroke="none" /><path d="M 112.45986205192187 116.90419585922612 l 16.816954404939796 22.81542843991032 a49.343495379971976,49.343495379971976 0 0,0 -0.6861541745464858,0.4967227076705815 l -16.422819220019342 -23.100751918953982" fill="#cfff1d" stroke="none" /><path d="M 111.5731344415666 117.5232005979908 l 14.6439328182187 22.172780728745344 a47.5721089420754,47.5721089420754 0 0,0 -0.6852974504196475,0.4442015278331126 l -14.261149735542043 -22.42089609828235" fill="#e6ff1a" stroke="none" /><path d="M 111.27062007382361 117.71928675628689 l 19.958889033920013 31.37868864467532 a58.18843035848392,58.18843035848392 0 0,0 -0.8474337758593301,0.5288613520672919 l -19.417291129270968 -31.716685793584162" fill="#62ff29" stroke="none" /><line stroke="#e1ed5e" stroke-width="0.3" x1="143.1302829299769" x2="145.66735839644613" y1="173.24464959558577" y2="177.55315839532614" /><path d="M 143.63769802327073 174.10635135553383 a86.0,86.0 0 0,1 -40.68552437913181,11.842963189579606" fill="none" id="id54" stroke="none" /><text fill="#e1ed5e" style="font-size:6.75px; font-family:Arial;" text-anchor="middle"><textPath startOffset="21.407464694133747" xlink:href="#id54">June</textPath></text><path d="M 110.34350942703117 118.27599006163325 l 21.478592917499032 37.95061564619736 a64.60710012877536,64.60710012877536 0 0,0 -0.9698935143798842,0.5379835829446625 l -20.823955214963053 -38.31373214457517" fill="#32ff49" stroke="none" /><path d="M 109.71004243097381 118.62028667847754 l 8.5942861869725 16.48067696262977 a39.586943487570565,39.586943487570565 0 0,0 -0.6052519014010328,0.3090459334459045 l -8.310107063857885 -16.62578084774851" fill="#ffa90f" stroke="none" /><path d="M 109.3889696526874 118.78422872680471 l 8.821474552974387 17.648858377482217 a40.730702352354285,40.730702352354285 0 0,0 -0.6281057379603454,0.30723799121631623 l -8.517208565751972 -17.797690118795757" fill="#ffb911" stroke="none" /><path d="M 109.06512990194946 118.94263497670748 l 13.618398253971769 28.457214610564105 a52.547960859546606,52.547960859546606 0 0,0 -0.8170239182704911,0.38240844770666743 l -13.12788562182977 -28.686799289841307" fill="#a6ff21" stroke="none" /><path d="M 108.4095320186766 119.2426549942271 l 5.1300801990657945 11.73862744610537 a33.81066341636159,33.81066341636159 0 0,0 -0.5338300035277993,0.22786028501183572 l -4.927815120367565 -11.824962380776611" fill="#ff5107" stroke="none" /><path d="M 108.07796709384702 119.3841803445677 l 14.294643818501086 34.30194138203953 a58.16127049058855,58.16127049058855 0 0,0 -0.9248903243727669,0.3761448431505114 l -13.703699032937878 -34.54227348176933" fill="#62ff29" stroke="none" /><path d="M 107.74402155503746 119.51999308798841 l 15.600972158194319 39.32464114795188 a63.30623752705911,63.30623752705911 0 0,0 -1.0135863339890623,0.39207696830138483 l -14.923613561711727 -39.5866580043913" fill="#30ff37" stroke="none" /><path d="M 107.06938296918513 119.77432235084164 l 8.795253297140048 24.60188882297851 a47.12679494731506,47.12679494731506 0 0,0 -0.7641143648370766,0.2657986410275537 l -8.37163316025795 -24.749245896574656" fill="#ecff1a" stroke="none" /><path d="M 106.72888874123015 119.89276391827305 l 4.659129925372945 13.773889751231236 a35.54054780744448,35.54054780744448 0 0,0 -0.5796109293139718,0.19052962500140885 l -4.421996258411238 -13.851840297634663" fill="#ff6c0a" stroke="none" /><path d="M 106.0420521117495 120.11202640906438 l 5.40186503965395 17.9810518556193 a39.774939993009454,39.774939993009454 0 0,0 -0.6556046303191726,0.1908369530016501 l -5.092400396953171 -18.07113250292347" fill="#ffab0f" stroke="none" /><path d="M 105.69591212413111 120.21278271476187 l 6.1793326935587976 21.928271773712 a43.782301365741326,43.782301365741326 0 0,0 -0.7251570821374825,0.19764478736688249 l -5.80199421048662 -22.031117055223024" fill="#ffe415" stroke="none" /><path d="M 105.3480935250658 120.30758222061773 l 9.745525444974582 37.00534748118646 a59.267100862255035,59.267100862255035 0 0,0 -0.9860767298642095,0.2506568487084214 l -9.108843421884975 -37.167189561730154" fill="#56ff2b" stroke="none" /><path d="M 104.64783097203109 120.47920084513623 l 8.237302610500409 36.29507518619693 a58.218082125072556,58.218082125072556 0 0,0 -0.9765045979430591,0.21282463214253486 l -7.613035595938213 -36.43113127647319" fill="#62ff29" stroke="none" /><path d="M 104.29559338865022 120.5559693870025 l 4.5639560260939795 21.84018175553925 a43.31195270977216,43.31195270977216 0 0,0 -0.7290917857819702,0.1458387765627429 l -4.1883677547810505 -21.915309928764856" fill="#ffde14" stroke="none" /><path d="M 103.94208987418118 120.62667999033965 l 2.6586673859918366 13.911271209410804 a35.16304977507029,35.16304977507029 0 0,0 -0.5938624960777498,0.10822152938595936 l -2.41947015636303 -13.954860912728128" fill="#ff6609" stroke="none" /><path d="M 103.58742460773223 120.69131181640829 l 4.1554259260201505 23.96739247981648 a45.32495564041595,45.32495564041595 0 0,0 -0.767766971162738,0.12633576293522697 l -3.74338145180434 -24.035194241247375" fill="#fffa17" stroke="none" /><path d="M 103.2317021107853 120.74984581791261 l 2.8930071533159087 18.575181227590377 a39.79911827791301,39.79911827791301 0 0,0 -0.6759688718419932,0.09934414589423958 l -2.57371317586623 -18.6221064467835" fill="#ffac0f" stroke="none" /><path d="M 102.875027216393 120.80226474461374 l 3.043689627037625 22.02262192895242 a43.23195725012336,43.23195725012336 0 0,0 -0.7360182628566185,0.09529229972576114 l -2.665193542290231 -22.071625824878577" fill="#ffdd14" stroke="none" /><path d="M 102.15924093988457 120.88869738790638 l 3.379149102387151 32.69020224864495 a53.86438759072615,53.86438759072615 0 0,0 -0.9205691535385896,0.08717885595224521 l -2.8174803854635466 -32.743392860102375" fill="#95ff23" stroke="none" /><path d="M 101.80034050326958 120.92268563240118 l 2.637109520878657 30.64721000463675 a51.76045883424719,51.76045883424719 0 0,0 -0.8859197023661187,0.06857578791092186 l -2.1106208237373023 -30.687963559542727" fill="#b0ff20" stroke="none" /><path d="M 101.44090949804482 120.95050786540614 l 1.4818721950645886 21.546096489997385 a42.596995604916515,42.596995604916515 0 0,0 -0.7299414024103699,0.043911462164606715 l -1.1117864405217535 -21.568359929986684" fill="#ffd413" stroke="none" /><path d="M 101.08105385017728 120.97215588758144 l 0.7122729388190352 13.817904727843953 a34.836250352141874,34.836250352141874 0 0,0 -0.5974819035286564,0.025658443743922756 l -0.4749652746895493 -13.828095740013707" fill="#ff6109" stroke="none" /><path d="M 100.72087961077811 120.9876233191556 l 0.9938419461002301 28.934623884026674 a49.95168701688928,49.95168701688928 0 0,0 -0.8572344257424848,0.02207931798727851 l -0.4969942062870015 -28.947420919364" fill="#c7ff1e" stroke="none" /><line stroke="#e1ed5e" stroke-width="0.3" x1="101.45913802915013" x2="101.54496967792366" y1="184.9874750549273" y2="189.98673829345242" /><path d="M 101.47630435890484 185.9873277026323 a86.0,86.0 0 0,1 -42.54439059252881,-10.42667462771756" fill="none" id="id55" stroke="none" /><text fill="#e1ed5e" style="font-size:6.75px; font-family:Arial;" text-anchor="middle"><textPath startOffset="22.145653131862474" xlink:href="#id55">July</textPath></text><path d="M 100.36049292484886 120.99690560180557 l 0.5297087183492372 30.85287723828591 a51.85742415055145,51.85742415055145 0 0,0 -0.8902016431980857,0.00764131045997675 l -3.778944571590507e-15 -30.857424150551452" fill="#aeff20" stroke="none" /><path d="M 99.63950707515114 120.99690560180557 l -0.513561358281493 29.912374466413794 a50.91678277301361,50.91678277301361 0 0,0 -0.8737966953212482,-0.022505903301207046 l 1.026971367673485 -29.899150845762538" fill="#baff1f" stroke="none" /><path d="M 99.27912038922189 120.98762331915562 l -1.05017226524011 30.574619664015078 a51.59264992421966,51.59264992421966 0 0,0 -0.8848734973830005,-0.03800027535395463 l 1.5748715232239492 -30.552086820235296" fill="#b2ff20" stroke="none" /><path d="M 98.91894614982273 120.97215588758144 l -1.283802986498476 24.90543496734574 a45.938501178315235,45.938501178315235 0 0,0 -0.7872013858850956,-0.04735608058136156 l 1.7111487245160177 -24.879726908939688" fill="#fcff18" stroke="none" /><path d="M 98.55909050195518 120.95050786540614 l -2.9461210323034384 42.835953225003784 a63.93714613049746,63.93714613049746 0 0,0 -1.0943329859470154,-0.08470829415780973 l 3.68102301302569 -42.779067163850925" fill="#31ff40" stroke="none" /><path d="M 98.19965949673042 120.92268563240118 l -1.991652272372586 23.146018382762158 a44.231548500890135,44.231548500890135 0 0,0 -0.7559391461488735,-0.07158822308726567 l 2.3886909819064748 -23.10841840416971" fill="#ffeb16" stroke="none" /><path d="M 97.84075906011543 120.88869738790638 l -2.593220292341183 25.087053948592175 a46.22072693845648,46.22072693845648 0 0,0 -0.7885346220934171,-0.08835694913139527 l 3.0234908160353995 -25.03884123895381" fill="#f8ff18" stroke="none" /><path d="M 97.12497278360702 120.80226474461374 l -4.071414685956488 29.458728494623994 a50.738747486486275,50.738747486486275 0 0,0 -0.8617732095876588,-0.126650985019078 l 4.576513001151832 -29.384496436306033" fill="#bdff1f" stroke="none" /><path d="M 96.76829788921471 120.74984581791261 l -3.2795093053555613 21.05680230162114 a42.31065706292209,42.31065706292209 0 0,0 -0.7167072656137228,-0.11793390781763531 l 3.6404940740223477 -20.997402395307837" fill="#ffd013" stroke="none" /><path d="M 96.41257539226777 120.69131181640829 l -5.1501413678232675 29.704646812794795 a51.14780254647832,51.14780254647832 0 0,0 -0.8638261437345071,-0.15741789895127734 l 5.659302245108832 -29.611860739912153" fill="#b7ff1f" stroke="none" /><path d="M 96.05791012581884 120.62667999033965 l -8.289953421082602 43.376539299984955 a65.16160650799355,65.16160650799355 0 0,0 -1.0968979480487864,-0.21941031002844935 l 9.033347854662347 -43.227839593293645" fill="#33ff50" stroke="none" /><path d="M 95.70440661134978 120.55596938700252 l -4.011645633669234 19.197176589174145 a40.611855845025815,40.611855845025815 0 0,0 -0.6811915218792329,-0.14846252170029728 l 4.340599572167603 -19.12548260934013" fill="#ffb811" stroke="none" /><path d="M 95.35216902796893 120.47920084513623 l -6.8470363797482054 30.169305652167864 a51.936530360069845,51.936530360069845 0 0,0 -0.8677551690314587,-0.20478785711659853 l 7.363923702519552 -30.04732165140504" fill="#adff20" stroke="none" /><path d="M 94.6519064749342 120.30758222061772 l -7.550566624290588 28.67073132068055 a50.648303337805075,50.648303337805075 0 0,0 -0.8388772339042841,-0.22863972042197162 l 8.041625259129567 -28.53689110611443" fill="#beff1f" stroke="none" /><path d="M 94.30408787586889 120.21278271476187 l -8.54393350978575 30.319405882515476 a52.50024083857699,52.50024083857699 0 0,0 -0.8653539387537,-0.2518919197677714 l 9.063147460921057 -30.168270268445188" fill="#a6ff21" stroke="none" /><path d="M 93.95794788825049 120.11202640906438 l -14.031231649410833 46.70540675011478 a69.76751461057961,69.76751461057961 0 0,0 -1.144052246543726,-0.35443031042410006 l 14.830924528826193 -46.45765985188403" fill="#39ff8b" stroke="none" /><path d="M 93.61358852112213 120.00534299687104 l -10.144345707007973 31.777018442787302 a54.3569580587999,54.3569580587999 0 0,0 -0.8864772469416292,-0.2914026787451739 l 10.688345691597346 -31.59819484264011" fill="#8fff24" stroke="none" /><path d="M 93.27111125876986 119.89276391827306 l -6.674861626690786 19.733042354126614 a41.831388294715836,41.831388294715836 0 0,0 -0.6782545838901991,-0.23593215225990768 l 7.0126219826260074 -19.615551769298115" fill="#ffc912" stroke="none" /><path d="M 92.93061703081489 119.77432235084164 l -11.479393976176857 32.10990801696475 a55.10018590738506,55.10018590738506 0 0,0 -0.8879286027111402,-0.3260596820082122 l 12.028911730542116 -31.90811748594782" fill="#86ff25" stroke="none" /><path d="M 92.25597844496254 119.51999308798841 l -12.53811620081628 31.60424332976244 a55.00047873651201,55.00047873651201 0 0,0 -0.8746268812594382,-0.3557031384122881 l 13.078797543266157 -31.38435293477086" fill="#88ff25" stroke="none" /><path d="M 91.92203290615298 119.3841803445677 l -11.146965477740045 26.7486592362783 a49.978364520801804,49.978364520801804 0 0,0 -0.7890986988306876,-0.3368193118217378 l 11.604499251741164 -26.55336527479716" fill="#c6ff1e" stroke="none" /><path d="M 91.26138138417905 119.09545874513695 l -21.608130964337164 47.21766580383635 a72.92705737604166,72.92705737604166 0 0,0 -1.1338812998770957,-0.5307137013656721 l 22.41550097808575 -46.83977587090015" fill="#3effb2" stroke="none" /><path d="M 90.93487009805054 118.94263497670748 l -12.843311883022139 26.83758219943204 a50.752419707241444,50.752419707241444 0 0,0 -0.7826500451114241,-0.3828333561579051 l 13.302122177395633 -26.61315509317691" fill="#bcff1f" stroke="none" /><path d="M 90.6110303473126 118.78422872680471 l -15.573751564525358 31.15793557163573 a55.83329853573674,55.83329853573674 0 0,0 -0.8536453467506653,-0.43587739651479585 l 16.106324132989606 -30.886000223448097" fill="#7eff26" stroke="none" /><path d="M 89.97174638481275 118.45085714620012 l -16.132639802789008 29.682240180041948 a54.7830941317137,54.7830941317137 0 0,0 -0.8224137531340026,-0.45617904544591303 l 16.63979774407911 -29.40092821916289" fill="#8aff24" stroke="none" /><line stroke="#e1ed5e" stroke-width="0.3" x1="58.13341422392154" x2="55.67067388415222" y1="173.97424548756322" y2="178.32567169271397" /><path d="M 57.64086615596768 174.84453072859336 a86.0,86.0 0 0,1 -31.369924170532247,-30.572349798747897" fill="none" id="id56" stroke="none" /><text fill="#e1ed5e" style="font-size:6.75px; font-family:Arial;" text-anchor="middle"><textPath startOffset="22.145653131862474" xlink:href="#id56">August</textPath></text><path d="M 89.65649057296885 118.27599006163327 l -17.162475874919163 30.324450394306073 a55.84426595401189,55.84426595401189 0 0,0 -0.8302381170309311,-0.4793382003592997 l 17.680506459810495 -30.0253652966706" fill="#7dff26" stroke="none" /><path d="M 89.34428304082925 118.09573695890944 l -13.765693353121733 23.377156781619735 a48.129057718332376,48.129057718332376 0 0,0 -0.7083388189758794,-0.4253371085676747 l 14.164964928655039 -23.13740567251614" fill="#dfff1b" stroke="none" /><path d="M 89.03521579738668 117.91015095944536 l -21.411686132214225 34.97438014628871 a62.00814028508936,62.00814028508936 0 0,0 -0.9030625526771441,-0.563577823088148 l 22.008912813681082 -34.60166652635901" fill="#37ff2e" stroke="none" /><path d="M 88.72937992617639 117.7192867562869 l -15.99099830548133 25.140505370437364 a50.795251921856554,50.795251921856554 0 0,0 -0.7317282628326833,-0.4742974194780815 l 16.420212200571022 -24.862294109255387" fill="#bcff1f" stroke="none" /><path d="M 88.4268655584334 117.5232005979908 l -13.143173637599372 19.90044005007706 a44.848910403932464,44.848910403932464 0 0,0 -0.6387845512676676,-0.42980275414163704 l 13.482854476964045 -19.6718876218783" fill="#fff316" stroke="none" /><path d="M 87.83215693770417 117.11559508785305 l -20.18070065280005 28.38668276654501 a55.82907459761726,55.82907459761726 0 0,0 -0.7763404740834928,-0.5620106335662799 l 20.665022137257495 -28.036071361605664" fill="#7eff26" stroke="none" /><path d="M 87.54013794807813 116.9041958592261 l -20.672606615857404 28.046361163467736 a55.841857568242006,55.841857568242006 0 0,0 -0.7667539392130135,-0.5753864504762161 l 21.151013543981186 -27.687355685727503" fill="#7dff26" stroke="none" /><path d="M 87.2517909369889 116.68781488649013 l -15.771017385582626 20.644768014186983 a46.979442560146424,46.979442560146424 0 0,0 -0.6366610551999133,-0.49507148733341694 l 16.123088385417766 -20.370995475232775" fill="#eeff19" stroke="none" /><path d="M 86.96720088162412 116.46651593811092 l -23.098055626395023 29.183638730004763 a58.218341489693934,58.218341489693934 0 0,0 -0.7783216440202795,-0.6269608219243885 l 23.595628040770567 -28.782829614286964" fill="#62ff29" stroke="none" /><path d="M 86.68645165197938 116.24036423190432 l -12.22332774444994 14.910472362938627 a40.28035080682393,40.28035080682393 0 0,0 -0.5309826158234084,-0.44296458317103127 l 12.47748469443524 -14.698445595855725" fill="#ffb310" stroke="none" /><path d="M 86.40962598614128 116.0094264158162 l -10.822669790595262 12.749077800105118 a37.723312056808496,37.723312056808496 0 0,0 -0.49008064859077966,-0.42331999185958125 l 11.039929918948904 -12.561413675780814" fill="#ff8d0d" stroke="none" /><path d="M 86.13680546590413 115.77377054828092 l -12.804255259117433 14.568892040157031 a40.395916271689444,40.395916271689444 0 0,0 -0.5169426417008485,-0.4622532978354089 l 13.052462927641653 -14.34694321243824" fill="#ffb410" stroke="none" /><path d="M 85.60350026404147 115.28858382429668 l -34.554439194832476 36.695616977801826 a71.4041424235242,71.4041424235242 0 0,0 -0.8851648998111953,-0.8479679507790231 l 35.17927658050899 -36.09703689671722" fill="#3bffa0" stroke="none" /><path d="M 85.34317274990678 115.03919595460226 l -38.799251524103134 39.81145009123149 a76.59076791336162,76.59076791336162 0 0,0 -0.9337074013938755,-0.9257270442070745 l 39.47695084562697 -39.13954303679576" fill="#43ffdd" stroke="none" /><path d="M 84.58840730492382 114.26474011684316 l -27.483837325108148 25.43862951825326 a58.44976883613508,58.44976883613508 0 0,0 -0.6752403954717624,-0.7422074793303469 l 27.91647542142179 -24.96308446336524" fill="#5fff29" stroke="none" /><path d="M 84.1078160697243 113.72728997021213 l -23.131066705206173 19.98006450062371 a51.565490743153156,51.565490743153156 0 0,0 -0.5728813964667292,-0.674852844548024 l 23.470642665180012 -19.58004487362613" fill="#b2ff20" stroke="none" /><path d="M 83.64595745247003 113.17365903436017 l -29.43622626973124 23.711740201769498 a58.79865130396887,58.79865130396887 0 0,0 -0.6264396252237691,-0.791486002302241 l 29.83893232559657 -23.202934255552577" fill="#5bff2a" stroke="none" /><path d="M 83.4222238831116 112.89097897827486 l -38.93008280745328 30.27226785757646 a70.31492217002909,70.31492217002909 0 0,0 -0.7327753180665478,-0.9592264137528198 l 39.444010102874124 -29.59952053058277" fill="#3aff92" stroke="none" /><path d="M 83.20337586046588 112.60449989151573 l -47.4202848989449 35.58506583817469 a80.28726954924075,80.28726954924075 0 0,0 -0.817775467129106,-1.1094694794865936 l 48.02416238565784 -34.76579004941922" fill="#48f9ff" stroke="none" /><path d="M 82.98947788004972 112.3143062007846 l -21.076738703242537 15.257933429406988 a47.019866388991645,47.019866388991645 0 0,0 -0.4677019122761398,-0.6578813115315288 l 21.33555571404864 -14.893874891165956" fill="#edff19" stroke="none" /><path d="M 82.576782715395 111.72311816256416 l -28.673823968284804 19.293028437967273 a55.56022464152104,55.56022464152104 0 0,0 -0.5256408954449838,-0.7958873112462599 l 29.000789302650517 -18.797961248381952" fill="#81ff25" stroke="none" /><path d="M 82.18462484594161 111.11811171558189 l -53.44612546217514 33.35433514674568 a84.0,84.0 0 0,0 -0.7529281421783813,-1.2298515355017718 l 54.01082156880893 -32.43194649511935" fill="#4dd2ff" stroke="none" /><path d="M 81.99639281039703 110.81064883170644 l -20.833969333796297 12.510199976384833 a45.30142756404865,45.30142756404865 0 0,0 -0.3946105747674471,-0.6701350260669374 l 21.045653618693514 -12.150713782024336" fill="#fff917" stroke="none" /><line stroke="#e1ed5e" stroke-width="0.3" x1="26.387840678322732" x2="22.057713659400548" y1="142.50000000000003" y2="145.00000000000006" /><path d="M 25.521815274538298 143.00000000000003 a86.0,86.0 0 0,1 -11.493303480769221,-40.785679425670985" fill="none" id="id57" stroke="none" /><text fill="#e1ed5e" style="font-size:6.75px; font-family:Arial;" text-anchor="middle"><textPath startOffset="21.40746469413373" xlink:href="#id57">September</textPath></text><line stroke="#e1ed5e" stroke-width="0.3" x1="15.003131293944662" x2="10.003315487706104" y1="100.72959589197737" y2="100.7725132973878" /><path d="M 14.003168132696942 100.73817937305945 a86.0,86.0 0 0,1 10.791469493833604,-42.45332614584628" fill="none" id="id58" stroke="none" /><text fill="#e1ed5e" style="font-size:6.75px; font-family:Arial;" text-anchor="middle"><textPath startOffset="22.145653131862435" xlink:href="#id58">October</textPath></text><line stroke="#e1ed5e" stroke-width="0.3" x1="26.387840678322718" x2="22.05771365940052" y1="57.49999999999999" y2="54.99999999999999" /><path d="M 25.521815274538284 56.99999999999999 a86.0,86.0 0 0,1 29.574782752854787,-30.34633250058573" fill="none" id="id59" stroke="none" /><text fill="#e1ed5e" style="font-size:6.75px; font-family:Arial;" text-anchor="middle"><textPath startOffset="21.40746469413373" xlink:href="#id59">November</textPath></text><line stroke="#e1ed5e" stroke-width="0.3" x1="56.869717070023135" x2="54.33264160355391" y1="26.7553504044142" y2="22.446841604673864" /><path d="M 56.362301976729285 25.89364864446614 a86.0,86.0 0 0,1 42.16139366436587,-11.88097634709845" fill="none" id="id60" stroke="none" /><text fill="#e1ed5e" style="font-size:6.75px; font-family:Arial;" text-anchor="middle"><textPath startOffset="22.145653131862474" xlink:href="#id60">December</textPath></text></svg>