<?xml version="1.0" encoding="utf-8" ?>
<svg baseProfile="full" height="200mm" version="1.1" viewBox="0,0,200,200" width="200mm" xmlns="http://www.w3.org/2000/svg" xmlns:ev="http://www.w3.org/2001/xml-events" xmlns:xlink="http://www.w3.org/1999/xlink"><defs /><rect fill="#1a1a1a" height="200" width="200" x="0" y="0" /><text alignment-baseline="middle" fill="#e1ed5e" style="dominant-baseline: central; font-size:9.0px; font-family:Arial;" text-anchor="middle" x="100.0" y="100.0">2023</text><line stroke="#e1ed5e" stroke-width="0.3" x1="100.0" x2="100.0" y1="15.0" y2="10.0" /><path d="M 100.0 14.0 a86.0,86.0 0 0,1 42.46469731375804,11.215312516191453" fill="none" id="id37" stroke="none" /><text fill="#e1ed5e" style="font-size:6.75px; font-family:Arial;" text-anchor="middle"><textPath startOffset="22.20632615414155" xlink:href="#id37">January</textPath></text><path d="M 100.0 79.0 l 0.0 -3.3722088681913114 a24.37220886819131,24.37220886819131 0 0,0 0.4195275115525696,0.0036110057414953083 l -0.058047032280041225 3.371709239058375" fill="#ff0300" stroke="none" /><path d="M 102.16513564639614 79.11191278185805 l 0.4539039400452715 -4.379025907270676 a25.402487556295462,25.402487556295462 0 0,0 0.43454377828100965,0.04882605665165684 l -0.5292144218360064 4.370563897148418" fill="#ff1202" stroke="none" /><path d="M 104.66035177308747 79.52364482259891 l 1.367490709641509 -6.008393107601196 a27.162046622383297,27.162046622383297 0 0,0 0.4549983150178113,0.10768340075874862 l -1.4707127116218437 5.983963794701579" fill="#ff2c04" stroke="none" /><line stroke="#e1ed5e" stroke-width="0.3" x1="143.23703022742887" x2="145.7803849466894" y1="26.81831364943548" y2="22.513508569990506" /><path d="M 143.74570117128098 25.957352633546492 a86.0,86.0 0 0,1 28.547481713284135,27.462654790039103" fill="none" id="id38" stroke="none" /><text fill="#e1ed5e" style="font-size:6.75px; font-family:Arial;" text-anchor="middle"><textPath startOffset="19.985693538727396" xlink:href="#id38">February</textPath></text><path d="M 110.68208982089419 81.91981866633111 l 3.4326033709709094 -5.809920383961153 a27.74818055259106,27.74818055259106 0 0,0 0.4091375853582966,0.24650081730668552 l -3.5321030225468437 5.749972957195853" fill="#ff3505" stroke="none" /><path d="M 111.2981086023043 82.29822771554956 l 5.082909245057162 -7.963855293458476 a30.4476958846395,30.4476958846395 0 0,0 0.4393645639018115,0.2857749340821884 l -5.219240834743253 7.875181435216759" fill="#ff5c08" stroke="none" /><path d="M 112.19680574252982 82.90503203632743 l 2.7242141569825895 -3.8182418186272753 a25.69044916384545,25.69044916384545 0 0,0 0.3577758182353093,0.2599393474398665 l -2.789535291571687 3.770783236370734" fill="#ff1602" stroke="none" /><path d="M 112.77801427241765 83.33499621200491 l 5.458581754240128 -7.119047112652919 a29.970894412481684,29.970894412481684 0 0,0 0.4067013904910196,0.317436886268799 l -5.580315699890578 7.024031837160893" fill="#ff5507" stroke="none" /><path d="M 113.34407831869373 83.78471172551755 l 9.488033949706749 -11.529549061252212 a35.93162046753833,35.93162046753833 0 0,0 0.47419894273446495,0.39712797730858085 l -9.685090429400331 11.36451992654981" fill="#ffa80f" stroke="none" /><path d="M 113.89432698308785 84.25364557470405 l 5.305940273495909 -6.0131891388200565 a29.019441738994637,29.019441738994637 0 0,0 0.371710046375613,0.33372494975851885 l -5.408661307467512 5.920965180292242" fill="#ff4706" stroke="none" /><path d="M 114.94478906791727 85.2469230424477 l 10.839547434233543 -10.700497461391892 a36.23142916801484,36.23142916801484 0 0,0 0.4343212142237556,0.447606189170142 l -11.022132912160407 10.512327076671635" fill="#ffac0f" stroke="none" /><path d="M 115.4437574822437 85.77008943001954 l 4.450870231979302 -4.1010411768297335 a27.052171887510507,27.052171887510507 0 0,0 0.312589597316787,0.3451692407411192 l -4.520803469912125 4.023819148819065" fill="#ff2b04" stroke="none" /><path d="M 115.68641384162765 86.03803664274999 l 11.163071691257741 -9.935884612076721 a35.94442948421461,35.94442948421461 0 0,0 0.40738412744263647,0.4657104811340427 l -11.332447682278225 9.742258574739731" fill="#ffa80f" stroke="none" /><path d="M 116.15771136456269 86.58626213691792 l 7.745863061380474 -6.430426579878451 a31.067213147880885,31.067213147880885 0 0,0 0.3380430976797333,0.414400867089561 l -7.855404651136616 6.296141543180789" fill="#ff6509" stroke="none" /><path d="M 116.38621287248628 86.86637796730983 l 11.617136073059752 -9.31118590202637 a35.88811718929163,35.88811718929163 0 0,0 0.38220147450241376,0.4853570594506442 l -11.77569162815613 9.109836448622689" fill="#ffa80f" stroke="none" /><path d="M 117.45458315368197 88.32363383020206 l 9.759574875706125 -6.528736258377292 a32.74196316149751,32.74196316149751 0 0,0 0.30933884077276097,0.4711442770149045 l -9.870510351836812 6.359773917384714" fill="#ff7c0b" stroke="none" /><line stroke="#e1ed5e" stroke-width="0.3" x1="172.23445277983987" x2="176.4835382374775" y1="55.19839476539836" y2="52.563006222186495" /><path d="M 173.08426987136738 54.67131705675599 a86.0,86.0 0 0,1 12.851231095245387,41.99856678651699" fill="none" id="id39" stroke="none" /><text fill="#e1ed5e" style="font-size:6.75px; font-family:Arial;" text-anchor="middle"><textPath startOffset="22.20632615414155" xlink:href="#id39">March</textPath></text><path d="M 117.84615892207809 88.93136811851018 l 12.940042798103047 -8.02573656820534 a36.22685637546263,36.22685637546263 0 0,0 0.32411685670016266,0.5327628916257792 l -13.076275453089433 7.801805903372481" fill="#ffac0f" stroke="none" /><path d="M 118.21658344932153 89.55222093294921 l 13.43007650630156 -7.702567969552711 a36.482135133459224,36.482135133459224 0 0,0 0.3077395937251944,0.5474343987304862 l -13.560673741319189 7.47025006088743" fill="#ffb010" stroke="none" /><path d="M 118.56541770881063 90.18545643968196 l 8.094187011140798 -4.278963837614142 a30.15562094534991,30.15562094534991 0 0,0 0.2386466542055414,0.46098937622069563 l -8.166643098506457 4.139001739133102" fill="#ff5808" stroke="none" /><path d="M 118.73160827565052 90.50648371742162 l 13.301460445983512 -6.741419608382851 a35.912263018480886,35.912263018480886 0 0,0 0.2747116888620271,0.5538020016113712 l -13.415532147798947 6.51145801827253" fill="#ffa80f" stroke="none" /><path d="M 119.04729006885535 91.15688171328212 l 18.91049406933239 -8.77960777154442 a41.84917980565228,41.84917980565228 0 0,0 0.29772240475946377,0.6559918542872347 l -19.058818791055202 8.452793908415122" fill="#fff617" stroke="none" /><path d="M 119.34039704204932 91.81776055985345 l 13.951277408970533 -5.902293112593127 a36.14843903935372,36.14843903935372 0 0,0 0.23750955430224538,0.5751482248317451 l -14.050808650158976 5.6612703173080785" fill="#ffab0f" stroke="none" /><path d="M 119.61058180528143 92.48833698450437 l 13.90953706002766 -5.327927347282301 a35.89503377109973,35.89503377109973 0 0,0 0.2160460744879147,0.5788960682772476 l -13.999187723017199 5.087708141975721" fill="#ffa80f" stroke="none" /><path d="M 119.7369772167798 92.82701384747503 l 9.984195293377914 -3.6285442191531985 a31.623111070051927,31.623111070051927 0 0,0 0.18152707689066508,0.5132014910689761 l -10.04517545107839 3.4561451016576075" fill="#ff6d0a" stroke="none" /><path d="M 119.97218684219823 93.5106431181261 l 14.13493200880993 -4.592717814575307 a35.86234704943997,35.86234704943997 0 0,0 0.18570636099181181,0.588739913183449 l -14.211893853569949 4.34872773496544" fill="#ffa70f" stroke="none" /><path d="M 120.18372546131832 94.20196356495316 l 22.932276274751818 -6.5875932386412295 a44.8597082928383,44.8597082928383 0 0,0 0.20681015387050372,0.7440061585866041 l -23.04227319918868 6.191875776635674" fill="#e3ff1b" stroke="none" /><path d="M 120.37134235888165 94.90015583598534 l 5.426424292885685 -1.3584729849417552 a26.59388321805492,26.59388321805492 0 0,0 0.10734709574215731,0.4450230147785513 l -5.449004188888662 1.2648647385037979" fill="#ff2403" stroke="none" /><path d="M 120.45610955862082 95.25157060432595 l 29.027261283812265 -6.738031020071366 a50.79904293204986,50.79904293204986 0 0,0 0.190389038746514,0.8534767291617048 l -29.138944709560818 6.237376121359698" fill="#9cff22" stroke="none" /><path d="M 120.6074358757038 95.95851677861258 l 6.182090260294707 -1.2124174114034656 a27.29985682106387,27.29985682106387 0 0,0 0.08646810541988349,0.4619160766979611 l -6.20204408962445 1.1058232572429418" fill="#ff2e04" stroke="none" /><path d="M 120.67395015179393 96.31383870115 l 14.69911051604902 -2.620848551628978 a35.93093088503187,35.93093088503187 0 0,0 0.10332390619012381,0.6098235431650842 l -14.742046283759366 2.3674392201480567" fill="#ffa80f" stroke="none" /><path d="M 120.87857604477298 97.74499172005257 l 15.212792994037525 -1.6430705853270684 a36.30126634065966,36.30126634065966 0 0,0 0.061751694050634645,0.6218311318643216 l -15.238821813770388 1.3809639227583117" fill="#ffad10" stroke="none" /><line stroke="#e1ed5e" stroke-width="0.3" x1="184.98032266829074" x2="189.97916517819016" y1="98.17113171792111" y2="98.06355123074" /><path d="M 185.9800911702706 98.14961562048488 a86.0,86.0 0 0,1 -9.607161424134198,41.387399972396054" fill="none" id="id40" stroke="none" /><text fill="#e1ed5e" style="font-size:6.75px; font-family:Arial;" text-anchor="middle"><textPath startOffset="21.466115282336823" xlink:href="#id40">April</textPath></text><path d="M 120.99513854157772 99.54816195383933 l 9.250393167921033 -0.19907844699067834 a30.25253511148033,30.25253511148033 0 0,0 0.006723255525539956,0.5207235497406151 l -9.252449430564289 0.03981863918960052" fill="#ff5908" stroke="none" /><path d="M 120.9904718944345 100.63252640178507 l 12.300081848040966 0.3706503861433465 a33.30566516598169,33.30566516598169 0 0,0 -0.022200394109320055,0.5728935267278867 l -12.291879321080442 -0.5823211598852395" fill="#ff840c" stroke="none" /><path d="M 120.9764740272857 100.99374915477107 l 9.126187923953006 0.4323482356430955 a30.136423316603132,30.136423316603132 0 0,0 -0.029007956496509342,0.5179565496881284 l -9.117393616568968 -0.5893765016666473" fill="#ff5708" stroke="none" /><path d="M 120.92983693683757 101.71520430193887 l 14.948442305465731 1.2250278216211412 a35.998553947750544,35.998553947750544 0 0,0 -0.05592701695175452,0.6171499717394535 l -14.925140692236901 -1.4821591819091653" fill="#ffa90f" stroke="none" /><path d="M 120.8583938346157 102.4346265915055 l 12.35135154034341 1.4416703960804576 a33.435203995273994,33.435203995273994 0 0,0 -0.07164446275290874,0.5710768597563782 l -12.324705568343653 -1.6540650101242307" fill="#ff860c" stroke="none" /><path d="M 120.81339534386255 102.79330883721812 l 15.95770723732061 2.1416402231023457 a37.10077771777638,37.10077771777638 0 0,0 -0.09039507142629333,0.6322229190168863 l -15.918478114877715 -2.4160086140996415" fill="#ffb811" stroke="none" /><path d="M 120.70491114924044 103.5080841355445 l 14.722308238763464 2.494436976750652 a35.93213232288488,35.93213232288488 0 0,0 -0.10857245858219414,0.6089320066613132 l -14.67718933784208 -2.7474877341451833" fill="#ffa80f" stroke="none" /><path d="M 120.5718875245553 104.21870165774334 l 9.34581427479911 1.9165573468644879 a30.54030589252038,30.54030589252038 0 0,0 -0.11004102871462428,0.5140750516099474 l -9.311439207360044 -2.077146217890604" fill="#ff5d08" stroke="none" /><path d="M 120.13307415673323 105.97154293290107 l 8.061471163799037 2.39106163232754 a29.408596378370902,29.408596378370902 0 0,0 -0.14812581690498797,0.4840837401479085 l -8.019118574387917 -2.529472345027506" fill="#ff4d07" stroke="none" /><path d="M 120.02730092923936 106.31721596034902 l 13.76150318491501 4.340793992425456 a35.429880886310286,35.429880886310286 0 0,0 -0.18846629717010563,0.5800396201128173 l -13.68474463672866 -4.577032512516069" fill="#ffa10e" stroke="none" /><path d="M 119.79798401119884 107.00284435728193 l 9.286409511175684 3.2847425479261183 a30.8502251352652,30.8502251352652 0 0,0 -0.18139306413009523,0.4991158072649133 l -9.228492186040361 -3.444106152197163" fill="#ff6209" stroke="none" /><path d="M 119.67450827220406 107.3425965602758 l 14.037019718627917 5.2386657534986245 a35.982708081586196,35.982708081586196 0 0,0 -0.22156047574600235,0.5784244880888608 l -13.944764963288408 -5.479513808420629" fill="#ffa90f" stroke="none" /><path d="M 119.26925614724726 108.34839909993367 l 13.696659892741584 5.934073544245057 a35.92687914622293,35.92687914622293 0 0,0 -0.2507335446029088,0.5653379513569302 l -13.592485263407402 -6.168959832094675" fill="#ffa80f" stroke="none" /><path d="M 118.97047184881838 109.00673069616215 l 5.453967942340658 2.589414795458747 a27.037452716089813,27.037452716089813 0 0,0 -0.2032273266984964,0.4187084869447175 l -5.4085873590274485 -2.68291223836874" fill="#ff2a04" stroke="none" /><path d="M 118.81262510543309 109.33194174019688 l 13.417931691215792 6.655921548141887 a35.97805670055874,35.97805670055874 0 0,0 -0.27998008973858785,0.5524272787722297 l -13.301372931690935 -6.885903038616811" fill="#ffa90f" stroke="none" /><line stroke="#e1ed5e" stroke-width="0.3" x1="174.80103733775053" x2="179.2010983576182" y1="140.37084112569926" y2="142.7455964860345" /><path d="M 175.68104954172406 140.8457921977663 a86.0,86.0 0 0,1 -30.038265399797805,32.042727171017184" fill="none" id="id41" stroke="none" /><text fill="#e1ed5e" style="font-size:6.75px; font-family:Arial;" text-anchor="middle"><textPath startOffset="22.206326154141568" xlink:href="#id41">May</textPath></text><path d="M 118.30583269289576 110.29060199501023 l 15.797241918027508 8.880400685646046 a39.12220650346718,39.12220650346718 0 0,0 -0.33505003551251794,0.5841879783676244 l -15.642039886362609 -9.151008509871986" fill="#ffd313" stroke="none" /><path d="M 118.12598468904814 110.60418214915192 l 5.036138103722657 2.946274461570457 a26.834656819614118,26.834656819614118 0 0,0 -0.23668055414607247,0.39669022258885633 l -4.984676673878358 -3.0325267780454173" fill="#ff2703" stroke="none" /><path d="M 117.75023020441432 111.22182372390056 l 10.98920448195103 6.947454435361856 a34.00114372959401,34.00114372959401 0 0,0 -0.31701231342249564,0.4920101503518929 l -10.867987305151484 -7.135586185635202" fill="#ff8e0d" stroke="none" /><path d="M 116.71984013943494 112.70617746262583 l 11.981668938086676 9.10542269280967 a36.04889075502392,36.04889075502392 0 0,0 -0.3797032800886614,0.49081767403184096 l -11.823158840779946 -9.310318360954764" fill="#ffaa0f" stroke="none" /><path d="M 115.56566222782051 114.09645910891815 l 10.038767402973358 9.09123377655155 a34.54353655995775,34.54353655995775 0 0,0 -0.40293158861393674,0.4373026594851897 l -9.880789406363698 -9.262687690838073" fill="#ff950d" stroke="none" /><path d="M 115.07121518719521 114.62390073753431 l 8.63496036875908 8.378674296453728 a33.03182128923524,33.03182128923524 0 0,0 -0.3994638422805445,0.404654763227982 l -8.489455901423 -8.526069553662374" fill="#ff800b" stroke="none" /><path d="M 114.55890576462653 115.13401014063108 l 9.939730948407234 10.332369162923728 a35.337227899620686,35.337227899620686 0 0,0 -0.44199159434265434,0.4179306401753072 l -9.760403519673773 -10.501934439844957" fill="#ffa00e" stroke="none" /><path d="M 114.29624159901734 115.38237550388516 l 4.1849583510352 4.502903814116314 a27.147358714039918,27.147358714039918 0 0,0 -0.345030584360091,0.3151772582167472 l -4.106828217208245 -4.574273838919644" fill="#ff2c04" stroke="none" /><path d="M 113.20401910651253 116.32954008644616 l 5.87414970709057 7.26461862421953 a30.342393619232144,30.342393619232144 0 0,0 -0.40896129366402445,0.3249035853748844 l -5.748230920709195 -7.3646561235995405" fill="#ff5a08" stroke="none" /><path d="M 112.92097659922987 116.55440617244103 l 8.034083382938384 10.293299312402453 a34.05750766948699,34.05750766948699 0 0,0 -0.4652438347375391,0.3567291334618906 l -7.855710819707351 -10.430067787691716" fill="#ff8f0d" stroke="none" /><path d="M 112.63410532772338 116.77436683061366 l 5.5223504887546975 7.332053237067819 a30.179071826271212,30.179071826271212 0 0,0 -0.4176424691205753,0.3089619142341067 l -5.395323049215557 -7.426025100041695" fill="#ff5808" stroke="none" /><path d="M 112.04921762599082 117.19931262002967 l 3.533011791136079 5.0430970849863455 a27.157515775449085,27.157515775449085 0 0,0 -0.3851751954506166,0.2649270116458811 l -3.445679711062579 -5.10316488599732" fill="#ff2c04" stroke="none" /><path d="M 111.7513745106137 117.40417183066458 l 6.310791310974934 9.346489320417101 a32.27754182379066,32.27754182379066 0 0,0 -0.46314476257081566,0.30694709411993953 l -6.148971849664154 -9.453734435628359" fill="#ff760a" stroke="none" /><path d="M 111.1453310114006 117.79835938074945 l 2.1648160428505236 3.4570686042839704 a25.078940038062452,25.078940038062452 0 0,0 -0.367849294065412,0.22596308071052235 l -2.1049875488528027 -3.4938201518228706" fill="#ff0d01" stroke="none" /><line stroke="#e1ed5e" stroke-width="0.3" x1="143.8653032363475" x2="146.44561519142675" y1="172.8068346515853" y2="177.08958963109032" /><path d="M 144.38136562736335 173.6633856474863 a86.0,86.0 0 0,1 -40.68145358897372,12.25698825130547" fill="none" id="id42" stroke="none" /><text fill="#e1ed5e" style="font-size:6.75px; font-family:Arial;" text-anchor="middle"><textPath startOffset="21.466115282336833" xlink:href="#id42">June</textPath></text><path d="M 110.8373102113329 117.98757091392108 l 4.8805518465846705 8.100651428036661 a30.45729030355701,30.45729030355701 0 0,0 -0.451394633518222,0.2666919059562763 l -4.740389342038067 -8.183461906286686" fill="#ff5c08" stroke="none" /><path d="M 109.89434966115114 118.52300852407294 l 3.4257086794926557 6.413198769432875 a28.27080452309142,28.27080452309142 0 0,0 -0.43120932769720377,0.2255883400397504 l -3.3148084492689565 -6.471216528417343" fill="#ff3c05" stroke="none" /><path d="M 109.57404056367764 118.69057910512821 l 4.525305577750974 8.83436635903942 a30.925946782939725,30.925946782939725 0 0,0 -0.4758856597198989,0.23861894900779745 l -4.372566010348314 -8.91095314895652" fill="#ff6309" stroke="none" /><path d="M 108.2653958097858 119.30500536409082 l 3.099265807131291 7.238775299856254 a28.874345457564214,28.874345457564214 0 0,0 -0.4585913475441669,0.1916912204663213 l -2.974203000089663 -7.291051563342548" fill="#ff4506" stroke="none" /><path d="M 107.93186726928326 119.44442032107085 l 2.913628044091231 7.142556276498153 a28.713970348805994,28.713970348805994 0 0,0 -0.45925797444393884,0.18274822603564245 l -2.790248993605426 -7.191651346939865" fill="#ff4306" stroke="none" /><path d="M 107.2578585660854 119.70592522655815 l 2.5011967147024334 6.791038291536069 a28.2370011802367,28.2370011802367 0 0,0 -0.45754757943379243,0.16406028322182037 l -2.3839295746389064 -6.83308611579785" fill="#ff3c05" stroke="none" /><path d="M 106.2309692047433 120.05430185196036 l 2.4421480779349722 7.86002516026082 a29.230679361662354,29.230679361662354 0 0,0 -0.4817842686278267,0.14515764800094494 l -2.3064888348668995 -7.90089817736749" fill="#ff4a06" stroke="none" /><path d="M 105.53697534728816 120.25689768951611 l 2.4666895445503814 9.024327290933078 a30.355374945082303,30.355374945082303 0 0,0 -0.5052139835879372,0.13343160488401626 l -2.310985118150947 -9.065450245120678" fill="#ff5b08" stroke="none" /><path d="M 104.83641907484287 120.43548508189849 l 1.6442622018517021 6.947556689504152 a28.139477721956425,28.139477721956425 0 0,0 -0.4723142335046708,0.10749718182253926 l -1.5244278189541691 -6.974830604904375" fill="#ff3b05" stroke="none" /><path d="M 102.34483914955558 120.86867818915974 l 0.6422860442140537 5.716238900494251 a26.752209882307483,26.752209882307483 0 0,0 -0.4580582210687256,0.0474796075008429 l -0.5437952265397255 -5.726447876450853" fill="#ff2603" stroke="none" /><line stroke="#e1ed5e" stroke-width="0.3" x1="102.19456741930631" x2="102.32365962044197" y1="184.97166512339345" y2="189.96999836594603" /><path d="M 102.22038585953345 185.97133177190398 a86.0,86.0 0 0,1 -42.740103519485714,-10.115201625700543" fill="none" id="id43" stroke="none" /><text fill="#e1ed5e" style="font-size:6.75px; font-family:Arial;" text-anchor="middle"><textPath startOffset="22.20632615414155" xlink:href="#id43">July</textPath></text><path d="M 100.54218724476979 120.99299961872073 l 0.25381280747948576 9.827402289601268 a30.830679361209015,30.830679361209015 0 0,0 -0.5306404909111956,0.009135457277336497 l -0.08461262667562218 -9.830315224157765" fill="#ff6109" stroke="none" /><path d="M 99.09653310690486 120.98055641714683 l -0.543030695697647 12.610408012070074 a33.6220946188559,33.6220946188559 0 0,0 -0.5779989201113146,-0.029875942030827756 l 0.7600176842224505 -12.599192263277045" fill="#ff890c" stroke="none" /><path d="M 98.73552117531835 120.96189622390904 l -0.40502963891910554 6.714378361193332 a27.726583515103652,27.726583515103652 0 0,0 -0.4761542158056862,-0.03283838252038596 l 0.5205466155037217 -6.7064116341566615" fill="#ff3505" stroke="none" /><path d="M 97.65516085044442 120.86867818915974 l -0.3577217693687836 3.1836642132270945 a24.203698282744995,24.203698282744995 0 0,0 -0.41362112259120754,-0.050083757703232 l 0.4124703150113805 -3.177034926798514" fill="#ff0000" stroke="none" /><path d="M 96.58105272829116 120.7198165907248 l -1.0729799728803913 6.502571252726775 a27.59050217502362,27.59050217502362 0 0,0 -0.4679231298684431,-0.08135443399984445 l 1.1847520742208844 -6.483138240205924" fill="#ff3304" stroke="none" /><path d="M 96.22490169976321 120.6578951692458 l -1.0860997556755327 5.943298190322962 a27.041722110323732,27.041722110323732 0 0,0 -0.45717557651988433,-0.08761878732707626 l 1.1882429467671123 -5.923722204647418" fill="#ff2a04" stroke="none" /><path d="M 95.86986931433489 120.58985236759428 l -1.4010308542980814 6.9845292190304065 a28.123660285708795,28.123660285708795 0 0,0 -0.4738281497591916,-0.09929529572684767 l 1.52105046548666 -6.959377942577017" fill="#ff3a05" stroke="none" /><path d="M 95.51606077576429 120.51570834832081 l -2.0805252757821497 9.519185616645306 a30.74389451027233,30.74389451027233 0 0,0 -0.5160287306696372,-0.11744645905509862 l 2.2440741558446495 -9.48196242401252" fill="#ff6008" stroke="none" /><path d="M 95.16358092515715 120.4354850818985 l -1.5909521722429196 6.722304018483055 a27.90800261517596,27.90800261517596 0 0,0 -0.4665244117826386,-0.11466034993362587 l 1.7064298687687687 -6.6939224102354" fill="#ff3705" stroke="none" /><path d="M 93.76903079525671 120.05430185196036 l -2.6689849373631493 8.590096951766473 a29.99517905528395,29.99517905528395 0 0,0 -0.4917476142337884,-0.1574420571998258 l 2.8164538966878783 -8.542882047906941" fill="#ff5507" stroke="none" /><path d="M 93.42475214034765 119.94407469862007 l -1.5653432313609459 4.74800691952815 a25.999386876393416,25.999386876393416 0 0,0 -0.4238274787078164,-0.14378529210973667 l 1.646840443005988 -4.720358640520289" fill="#ff1b02" stroke="none" /><path d="M 93.08242187328487 119.8279376855182 l -2.4234590352462626 6.946389885890157 a28.3570025242835,28.3570025242835 0 0,0 -0.4594920608660543,-0.16475750508209305 l 2.5426706567420436 -6.9036448397681065" fill="#ff3e05" stroke="none" /><path d="M 92.7421414339146 119.70592522655815 l -2.9027062728582993 7.881183168117125 a29.39873513309615,29.39873513309615 0 0,0 -0.4733613247847959,-0.1789847491151402 l 3.037937818403378 -7.830050168895351" fill="#ff4d07" stroke="none" /><path d="M 92.40401165467489 119.57807347666478 l -2.5296925286057714 6.520087175870191 a27.993631465142467,27.993631465142467 0 0,0 -0.44773670543775407,-0.17816367532618652 l 2.641550310085383 -6.475576656137937" fill="#ff3805" stroke="none" /><path d="M 91.7346041902142 119.30500536409082 l -5.892417892627036 13.762578543419771 a35.970943750650775,35.970943750650775 0 0,0 -0.5671064661376058,-0.24860280903194443 l 6.128445033422385 -13.659111181093374" fill="#ffa90f" stroke="none" /><path d="M 91.07499286063937 119.00905698771935 l -5.2389756975359445 11.158309011601725 a33.3269917805507,33.3269917805507 0 0,0 -0.5171830683305491,-0.24827930196197104 l 5.430271433866736 -11.066475433140193" fill="#ff840c" stroke="none" /><path d="M 90.7491055286396 118.85261126421891 l -3.4687438256079175 7.069033067213118 a28.874224548045703,28.874224548045703 0 0,0 -0.44431394435197524,-0.22278823550426077 l 3.589911677642653 -7.008276990799555" fill="#ff4506" stroke="none" /><path d="M 90.10565033884886 118.52300852407294 l -5.638844643741043 10.556365095125063 a32.96801624906241,32.96801624906241 0 0,0 -0.4982522045426855,-0.27168682880172335 l 5.819719660152369 -10.457737614563573" fill="#ff7f0b" stroke="none" /><line stroke="#e1ed5e" stroke-width="0.3" x1="58.666819895761336" x2="56.23545636021788" y1="174.27360380694188" y2="178.64263932499728" /><path d="M 58.180547188652646 175.14741091055294 a86.0,86.0 0 0,1 -31.652253787137756,-30.449443065178592" fill="none" id="id44" stroke="none" /><text fill="#e1ed5e" style="font-size:6.75px; font-family:Arial;" text-anchor="middle"><textPath startOffset="22.20632615414155" xlink:href="#id44">August</textPath></text><path d="M 89.4739219176387 118.17145234162733 l -7.773266251838499 13.419199071946919 a36.50801637716805,36.50801637716805 0 0,0 -0.5410698886474621,-0.3196736273408017 l 8.003104011514344 -13.283406872312366" fill="#ffb010" stroke="none" /><path d="M 88.8546689885994 117.79835938074946 l -6.034189304988591 9.63620279306225 a32.369601788869275,32.369601788869275 0 0,0 -0.46969555836013943,-0.29978192822163097 l 6.199166665395654 -9.530906436016815" fill="#ff770b" stroke="none" /><path d="M 88.24862548938628 117.40417183066458 l -8.364681230080764 12.388367786727741 a35.947894450393306,35.947894450393306 0 0,0 -0.5098491844929797,-0.3506789181473485 l 8.576687299196637 -12.242548079215293" fill="#ffa80f" stroke="none" /><path d="M 87.95078237400918 117.19931262002967 l -4.332069934707392 6.183689880257854 a28.55015565762714,28.55015565762714 0 0,0 -0.4000728855095345,-0.2854413812171212 l 4.437870148065811 -6.108204237196514" fill="#ff4106" stroke="none" /><path d="M 87.36589467227662 116.77436683061367 l -9.126839204309533 12.117751502448643 a36.17033603241595,36.17033603241595 0 0,0 -0.4941062042112865,-0.37885956761978684 l 9.334074137014307 -11.958852593001488" fill="#ffab0f" stroke="none" /><path d="M 86.51685102203217 116.09983520530335 l -9.678648899189863 11.556992549854115 a36.07449240641862,36.07449240641862 0 0,0 -0.4726351559983133,-0.4027899335425006 l 9.876149531765233 -11.388678226088663" fill="#ffaa0f" stroke="none" /><path d="M 86.24171649860922 115.8653595955263 l -10.641209062255916 12.270906344297757 a37.24224346625688,37.24224346625688 0 0,0 -0.48070451840207606,-0.4241658469338488 l 10.85085593356458 -12.085917355591619" fill="#ffba11" stroke="none" /><path d="M 85.44109423537348 115.13401014063109 l -9.074141194514073 9.432586972913702 a34.08868730696698,34.08868730696698 0 0,0 -0.4193720947238847,-0.4104438608129194 l 9.235163241613753 -9.274993009178212" fill="#ff8f0d" stroke="none" /><path d="M 85.18274418774928 114.88116024355367 l -10.62887913542317 10.674719774549834 a36.06395412700793,36.06395412700793 0 0,0 -0.4361323451486122,-0.44179976303895385 l 10.811052105627317 -10.490179517530215" fill="#ffaa0f" stroke="none" /><path d="M 84.67929136418377 114.36230785411682 l -8.412505298762976 7.886253423210921 a32.53096866949265,32.53096866949265 0 0,0 -0.3794560774747881,-0.411824628613404 l 8.547007784233495 -7.740277539796176" fill="#ff790b" stroke="none" /><path d="M 84.4343377721795 114.09645910891817 l -11.049819818079582 10.006855535389727 a35.90757108714174,35.90757108714174 0 0,0 -0.4109555686389467,-0.4617129378759193 l 11.220434236366863 -9.815168427772942" fill="#ffa80f" stroke="none" /><path d="M 84.19399662182784 113.82643327865904 l -7.191935274222833 6.291205362564943 a30.555270687038465,30.555270687038465 0 0,0 -0.34288468616633144,-0.3988523541255069 l 7.2991624699599456 -6.166475909277906" fill="#ff5d08" stroke="none" /><path d="M 83.50135304334701 112.99209946851258 l -11.911632282593764 9.37998805928742 a36.1615025517956,36.1615025517956 0 0,0 -0.3808894211242195,-0.4923509212137205 l 12.071328520936051 -9.173559143960446" fill="#ffab0f" stroke="none" /><path d="M 83.06392112726016 112.41649034213515 l -9.638014567633956 7.0659989065712905 a32.95071819404972,32.95071819404972 0 0,0 -0.33142178753904905,-0.4603158759230416 l 9.758216147548612 -6.899049425197108" fill="#ff7f0b" stroke="none" /><path d="M 82.85270091963577 112.12312394758628 l -13.677757674628387 9.67016151275104 a37.75091277180283,37.75091277180283 0 0,0 -0.3705685196467072,-0.5338315908572783 l 13.842187101437228 -9.43328865970675" fill="#ffc111" stroke="none" /><path d="M 82.24976979558568 111.22182372390057 l -13.854542295543252 8.75894169402075 a37.391076896233876,37.391076896233876 0 0,0 -0.3392534433155758,-0.5469845712726932 l 14.003260378526784 -8.519160791382793" fill="#ffbc11" stroke="none" /><path d="M 82.05923443525364 110.91462005526583 l -12.965463906681643 7.88779675376653 a36.17631681087985,36.17631681087985 0 0,0 -0.31907360572259513,-0.5347857162705818 l 13.099318388102471 -7.663448943609837" fill="#ffab0f" stroke="none" /><line stroke="#e1ed5e" stroke-width="0.3" x1="26.63291911575756" x2="22.317208475507996" y1="142.92168965132927" y2="145.44649492493687" /><path d="M 25.769776987707644 143.4266507060508 a86.0,86.0 0 0,1 -11.730757126820373,-40.83630448921669" fill="none" id="id45" stroke="none" /><text fill="#e1ed5e" style="font-size:6.75px; font-family:Arial;" text-anchor="middle"><textPath startOffset="21.46611528233685" xlink:href="#id45">September</textPath></text><path d="M 81.51974371655577 109.97397251340807 l -20.71402946272166 11.179561437586605 a44.53834341068365,44.53834341068365 0 0,0 -0.35831625747874646,-0.6777993241424889 l 20.903398228425292 -10.82134709835799" fill="#e7ff1a" stroke="none" /><path d="M 81.35079622478065 109.6543875284942 l -13.805932979662908 7.147105516386399 a36.54621827652323,36.54621827652323 0 0,0 -0.2844015050014703,-0.5611511505456797 l 13.926913154450645 -6.908400154138034" fill="#ffb010" stroke="none" /><path d="M 81.02952815118164 109.00673069616217 l -13.470960094857885 6.395692777704392 a35.912131034296664,35.912131034296664 0 0,0 -0.26032085270448385,-0.5607079574951969 l 13.579055564402195 -6.162864752930368" fill="#ffa80f" stroke="none" /><path d="M 80.45479744820244 107.68017299344265 l -14.003401119141158 5.502554542811906 a36.04570867058723,36.04570867058723 0 0,0 -0.2219483965339418,-0.5794372268565692 l 14.09604379526861 -5.260693749122178" fill="#ffaa0f" stroke="none" /><path d="M 80.0844068197444 106.66101706037122 l -8.723484070098182 2.917677404377208 a30.198478991511045,30.198478991511045 0 0,0 -0.16063829099403737,-0.49439382363231865 l 8.772414612108468 -2.7670846807670864" fill="#ff5808" stroke="none" /><path d="M 79.67330655649465 105.27499134158121 l -8.998790366935154 2.335281013718155 a30.296868584694387,30.296868584694387 0 0,0 -0.1266534416202657,-0.5059175412422887 l 9.037655122850481 -2.1800356330784747" fill="#ff5a08" stroke="none" /><path d="M 79.58551787078972 104.9243191809786 l -14.779415827532878 3.565045656438323 a36.203311571352444,36.203311571352444 0 0,0 -0.1409161047277206,-0.607062891049916 l 14.838592498191154 -3.3101141080398326" fill="#ffac0f" stroke="none" /><path d="M 79.4281124754447 104.21870165774334 l -14.590150816517346 2.992019733867258 a35.893780008331426,35.893780008331426 0 0,0 -0.11891108004458575,-0.606325035314202 l 14.639491829537597 -2.740430971485101" fill="#ffa80f" stroke="none" /><path d="M 79.35854240842038 103.8639653848113 l -12.981958224214425 2.430149953455498 a34.20745502099206,34.20745502099206 0 0,0 -0.1033611771240061,-0.5797043727194312 l 13.02186584367762 -2.206326830002853" fill="#ff910d" stroke="none" /><path d="M 79.23777060512086 103.15116336523772 l -14.753455545002357 2.2391886603247593 a35.92241322222675,35.92241322222675 0 0,0 -0.08752401725186205,-0.6121427728078558 l 14.789813613270818 -1.9849004155365029" fill="#ffa80f" stroke="none" /><path d="M 79.18660465613746 102.79330883721812 l -14.759774826861422 1.9808689922079006 a35.892105119960135,35.892105119960135 0 0,0 -0.07690907430246101,-0.6130409937037953 l 14.79168541041073 -1.7265102442166966" fill="#ffa80f" stroke="none" /><path d="M 79.1416061653843 102.43462659150553 l -11.966376912446155 1.3967355140581488 a33.047615801765744,33.047615801765744 0 0,0 -0.0610872564905722,-0.5655921272425335 l 11.988646470437779 -1.1905470649308332" fill="#ff810b" stroke="none" /><path d="M 79.07016306316243 101.71520430193888 l -16.121608434186157 1.3211690193257826 a37.1756528796475,37.1756528796475 0 0,0 -0.046776603951447546,-0.6382295967325944 l 16.141961596801938 -1.0434662860964277" fill="#ffb911" stroke="none" /><line stroke="#e1ed5e" stroke-width="0.3" x1="15.007084014347285" x2="10.007500721073583" y1="101.09737516637583" y2="101.16192664675087" /><path d="M 14.007167355692545 101.11028546245083 a86.0,86.0 0 0,1 10.666146001902534,-42.60595125391555" fill="none" id="id46" stroke="none" /><text fill="#e1ed5e" style="font-size:6.75px; font-family:Arial;" text-anchor="middle"><textPath startOffset="22.20632615414155" xlink:href="#id46">October</textPath></text><path d="M 79.12142395522702 97.74499172005258 l -27.28070617112586 -2.946475763805878 a48.43936312347646,48.43936312347646 0 0,0 0.09667031472551768,-0.8282122210019051 l 27.22594550339675 3.4156317231326447" fill="#b8ff1f" stroke="none" /><path d="M 79.26566170972629 96.67025291283419 l -17.731403327204468 -2.8475029081500454 a38.958589498173865,38.958589498173865 0 0,0 0.11203031893297659,-0.6612092840151857 l 17.679761146751268 3.152297980481059" fill="#ffd013" stroke="none" /><path d="M 79.32604984820605 96.31383870115002 l -15.979879994411865 -2.8492095009988594 a37.231899439572274,37.231899439572274 0 0,0 0.11792632565161804,-0.6299671470756658 l 15.928467944850386 3.123854725537098" fill="#ffba11" stroke="none" /><path d="M 79.46518482838121 95.60439243477599 l -31.46658778129045 -6.73562289931836 a53.179415197288456,53.179415197288456 0 0,0 0.1993104034274165,-0.8934694577223824 l 31.345982990860996 7.276270526590701" fill="#82ff25" stroke="none" /><path d="M 79.62865764111835 94.90015583598534 l -29.25780880690824 -7.324518083645759 a51.160701937111,51.160701937111 0 0,0 0.2212180666656929,-0.8524434513916336 l 29.12739440837224 7.827057960586257" fill="#98ff23" stroke="none" /><path d="M 79.91906864156998 93.8553929516997 l -14.270420520221364 -4.366636434616898 a35.92355237790516,35.92355237790516 0 0,0 0.1860233011744232,-0.5897447001740375 l 14.193141735278738 4.611631301217349" fill="#ffa80f" stroke="none" /><path d="M 80.14247586403 93.16781622104843 l -10.57277637777309 -3.637671583430514 a32.18106680434808,32.18106680434808 0 0,0 0.184729926643708,-0.52225637862122 l 10.508593370319572 3.8191255884783453" fill="#ff740a" stroke="none" /><path d="M 80.2630227832202 92.82701384747504 l -22.02316054289526 -8.003851039292819 a44.43248240706322,44.43248240706322 0 0,0 0.2674315189397594,-0.7165835121725308 l 21.88212443545387 8.381757688494691" fill="#e8ff1a" stroke="none" /><path d="M 80.38941819471856 92.48833698450439 l -13.990610294457662 -5.358981745497563 a35.98185107922118,35.98185107922118 0 0,0 0.2265253714223559,-0.5764823619664959 l 13.896291373153616 5.599013112359823" fill="#ffa90f" stroke="none" /><path d="M 80.65960295795067 91.81776055985345 l -15.693115004095754 -6.63920312732431 a38.03974403263289,38.03974403263289 0 0,0 0.26031736250932774,-0.6008483635871968 l 15.576506931743747 6.908350635498106" fill="#ffc412" stroke="none" /><path d="M 80.803312248108 91.48605970444005 l -28.236593169619088 -12.523236899160302 a51.889102548618496,51.889102548618496 0 0,0 0.3691481759816499,-0.8133690733305721 l 28.016842676674088 13.007427981332945" fill="#90ff24" stroke="none" /><path d="M 81.10775173730289 90.83032412892265 l -29.823509636723134 -14.475350572577169 a54.15082957107903,54.15082957107903 0 0,0 0.4142280267076232,-0.8350584253057541 l 29.5699215970621 14.986568586381884" fill="#77ff27" stroke="none" /><path d="M 81.43458229118936 90.18545643968196 l -30.02165573288849 -15.870843983406509 a54.95855564787329,54.95855564787329 0 0,0 0.4493304230186074,-0.8325410323890013 l 29.74401721065141 16.385265999127984" fill="#6eff28" stroke="none" /><line stroke="#e1ed5e" stroke-width="0.3" x1="26.266209847984243" x2="21.928928074336255" y1="57.711370442889674" y2="55.22380399835377" /><path d="M 25.398753493254645 57.213857153982495 a86.0,86.0 0 0,1 29.58750427330803,-30.492523968695096" fill="none" id="id47" stroke="none" /><text fill="#e1ed5e" style="font-size:6.75px; font-family:Arial;" text-anchor="middle"><textPath startOffset="21.46611528233685" xlink:href="#id47">November</textPath></text><path d="M 81.78341655067845 89.55222093294921 l -39.14592452892433 -22.451409288215235 a66.1272554699618,66.1272554699618 0 0,0 0.5748043209462363,-0.9825269100553239 l 38.75366053350778 23.12191561062445" fill="#36ff6e" stroke="none" /><path d="M 82.15384107792192 88.93136811851018 l -13.37138396532777 -8.293265094438295 a36.73442579425297,36.73442579425297 0 0,0 0.33790844434286466,-0.5344900100619806 l 13.226647924738943 8.522202752214492" fill="#ffb310" stroke="none" /><path d="M 82.34701348167596 88.62581576622439 l -31.378548405533387 -20.217847568314273 a58.327934048564664,58.327934048564664 0 0,0 0.5510694460884074,-0.8393165730942013 l 31.025882324087057 20.754982205386142" fill="#4aff2c" stroke="none" /><path d="M 82.7489923806493 88.02491185347247 l -12.282281810164864 -8.525960370699304 a35.95146971729006,35.95146971729006 0 0,0 0.3572675252143557,-0.5053295778413485 l 12.133701665146631 8.736116448872439" fill="#ffa80f" stroke="none" /><path d="M 83.17141714833178 87.43820079747577 l -16.871296144508285 -12.593682802745649 a42.05330093196484,42.05330093196484 0 0,0 0.4380032717531723,-0.576360963460771 l 16.652016932531005 12.882228542087443" fill="#fff817" stroke="none" /><path d="M 83.39014120810768 87.1503855733568 l -11.811903637885582 -9.13785055569411 a35.93390037227026,35.93390037227026 0 0,0 0.3826890565048109,-0.4859762390789602 l 11.652860500786801 9.339819188726116" fill="#ffa80f" stroke="none" /><path d="M 84.07557802195018 86.31012108654704 l -34.73408920629534 -29.860140359172366 a66.80485711428818,66.80485711428818 0 0,0 0.7571475974152463,-0.8655505900420456 l 34.21494974530225 30.453606505417355" fill="#37ff76" stroke="none" /><path d="M 84.80347519578584 85.50635884689758 l -45.58957441264248 -43.480923459307235 a84.0,84.0 0 0,0 1.0069429451875451,-1.0377432177995054 l 44.834367203751825 44.259230872656865" fill="#4dd2ff" stroke="none" /><path d="M 85.57189188830299 84.74124197986013 l -20.586015633777173 -21.771186403847654 a50.96278687147107,50.96278687147107 0 0,0 0.6425973420670736,-0.5972241966630512 l 20.208210407915242 22.122315186585354" fill="#9bff22" stroke="none" /><path d="M 86.37877921826538 84.01681056812374 l -9.827420242036682 -11.531530240355206 a36.1510520525084,36.1510520525084 0 0,0 0.4770948384453136,-0.39955320668491634 l 9.627467866632259 11.698984604433935" fill="#ffab0f" stroke="none" /><path d="M 86.65592168130627 83.78471172551755 l -9.558769766279546 -11.615504915951592 a36.04293966940091,36.04293966940091 0 0,0 0.48245465937206394,-0.3901114487395905 l 9.357411708342982 11.778322461955318" fill="#ffaa0f" stroke="none" /><path d="M 87.22198572758235 83.33499621200491 l -9.296005240378806 -12.12379006952102 a36.27749976530737,36.27749976530737 0 0,0 0.49882226615531466,-0.3757025891980769 l 9.0859368204651 12.28200924822495" fill="#ffad10" stroke="none" /><path d="M 87.80319425747018 82.90503203632743 l -23.168358626634223 -32.472629051730635 a60.89040585132767,60.89040585132767 0 0,0 0.8584644319376671,-0.6014091954200228 l 22.6059630551129 32.8666230899146" fill="#30ff2f" stroke="none" /><path d="M 88.09926311788651 82.69761687909137 l -9.511199826175476 -13.828254919184616 a37.78343100332569,37.78343100332569 0 0,0 0.5390351694195614,-0.3639589525932414 l 9.271759962349375 13.989925784076522" fill="#ffc111" stroke="none" /><path d="M 88.70189139769569 82.29822771554957 l -16.393731769953618 -25.685547634485633 a51.471327483859596,51.471327483859596 0 0,0 0.7509442353824194,-0.4702412113047165 l 15.949168382198955 25.96393318711328" fill="#95ff23" stroke="none" /><path d="M 89.00827224532344 82.1063720568725 l -13.46815046654668 -21.925040258380818 a46.73127410994569,46.73127410994569 0 0,0 0.6890369123057313,-0.41513702997757207 l 13.088751488023302 22.15362389781701" fill="#ccff1d" stroke="none" /><line stroke="#e1ed5e" stroke-width="0.3" x1="56.76296977257108" x2="54.21961505331056" y1="26.818313649435495" y2="22.513508569990535" /><path d="M 56.25429882871898 25.957352633546506 a86.0,86.0 0 0,1 42.26535254187918,-11.944610805530505" fill="none" id="id48" stroke="none" /><text fill="#e1ed5e" style="font-size:6.75px; font-family:Arial;" text-anchor="middle"><textPath startOffset="22.20632615414155" xlink:href="#id48">December</textPath></text><path d="M 89.94658935756843 81.56283822128135 l -21.606113200474717 -39.62390661783537 a66.13178595281451,66.13178595281451 0 0,0 1.0041165491897497,-0.5363642858189087 l 20.920851604756663 39.989949630156026" fill="#36ff6e" stroke="none" /><path d="M 90.26544431104013 81.39251694778311 l -9.407759729859217 -17.98281660982396 a41.29501506176631,41.29501506176631 0 0,0 0.6326780005232071,-0.324082245214846 l 9.096821241747246 18.14209138035131" fill="#ffef16" stroke="none" /><path d="M 90.91171255644093 81.06846463323043 l -6.517450627639697 -13.576303327177385 a36.05965387103066,36.05965387103066 0 0,0 0.5618811637902691,-0.26381074040338637 l 6.28279125254982 13.686479050220779" fill="#ffaa0f" stroke="none" /><path d="M 91.23893434514133 80.91482961587045 l -6.785483106636489 -14.781546712524793 a37.26459050222297,37.26459050222297 0 0,0 0.5852632521736353,-0.2625905612359929 l 6.530037735996079 14.896157604277317" fill="#ffba11" stroke="none" /><path d="M 92.23578459929587 80.48803036053334 l -3.5563172413139594 -8.937252569594703 a30.61882923299889,30.61882923299889 0 0,0 0.49138385331050655,-0.19064930097827976 l 3.4019502230037757 8.997144574463533" fill="#ff5e08" stroke="none" /><path d="M 92.57280143429618 80.3572730644239 l -2.1554069953762096 -5.7004092014865115 a27.09429605287672,27.09429605287672 0 0,0 0.43766019485172974,-0.16119394333021314 l 2.056964474751912 5.736666412623047" fill="#ff2b04" stroke="none" /><path d="M 93.25333710446033 80.11325718540243 l -6.456605514513511 -19.03175767197893 a41.09715290420449,41.09715290420449 0 0,0 0.6718742166163647,-0.2215063657512246 l 6.128048475654737 19.14007776198939" fill="#ffec16" stroke="none" /><path d="M 94.98787191387505 79.60689891045804 l -3.5859686070124104 -14.590413303516877 a36.024624162285086,36.024624162285086 0 0,0 0.6034575936366219,-0.14281891548090403 l 3.3342873264132544 14.649978131138653" fill="#ffa90f" stroke="none" /><path d="M 96.04723909329186 79.375362276772 l -4.873650383251612 -25.429636630348742 a46.892448459150074,46.892448459150074 0 0,0 0.7940563550240419,-0.14510872340015618 l 4.4351989071246765 25.509760835099634" fill="#caff1d" stroke="none" /><path d="M 97.11714578562143 79.19881850522333 l -4.091875350502034 -29.524851237801293 a50.807050919175865,50.807050919175865 0 0,0 0.8673133067845645,-0.11260215927921592 l 3.5830473152096123 29.590911720244645" fill="#9cff22" stroke="none" /><path d="M 97.47563105711357 79.15227682838746 l -1.802194858156186 -14.88358490941634 a35.992298224840994,35.992298224840994 0 0,0 0.6156967590271883,-0.06918070477369416 l 1.5457313956192795 14.912401567660632" fill="#ffa90f" stroke="none" /><path d="M 98.19473922651362 79.07773832637324 l -2.5799885419661606 -29.901051517187927 a51.01215125095506,51.01215125095506 0 0,0 0.8754895129798419,-0.06795483602133229 l 2.0649088396239845 29.941031615397723" fill="#9aff23" stroke="none" /><path d="M 98.91598698831166 79.02799685794201 l -0.788978922727654 -15.264086563583732 a36.28446356144323,36.28446356144323 0 0,0 0.6240222217643209,-0.026871709534787604 l 0.526115868574009 15.275405999642711" fill="#ffad10" stroke="none" /><path d="M 99.63851952072746 79.00311137660856 l -0.307625196069234 -17.868660550117063 a38.87130837730037,38.87130837730037 0 0,0 0.6691056753417653,-0.00575920379186718 l 4.3772081201672365e-15 17.871308377300373" fill="#ffcf13" stroke="none" /></svg>