<?xml version="1.0" encoding="utf-8" ?>
<svg baseProfile="full" height="200mm" version="1.1" viewBox="0,0,200,200" width="200mm" xmlns="http://www.w3.org/2000/svg" xmlns:ev="http://www.w3.org/2001/xml-events" xmlns:xlink="http://www.w3.org/1999/xlink"><defs /><rect fill="#1a1a1a" height="200" width="200" x="0" y="0" /><text alignment-baseline="middle" fill="#e1ed5e" style="dominant-baseline: central; font-size:9.0px; font-family:Arial;" text-anchor="middle" x="100.0" y="100.0">2026</text><line stroke="#e1ed5e" stroke-width="0.3" x1="100.0" x2="100.0" y1="15.0" y2="10.0" /><path d="M 100.0 14.0 a86.0,86.0 0 0,1 42.46469731375804,11.215312516191453" fill="none" id="id73" stroke="none" /><text fill="#e1ed5e" style="font-size:6.75px; font-family:Arial;" text-anchor="middle"><textPath startOffset="22.20632615414155" xlink:href="#id73">January</textPath></text><path d="M 100.0 79.0 l 0.0 -8.148665970375998 a29.148665970375998,29.148665970375998 0 0,0 0.5017463688155407,0.004318689403377323 l -0.14026588954301228 8.14745865758118" fill="#ff0000" stroke="none" /><path d="M 100.72285384407766 79.0124445844662 l 2.1685615322329816 -62.9626662466014 a84.0,84.0 0 0,0 1.4446366704426739,0.062209093903220936 l -3.2520390350649873 62.916009426173986" fill="#4dd2ff" stroke="none" /><path d="M 101.44485096284872 79.0497635885617 l 0.5608069132801069 -8.131660438681106 a29.150975762692106,29.150975762692106 0 0,0 0.500299888311183,0.038832900186273195 l -0.7006969909536311 8.120802276306367" fill="#ff0000" stroke="none" /><path d="M 102.16513564639614 79.11191278185805 l 2.320806190642261 -22.38991455672978 a43.509873727593046,43.509873727593046 0 0,0 0.7442950175732784,0.08363021750613564 l -2.705867911725264 22.346648385753046" fill="#ffdc14" stroke="none" /><path d="M 102.52436894288641 79.15227682838746 l 1.7856104015823713 -14.74662071463153 a35.85433361034546,35.85433361034546 0 0,0 0.6120595484988073,0.07946289562180621 l -2.0391846785890246 14.713699495845587" fill="#ff6b09" stroke="none" /><path d="M 102.88285421437855 79.19881850522331 l 3.33660282007737 -24.075196203209448 a45.30530786889931,45.30530786889931 0 0,0 0.7715515926261003,0.11370664864173574 l -3.750523393132126 24.014195070406743" fill="#fff517" stroke="none" /><path d="M 103.2404852339499 79.25152402106235 l 1.25911317619362 -8.061965293751152 a29.159696709321523,29.159696709321523 0 0,0 0.4952577225744446,0.08172176775670004 l -1.3977001049069397 8.039097263054828" fill="#ff0000" stroke="none" /><path d="M 103.59715602781102 79.31037775812273 l 4.159312683577002 -23.92295678689913 a45.28183978671319,45.28183978671319 0 0,0 0.7667830073139043,0.1401246934329778 l -4.570490811993807 23.847816612115416" fill="#fff517" stroke="none" /><path d="M 103.95276090670814 79.375362276772 l 2.79199700014849 -14.568026756861968 a35.83316051411446,35.83316051411446 0 0,0 0.6047845591027817,0.1213140930382822 l -3.042347968718397 14.517808707746477" fill="#ff6b09" stroke="none" /><path d="M 104.66035177308747 79.52364482259891 l 7.26001007858135 -31.89856736116237 a53.71431408475067,53.71431408475067 0 0,0 0.8997820650509801,0.2129493440049909 l -7.8080158305948535 31.768872105016513" fill="#9aff22" stroke="none" /><path d="M 105.01212808612495 79.60689891045804 l 3.5426391448540673 -14.41411651166179 a35.84308077598493,35.84308077598493 0 0,0 0.5978815522843893,0.15241332006536693 l -3.790229585823482 14.351000195427556" fill="#ff6b09" stroke="none" /><path d="M 105.36241919743992 79.69619591428918 l 3.0352990915886364 -11.492596126497087 a32.88666506225252,32.88666506225252 0 0,0 0.5460785487428712,0.14926389560811243 l -3.2326755295552188 11.438645690062682" fill="#ff3d05" stroke="none" /><path d="M 105.71112130821622 79.79150937346287 l 3.6682287145382664 -12.979826831395755 a34.48820990625458,34.48820990625458 0 0,0 0.5698926766989594,0.16636729981457685 l -3.8911116089606526 12.914761202662476" fill="#ff5607" stroke="none" /><path d="M 106.0581310904928 79.89281104454417 l 11.537791282623672 -38.29440894938676 a60.99477946512844,60.99477946512844 0 0,0 1.0026804790307737,0.31153770563333716 l -12.195257134365166 38.0901311088709" fill="#44ff2d" stroke="none" /><path d="M 106.40334571778207 80.00007090966166 l 4.973930732054379 -15.535357034540782 a37.3121827208357,37.3121827208357 0 0,0 0.6099958698901214,0.20110604771096532 l -5.2406094241869186 15.447437262570581" fill="#ff810b" stroke="none" /><path d="M 107.08798089147638 80.2323363322302 l 9.002975841642154 -25.108391398268747 a47.67367414912779,47.67367414912779 0 0,0 0.770083469844913,0.2836282409456247 l -9.433841637259645 24.949699889516797" fill="#e8ff1a" stroke="none" /><path d="M 107.4271985657038 80.35727306442388 l 4.721830183950701 -12.487833753064036 a34.35071803800205,34.35071803800205 0 0,0 0.5512747749122047,0.21388604809844614 l -4.9360881238625725 12.404705001075042" fill="#ff5407" stroke="none" /><path d="M 108.09893153111575 80.62456947434976 l 5.7178320172254 -13.679021310583542 a35.82596462266812,35.82596462266812 0 0,0 0.5669309493781988,0.24273024560483694 l -5.952446724393915 13.578571537015913" fill="#ff6b09" stroke="none" /><path d="M 108.43124777332544 80.76684994638697 l 14.948112183695235 -34.09925699928242 a58.23177924514821,58.23177924514821 0 0,0 0.9145658127878523,0.4103390212443499 l -15.532860114949868 33.83689764752154" fill="#64ff29" stroke="none" /><path d="M 108.76106565485865 80.91482961587045 l 9.39587377019924 -20.468041089565308 a43.5216151718666,43.5216151718666 0 0,0 0.6781533696985116,0.3184021001173732 l -9.746805351197349 20.303274006807932" fill="#ffdc14" stroke="none" /><path d="M 109.41281617654863 81.2277094730956 l 14.468889203379225 -28.85578413866543 a53.28010274204404,53.28010274204404 0 0,0 0.8163006798783933,0.4181409135241331 l -14.963450370846374 28.602450699828797" fill="#a0ff22" stroke="none" /><path d="M 109.73455568895987 81.39251694778311 l 7.7593706219671095 -14.831941175072764 a37.73900568940297,37.73900568940297 0 0,0 0.5730128049124945,0.30608359569412674 l -8.013528473407915 14.696178852876882" fill="#ff880c" stroke="none" /><path d="M 110.05341064243156 81.56283822128135 l 5.6797037031505155 -10.41612839211013 a32.864011329921446,32.864011329921446 0 0,0 0.4943309293136141,0.275094626962285 l -5.858158721536165 10.316818367587665" fill="#ff3c05" stroke="none" /><path d="M 110.36928655335952 81.73862282372117 l 22.670190642582696 -39.924530955142934 a66.91193435000545,66.91193435000545 0 0,0 0.9966796048451021,0.5773411583433775 l -23.35406697989313 39.52838563940951" fill="#35ff65" stroke="none" /><line stroke="#e1ed5e" stroke-width="0.3" x1="143.23703022742887" x2="145.7803849466894" y1="26.81831364943548" y2="22.513508569990506" /><path d="M 143.74570117128098 25.957352633546492 a86.0,86.0 0 0,1 28.547481713284135,27.462654790039103" fill="none" id="id74" stroke="none" /><text fill="#e1ed5e" style="font-size:6.75px; font-family:Arial;" text-anchor="middle"><textPath startOffset="19.985693538727396" xlink:href="#id74">February</textPath></text><path d="M 110.68208982089419 81.91981866633111 l 9.799741802678263 -16.586745832167736 a40.26538545423095,40.26538545423095 0 0,0 0.5936995597618316,0.35769734180678886 l -10.083803428657731 16.41560188090233" fill="#ffad10" stroke="none" /><path d="M 110.99172775467656 82.1063720568725 l 11.781747983034693 -19.179715840252737 a43.509355504958016,43.509355504958016 0 0,0 0.634782534254551,0.39750076471513823 l -12.110149669661507 18.974070734214653" fill="#ffdc14" stroke="none" /><path d="M 111.60114157652 82.49532879139004 l 18.73653421878481 -28.271085989718696 a54.91625005170476,54.91625005170476 0 0,0 0.7834595579184405,0.5289953907946388 l -19.220398471109796 27.944378686625384" fill="#8bff24" stroke="none" /><path d="M 111.90073688211348 82.69761687909136 l 8.399685021609187 -12.21223271957843 a35.82205574336393,35.82205574336393 0 0,0 0.5050378677004139,0.3538113011680426 l -8.608654028893252 12.065836575646452" fill="#ff6b09" stroke="none" /><path d="M 112.48926042617603 83.11751280151076 l 26.731869508487552 -36.13508161162635 a65.94815869974768,65.94815869974768 0 0,0 0.9067992608145096,0.6829824033252737 l -27.349914923060442 35.669582618795225" fill="#34ff59" stroke="none" /><path d="M 112.77801427241765 83.33499621200491 l 12.805480710988531 -16.700825340003732 a42.04513965923748,42.04513965923748 0 0,0 0.5705474293646574,0.4453213184924811 l -13.091060695512619 16.477925632288027" fill="#ffc712" stroke="none" /><path d="M 113.06298171725822 83.55741782278167 l 7.391307487413541 -9.303555910081649 a32.88223796031331,32.88223796031331 0 0,0 0.4401469208684643,0.3559015331756761 l -7.550357806846496 9.174948279641843" fill="#ff3d05" stroke="none" /><path d="M 113.34407831869373 83.78471172551755 l 14.212013184537549 -17.269974384456475 a43.3658966732222,43.3658966732222 0 0,0 0.572311019809201,0.47929402030638535 l -14.507181741305867 17.022779206756272" fill="#ffda14" stroke="none" /><path d="M 113.6212207817346 84.01681056812373 l 9.642892663824025 -11.315004916726872 a35.866563664532045,35.866563664532045 0 0,0 0.46644671228639717,0.4044979924525346 l -9.836233174757185 11.147341930854665" fill="#ff6b09" stroke="none" /><path d="M 113.89432698308785 84.25364557470407 l 5.907415939598495 -6.694837773415343 a29.928517004283034,29.928517004283034 0 0,0 0.38335439198565296,0.3441793582190138 l -6.021781319180138 6.592159406427031" fill="#ff0d01" stroke="none" /><path d="M 114.16331599549186 84.49514656593476 l 13.08511823341086 -14.324529682245817 a40.40135226730041,40.40135226730041 0 0,0 0.5094266459242066,0.47345654806502646 l -13.329752763129914 14.097168548106149" fill="#ffaf10" stroke="none" /><path d="M 114.42810811169701 84.74124197986012 l 10.449755315891489 -11.051364912187667 a36.20953821075233,36.20953821075233 0 0,0 0.4491995926170189,0.4321296521972014 l -10.638438152120926 10.869852173228164" fill="#ff710a" stroke="none" /><path d="M 114.94478906791727 85.2469230424477 l 6.325988639841336 -6.244838706792612 a29.88910247129916,29.88910247129916 0 0,0 0.3582931056126532,0.36925254018697923 l -6.4325460091570985 6.135021971055518" fill="#ff0c01" stroke="none" /><path d="M 115.19652480421416 85.50635884689758 l 11.80026011416042 -11.254463623188398 a37.30671917362644,37.30671917362644 0 0,0 0.43921143284721637,0.4685201334298645 l -11.992238868978099 11.049674072880478" fill="#ff810b" stroke="none" /><line stroke="#e1ed5e" stroke-width="0.3" x1="172.23445277983987" x2="176.4835382374775" y1="55.19839476539836" y2="52.563006222186495" /><path d="M 173.08426987136738 54.67131705675599 a86.0,86.0 0 0,1 12.851231095245387,41.99856678651699" fill="none" id="id75" stroke="none" /><text fill="#e1ed5e" style="font-size:6.75px; font-family:Arial;" text-anchor="middle"><textPath startOffset="22.20632615414155" xlink:href="#id75">March</textPath></text><line stroke="#e1ed5e" stroke-width="0.3" x1="184.98032266829074" x2="189.97916517819016" y1="98.17113171792111" y2="98.06355123074" /><path d="M 185.9800911702706 98.14961562048488 a86.0,86.0 0 0,1 -9.607161424134198,41.387399972396054" fill="none" id="id76" stroke="none" /><text fill="#e1ed5e" style="font-size:6.75px; font-family:Arial;" text-anchor="middle"><textPath startOffset="21.466115282336823" xlink:href="#id76">April</textPath></text><line stroke="#e1ed5e" stroke-width="0.3" x1="174.80103733775053" x2="179.2010983576182" y1="140.37084112569926" y2="142.7455964860345" /><path d="M 175.68104954172406 140.8457921977663 a86.0,86.0 0 0,1 -30.038265399797805,32.042727171017184" fill="none" id="id77" stroke="none" /><text fill="#e1ed5e" style="font-size:6.75px; font-family:Arial;" text-anchor="middle"><textPath startOffset="22.206326154141568" xlink:href="#id77">May</textPath></text><line stroke="#e1ed5e" stroke-width="0.3" x1="143.8653032363475" x2="146.44561519142675" y1="172.8068346515853" y2="177.08958963109032" /><path d="M 144.38136562736335 173.6633856474863 a86.0,86.0 0 0,1 -40.68145358897372,12.25698825130547" fill="none" id="id78" stroke="none" /><text fill="#e1ed5e" style="font-size:6.75px; font-family:Arial;" text-anchor="middle"><textPath startOffset="21.466115282336833" xlink:href="#id78">June</textPath></text><line stroke="#e1ed5e" stroke-width="0.3" x1="102.19456741930631" x2="102.32365962044197" y1="184.97166512339345" y2="189.96999836594603" /><path d="M 102.22038585953345 185.97133177190398 a86.0,86.0 0 0,1 -42.740103519485714,-10.115201625700543" fill="none" id="id79" stroke="none" /><text fill="#e1ed5e" style="font-size:6.75px; font-family:Arial;" text-anchor="middle"><textPath startOffset="22.20632615414155" xlink:href="#id79">July</textPath></text><line stroke="#e1ed5e" stroke-width="0.3" x1="58.666819895761336" x2="56.23545636021788" y1="174.27360380694188" y2="178.64263932499728" /><path d="M 58.180547188652646 175.14741091055294 a86.0,86.0 0 0,1 -31.652253787137756,-30.449443065178592" fill="none" id="id80" stroke="none" /><text fill="#e1ed5e" style="font-size:6.75px; font-family:Arial;" text-anchor="middle"><textPath startOffset="22.20632615414155" xlink:href="#id80">August</textPath></text><line stroke="#e1ed5e" stroke-width="0.3" x1="26.63291911575756" x2="22.317208475507996" y1="142.92168965132927" y2="145.44649492493687" /><path d="M 25.769776987707644 143.4266507060508 a86.0,86.0 0 0,1 -11.730757126820373,-40.83630448921669" fill="none" id="id81" stroke="none" /><text fill="#e1ed5e" style="font-size:6.75px; font-family:Arial;" text-anchor="middle"><textPath startOffset="21.46611528233685" xlink:href="#id81">September</textPath></text><line stroke="#e1ed5e" stroke-width="0.3" x1="15.007084014347285" x2="10.007500721073583" y1="101.09737516637583" y2="101.16192664675087" /><path d="M 14.007167355692545 101.11028546245083 a86.0,86.0 0 0,1 10.666146001902534,-42.60595125391555" fill="none" id="id82" stroke="none" /><text fill="#e1ed5e" style="font-size:6.75px; font-family:Arial;" text-anchor="middle"><textPath startOffset="22.20632615414155" xlink:href="#id82">October</textPath></text><line stroke="#e1ed5e" stroke-width="0.3" x1="26.266209847984243" x2="21.928928074336255" y1="57.711370442889674" y2="55.22380399835377" /><path d="M 25.398753493254645 57.213857153982495 a86.0,86.0 0 0,1 29.58750427330803,-30.492523968695096" fill="none" id="id83" stroke="none" /><text fill="#e1ed5e" style="font-size:6.75px; font-family:Arial;" text-anchor="middle"><textPath startOffset="21.46611528233685" xlink:href="#id83">November</textPath></text><line stroke="#e1ed5e" stroke-width="0.3" x1="56.762969772571076" x2="54.21961505331055" y1="26.818313649435495" y2="22.513508569990535" /><path d="M 56.25429882871897 25.957352633546506 a86.0,86.0 0 0,1 42.265352541879196,-11.944610805530505" fill="none" id="id84" stroke="none" /><text fill="#e1ed5e" style="font-size:6.75px; font-family:Arial;" text-anchor="middle"><textPath startOffset="22.20632615414155" xlink:href="#id84">December</textPath></text></svg>