<?xml version="1.0" encoding="utf-8" ?>
<svg baseProfile="full" height="200mm" version="1.1" viewBox="0,0,200,200" width="200mm" xmlns="http://www.w3.org/2000/svg" xmlns:ev="http://www.w3.org/2001/xml-events" xmlns:xlink="http://www.w3.org/1999/xlink"><defs /><rect fill="#1a1a1a" height="200" width="200" x="0" y="0" /><text alignment-baseline="middle" fill="#e1ed5e" style="dominant-baseline: central; font-size:9.0px; font-family:Arial;" text-anchor="middle" x="100.0" y="100.0">2025</text><line stroke="#e1ed5e" stroke-width="0.3" x1="100.0" x2="100.0" y1="15.0" y2="10.0" /><path d="M 100.0 14.0 a86.0,86.0 0 0,1 42.46469731375804,11.215312516191453" fill="none" id="id61" stroke="none" /><text fill="#e1ed5e" style="font-size:6.75px; font-family:Arial;" text-anchor="middle"><textPath startOffset="22.20632615414155" xlink:href="#id61">January</textPath></text><path d="M 100.0 79.0 l 0.0 -36.44861017528155 a57.44861017528155,57.44861017528155 0 0,0 0.9888833876048297,0.008511631518742287 l -0.6274029083323014 36.443209920371366" fill="#53ff2b" stroke="none" /><path d="M 100.72285384407766 79.0124445844662 l 0.9328439394893749 -27.084470857396067 a48.10053061179022,48.10053061179022 0 0,0 0.8272355998755063,0.03562250506694775 l -1.398920371754213 27.06440062580492" fill="#baff1f" stroke="none" /><path d="M 101.08401301168833 79.027996857942 l 1.4121809848510691 -27.320948855885437 a48.357421324384404,48.357421324384404 0 0,0 0.8309139444805014,0.05012299825861973 l -1.8822569781711824 27.29259258824651" fill="#b7ff1f" stroke="none" /><path d="M 101.44485096284872 79.0497635885617 l 1.5519296774741578 -22.50287017347899 a43.55632176947907,43.55632176947907 0 0,0 0.7475297943338518,0.05802269912076438 l -1.9390496611703507 22.47282221216976" fill="#f1ff19" stroke="none" /><path d="M 101.80526077348638 79.07773832637324 l 2.3254206661118344 -26.95071005375636 a48.05084755929145,48.05084755929145 0 0,0 0.8234425075526695,0.07819578813918872 l -2.788988300754748 26.906688721101993" fill="#bbff1f" stroke="none" /><path d="M 102.52436894288641 79.15227682838746 l 2.3439632959696377 -19.357827252826592 a40.49922151992558,40.49922151992558 0 0,0 0.6913511629424477,0.0897572228611627 l -2.6768291874199317 19.31461170680129" fill="#ffe615" stroke="none" /><path d="M 102.88285421437855 79.19881850522331 l 3.7597259771669114 -27.12823355118361 a48.38752626709736,48.38752626709736 0 0,0 0.8240419215922489,0.12144235867057289 l -4.226136879187816 27.059496708352068" fill="#b7ff1f" stroke="none" /><path d="M 103.2404852339499 79.25152402106235 l 3.9478231185986155 -25.277483843212714 a46.58391089766421,46.58391089766421 0 0,0 0.7911962133821808,0.13055415443881346 l -4.382348538119672 25.205783425834277" fill="#ccff1d" stroke="none" /><path d="M 103.59715602781102 79.31037775812273 l 1.2390550803003457 -7.126624853104588 a28.233535739104777,28.233535739104777 0 0,0 0.47809443130196544,0.08736870141773545 l -1.361544632705212 7.1042406703361145" fill="#ff3f05" stroke="none" /><path d="M 103.95276090670814 79.375362276772 l 9.151529253560527 -47.7506684373172 a69.61971641103406,69.61971641103406 0 0,0 1.1750269552115857,0.2356993531357704 l -9.972122618239238 47.58606512810422" fill="#3bff97" stroke="none" /><path d="M 104.307194497241 79.44645832069477 l 3.3296286994392585 -15.88868631179123 a37.23381594051847,37.23381594051847 0 0,0 0.6261615717582119,0.13685466690432546 l -3.6026329953509983 15.829018146791034" fill="#ffbc11" stroke="none" /><path d="M 105.01212808612495 79.60689891045804 l 6.319665280697275 -25.71314433844961 a47.478367793918,47.478367793918 0 0,0 0.7919642960929834,0.20188933289473318 l -6.7613384654752835 25.60055200938601" fill="#c2ff1e" stroke="none" /><path d="M 105.36241919743992 79.69619591428918 l 2.3074641350453184 -8.736784277352122 a30.036359346745108,30.036359346745108 0 0,0 0.49874961448786387,0.1363271100153697 l -2.457511638756893 8.695770626510457" fill="#ff5908" stroke="none" /><path d="M 106.0581310904928 79.89281104454417 l 7.898411527503177 -26.215156235342924 a48.37917677910046,48.37917677910046 0 0,0 0.7952952133504495,0.24710209408671469 l -8.348492113564344 26.075314006373688" fill="#b7ff1f" stroke="none" /><path d="M 106.40334571778207 80.00007090966166 l 6.039816402969619 -18.864497577040854 a40.80779268408676,40.80779268408676 0 0,0 0.6671436292770091,0.21994676548156988 l -6.363642854489045 18.757737087300047" fill="#ffea16" stroke="none" /><path d="M 106.74666289553966 80.11325718540242 l 9.269433401932549 -27.322965583939705 a49.85250151882877,49.85250151882877 0 0,0 0.810264567182821,0.2826853975282553 l -9.738379973178644 27.15935933323924" fill="#a6ff21" stroke="none" /><path d="M 107.4271985657038 80.35727306442388 l 9.119157095912492 -24.117453052186764 a46.783920723279536,46.783920723279536 0 0,0 0.7508080424317218,0.29130185596071645 l -9.53294830334388 23.956908492335504" fill="#caff1d" stroke="none" /><path d="M 108.09893153111575 80.62456947434976 l 9.284586979582574 -22.21192626349763 a45.07432706674249,45.07432706674249 0 0,0 0.7132824281404831,0.3053903110388417 l -9.665553165513373 22.048816424496" fill="#dfff1b" stroke="none" /><path d="M 108.43124777332544 80.76684994638697 l 7.980434503169639 -18.204766176851862 a40.87714381930236,40.87714381930236 0 0,0 0.6420006179814788,0.28804696341945624 l -8.292617239617899 18.064698882915877" fill="#ffeb16" stroke="none" /><path d="M 109.08828744355905 81.06846463323043 l 11.067365114546831 -23.054091916017153 a46.57298818384069,46.57298818384069 0 0,0 0.7197272784209501,0.35316704977990826 l -11.462563659978212 22.860169706102415" fill="#ccff1d" stroke="none" /><path d="M 109.73455568895987 81.39251694778311 l 11.536625170346552 -22.052116624127038 a45.88753840630233,45.88753840630233 0 0,0 0.6967366154034221,0.3721725704314801 l -11.914506832278285 21.850265327193803" fill="#d5ff1c" stroke="none" /><path d="M 110.05341064243156 81.56283822128135 l 11.212708415005254 -20.563222410564066 a44.42159144691611,44.42159144691611 0 0,0 0.6681766982459296,0.37183960915429815 l -11.56500920232322 20.36716740384959" fill="#e7ff1a" stroke="none" /><line stroke="#e1ed5e" stroke-width="0.3" x1="143.23703022742887" x2="145.7803849466894" y1="26.81831364943548" y2="22.513508569990506" /><path d="M 143.74570117128098 25.957352633546492 a86.0,86.0 0 0,1 28.547481713284135,27.462654790039103" fill="none" id="id62" stroke="none" /><text fill="#e1ed5e" style="font-size:6.75px; font-family:Arial;" text-anchor="middle"><textPath startOffset="19.985693538727396" xlink:href="#id62">February</textPath></text><path d="M 110.68208982089419 81.91981866633111 l 11.052106806883637 -18.706460864677986 a42.727419150752645,42.727419150752645 0 0,0 0.6300014181758092,0.37956880531694426 l -11.372470291277084 18.513445449902427" fill="#fcff18" stroke="none" /><path d="M 110.99172775467656 82.1063720568725 l 9.44181713754667 -15.370501047428522 a39.03885288226142,39.03885288226142 0 0,0 0.5695598493562747,0.35665832541537823 l -9.704996139275208 15.2056983806902" fill="#ffd313" stroke="none" /><path d="M 111.60114157652 82.49532879139004 l 10.178470818435324 -15.35803902641341 a39.424728788738705,39.424728788738705 0 0,0 0.5624506509238753,0.37976919022940575 l -10.44132616376574 15.180557923885333" fill="#ffd814" stroke="none" /><path d="M 112.19680574252982 82.90503203632743 l 10.88316938073683 -15.253783312968388 a39.73823046951874,39.73823046951874 0 0,0 0.5534110295534923,0.40207664843784136 l -11.14412572664411 15.064187429713872" fill="#ffdc14" stroke="none" /><path d="M 112.48926042617603 83.11751280151076 l 15.007529521128937 -20.286583542640084 a46.23433007155276,46.23433007155276 0 0,0 0.6357305065031104,0.478819037422555 l -15.35450618139043 20.02524791571168" fill="#d1ff1d" stroke="none" /><path d="M 112.77801427241765 83.33499621200491 l 9.931344995512992 -12.952396079832818 a37.32164751576168,37.32164751576168 0 0,0 0.5064502157050953,0.3952924265380367 l -10.152827766377518 12.779525264071557" fill="#ffbd11" stroke="none" /><path d="M 113.06298171725822 83.55741782278167 l 17.050257537211806 -21.461429462766155 a48.40992952691661,48.40992952691661 0 0,0 0.6479936507499405,0.5239658006353011 l -17.417154586526237 21.164757564866726" fill="#b7ff1f" stroke="none" /><path d="M 113.34407831869373 83.78471172551755 l 17.444391187533245 -21.19785459310636 a48.452792631245515,48.452792631245515 0 0,0 0.6394441090967862,0.5355160519404458 l -17.80669283358915 20.894437383772097" fill="#b6ff1f" stroke="none" /><path d="M 113.89432698308785 84.25364557470407 l 13.140429277071318 -14.891966840074767 a40.86055281082577,40.86055281082577 0 0,0 0.5233828450888532,0.4698982860023283 l -13.39482310975616 14.663569545303142" fill="#ffeb16" stroke="none" /><path d="M 114.16331599549186 84.49514656593476 l 8.618532519490481 -9.43487270734895 a33.77872942797495,33.77872942797495 0 0,0 0.4259210118073701,0.39584716192620084 l -8.779661415092699 9.285120959348108" fill="#ff8d0d" stroke="none" /><path d="M 114.42810811169701 84.74124197986012 l 6.820175964046522 -7.212824708860589 a30.926713477345245,30.926713477345245 0 0,0 0.38366319432600443,0.3690836889656658 l -6.943322401984944 7.094357933132621" fill="#ff6509" stroke="none" /><path d="M 114.68862486808459 84.99185889309783 l 25.849788548502552 -26.41208946403574 a57.95686726250646,57.95686726250646 0 0,0 0.7069749774813651,0.7039390022521521 l -26.30059932615124 25.96321461113347" fill="#4dff2c" stroke="none" /><path d="M 115.4437574822437 85.77008943001954 l 12.052221169031485 -11.104941890089002 a37.38828146846106,37.38828146846106 0 0,0 0.4320240126076048,0.477051705155034 l -12.241588822255125 10.895837397664419" fill="#ffbe11" stroke="none" /><path d="M 115.68641384162765 86.03803664274999 l 14.796862921460813 -13.17020320880752 a40.80912428346558,40.80912428346558 0 0,0 0.46251921998702966,0.5287394229767385 l -15.02137400502569 12.913548229627832" fill="#ffea16" stroke="none" /><path d="M 115.9244219780498 86.31012108654704 l 17.421476922183324 -14.976864459316007 a43.974210044806526,43.974210044806526 0 0,0 0.48851030874959817,0.5782421214763412 l -17.676697844420037 14.67476338821056" fill="#ecff1a" stroke="none" /><path d="M 116.15771136456269 86.58626213691792 l 7.803765695796765 -6.478495934635305 a31.14246856588575,31.14246856588575 0 0,0 0.3388619537032348,0.41540468775174777 l -7.914126141576409 6.343207077275456" fill="#ff6809" stroke="none" /><path d="M 116.38621287248628 86.86637796730983 l 29.64392336109867 -23.759735578952654 a58.990620250536054,58.990620250536054 0 0,0 0.6282386429649266,0.7977992779323886 l -30.048516084657557 23.245943907067225" fill="#43ff2d" stroke="none" /><path d="M 116.60985879189232 87.15038557335679 l 18.281313800053915 -14.142674930977057 a44.113236217789336,44.113236217789336 0 0,0 0.4594583864479788,0.6045933794588545 l -18.522048126726006 13.825896775637169" fill="#eaff1a" stroke="none" /><path d="M 116.82858285166822 87.43820079747576 l 7.229043101276143 -5.396163697504815 a30.02095598095773,30.02095598095773 0 0,0 0.3055524143434918,0.416773149777813 l -7.320858128133262 5.270928104055509" fill="#ff5808" stroke="none" /><path d="M 117.2510076193507 88.02491185347247 l 12.407869171263712 -8.613139030197528 a36.10434974848995,36.10434974848995 0 0,0 0.3499982043681797,0.5135791774002629 l -12.554291841300625 8.39828182952686" fill="#ffad10" stroke="none" /><path d="M 117.45458315368197 88.32363383020206 l 15.227405079639329 -10.186479732012602 a39.32043216712229,39.32043216712229 0 0,0 0.3714907638636925,0.5658059198807409 l -15.400492478860947 9.922855748154186" fill="#ffd714" stroke="none" /><path d="M 117.65298651832404 88.62581576622439 l 23.103295110372542 -14.885930758509001 a48.48368933575127,48.48368933575127 0 0,0 0.44598622913578084,0.7054431106682122 l -23.35610893575428 14.486040000126582" fill="#b6ff1f" stroke="none" /><line stroke="#e1ed5e" stroke-width="0.3" x1="172.23445277983987" x2="176.4835382374775" y1="55.19839476539836" y2="52.563006222186495" /><path d="M 173.08426987136738 54.67131705675599 a86.0,86.0 0 0,1 12.851231095245387,41.99856678651699" fill="none" id="id63" stroke="none" /><text fill="#e1ed5e" style="font-size:6.75px; font-family:Arial;" text-anchor="middle"><textPath startOffset="22.20632615414155" xlink:href="#id63">March</textPath></text><path d="M 117.84615892207809 88.93136811851018 l 3.8546508040612735 -2.390750355196029 a25.53585935431426,25.53585935431426 0 0,0 0.22846593094574263,0.37553791940303105 l -3.89523253329324 2.324044662585917" fill="#ff1702" stroke="none" /><path d="M 118.03404312379186 89.2402003453031 l 30.952578904973638 -18.467492038673118 a57.043174153604646,57.043174153604646 0 0,0 0.49584188472594304,0.8475545105050862 l -31.265880464169907 17.931958115814137" fill="#57ff2a" stroke="none" /><path d="M 118.21658344932153 89.55222093294921 l 6.465618512953222 -3.708233980487964 a28.453537549988532,28.453537549988532 0 0,0 0.24001555977044264,0.4269608991757586 l -6.528491714016098 3.5963895713774114" fill="#ff4206" stroke="none" /><path d="M 118.56541770881063 90.18545643968196 l 16.006186310773888 -8.461614774608844 a39.1051629324092,39.1051629324092 0 0,0 0.3094718663858615,0.5978011429408093 l -16.149467610319867 8.18484090940769" fill="#ffd413" stroke="none" /><path d="M 118.73160827565052 90.50648371742162 l 8.204689392582175 -4.158284285884259 a30.198274633374588,30.198274633374588 0 0,0 0.23100240218736753,0.4656867468520834 l -8.275051807722951 4.016437950533225" fill="#ff5b08" stroke="none" /><path d="M 118.89224826269711 90.83032412892265 l 24.697331143774402 -11.987272150993006 a48.45273864748691,48.45273864748691 0 0,0 0.3577238149152245,0.7534575851582647 l -24.900013152531383 11.560372150194201" fill="#b6ff1f" stroke="none" /><path d="M 119.196687751892 91.48605970444005 l 21.40393347041937 -9.49287783457993 a44.41459155288423,44.41459155288423 0 0,0 0.30394235355677435,0.7015408576632546 l -21.564166533818828 9.123037832330073" fill="#e7ff1a" stroke="none" /><path d="M 119.34039704204932 91.81776055985345 l 18.29630209606235 -7.740519715999297 a40.86631107840984,40.86631107840984 0 0,0 0.2685078412277568,0.6502130353839345 l -18.426831624176305 7.42443211016206" fill="#ffeb16" stroke="none" /><path d="M 119.47837535516314 92.15188598940014 l 2.7914576254483547 -1.1247179141390742 a24.00952256364014,24.00952256364014 0 0,0 0.15115303557971801,0.3846679885006592 l -2.8104042109097733 1.0765009207426306" fill="#ff0000" stroke="none" /><path d="M 119.61058180528143 92.48833698450437 l 11.802770104220038 -4.52094856504411 a33.63900146613033,33.63900146613033 0 0,0 0.20246740155742735,0.5425119757149848 l -11.87884209427909 4.317113452299792" fill="#ff8b0c" stroke="none" /><path d="M 119.85752413597 93.16781622104841 l 8.547607377213966 -2.940891526636208 a30.03938243722674,30.03938243722674 0 0,0 0.16401889922272284,0.49039563195639907 l -8.596963570208459 2.793322791757495" fill="#ff5908" stroke="none" /><path d="M 120.08093135843002 93.85539295169968 l 43.39848588190114 -13.279595327312558 a66.3847576714777,66.3847576714777 0 0,0 0.3249505528712662,1.0955717227089061 l -43.620642331884106 12.530594217857121" fill="#36ff72" stroke="none" /><path d="M 120.28053869075195 94.5502522615342 l 10.679323232653502 -2.869727403347429 a32.05817706844198,32.05817706844198 0 0,0 0.13861905101742275,0.5341557498397964 l -10.727138615541227 2.6854752279587824" fill="#ff750a" stroke="none" /><path d="M 120.37134235888165 94.90015583598534 l 26.681742895430197 -6.679615333825705 a48.505138882501925,48.505138882501925 0 0,0 0.19579260933474926,0.8116867687487022 l -26.792768305025767 6.219343333417597" fill="#b6ff1f" stroke="none" /><path d="M 120.53481517161879 95.60439243477599 l 26.80796253765884 -5.738414587808825 a48.415255924431875,48.415255924431875 0 0,0 0.16742618922323144,0.8164295588533299 l -26.90276802279707 5.276109372792083" fill="#b7ff1f" stroke="none" /><path d="M 120.6074358757038 95.95851677861258 l 11.665327322953141 -2.287777331059987 a32.88754754640961,32.88754754640961 0 0,0 0.1041662579728342,0.5564603153205542 l -11.702979304835836 2.08663893827687" fill="#ff810b" stroke="none" /><path d="M 120.67395015179393 96.31383870115 l 31.21304679019529 -5.565280183633803 a52.70530923125128,52.70530923125128 0 0,0 0.1515607386893462,0.8945200591060198 l -31.304219390404857 5.027174336211945" fill="#86ff25" stroke="none" /><path d="M 120.73433829027371 96.67025291283417 l 26.95593735654683 -4.328879592790782 a48.301314204612154,48.301314204612154 0 0,0 0.12476483974937332,0.8220444080646341 l -27.026458089735502 3.8642360723340663" fill="#b8ff1f" stroke="none" /><path d="M 120.83666639777658 97.38593545837742 l 26.986931100652637 -3.3856461648277536 a48.19847514447796,48.19847514447796 0 0,0 0.09618957519382691,0.8240935382770839 l -27.041211028850054 2.920608888225817" fill="#b9ff1f" stroke="none" /><path d="M 120.87857604477298 97.74499172005257 l 19.69991746337787 -2.1277062621001686 a40.814486670153244,40.814486670153244 0 0,0 0.06942908465058273,0.6991414074757994 l -19.733623673710678 1.788289323919934" fill="#ffea16" stroke="none" /><path d="M 120.94382443527127 98.46500227214037 l 27.14940780631097 -1.9898122916480683 a48.22222799826224,48.22222799826224 0 0,0 0.05354827892237156,0.8283681738998383 l -27.179636676237752 1.5221850534951946" fill="#b9ff1f" stroke="none" /><path d="M 120.96714384426684 98.82574320788733 l 24.447553189507666 -1.3691757731306258 a45.485863253141275,45.485863253141275 0 0,0 0.037052333173611486,0.7821161917321116 l -24.46749913091477 0.9481484747755146" fill="#daff1c" stroke="none" /><path d="M 120.98425023603335 99.18683210126433 l 18.05019179346079 -0.6994691908153141 a39.06373939497631,39.06373939497631 0 0,0 0.02025418715416938,0.6721378665054784 l -18.059557675070604 0.3886611768848367" fill="#ffd413" stroke="none" /><line stroke="#e1ed5e" stroke-width="0.3" x1="184.98032266829074" x2="189.97916517819016" y1="98.17113171792111" y2="98.06355123074" /><path d="M 185.9800911702706 98.14961562048488 a86.0,86.0 0 0,1 -9.607161424134198,41.387399972396054" fill="none" id="id64" stroke="none" /><text fill="#e1ed5e" style="font-size:6.75px; font-family:Arial;" text-anchor="middle"><textPath startOffset="21.466115282336823" xlink:href="#id64">April</textPath></text><path d="M 120.99980553446 99.90962569577887 l 27.307845283416494 -0.11752144624469239 a48.308098163609635,48.308098163609635 0 0,0 -0.0035787161548610485,0.8315676005786128 l -27.30582226997213 -0.352555632537605" fill="#b8ff1f" stroke="none" /><path d="M 120.9764740272857 100.99374915477107 l 12.97514580041032 0.6146905411947124 a33.989697956586205,33.989697956586205 0 0,0 -0.032716944187299805,0.5841830164641918 l -12.962642505335491 -0.8379452739943276" fill="#ff900d" stroke="none" /><path d="M 120.95626037817324 101.35467743843564 l 21.743128807983897 1.4055430456406368 a42.788510770902356,42.788510770902356 0 0,0 -0.05383903353310923,0.7345908372479805 l -21.71571321578645 -1.7796070193853875" fill="#fbff18" stroke="none" /><path d="M 120.92983693683757 101.71520430193887 l 9.27583059090304 0.7601561627826522 a30.30692594485145,30.30692594485145 0 0,0 -0.04708455688340755,0.5195741617155581 l -9.261371437742556 -0.9197117130467808" fill="#ff5c08" stroke="none" /><path d="M 120.89721153311464 102.0752229133903 l 27.067836074763886 2.688004260723028 a48.2009763919598,48.2009763919598 0 0,0 -0.08909766518752435,0.8249337240006994 l -27.017556108075308 -3.1535343066085186" fill="#b9ff1f" stroke="none" /><path d="M 120.8583938346157 102.4346265915055 l 25.10220544771776 2.92997137617687 a46.27262255098681,46.27262255098681 0 0,0 -0.09915229418974604,0.7903413415047468 l -25.048051644281166 -3.3616304719690118" fill="#d0ff1d" stroke="none" /><path d="M 120.81339534386255 102.79330883721812 l 27.004606031945478 3.6242142825999952 a48.24671863008072,48.24671863008072 0 0,0 -0.11755186400205236,0.8221574630410252 l -26.938220116926825 -4.08851721762143" fill="#b9ff1f" stroke="none" /><path d="M 120.70491114924044 103.5080841355445 l 18.53980516787383 3.141244891934254 a39.80403667125291,39.80403667125291 0 0,0 -0.12027179695487589,0.6745481093536322 l -18.482986928579766 -3.4599117520211045" fill="#ffdd14" stroke="none" /><path d="M 120.64145759157962 103.86396538481128 l 27.20356121090489 5.092354471392121 a48.6760874514039,48.6760874514039 0 0,0 -0.16125707935602876,0.8222463734964665 l -27.111874198573197 -5.559864571956533" fill="#b4ff20" stroke="none" /><path d="M 120.5718875245553 104.21870165774334 l 26.656091275119977 5.466396620974977 a48.21081943061131,48.21081943061131 0 0,0 -0.17371038076664297,0.8115170677782636 l -26.55804685562889 -5.924427508169409" fill="#b9ff1f" stroke="none" /><path d="M 120.41448212921028 104.9243191809786 l 26.54381281750438 6.4028176549487075 a48.3051290568866,48.3051290568866 0 0,0 -0.20193541870054957,0.8066316178364787 l -26.42966608450877 -6.858777112182582" fill="#b8ff1f" stroke="none" /><path d="M 120.32669344350535 105.2749913415812 l 26.28293988621807 6.820700116151834 a48.153542662736044,48.153542662736044 0 0,0 -0.21511316514997939,0.8005161115847241 l -26.161638644726313 -7.272107160912107" fill="#baff1f" stroke="none" /><path d="M 120.13307415673323 105.97154293290107 l 25.945619172146067 7.695564899876731 a48.06283195370079,48.06283195370079 0 0,0 -0.24208385039230038,0.7911440299598799 l -25.809308549247636 -8.141035902388667" fill="#bbff1f" stroke="none" /><path d="M 120.02730092923936 106.31721596034902 l 22.348670795817434 7.049446170642127 a44.43411567891146,44.43411567891146 0 0,0 -0.23636357336070885,0.7274522785201741 l -22.22401497144048 -7.4330973491400965" fill="#e6ff1a" stroke="none" /><path d="M 119.9155931802556 106.66101706037122 l 25.766018713624284 8.617764415847182 a48.16898201769582,48.16898201769582 0 0,0 -0.26976733092436495,0.7840701389547171 l -25.613860551756687 -9.0600072578912" fill="#baff1f" stroke="none" /><path d="M 119.67450827220406 107.3425965602758 l 28.190513579692208 10.520800071790944 a51.089737287610326,51.089737287610326 0 0,0 -0.3145807278739492,0.8212710135706298 l -28.00523857222475 -11.004494652194717" fill="#98ff23" stroke="none" /><path d="M 119.41010516605496 108.01547362559984 l 18.349922532231833 7.577667345467483 a40.85297709003548,40.85297709003548 0 0,0 -0.2740048446906943,0.6476665131261627 l -18.216766706348828 -7.892408384259809" fill="#ffeb16" stroke="none" /><path d="M 119.26925614724726 108.34839909993367 l 34.85379204755305 15.100394324283998 a58.98432214536598,58.98432214536598 0 0,0 -0.41165134626123795,0.9281651130374947 l -34.58869961656054 -15.698107773814181" fill="#43ff2d" stroke="none" /><path d="M 118.97047184881838 109.00673069616215 l 32.876386638172114 15.608929660406098 a57.39361871985372,57.39361871985372 0 0,0 -0.43139980028693714,0.8888113649911685 l -32.60283358127046 -16.17252998136254" fill="#53ff2b" stroke="none" /><path d="M 118.81262510543309 109.33194174019688 l 27.550503127473288 13.666337826741795 a51.753845485915235,51.753845485915235 0 0,0 -0.40274677490400773,0.7946575954820425 l -27.31117768278301 -14.138549633926532" fill="#90ff24" stroke="none" /><path d="M 118.64920377521936 109.65438752849418 l 31.01139855988945 16.054093413660368 a55.92049192057361,55.92049192057361 0 0,0 -0.44988699280052585,0.8510166460386888 l -30.73045905886403 -16.585525074785192" fill="#63ff29" stroke="none" /><line stroke="#e1ed5e" stroke-width="0.3" x1="174.80103733775053" x2="179.2010983576182" y1="140.37084112569926" y2="142.7455964860345" /><path d="M 175.68104954172406 140.8457921977663 a86.0,86.0 0 0,1 -30.038265399797805,32.042727171017184" fill="none" id="id65" stroke="none" /><text fill="#e1ed5e" style="font-size:6.75px; font-family:Arial;" text-anchor="middle"><textPath startOffset="22.206326154141568" xlink:href="#id65">May</textPath></text><path d="M 118.30583269289576 110.29060199501025 l 23.699435756086512 13.322609518159094 a48.18740847396484,48.18740847396484 0 0,0 -0.4126861535539279,0.7195530941406775 l -23.466597606380205 -13.728582458158085" fill="#b9ff1f" stroke="none" /><path d="M 118.12598468904814 110.60418214915192 l 15.806582351874118 9.247270219538377 a39.312838451745804,39.312838451745804 0 0,0 -0.3467375958023533,0.5811521548739914 l -15.645063880373538 -9.517984468298472" fill="#ffd714" stroke="none" /><path d="M 117.94076556474637 110.91462005526583 l 16.938024673446073 10.304582774363645 a40.82627312411437,40.82627312411437 0 0,0 -0.37042136479606164,0.5972371847814891 l -16.75813866898205 -10.594616290510407" fill="#ffea16" stroke="none" /><path d="M 117.75023020441432 111.22182372390056 l 21.552712030179592 13.625780194924879 a46.49865254824763,46.49865254824763 0 0,0 -0.433533810879391,0.672854102008083 l -21.31497335592315 -13.994755896854414" fill="#cdff1d" stroke="none" /><path d="M 117.35343817320211 111.8261652097733 l 16.458572435850584 11.216324672995565 a40.917091800666824,40.917091800666824 0 0,0 -0.4016481993025264,0.5786041874335177 l -16.263063329385922 -11.497970122616103" fill="#ffec16" stroke="none" /><path d="M 117.14729908036423 112.12312394758627 l 22.288359628941905 15.757848807772767 a48.296167752958894,48.296167752958894 0 0,0 -0.48576793239250926,0.6746891716291854 l -22.013811904173792 -16.139171584853084" fill="#b8ff1f" stroke="none" /><path d="M 116.93607887273984 112.41649034213515 l 15.981959815238405 11.716988990509872 a40.81693393387647,40.81693393387647 0 0,0 -0.4202953376786458,0.5630542885030096 l -15.777903210864666 -11.990356158522198" fill="#ffea16" stroke="none" /><path d="M 116.498646956653 112.99209946851258 l 21.513697880804067 16.941274247354222 a48.383315533926506,48.383315533926506 0 0,0 -0.5208857617913774,0.6498850776819879 l -21.218894206957835 -17.30908715861446" fill="#b7ff1f" stroke="none" /><path d="M 116.27256486870786 113.27417163493432 l 25.439713322821557 20.752175438552946 a53.830348755074546,53.830348755074546 0 0,0 -0.5918877549843966,0.7129669300887498 l -25.07872956794362 -21.187003625755466" fill="#79ff26" stroke="none" /><path d="M 116.0416608686014 113.55231037782055 l 7.578106082816358 6.402132955658925 a30.920433366761372,30.920433366761372 0 0,0 -0.34698246334261623,0.40361899474663376 l -7.466781109902963 -6.531629049567087" fill="#ff6509" stroke="none" /><path d="M 115.80600337817218 113.82643327865902 l 20.60380898581494 18.02335374810916 a48.374408213757405,48.374408213757405 0 0,0 -0.5536362341750156,0.622016178153052 l -20.290513901991584 -18.375344096003076" fill="#b7ff1f" stroke="none" /><path d="M 115.56566222782051 114.09645910891815 l 7.3560978970410575 6.661774596489966 a30.924284208208213,30.924284208208213 0 0,0 -0.36071497604579866,0.3914848644247167 l -7.240336512999537 -6.787410715716018" fill="#ff6509" stroke="none" /><path d="M 115.32070863581623 114.36230785411682 l 19.887055267842808 18.643002543685995 a48.25906291621406,48.25906291621406 0 0,0 -0.5733485730564654,0.6011536866323162 l -19.563200143407375 -18.982563346900818" fill="#b9ff1f" stroke="none" /><path d="M 115.07121518719521 114.62390073753431 l 7.127246694549428 6.915709642415873 a30.930996188860895,30.930996188860895 0 0,0 -0.3740579265967964,0.3789187047729666 l -7.007148142897096 -7.037368841169504" fill="#ff6509" stroke="none" /><path d="M 114.81725581225074 114.88116024355365 l 19.339501857666512 19.422910005811868 a48.40922773805481,48.40922773805481 0 0,0 -0.5955488710274992,0.5828699167221396 l -19.002303034263218 -19.75293002545658" fill="#b7ff1f" stroke="none" /><path d="M 114.55890576462653 115.13401014063108 l 19.996198410907358 20.786086153536274 a49.84283842603925,49.84283842603925 0 0,0 -0.6234251222271139,0.5894873652998849 l -19.635437454289434 -21.127208155582082" fill="#a6ff21" stroke="none" /><path d="M 114.0293411484842 115.62618273729858 l 17.348045562774168 19.322627287324895 a46.96764544838367,46.96764544838367 0 0,0 -0.6062352126074521,0.534932089366546 l -17.01286799726013 -19.61838251846373" fill="#c8ff1d" stroke="none" /><path d="M 113.75828350139079 115.86535959552629 l 17.92663054609255 20.67208746797182 a48.36236983558946,48.36236983558946 0 0,0 -0.6336265512533091,0.5399902932125334 l -17.56813851826219 -20.977602151407304" fill="#b7ff1f" stroke="none" /><path d="M 113.20401910651253 116.32954008644616 l 26.38765733925605 32.63387494617134 a62.96758575205802,62.96758575205802 0 0,0 -0.8486906356570334,0.6742511691719943 l -25.822009210881667 -33.083260029348466" fill="#32ff49" stroke="none" /><path d="M 112.92097659922987 116.55440617244103 l 14.072479849459373 18.029716677555733 a43.87149694677573,43.87149694677573 0 0,0 -0.5993081958102553,0.4595239687348216 l -13.760042925155624 -18.269279988117926" fill="#edff19" stroke="none" /><path d="M 112.63410532772338 116.77436683061366 l 7.729876822708845 10.262997340623057 a33.848350481983566,33.848350481983566 0 0,0 -0.4684209226954503,0.3465266002474243 l -7.552070929594831 -10.394533889610251" fill="#ff8e0d" stroke="none" /><path d="M 112.34349029814194 116.9893568818739 l 16.00977225364339 22.035561080775793 a48.23745141818762,48.23745141818762 0 0,0 -0.6759506536471277,0.4822728437742473 l -15.62809427214738 -22.30787818639426" fill="#b9ff1f" stroke="none" /><path d="M 112.04921762599082 117.19931262002967 l 6.761047153527804 9.65086425042673 a32.783502849,32.783502849 0 0,0 -0.46496860102479726,0.31980964359492037 l -6.593921667880124 -9.765814683386745" fill="#ff7f0b" stroke="none" /><path d="M 111.7513745106137 117.40417183066458 l 15.313067886170993 22.679156766286503 a48.36483509389889,48.36483509389889 0 0,0 -0.6939785002410018,0.45993110846874563 l -14.920414687190027 -22.93938589584657" fill="#b7ff1f" stroke="none" /><path d="M 111.45004920935366 117.60387380957326 l 7.875395344798269 12.108023582734909 a35.44389445118369,35.44389445118369 0 0,0 -0.5143047450287378,0.3282536217641472 l -7.665808797722601 -12.241791633322865" fill="#ffa40f" stroke="none" /><line stroke="#e1ed5e" stroke-width="0.3" x1="143.8653032363475" x2="146.44561519142675" y1="172.8068346515853" y2="177.08958963109032" /><path d="M 144.38136562736335 173.6633856474863 a86.0,86.0 0 0,1 -40.68145358897372,12.25698825130547" fill="none" id="id66" stroke="none" /><text fill="#e1ed5e" style="font-size:6.75px; font-family:Arial;" text-anchor="middle"><textPath startOffset="21.466115282336833" xlink:href="#id66">June</textPath></text><path d="M 110.8373102113329 117.98757091392108 l 9.603708052199408 15.940060426145635 a39.609587172773445,39.609587172773445 0 0,0 -0.5870369592128174,0.3468317828659413 l -9.32790322195821 -16.103010781305326" fill="#ffdb14" stroke="none" /><path d="M 109.89434966115114 118.52300852407294 l 12.909989304760146 24.16852548446738 a48.40046437457531,48.40046437457531 0 0,0 -0.7382432886247009,0.38621399707586285 l -12.492055113608949 -24.38716890048796" fill="#b7ff1f" stroke="none" /><path d="M 109.57404056367764 118.69057910512821 l 4.526639581137796 8.836970619556395 a30.92887282768927,30.92887282768927 0 0,0 -0.475930685430697,0.23864152583391005 l -4.3738549880243385 -8.913579986299606" fill="#ff6509" stroke="none" /><path d="M 109.2508944713604 118.85261126421891 l 12.052393365264189 24.56185049156258 a48.35954468555603,48.35954468555603 0 0,0 -0.7504649044904467,0.3602687598325557 l -11.627815792773509 -24.765673527894695" fill="#b7ff1f" stroke="none" /><path d="M 108.92500713936063 119.00905698771935 l 4.599957050804638 9.797285800946808 a31.823419696874055,31.823419696874055 0 0,0 -0.49785770735945784,0.22854205507018568 l -4.43063134767776 -9.875014926351069" fill="#ff720a" stroke="none" /><path d="M 108.59647513512805 119.15986991738527 l 9.73448045162938 21.69626227433631 a44.77998962026568,44.77998962026568 0 0,0 -0.70598708344335,0.3094839903336642 l -9.359572693528277 -21.860610817964428" fill="#e2ff1b" stroke="none" /><path d="M 108.2653958097858 119.30500536409082 l 10.76660931350114 25.1469446029586 a48.35486609314398,48.35486609314398 0 0,0 -0.7679870435353341,0.32101864648336315 l -10.332150810468345 -25.32854829246194" fill="#b7ff1f" stroke="none" /><path d="M 107.59598834532513 119.57807347666477 l 15.100719898538653 38.92093961756458 a62.74770990327768,62.74770990327768 0 0,0 -1.0103271093996953,0.3820192625207399 l -14.428522568378684 -39.175107130191954" fill="#32ff46" stroke="none" /><path d="M 107.2578585660854 119.70592522655815 l 4.988498821785781 13.54435111676538 a35.43379948832537,35.43379948832537 0 0,0 -0.5741632789735827,0.20587452408893242 l -4.754615982182464 -13.628213181894273" fill="#ffa40f" stroke="none" /><path d="M 106.91757812671514 119.82793768551818 l 4.260973936076868 12.213281026472227 a33.93522834415817,33.93522834415817 0 0,0 -0.5531931324710405,0.1876731456581278 l -4.0501110706686 -12.284817159028478" fill="#ff8f0d" stroke="none" /><path d="M 106.57524785965236 119.94407469862006 l 7.159412508190309 21.715965832675327 a43.86570269001926,43.86570269001926 0 0,0 -0.7191440532743119,0.2302472160377369 l -6.7845471098250565 -21.835985895372772" fill="#edff19" stroke="none" /><path d="M 106.2309692047433 120.05430185196036 l 8.117393715250069 26.125737179523927 a48.35774522693601,48.35774522693601 0 0,0 -0.7970393239373955,0.24014141008906584 l -7.666479416872427 -26.261593958718716" fill="#b7ff1f" stroke="none" /><path d="M 105.53697534728816 120.25689768951611 l 1.9061614961919706 6.973648244066527 a28.229468962623532,28.229468962623532 0 0,0 -0.4698318665139585,0.12408686618172063 l -1.7858391868665149 -7.005426459551831" fill="#ff3f05" stroke="none" /><path d="M 105.18746579009965 120.34920634021253 l 6.750355487930645 26.48005447204074 a48.32692050077506,48.32692050077506 0 0,0 -0.8078574619177645,0.19855170906498962 l -6.2935447412696695 -26.592327439419762" fill="#b8ff1f" stroke="none" /><path d="M 104.83641907484287 120.43548508189849 l 6.636829979435615 28.04282216595544 a49.81748405408316,49.81748405408316 0 0,0 -0.8361742541431766,0.1903105378933415 l -6.153135575899576 -28.152909437426466" fill="#a6ff21" stroke="none" /><path d="M 104.48393922423573 120.51570834832081 l 3.620804876613433 16.566544085449834 a37.95761218124947,37.95761218124947 0 0,0 -0.6395108234989674,0.1340157109114779 l -3.3351025916850876 -16.626415777087853" fill="#ffc512" stroke="none" /><path d="M 104.13013068566511 120.58985236759428 l 5.424205733407417 27.041177086708068 a48.579834409818986,48.579834409818986 0 0,0 -0.821305452106173,0.15740514461959887 l -4.9579326667295405 -27.130539429676134" fill="#b5ff20" stroke="none" /><path d="M 103.7750983002368 120.6578951692458 l 3.2438310764544296 17.750722496400645 a39.04468312819029,39.04468312819029 0 0,0 -0.6621811454596606,0.11512868002354429 l -2.9378009595227192 -17.803929754945194" fill="#ffd313" stroke="none" /><path d="M 103.41894727170886 120.7198165907248 l 3.007233541953919 18.224711433943064 a39.471154821135244,39.471154821135244 0 0,0 -0.671318139241204,0.1048460869946367 l -2.693079539104198 -18.27377582828481" fill="#ffd914" stroke="none" /><path d="M 102.70371172650421 120.8252237178851 l 4.553018690298635 35.06943136270548 a56.36375256244336,56.36375256244336 0 0,0 -0.9632097680275435,0.11663128888838682 l -3.9486814992197115 -35.142608180319215" fill="#5eff2a" stroke="none" /><path d="M 102.34483914955558 120.86867818915974 l 2.423118487263917 21.565351267057334 a42.70105708196934,42.70105708196934 0 0,0 -0.7311384865314122,0.07578549357389083 l -2.051547404126902 -21.603866129086985" fill="#fcff18" stroke="none" /><path d="M 101.98527174616119 120.90594882070398 l 1.775166716844902 18.693433079041778 a39.777530645780004,39.777530645780004 0 0,0 -0.6821954137279824,0.058862690825047345 l -1.4531269853753779 -18.721220022145488" fill="#ffdd14" stroke="none" /><path d="M 101.62511606390274 120.93702456842531 l 1.2573055529622175 16.198373665182785 a37.24709594513422,37.24709594513422 0 0,0 -0.6396518976502621,0.04411413991029763 l -0.9782908945330251 -16.21761614960937" fill="#ffbc11" stroke="none" /><path d="M 101.26447882468166 120.96189622390904 l 2.3997906187624745 39.78252615046653 a60.8548413862915,60.8548413862915 0 0,0 -1.0461582778693532,0.05407443332017871 l -1.7146442724796418 -39.81794039054891" fill="#30ff2f" stroke="none" /><path d="M 100.90346689309514 120.98055641714683 l 1.118406180693194 25.971935607880912 a46.99600491623521,46.99600491623521 0 0,0 -0.8085095299444651,0.02784670296861915 l -0.6711762990740764 -25.987339109275624" fill="#c7ff1e" stroke="none" /><line stroke="#e1ed5e" stroke-width="0.3" x1="102.19456741930631" x2="102.32365962044197" y1="184.97166512339345" y2="189.96999836594603" /><path d="M 102.22038585953345 185.97133177190398 a86.0,86.0 0 0,1 -42.740103519485714,-10.115201625700543" fill="none" id="id67" stroke="none" /><text fill="#e1ed5e" style="font-size:6.75px; font-family:Arial;" text-anchor="middle"><textPath startOffset="22.20632615414155" xlink:href="#id67">July</textPath></text><path d="M 100.18074693466247 120.99922214144158 l 0.24034440430387552 27.923270432523104 a48.924304773449585,48.924304773449585 0 0,0 -0.8421826779326428,0.0 l 0.24034440430385628 -27.923270432523104" fill="#b1ff20" stroke="none" /><path d="M 99.81925306533755 120.99922214144158 l -0.2354065409488244 27.349588285768885 a48.35060137621453,48.35060137621453 0 0,0 -0.8321836359664274,-0.01432679598237091 l 0.7061498668079197 -27.34148401250735" fill="#b7ff1f" stroke="none" /><path d="M 99.45781275523022 120.99299961872073 l -0.2558964260564225 9.908078115920105 a30.911382089902666,30.911382089902666 0 0,0 -0.5317930119376558,-0.018316026584413964 l 0.4264097896687214 -9.902205290909597" fill="#ff6509" stroke="none" /><path d="M 99.09653310690486 120.98055641714683 l -0.3298130672661079 7.659009663523069 a28.6661075967716,28.6661075967716 0 0,0 -0.4928003273608226,-0.02547214795863192 l 0.4616014630404194 -7.652197708802235" fill="#ff4506" stroke="none" /><path d="M 98.73552117531835 120.96189622390904 l -1.641242663726538 27.20769832104491 a48.25715549007684,48.25715549007684 0 0,0 -0.828729872790629,-0.05715406409396425 l 2.1093352972960973 -27.17541591243466" fill="#b9ff1f" stroke="none" /><path d="M 98.37488393609728 120.93702456842531 l -0.49634220218046915 6.3945764319396226 a27.413810359340463,27.413810359340463 0 0,0 -0.47015426539391697,-0.040566888324163226 l 0.6063407853159278 -6.385085291336797" fill="#ff3304" stroke="none" /><path d="M 97.65516085044442 120.86867818915974 l -0.4636341885605283 4.12626711746759 a25.152232771112004,25.152232771112004 0 0,0 -0.4298307900276314,-0.05204652268788725 l 0.534592401639549 -4.117675066054354" fill="#ff1101" stroke="none" /><path d="M 97.2962882734958 120.8252237178851 l -2.9449878953344584 22.683643069485544 a43.874016188843754,43.874016188843754 0 0,0 -0.7480967041443364,-0.10367938652170751 l 3.335013190665626 -22.629589117471234" fill="#edff19" stroke="none" /><path d="M 96.93821686468263 120.77559828337769 l -3.9880157946661514 27.060510309186622 a48.35279671573095,48.35279671573095 0 0,0 -0.8223754705279512,-0.1284381354907037 l 4.45322712880262 -26.98785386634881" fill="#b7ff1f" stroke="none" /><path d="M 96.58105272829116 120.7198165907248 l -5.565651355498744 33.72946878944243 a55.185575025570884,55.185575025570884 0 0,0 -0.9359237764411155,-0.1627223452723338 l 6.1454241034119095 -33.628667865649085" fill="#6bff28" stroke="none" /><path d="M 96.22490169976321 120.6578951692458 l -2.596380788104831 14.207778943597063 a35.44306670021848,35.44306670021848 0 0,0 -0.5992112627368137,-0.1148402646383324 l 2.84055966541334 -14.160981480610262" fill="#ffa40f" stroke="none" /><path d="M 95.51606077576429 120.51570834832081 l -3.9204558126251747 17.93755981561204 a39.360991964417565,39.360991964417565 0 0,0 -0.6606645984460303,-0.1503651116670477 l 4.2286405604640676 -17.867417970367306" fill="#ffd814" stroke="none" /><path d="M 95.16358092515715 120.4354850818985 l -6.090733178561521 25.73538088453646 a47.44630144130923,47.44630144130923 0 0,0 -0.7931365843835753,-0.19493367552425656 l 6.532823047688307 -25.626725950698173" fill="#c2ff1e" stroke="none" /><path d="M 94.81253420990036 120.34920634021253 l -6.768197966477617 26.55004631242386 a48.39915076978269,48.39915076978269 0 0,0 -0.8055221787546056,-0.21274572868624564 l 7.224210588043712 -26.429609234434032" fill="#b7ff1f" stroke="none" /><path d="M 94.46302465271185 120.25689768951611 l -4.759344948294982 17.411954657509067 a39.050693319981164,39.050693319981164 0 0,0 -0.6468818604727049,-0.18281527529784244 l 5.058357976872301 -17.327450588872704" fill="#ffd413" stroke="none" /><path d="M 94.11515582081647 120.15858648285463 l -7.663090766124981 26.24998610521024 a48.34565286500947,48.34565286500947 0 0,0 -0.796840015885924,-0.24008136020810633 l 8.113805756451152 -26.11418937589641" fill="#b7ff1f" stroke="none" /><path d="M 93.76903079525671 120.05430185196036 l -5.348658812644144 17.214596125793676 a39.02638263402468,39.02638263402468 0 0,0 -0.6398071675813476,-0.20484605061512393 l 5.644187325316432 -17.119977228518845" fill="#ffd313" stroke="none" /><path d="M 93.08242187328487 119.8279376855182 l -3.2736009303257463 9.383161861675394 a30.937816137030772,30.937816137030772 0 0,0 -0.5013111270602649,-0.1797523343682285 l 3.434631618015738 -9.325421986267207" fill="#ff6509" stroke="none" /><path d="M 92.40401165467489 119.57807347666478 l -16.870844781354926 43.483299832345416 a67.64142759335547,67.64142759335547 0 0,0 -1.081872853097562,-0.4304995355585962 l 17.616838710494346 -43.18645345238075" fill="#38ff81" stroke="none" /><path d="M 92.06813273071674 119.44442032107085 l -3.768599422061735 9.238459078619282 a30.977548183360835,30.977548183360835 0 0,0 -0.491995068283018,-0.20565397844428374 l 3.9270659498422154 -9.172220057155025" fill="#ff6609" stroke="none" /><path d="M 91.7346041902142 119.30500536409082 l -14.306942752183812 33.4158959753201 a57.34983789162861,57.34983789162861 0 0,0 -0.9041593160784852,-0.39635687337582237 l 14.88002274292004 -33.16467454864983" fill="#54ff2b" stroke="none" /><path d="M 91.40352486487194 119.15986991738527 l -1.7758339811778356 3.9579883079290625 a25.338116846560162,25.338116846560162 0 0,0 -0.396399157670463,-0.1819674111355849 l 1.8437011346157182 -3.9268338264594034" fill="#ff1402" stroke="none" /><path d="M 90.7491055286396 118.85261126421891 l -7.957107367922834 16.21597267804972 a39.063037606114506,39.063037606114506 0 0,0 -0.6010984741170132,-0.3014032535218981 l 8.235059749722607 -16.07660158361852" fill="#ffd413" stroke="none" /><path d="M 90.42595943632237 118.69057910512821 l -12.483547718778416 24.37056064245929 a48.38180398868569,48.38180398868569 0 0,0 -0.7379586652264718,-0.3860650955660419 l 12.901197286531383 -24.15206612794853" fill="#b7ff1f" stroke="none" /><path d="M 90.10565033884886 118.52300852407294 l -5.0943598853369725 9.53704637620554 a31.812389015533327,31.812389015533327 0 0,0 -0.4807869796900435,-0.2621633956663325 l 5.2577696768956566 -9.44794232877944" fill="#ff720a" stroke="none" /><line stroke="#e1ed5e" stroke-width="0.3" x1="58.666819895761336" x2="56.23545636021788" y1="174.27360380694188" y2="178.64263932499728" /><path d="M 58.180547188652646 175.14741091055294 a86.0,86.0 0 0,1 -31.652253787137756,-30.449443065178592" fill="none" id="id68" stroke="none" /><text fill="#e1ed5e" style="font-size:6.75px; font-family:Arial;" text-anchor="middle"><textPath startOffset="22.20632615414155" xlink:href="#id68">August</textPath></text><path d="M 89.7882731507175 118.34994917583269 l -13.297348393285072 23.894652764558245 a48.34545492456127,48.34545492456127 0 0,0 -0.7236882556805252,-0.4109290786786881 l 13.706685415886803 -23.662220520084922" fill="#b7ff1f" stroke="none" /><path d="M 89.4739219176387 118.17145234162733 l -11.75371709689375 20.290758665478453 a44.44919514214723,44.44919514214723 0 0,0 -0.6587627445316847,-0.3892086411015127 l 12.101247712453816 -20.08543145208319" fill="#e6ff1a" stroke="none" /><path d="M 89.1626897886671 117.98757091392108 l -4.977073128229149 8.260855700538436 a30.644324436105364,30.644324436105364 0 0,0 -0.44948044430205125,-0.276107600455433 l 5.118532772463508 -8.173959633254624" fill="#ff6109" stroke="none" /><path d="M 88.8546689885994 117.79835938074946 l -7.920275677943008 12.648158476983962 a35.923360200488254,35.923360200488254 0 0,0 -0.5212619802243834,-0.3326940584361989 l 8.136819460214314 -12.509949989723959" fill="#ffaa0f" stroke="none" /><path d="M 88.24862548938628 117.40417183066458 l -10.092596272674228 14.947466748549203 a39.03572182426259,39.03572182426259 0 0,0 -0.5536438571015525,-0.38080129330866325 l 10.348397014398671 -14.77152466587544" fill="#ffd313" stroke="none" /><path d="M 87.95078237400918 117.19931262002967 l -16.55157486966032 23.62607427083513 a49.8469411916929,49.8469411916929 0 0,0 -0.6985044087161361,-0.4983643491766512 l 16.955806606225345 -23.337665659814256" fill="#a6ff21" stroke="none" /><path d="M 87.65650970185807 116.9893568818739 l -22.463944948246542 30.918967689226303 a59.2179458580033,59.2179458580033 0 0,0 -0.8195059565369279,-0.6062509150256118 l 22.992835875202033 -30.527706825460925" fill="#40ff2d" stroke="none" /><path d="M 87.36589467227662 116.77436683061367 l -5.611817909335266 7.450839592989212 a30.327781670257494,30.327781670257494 0 0,0 -0.41429377570089015,-0.31766280081456 l 5.739240413529643 -7.353137450347285" fill="#ff5d08" stroke="none" /><path d="M 87.07902340077011 116.55440617244103 l -21.41047592303089 27.43118618419663 a55.797678869757185,55.797678869757185 0 0,0 -0.7520530918022744,-0.5974764597638534 l 21.879486507550524 -27.058575810427644" fill="#64ff29" stroke="none" /><path d="M 86.79598089348748 116.32954008644616 l -11.92851357550753 14.752109871371966 a39.971404317501054,39.971404317501054 0 0,0 -0.5312958547158257,-0.4372203179934835 l 12.180679558768045 -14.5445944345213" fill="#ffdf14" stroke="none" /><path d="M 86.51685102203217 116.09983520530335 l -5.792617408988669 6.916795612395945 a30.021999666957342,30.021999666957342 0 0,0 -0.3933375509796226,-0.33521079422077 l 5.910820436545348 -6.816060427952224" fill="#ff5808" stroke="none" /><path d="M 86.24171649860922 115.8653595955263 l -27.309272381792287 31.491677474556436 a62.68359519264633,62.68359519264633 0 0,0 -0.8090889440130783,-0.7139269219330862 l 27.847303678711953 -31.016927410851064" fill="#32ff46" stroke="none" /><path d="M 85.70375840098266 115.38237550388516 l -32.62943407027331 35.10840271352911 a68.92994793280764,68.92994793280764 0 0,0 -0.8621632028216832,-0.8152291217817069 l 33.22893310748581 -34.54153895500147" fill="#3aff90" stroke="none" /><path d="M 85.44109423537348 115.13401014063109 l -10.86140304959821 11.290449059261254 a36.666662572660286,36.666662572660286 0 0,0 -0.4510873343746413,-0.44148389798428667 l 11.054140336348643 -11.101815058354397" fill="#ffb410" stroke="none" /><path d="M 85.18274418774928 114.88116024355367 l -15.273236096242966 15.339107096869068 a42.6462455724035,42.6462455724035 0 0,0 -0.5157339937759917,-0.5224358128350377 l 15.535010715074492 -15.073930790053366" fill="#fdff18" stroke="none" /><path d="M 84.9287848128048 114.62390073753433 l -11.776910937848015 11.427371609437104 a37.40976700438411,37.40976700438411 0 0,0 -0.4444519896206418,-0.46600613422160403 l 11.971869478847614 -11.222958358632999" fill="#ffbe11" stroke="none" /><path d="M 84.67929136418377 114.36230785411682 l -7.119046123719822 6.673707756408477 a30.758032226304486,30.758032226304486 0 0,0 -0.3587757369912576,-0.3893802034353746 l 7.232868268706809 -6.550176298171758" fill="#ff6309" stroke="none" /><path d="M 84.43433777217949 114.09645910891817 l -12.299247898996931 11.13835328951076 a37.59320381610904,37.59320381610904 0 0,0 -0.43024732621752976,-0.48338743202598844 l 12.489154074862798 -10.924991687743908" fill="#ffc011" stroke="none" /><path d="M 84.19399662182784 113.82643327865904 l -14.93939965282049 13.068364442348438 a40.84862240017503,40.84862240017503 0 0,0 -0.45839446868172,-0.5332163270281558 l 15.16213663107299 -12.809271016158752" fill="#ffeb16" stroke="none" /><path d="M 83.95833913139862 113.55231037782056 l -20.90760348907509 17.663154336777453 a48.369963550965956,48.369963550965956 0 0,0 -0.5318484794724707,-0.6406457550247079 l 21.208547968441096 -17.300647324638984" fill="#b7ff1f" stroke="none" /><path d="M 83.72743513129214 113.27417163493432 l -29.476252265858836 24.04493912843757 a59.039565525000626,59.039565525000626 0 0,0 -0.6356089640602853,-0.793019912011201 l 29.88577914197398 -23.533991382848107" fill="#42ff2d" stroke="none" /><path d="M 83.50135304334701 112.99209946851258 l -14.16655303767473 11.1556581988204 a39.03163705319514,39.03163705319514 0 0,0 -0.41112057280882885,-0.5314287599663355 l 14.356480427701626 -10.910151444740812" fill="#ffd313" stroke="none" /><path d="M 83.28015986056508 112.70617746262583 l -22.89700880992199 17.400492760453428 a49.75847980593267,49.75847980593267 0 0,0 -0.5123671735434796,-0.6863995588083278 l 23.193137250160554 -17.003780322135793" fill="#a7ff21" stroke="none" /><path d="M 83.06392112726016 112.41649034213515 l -7.4135655929642335 5.435169868864358 a30.192498371204323,30.192498371204323 0 0,0 -0.303679322603091,-0.4217840185515522 l 7.506024707942932 -5.306752244861668" fill="#ff5b08" stroke="none" /><path d="M 82.85270091963577 112.12312394758628 l -14.734493652267243 10.417272831959306 a39.04507900908669,39.04507900908669 0 0,0 -0.3832722460340924,-0.5521322562069882 l 14.91162680546347 -10.162099313565305" fill="#ffd313" stroke="none" /><path d="M 82.6465618267979 111.8261652097733 l -23.836229634401732 16.244111790471422 a49.84505176014188,49.84505176014188 0 0,0 -0.47708098163952023,-0.7131713363534671 l 24.112313721451983 -15.831403539912134" fill="#a6ff21" stroke="none" /><path d="M 82.44556493220864 111.52570212397912 l -7.56544084080904 4.967235757289563 a30.050377129395073,30.050377129395073 0 0,0 -0.28017703312481956,-0.4348409773256036 l 7.649822737310905 -4.836273180042511" fill="#ff5908" stroke="none" /><path d="M 82.24976979558568 111.22182372390057 l -22.958092229214856 14.514271706134258 a48.16133431856073,48.16133431856073 0 0,0 -0.4369731994504291,-0.7045399328098029 l 23.20453006833324 -14.11693544195919" fill="#baff1f" stroke="none" /><path d="M 82.05923443525364 110.91462005526583 l -35.78876427363005 21.772803556483353 a62.89141466867254,62.89141466867254 0 0,0 -0.5546996548109954,-0.9297085277277628 l 36.15824480413928 -21.15353293486948" fill="#32ff48" stroke="none" /><line stroke="#e1ed5e" stroke-width="0.3" x1="26.63291911575756" x2="22.317208475507996" y1="142.92168965132927" y2="145.44649492493687" /><path d="M 25.769776987707644 143.4266507060508 a86.0,86.0 0 0,1 -11.730757126820373,-40.83630448921669" fill="none" id="id69" stroke="none" /><text fill="#e1ed5e" style="font-size:6.75px; font-family:Arial;" text-anchor="middle"><textPath startOffset="21.46611528233685" xlink:href="#id69">September</textPath></text><path d="M 81.87401531095188 110.60418214915194 l -13.244675510245285 7.748486718181624 a36.34472143095235,36.34472143095235 0 0,0 -0.31126312379784266,-0.54271349278833 l 13.376090630195506 -7.519353379534987" fill="#ffb010" stroke="none" /><path d="M 81.51974371655577 109.97397251340807 l -27.798777847429196 15.003268456021711 a52.58908219898414,52.58908219898414 0 0,0 -0.42308540629874586,-0.800318144818896 l 28.05291576195283 -14.52253529611669" fill="#87ff25" stroke="none" /><path d="M 81.35079622478065 109.6543875284942 l -11.212188614913895 5.8043665153568265 a33.62552352106638,33.62552352106638 0 0,0 -0.2616727515688497,-0.5163051637457217 l 11.310440036269013 -5.61050713990842" fill="#ff8b0c" stroke="none" /><path d="M 81.18737489456691 109.33194174019688 l -34.09577897417608 16.913100707128354 a59.06015133161366,59.06015133161366 0 0,0 -0.44392631197795646,-0.914619689304874 l 34.381858542768754 -16.323692061858196" fill="#42ff2d" stroke="none" /><path d="M 81.02952815118164 109.00673069616217 l -24.616764982590077 11.687456937066868 a48.250353536493165,48.250353536493165 0 0,0 -0.3497585026050712,-0.7533486986341993 l 24.814298102034975 -11.261988171153842" fill="#b9ff1f" stroke="none" /><path d="M 80.87730276802145 108.67885076344099 l -17.55097841918558 7.965524978231591 a40.27398328445756,40.27398328445756 0 0,0 -0.2810719668438412,-0.6337430844006838 l 17.685491470760702 -7.662233557338212" fill="#ffe315" stroke="none" /><path d="M 80.58989483394504 108.01547362559985 l -8.999599358868322 3.716417334416523 a30.73676262541584,30.73676262541584 0 0,0 -0.1977360131849957,-0.49076456851274114 l 9.062237986310706 -3.5609533980609767" fill="#ff6309" stroke="none" /><path d="M 80.45479744820244 107.68017299344265 l -16.775944404317663 6.592009205946363 a39.02461916457706,39.02461916457706 0 0,0 -0.24029078546021848,-0.6273234163463007 l 16.88692946937139 -6.302262222766904" fill="#ffd313" stroke="none" /><path d="M 80.32549172779594 107.34259656027581 l -17.614976408165344 6.573971933350128 a39.80171536963308,39.80171536963308 0 0,0 -0.2340260104059601,-0.6439390704651584 l 17.725526679576525 -6.269785065878853" fill="#ffdd14" stroke="none" /><path d="M 80.20201598880116 107.00284435728193 l -25.869822386177045 9.150544803877516 a48.44048433428457,48.44048433428457 0 0,0 -0.27128786244108416,-0.7884895152873217 l 26.02350107956136 -8.703882585500898" fill="#b6ff1f" stroke="none" /><path d="M 80.0844068197444 106.66101706037122 l -20.803237242378238 6.957900622302881 a42.93597640481307,42.93597640481307 0 0,0 -0.2283943464095762,-0.7029255199286577 l 20.919923839804063 -6.59877620239642" fill="#f9ff18" stroke="none" /><path d="M 79.97269907076064 106.31721596034903 l -45.86237400229891 14.4663787721805 a69.0898478257827,69.0898478257827 0 0,0 -0.34799315198063563,-1.137261755421744 l 46.10459392678567 -13.674790044206707" fill="#3aff91" stroke="none" /><path d="M 79.86692584326677 105.97154293290107 l -14.812680755579208 4.3934949225683155 a36.450511603223376,36.450511603223376 0 0,0 -0.1732394974890568,-0.6030694176463308 l 14.886112889954369 -4.137868029417389" fill="#ffb110" stroke="none" /><path d="M 79.76711848015287 105.62410040840567 l -8.708901359414579 2.4207988191994483 a30.039094523847538,30.039094523847538 0 0,0 -0.13419167820159014,-0.49937715511772346 l 8.749281113957943 -2.2705307309061857" fill="#ff5908" stroke="none" /><path d="M 79.67330655649465 105.27499134158121 l -26.381157957462282 6.846188741581255 a48.25501413431902,48.25501413431902 0 0,0 -0.20172591759644004,-0.8057947650662403 l 26.49509518935378 -6.3910661371176225" fill="#b9ff1f" stroke="none" /><path d="M 79.58551787078972 104.9243191809786 l -26.47700756726842 6.386703096027014 a48.236407732188,48.236407732188 0 0,0 -0.18775317474152572,-0.8088357628293797 l 26.5830213079405 -5.92999867584906" fill="#b9ff1f" stroke="none" /><path d="M 79.50377843672027 104.57218783832718 l -9.68648710118119 2.160809902615379 a30.92457212158742,30.92457212158742 0 0,0 -0.1114255941245368,-0.5205432802594914 l 9.722246734030167 -1.9937528029397236" fill="#ff6509" stroke="none" /><path d="M 79.35854240842038 103.8639653848113 l -36.46494410765558 6.826033537890152 a58.0983406992125,58.0983406992125 0 0,0 -0.17554982912166378,-0.9845766699220534 l 36.57704037911643 -6.197338117234884" fill="#4cff2c" stroke="none" /><path d="M 79.29508885075956 103.50808413554451 l -28.694514388310676 4.861782307454103 a50.103472012563074,50.103472012563074 0 0,0 -0.1367544341032516,-0.851569991703263 l 28.773950576775217 -4.367133086057626" fill="#a3ff21" stroke="none" /><path d="M 79.18660465613746 102.79330883721812 l -9.837506594132552 1.3202648415403826 a30.925705780518033,30.925705780518033 0 0,0 -0.06626714693330173,-0.5282143618858608 l 9.858775250312702 -1.1507327253671131" fill="#ff6509" stroke="none" /><path d="M 79.1416061653843 102.43462659150553 l -32.402782999039424 3.782106990295892 a53.622763208668935,53.622763208668935 0 0,0 -0.09911963118640944,-0.9177246822808095 l 32.46308493172689 -3.2237859861303004" fill="#7cff26" stroke="none" /><path d="M 79.10278846688536 102.07522291339032 l -12.621939569719611 1.253437003544846 a33.684023920803256,33.684023920803256 0 0,0 -0.05233118473470752,-0.5774702628602129 l 12.641645350731395 -1.0359853521360671" fill="#ff8c0c" stroke="none" /><path d="M 79.07016306316243 101.71520430193888 l -41.29851643515962 3.384421640123028 a62.43696139418626,62.43696139418626 0 0,0 -0.07856187555125903,-1.0719143741961341 l 41.35065486937522 -2.673034129430133" fill="#31ff43" stroke="none" /><path d="M 79.04373962182676 101.35467743843564 l -14.801198798324751 0.9567952350303401 a35.83209165928079,35.83209165928079 0 0,0 -0.03449034894126221,-0.6158483496521666 l 14.815475498153546 -0.701875169042736" fill="#ffa90f" stroke="none" /><path d="M 79.0095281055655 100.63252640178507 l -13.814848908397162 0.4162963422251517 a34.821119817380655,34.821119817380655 0 0,0 -0.012896975579877684,-0.5992717775044542 l 13.819967946662047 -0.17843474893056868" fill="#ff9b0e" stroke="none" /><line stroke="#e1ed5e" stroke-width="0.3" x1="15.007084014347285" x2="10.007500721073583" y1="101.09737516637583" y2="101.16192664675087" /><path d="M 14.007167355692545 101.11028546245083 a86.0,86.0 0 0,1 10.666146001902534,-42.60595125391555" fill="none" id="id70" stroke="none" /><text fill="#e1ed5e" style="font-size:6.75px; font-family:Arial;" text-anchor="middle"><textPath startOffset="22.20632615414155" xlink:href="#id70">October</textPath></text><path d="M 79.00175016825051 100.2711162175752 l -19.81576817727914 0.2558487569020134 a40.81741978770387,40.81741978770387 0 0,0 -0.0030237985999630596,-0.7026243036874618 l 19.817236273168604 0.0852850249891237" fill="#ffea16" stroke="none" /><path d="M 79.00486145842228 99.54816195383935 l -21.647297281115527 -0.4658732062562013 a42.65230974795297,42.65230974795297 0 0,0 0.022114827652770497,-0.7338834663433962 l 21.63607075900711 0.8384268200245919" fill="#fcff18" stroke="none" /><path d="M 79.12142395522702 97.74499172005258 l -8.97385899634142 -0.9692292374937493 a30.026048448852386,30.026048448852386 0 0,0 0.0599229091042162,-0.5133828909010248 l 8.955845734233616 1.123555866719636" fill="#ff5808" stroke="none" /><path d="M 79.21141760316559 97.0276538004421 l -27.058468815566084 -3.8688129577344794 a48.33365047601393,48.33365047601393 0 0,0 0.12484836604230574,-0.822594741974179 l 26.987864556084475 4.334006812100751" fill="#b8ff1f" stroke="none" /><path d="M 79.26566170972629 96.67025291283419 l -9.821336032729757 -1.5772176854276077 a30.947173321854883,30.947173321854883 0 0,0 0.0889924851484682,-0.5252386849220165 l 9.792731686061066 1.7460421586654522" fill="#ff6509" stroke="none" /><path d="M 79.32604984820605 96.31383870115002 l -41.83484978746242 -7.459145596148453 a63.49462918727595,63.49462918727595 0 0,0 0.20110949028587766,-1.0743349387439969 l 41.700254573266676 8.178158612355022" fill="#33ff4f" stroke="none" /><path d="M 79.3925641242962 95.95851677861259 l -10.805973173506967 -2.1192427595021863 a32.011823014390245,32.011823014390245 0 0,0 0.11070100601664765,-0.5398174199992494 l 10.767892871575325 2.304935835664838" fill="#ff740a" stroke="none" /><path d="M 79.46518482838121 95.60439243477599 l -26.569537059173864 -5.687378100350224 a48.17142928141905,48.17142928141905 0 0,0 0.18054104145628966,-0.8093300883078554 l 26.467701630715535 6.1438863582080385" fill="#baff1f" stroke="none" /><path d="M 79.54389044137918 95.25157060432595 l -25.64826016631385 -5.95367130649214 a47.33020037114548,47.33020037114548 0 0,0 0.19104993088364514,-0.7920253047114486 l 25.54197743516939 6.394281842862986" fill="#c3ff1e" stroke="none" /><path d="M 79.62865764111835 94.90015583598534 l -19.961064730674618 -4.9971336046918315 a41.57706124414569,41.57706124414569 0 0,0 0.1797785557629196,-0.6927601116428752 l 19.87208984304139 5.339990141883571" fill="#fff417" stroke="none" /><path d="M 79.71946130924805 94.55025226153421 l -14.05225420658627 -3.776094991875703 a35.55076429862673,35.55076429862673 0 0,0 0.1638944905040086,-0.5896156838109092 l 13.9851729455159 4.0174219791055545" fill="#ffa50f" stroke="none" /><path d="M 79.91906864156998 93.8553929516997 l -53.62019628676318 -16.407358311922945 a77.07429764702219,77.07429764702219 0 0,0 0.3991146291205187,-1.265302442219614 l 53.32982617387446 17.327910920568975" fill="#44ffe8" stroke="none" /><path d="M 80.02781315780177 93.51064311812611 l -14.72114428609062 -4.783189729637345 a36.4787271143853,36.4787271143853 0 0,0 0.19917855098554488,-0.5955185155222888 l 14.636628441333302 5.035881348081957" fill="#ffb210" stroke="none" /><path d="M 80.14247586403 93.16781622104843 l -25.710016798057648 -8.845793590454646 a48.18920793258485,48.18920793258485 0 0,0 0.2766219311661234,-0.7820474497165 l 25.553941786081715 9.287038666597757" fill="#b9ff1f" stroke="none" /><path d="M 80.2630227832202 92.82701384747504 l -17.632565858480987 -6.408182435800778 a39.76092164271721,39.76092164271721 0 0,0 0.23931419298027537,-0.6412430576560776 l 17.519647076999085 6.710748630486196" fill="#ffdd14" stroke="none" /><path d="M 80.38941819471856 92.48833698450439 l -27.001732365203964 -10.342779035111995 a49.91481677084009,49.91481677084009 0 0,0 0.3142409873132666,-0.7997090368092755 l 26.819697828009005 10.806037076817034" fill="#a5ff21" stroke="none" /><path d="M 80.52162464483688 92.15188598940014 l -16.73402452990665 -6.742376095143391 a39.041264156812254,39.041264156812254 0 0,0 0.2565165604851061,-0.6211751979257446 l 16.615486282535347 7.029425863522446" fill="#ffd313" stroke="none" /><path d="M 80.65960295795068 91.81776055985345 l -6.667099061013417 -2.8206143219181605 a28.239204033757844,28.239204033757844 0 0,0 0.193249331728526,-0.4460461016281444 l 6.6175590194422105 2.9349595681329044" fill="#ff3f05" stroke="none" /><path d="M 80.803312248108 91.48605970444005 l -49.421099779947156 -21.918796529151763 a75.06365456335567,75.06365456335567 0 0,0 0.5340160034299368,-1.1766334770541969 l 49.03648145955386 22.766252015048032" fill="#42ffd3" stroke="none" /><path d="M 80.95270993114464 91.15688171328213 l -14.012276911858276 -6.505504024450183 a36.448802117534356,36.448802117534356 0 0,0 0.2690994339336723,-0.5667920367761083 l 13.898219284082852 6.745738476866824" fill="#ffb110" stroke="none" /><path d="M 81.10775173730289 90.83032412892265 l -16.22311240223814 -7.874165122120893 a39.03307662009115,39.03307662009115 0 0,0 0.2985844248876138,-0.6019279807048515 l 16.08516796439711 8.152252691324705" fill="#ffd313" stroke="none" /><path d="M 81.26839172434947 90.50648371742162 l -33.104526640725254 -16.777970052860315 a58.11347414620687,58.11347414620687 0 0,0 0.45990053378062756,-0.8883814478643411 l 32.810816673784515 17.345324222984992" fill="#4cff2c" stroke="none" /><path d="M 81.43458229118936 90.18545643968196 l -16.0294921592801 -8.473935330438069 a39.1315250011925,39.1315250011925 0 0,0 0.31993170990164915,-0.5927848692419103 l 15.881252350159977 8.748601183012452" fill="#ffd513" stroke="none" /><path d="M 81.6062741919709 89.86733742301443 l -17.365920354276668 -9.566469193091969 a40.826561037493576,40.826561037493576 0 0,0 0.34438634857619815,-0.6126248864556312 l 17.198676364408037 9.863977589482385" fill="#ffea16" stroke="none" /><line stroke="#e1ed5e" stroke-width="0.3" x1="26.266209847984243" x2="21.928928074336255" y1="57.711370442889674" y2="55.22380399835377" /><path d="M 25.398753493254645 57.213857153982495 a86.0,86.0 0 0,1 29.58750427330803,-30.492523968695096" fill="none" id="id71" stroke="none" /><text fill="#e1ed5e" style="font-size:6.75px; font-family:Arial;" text-anchor="middle"><textPath startOffset="21.46611528233685" xlink:href="#id71">November</textPath></text><path d="M 81.96595687620814 89.24020034530311 l -49.48732314006119 -29.526029120548387 a78.62622273927302,78.62622273927302 0 0,0 0.7034583377684956,-1.1563005453755355 l 48.971749004006476 30.373497439130997" fill="#46fff8" stroke="none" /><path d="M 82.15384107792192 88.93136811851018 l -10.098372178237312 -6.263261732187451 a32.882994916100955,32.882994916100955 0 0,0 0.3024803414559529,-0.4784512593721971 l 9.989064240535397 6.436160639273864" fill="#ff810b" stroke="none" /><path d="M 82.34701348167596 88.62581576622439 l -8.358312991484645 -5.385433889615421 a30.943052561615033,30.943052561615033 0 0,0 0.292343130501007,-0.4452586442623639 l 8.264373225625718 5.528510597855452" fill="#ff6509" stroke="none" /><path d="M 82.54541684631803 88.32363383020206 l -12.73617870710808 -8.519956327734326 a36.323181911270694,36.323181911270694 0 0,0 0.3521195793427846,-0.5166920334115742 l 12.587634662096555 8.737926384416316" fill="#ffb010" stroke="none" /><path d="M 82.7489923806493 88.02491185347247 l -34.17567999509842 -23.723644985800803 a62.602745516848785,62.602745516848785 0 0,0 0.6221144264283657,-0.8799367372879447 l 33.76225294886618 24.308408223420532" fill="#32ff45" stroke="none" /><path d="M 82.95767976084542 87.72973835380427 l -10.247857874907767 -7.378332038923326 a33.6276828714104,33.6276828714104 0 0,0 0.3422615754359666,-0.46684440425336765 l 10.119333686958168 7.553638886848195" fill="#ff8b0c" stroke="none" /><path d="M 83.17141714833178 87.43820079747576 l -12.401396294285812 -9.257098559805566 a36.47541611052446,36.47541611052446 0 0,0 0.37990719493851693,-0.49991333631825774 l 12.240213159123186 9.46919667200485" fill="#ffb210" stroke="none" /><path d="M 83.39014120810768 87.1503855733568 l -33.20909521564711 -25.691011243698313 a62.986570040499245,62.986570040499245 0 0,0 0.6707947317590329,-0.8518411890624228 l 32.761946403294104 26.258844826713784" fill="#32ff49" stroke="none" /><path d="M 83.6137871275137 86.86637796730984 l -4.23607378784034 -3.395231861383697 a26.428804705327224,26.428804705327224 0 0,0 0.28757246322789537,-0.35252983696659806 l 4.1770028325360515 3.4676458679583773" fill="#ff2403" stroke="none" /><path d="M 83.84228863543731 86.58626213691792 l -23.254443667534208 -19.305271920640926 a51.22354503059508,51.22354503059508 0 0,0 0.5690433045334378,-0.6735677870699431 l 22.918689749513646 19.702698657339987" fill="#96ff23" stroke="none" /><path d="M 84.07557802195018 86.31012108654704 l -12.329395998193194 -10.59931333921779 a37.25913432330216,37.25913432330216 0 0,0 0.42228462499961683,-0.48274432565311903 l 12.145119509615732 10.809973221073852" fill="#ffbc11" stroke="none" /><path d="M 84.5562425177563 85.77008943001954 l -8.006428201535147 -7.3771397552574465 a31.886922591574592,31.886922591574592 0 0,0 0.37540425078265505,-0.4004550804304973 l 7.878256628782037 7.513864252565995" fill="#ff730a" stroke="none" /><path d="M 84.80347519578584 85.50635884689758 l -23.517262290917053 -22.429520231718858 a53.49838462885309,53.49838462885309 0 0,0 0.641307392630386,-0.6609236406169239 l 23.127690634583548 22.831008067885904" fill="#7dff26" stroke="none" /><path d="M 85.05521093208273 85.24692304244772 l -27.044805259531532 -26.697873853062546 a59.00260464494539,59.00260464494539 0 0,0 0.7197311908055621,-0.7166404363424239 l 26.581238268558657 27.15945014005508" fill="#42ff2d" stroke="none" /><path d="M 85.57189188830299 84.74124197986013 l -18.592777609503123 -19.663194388991442 a48.06164431101158,48.06164431101158 0 0,0 0.6060164050196033,-0.5632262024119742 l 18.251553320688664 19.980325177478065" fill="#bbff1f" stroke="none" /><path d="M 85.83668400450813 84.49514656593479 l -9.757539586358297 -10.681765570416525 a35.46753933745076,35.46753933745076 0 0,0 0.45430373232294835,-0.40787837650042646 l 9.572224866439377 10.848142955686232" fill="#ffa40f" stroke="none" /><path d="M 86.10567301691215 84.25364557470407 l -7.173709821652629 -8.129920760715025 a31.842403985315276,31.842403985315276 0 0,0 0.41411228544687123,-0.35911409320930154 l 7.032703737558984 8.252199847344007" fill="#ff720a" stroke="none" /><path d="M 86.37877921826538 84.01681056812374 l -5.848865994832157 -6.8630803842793995 a30.01726709078669,30.01726709078669 0 0,0 0.39614568263318395,-0.33176061666535217 l 5.729862775239863 6.962742158338564" fill="#ff5808" stroke="none" /><path d="M 86.93701828274178 83.55741782278169 l -25.527120046639578 -32.131390688548336 a62.03730163467962,62.03730163467962 0 0,0 0.8418386348399352,-0.6570684075157286 l 24.970248856640218 32.56603748528729" fill="#31ff3e" stroke="none" /><path d="M 87.22198572758235 83.33499621200491 l -6.05216501921636 -7.8931945778558745 a30.946417549234475,30.946417549234475 0 0,0 0.4255189092733483,-0.3204920205325426 l 5.915399956184621 7.996203187894272" fill="#ff6509" stroke="none" /><path d="M 87.80319425747018 82.90503203632743 l -22.882543843294425 -32.07203280810099 a60.398300739806,60.398300739806 0 0,0 0.8515264795770348,-0.5965487164160735 l 22.32708622413373 32.461166367281" fill="#34ff2f" stroke="none" /><path d="M 88.09926311788651 82.69761687909137 l -15.508832037889313 -22.548162885668955 a48.36683249296712,48.36683249296712 0 0,0 0.6900226648246761,-0.46590638348443286 l 15.118404678658097 22.81178118145205" fill="#b7ff1f" stroke="none" /><path d="M 88.39885842347998 82.49532879139004 l -5.9914366664339065 -9.040328335049571 a31.845499054141712,31.845499054141712 0 0,0 0.45953506160763014,-0.2988943868689448 l 5.834934579041989 9.142121646078051" fill="#ff720a" stroke="none" /><path d="M 88.70189139769569 82.29822771554957 l -6.790321870309844 -10.639013636480069 a33.621294793309325,33.621294793309325 0 0,0 0.49052003795794424,-0.3071636027688713 l 6.606182679979657 10.75432158057187" fill="#ff8b0c" stroke="none" /><path d="M 89.00827224532344 82.1063720568725 l -31.097255697690265 -50.62377234279901 a80.41216742505756,80.41216742505756 0 0,0 1.185650351069299,-0.7143410701869362 l 30.221243280403314 51.15156002244456" fill="#48f4ff" stroke="none" /><line stroke="#e1ed5e" stroke-width="0.3" x1="56.762969772571076" x2="54.21961505331055" y1="26.818313649435495" y2="22.513508569990535" /><path d="M 56.25429882871897 25.957352633546506 a86.0,86.0 0 0,1 42.265352541879196,-11.944610805530505" fill="none" id="id72" stroke="none" /><text fill="#e1ed5e" style="font-size:6.75px; font-family:Arial;" text-anchor="middle"><textPath startOffset="22.20632615414155" xlink:href="#id72">December</textPath></text><path d="M 89.3179101791058 81.91981866633112 l -5.0430325409910814 -8.535683966480542 a30.914135261591298,30.914135261591298 0 0,0 0.4604782153730868,-0.26673870415629 l 4.895357593152674 8.62122682802688" fill="#ff6509" stroke="none" /><path d="M 89.94658935756843 81.56283822128135 l -13.801624909609085 -25.311090963863197 a49.829432459320095,49.829432459320095 0 0,0 0.7565886365874982,-0.40414344734126006 l 13.363891226493283 25.544913137706207" fill="#a6ff21" stroke="none" /><path d="M 90.26544431104013 81.39251694778311 l -8.35844511990088 -15.97706468388993 a39.03136713440214,39.03136713440214 0 0,0 0.597996810979357,-0.306317192905776 l 8.08218782133276 16.11857440210821" fill="#ffd313" stroke="none" /><path d="M 90.58718382345135 81.22770947309562 l -12.264923516521998 -24.460342497290142 a48.36305362986508,48.36305362986508 0 0,0 0.7473905008574729,-0.36674127288945285 l 11.8420617486541 24.667838930314424" fill="#b7ff1f" stroke="none" /><path d="M 90.91171255644093 81.06846463323043 l -4.69837878837315 -9.787050063167177 a31.856385778792838,31.856385778792838 0 0,0 0.4963858826698242,-0.23305982772149775 l 4.529214694403717 9.86647487352868" fill="#ff720a" stroke="none" /><path d="M 91.23893434514133 80.91482961587045 l -22.668324890606943 -49.380847022886186 a75.33526484746162,75.33526484746162 0 0,0 1.183186545558775,-0.5308613139322441 l 21.814956226581394 49.76372866733496" fill="#42ffd6" stroke="none" /><path d="M 91.56875222667455 80.76684994638697 l -6.196093043925515 -14.134371384149725 a36.43282292498857,36.43282292498857 0 0,0 0.5765342289296815,-0.24684186873407615 l 5.951875057205526 14.238932780846588" fill="#ffb110" stroke="none" /><path d="M 92.23578459929587 80.48803036053334 l -15.385814014914645 -38.66553417751256 a62.614262052016926,62.614262052016926 0 0,0 1.0048600201262674,-0.3898700763719135 l 14.717970829788703 38.924646957775025" fill="#32ff45" stroke="none" /><path d="M 92.57280143429618 80.3572730644239 l -5.6779341578476386 -15.016443849473504 a37.054050024378384,37.054050024378384 0 0,0 0.5985423176179286,-0.2204481868850903 l 5.41860951445714 15.111955304164916" fill="#ffb911" stroke="none" /><path d="M 92.91201910852362 80.23233633223022 l -3.34323518234454 -9.323945656557228 a30.905209946835996,30.905209946835996 0 0,0 0.5023097296694039,-0.17524600157156978 l 3.1822434486118505 9.380112511301009" fill="#ff6509" stroke="none" /><path d="M 93.59665428221793 80.00007090966166 l -19.21003715334623 -59.99978727101503 a84.0,84.0 0 0,0 1.380858509157085,-0.42903946046989905 l 18.17439327147842 60.321566866367455" fill="#4dd2ff" stroke="none" /><path d="M 93.94186890950719 79.89281104454417 l -3.3863609558428336 -11.239472800013468 a32.73853437808568,32.73853437808568 0 0,0 0.5409805565044666,-0.15792705910727173 l 3.192390181614946 11.296098188039439" fill="#ff7f0b" stroke="none" /><path d="M 94.63758080256005 79.69619591428918 l -6.983018530096982 -26.439902391380546 a48.346498610560886,48.346498610560886 0 0,0 0.8064451774515479,-0.2055808319833003 l 6.526864463960434 26.55618621953271" fill="#b7ff1f" stroke="none" /><path d="M 94.98787191387505 79.60689891045804 l -2.5851151727436563 -10.518189906560952 a31.831211352698745,31.831211352698745 0 0,0 0.5332126747223188,-0.1261942126961946 l 2.4036788110588034 10.561130031398019" fill="#ff720a" stroke="none" /><path d="M 95.33964822691252 79.52364482259891 l -6.535734928239503 -28.716293587279356 a50.45065955870991,50.45065955870991 0 0,0 0.8484294044958153,-0.18543380619490796 l 6.040462799590167 28.824540891570134" fill="#9fff22" stroke="none" /><path d="M 96.04723909329186 79.375362276772 l -10.167898422767253 -53.053859397431125 a75.01942387047555,75.01942387047555 0 0,0 1.2703463400186272,-0.23214767378894974 l 9.253156961645733 53.22102255257081" fill="#41ffd3" stroke="none" /><path d="M 96.40284397218896 79.31037775812273 l -2.9979175378640943 -17.243005555266745 a38.50167849501278,38.50167849501278 0 0,0 0.653924963514362,-0.10790322202516667 l 2.7006633682108467 17.29205504023154" fill="#ffcc13" stroke="none" /><path d="M 97.11714578562143 79.19881850522333 l -3.4059455862569075 -24.575537655599245 a45.81043160443444,45.81043160443444 0 0,0 0.7820173814708521,-0.10152830016404793 l 2.9824134762781975 24.630524278927428" fill="#d6ff1c" stroke="none" /><path d="M 97.47563105711357 79.15227682838746 l -1.7939814982263993 -14.815754153295082 a35.92397201641906,35.92397201641906 0 0,0 0.6145279471658506,-0.06904937514245983 l 1.5386868475508306 14.84443948190814" fill="#ffaa0f" stroke="none" /><path d="M 97.83486435360386 79.11191278185805 l -1.0240862363813987 -9.87984409200362 a30.932777652894714,30.932777652894714 0 0,0 0.5300918774562602,-0.0503386110914604 l 0.8538692318349023 9.89600824761026" fill="#ff6509" stroke="none" /><path d="M 98.55514903715128 79.0497635885617 l -2.635603494157688 -38.2160636004628 a59.306839113832325,59.306839113832325 0 0,0 1.019055157887303,-0.06147219004268073 l 1.9773862874307617 38.255769059885786" fill="#3fff2d" stroke="none" /></svg>