<?xml version="1.0" encoding="utf-8" ?>
<svg baseProfile="full" height="200mm" version="1.1" viewBox="0,0,200,200" width="200mm" xmlns="http://www.w3.org/2000/svg" xmlns:ev="http://www.w3.org/2001/xml-events" xmlns:xlink="http://www.w3.org/1999/xlink"><defs /><rect fill="#1a1a1a" height="200" width="200" x="0" y="0" /><text alignment-baseline="middle" fill="#e1ed5e" style="dominant-baseline: central; font-size:9.0px; font-family:Arial;" text-anchor="middle" x="100.0" y="100.0">2025</text><line stroke="#e1ed5e" stroke-width="0.3" x1="100.0" x2="100.0" y1="15.0" y2="10.0" /><path d="M 100.0 14.0 a86.0,86.0 0 0,1 42.46469731375804,11.215312516191453" fill="none" id="id61" stroke="none" /><text fill="#e1ed5e" style="font-size:6.75px; font-family:Arial;" text-anchor="middle"><textPath startOffset="22.20632615414155" xlink:href="#id61">January</textPath></text><path d="M 100.0 79.0 l 0.0 -47.22903814637655 a68.22903814637655,68.22903814637655 0 0,0 1.1744507337836103,0.010108868253005084 l -0.812970254511082 47.222040654732105" fill="#38ff85" stroke="none" /><path d="M 100.72285384407766 79.0124445844662 l 1.2087517683359668 -35.09526155172533 a56.116071309607875,56.116071309607875 0 0,0 0.9650873144647093,0.041558689875943314 l -1.8126799151900075 35.06925513532519" fill="#65ff29" stroke="none" /><path d="M 101.08401301168833 79.027996857942 l 1.829862628022786 -35.40168279406414 a56.44894274712536,56.44894274712536 0 0,0 0.9699486117163221,0.058509949073491205 l -2.43897328857872 35.36493957561035" fill="#61ff29" stroke="none" /><path d="M 101.44485096284872 79.0497635885617 l 2.010944877882567 -29.15855800029798 a50.227819007901076,50.227819007901076 0 0,0 0.8620285113038203,0.06691000321863289 l -2.5125635785487286 29.119622734890882" fill="#a8ff21" stroke="none" /><path d="M 101.80526077348638 79.07773832637324 l 3.013211774550738 -34.9219382324764 a56.0516934699479,56.0516934699479 0 0,0 0.9605521935178137,0.09121600492083859 l -3.613889095158796 34.864896683040385" fill="#66ff29" stroke="none" /><path d="M 102.52436894288641 79.15227682838746 l 3.03723876950821 -25.08330379013286 a46.266518327048885,46.266518327048885 0 0,0 0.7898031134985158,0.10253911163324075 l -3.468556611514572 25.027306355335483" fill="#d7ff1c" stroke="none" /><path d="M 102.88285421437855 79.19881850522331 l 4.871742454420412 -35.151967964516935 a56.487951847361195,56.487951847361195 0 0,0 0.9619925625080372,0.14177269718121518 l -5.476103997357105 35.06290078317475" fill="#61ff29" stroke="none" /><path d="M 103.2404852339499 79.25152402106235 l 5.115473203691257 -32.75382087092951 a54.15088004476836,54.15088004476836 0 0,0 0.9197160654212415,0.15176103122584392 l -5.678518475251375 32.66091357676404" fill="#7bff26" stroke="none" /><path d="M 103.59715602781102 79.31037775812273 l 1.6055311676233117 -9.234471092959636 a30.373003077825004,30.373003077825004 0 0,0 0.5143232419633895,0.09398928499738071 l -1.764249530689602 9.205466326611516" fill="#ff5207" stroke="none" /><path d="M 103.95276090670814 79.375362276772 l 11.858282720124386 -61.87391316968404 a84.0,84.0 0 0,0 1.4177343621314986,0.2843841756911667 l -12.921583491723009 61.66062503791566" fill="#4dd2ff" stroke="none" /><path d="M 104.307194497241 79.44645832069477 l 4.314435038890264 -20.58809288767627 a42.035301720117786,42.035301720117786 0 0,0 0.7069082211838723,0.15450275696478705 l -4.668185984227664 20.510776632615613" fill="#fff216" stroke="none" /><path d="M 105.01212808612495 79.60689891045804 l 8.188836588803555 -33.31833694025186 a55.30989101035268,55.30989101035268 0 0,0 0.9225982470822183,0.23519083568814117 l -8.761143724570799 33.17244310839485" fill="#6eff28" stroke="none" /><path d="M 105.36241919743992 79.69619591428918 l 2.9899442291864906 -11.320868365827579 a32.709048938749945,32.709048938749945 0 0,0 0.5431292574489069,0.14845774288734792 l -3.1843713758591083 11.267724082113936" fill="#ff730a" stroke="none" /><path d="M 106.0581310904928 79.89281104454417 l 10.234529589312285 -33.96882920632976 a56.47713282613619,56.47713282613619 0 0,0 0.9284158266162793,0.2884633166263494 l -10.817730788639281 33.78762575482089" fill="#61ff29" stroke="none" /><path d="M 106.40334571778207 80.00007090966166 l 7.826216635453903 -24.444061691068526 a46.66635577525215,46.66635577525215 0 0,0 0.7629219790948014,0.2515233815521083 l -8.245821436791122 24.30572458525718" fill="#d2ff1c" stroke="none" /><path d="M 106.74666289553966 80.11325718540242 l 12.011059451371457 -35.404296011022154 a58.386223735227105,58.386223735227105 0 0,0 0.9489651845533829,0.33107531947083113 l -12.618706639988114 35.192299838379114" fill="#4dff2c" stroke="none" /><path d="M 107.4271985657038 80.35727306442388 l 11.81633582939009 -31.250687055487322 a54.41004690019053,54.41004690019053 0 0,0 0.8731953237391377,0.33878621970749756 l -12.352514318128895 31.042658131889276" fill="#78ff26" stroke="none" /><path d="M 108.09893153111575 80.62456947434976 l 12.03069501205389 -28.781561430143864 a52.19480567065939,52.19480567065939 0 0,0 0.8259610325399178,0.35363340898627715 l -12.524339802384123 28.570208493194798" fill="#91ff24" stroke="none" /><path d="M 108.43124777332544 80.76684994638697 l 10.340812551214023 -23.589201126672616 a46.75621893861671,46.75621893861671 0 0,0 0.7343350989922844,0.3294747535634859 l -10.74532976867309 23.4077060425926" fill="#d1ff1c" stroke="none" /><path d="M 109.08828744355905 81.06846463323043 l 14.34076653845339 -29.872814938498127 a54.13672671312273,54.13672671312273 0 0,0 0.8366153965910585,0.4105235417264568 l -14.852853202054881 29.62153623663684" fill="#7bff26" stroke="none" /><path d="M 109.73455568895987 81.39251694778311 l 14.948819931143955 -28.574484794911534 a53.248541031004756,53.248541031004756 0 0,0 0.8085029082322065,0.43187425334877755 l -15.438467885904473 28.312931815061003" fill="#85ff25" stroke="none" /><path d="M 110.05341064243156 81.56283822128135 l 14.52909811676763 -26.645219419081833 a51.34901003291007,51.34901003291007 0 0,0 0.7723769199711752,0.42982691972921094 l -14.98559912581084 26.39117710179244" fill="#9aff22" stroke="none" /><line stroke="#e1ed5e" stroke-width="0.3" x1="143.23703022742887" x2="145.7803849466894" y1="26.81831364943548" y2="22.513508569990506" /><path d="M 143.74570117128098 25.957352633546492 a86.0,86.0 0 0,1 28.547481713284135,27.462654790039103" fill="none" id="id62" stroke="none" /><text fill="#e1ed5e" style="font-size:6.75px; font-family:Arial;" text-anchor="middle"><textPath startOffset="19.985693538727396" xlink:href="#id62">February</textPath></text><path d="M 110.68208982089419 81.91981866633111 l 14.32099527169703 -24.23928236256137 a49.15375134904667,49.15375134904667 0 0,0 0.7247555240652773,0.43665709390442164 l -14.736112861979944 23.98917865919833" fill="#b4ff20" stroke="none" /><path d="M 110.99172775467656 82.1063720568725 l 12.234429231069003 -19.91664364723106 a44.3742155543416,44.3742155543416 0 0,0 0.64740046544548,0.4054021120693268 l -12.575448848886746 19.70309719383879" fill="#efff19" stroke="none" /><path d="M 111.60114157652 82.49532879139004 l 13.188963426695299 -19.90049572655388 a44.87422221630048,44.87422221630048 0 0,0 0.6401955389600615,0.43226288567714083 l -13.529563660061902 19.670520928578068" fill="#e8ff1a" stroke="none" /><path d="M 112.19680574252982 82.90503203632743 l 14.102091118549119 -19.76540423627226 a45.28044848307196,45.28044848307196 0 0,0 0.6305942493559704,0.45815354007272685 l -14.440230684258877 19.519731461382857" fill="#e3ff1b" stroke="none" /><path d="M 112.48926042617603 83.11751280151076 l 19.446315808138923 -26.286758902120532 a53.69790348153971,53.69790348153971 0 0,0 0.7383560078764624,0.5561144374071948 l -19.895917969773766 25.94812787520749" fill="#80ff26" stroke="none" /><path d="M 112.77801427241765 83.33499621200491 l 12.868745046306442 -16.783334278031276 a42.149111294685085,42.149111294685085 0 0,0 0.5719583118070097,0.4464225346177836 l -13.155735913272883 16.55933335419027" fill="#fff316" stroke="none" /><path d="M 113.06298171725822 83.55741782278167 l 22.09322275274658 -27.80908972655836 a56.51698133319121,56.51698133319121 0 0,0 0.7565110179121021,0.6117126313367316 l -22.568637169223173 27.4246709979575" fill="#61ff29" stroke="none" /><path d="M 113.34407831869373 83.78471172551755 l 22.603929556552934 -27.467557154706522 a56.57252208439369,56.57252208439369 0 0,0 0.7466022909954093,0.625257947576208 l -23.07338938450746 27.074398049736494" fill="#60ff29" stroke="none" /><path d="M 113.89432698308785 84.25364557470407 l 17.026982170295348 -19.296573081446255 a46.73472079730324,46.73472079730324 0 0,0 0.5986250662973212,0.5374514951161363 l -17.35661822418866 19.00062257756082" fill="#d1ff1c" stroke="none" /><path d="M 114.16331599549186 84.49514656593476 l 11.167641212417191 -12.225430842457316 a37.55830213315923,37.55830213315923 0 0,0 0.47357820490055963,0.4401393290377873 l -11.376427301112598 12.031386927344888" fill="#ffb710" stroke="none" /><path d="M 114.42810811169701 84.74124197986012 l 8.837383626479129 -9.346166333357944 a33.862743661146126,33.862743661146126 0 0,0 0.42008629242790163,0.4041226804817081 l -8.996953162519448 9.192660566113934" fill="#ff840c" stroke="none" /><path d="M 114.68862486808459 84.99185889309783 l 33.49539649281192 -34.22400949785511 a68.8876227465924,68.8876227465924 0 0,0 0.8403115599645806,0.8367029950759584 l -34.07954385294383 33.64237065212903" fill="#39ff8d" stroke="none" /><path d="M 115.4437574822437 85.77008943001954 l 15.616914077200702 -14.389457420134875 a42.235453612780304,42.235453612780304 0 0,0 0.4880334005051225,0.5388986701881304 l -15.86229111832186 14.118505962677196" fill="#fff417" stroke="none" /><path d="M 115.68641384162765 86.03803664274999 l 19.17334021801228 -17.065562356233144 a46.668081222602694,46.668081222602694 0 0,0 0.5289230020090134,0.6046504248822624 l -19.464255083599145 16.732996375147934" fill="#d2ff1c" stroke="none" /><path d="M 115.9244219780498 86.31012108654704 l 22.574237924770447 -19.40658092203053 a50.76930635684116,50.76930635684116 0 0,0 0.5639971587462893,0.6675947420942759 l -22.904945697003853 19.015127230307147" fill="#a1ff22" stroke="none" /><path d="M 116.15771136456269 86.58626213691792 l 10.11189030143378 -8.394644683476539 a34.142312765645606,34.142312765645606 0 0,0 0.3715033309975665,0.45541915675470274 l -10.254892124507755 8.219341357113736" fill="#ff880c" stroke="none" /><path d="M 116.38621287248628 86.86637796730983 l 38.41172490519462 -30.787167263984905 a70.22712949515676,70.22712949515676 0 0,0 0.747905283009099,0.9497637584509258 l -38.93598426879768 30.121411111580944" fill="#3bff9c" stroke="none" /><path d="M 116.60985879189232 87.15038557335679 l 23.688389287725613 -18.32566264103811 a50.94945238697986,50.94945238697986 0 0,0 0.5306605271161173,0.6982870503570103 l -24.00032575506584 17.915190814800066" fill="#9fff22" stroke="none" /><path d="M 116.82858285166822 87.43820079747576 l 9.367181649727577 -6.992190371263685 a32.68908970993831,32.68908970993831 0 0,0 0.33270860161475774,0.45381415869708264 l -9.486152863855962 6.829913768895109" fill="#ff730a" stroke="none" /><path d="M 117.2510076193507 88.02491185347247 l 16.077752308983257 -11.160652487460768 a40.57177261401942,40.57177261401942 0 0,0 0.39330572803169783,0.5771276245087367 l -16.267482502683688 10.882246839681626" fill="#ffdf14" stroke="none" /><path d="M 117.45458315368197 88.32363383020206 l 19.73122409655936 -13.19934114159398 a44.73907771841232,44.73907771841232 0 0,0 0.42268493096744264,0.6437781486096734 l -19.955505662884725 12.857744929006634" fill="#eaff1a" stroke="none" /><path d="M 117.65298651832404 88.62581576622439 l 29.936570992074902 -19.28875170430311 a56.61255712629741,56.61255712629741 0 0,0 0.5207611306071439,0.8237190475644787 l -30.264159718928 18.770585009024423" fill="#60ff29" stroke="none" /><line stroke="#e1ed5e" stroke-width="0.3" x1="172.23445277983987" x2="176.4835382374775" y1="55.19839476539836" y2="52.563006222186495" /><path d="M 173.08426987136738 54.67131705675599 a86.0,86.0 0 0,1 12.851231095245387,41.99856678651699" fill="none" id="id63" stroke="none" /><text fill="#e1ed5e" style="font-size:6.75px; font-family:Arial;" text-anchor="middle"><textPath startOffset="22.20632615414155" xlink:href="#id63">March</textPath></text><path d="M 117.84615892207809 88.93136811851018 l 4.994743256066133 -3.0978640661747643 a26.877433280481792,26.877433280481792 0 0,0 0.24046881409612378,0.39526750335663285 l -5.047327868448481 3.01142878961105" fill="#ff1e03" stroke="none" /><path d="M 118.03404312379186 89.2402003453031 l 40.10744230854443 -23.929633579112473 a67.70368606184962,67.70368606184962 0 0,0 0.5885072806327998,1.0059497100393193 l -40.51340926364755 23.235704456719258" fill="#38ff7f" stroke="none" /><path d="M 118.21658344932153 89.55222093294921 l 8.377958498820249 -4.805020638041462 a30.658074960361347,30.658074960361347 0 0,0 0.2586116053291337,0.46004118922214526 l -8.459427745441817 4.660095938884523" fill="#ff5608" stroke="none" /><path d="M 118.56541770881063 90.18545643968196 l 20.740345934019153 -10.964311809095127 a44.46013816902722,44.46013816902722 0 0,0 0.35185026495667526,0.6796627202062735 l -20.926005632135944 10.60567636662851" fill="#edff19" stroke="none" /><path d="M 118.73160827565052 90.50648371742162 l 10.631395447945671 -5.388182600572609 a32.91885400983305,32.91885400983305 0 0,0 0.2518135372251538,0.5076407251755871 l -10.722568998124233 5.204382286898072" fill="#ff760a" stroke="none" /><path d="M 118.89224826269711 90.83032412892265 l 32.00207604881617 -15.532755047932987 a56.57245213382543,56.57245213382543 0 0,0 0.41767119798233754,0.8797220623863424 l -32.26470544064026 14.979590569906104" fill="#60ff29" stroke="none" /><path d="M 119.196687751892 91.48605970444005 l 27.734588109000065 -12.300592182039347 a51.3399397758917,51.3399397758917 0 0,0 0.35133458580537696,0.8109286638350274 l -27.942213404648122 11.821364373617717" fill="#9bff22" stroke="none" /><path d="M 119.34039704204932 91.81776055985345 l 23.707810681313127 -10.029938019080772 a46.742182191251516,46.742182191251516 0 0,0 0.3071146404765195,0.7437024620286609 l -23.876947008675845 9.620360986598808" fill="#d1ff1c" stroke="none" /><path d="M 119.47837535516314 92.15188598940014 l 3.6170887735440433 -1.4573764271212595 a24.899650913354563,24.899650913354563 0 0,0 0.15675687887807058,0.39892915845455873 l -3.641639202303814 1.3948982637709162" fill="#ff0000" stroke="none" /><path d="M 119.61058180528143 92.48833698450437 l 15.293682716691272 -5.858112317848491 a37.37724674563309,37.37724674563309 0 0,0 0.22496726109955154,0.6028004130615037 l -15.392254566292449 5.593988767757653" fill="#ffb410" stroke="none" /><path d="M 119.85752413597 93.16781622104841 l 11.07573849694997 -3.8107208320950527 a32.7129661705728,32.7129661705728 0 0,0 0.17861701094621013,0.5340421279268945 l -11.13969280166795 3.6195056012458444" fill="#ff730a" stroke="none" /><path d="M 120.08093135843002 93.85539295169968 l 56.234482888494945 -17.207309449275698 a79.80823551357041,79.80823551357041 0 0,0 0.39065790346264057,1.317104244029308 l -56.52234668906929 16.23677581849986" fill="#48fbff" stroke="none" /><path d="M 120.28053869075195 94.5502522615342 l 13.837953269190233 -3.7185084520537814 a35.32886093827029,35.32886093827029 0 0,0 0.15276143638280582,0.5886521296946842 l -13.899911037443342 3.479759896810247" fill="#ff980e" stroke="none" /><path d="M 120.37134235888165 94.90015583598534 l 34.5734184914048 -8.655249291736242 a56.64035081875475,56.64035081875475 0 0,0 0.22863066338812588,0.9478217029382222 l -34.71728195505375 8.058842357138614" fill="#5fff29" stroke="none" /><line stroke="#e1ed5e" stroke-width="0.3" x1="184.98032266829074" x2="189.97916517819016" y1="98.17113171792111" y2="98.06355123074" /><path d="M 185.9800911702706 98.14961562048488 a86.0,86.0 0 0,1 -9.607161424134198,41.387399972396054" fill="none" id="id64" stroke="none" /><text fill="#e1ed5e" style="font-size:6.75px; font-family:Arial;" text-anchor="middle"><textPath startOffset="21.466115282336823" xlink:href="#id64">April</textPath></text><line stroke="#e1ed5e" stroke-width="0.3" x1="174.80103733775053" x2="179.2010983576182" y1="140.37084112569926" y2="142.7455964860345" /><path d="M 175.68104954172406 140.8457921977663 a86.0,86.0 0 0,1 -30.038265399797805,32.042727171017184" fill="none" id="id65" stroke="none" /><text fill="#e1ed5e" style="font-size:6.75px; font-family:Arial;" text-anchor="middle"><textPath startOffset="22.206326154141568" xlink:href="#id65">May</textPath></text><line stroke="#e1ed5e" stroke-width="0.3" x1="143.8653032363475" x2="146.44561519142675" y1="172.8068346515853" y2="177.08958963109032" /><path d="M 144.38136562736335 173.6633856474863 a86.0,86.0 0 0,1 -40.68145358897372,12.25698825130547" fill="none" id="id66" stroke="none" /><text fill="#e1ed5e" style="font-size:6.75px; font-family:Arial;" text-anchor="middle"><textPath startOffset="21.466115282336833" xlink:href="#id66">June</textPath></text><line stroke="#e1ed5e" stroke-width="0.3" x1="102.19456741930631" x2="102.32365962044197" y1="184.97166512339345" y2="189.96999836594603" /><path d="M 102.22038585953345 185.97133177190398 a86.0,86.0 0 0,1 -42.740103519485714,-10.115201625700543" fill="none" id="id67" stroke="none" /><text fill="#e1ed5e" style="font-size:6.75px; font-family:Arial;" text-anchor="middle"><textPath startOffset="22.20632615414155" xlink:href="#id67">July</textPath></text><line stroke="#e1ed5e" stroke-width="0.3" x1="58.666819895761336" x2="56.23545636021788" y1="174.27360380694188" y2="178.64263932499728" /><path d="M 58.180547188652646 175.14741091055294 a86.0,86.0 0 0,1 -31.652253787137756,-30.449443065178592" fill="none" id="id68" stroke="none" /><text fill="#e1ed5e" style="font-size:6.75px; font-family:Arial;" text-anchor="middle"><textPath startOffset="22.20632615414155" xlink:href="#id68">August</textPath></text><line stroke="#e1ed5e" stroke-width="0.3" x1="26.63291911575756" x2="22.317208475507996" y1="142.92168965132927" y2="145.44649492493687" /><path d="M 25.769776987707644 143.4266507060508 a86.0,86.0 0 0,1 -11.730757126820373,-40.83630448921669" fill="none" id="id69" stroke="none" /><text fill="#e1ed5e" style="font-size:6.75px; font-family:Arial;" text-anchor="middle"><textPath startOffset="21.46611528233685" xlink:href="#id69">September</textPath></text><line stroke="#e1ed5e" stroke-width="0.3" x1="15.007084014347285" x2="10.007500721073583" y1="101.09737516637583" y2="101.16192664675087" /><path d="M 14.007167355692545 101.11028546245083 a86.0,86.0 0 0,1 10.666146001902534,-42.60595125391555" fill="none" id="id70" stroke="none" /><text fill="#e1ed5e" style="font-size:6.75px; font-family:Arial;" text-anchor="middle"><textPath startOffset="22.20632615414155" xlink:href="#id70">October</textPath></text><line stroke="#e1ed5e" stroke-width="0.3" x1="26.266209847984243" x2="21.928928074336255" y1="57.711370442889674" y2="55.22380399835377" /><path d="M 25.398753493254645 57.213857153982495 a86.0,86.0 0 0,1 29.58750427330803,-30.492523968695096" fill="none" id="id71" stroke="none" /><text fill="#e1ed5e" style="font-size:6.75px; font-family:Arial;" text-anchor="middle"><textPath startOffset="21.46611528233685" xlink:href="#id71">November</textPath></text><line stroke="#e1ed5e" stroke-width="0.3" x1="56.762969772571076" x2="54.21961505331055" y1="26.818313649435495" y2="22.513508569990535" /><path d="M 56.25429882871897 25.957352633546506 a86.0,86.0 0 0,1 42.265352541879196,-11.944610805530505" fill="none" id="id72" stroke="none" /><text fill="#e1ed5e" style="font-size:6.75px; font-family:Arial;" text-anchor="middle"><textPath startOffset="22.20632615414155" xlink:href="#id72">December</textPath></text></svg>