<?xml version="1.0" encoding="utf-8" ?>
<svg baseProfile="full" height="200mm" version="1.1" viewBox="0,0,200,200" width="200mm" xmlns="http://www.w3.org/2000/svg" xmlns:ev="http://www.w3.org/2001/xml-events" xmlns:xlink="http://www.w3.org/1999/xlink"><defs /><rect fill="#1a1a1a" height="200" width="200" x="0" y="0" /><text alignment-baseline="middle" fill="#e1ed5e" style="dominant-baseline: central; font-size:9.0px; font-family:Arial;" text-anchor="middle" x="100.0" y="100.0">2024</text><line stroke="#e1ed5e" stroke-width="0.3" x1="100.0" x2="100.0" y1="15.0" y2="10.0" /><path d="M 100.0 14.0 a86.0,86.0 0 0,1 42.35913384403234,11.155469271406648" fill="none" id="id49" stroke="none" /><text fill="#e1ed5e" style="font-size:6.75px; font-family:Arial;" text-anchor="middle"><textPath startOffset="22.145653131862478" xlink:href="#id49">January</textPath></text><path d="M 100.0 79.0 l 0.0 -10.578532465537599 a31.5785324655376,31.5785324655376 0 0,0 0.5420875014731508,0.004653169230679227 l -0.181594576624296 10.576973694501355" fill="#ff4f07" stroke="none" /><path d="M 100.72087961077811 79.0123766808444 l 0.9036215803910145 -26.307956375456545 a47.32347052752492,47.32347052752492 0 0,0 0.811652142999049,0.0348558353446047 l -1.3550994839908996 26.288567971686106" fill="#d6ff1c" stroke="none" /><path d="M 101.08105385017728 79.02784411241856 l 0.9509458071307996 -18.448094611122894 a39.47258760187758,39.47258760187758 0 0,0 0.6764015992610376,0.040690640558202075 l -1.2674917585242995 18.42905199274" fill="#ffc011" stroke="none" /><path d="M 102.15924093988457 79.11130261209362 l 1.7103545554969417 -16.54612881585724 a37.63429263589079,37.63429263589079 0 0,0 0.6420483771471043,0.07194285984409252 l -1.9941388342448427 16.514330195506176" fill="#ffa70f" stroke="none" /><path d="M 102.51750503828377 79.15144685158666 l 1.5882493845633203 -13.152983292369768 a34.248528431373956,34.248528431373956 0 0,0 0.5830765943723792,0.07549093874160098 l -1.8138038008264914 13.12378075742777" fill="#ff760a" stroke="none" /><path d="M 103.23170211078529 79.25015418208739 l 4.078019080220693 -26.183807868517658 a47.49947233652193,47.49947233652193 0 0,0 0.8046014715813897,0.13239686596194922 l -4.5268980548551525 26.10994500406004" fill="#d4ff1c" stroke="none" /><path d="M 103.94208987418118 79.37332000966035 l 4.989207062947216 -26.105639591570853 a47.57812268769098,47.57812268769098 0 0,0 0.8009063610446702,0.1602037028997685 l -5.436609909522843 26.016146492008225" fill="#d3ff1c" stroke="none" /><path d="M 104.29559338865022 79.4440306129975 l 3.415322446038682 -16.343554264937993 a37.69659226972344,37.69659226972344 0 0,0 0.6322931696562483,0.13780535342259034 l -3.6953780323140646 16.282517453381683" fill="#ffa80f" stroke="none" /><path d="M 104.9986988182912 79.60360301121754 l 6.912131444674726 -28.203855064912062 a50.03850894297135,50.03850894297135 0 0,0 0.832532864741331,0.21162659862280406 l -7.395269602641452 28.081043234453993" fill="#b5ff20" stroke="none" /><path d="M 106.38641147887787 79.99465700312896 l 4.00362152211051 -12.541287395022112 a34.16483478122103,34.16483478122103 0 0,0 0.5571751945042748,0.1831545533391443 l -4.218319454262527 12.470711920280946" fill="#ff750a" stroke="none" /><path d="M 107.06938296918511 80.22567764915836 l 8.848331630790863 -24.75035836891088 a47.284467124862374,47.284467124862374 0 0,0 0.7619798396813013,0.27980955165150706 l -9.271900622126289 24.59481796825065" fill="#d7ff1c" stroke="none" /><path d="M 108.07796709384702 80.6158196554323 l 6.220774291568872 -14.927593706400524 a37.171922787659256,37.171922787659256 0 0,0 0.5869002754695629,0.2505128283503405 l -6.476109642208865 14.818606228390781" fill="#ffa00e" stroke="none" /><path d="M 108.73861861582097 80.90454125486305 l 9.155334770064046 -20.006058747450172 a43.00142134859408,43.00142134859408 0 0,0 0.6685928280896558,0.31293520277692644 l -9.497416312025207 19.845947313102712" fill="#fff016" stroke="none" /><path d="M 109.3889696526874 81.21577127319529 l 15.004641240787699 -30.01933369226827 a54.56038816957426,54.56038816957426 0 0,0 0.8341835911424187,0.4259400854307278 l -15.517752053643695 29.75733565516471" fill="#7fff26" stroke="none" /><path d="M 109.71004243097381 81.37971332152246 l 6.135794135877866 -11.766194290328057 a34.26993962893659,34.26993962893659 0 0,0 0.5192894320117631,0.27649237345268485 l -6.336872383676188 11.659131449152799" fill="#ff770a" stroke="none" /><path d="M 110.34350942703115 81.72400993836675 l 6.542424994272715 -11.559838081824862 a34.282815261972615,34.282815261972615 0 0,0 0.5096834832256368,0.2942658962418276 l -6.739900945358749 11.445825288306864" fill="#ff770a" stroke="none" /><line stroke="#e1ed5e" stroke-width="0.3" x1="143.13028292997686" x2="145.6673583964461" y1="26.7553504044142" y2="22.446841604673864" /><path d="M 143.63769802327073 25.89364864446614 a86.0,86.0 0 0,1 29.32050498858742,28.57503671076993" fill="none" id="id50" stroke="none" /><text fill="#e1ed5e" style="font-size:6.75px; font-family:Arial;" text-anchor="middle"><textPath startOffset="20.669276256404974" xlink:href="#id50">February</textPath></text><path d="M 110.65571695917076 81.90426304109057 l 6.70352953421818 -11.384058680640203 a34.21113546446311,34.21113546446311 0 0,0 0.5035019682400864,0.3023384651415897 l -6.897964259015701 11.267306214962693" fill="#ff760a" stroke="none" /><path d="M 111.27062007382361 82.28071324371311 l 14.135102585546754 -22.222729042614624 a47.3372513980749,47.3372513980749 0 0,0 0.6819142227323678,0.4420085605212118 l -14.514502440536129 21.97680664038952" fill="#d6ff1c" stroke="none" /><path d="M 111.8722381534696 82.67804972795209 l 14.907425035981545 -21.750378641291768 a47.36873702403986,47.36873702403986 0 0,0 0.6667824375812098,0.465465926365441 l -15.278602564736516 21.491267899121198" fill="#d6ff1c" stroke="none" /><path d="M 113.59037401385872 83.9905735841838 l 9.055077278138231 -10.666858264978885 a34.992008067400604,34.992008067400604 0 0,0 0.45459704024240116,0.39267009609165743 l -9.236853798143493 10.509844036422507" fill="#ff810b" stroke="none" /><path d="M 114.13192950727249 84.46653392183569 l 8.85567395076018 -9.733936957626808 a34.159501883324666,34.159501883324666 0 0,0 0.43036129643201204,0.3983359910563775 l -9.021465018506156 9.580483220438056" fill="#ff750a" stroke="none" /><path d="M 114.91283532996326 85.21462403516908 l 9.409589322044948 -9.329165964943025 a34.25042296724877,34.25042296724877 0 0,0 0.4103742135584365,0.4210800951059746 l -9.568350336754197 9.166263177769308" fill="#ff760a" stroke="none" /><path d="M 115.41159269507618 85.73525988315684 l 14.989682856040476 -13.87422666857987 a41.425101169291835,41.425101169291835 0 0,0 0.4785630850727632,0.5260246624081947 l -15.225643641955116 13.614864430614004" fill="#ffdb14" stroke="none" /><path d="M 115.6541949942343 86.00192230759917 l 10.057998340128345 -8.993924136438276 a34.49273886140362,34.49273886140362 0 0,0 0.39089953441807795,0.44477191372996266 l -10.210908938505012 8.819939944897015" fill="#ff7a0b" stroke="none" /><path d="M 116.1254893667686 86.54754324733833 l 10.812407372185033 -9.02009478647078 a35.08084738710702,35.08084738710702 0 0,0 0.381801869244171,0.4657362003623211 l -10.96565606066783 8.833156304409963" fill="#ff820c" stroke="none" /><path d="M 116.35404254752997 86.82634096563983 l 30.99509009465968 -24.967450552951586 a60.800366795924795,60.800366795924795 0 0,0 0.6477658610264131,0.8184310045657217 l -31.41912238632765 24.431699604471188" fill="#3aff2e" stroke="none" /><path d="M 116.7966241395341 87.39550010848427 l 10.640740885817483 -7.98501033462154 a34.30359938674946,34.30359938674946 0 0,0 0.34940336332529637,0.4740327672096563 l -10.776246268726604 7.801171258143009" fill="#ff770b" stroke="none" /><path d="M 117.01052211995028 87.68569379921539 l 10.704086779279768 -7.748933352564646 a34.214516331702825,34.214516331702825 0 0,0 0.3403283748948951,0.47871447977970916 l -10.835530252704624 7.564041646075433" fill="#ff760a" stroke="none" /><path d="M 117.21940702142032 87.97951657250589 l 10.969673278661565 -7.657683896265784 a34.37811102120587,34.37811102120587 0 0,0 0.33364818357256876,0.48680267102915054 l -11.09951119904946 7.468246490166584" fill="#ff780b" stroke="none" /><path d="M 117.62189284568427 88.57770195909679 l 23.60204386217406 -15.298559679657062 a49.12654267314092,49.12654267314092 0 0,0 0.45262461327802517,0.7116010710230547 l -23.861186167077975 14.891144933955335" fill="#c0ff1e" stroke="none" /><line stroke="#e1ed5e" stroke-width="0.3" x1="172.87174338648825" x2="177.1583165268699" y1="56.24261187166439" y2="53.66864786411523" /><path d="M 173.72905801456457 55.72781907015455 a86.0,86.0 0 0,1 12.242430191666344,42.057860355516425" fill="none" id="id51" stroke="none" /><text fill="#e1ed5e" style="font-size:6.75px; font-family:Arial;" text-anchor="middle"><textPath startOffset="22.145653131862474" xlink:href="#id51">March</textPath></text><path d="M 118.18653347947321 89.5 l 11.522025518668771 -6.652244534813155 a34.30448906962631,34.30448906962631 0 0,0 0.2900634613692634,0.5125143428954313 l -11.63452234505941 6.453473421818606" fill="#ff770b" stroke="none" /><path d="M 118.36410011445183 89.81374322990088 l 23.02560709148509 -12.771916111299388 a47.33059860856789,47.33059860856789 0 0,0 0.3880086979026009,0.7138923018103593 l -23.241461139003032 12.374768976014424" fill="#d6ff1c" stroke="none" /><path d="M 118.70294669586156 90.45014215332178 l 7.644122376657147 -3.903143352049482 a29.58295607212099,29.58295607212099 0 0,0 0.22705635367418253,0.4542648063698173 l -7.709998643543066 3.7713466895159145" fill="#ff3104" stroke="none" /><path d="M 118.8641267826498 90.77261029715802 l 23.766170102252374 -11.625224734982918 a47.457072617129306,47.457072617129306 0 0,0 0.35168118360609546,0.7348784144609033 l -23.962230543818382 11.21553381845691" fill="#d5ff1c" stroke="none" /><path d="M 119.16976305983485 91.42560881287824 l 26.394900334157803 -11.806103189890425 a49.91495869235273,49.91495869235273 0 0,0 0.3431442293189641,0.7851811496026561 l -26.593678445493737 11.35125997051192" fill="#b6ff1f" stroke="none" /><path d="M 119.4528033332814 92.08871423366111 l 12.617108129904405 -5.131268036298687 a34.620621469743604,34.620621469743604 0 0,0 0.21916720436590265,0.5524445256164421 l -12.703334009236432 4.91392249346868" fill="#ff7c0b" stroke="none" /><path d="M 119.58574465831526 92.42381321644754 l 17.231639264322613 -6.665568245212391 a39.47590841521273,39.47590841521273 0 0,0 0.23905353709363675,0.6341179084096015 l -17.34352348523069 6.368782056608632" fill="#ffc011" stroke="none" /><path d="M 119.83427380445688 93.10060997987247 l 25.27258951135986 -8.79111852425244 a47.75794359656868,47.75794359656868 0 0,0 0.26270184386325723,0.7766313223231257 l -25.419776776795484 8.355985527455152" fill="#d1ff1d" stroke="none" /><path d="M 120.05942366710727 93.78553927170692 l 17.90390186437165 -5.546674563825884 a39.74340685910765,39.74340685910765 0 0,0 0.19630154357236781,0.6534239949354469 l -17.996479727947644 5.238512965299714" fill="#ffc412" stroke="none" /><path d="M 120.26092885502905 94.47779374421319 l 20.579629956986164 -5.609069658326073 a42.33032657036541,42.33032657036541 0 0,0 0.18506520286336045,0.7027227189855005 l -20.672884640654253 5.254966434967773" fill="#ffe715" stroke="none" /><path d="M 120.35273937422433 94.82641323984039 l 13.909221798355675 -3.535669789553275 a35.35156478913057,35.35156478913057 0 0,0 0.144457391241661,0.5894354524716015 l -13.967866716113628 3.296378512473579" fill="#ff860c" stroke="none" /><path d="M 120.51834098615036 95.52812308129327 l 28.27106853107629 -6.161547803335146 a49.934719408032905,49.934719408032905 0 0,0 0.1753476437376793,0.8391019518463924 l -28.372673885638335 5.675329400203349" fill="#b6ff1f" stroke="none" /><path d="M 120.65975698304385 96.23510406497455 l 13.206587214958898 -2.406680125132444 a34.424084888402014,34.424084888402014 0 0,0 0.1009530262150027,0.5822702279853971 l -13.245955058666134 2.1796168642264546" fill="#ff790b" stroke="none" /><path d="M 120.7213421655516 96.59031103205396 l 20.842436640110087 -3.4296150176527895 a42.122722936835416,42.122722936835416 0 0,0 0.11128122931470956,0.7145053199680155 l -20.89823936156306 3.0713215157533327" fill="#ffe415" stroke="none" /><path d="M 120.9064616781168 98.02013634271609 l 13.15800365201404 -1.2460766261705476 a34.21687433036659,34.21687433036659 0 0,0 0.05035807753134751,0.5852371944790319 l -13.177455352243129 1.0200183843158537" fill="#ff760a" stroke="none" /><path d="M 120.93736805541906 98.37931529534042 l 15.851168426930696 -1.226980686039968 a36.89858553780303,36.89858553780303 0 0,0 0.043463087848439365,0.6319437584797449 l -15.869895475944201 0.9546935034058888" fill="#ff9c0e" stroke="none" /><path d="M 120.98066250479742 99.09900007780936 l 13.189832221887121 -0.5664281479629407 a34.201989050455104,34.201989050455104 0 0,0 0.02015525332522642,0.586798209253597 l -13.197612162209195 0.33992367414522373" fill="#ff760a" stroke="none" /><line stroke="#e1ed5e" stroke-width="0.3" x1="184.99686870605535" x2="189.99668451229388" y1="99.2704041080226" y2="99.22748670261217" /><path d="M 185.99683186730306 99.26182062694052 a86.0,86.0 0 0,1 -10.086455211305974,41.156179273409016" fill="none" id="id52" stroke="none" /><text fill="#e1ed5e" style="font-size:6.75px; font-family:Arial;" text-anchor="middle"><textPath startOffset="21.40746469413373" xlink:href="#id52">April</textPath></text><path d="M 120.99922638620191 99.81974689727618 l 13.17517919499916 -0.11309306758088458 a34.175664570042514,34.175664570042514 0 0,0 0.0,0.5866923406094213 l -13.17517919499916 -0.11309306758088299" fill="#ff750a" stroke="none" /><path d="M 120.98066250479742 100.90099992219065 l 7.8737039865818135 0.33813072764695684 a28.88096103640244,28.88096103640244 0 0,0 -0.02552308246677547,0.4951409813091661 l -7.866739314658465 -0.47324350233285367" fill="#ff2603" stroke="none" /><path d="M 120.86939407059847 102.33845913500097 l 13.098255673057519 1.4676868685129685 a34.180227859213545,34.180227859213545 0 0,0 -0.07034276853545392,0.5825390321433902 l -13.071130818262402 -1.6923195775797673" fill="#ff750a" stroke="none" /><path d="M 120.77682067341334 103.0534771498775 l 16.258972651936276 2.389509071361407 a37.43362240343042,37.43362240343042 0 0,0 -0.09889340546675425,0.6349666044389302 l -16.215557754331254 -2.6682638577317874" fill="#ffa40f" stroke="none" /><path d="M 120.7213421655516 103.40968896794604 l 13.441542043452083 2.2118006281434015 a34.62230210076643,34.62230210076643 0 0,0 -0.1015343235102238,0.5856229963104952 l -13.401592902449625 -2.4422166573744843" fill="#ff7c0b" stroke="none" /><path d="M 120.592083275326 104.11899336999214 l 18.136472661704026 3.6278024738815455 a39.49574522419247,39.49574522419247 0 0,0 -0.13869079359664888,0.6636856539923998 l -18.07152415728301 -3.9386045791593545" fill="#ffc111" stroke="none" /><path d="M 120.51834098615036 104.47187691870673 l 7.920208411468427 1.7261725599793556 a29.106131814122005,29.106131814122005 0 0,0 -0.11058824670656471,0.4872722198900272 l -7.889409303204198 -1.8618791138083999" fill="#ff2904" stroke="none" /><path d="M 120.43855184770803 104.8234425847677 l 15.36996782944094 3.6272705574954287 a36.79218169776813,36.79218169776813 0 0,0 -0.15034419601654056,0.6134556248301901 l -15.305436106908104 -3.8905820069337183" fill="#ff9b0e" stroke="none" /><path d="M 120.26092885502905 105.52220625578681 l 18.35668508831077 5.003196149371836 a40.026293888734614,40.026293888734614 0 0,0 -0.1863729225288812,0.6613717530914451 l -18.26809367370731 -5.317575826366289" fill="#ffc812" stroke="none" /><path d="M 120.16314734710363 105.8691983318838 l 7.815183308763167 2.274885961479013 a29.13954521378834,29.13954521378834 0 0,0 -0.14392670776165462,0.4790852005137632 l -7.774980280997883 -2.4087087655835" fill="#ff2a04" stroke="none" /><path d="M 119.94978838288452 106.5578916946017 l 10.39192118455069 3.416030903144182 a31.938980438649182,31.938980438649182 0 0,0 -0.175686564799002,0.5193861113714876 l -10.331749198179322 -3.59391868898983" fill="#ff5407" stroke="none" /><path d="M 119.83427380445688 106.89939002012753 l 17.459175283124452 6.0732074637881865 a39.485309044348604,39.485309044348604 0 0,0 -0.22818716149449986,0.6382801027167903 l -17.352347951586008 -6.372022522885898" fill="#ffc011" stroke="none" /><path d="M 119.71291397450082 107.23885506374661 l 12.457908926947319 4.574716717994009 a34.27130467896836,34.27130467896836 0 0,0 -0.20753611337196992,0.5505141974926842 l -12.377542129760908 -4.787899195680852" fill="#ff770a" stroke="none" /><path d="M 119.4528033332814 107.91128576633889 l 12.232124579174144 4.974698577748922 a34.205017896992544,34.205017896992544 0 0,0 -0.22587390330856374,0.5420151414332567 l -12.144924831329096 -5.183946228623456" fill="#ff760a" stroke="none" /><path d="M 119.31412917781788 108.2440532568976 l 20.203458828411645 8.623655201926198 a42.966956495450916,42.966956495450916 0 0,0 -0.2953796528949605,0.6758864512732657 l -20.05244529349972 -8.969203722975308" fill="#fff016" stroke="none" /><path d="M 118.8641267826498 109.22738970284198 l 23.603338262595596 11.545575522599242 a47.27580429380901,47.27580429380901 0 0,0 -0.36285324947910924,0.7259495647138385 l -23.401665099904754 -11.949056943476826" fill="#d7ff1c" stroke="none" /><path d="M 118.5362547648365 109.86951160357373 l 4.8115460551638245 2.5618772629654027 a26.451072422144257,26.451072422144257 0 0,0 -0.21684167262540924,0.39896425424416243 l -4.766859032923076 -2.6440963506841686" fill="#ff0000" stroke="none" /><line stroke="#e1ed5e" stroke-width="0.3" x1="174.33088141563837" x2="178.70328620479359" y1="141.23008692659167" y2="143.65538615756765" /><path d="M 175.20536237346943 141.71514677278685 a86.0,86.0 0 0,1 -30.301960400862466,31.631185727798858" fill="none" id="id53" stroke="none" /><text fill="#e1ed5e" style="font-size:6.75px; font-family:Arial;" text-anchor="middle"><textPath startOffset="22.145653131862474" xlink:href="#id53">May</textPath></text><path d="M 118.18653347947321 110.5 l 9.910877787401818 5.722047958461919 a32.44409591692384,32.44409591692384 0 0,0 -0.2826132425846146,0.4799390710649721 l -9.811190834687437 -5.89133819782044" fill="#ff5c08" stroke="none" /><path d="M 117.81537515405839 111.11811171558189 l 7.155278114017507 4.465422745228148 a29.434334898647244,29.434334898647244 0 0,0 -0.2711915743641379,0.4263581986236586 l -7.077568848027479 -4.587594618530479" fill="#ff2e04" stroke="none" /><path d="M 117.62189284568427 111.42229804090321 l 7.626728233357999 4.943553097346256 a30.088767835728987,30.088767835728987 0 0,0 -0.2846620396165452,0.4310146095700829 l -7.5407417548207265 -5.073747585255401" fill="#ff3805" stroke="none" /><path d="M 117.423217284605 111.72311816256416 l 11.116000283422224 7.47934108201703 a34.39798512173344,34.39798512173344 0 0,0 -0.3338410666991994,0.48708409327528324 l -10.985969479907705 -7.669059910362358" fill="#ff780b" stroke="none" /><path d="M 116.79662413953412 112.60449989151573 l 10.545860345210384 7.913810208104787 a34.18497487409758,34.18497487409758 0 0,0 -0.3562530550185258,0.46634668489595377 l -10.408455312837553 -8.093677806241619" fill="#ff750a" stroke="none" /><path d="M 116.57777611688842 112.89097897827486 l 11.374662616796861 8.845006449853008 a35.40892392734091,35.40892392734091 0 0,0 -0.37724594940025685,0.47663793341435495 l -11.221150236755044 -9.038964327182047" fill="#ff870c" stroke="none" /><path d="M 116.1254893667686 113.45245675266167 l 15.155925890040836 12.64361241665538 a40.7373510007552,40.7373510007552 0 0,0 -0.45258311699024173,0.5331417738104439 l -14.93664820954348 -12.90192097291538" fill="#ffd213" stroke="none" /><path d="M 115.89218393027572 113.72728997021213 l 12.254943940181958 10.585528695970297 a37.19373547857977,37.19373547857977 0 0,0 -0.4215094063787147,0.47960032904447175 l -12.071423469844659 -10.794341302826062" fill="#ffa00e" stroke="none" /><path d="M 115.41159269507618 114.26474011684316 l 12.054702666775025 11.1576528221058 a37.42586597056601,37.42586597056601 0 0,0 -0.44045640199971503,0.4677494353784609 l -11.86139043103905 -11.362943717428756" fill="#ffa40f" stroke="none" /><path d="M 115.16444852881244 114.52719865689866 l 18.594787889164937 17.8133861667007 a46.75039540214944,46.75039540214944 0 0,0 -0.5601436445047342,0.5747567252236082 l -18.286257443509395 -18.129965583992046" fill="#ddff1b" stroke="none" /><path d="M 114.65682725009322 115.03919595460226 l 6.594841062589163 6.766887904004261 a30.44895235177802,30.44895235177802 0 0,0 -0.3774619082735205,0.3615999695922293 l -6.47770666845033 -6.879100003902071" fill="#ff3e05" stroke="none" /><path d="M 114.39649973595853 115.28858382429668 l 16.226158582928935 17.231618114910006 a44.66890122537278,44.66890122537278 0 0,0 -0.5627648291595564,0.5208867242790189 l -15.927963982455411 -17.507622585321403" fill="#f8ff18" stroke="none" /><path d="M 113.59037401385872 116.0094264158162 l 13.758195794589245 16.20712005153488 a42.25932011817681,42.25932011817681 0 0,0 -0.5570697347419009,0.4647273855933771 l -13.477951725685449 -16.440909621040127" fill="#ffe615" stroke="none" /><path d="M 112.7482090630111 116.68781488649013 l 13.30885650024122 17.42172037884886 a42.92354903529104,42.92354903529104 0 0,0 -0.5893750985556347,0.44227806159700145 l -13.007828412774817 -17.64761746770988" fill="#ffef16" stroke="none" /><path d="M 112.45986205192187 116.90419585922612 l 11.888767266665853 16.12939610109706 a41.0374700425735,41.0374700425735 0 0,0 -0.5706533589828988,0.41310902437145225 l -11.610132897308986 -16.331105896841592" fill="#ffd614" stroke="none" /><path d="M 111.5731344415666 117.5232005979908 l 10.352546897157128 15.675075485810646 a39.785186151425265,39.785186151425265 0 0,0 -0.5731233540064566,0.3714916337870663 l -10.08193791089366 -15.850480961301606" fill="#ffc512" stroke="none" /><path d="M 111.27062007382361 117.71928675628689 l 14.109961941490663 22.18320377440846 a47.290408054787676,47.290408054787676 0 0,0 -0.6887191974917083,0.4298117166864336 l -13.72707861520924 -22.42215128793644" fill="#d7ff1c" stroke="none" /><line stroke="#e1ed5e" stroke-width="0.3" x1="143.1302829299769" x2="145.66735839644613" y1="173.24464959558577" y2="177.55315839532614" /><path d="M 143.63769802327073 174.10635135553383 a86.0,86.0 0 0,1 -40.68552437913181,11.842963189579606" fill="none" id="id54" stroke="none" /><text fill="#e1ed5e" style="font-size:6.75px; font-family:Arial;" text-anchor="middle"><textPath startOffset="21.407464694133747" xlink:href="#id54">June</textPath></text><path d="M 110.34350942703117 118.27599006163325 l 15.184318531338594 26.829235911574887 a51.82809479776673,51.82809479776673 0 0,0 -0.7780527667520404,0.43157275409238666 l -14.721521576430458 -27.085941581100418" fill="#9fff22" stroke="none" /><path d="M 109.71004243097381 118.62028667847754 l 6.075741530822267 11.651035501901173 a34.14006329573492,34.14006329573492 0 0,0 -0.521973570154084,0.26652342412960967 l -5.8748407389546005 -11.75361687770362" fill="#ff750a" stroke="none" /><path d="M 109.3889696526874 118.78422872680471 l 6.236352634596036 12.476882836204803 a34.948645077261624,34.948645077261624 0 0,0 -0.5389409766880385,0.26362303837486406 l -6.021251408645928 -12.582099624676891" fill="#ff800b" stroke="none" /><path d="M 109.06512990194946 118.94263497670748 l 9.627543934987472 20.117863997013732 a43.30287098161256,43.30287098161256 0 0,0 -0.6732798141553594,0.3151289489154771 l -9.280775406960606 -20.280169177499744" fill="#fff417" stroke="none" /><path d="M 108.4095320186766 119.2426549942271 l 3.626716709662294 8.298637575888852 a30.05651476607299,30.05651476607299 0 0,0 -0.47455647900246745,0.20255994201360855 l -3.4837251554893953 -8.359672167561865" fill="#ff3805" stroke="none" /><path d="M 108.07796709384702 119.3841803445677 l 10.105616595364223 24.249801008326056 a47.271207351698024,47.271207351698024 0 0,0 -0.7517147052019614,0.3057158264401563 l -9.687847428971821 -24.419704091345505" fill="#d7ff1c" stroke="none" /><path d="M 107.74402155503746 119.51999308798841 l 11.029127073569535 27.800604984444874 a50.90844832996332,50.90844832996332 0 0,0 -0.815087257235649,0.3152932611673243 l -10.550267553840358 -27.98583813375024" fill="#aaff21" stroke="none" /><path d="M 107.06938296918513 119.77432235084164 l 6.217815484494552 17.392336536921622 a39.47037085747763,39.47037085747763 0 0,0 -0.6399730215339771,0.22261583768850854 l -5.918336690915552 -17.496510807178723" fill="#ffc011" stroke="none" /><path d="M 106.72888874123015 119.89276391827305 l 3.293777815776595 9.737468846380478 a31.27945873253706,31.27945873253706 0 0,0 -0.5101192092657126,0.16768631634059933 l -3.126135868863148 -9.792576084123096" fill="#ff4a06" stroke="none" /><path d="M 106.0420521117495 120.11202640906438 l 3.8188553477626233 12.711727437312593 a34.272967663927346,34.272967663927346 0 0,0 -0.564916409658924,0.16443893367174142 l -3.600078925722092 -12.775410065286852" fill="#ff770a" stroke="none" /><path d="M 105.69591212413111 120.21278271476187 l 4.368487092730689 15.502219569631603 a37.105976873956564,37.105976873956564 0 0,0 -0.6145785187261511,0.16750610818809403 l -4.101727173069842 -15.574926171963838" fill="#ff9f0e" stroke="none" /><path d="M 105.3480935250658 120.30758222061773 l 6.889611585831482 26.160977382247967 a48.052975536863094,48.052975536863094 0 0,0 -0.7994978713023541,0.2032292324729494 l -6.439508421303731 -26.275391846556186" fill="#cdff1d" stroke="none" /><path d="M 104.64783097203109 120.47920084513623 l 5.8233715382240785 25.65884948157347 a47.31137040882214,47.31137040882214 0 0,0 -0.7935639418685922,0.17295356761813344 l -5.38204517973635 -25.755034507325323" fill="#d6ff1c" stroke="none" /><path d="M 104.29559338865022 120.5559693870025 l 3.2264945068525757 15.439944219449014 a36.77346329448441,36.77346329448441 0 0,0 -0.6190261197046919,0.12382256077852906 l -2.9609719016169254 -15.493056176890406" fill="#ff9b0e" stroke="none" /><path d="M 103.94208987418118 120.62667999033965 l 1.8795482838585353 9.834590842654212 a31.0125860192946,31.0125860192946 0 0,0 -0.5237660516097085,0.0954476221684606 l -1.7104474986977696 -9.865406638754036" fill="#ff4606" stroke="none" /><path d="M 103.58742460773223 120.69131181640829 l 2.9376836339528545 16.943778541593517 a38.19655827192637,38.19655827192637 0 0,0 -0.6470178611080226,0.10646654282614952 l -2.6463882697917596 -16.991711082915334" fill="#ffaf10" stroke="none" /><path d="M 103.2317021107853 120.74984581791261 l 2.0452150798761397 13.131747951109057 a34.290060533135645,34.290060533135645 0 0,0 -0.582400177112487,0.08559276998396773 l -1.8194897971559674 -13.164921794391907" fill="#ff770a" stroke="none" /><path d="M 102.875027216393 120.80226474461374 l 2.151740245973799 15.56892053166178 a36.71691040272684,36.71691040272684 0 0,0 -0.625100465744007,0.08093177023787373 l -1.8841619583390166 -15.603563898100049" fill="#ff9a0e" stroke="none" /><path d="M 102.15924093988457 120.88869738790638 l 2.3888937479573 23.11037998177696 a44.233520530499604,44.233520530499604 0 0,0 -0.7559728491149619,0.07159141479319509 l -1.991821335457323 -23.147983152075337" fill="#feff18" stroke="none" /><path d="M 101.80034050326958 120.92268563240118 l 1.8643079237478188 21.666084021178865 a42.746145425047885,42.746145425047885 0 0,0 -0.731632858076615,0.056633010384714466 l -1.492106070895968 -21.694894798558632" fill="#ffed16" stroke="none" /><path d="M 101.44090949804482 120.95050786540614 l 1.0476114296231411 15.232040267615988 a36.26802346152743,36.26802346152743 0 0,0 -0.6214882418868051,0.03738718934046409 l -0.7859788356038708 -15.247779434781144" fill="#ff930d" stroke="none" /><path d="M 101.08105385017728 120.97215588758144 l 0.5035422583696987 9.76858528997639 a30.781554752364634,30.781554752364634 0 0,0 -0.5279391938312787,0.022671980565654237 l -0.3357773039375904 -9.775789838967876" fill="#ff4306" stroke="none" /><path d="M 100.72087961077811 120.9876233191556 l 0.7025978255352359 20.45536908898671 a41.46743189242656,41.46743189242656 0 0,0 -0.7116338263670834,0.018329163028250356 l -0.35135068509740863 -20.464415969365007" fill="#ffdb14" stroke="none" /><line stroke="#e1ed5e" stroke-width="0.3" x1="101.45913802915013" x2="101.54496967792366" y1="184.9874750549273" y2="189.98673829345242" /><path d="M 101.47630435890484 185.9873277026323 a86.0,86.0 0 0,1 -42.54439059252881,-10.42667462771756" fill="none" id="id55" stroke="none" /><text fill="#e1ed5e" style="font-size:6.75px; font-family:Arial;" text-anchor="middle"><textPath startOffset="22.145653131862474" xlink:href="#id55">July</textPath></text><path d="M 100.36049292484886 120.99690560180557 l 0.3744782509327663 21.81148073311356 a42.81469517851225,42.81469517851225 0 0,0 -0.7349711757816159,0.006308843593127114 l -2.6715296624740227e-15 -21.814695178512252" fill="#ffed16" stroke="none" /><path d="M 99.63950707515114 120.99690560180557 l -0.3630628542328695 21.146591104516045 a42.149707562463384,42.149707562463384 0 0,0 -0.7233425438725467,-0.018630738057506112 l 0.7260187121761601 -21.13724264910849" fill="#ffe515" stroke="none" /><path d="M 99.27912038922189 120.98762331915562 l -0.7424206161657633 21.614766187718747 a42.62751270306083,42.62751270306083 0 0,0 -0.7311110459668104,-0.03139705409103409 l 1.1133574227334124 -21.598836565201886" fill="#ffeb16" stroke="none" /><path d="M 98.91894614982273 120.97215588758144 l -0.9075861511670424 17.606928869051384 a38.63030506887573,38.63030506887573 0 0,0 -0.6619682598991199,-0.039822366703330704 l 1.2096987631986087 -17.58875452452336" fill="#ffb510" stroke="none" /><path d="M 98.55909050195518 120.95050786540614 l -2.0827640040575064 30.28293151512994 a51.35446996813892,51.35446996813892 0 0,0 -0.8789708934968152,-0.06803790615709909 l 2.602303892329558 -30.242715841977788" fill="#a5ff21" stroke="none" /><path d="M 98.19965949673042 120.92268563240118 l -1.4080011024712435 16.363107080899173 a37.423572706495165,37.423572706495165 0 0,0 -0.6395874563835114,-0.06056959709609008 l 1.6886881222397703 -16.3365257282979" fill="#ffa40f" stroke="none" /><path d="M 97.84075906011543 120.88869738790638 l -1.8332803779133444 17.735324638419314 a38.829824928309456,38.829824928309456 0 0,0 -0.662444391378076,-0.074228275780688 l 2.13746067089222 -17.701240602131655" fill="#ffb711" stroke="none" /><path d="M 97.12497278360702 120.80226474461374 l -2.878291781132734 20.825885508829522 a42.023845290626824,42.023845290626824 0 0,0 -0.71375478957111,-0.10489737457087966 l 3.2353716763115288 -20.77340706095976" fill="#ffe315" stroke="none" /><path d="M 96.76829788921471 120.74984581791261 l -2.318453266947349 14.886133119956208 a36.065596065741175,36.065596065741175 0 0,0 -0.6109211374469076,-0.10052684068412909 l 2.5736519074473203 -14.84414028077641" fill="#ff900d" stroke="none" /><path d="M 96.41257539226777 120.69131181640829 l -3.6408989783842 20.999737776067857 a42.31302728460719,42.31302728460719 0 0,0 -0.714617195055076,-0.1302270580902904 l 4.000850906990333 -20.9341425440462" fill="#ffe715" stroke="none" /><path d="M 96.05791012581884 120.62667999033965 l -5.8605930956084 30.665099527143077 a52.22010378653286,52.22010378653286 0 0,0 -0.8790471530703566,-0.17583404976541572 l 6.386136734209715 -30.5599760807148" fill="#9aff22" stroke="none" /><path d="M 95.70440661134978 120.55596938700252 l -2.8360379737379997 13.571468361639687 a34.86462638802326,34.86462638802326 0 0,0 -0.5847919878282857,-0.12745269192958178 l 3.068592378185422 -13.520784211576386" fill="#ff7f0b" stroke="none" /><path d="M 95.35216902796893 120.47920084513623 l -4.840521061370635 21.32822893247385 a42.870619413761176,42.870619413761176 0 0,0 -0.7162819953115873,-0.1690406005587777 l 5.205935210422109 -21.241992188268842" fill="#ffee16" stroke="none" /><path d="M 94.6519064749342 120.30758222061772 l -5.337882660922096 20.268809906302327 a41.959905684892576,41.959905684892576 0 0,0 -0.6949731243919837,-0.18941801546124395 l 5.685037186248775 -20.174191396696937" fill="#ffe215" stroke="none" /><path d="M 94.30408787586889 120.21278271476187 l -6.040144641759464 21.43434248087899 a43.26913525220477,43.26913525220477 0 0,0 -0.7131989495455591,-0.20760181993985372 l 6.40720360368663 -21.32749696663662" fill="#fff417" stroke="none" /><path d="M 93.95794788825049 120.11202640906438 l -9.919397028008925 33.0184465972016 a55.47625636712209,55.47625636712209 0 0,0 -0.9097032634872937,-0.28182839642655705 l 10.484740924367852 -32.843301612968396" fill="#75ff27" stroke="none" /><path d="M 93.61358852112213 120.00534299687104 l -7.1715580764013165 22.464803530886385 a44.581743848250966,44.581743848250966 0 0,0 -0.7270587420970734,-0.2389986497489137 l 7.5561395561461335 -22.33838395973545" fill="#f9ff18" stroke="none" /><path d="M 93.27111125876986 119.89276391827306 l -4.718801901110911 13.950299344485336 a35.726776401598414,35.726776401598414 0 0,0 -0.5792743403896374,-0.20150168553699094 l 4.95758201354557 -13.867239226379754" fill="#ff8c0c" stroke="none" /><path d="M 92.93061703081489 119.77432235084164 l -8.115372145211046 22.70014023797365 a45.107169719378874,45.107169719378874 0 0,0 -0.7268931224388879,-0.26692522307841937 l 8.503854419304052 -22.55748416588651" fill="#f2ff19" stroke="none" /><path d="M 92.25597844496254 119.51999308798841 l -8.863837166028818 22.342659945385478 a45.03668160834616,45.03668160834616 0 0,0 -0.7161809002806533,-0.29126453732354607 l 9.24607252749991 -22.18720815148264" fill="#f3ff19" stroke="none" /><path d="M 91.92203290615298 119.3841803445677 l -7.880361396203987 18.90999860605278 a41.486291587686146,41.486291587686146 0 0,0 -0.6550190072251777,-0.2795886643466384 l 8.203815478599596 -18.771935292046738" fill="#ffdc14" stroke="none" /><path d="M 91.26138138417905 119.09545874513695 l -15.27589561800683 33.38058878557248 a57.70989913638728,57.70989913638728 0 0,0 -0.8972825423508765,-0.4199735362717866 l 15.846666874229197 -33.113439017730165" fill="#5cff2a" stroke="none" /><path d="M 90.93487009805054 118.94263497670748 l -9.079595641027778 18.972862807747156 a42.03351088444737,42.03351088444737 0 0,0 -0.6481962708314061,-0.31706527759299735 l 9.403952161121254 -18.814203780056935" fill="#ffe315" stroke="none" /><path d="M 90.6110303473126 118.78422872680471 l -11.009883440317148 22.02714210916436 a45.625444622720856,45.625444622720856 0 0,0 -0.6975756316938133,-0.3561870879660208 l 11.386386293724543 -21.834897069525503" fill="#ecff1a" stroke="none" /><path d="M 89.97174638481275 118.45085714620012 l -11.404990189898491 20.983897378596716 a44.8830012860017,44.8830012860017 0 0,0 -0.673791762305198,-0.37374093245206524 l 11.763526140359792 -20.785023530711502" fill="#f5ff19" stroke="none" /><line stroke="#e1ed5e" stroke-width="0.3" x1="58.13341422392154" x2="55.67067388415222" y1="173.97424548756322" y2="178.32567169271397" /><path d="M 57.64086615596768 174.84453072859336 a86.0,86.0 0 0,1 -31.369924170532247,-30.572349798747897" fill="none" id="id56" stroke="none" /><text fill="#e1ed5e" style="font-size:6.75px; font-family:Arial;" text-anchor="middle"><textPath startOffset="22.145653131862474" xlink:href="#id56">August</textPath></text><path d="M 89.65649057296885 118.27599006163327 l -12.133034108527205 21.43790870489365 a45.633198052994246,45.633198052994246 0 0,0 -0.6784299117982355,-0.3916916922030083 l 12.49925648818584 -21.22647011541447" fill="#ecff1a" stroke="none" /><path d="M 89.34428304082925 118.09573695890944 l -9.731674392331161 16.52651066541506 a40.17892179587872,40.17892179587872 0 0,0 -0.59133279066414,-0.3550783504227291 l 10.01393993955273 -16.357018314456415" fill="#ffca12" stroke="none" /><path d="M 89.03521579738668 117.91015095944536 l -15.137018694539478 24.725182446411818 a49.99075683674348,49.99075683674348 0 0,0 -0.7280460318870036,-0.4543545699491903 l 15.559228855216194 -24.461692079621077" fill="#b5ff1f" stroke="none" /><path d="M 88.72937992617639 117.7192867562869 l -11.304856553554778 17.773112188952435 a42.063791172947475,42.063791172947475 0 0,0 -0.6059476757884469,-0.3927679625939474 l 11.608289861600234 -17.576430384654593" fill="#ffe315" stroke="none" /><path d="M 88.4268655584334 117.5232005979908 l -9.291583289117941 14.06864135815853 a37.86001748762748,37.86001748762748 0 0,0 -0.5392415125362694,-0.36282575521848204 l 9.531721089751215 -13.907065928882927" fill="#ffaa0f" stroke="none" /><path d="M 87.83215693770417 117.11559508785305 l -14.266771947060551 20.06800142034019 a45.62245850430476,45.62245850430476 0 0,0 -0.6344106779372995,-0.45926440647020755 l 14.609163635371804 -19.82013624249692" fill="#ecff1a" stroke="none" /><path d="M 87.54013794807813 116.9041958592261 l -14.614525492146944 19.827410630986805 a45.63149544161664,45.63149544161664 0 0,0 -0.626557396291531,-0.4701803510026038 l 14.952735877349241 -19.573611252720184" fill="#ecff1a" stroke="none" /><path d="M 87.2517909369889 116.68781488649013 l -11.149340762953923 14.594844957353327 a39.36619990029641,39.36619990029641 0 0,0 -0.5334870956726678,-0.4148427923629158 l 11.398237803261818 -14.401301113369618" fill="#ffbf11" stroke="none" /><path d="M 86.96720088162412 116.46651593811092 l -16.32919974939394 20.63141045048963 a47.311553766970505,47.311553766970505 0 0,0 -0.6325086796844085,-0.5095042194135796 l 16.68095919943361 -20.34805793728264" fill="#d6ff1c" stroke="none" /><path d="M 86.68645165197938 116.24036423190432 l -8.641297067158535 10.540977366684206 a34.630268480401675,34.630268480401675 0 0,0 -0.4565022442971245,-0.3808304082575981 l 8.820973645617551 -10.391084774514738" fill="#ff7c0b" stroke="none" /><path d="M 86.40962598614128 116.0094264158162 l -7.651100148464901 9.012976736473984 a32.82256668977007,32.82256668977007 0 0,0 -0.4264128438010099,-0.3683252584767749 l 7.804692472028774 -8.880307345532486" fill="#ff6109" stroke="none" /><path d="M 86.13680546590413 115.77377054828092 l -9.051984511173702 10.299496723837828 a34.71196763250536,34.71196763250536 0 0,0 -0.44420569955377837,-0.39721147564925646 l 9.227455237550851 -10.142589718305189" fill="#ff7d0b" stroke="none" /><path d="M 85.60350026404147 115.28858382429668 l -24.428304657640567 25.94201300965945 a56.633272477276684,56.633272477276684 0 0,0 -0.7020570972057975,-0.67255481794912 l 24.87003424071168 -25.518846061404748" fill="#67ff28" stroke="none" /><path d="M 85.34317274990678 115.03919595460226 l -27.42918012285257 28.14475518492843 a60.299963952037494,60.299963952037494 0 0,0 -0.735108475599695,-0.7288255349294458 l 27.908280518582227 -27.669749639770327" fill="#3fff2d" stroke="none" /><path d="M 84.58840730492382 114.26474011684316 l -19.429733689302036 17.983871433736688 a47.47516162334744,47.47516162334744 0 0,0 -0.5484563506060686,-0.6028496047272903 l 19.735587740749985 -17.647684253451725" fill="#d4ff1c" stroke="none" /><path d="M 84.1078160697243 113.72728997021213 l -16.352536973468947 14.124931964560318 a42.60831248552572,42.60831248552572 0 0,0 -0.47336909250766385,-0.5576276007043743 l 16.592600629483723 -13.84213758140639" fill="#ffeb16" stroke="none" /><path d="M 83.64595745247003 113.17365903436017 l -20.809977532373715 16.763044839062893 a47.721804526908954,47.721804526908954 0 0,0 -0.508427126811001,-0.6423810657218701 l 21.094671089826278 -16.403343829426344" fill="#d1ff1c" stroke="none" /><path d="M 83.4222238831116 112.89097897827486 l -27.521671464714814 21.40101819430391 a55.86324683624038,55.86324683624038 0 0,0 -0.5821695766038161,-0.7620786636688565 l 27.884993018672926 -20.925418617394183" fill="#70ff27" stroke="none" /><path d="M 83.20337586046588 112.60449989151573 l -33.523830612096106 25.156907471591328 a62.91321047644429,62.91321047644429 0 0,0 -0.6408099363051827,-0.8693817497096741 l 33.950742567985124 -24.577719412612772" fill="#31ff3d" stroke="none" /><path d="M 82.98947788004972 112.3143062007846 l -14.90022718439286 10.786615408745877 a39.39477757741892,39.39477757741892 0 0,0 -0.39185591584253654,-0.5511944190933084 l 15.083198198765356 -10.529243762943066" fill="#ffbf11" stroke="none" /><path d="M 82.576782715395 111.72311816256416 l -20.270996257452456 13.639230947833441 a45.43239468652201,45.43239468652201 0 0,0 -0.42982411931046455,-0.6508084998546356 l 20.502144815683646 -13.289242569639745" fill="#eeff19" stroke="none" /><path d="M 82.18462484594161 111.11811171558189 l -37.783806248423915 23.5798895772443 a65.53792998213402,65.53792998213402 0 0,0 -0.587444665043631,-0.9595467121682754 l 38.18301887792295 -22.927805748951467" fill="#34ff5f" stroke="none" /><path d="M 81.99639281039703 110.81064883170644 l -14.728601070453125 8.844101755725752 a38.179925068468265,38.179925068468265 0 0,0 -0.33257676382372786,-0.5647880531980539 l 14.878251544406623 -8.58996253423414" fill="#ffae10" stroke="none" /><line stroke="#e1ed5e" stroke-width="0.3" x1="26.387840678322732" x2="22.057713659400548" y1="142.50000000000003" y2="145.00000000000006" /><path d="M 25.521815274538298 143.00000000000003 a86.0,86.0 0 0,1 -11.493303480769221,-40.785679425670985" fill="none" id="id57" stroke="none" /><text fill="#e1ed5e" style="font-size:6.75px; font-family:Arial;" text-anchor="middle"><textPath startOffset="21.40746469413373" xlink:href="#id57">September</textPath></text><path d="M 81.81346652052679 110.50000000000001 l -27.244559556741773 15.729653794037674 a52.45930758807532,52.45930758807532 0 0,0 -0.44357251055823854,-0.7837501238593529 l 27.510565432321393 -15.259646900079199" fill="#97ff23" stroke="none" /><path d="M 81.29705330413844 109.54985784667822 l -56.108840087584646 28.649573540034662 a84.0,84.0 0 0,0 -0.644720347153052,-1.289872575344989 l 56.59238034794944 -27.68216910852592" fill="#4dd2ff" stroke="none" /><path d="M 81.1358732173502 109.22738970284198 l -19.085456613057907 9.335653213873814 a42.246389694689974,42.246389694689974 0 0,0 -0.31306735775249434,-0.6541903695999418 l 19.242903228770317 -9.006650342208767" fill="#ffe615" stroke="none" /><path d="M 80.83023694016515 108.57439118712176 l -24.465721856093015 10.943206194811658 a47.80159151546549,47.80159151546549 0 0,0 -0.32861572383325677,-0.7519370858399614 l 24.649971461943238 -10.521607039195848" fill="#d0ff1d" stroke="none" /><path d="M 80.68587082218212 108.24405325689762 l -21.362971323878117 9.118582137365907 a44.22767926377337,44.22767926377337 0 0,0 -0.292058860476903,-0.7008349448496067 l 21.516356028891504 -8.75051468307502" fill="#feff18" stroke="none" /><path d="M 80.5471966667186 107.91128576633889 l -36.97841849202372 15.038800879519414 a60.91953113533619,60.91953113533619 0 0,0 -0.385653485217811,-0.9720987102513188 l 37.23113065220765 -14.40180115205453" fill="#39ff2e" stroke="none" /><path d="M 80.28708602549918 107.23885506374661 l -37.457133926760356 13.754778413272613 a60.90276696177211,60.90276696177211 0 0,0 -0.3519594972540007,-0.9844933544381211 l 37.687733594058294 -13.109750102453571" fill="#39ff2e" stroke="none" /><path d="M 80.16572619554312 106.89939002012753 l -15.21904048416908 5.293972296016119 a37.11351407762328,37.11351407762328 0 0,0 -0.20415009203069828,-0.6035334719946657 l 15.307675997772145 -5.031937149547292" fill="#ff9f0e" stroke="none" /><path d="M 80.05021161711548 106.5578916946017 l -22.451838758043277 7.380365349951624 a44.633765174342,44.633765174342 0 0,0 -0.23302073956286903,-0.7299341478007516 l 22.5752242133834 -6.993862168459481" fill="#f9ff18" stroke="none" /><path d="M 79.83685265289637 105.86919833188381 l -53.63093598049272 15.611183838285584 a76.85683803238828,76.85683803238828 0 0,0 -0.35786559605652746,-1.2699387519576006 l 53.891020068623824 -14.688237162424986" fill="#43ffe3" stroke="none" /><path d="M 79.73907114497094 105.5222062557868 l -15.721982896404594 4.285096350967569 a37.29548394285712,37.29548394285712 0 0,0 -0.16305322592535573,-0.6191396572062422 l 15.793225603134683 -4.014576189388524" fill="#ffa20f" stroke="none" /><path d="M 79.64726062577567 105.17358676015961 l -20.36993461257055 5.177957722505758 a42.017742083688645,42.017742083688645 0 0,0 -0.1716974465905595,-0.7005841739867958 l 20.455819585677403 -4.827517723910862" fill="#ffe315" stroke="none" /><path d="M 79.56144815229197 104.8234425847677 l -20.433793022283403 4.822319514925101 a41.995110449377144,41.995110449377144 0 0,0 -0.1595596991212592,-0.7030494750685444 l 20.51356358296233 -4.470835705917531" fill="#ffe315" stroke="none" /><path d="M 79.407916724674 104.11899336999214 l -39.195942732984534 7.840286292995235 a60.97239067010543,60.97239067010543 0 0,0 -0.19648703547937418,-1.028103197146238 l 39.32475606074606 -7.1662805308156825" fill="#38ff2e" stroke="none" /><path d="M 79.34024301695615 103.76489593502545 l -15.507799185571365 2.8260376035820465 a36.763195238176415,36.763195238176415 0 0,0 -0.10781276611008174,-0.621835384795274 l 15.55402676917368 -2.55940918586618" fill="#ff9a0e" stroke="none" /><path d="M 79.2786578344484 103.40968896794605 l -25.885702452094357 4.259482487827086 a47.23380991206709,47.23380991206709 0 0,0 -0.12478387116886624,-0.801201966813415 l 25.95500781540149 -3.8144923390822205" fill="#d7ff1c" stroke="none" /><path d="M 79.22317932658666 103.0534771498775 l -39.428705561798836 5.794661915538464 a60.85223869488913,60.85223869488913 0 0,0 -0.14301865045161216,-1.0348117100068606 l 39.52236872880567 -5.116961897331518" fill="#3aff2e" stroke="none" /><path d="M 79.13060592940153 102.33845913500099 l -39.57970697823029 4.434988722279205 a60.82740676279734,60.82740676279734 0 0,0 -0.10736792572578205,-1.0386872850664648 l 39.650007296437735 -3.754896914929809" fill="#3aff2e" stroke="none" /><path d="M 79.0935383218832 101.97986365728391 l -18.292555275912807 1.732324003326955 a39.374398628930095,39.374398628930095 0 0,0 -0.05794857238453671,-0.6734502504643943 l 18.319597470995085 -1.4180527054868985" fill="#ffbf11" stroke="none" /><path d="M 79.00696218219943 100.54070618675478 l -23.59859232157359 0.607816028233844 a44.60641861621559,44.60641861621559 0 0,0 -0.013145232035475582,-0.765643864656685 l 23.605548985207733 -0.20262524760810663" fill="#f9ff18" stroke="none" /><line stroke="#e1ed5e" stroke-width="0.3" x1="15.003131293944662" x2="10.003315487706104" y1="100.72959589197737" y2="100.7725132973878" /><path d="M 14.003168132696942 100.73817937305945 a86.0,86.0 0 0,1 10.791469493833604,-42.45332614584628" fill="none" id="id58" stroke="none" /><text fill="#e1ed5e" style="font-size:6.75px; font-family:Arial;" text-anchor="middle"><textPath startOffset="22.145653131862435" xlink:href="#id58">October</textPath></text><path d="M 79.00696218219943 99.45929381324524 l -31.440550868458725 -0.8097970630595712 a52.45097788933566,52.45097788933566 0 0,0 0.03090939374770497,-0.8998932738577391 l 31.422016787714167 1.349396601481449" fill="#98ff23" stroke="none" /><path d="M 79.01933749520258 99.09900007780938 l -31.474539778764296 -1.3516521647096627 a52.50354928987177,52.50354928987177 0 0,0 0.04639916298612548,-0.9001313662947591 l 31.4466990263216 1.8917553243811336" fill="#97ff23" stroke="none" /><path d="M 79.0935383218832 98.0201363427161 l -16.606446132681384 -1.5726477144218665 a37.68074560657661,37.68074560657661 0 0,0 0.06651119472108835,-0.6434354748345893 l 16.57700254547863 1.8574877115393684" fill="#ffa70f" stroke="none" /><path d="M 79.17382384314186 97.30363454192245 l -13.075911757530177 -1.692938565885709 a34.185048702169404,34.185048702169404 0 0,0 0.08034379072758736,-0.5813276464902295 l 13.044923450247381 1.9171545205760057" fill="#ff750a" stroke="none" /><path d="M 79.22317932658666 96.9465228501225 l -39.5474510332379 -5.812113410615104 a60.97225969999946,60.97225969999946 0 0,0 0.16107857091019115,-1.034239975213552 l 39.441850970189435 6.490141567760106" fill="#38ff2e" stroke="none" /><path d="M 79.34024301695615 96.23510406497455 l -39.21389513660304 -7.146077977465124 a60.85970399092938,60.85970399092938 0 0,0 0.19612389617506962,-1.026203098858088 l 39.08544494814581 7.818183641356526" fill="#3aff2e" stroke="none" /><path d="M 79.407916724674 95.88100663000787 l -39.11323634823775 -7.8237426997184665 a60.888045921861156,60.888045921861156 0 0,0 0.21381066141471994,-1.0231614152001591 l 38.97316797599866 8.494020566204036" fill="#39ff2e" stroke="none" /><path d="M 79.64726062577567 94.8264132398404 l -39.3771127373082 -10.00950807482217 a61.629389109690166,61.629389109690166 0 0,0 0.2694393434213449,-1.02310507367779 l 39.19948391308213 10.683993652872743" fill="#31ff2f" stroke="none" /><path d="M 79.73907114497095 94.47779374421319 l -38.56843826832451 -10.51199935625872 a60.97532440047914,60.97532440047914 0 0,0 0.2839171031485896,-1.007521638305215 l 38.38230267310134 11.172528918466947" fill="#38ff2e" stroke="none" /><path d="M 79.94057633289273 93.78553927170692 l -33.04770843600691 -10.238264550561798 a55.59729893905899,55.59729893905899 0 0,0 0.29025836529526333,-0.9092301951804568 l 32.86708535493438 10.804063779433648" fill="#73ff27" stroke="none" /><path d="M 80.05021161711548 93.44210830539832 l -25.41336493582281 -8.353877827972083 a47.751194218688475,47.751194218688475 0 0,0 0.26266471759942484,-0.7765215651210099 l 25.26621479665102 8.788901067567254" fill="#d1ff1c" stroke="none" /><path d="M 80.16572619554312 93.10060997987247 l -19.860481680271686 -6.908506479778529 a42.02774819978471,42.02774819978471 0 0,0 0.24288001785532587,-0.6793786369453126 l 19.738961492372415 7.248420073104763" fill="#ffe315" stroke="none" /><path d="M 80.41425534168474 92.42381321644754 l -37.21256387353551 -14.394619123204295 a60.899623679228846,60.899623679228846 0 0,0 0.38552746028479246,-0.971781045094533 l 36.959977738284586 15.031301185512412" fill="#39ff2e" stroke="none" /><path d="M 80.5471966667186 92.08871423366112 l -19.93666282963699 -8.108067211195035 a42.52234370796743,42.52234370796743 0 0,0 0.28079762390628427,-0.6738120765893517 l 19.794539361194225 8.449111797225651" fill="#ffea16" stroke="none" /><path d="M 80.68587082218212 91.75594674310238 l -18.575622188916718 -7.928828537675756 a41.197031011642196,41.197031011642196 0 0,0 0.2832121637893801,-0.6480448550364433 l 18.43677614311036 8.246535462488065" fill="#ffd814" stroke="none" /><path d="M 80.9802524753101 91.09779779509293 l -50.32938878297822 -23.556695230251687 a76.5694634258703,76.5694634258703 0 0,0 0.5674188912355167,-1.1856872490322656 l 49.9175906337828 24.417194981349038" fill="#43ffe0" stroke="none" /><path d="M 81.29705330413844 90.45014215332179 l -18.749052235713997 -9.57339966384185 a42.051768117219495,42.051768117219495 0 0,0 0.33379478240368443,-0.6400955077508659 l 18.58194938433537 9.893841414697203" fill="#ffe315" stroke="none" /><path d="M 81.46374523516351 90.13048839642627 l -41.67529641373396 -22.189747969907668 a68.21456603782998,68.21456603782998 0 0,0 0.5592121317801523,-1.0288873371004292 l 41.28823893233846 22.901890140482717" fill="#38ff80" stroke="none" /><path d="M 81.63589988554816 89.8137432299009 l -18.374438433749873 -10.191991261540817 a42.01182223489883,42.01182223489883 0 0,0 0.3552332335034007,-0.6276630858094946 l 18.196771835225103 10.505911117449417" fill="#ffe315" stroke="none" /><line stroke="#e1ed5e" stroke-width="0.3" x1="26.387840678322718" x2="22.05771365940052" y1="57.49999999999999" y2="54.99999999999999" /><path d="M 25.521815274538284 56.99999999999999 a86.0,86.0 0 0,1 29.574782752854787,-30.34633250058573" fill="none" id="id59" stroke="none" /><text fill="#e1ed5e" style="font-size:6.75px; font-family:Arial;" text-anchor="middle"><textPath startOffset="21.40746469413373" xlink:href="#id59">November</textPath></text><path d="M 81.99639281039701 89.18935116829357 l -18.2790438627081 -10.976040639967634 a42.32127840128325,42.32127840128325 0 0,0 0.3793438276344551,-0.6196296336454589 l 18.08793207061825 11.288207389737636" fill="#ffe715" stroke="none" /><path d="M 82.18462484594161 88.88188828441811 l -33.796450259491344 -21.09148453657648 a60.8378057892113,60.8378057892113 0 0,0 0.5605256714529714,-0.8812394563634669 l 33.42940689641248 21.66853766761862" fill="#3aff2e" stroke="none" /><path d="M 82.37810715431573 88.57770195909679 l -33.43457228856243 -21.67188581240372 a60.843961384191864,60.843961384191864 0 0,0 0.575628960299515,-0.8715756126631461 l 33.05761888934219 22.242641303405925" fill="#3aff2e" stroke="none" /><path d="M 82.78059297857968 87.97951657250589 l -38.79880611209457 -27.084579933375757 a68.31724660090998,68.31724660090998 0 0,0 0.6795448249968888,-0.9558648980880461 l 38.32814618856771 27.746622058173323" fill="#38ff81" stroke="none" /><path d="M 82.98947788004972 87.6856937992154 l -17.23040934126326 -12.47348759179622 a42.271457372972506,42.271457372972506 0 0,0 0.43056092196797685,-0.5841385822688957 l 17.013746399711465 12.767432483333979" fill="#ffe615" stroke="none" /><path d="M 83.42222388311158 87.10902102172516 l -49.30539653070172 -38.34017456329845 a83.45791473139278,83.45791473139278 0 0,0 0.8891589120984142,-1.1234232389063676 l 48.63997118796175 39.1809177461195" fill="#4cd7ff" stroke="none" /><path d="M 83.64595745247003 86.82634096563983 l -18.41309986052979 -14.832289852693355 a44.64400703662881,44.64400703662881 0 0,0 0.48588237191211914,-0.5926974903642162 l 18.15577066937904 15.146189624756065" fill="#f8ff18" stroke="none" /><path d="M 83.8745106332314 86.54754324733833 l -30.599441728770575 -25.527142596998 a60.84922638245184,60.84922638245184 0 0,0 0.6760216819720157,-0.7963518415306934 l 30.156725483291446 26.04866122097825" fill="#3aff2e" stroke="none" /><path d="M 84.34580500576568 86.00192230759919 l -20.72612295677688 -18.533426951566202 a48.80395812449145,48.80395812449145 0 0,0 0.5638072594770918,-0.6197229426599732 l 20.40491799645792 18.886487469783834" fill="#c4ff1e" stroke="none" /><path d="M 84.58840730492382 85.73525988315684 l -15.590588262608835 -14.430415741902728 a42.24390126267655,42.24390126267655 0 0,0 0.4971587503472123,-0.5279653643643005 l 15.34057367852535 14.69592256621154" fill="#ffe615" stroke="none" /><path d="M 84.83555147118756 85.47280134310135 l -15.347061570665922 -14.70213782012015 a42.25288581194606,42.25288581194606 0 0,0 0.5062563695120772,-0.519463633871325 l 15.092418400003043 14.963424146059204" fill="#ffe615" stroke="none" /><path d="M 85.08716467003674 85.21462403516908 l -24.252419859864577 -24.045135465591798 a55.15184341463597,55.15184341463597 0 0,0 0.6723484539939597,-0.6666019205415575 l 23.83607948574064 24.457917396362028" fill="#78ff26" stroke="none" /><path d="M 85.34317274990677 84.96080404539775 l -36.9867532271574 -37.95166716618011 a73.9938577099191,73.9938577099191 0 0,0 0.9172684304219006,-0.8787224068928385 l 36.329812310870196 38.58100170337852" fill="#40ffc3" stroke="none" /><path d="M 85.86807049272753 84.46653392183569 l -26.8411232631144 -29.503096338886618 a60.88581943005968,60.88581943005968 0 0,0 0.7791499548272806,-0.6967206940835915 l 26.33070828146373 29.95951256285361" fill="#39ff2e" stroke="none" /><path d="M 86.13680546590413 84.22622945171909 l -5.664180176932436 -6.444797282135256 a29.580113582265234,29.580113582265234 0 0,0 0.38428866553274427,-0.33193939657243376 l 5.552712031636843 6.5410808111724" fill="#ff3104" stroke="none" /><line stroke="#e1ed5e" stroke-width="0.3" x1="56.869717070023135" x2="54.33264160355391" y1="26.7553504044142" y2="22.446841604673864" /><path d="M 56.362301976729285 25.89364864446614 a86.0,86.0 0 0,1 42.16139366436587,-11.88097634709845" fill="none" id="id60" stroke="none" /><text fill="#e1ed5e" style="font-size:6.75px; font-family:Arial;" text-anchor="middle"><textPath startOffset="22.145653131862474" xlink:href="#id60">December</textPath></text></svg>