<?xml version="1.0" encoding="utf-8" ?>
<svg baseProfile="full" height="200mm" version="1.1" viewBox="0,0,200,200" width="200mm" xmlns="http://www.w3.org/2000/svg" xmlns:ev="http://www.w3.org/2001/xml-events" xmlns:xlink="http://www.w3.org/1999/xlink"><defs /><rect fill="#1a1a1a" height="200" width="200" x="0" y="0" /><text alignment-baseline="middle" fill="#e1ed5e" style="dominant-baseline: central; font-size:9.0px; font-family:Arial;" text-anchor="middle" x="100.0" y="100.0">2024</text><line stroke="#e1ed5e" stroke-width="0.3" x1="100.0" x2="100.0" y1="15.0" y2="10.0" /><path d="M 100.0 14.0 a86.0,86.0 0 0,1 42.35913384403234,11.155469271406648" fill="none" id="id49" stroke="none" /><text fill="#e1ed5e" style="font-size:6.75px; font-family:Arial;" text-anchor="middle"><textPath startOffset="22.145653131862478" xlink:href="#id49">January</textPath></text><path d="M 100.0 79.0 l 0.0 -10.492896697446088 a31.49289669744609,31.49289669744609 0 0,0 0.5406174496392943,0.004640550603719159 l -0.1801245247904395 10.491350545036804" fill="#ff4e07" stroke="none" /><path d="M 100.72087961077811 79.0123766808444 l 0.8963065460653228 -26.094987132466585 a47.11037569373747,47.11037569373747 0 0,0 0.8079973206333687,0.03469888154648963 l -1.3441296272995278 26.075755682494265" fill="#d9ff1c" stroke="none" /><path d="M 101.08105385017728 79.02784411241856 l 0.9432476717918625 -18.298752842120905 a39.32304755621642,39.32304755621642 0 0,0 0.6738390835461073,0.04053648597607973 l -1.257231107470432 18.279864378320134" fill="#ffbf11" stroke="none" /><path d="M 102.15924093988457 79.11130261209362 l 1.6965088234404448 -16.412183918046228 a37.49963403072282,37.49963403072282 0 0,0 0.639751075062714,0.07168544235382297 l -1.9779958001039555 16.38064271518543" fill="#ffa50f" stroke="none" /><path d="M 102.51750503828377 79.15144685158666 l 1.5753921232739085 -13.046506724792339 a34.14127840288475,34.14127840288475 0 0,0 0.5812506770491538,0.07525453718797112 l -1.7991206222138538 13.017540591403971" fill="#ff750a" stroke="none" /><path d="M 103.23170211078529 79.25015418208739 l 4.045006533597214 -25.971843637591878 a47.28495272570156,47.28495272570156 0 0,0 0.8009676881716227,0.1317989282846888 l -4.490251724821907 25.89857871081152" fill="#d6ff1c" stroke="none" /><path d="M 103.94208987418118 79.37332000966035 l 4.948818230148813 -25.89430815167337 a47.362966383335376,47.362966383335376 0 0,0 0.797284527247057,0.1594792347048745 l -5.392599242926827 25.805539520305636" fill="#d5ff1c" stroke="none" /><path d="M 104.29559338865022 79.4440306129975 l 3.3876745882758503 -16.211249256905667 a37.56142933401506,37.56142933401506 0 0,0 0.6300260522354586,0.13731124573265235 l -3.665463057130443 16.150706553039296" fill="#ffa60f" stroke="none" /><path d="M 104.9986988182912 79.60360301121754 l 6.8561760758801835 -27.975538065413907 a49.803435219308376,49.803435219308376 0 0,0 0.8286217449913483,0.21063240727667326 l -7.335403114096926 27.853720426301965" fill="#b7ff1f" stroke="none" /><path d="M 106.38641147887787 79.99465700312896 l 3.971211241638186 -12.439762653057388 a34.05826227298697,34.05826227298697 0 0,0 0.5554371630346551,0.18258322787338876 l -4.184171142320584 12.369758503781977" fill="#ff740a" stroke="none" /><path d="M 107.06938296918511 80.22567764915836 l 8.776702255166246 -24.54999825692306 a47.07168803301324,47.07168803301324 0 0,0 0.7585509466821141,0.27855041464708863 l -9.196842353502484 24.395716993267254" fill="#d9ff1c" stroke="none" /><path d="M 108.07796709384702 80.6158196554323 l 6.170415625438395 -14.80675124011608 a37.041007177772016,37.041007177772016 0 0,0 0.5848332743099782,0.24963054846680027 l -6.423683974918802 14.698646041989878" fill="#ff9f0e" stroke="none" /><path d="M 108.73861861582097 80.90454125486305 l 9.081220130086946 -19.844104883537273 a42.823314543852504,42.823314543852504 0 0,0 0.6658235956189698,0.3116390621539008 l -9.420532439577421 19.68528958981284" fill="#ffee16" stroke="none" /><path d="M 109.3889696526874 81.21577127319529 l 14.883175056155903 -29.776319956033337 a54.2887087445015,54.2887087445015 0 0,0 0.8300298355323535,0.423819148219548 l -15.392132113401836 29.516442856140955" fill="#82ff25" stroke="none" /><path d="M 109.71004243097381 81.37971332152246 l 6.086123404574723 -11.670944113722866 a34.16251627164634,34.16251627164634 0 0,0 0.5176616551672147,0.27562567396785825 l -6.285573875528497 11.564747972032436" fill="#ff760a" stroke="none" /><path d="M 110.34350942703115 81.72400993836675 l 6.489462488235997 -11.466258408427294 a34.17528767333191,34.17528767333191 0 0,0 0.5080848678405684,0.2933429352189276 l -6.685339823936963 11.353168575932195" fill="#ff760a" stroke="none" /><line stroke="#e1ed5e" stroke-width="0.3" x1="143.13028292997686" x2="145.6673583964461" y1="26.7553504044142" y2="22.446841604673864" /><path d="M 143.63769802327073 25.89364864446614 a86.0,86.0 0 0,1 29.32050498858742,28.57503671076993" fill="none" id="id50" stroke="none" /><text fill="#e1ed5e" style="font-size:6.75px; font-family:Arial;" text-anchor="middle"><textPath startOffset="20.669276256404974" xlink:href="#id50">February</textPath></text><path d="M 110.65571695917076 81.90426304109057 l 6.649262848129437 -11.291901983830753 a34.10418814104694,34.10418814104694 0 0,0 0.5019279723142867,0.3013933258127231 l -6.842123577001158 11.176094657482109" fill="#ff750a" stroke="none" /><path d="M 111.27062007382361 82.28071324371311 l 14.020675525752871 -22.04283069878919 a47.1240450048213,47.1240450048213 0 0,0 0.6788428895298022,0.44001775944610383 l -14.39700404753968 21.79889909763919" fill="#d8ff1c" stroke="none" /><path d="M 111.8722381534696 82.67804972795209 l 14.78674583994166 -21.574304087728102 a47.15527574706093,47.15527574706093 0 0,0 0.663777666089815,0.4633683625021333 l -15.154918597205235 21.317290909420844" fill="#d8ff1c" stroke="none" /><path d="M 113.59037401385872 83.9905735841838 l 8.98177424670475 -10.580507478268096 a34.87873939219466,34.87873939219466 0 0,0 0.4531255155330556,0.39139902809545607 l -9.162079242000667 10.42476431770792" fill="#ff800b" stroke="none" /><path d="M 114.13192950727249 84.46653392183569 l 8.783985137287052 -9.655138393588146 a34.05297254618348,34.05297254618348 0 0,0 0.4290191778087161,0.39709374609532244 l -8.948434086409733 9.50292690136045" fill="#ff740a" stroke="none" /><path d="M 114.91283532996326 85.21462403516908 l 9.333416430233713 -9.253644119577066 a34.14315760203536,34.14315760203536 0 0,0 0.40908900490762357,0.41976135780953805 l -9.490892236292149 9.092060069699786" fill="#ff750a" stroke="none" /><path d="M 115.41159269507618 85.73525988315684 l 14.868337763135854 -13.761911462164402 a41.259755056050004,41.259755056050004 0 0,0 0.47665292568089046,0.5239250626258526 l -15.102388389658623 13.504648823980878" fill="#ffd914" stroke="none" /><path d="M 115.6541949942343 86.00192230759917 l 9.976576421149883 -8.921116154415268 a34.38351189066655,34.38351189066655 0 0,0 0.38966168629651876,0.44336346979627383 l -10.128249171404992 8.748540406807695" fill="#ff790b" stroke="none" /><path d="M 116.1254893667686 86.54754324733833 l 10.724878330396688 -8.947074946732695 a34.96685953621158,34.96685953621158 0 0,0 0.38056128420177543,0.4642228883269049 l -10.876886433837091 8.761649776707296" fill="#ff810b" stroke="none" /><path d="M 116.35404254752997 86.82634096563983 l 30.74417737534168 -24.76533302744847 a60.47817324100624,60.47817324100624 0 0,0 0.6443332174994505,0.8140939716050214 l -31.16477702348269 24.23391911192877" fill="#3dff2e" stroke="none" /><path d="M 116.7966241395341 87.39550010848427 l 10.554601525581235 -7.92036975281573 a34.195903545612936,34.195903545612936 0 0,0 0.3483064146149,0.47254454560890385 l -10.68900995977996 7.738018897937951" fill="#ff760a" stroke="none" /><path d="M 117.01052211995028 87.68569379921539 l 10.617434618779424 -7.686203870786464 a34.10754163935208,34.10754163935208 0 0,0 0.339264308320063,0.4772177368854999 l -10.747814025629447 7.50280890719146" fill="#ff750a" stroke="none" /><path d="M 117.21940702142032 87.97951657250589 l 10.880871131483639 -7.595693100813286 a34.26981199044269,34.26981199044269 0 0,0 0.33259711433625977,0.4852691296017911 l -11.009657982635224 7.407789236141446" fill="#ff770b" stroke="none" /><path d="M 117.62189284568427 88.57770195909679 l 23.410979632683684 -15.174714154473932 a48.89885153607442,48.89885153607442 0 0,0 0.45052679390678935,0.7083029505329359 l -23.668024118216366 14.770597529262325" fill="#c2ff1e" stroke="none" /><line stroke="#e1ed5e" stroke-width="0.3" x1="172.87174338648825" x2="177.1583165268699" y1="56.24261187166439" y2="53.66864786411523" /><path d="M 173.72905801456457 55.72781907015455 a86.0,86.0 0 0,1 12.242430191666344,42.057860355516425" fill="none" id="id51" stroke="none" /><text fill="#e1ed5e" style="font-size:6.75px; font-family:Arial;" text-anchor="middle"><textPath startOffset="22.145653131862474" xlink:href="#id51">March</textPath></text><path d="M 118.18653347947321 89.5 l 11.42875194707691 -6.598393013146316 a34.19678602629263,34.19678602629263 0 0,0 0.2891527724653721,0.5109052428627807 l -11.540338084563658 6.401231000184417" fill="#ff760a" stroke="none" /><path d="M 118.36410011445183 89.81374322990088 l 22.839209256485162 -12.668524374330712 a47.11744607124764,47.11744607124764 0 0,0 0.38626130740064996,0.7106773000994635 l -23.053315913501155 12.274592240756645" fill="#d8ff1c" stroke="none" /><path d="M 118.70294669586156 90.45014215332178 l 7.582241364972103 -3.8715464665634336 a29.51347497555809,29.51347497555809 0 0,0 0.22652306942779435,0.45319788064408656 l -7.647584347611634 3.7408167297555965" fill="#ff3004" stroke="none" /><path d="M 118.8641267826498 90.77261029715802 l 23.573777231319642 -11.53111574088001 a47.24289624224916,47.24289624224916 0 0,0 0.35009402711150955,0.7315618678197584 l -23.768250516391063 11.124741370995146" fill="#d7ff1c" stroke="none" /><path d="M 119.16976305983485 91.42560881287824 l 26.181227258882174 -11.710529941131433 a49.68088513772493,49.68088513772493 0 0,0 0.3415350726330544,0.7814990841952295 l -26.3783962135322 11.259368787160355" fill="#b9ff1f" stroke="none" /><path d="M 119.4528033332814 92.08871423366111 l 12.514969600829795 -5.089729185706378 a34.51035925849217,34.51035925849217 0 0,0 0.21846918510566785,0.5506850611007212 l -12.600497460901588 4.874143107392091" fill="#ff7b0b" stroke="none" /><path d="M 119.58574465831526 92.42381321644754 l 17.09214499432973 -6.611608864900921 a39.32634148676782,39.32634148676782 0 0,0 0.23814780737866942,0.6317153527334872 l -17.203123485522838 6.317225231973276" fill="#ffbf11" stroke="none" /><path d="M 119.83427380445688 93.10060997987247 l 25.068001812497343 -8.719952302504723 a47.541331598646806,47.541331598646806 0 0,0 0.26151032750028996,0.7731088159145958 l -25.213997561569997 8.288341812115965" fill="#d3ff1c" stroke="none" /><path d="M 120.05942366710727 93.78553927170692 l 17.758965466720518 -5.501772897344799 a39.59167446633384,39.59167446633384 0 0,0 0.19555210346983667,0.6509293525763041 l -17.850793890193984 5.1961059411777715" fill="#ffc212" stroke="none" /><path d="M 120.26092885502905 94.47779374421319 l 20.41303289599051 -5.563662888527484 a42.157652439483186,42.157652439483186 0 0,0 0.18431028373917527,0.699856168108547 l -20.505532660534417 5.212426216046138" fill="#ffe515" stroke="none" /><path d="M 120.35273937422433 94.82641323984039 l 13.79662329793628 -3.5070476910596757 a35.23538541566491,35.23538541566491 0 0,0 0.14398264650809545,0.5874983319516165 l -13.854793470960667 3.269693534499964" fill="#ff850c" stroke="none" /><path d="M 120.51834098615036 95.52812308129327 l 28.042207422381523 -6.111668589891303 a49.70048588565241,49.70048588565241 0 0,0 0.17452512392139313,0.8351658967699377 l -28.142990257127284 5.629386241835961" fill="#b8ff1f" stroke="none" /><path d="M 120.65975698304385 96.23510406497455 l 13.099676710717885 -2.3871974698834566 a34.31541368811133,34.31541368811133 0 0,0 0.10063433403865793,0.5804320962013907 l -13.138725862248776 2.1619723407614733" fill="#ff780b" stroke="none" /><path d="M 120.7213421655516 96.59031103205396 l 20.673712095718972 -3.401851458080451 a41.951729407366855,41.951729407366855 0 0,0 0.11082949284476064,0.7116048477770651 l -20.729063080701998 3.0464584283719445" fill="#ffe215" stroke="none" /><path d="M 120.9064616781168 98.02013634271609 l 13.05148644341616 -1.235989335770804 a34.10988054944876,34.10988054944876 0 0,0 0.05020061133315504,0.5834071985662993 l -13.070780677447056 1.0117610898288427" fill="#ff750a" stroke="none" /><path d="M 120.93736805541906 98.37931529534042 l 15.72284940084552 -1.217047981874736 a36.769882658785185,36.769882658785185 0 0,0 0.04331148787636541,0.6297395281574099 l -15.741424849886952 0.9469650295629919" fill="#ff9b0e" stroke="none" /><path d="M 120.98066250479742 99.09900007780936 l 13.083057353350373 -0.5618427756839897 a34.09511576946319,34.09511576946319 0 0,0 0.020092272834562195,0.5849646009856511 l -13.090774313181782 0.3371719101342186" fill="#ff750a" stroke="none" /><line stroke="#e1ed5e" stroke-width="0.3" x1="184.99686870605535" x2="189.99668451229388" y1="99.2704041080226" y2="99.22748670261217" /><path d="M 185.99683186730306 99.26182062694052 a86.0,86.0 0 0,1 -10.086455211305974,41.156179273409016" fill="none" id="id52" stroke="none" /><text fill="#e1ed5e" style="font-size:6.75px; font-family:Arial;" text-anchor="middle"><textPath startOffset="21.40746469413373" xlink:href="#id52">April</textPath></text><path d="M 120.99922638620191 99.81974689727618 l 13.068522946244176 -0.11217755196095666 a34.069004392059654,34.069004392059654 0 0,0 0.0,0.5848613093695655 l -13.068522946244176 -0.11217755196095508" fill="#ff740a" stroke="none" /><path d="M 120.98066250479742 100.90099992219065 l 7.809964456470925 0.3353934779696768 a28.81716275872543,28.81716275872543 0 0,0 -0.02546670177015197,0.4940472108568944 l -7.8030561652442 -0.4694124822033018" fill="#ff2503" stroke="none" /><path d="M 120.86939407059847 102.33845913500097 l 12.992222138739269 1.4558055898278206 a34.0735307403058,34.0735307403058 0 0,0 -0.07012318630301118,0.5807205762619074 l -12.965316866176593 -1.6786198430131367" fill="#ff740a" stroke="none" /><path d="M 120.77682067341334 103.0534771498775 l 16.127352352432215 2.370165419928252 a37.30058827212456,37.30058827212456 0 0,0 -0.09854195141439563,0.632710017306662 l -16.084288908879554 -2.6466636191663646" fill="#ffa20f" stroke="none" /><path d="M 120.7213421655516 103.40968896794604 l 13.332729523286801 2.193895569358224 a34.5120262844021,34.5120262844021 0 0,0 -0.10121092559227188,0.5837577230594008 l -13.293103780202294 -2.422446325338213" fill="#ff7b0b" stroke="none" /><path d="M 120.592083275326 104.11899336999214 l 17.98965354743506 3.5984345391186454 a39.346017712001284,39.346017712001284 0 0,0 -0.13816501981086077,0.6611696360951506 l -17.925230816799836 -3.906720626499205" fill="#ffbf11" stroke="none" /><path d="M 120.51834098615036 104.47187691870673 l 7.856092416837739 1.7121987773668905 a29.04051072476818,29.04051072476818 0 0,0 -0.11033892050736521,0.48617364265258317 l -7.8255426347727095 -1.8468067539584907" fill="#ff2904" stroke="none" /><path d="M 120.43855184770803 104.8234425847677 l 15.245544238087046 3.5979069287237837 a36.66434018346217,36.66434018346217 0 0,0 -0.14982179618051694,0.6113240552298325 l -15.181534915390232 -3.859086808561716" fill="#ff990e" stroke="none" /><path d="M 120.26092885502905 105.52220625578681 l 18.20808330141144 4.962694071549629 a39.87227145732415,39.87227145732415 0 0,0 -0.18565575369089765,0.6588267738895107 l -18.12020905564596 -5.274528769342148" fill="#ffc612" stroke="none" /><path d="M 120.16314734710363 105.8691983318838 l 7.751917517633616 2.25647021172672 a29.07365363491678,29.07365363491678 0 0,0 -0.14360125456921036,0.47800187268403055 l -7.712039943060775 -2.389209688001474" fill="#ff2904" stroke="none" /><path d="M 119.94978838288452 106.5578916946017 l 10.307796079723094 3.38837731025045 a31.850426757403362,31.850426757403362 0 0,0 -0.17519945807722456,0.5179460669017449 l -10.248111200073504 -3.5648250516263555" fill="#ff5307" stroke="none" /><path d="M 119.83427380445688 106.89939002012753 l 17.31783905425854 6.024043386669273 a39.33566601554675,39.33566601554675 0 0,0 -0.2273223685169045,0.6358611228453849 l -17.21187651569769 -6.32043946589558" fill="#ffbf11" stroke="none" /><path d="M 119.71291397450082 107.23885506374661 l 12.357059153762917 4.537683284365783 a34.16387027126933,34.16387027126933 0 0,0 -0.20688552479283248,0.5487884339919491 l -12.277342945155644 -4.7491399985518905" fill="#ff760a" stroke="none" /><path d="M 119.4528033332814 107.91128576633889 l 12.133102584663924 4.934427194632488 a34.09812009675843,34.09812009675843 0 0,0 -0.22516800034816503,0.5403212313032493 l -12.046608739779273 -5.141980935377015" fill="#ff750a" stroke="none" /><path d="M 119.31412917781788 108.2440532568976 l 20.03990696330061 8.553844636105355 a42.78912869199621,42.78912869199621 0 0,0 -0.29415716195904595,0.6730891527718593 l -19.890115919324597 -8.89659585865306" fill="#ffee16" stroke="none" /><path d="M 118.8641267826498 109.22738970284198 l 23.41226355462207 11.452111308053668 a47.06309532966365,47.06309532966365 0 0,0 -0.36122065665522396,0.7226832854354915 l -23.212222984755112 -11.852326449652905" fill="#d9ff1c" stroke="none" /><path d="M 118.5362547648365 109.86951160357373 l 4.772595431012131 2.5411382495072563 a26.40694467802535,26.40694467802535 0 0,0 -0.21647992041774,0.3982986709270513 l -4.728270160979052 -2.6226917539089105" fill="#ff0000" stroke="none" /><line stroke="#e1ed5e" stroke-width="0.3" x1="174.33088141563837" x2="178.70328620479359" y1="141.23008692659167" y2="143.65538615756765" /><path d="M 175.20536237346943 141.71514677278685 a86.0,86.0 0 0,1 -30.301960400862466,31.631185727798858" fill="none" id="id53" stroke="none" /><text fill="#e1ed5e" style="font-size:6.75px; font-family:Arial;" text-anchor="middle"><textPath startOffset="22.145653131862474" xlink:href="#id53">May</textPath></text><path d="M 118.18653347947321 110.5 l 9.830646844730872 5.675726602113511 a32.35145320422703,32.35145320422703 0 0,0 -0.2818062526933221,0.47856862580471576 l -9.731766881907784 -5.843646396211777" fill="#ff5b08" stroke="none" /><path d="M 117.81537515405839 111.11811171558189 l 7.097354414374055 4.429274072632331 a29.366056926278226,29.366056926278226 0 0,0 -0.27056249914008734,0.4253691878848337 l -7.0202742236080775 -4.550456935195837" fill="#ff2e04" stroke="none" /><path d="M 117.62189284568427 111.42229804090321 l 7.56498803145225 4.903533844394907 a30.015192071117625,30.015192071117625 0 0,0 -0.2839659583634024,0.4299606538338121 l -7.479697634168121 -5.032674376567781" fill="#ff3805" stroke="none" /><path d="M 117.423217284605 111.72311816256416 l 11.026013583898687 7.4187940145987925 a34.28952520533993,34.28952520533993 0 0,0 -0.33278843602752556,0.4855482736670624 l -10.89703541105584 -7.606977023335899" fill="#ff770b" stroke="none" /><path d="M 116.79662413953412 112.60449989151573 l 10.460489065801825 7.849746008471303 a34.078239326961054,34.078239326961054 0 0,0 -0.3551407281882003,0.4648906133688868 l -10.324196360259322 -8.028157535081068" fill="#ff740a" stroke="none" /><path d="M 116.57777611688842 112.89097897827486 l 11.28258198338722 8.773403992368937 a35.2922802178368,35.2922802178368 0 0,0 -0.37600322971118244,0.4750677976836587 l -11.130312323034474 -8.96579173396728" fill="#ff860c" stroke="none" /><path d="M 116.1254893667686 113.45245675266167 l 15.033235019737237 12.541259328996103 a40.57757239076862,40.57757239076862 0 0,0 -0.4508080113547587,0.5310507038352845 l -14.815732444875364 -12.797476815280945" fill="#ffd013" stroke="none" /><path d="M 115.89218393027572 113.72728997021213 l 12.155737217448463 10.49983629170843 a37.06264328970606,37.06264328970606 0 0,0 -0.4200237639714102,0.47790994070057446 l -11.973702389518467 -10.706958510220296" fill="#ff9f0e" stroke="none" /><path d="M 115.41159269507618 114.26474011684316 l 11.957116945376795 11.067328935249824 a37.29289462945228,37.29289462945228 0 0,0 -0.4388914928932139,0.466087556137607 l -11.76536961874732 -11.270957951331928" fill="#ffa20f" stroke="none" /><path d="M 115.16444852881244 114.52719865689866 l 18.44425860274691 17.669182515422445 a46.54193974952399,46.54193974952399 0 0,0 -0.5576460162392445,0.5721939385941749 l -18.13822578535686 -17.98319914608436" fill="#e0ff1b" stroke="none" /><path d="M 114.65682725009322 115.03919595460226 l 6.541454235855296 6.712108316652577 a30.372460806760724,30.372460806760724 0 0,0 -0.37651367714177414,0.36069158561787223 l -6.425268072848209 -6.823412032576029" fill="#ff3d05" stroke="none" /><path d="M 114.39649973595853 115.28858382429668 l 16.09480392121658 17.092124016126714 a44.47729576942507,44.47729576942507 0 0,0 -0.560350872050148,0.5186524016168376 l -15.799023277852466 -17.36589416387593" fill="#faff18" stroke="none" /><path d="M 113.59037401385872 116.0094264158162 l 13.646819886044149 16.075919511319498 a42.087220801626586,42.087220801626586 0 0,0 -0.5548010915088392,0.46283480272126437 l -13.368844460373415 -16.307816497952633" fill="#ffe415" stroke="none" /><path d="M 112.7482090630111 116.68781488649013 l 13.201118101504834 17.280687356453875 a42.74607262568079,42.74607262568079 0 0,0 -0.5869382036865889,0.44044937025656544 l -12.902526908907479 -17.504755753974454" fill="#ffed16" stroke="none" /><path d="M 112.45986205192187 116.90419585922612 l 11.792524832296161 15.998824754979868 a40.87526189666134,40.87526189666134 0 0,0 -0.5683977466553569,0.41147613499417446 l -11.516146075266837 -16.19890166134712" fill="#ffd413" stroke="none" /><path d="M 111.5731344415666 117.5232005979908 l 10.268740536669073 15.54818197449489 a39.633115545217834,39.633115545217834 0 0,0 -0.5709327090879264,0.37007168421749603 l -10.000322195324138 -15.72216750041628" fill="#ffc312" stroke="none" /><path d="M 111.27062007382361 117.71928675628689 l 13.995738401265408 22.003625397148607 a47.07758086967996,47.07758086967996 0 0,0 -0.6856196647500582,0.42787737901519357 l -13.615954607725635 -22.24063857300535" fill="#d9ff1c" stroke="none" /><line stroke="#e1ed5e" stroke-width="0.3" x1="143.1302829299769" x2="145.66735839644613" y1="173.24464959558577" y2="177.55315839532614" /><path d="M 143.63769802327073 174.10635135553383 a86.0,86.0 0 0,1 -40.68552437913181,11.842963189579606" fill="none" id="id54" stroke="none" /><text fill="#e1ed5e" style="font-size:6.75px; font-family:Arial;" text-anchor="middle"><textPath startOffset="21.407464694133747" xlink:href="#id54">June</textPath></text><path d="M 110.34350942703117 118.27599006163325 l 15.061397815765474 26.612046785192664 a51.578533945597,51.578533945597 0 0,0 -0.7743063139398868,0.42949465987138946 l -14.602347313669492 -26.866674360497196" fill="#a2ff22" stroke="none" /><path d="M 109.71004243097381 118.62028667847754 l 6.026556939820395 11.556717563423671 a34.03369131864195,34.03369131864195 0 0,0 -0.5203472298580335,0.26569300318631295 l -5.8272824882487795 -11.65846851828282" fill="#ff740a" stroke="none" /><path d="M 109.3889696526874 118.78422872680471 l 6.185867858026792 12.375879464655203 a34.8357274359046,34.8357274359046 0 0,0 -0.5371996804579922,0.26277128313128156 l -5.97250792830673 -12.480244497883708" fill="#ff7f0b" stroke="none" /><path d="M 109.06512990194946 118.94263497670748 l 9.549606648091268 19.955005042677932 a43.12232386948918,43.12232386948918 0 0,0 -0.6704726394036361,0.313815049389108 l -9.205645294816128 -20.115996323637575" fill="#fff216" stroke="none" /><path d="M 108.4095320186766 119.2426549942271 l 3.5973575644222486 8.23145810602954 a29.98320009782847,29.98320009782847 0 0,0 -0.47339892793268656,0.20206585229416044 l -3.455523561319131 -8.291998607983105" fill="#ff3705" stroke="none" /><path d="M 108.07796709384702 119.3841803445677 l 10.023809195141022 24.053493028728735 a47.0585356009062,47.0585356009062 0 0,0 -0.7483327631825448,0.3043404200628647 l -9.609421970768036 -24.22202070537089" fill="#d9ff1c" stroke="none" /><path d="M 107.74402155503746 119.51999308798841 l 10.9398436336027 27.575552391468715 a50.66633223744239,50.66633223744239 0 0,0 -0.8112107740926862,0.31379375421128375 l -10.464860597016486 -27.75928603381804" fill="#adff20" stroke="none" /><path d="M 107.06938296918513 119.77432235084164 l 6.167480770619952 17.251541383803975 a39.32084875689628,39.32084875689628 0 0,0 -0.6375486685720887,0.2217725218809613 l -5.870426330002842 -17.354872338253525" fill="#ffbf11" stroke="none" /><path d="M 106.72888874123015 119.89276391827305 l 3.2671138910691075 9.658641690851718 a31.196244038344496,31.196244038344496 0 0,0 -0.5087621073297817,0.16724020997878924 l -3.1008290460915915 -9.713302822232528" fill="#ff4a06" stroke="none" /><path d="M 106.0420521117495 120.11202640906438 l 3.7879407939715914 12.608822942155957 a34.165519793964556,34.165519793964556 0 0,0 -0.5631453618313743,0.16392340746066933 l -3.5709354197586105 -12.671990043919145" fill="#ff760a" stroke="none" /><path d="M 105.69591212413111 120.21278271476187 l 4.333123137588273 15.376725368588733 a36.975595112123465,36.975595112123465 0 0,0 -0.6124190329287961,0.16691753073121812 l -4.068522703724781 -15.448843393464093" fill="#ff9e0e" stroke="none" /><path d="M 105.3480935250658 120.30758222061773 l 6.833838520718062 25.949197969607138 a47.83397518432767,47.83397518432767 0 0,0 -0.7958541777805612,0.20230301982826238 l -6.387379049712103 -26.06268622127067" fill="#cfff1d" stroke="none" /><path d="M 104.64783097203109 120.47920084513623 l 5.776229943094254 25.45113491522342 a47.09837352840984,47.09837352840984 0 0,0 -0.7899912987055402,0.17217492666902298 l -5.338476227769577 -25.546541300026163" fill="#d9ff1c" stroke="none" /><path d="M 104.29559338865022 120.5559693870025 l 3.200375256735654 15.314954152364564 a36.64577331016126,36.64577331016126 0 0,0 -0.6168766502656094,0.12339260669131003 l -2.9370021209390855 -15.367636155718737" fill="#ff990e" stroke="none" /><path d="M 103.94208987418118 120.62667999033965 l 1.8643328878215453 9.754977461174303 a30.9315317239906,30.9315317239906 0 0,0 -0.522397140026812,0.09519816087721279 l -1.696601014243676 -9.785543795982878" fill="#ff4606" stroke="none" /><path d="M 103.58742460773223 120.69131181640829 l 2.913902377410609 16.806614573480843 a38.05734799101601,38.05734799101601 0 0,0 -0.6446597549782075,0.10607851735985309 l -2.6249651193793295 -16.854159089336367" fill="#ffad10" stroke="none" /><path d="M 103.2317021107853 120.74984581791261 l 2.028658571225426 13.025443288733548 a34.18247429227989,34.18247429227989 0 0,0 -0.5805728765841398,0.08532421973285027 l -1.8047605890336007 -13.058348581765282" fill="#ff760a" stroke="none" /><path d="M 102.875027216393 120.80226474461374 l 2.134321390447507 15.442886370266708 a36.589678227682924,36.589678227682924 0 0,0 -0.6229343550608035,0.08065132384288637 l -1.8689092134959282 -15.477249290309988" fill="#ff980e" stroke="none" /><path d="M 102.15924093988457 120.88869738790638 l 2.3695550777152996 22.92329588981302 a44.04543958613601,44.04543958613601 0 0,0 -0.752758452303007,0.0712870080731072 l -1.9756970620272771 -22.960594653391308" fill="#fffe18" stroke="none" /><path d="M 101.80034050326958 120.92268563240118 l 1.8492159020964845 21.490691852866927 a42.570105140389266,42.570105140389266 0 0,0 -0.7286197944349531,0.05639978020290355 l -1.4800271128862956 -21.519269400064886" fill="#ffeb16" stroke="none" /><path d="M 101.44090949804482 120.95050786540614 l 1.0391307627887298 15.108733233094174 a36.14442513438454,36.14442513438454 0 0,0 -0.6193702630254077,0.03725977699156789 l -0.7796161476308572 -15.124344987910433" fill="#ff920d" stroke="none" /><path d="M 101.08105385017728 120.97215588758144 l 0.49946596251273523 9.689506239342492 a30.702370710809078,30.702370710809078 0 0,0 -0.5265810961198585,0.02261365800639106 l -0.3330591057920472 -9.696652465774713" fill="#ff4206" stroke="none" /><path d="M 100.72087961077811 120.9876233191556 l 0.6969101269205983 20.28977794964508 a41.301743101785824,41.301743101785824 0 0,0 -0.7087903961692433,0.018255926352695285 l -0.3485064166806111 -20.298751593347824" fill="#ffda14" stroke="none" /><line stroke="#e1ed5e" stroke-width="0.3" x1="101.45913802915013" x2="101.54496967792366" y1="184.9874750549273" y2="189.98673829345242" /><path d="M 101.47630435890484 185.9873277026323 a86.0,86.0 0 0,1 -42.54439059252881,-10.42667462771756" fill="none" id="id55" stroke="none" /><text fill="#e1ed5e" style="font-size:6.75px; font-family:Arial;" text-anchor="middle"><textPath startOffset="22.145653131862474" xlink:href="#id55">July</textPath></text><path d="M 100.36049292484886 120.99690560180557 l 0.37144675930038096 21.634911543400488 a42.638099967089495,42.638099967089495 0 0,0 -0.7319396841492306,0.006282821883442712 l -2.64990298643266e-15 -21.638099967089495" fill="#ffec16" stroke="none" /><path d="M 99.63950707515114 120.99690560180557 l -0.36012377298610715 20.975404356481587 a41.97849558595126,41.97849558595126 0 0,0 -0.7204043287865181,-0.018555060059456466 l 0.7201414158433691 -20.96613157907208" fill="#ffe315" stroke="none" /><path d="M 99.27912038922189 120.98762331915562 l -0.7364105424698656 21.4397894496283 a42.45243277885876,42.45243277885876 0 0,0 -0.7281082231794987,-0.031268099960195674 l 1.1043445262502032 -21.423988781242276" fill="#ffe915" stroke="none" /><path d="M 98.91894614982273 120.97215588758144 l -0.9002390226860728 17.464396539321722 a38.487583503178456,38.487583503178456 0 0,0 -0.6595225855425169,-0.03967524100718264 l 1.199905960361036 -17.446369320489847" fill="#ffb310" stroke="none" /><path d="M 98.55909050195518 120.95050786540614 l -2.0659035278220865 30.03778389103282 a51.10874322303504,51.10874322303504 0 0,0 -0.8747650929728488,-0.06771235059720256 l 2.5812376155701715 -29.997893773440566" fill="#a7ff21" stroke="none" /><path d="M 98.19965949673042 120.92268563240118 l -1.3966029944372016 16.230643788112445 a37.29061992990641,37.29061992990641 0 0,0 -0.6373152273565172,-0.06035441464480613 l 1.6750177851787342 -16.204277617962454" fill="#ffa20f" stroke="none" /><path d="M 97.84075906011543 120.88869738790638 l -1.8184395317183593 17.591752914013203 a38.68548820129679,38.68548820129679 0 0,0 -0.6599819786462149,-0.07395235729798151 l 2.120157411965373 -17.55794479620825" fill="#ffb610" stroke="none" /><path d="M 97.12497278360702 120.80226474461374 l -2.854991315943278 20.657294949832366 a41.853652199518464,41.853652199518464 0 0,0 -0.710864141818854,-0.10447254889622035 l 3.2091805633698165 -20.605241327637263" fill="#ffe115" stroke="none" /><path d="M 96.76829788921471 120.74984581791261 l -2.299684829364337 14.76562628710459 a35.94363643712074,35.94363643712074 0 0,0 -0.6088552429888322,-0.10018689853721784 l 2.5528175754062326 -14.723973390071704" fill="#ff8f0d" stroke="none" /><path d="M 96.41257539226777 120.69131181640829 l -3.611425024263127 20.829739841096018 a42.14049319560962,42.14049319560962 0 0,0 -0.7117032975005119,-0.12969604888881417 l 3.9684630553146962 -20.764675618275838" fill="#ffe515" stroke="none" /><path d="M 96.05791012581884 120.62667999033965 l -5.813150183006939 30.416858160945594 a51.96736952718581,51.96736952718581 0 0,0 -0.8747927507415036,-0.17498305014815885 l 6.3344394192794 -30.312585714134574" fill="#9dff22" stroke="none" /><path d="M 95.70440661134978 120.55596938700252 l -2.813079563296007 13.461604056636617 a34.75238889819107,34.75238889819107 0 0,0 -0.5829094039147988,-0.1270423915278128 l 3.043751383829942 -13.411330206975084" fill="#ff7e0b" stroke="none" /><path d="M 95.35216902796893 120.47920084513623 l -4.80133587756522 21.155571782475562 a42.69357148218502,42.69357148218502 0 0,0 -0.7133238797669714,-0.1683424933447794 l 5.16379191107208 -21.070033145484555" fill="#ffec16" stroke="none" /><path d="M 94.6519064749342 120.30758222061772 l -5.294671215181435 20.10472900847632 a41.79023020029216,41.79023020029216 0 0,0 -0.692162824899153,-0.1886520558376262 l 5.639015441015283 -20.01087645849455" fill="#ffe015" stroke="none" /><path d="M 94.30408787586889 120.21278271476187 l -5.991248216147877 21.260826316149483 a43.088861238936005,43.088861238936005 0 0,0 -0.71022751884457,-0.20673687976889085 l 6.3553357473740535 -21.154845742078077" fill="#fff216" stroke="none" /><path d="M 93.95794788825049 120.11202640906438 l -9.839097120033454 32.751154319680936 a55.197162768408226,55.197162768408226 0 0,0 -0.9051266684862135,-0.2804105555964562 l 10.399864421391301 -32.57742717627783" fill="#77ff26" stroke="none" /><path d="M 93.61358852112213 120.00534299687104 l -7.113502586541428 22.28294553577604 a44.39084395226245,44.39084395226245 0 0,0 -0.7239454623941459,-0.23797525287296906 l 7.494970786583318 -22.157549361501047" fill="#fbff18" stroke="none" /><path d="M 93.27111125876986 119.89276391827306 l -4.680602063223211 13.83736831143672 a35.60755959976212,35.60755959976212 0 0,0 -0.5773413578705655,-0.2008292938763409 l 4.917449193138798 -13.754980584991788" fill="#ff8a0c" stroke="none" /><path d="M 92.93061703081489 119.77432235084164 l -8.049676253151569 22.51637713553984 a44.91201637441756,44.91201637441756 0 0,0 -0.7237482648662262,-0.2657703878169217 l 8.435013669671914 -22.374875898714198" fill="#f5ff19" stroke="none" /><path d="M 92.25597844496254 119.51999308798841 l -8.792082269362023 22.161790732017394 a44.842098881620345,44.842098881620345 0 0,0 -0.7130866129702017,-0.29000611761216916 l 9.171223343522666 -22.007597357825933" fill="#f6ff19" stroke="none" /><path d="M 91.92203290615298 119.3841803445677 l -7.816567972758808 18.756917612964727 a41.320450123270035,41.320450123270035 0 0,0 -0.6524005685259989,-0.27847100856794854 l 8.137403616455238 -18.619971954737377" fill="#ffda14" stroke="none" /><path d="M 91.26138138417905 119.09545874513695 l -15.15223356386128 33.110364879816935 a57.41272366149529,57.41272366149529 0 0,0 -0.892662011564551,-0.4178108945595098 l 15.71838428929732 -32.845377753686904" fill="#5fff29" stroke="none" /><path d="M 90.93487009805054 118.94263497670748 l -9.00609412754159 18.819272913805868 a41.86323954802912,41.86323954802912 0 0,0 -0.6455705266817157,-0.31578089455166647 l 9.327824903485375 -18.661898269156982" fill="#ffe115" stroke="none" /><path d="M 90.6110303473126 118.78422872680471 l -10.92075578219622 21.848827088671268 a45.426095717593256,45.426095717593256 0 0,0 -0.6945277504167813,-0.35463081806895425 l 11.294210754326583 -21.658138318929478" fill="#eeff19" stroke="none" /><path d="M 89.97174638481275 118.45085714620012 l -11.312664047480355 20.81402767545749 a44.689662638498355,44.689662638498355 0 0,0 -0.670889327434747,-0.3721310007557315 l 11.668297563071205 -20.616763759268608" fill="#f7ff18" stroke="none" /><line stroke="#e1ed5e" stroke-width="0.3" x1="58.13341422392154" x2="55.67067388415222" y1="173.97424548756322" y2="178.32567169271397" /><path d="M 57.64086615596768 174.84453072859336 a86.0,86.0 0 0,1 -31.369924170532247,-30.572349798747897" fill="none" id="id56" stroke="none" /><text fill="#e1ed5e" style="font-size:6.75px; font-family:Arial;" text-anchor="middle"><textPath startOffset="22.145653131862474" xlink:href="#id56">August</textPath></text><path d="M 89.65649057296885 118.27599006163327 l -12.034814275242281 21.264363670721842 a45.43378638198121,45.43378638198121 0 0,0 -0.6754652534321968,-0.38998004589732055 l 12.398071996534878 -21.05463672754835" fill="#eeff19" stroke="none" /><path d="M 89.34428304082925 118.09573695890944 l -9.652894144303497 16.392724581256797 a40.023663804800314,40.023663804800314 0 0,0 -0.5890477830772336,-0.35370626902039237 l 9.932874683938158 -16.224604311700485" fill="#ffc812" stroke="none" /><path d="M 89.03521579738668 117.91015095944536 l -15.014480882537159 24.525026139580117 a49.75606967788126,49.75606967788126 0 0,0 -0.7246281389492657,-0.4522215519697732 l 15.433273150276138 -24.263668790768794" fill="#b8ff1f" stroke="none" /><path d="M 88.72937992617639 117.7192867562869 l -11.213341017039497 17.629234565223822 a41.893274710300986,41.893274710300986 0 0,0 -0.603491310079529,-0.3911757760183955 l 11.514317959376035 -17.434144947501533" fill="#ffe215" stroke="none" /><path d="M 88.4268655584334 117.5232005979908 l -9.216365684564375 13.954752318007186 a37.72353158542007,37.72353158542007 0 0,0 -0.5372975392042377,-0.3615177632039178 l 9.454559511865618 -13.794484880746147" fill="#ffa80f" stroke="none" /><path d="M 87.83215693770417 117.11559508785305 l -14.151278992073351 19.90554611557169 a45.42313377252493,45.42313377252493 0 0,0 -0.6316389347572124,-0.45725787815856345 l 14.490898937204516 -19.65968746604006" fill="#eeff19" stroke="none" /><path d="M 87.54013794807813 116.9041958592261 l -14.496217388457687 19.666902966603125 a45.432097553652774,45.432097553652774 0 0,0 -0.6238195017671553,-0.4681257839093122 l 14.83168987913561 -19.415158155429797" fill="#eeff19" stroke="none" /><path d="M 87.2517909369889 116.68781488649013 l -11.0590841642187 14.47669617233318 a39.21752108870246,39.21752108870246 0 0,0 -0.531472214185854,-0.4132760083318677 l 11.305966323039783 -14.284719112380518" fill="#ffbd11" stroke="none" /><path d="M 86.96720088162412 116.46651593811092 l -16.197010944622143 20.46439421392802 a47.098555402229834,47.098555402229834 0 0,0 -0.6296611022169546,-0.5072104125752313 l 16.54592281719436 -20.183335507559377" fill="#d9ff1c" stroke="none" /><path d="M 86.68645165197938 116.24036423190432 l -8.571343686189687 10.455645616162856 a34.519928174275535,34.519928174275535 0 0,0 -0.45504771912035546,-0.3796169916231568 l 8.749565739471937 -10.30696644062783" fill="#ff7b0b" stroke="none" /><path d="M 86.40962598614128 116.0094264158162 l -7.589162650036512 8.940014519064965 a32.7268601650144,32.7268601650144 0 0,0 -0.4251694769498704,-0.36725126780439 l 7.741511606749245 -8.808419118795852" fill="#ff6008" stroke="none" /><path d="M 86.13680546590413 115.77377054828092 l -8.978706516433682 10.216119817279647 a34.60096595206615,34.60096595206615 0 0,0 -0.4427852217625692,-0.39594127564925646 l 9.152756765019623 -10.060483011747008" fill="#ff7c0b" stroke="none" /><path d="M 85.60350026404147 115.28858382429668 l -24.230551648010398 25.732006166351127 a56.34481255448997,56.34481255448997 0 0,0 -0.6984811898426284,-0.6691291795855011 l 24.668705323718342 -25.312264856460043" fill="#6aff28" stroke="none" /><path d="M 85.34317274990678 115.03919595460226 l -27.207134303586702 27.916916613192633 a59.98182127865956,59.98182127865956 0 0,0 -0.7312300425074948,-0.7249802506388451 l 27.682356266224158 -27.44575635232513" fill="#43ff2d" stroke="none" /><path d="M 84.58840730492382 114.26474011684316 l -19.27244531553966 17.83828766316131 a47.26083881360532,47.26083881360532 0 0,0 -0.5459803883962845,-0.6001280885339987 l 19.575823404777825 -17.504821999069637" fill="#d7ff1c" stroke="none" /><path d="M 84.1078160697243 113.72728997021213 l -16.22015924824762 14.01058723839286 a42.43338799170886,42.43338799170886 0 0,0 -0.4714257193941762,-0.555338312063228 l 16.458279531148907 -13.730082143880079" fill="#ffe915" stroke="none" /><path d="M 83.64595745247003 113.17365903436017 l -20.64151575227732 16.627343953800953 a47.505485083459874,47.505485083459874 0 0,0 -0.5061224638965014,-0.6394691994167973 l 20.923904646815384 -16.270554810469477" fill="#d4ff1c" stroke="none" /><path d="M 83.4222238831116 112.89097897827486 l -27.298876905760523 21.22777179770021 a55.58102045647441,55.58102045647441 0 0,0 -0.5792284011204715,-0.758228570548157 l 27.65925728423529 -20.75602231391118" fill="#73ff27" stroke="none" /><path d="M 83.20337586046588 112.60449989151573 l -33.25244712925583 24.953256246702136 a62.573912943064826,62.573912943064826 0 0,0 -0.6373539812027991,-0.8646930828778954 l 33.67590313004246 -24.37875685455536" fill="#30ff39" stroke="none" /><path d="M 82.98947788004972 112.3143062007846 l -14.779606256695148 10.699295159113431 a39.24586742264589,39.24586742264589 0 0,0 -0.39037472141360063,-0.5491109336339498 l 14.961096076638709 -10.444006998769979" fill="#ffbe11" stroke="none" /><path d="M 82.576782715395 111.72311816256416 l -20.106897660587315 13.528818088374882 a45.23460856712299,45.23460856712299 0 0,0 -0.42795291606068875,-0.6479752596403281 l 20.33617501556873 -13.181662950395493" fill="#f0ff19" stroke="none" /><path d="M 82.18462484594161 111.11811171558189 l -37.4779372368152 23.389004692026173 a65.17738471220633,65.17738471220633 0 0,0 -0.5842129426596089,-0.9542679365273413 l 37.87391814393022 -22.742199639374277" fill="#34ff5a" stroke="none" /><path d="M 81.99639281039703 110.81064883170644 l -14.609369497482986 8.772506621958529 a38.04084943734591,38.04084943734591 0 0,0 -0.33136530719455776,-0.5627307349920065 l 14.757808514807312 -8.520424718672963" fill="#ffad10" stroke="none" /><line stroke="#e1ed5e" stroke-width="0.3" x1="26.387840678322732" x2="22.057713659400548" y1="142.50000000000003" y2="145.00000000000006" /><path d="M 25.521815274538298 143.00000000000003 a86.0,86.0 0 0,1 -11.493303480769221,-40.785679425670985" fill="none" id="id57" stroke="none" /><text fill="#e1ed5e" style="font-size:6.75px; font-family:Arial;" text-anchor="middle"><textPath startOffset="21.40746469413373" xlink:href="#id57">September</textPath></text><path d="M 81.81346652052679 110.50000000000001 l -27.024008285423445 15.602318458171922 a52.204636916343816,52.204636916343816 0 0,0 -0.4414191289293286,-0.7799453048541116 l 27.287860779374153 -15.136116383218688" fill="#9aff22" stroke="none" /><path d="M 81.29705330413844 109.54985784667822 l -55.6546255135615 28.417648342131468 a83.48999982678683,83.48999982678683 0 0,0 -0.6408059722873126,-1.2820412034777404 l 56.134251399060545 -27.458075282489975" fill="#4cd7ff" stroke="none" /><path d="M 81.1358732173502 109.22738970284198 l -18.930955245145018 9.260078852665341 a42.07439505303209,42.07439505303209 0 0,0 -0.3117927894781268,-0.6515270121152307 l 19.087127292583055 -8.933739338485005" fill="#ffe415" stroke="none" /><path d="M 80.83023694016515 108.57439118712176 l -24.267665945229645 10.854618305051956 a47.58462617712778,47.58462617712778 0 0,0 -0.32712417889836676,-0.748524139135349 l 24.450424006144978 -10.436432096140758" fill="#d3ff1c" stroke="none" /><path d="M 80.68587082218212 108.24405325689762 l -21.190032925853906 9.04476501880218 a44.03964560587077,44.03964560587077 0 0,0 -0.2908171743479336,-0.6978553501600436 l 21.342175944738322 -8.679677159200853" fill="#fffe18" stroke="none" /><path d="M 80.5471966667186 107.91128576633889 l -36.67906928827641 14.917058164384919 a60.59637291639001,60.59637291639001 0 0,0 -0.3836077194167495,-0.966942044039512 l 36.92973568265928 -14.285215103131842" fill="#3cff2e" stroke="none" /><path d="M 80.28708602549918 107.23885506374661 l -37.153909406272795 13.643430169252333 a60.57974445284849,60.57974445284849 0 0,0 -0.3500927374085269,-0.9792716949104211 l 37.38264231372526 -13.00362351796099" fill="#3cff2e" stroke="none" /><path d="M 80.16572619554312 106.89939002012753 l -15.095838686025203 5.251116315254947 a36.98307130031121,36.98307130031121 0 0,0 -0.20343256620069194,-0.6014122343742365 l 15.183756673798264 -4.991202406406549" fill="#ff9e0e" stroke="none" /><path d="M 80.05021161711548 106.5578916946017 l -22.27008571589159 7.32061951492223 a44.44244415318972,44.44244415318972 0 0,0 -0.2320219045851635,-0.7268053114593478 l 22.392472336254006 -6.93724516977149" fill="#fbff18" stroke="none" /><path d="M 79.83685265289637 105.86919833188381 l -53.19678063700645 15.4848075452445 a76.4046634756953,76.4046634756953 0 0,0 -0.3557601527232441,-1.2624672763297367 l 53.454759281804265 -14.569332345011768" fill="#43ffde" stroke="none" /><path d="M 79.73907114497094 105.5222062557868 l -15.594709658302683 4.250407463963943 a37.16356807565951,37.16356807565951 0 0,0 -0.16247649905595068,-0.6169497313449254 l 15.665375638163367 -3.9820772282462147" fill="#ffa10e" stroke="none" /><path d="M 79.64726062577567 105.17358676015961 l -20.205035085891954 5.136040907658642 a41.84759839951038,41.84759839951038 0 0,0 -0.17100218704832293,-0.6977472777965702 l 20.29022479945657 -4.788437805253972" fill="#ffe115" stroke="none" /><path d="M 79.56144815229197 104.8234425847677 l -20.268376546398223 4.783281677021911 a41.82514997372934,41.82514997372934 0 0,0 -0.15891393722025027,-0.700204128981632 l 20.347501345176138 -4.434643214101253" fill="#ffe115" stroke="none" /><path d="M 79.407916724674 104.11899336999214 l -38.87864213642777 7.776817287162403 a60.648804540494346,60.648804540494346 0 0,0 -0.1954442605671433,-1.0226469581707103 l 39.00641268927707 -7.108267763958378" fill="#3cff2e" stroke="none" /><path d="M 79.34024301695615 103.76489593502545 l -15.382259816193644 2.8031601485450026 a36.63558837624208,36.63558837624208 0 0,0 -0.10743854268715465,-0.6196769635378352 l 15.428113176373033 -2.538690152086575" fill="#ff990e" stroke="none" /><path d="M 79.2786578344484 103.40968896794605 l -25.67615145631162 4.225000951214542 a47.02144090255605,47.02144090255605 0 0,0 -0.1242228275610688,-0.7975996643858273 l 25.744895776010956 -3.783613104897265" fill="#daff1c" stroke="none" /><path d="M 79.22317932658666 103.0534771498775 l -39.10952069408315 5.7477527317188395 a60.52962522445539,60.52962522445539 0 0,0 -0.14226042455641894,-1.0293255651390492 l 39.202425635194786 -5.075538858379705" fill="#3dff2e" stroke="none" /><path d="M 79.13060592940153 102.33845913500099 l -39.259299717680705 4.3990864204290325 a60.50499431283451,60.50499431283451 0 0,0 -0.10679882771843698,-1.0331817780894956 l 39.32903093788081 -3.724500120056606" fill="#3dff2e" stroke="none" /><path d="M 79.0935383218832 101.97986365728391 l -18.144472635290153 1.7183004232990489 a39.22565344665323,39.22565344665323 0 0,0 -0.05772965930237757,-0.6709061486178173 l 18.171295917290273 -1.4065732273055696" fill="#ffbd11" stroke="none" /><path d="M 79.00696218219943 100.54070618675478 l -23.407556033135666 0.6028956110960504 a44.41531897203762,44.41531897203762 0 0,0 -0.013088916167881964,-0.7623637476994866 l 23.414456380902212 -0.20098494742751147" fill="#fbff18" stroke="none" /><line stroke="#e1ed5e" stroke-width="0.3" x1="15.003131293944662" x2="10.003315487706104" y1="100.72959589197737" y2="100.7725132973878" /><path d="M 14.003168132696942 100.73817937305945 a86.0,86.0 0 0,1 10.791469493833604,-42.45332614584628" fill="none" id="id58" stroke="none" /><text fill="#e1ed5e" style="font-size:6.75px; font-family:Arial;" text-anchor="middle"><textPath startOffset="22.145653131862435" xlink:href="#id58">October</textPath></text><path d="M 79.00696218219943 99.45929381324524 l -31.18603203688998 -0.8032415607988113 a52.196374648521626,52.196374648521626 0 0,0 0.030759355900243545,-0.8955250856345504 l 31.167647993992887 1.3384729109975" fill="#9aff22" stroke="none" /><path d="M 79.01933749520258 99.09900007780938 l -31.21974579878057 -1.3407102148981405 a52.24852047090884,52.24852047090884 0 0,0 0.04617378538980548,-0.8957591011362601 l 31.19213042393419 1.8764411094111126" fill="#9aff23" stroke="none" /><path d="M 79.0935383218832 98.0201363427161 l -16.472012951663572 -1.5599167524098283 a37.54571095342298,37.54571095342298 0 0,0 0.06627284179135152,-0.6411296264557329 l 16.442807717390558 1.842450901148474" fill="#ffa60f" stroke="none" /><path d="M 79.17382384314186 97.30363454192245 l -12.97005910258954 -1.6792338204596626 a34.07831255737686,34.07831255737686 0 0,0 0.08009293291676502,-0.5795125643357978 l 12.939321653117567 1.9016346929955275" fill="#ff740a" stroke="none" /><path d="M 79.22317932658666 96.9465228501225 l -39.227304892331695 -5.765062952739734 a60.64867463062293,60.64867463062293 0 0,0 0.1602237129666033,-1.0287511739820066 l 39.12255968722682 6.43760230865319" fill="#3cff2e" stroke="none" /><path d="M 79.34024301695615 96.23510406497455 l -38.89644921101526 -7.08822875514287 a60.53703008712622,60.53703008712622 0 0,0 0.19508406096296724,-1.0207622416358313 l 38.769038857770134 7.7548935618120165" fill="#3dff2e" stroke="none" /><path d="M 79.407916724674 95.88100663000787 l -38.796605279784906 -7.760407618257646 a60.56514258330109,60.56514258330109 0 0,0 0.21267677420672593,-1.0177353544381178 l 38.65767079475381 8.425259423981172" fill="#3cff2e" stroke="none" /><path d="M 79.64726062577567 94.8264132398404 l -39.05834552593263 -9.928478696219983 a61.30048441947609,61.30048441947609 0 0,0 0.2680013953082823,-1.0176449504772254 l 38.88215464981962 10.597504151069993" fill="#35ff2f" stroke="none" /><path d="M 79.73907114497095 94.47779374421319 l -38.25621747154028 -10.426902189710963 a60.65171452161411,60.65171452161411 0 0,0 0.2824102906754951,-1.002174492414126 l 38.07158868879021 11.082084606028102" fill="#3cff2e" stroke="none" /><path d="M 79.94057633289273 93.78553927170692 l -32.780179276853545 -10.155383333193724 a55.31722547157283,55.31722547157283 0 0,0 0.28879617795187795,-0.90464991415302 l 32.601018383124405 10.716602281038135" fill="#76ff27" stroke="none" /><path d="M 80.05021161711548 93.44210830539832 l -25.207637625994252 -8.28625117496784 a47.53463685860609,47.53463685860609 0 0,0 0.26147350178250495,-0.7729999472234657 l 25.061678702639384 8.717752796665465" fill="#d3ff1c" stroke="none" /><path d="M 80.16572619554312 93.10060997987247 l -19.699706297779063 -6.852580455947874 a41.85752351368673,41.85752351368673 0 0,0 0.24189628266679378,-0.6766269545409653 l 19.579169845068325 7.189742366869761" fill="#ffe115" stroke="none" /><path d="M 80.41425534168474 92.42381321644754 l -36.9113192065322 -14.278091214534905 a60.57662661593446,60.57662661593446 0 0,0 0.38348271468591605,-0.9666269504586782 l 36.66077781688015 14.909619182207166" fill="#3cff2e" stroke="none" /><path d="M 80.5471966667186 92.08871423366112 l -19.775270742392433 -8.042430454335776 a42.348115152110026,42.348115152110026 0 0,0 0.2796471001995626,-0.6710512385266688 l 19.63429779765639 8.380714202303707" fill="#ffe815" stroke="none" /><path d="M 80.68587082218212 91.75594674310238 l -18.425248053458155 -7.864642761047311 a41.03353118125602,41.03353118125602 0 0,0 0.28208817160824984,-0.6454729409620735 l 18.287525999832926 8.179777771785252" fill="#ffd614" stroke="none" /><path d="M 80.9802524753101 91.09779779509293 l -49.92196025921581 -23.365998108858697 a76.11961523582971,76.11961523582971 0 0,0 0.5640852860383972,-1.1787212963003681 l 49.51349571521751 24.219531907224155" fill="#42ffdb" stroke="none" /><path d="M 81.29705330413844 90.45014215332179 l -18.5972741422569 -9.495900687860924 a41.881348984104804,41.881348984104804 0 0,0 0.3324420445759461,-0.6375014546010094 l 18.431524028706015 9.81374838556642" fill="#ffe115" stroke="none" /><path d="M 81.46374523516351 90.13048839642627 l -41.33792485199246 -22.010116615809103 a67.83235275437795,67.83235275437795 0 0,0 0.5560788082475308,-1.02312237471399 l 40.954000694129576 22.716493823997713" fill="#37ff7b" stroke="none" /><path d="M 81.63589988554816 89.8137432299009 l -18.225692929243415 -10.109484637592043 a41.84172647332228,41.84172647332228 0 0,0 0.35379497959829237,-0.6251218289699956 l 18.049464584623752 10.420863236661143" fill="#ffe115" stroke="none" /><line stroke="#e1ed5e" stroke-width="0.3" x1="26.387840678322718" x2="22.05771365940052" y1="57.49999999999999" y2="54.99999999999999" /><path d="M 25.521815274538284 56.99999999999999 a86.0,86.0 0 0,1 29.574782752854787,-30.34633250058573" fill="none" id="id59" stroke="none" /><text fill="#e1ed5e" style="font-size:6.75px; font-family:Arial;" text-anchor="middle"><textPath startOffset="21.40746469413373" xlink:href="#id59">November</textPath></text><path d="M 81.99639281039701 89.18935116829357 l -18.131070600229496 -10.887186947466393 a42.14867751750896,42.14867751750896 0 0,0 0.37779673164923444,-0.6171025686223781 l 17.941505904124867 11.196826632213314" fill="#ffe515" stroke="none" /><path d="M 82.18462484594161 88.88188828441811 l -33.52285985494642 -20.920743889481614 a60.515309156625115,60.515309156625115 0 0,0 0.5575543670284165,-0.8765680722875195 l 33.15878779629211 21.493125636447804" fill="#3dff2e" stroke="none" /><path d="M 82.37810715431573 88.57770195909679 l -33.16391137334855 -21.496446677194484 a60.52141492058176,60.52141492058176 0 0,0 0.5725774317456164,-0.8669552095000749 l 32.790009502682196 22.062581765033617" fill="#3dff2e" stroke="none" /><path d="M 82.78059297857968 87.97951657250589 l -38.48472043213214 -26.865323735638807 a67.93420209356975,67.93420209356975 0 0,0 0.6757347195600127,-0.9505055076385036 l 38.01787061404216 27.52200646998683" fill="#38ff7c" stroke="none" /><path d="M 82.98947788004972 87.6856937992154 l -17.090925027793766 -12.372511705567833 a42.099259802421514,42.099259802421514 0 0,0 0.42880698327400396,-0.5817590275768421 l 16.876016024935943 12.664077042413538" fill="#ffe415" stroke="none" /><path d="M 83.42222388311158 87.10902102172516 l -48.90625747084456 -38.029801616182496 a82.95230286898733,82.95230286898733 0 0,0 0.8837721336847982,-1.116617220352931 l 48.246218906518195 38.86373878045011" fill="#4cdcff" stroke="none" /><path d="M 83.64595745247003 86.82634096563983 l -18.264041382462146 -14.712218894058092 a44.452603105134614,44.452603105134614 0 0,0 0.483799230133394,-0.5901563961082867 l 18.008795333090124 15.023577571864871" fill="#fbff18" stroke="none" /><path d="M 83.8745106332314 86.54754324733833 l -30.351731878264236 -25.320494229599486 a60.52663729741277,60.52663729741277 0 0,0 0.6724377873390214,-0.792130022664601 l 29.9125995274181 25.837791034713646" fill="#3dff2e" stroke="none" /><path d="M 84.34580500576568 86.00192230759919 l -20.558339999665876 -18.383394396716486 a48.57887838703904,48.57887838703904 0 0,0 0.5612070279628125,-0.6168648327322633 l 20.239735270861196 18.73359680500641" fill="#c6ff1e" stroke="none" /><path d="M 84.58840730492382 85.73525988315684 l -15.464378695713194 -14.31359805098355 a42.071926765475155,42.071926765475155 0 0,0 0.49513482207438075,-0.5258160226756217 l 15.216388039902542 14.576955533603684" fill="#ffe415" stroke="none" /><path d="M 84.83555147118756 85.47280134310135 l -15.222823410993657 -14.583120473534988 a42.08083858265444,42.08083858265444 0 0,0 0.5041949717161149,-0.5173484581334338 l 14.970241638126739 14.842291623736152" fill="#ffe415" stroke="none" /><path d="M 85.08716467003674 85.21462403516908 l -24.05609068003332 -23.85048430285552 a54.875376016905605,54.875376016905605 0 0,0 0.6689780783920735,-0.6632603513956514 l 23.64312068151127 24.259924664479843" fill="#7bff26" stroke="none" /><path d="M 85.34317274990677 84.96080404539775 l -36.68733655172179 -37.644439280013756 a73.56485966847,73.56485966847 0 0,0 0.9119503354838484,-0.8736277922423589 l 36.03571373037265 38.268679202561685" fill="#3fffbe" stroke="none" /><path d="M 85.86807049272753 84.46653392183569 l -26.623837905758464 -29.26426166836032 a60.56293411548699,60.56293411548699 0 0,0 0.775018022620099,-0.6930258948251714 l 26.11755485631497 29.716983093068894" fill="#3dff2e" stroke="none" /><path d="M 86.13680546590413 84.22622945171909 l -5.618327274212658 -6.392625095941404 a29.510655496342316,29.510655496342316 0 0,0 0.3833863040500697,-0.3311599582155049 l 5.507761490399739 6.488129186621619" fill="#ff3004" stroke="none" /><path d="M 86.40962598614128 83.9905735841838 l -23.780999464321695 -28.01395757249837 a57.74666997696264,57.74666997696264 0 0,0 0.7612266841097706,-0.635042373849574 l 23.296598446050016 28.418062130259827" fill="#5bff2a" stroke="none" /><path d="M 86.96720088162412 83.53348406188908 l -39.09839735512763 -49.399547814332756 a84.0,84.0 0 0,0 1.1383602214590214,-0.8851957935167807 l 38.244627189033366 50.06344465947034" fill="#4dd2ff" stroke="none" /><path d="M 87.25179093698888 83.31218511350988 l -16.738907143579297 -21.911766777083223 a48.57383788402801,48.57383788402801 0 0,0 0.6669581414758639,-0.500497823374605 l 16.36029601319268 22.19588362772183" fill="#c6ff1e" stroke="none" /><path d="M 87.54013794807813 83.09580414077388 l -12.3573829472436 -16.765163272048113 a41.82728049562059,41.82728049562059 0 0,0 0.5816361994826554,-0.42105975392076356 l 12.067765737386978 16.97482379734196" fill="#ffe115" stroke="none" /><path d="M 87.83215693770416 82.88440491214696 l -9.889559652081813 -13.91090415413887 a38.068000600472296,38.068000600472296 0 0,0 0.5358613260333169,-0.37407282265909564 l 9.649303234874731 14.07862179260309" fill="#ffad10" stroke="none" /><line stroke="#e1ed5e" stroke-width="0.3" x1="56.869717070023135" x2="54.33264160355391" y1="26.7553504044142" y2="22.446841604673864" /><path d="M 56.362301976729285 25.89364864446614 a86.0,86.0 0 0,1 42.16139366436587,-11.88097634709845" fill="none" id="id60" stroke="none" /><text fill="#e1ed5e" style="font-size:6.75px; font-family:Arial;" text-anchor="middle"><textPath startOffset="22.145653131862474" xlink:href="#id60">December</textPath></text></svg>