<?xml version="1.0" encoding="utf-8" ?>
<svg baseProfile="full" height="200mm" version="1.1" viewBox="0,0,200,200" width="200mm" xmlns="http://www.w3.org/2000/svg" xmlns:ev="http://www.w3.org/2001/xml-events" xmlns:xlink="http://www.w3.org/1999/xlink"><defs /><rect fill="#1a1a1a" height="200" width="200" x="0" y="0" /><text alignment-baseline="middle" fill="#e1ed5e" style="dominant-baseline: central; font-size:9.0px; font-family:Arial;" text-anchor="middle" x="100.0" y="100.0">2025</text><line stroke="#e1ed5e" stroke-width="0.3" x1="100.0" x2="100.0" y1="15.0" y2="10.0" /><path d="M 100.0 14.0 a86.0,86.0 0 0,1 42.46469731375804,11.215312516191453" fill="none" id="id61" stroke="none" /><text fill="#e1ed5e" style="font-size:6.75px; font-family:Arial;" text-anchor="middle"><textPath startOffset="22.20632615414155" xlink:href="#id61">January</textPath></text><path d="M 100.0 79.0 l 0.0 -47.22903814637655 a68.22903814637655,68.22903814637655 0 0,0 1.1744507337836103,0.010108868253005084 l -0.812970254511082 47.222040654732105" fill="#38ff85" stroke="none" /><path d="M 100.72285384407766 79.0124445844662 l 1.2087517683359668 -35.09526155172533 a56.116071309607875,56.116071309607875 0 0,0 0.9650873144647093,0.041558689875943314 l -1.8126799151900075 35.06925513532519" fill="#65ff29" stroke="none" /><path d="M 101.08401301168833 79.027996857942 l 1.829862628022786 -35.40168279406414 a56.44894274712536,56.44894274712536 0 0,0 0.9699486117163221,0.058509949073491205 l -2.43897328857872 35.36493957561035" fill="#61ff29" stroke="none" /><path d="M 101.44485096284872 79.0497635885617 l 2.010944877882567 -29.15855800029798 a50.227819007901076,50.227819007901076 0 0,0 0.8620285113038203,0.06691000321863289 l -2.5125635785487286 29.119622734890882" fill="#a8ff21" stroke="none" /><path d="M 101.80526077348638 79.07773832637324 l 3.013211774550738 -34.9219382324764 a56.0516934699479,56.0516934699479 0 0,0 0.9605521935178137,0.09121600492083859 l -3.613889095158796 34.864896683040385" fill="#66ff29" stroke="none" /><path d="M 102.52436894288641 79.15227682838746 l 3.03723876950821 -25.08330379013286 a46.266518327048885,46.266518327048885 0 0,0 0.7898031134985158,0.10253911163324075 l -3.468556611514572 25.027306355335483" fill="#d7ff1c" stroke="none" /><path d="M 102.88285421437855 79.19881850522331 l 4.871742454420412 -35.151967964516935 a56.487951847361195,56.487951847361195 0 0,0 0.9619925625080372,0.14177269718121518 l -5.476103997357105 35.06290078317475" fill="#61ff29" stroke="none" /><path d="M 103.2404852339499 79.25152402106235 l 5.115473203691257 -32.75382087092951 a54.15088004476836,54.15088004476836 0 0,0 0.9197160654212415,0.15176103122584392 l -5.678518475251375 32.66091357676404" fill="#7bff26" stroke="none" /><path d="M 103.59715602781102 79.31037775812273 l 1.6055311676233117 -9.234471092959636 a30.373003077825004,30.373003077825004 0 0,0 0.5143232419633895,0.09398928499738071 l -1.764249530689602 9.205466326611516" fill="#ff5207" stroke="none" /><path d="M 103.95276090670814 79.375362276772 l 11.858282720124386 -61.87391316968404 a84.0,84.0 0 0,0 1.4177343621314986,0.2843841756911667 l -12.921583491723009 61.66062503791566" fill="#4dd2ff" stroke="none" /><path d="M 104.307194497241 79.44645832069477 l 4.314435038890264 -20.58809288767627 a42.035301720117786,42.035301720117786 0 0,0 0.7069082211838723,0.15450275696478705 l -4.668185984227664 20.510776632615613" fill="#fff216" stroke="none" /><path d="M 105.01212808612495 79.60689891045804 l 8.188836588803555 -33.31833694025186 a55.30989101035268,55.30989101035268 0 0,0 0.9225982470822183,0.23519083568814117 l -8.761143724570799 33.17244310839485" fill="#6eff28" stroke="none" /><path d="M 105.36241919743992 79.69619591428918 l 2.9899442291864906 -11.320868365827579 a32.709048938749945,32.709048938749945 0 0,0 0.5431292574489069,0.14845774288734792 l -3.1843713758591083 11.267724082113936" fill="#ff730a" stroke="none" /><path d="M 106.0581310904928 79.89281104454417 l 10.234529589312285 -33.96882920632976 a56.47713282613619,56.47713282613619 0 0,0 0.9284158266162793,0.2884633166263494 l -10.817730788639281 33.78762575482089" fill="#61ff29" stroke="none" /><path d="M 106.40334571778207 80.00007090966166 l 7.826216635453903 -24.444061691068526 a46.66635577525215,46.66635577525215 0 0,0 0.7629219790948014,0.2515233815521083 l -8.245821436791122 24.30572458525718" fill="#d2ff1c" stroke="none" /><path d="M 106.74666289553966 80.11325718540242 l 12.011059451371457 -35.404296011022154 a58.386223735227105,58.386223735227105 0 0,0 0.9489651845533829,0.33107531947083113 l -12.618706639988114 35.192299838379114" fill="#4dff2c" stroke="none" /><path d="M 107.4271985657038 80.35727306442388 l 11.81633582939009 -31.250687055487322 a54.41004690019053,54.41004690019053 0 0,0 0.8731953237391377,0.33878621970749756 l -12.352514318128895 31.042658131889276" fill="#78ff26" stroke="none" /><path d="M 108.09893153111575 80.62456947434976 l 12.03069501205389 -28.781561430143864 a52.19480567065939,52.19480567065939 0 0,0 0.8259610325399178,0.35363340898627715 l -12.524339802384123 28.570208493194798" fill="#91ff24" stroke="none" /><path d="M 108.43124777332544 80.76684994638697 l 10.340812551214023 -23.589201126672616 a46.75621893861671,46.75621893861671 0 0,0 0.7343350989922844,0.3294747535634859 l -10.74532976867309 23.4077060425926" fill="#d1ff1c" stroke="none" /><path d="M 109.08828744355905 81.06846463323043 l 14.34076653845339 -29.872814938498127 a54.13672671312273,54.13672671312273 0 0,0 0.8366153965910585,0.4105235417264568 l -14.852853202054881 29.62153623663684" fill="#7bff26" stroke="none" /><path d="M 109.73455568895987 81.39251694778311 l 14.948819931143955 -28.574484794911534 a53.248541031004756,53.248541031004756 0 0,0 0.8085029082322065,0.43187425334877755 l -15.438467885904473 28.312931815061003" fill="#85ff25" stroke="none" /><path d="M 110.05341064243156 81.56283822128135 l 14.52909811676763 -26.645219419081833 a51.34901003291007,51.34901003291007 0 0,0 0.7723769199711752,0.42982691972921094 l -14.98559912581084 26.39117710179244" fill="#9aff22" stroke="none" /><line stroke="#e1ed5e" stroke-width="0.3" x1="143.23703022742887" x2="145.7803849466894" y1="26.81831364943548" y2="22.513508569990506" /><path d="M 143.74570117128098 25.957352633546492 a86.0,86.0 0 0,1 28.547481713284135,27.462654790039103" fill="none" id="id62" stroke="none" /><text fill="#e1ed5e" style="font-size:6.75px; font-family:Arial;" text-anchor="middle"><textPath startOffset="19.985693538727396" xlink:href="#id62">February</textPath></text><path d="M 110.68208982089419 81.91981866633111 l 14.32099527169703 -24.23928236256137 a49.15375134904667,49.15375134904667 0 0,0 0.7247555240652773,0.43665709390442164 l -14.736112861979944 23.98917865919833" fill="#b4ff20" stroke="none" /><path d="M 110.99172775467656 82.1063720568725 l 12.234429231069003 -19.91664364723106 a44.3742155543416,44.3742155543416 0 0,0 0.64740046544548,0.4054021120693268 l -12.575448848886746 19.70309719383879" fill="#efff19" stroke="none" /><path d="M 111.60114157652 82.49532879139004 l 13.188963426695299 -19.90049572655388 a44.87422221630048,44.87422221630048 0 0,0 0.6401955389600615,0.43226288567714083 l -13.529563660061902 19.670520928578068" fill="#e8ff1a" stroke="none" /><path d="M 112.19680574252982 82.90503203632743 l 14.102091118549119 -19.76540423627226 a45.28044848307196,45.28044848307196 0 0,0 0.6305942493559704,0.45815354007272685 l -14.440230684258877 19.519731461382857" fill="#e3ff1b" stroke="none" /><path d="M 112.48926042617603 83.11751280151076 l 19.446315808138923 -26.286758902120532 a53.69790348153971,53.69790348153971 0 0,0 0.7383560078764624,0.5561144374071948 l -19.895917969773766 25.94812787520749" fill="#80ff26" stroke="none" /><path d="M 112.77801427241765 83.33499621200491 l 12.868745046306442 -16.783334278031276 a42.149111294685085,42.149111294685085 0 0,0 0.5719583118070097,0.4464225346177836 l -13.155735913272883 16.55933335419027" fill="#fff316" stroke="none" /><path d="M 113.06298171725822 83.55741782278167 l 22.09322275274658 -27.80908972655836 a56.51698133319121,56.51698133319121 0 0,0 0.7565110179121021,0.6117126313367316 l -22.568637169223173 27.4246709979575" fill="#61ff29" stroke="none" /><path d="M 113.34407831869373 83.78471172551755 l 22.603929556552934 -27.467557154706522 a56.57252208439369,56.57252208439369 0 0,0 0.7466022909954093,0.625257947576208 l -23.07338938450746 27.074398049736494" fill="#60ff29" stroke="none" /><path d="M 113.89432698308785 84.25364557470407 l 17.026982170295348 -19.296573081446255 a46.73472079730324,46.73472079730324 0 0,0 0.5986250662973212,0.5374514951161363 l -17.35661822418866 19.00062257756082" fill="#d1ff1c" stroke="none" /><path d="M 114.16331599549186 84.49514656593476 l 11.167641212417191 -12.225430842457316 a37.55830213315923,37.55830213315923 0 0,0 0.47357820490055963,0.4401393290377873 l -11.376427301112598 12.031386927344888" fill="#ffb710" stroke="none" /><path d="M 114.42810811169701 84.74124197986012 l 8.837383626479129 -9.346166333357944 a33.862743661146126,33.862743661146126 0 0,0 0.42008629242790163,0.4041226804817081 l -8.996953162519448 9.192660566113934" fill="#ff840c" stroke="none" /><path d="M 114.68862486808459 84.99185889309783 l 33.49539649281192 -34.22400949785511 a68.8876227465924,68.8876227465924 0 0,0 0.8403115599645806,0.8367029950759584 l -34.07954385294383 33.64237065212903" fill="#39ff8d" stroke="none" /><path d="M 115.4437574822437 85.77008943001954 l 15.616914077200702 -14.389457420134875 a42.235453612780304,42.235453612780304 0 0,0 0.4880334005051225,0.5388986701881304 l -15.86229111832186 14.118505962677196" fill="#fff417" stroke="none" /><path d="M 115.68641384162765 86.03803664274999 l 19.17334021801228 -17.065562356233144 a46.668081222602694,46.668081222602694 0 0,0 0.5289230020090134,0.6046504248822624 l -19.464255083599145 16.732996375147934" fill="#d2ff1c" stroke="none" /><path d="M 115.9244219780498 86.31012108654704 l 22.574237924770447 -19.40658092203053 a50.76930635684116,50.76930635684116 0 0,0 0.5639971587462893,0.6675947420942759 l -22.904945697003853 19.015127230307147" fill="#a1ff22" stroke="none" /><path d="M 116.15771136456269 86.58626213691792 l 10.11189030143378 -8.394644683476539 a34.142312765645606,34.142312765645606 0 0,0 0.3715033309975665,0.45541915675470274 l -10.254892124507755 8.219341357113736" fill="#ff880c" stroke="none" /><path d="M 116.38621287248628 86.86637796730983 l 38.41172490519462 -30.787167263984905 a70.22712949515676,70.22712949515676 0 0,0 0.747905283009099,0.9497637584509258 l -38.93598426879768 30.121411111580944" fill="#3bff9c" stroke="none" /><path d="M 116.60985879189232 87.15038557335679 l 23.688389287725613 -18.32566264103811 a50.94945238697986,50.94945238697986 0 0,0 0.5306605271161173,0.6982870503570103 l -24.00032575506584 17.915190814800066" fill="#9fff22" stroke="none" /><path d="M 116.82858285166822 87.43820079747576 l 9.367181649727577 -6.992190371263685 a32.68908970993831,32.68908970993831 0 0,0 0.33270860161475774,0.45381415869708264 l -9.486152863855962 6.829913768895109" fill="#ff730a" stroke="none" /><path d="M 117.2510076193507 88.02491185347247 l 16.077752308983257 -11.160652487460768 a40.57177261401942,40.57177261401942 0 0,0 0.39330572803169783,0.5771276245087367 l -16.267482502683688 10.882246839681626" fill="#ffdf14" stroke="none" /><path d="M 117.45458315368197 88.32363383020206 l 19.73122409655936 -13.19934114159398 a44.73907771841232,44.73907771841232 0 0,0 0.42268493096744264,0.6437781486096734 l -19.955505662884725 12.857744929006634" fill="#eaff1a" stroke="none" /><path d="M 117.65298651832404 88.62581576622439 l 29.936570992074902 -19.28875170430311 a56.61255712629741,56.61255712629741 0 0,0 0.5207611306071439,0.8237190475644787 l -30.264159718928 18.770585009024423" fill="#60ff29" stroke="none" /><line stroke="#e1ed5e" stroke-width="0.3" x1="172.23445277983987" x2="176.4835382374775" y1="55.19839476539836" y2="52.563006222186495" /><path d="M 173.08426987136738 54.67131705675599 a86.0,86.0 0 0,1 12.851231095245387,41.99856678651699" fill="none" id="id63" stroke="none" /><text fill="#e1ed5e" style="font-size:6.75px; font-family:Arial;" text-anchor="middle"><textPath startOffset="22.20632615414155" xlink:href="#id63">March</textPath></text><path d="M 117.84615892207809 88.93136811851018 l 4.994743256066133 -3.0978640661747643 a26.877433280481792,26.877433280481792 0 0,0 0.24046881409612378,0.39526750335663285 l -5.047327868448481 3.01142878961105" fill="#ff1e03" stroke="none" /><path d="M 118.03404312379186 89.2402003453031 l 40.10744230854443 -23.929633579112473 a67.70368606184962,67.70368606184962 0 0,0 0.5885072806327998,1.0059497100393193 l -40.51340926364755 23.235704456719258" fill="#38ff7f" stroke="none" /><path d="M 118.21658344932153 89.55222093294921 l 8.377958498820249 -4.805020638041462 a30.658074960361347,30.658074960361347 0 0,0 0.2586116053291337,0.46004118922214526 l -8.459427745441817 4.660095938884523" fill="#ff5608" stroke="none" /><path d="M 118.56541770881063 90.18545643968196 l 20.740345934019153 -10.964311809095127 a44.46013816902722,44.46013816902722 0 0,0 0.35185026495667526,0.6796627202062735 l -20.926005632135944 10.60567636662851" fill="#edff19" stroke="none" /><path d="M 118.73160827565052 90.50648371742162 l 10.631395447945671 -5.388182600572609 a32.91885400983305,32.91885400983305 0 0,0 0.2518135372251538,0.5076407251755871 l -10.722568998124233 5.204382286898072" fill="#ff760a" stroke="none" /><path d="M 118.89224826269711 90.83032412892265 l 32.00207604881617 -15.532755047932987 a56.57245213382543,56.57245213382543 0 0,0 0.41767119798233754,0.8797220623863424 l -32.26470544064026 14.979590569906104" fill="#60ff29" stroke="none" /><path d="M 119.196687751892 91.48605970444005 l 27.734588109000065 -12.300592182039347 a51.3399397758917,51.3399397758917 0 0,0 0.35133458580537696,0.8109286638350274 l -27.942213404648122 11.821364373617717" fill="#9bff22" stroke="none" /><path d="M 119.34039704204932 91.81776055985345 l 23.707810681313127 -10.029938019080772 a46.742182191251516,46.742182191251516 0 0,0 0.3071146404765195,0.7437024620286609 l -23.876947008675845 9.620360986598808" fill="#d1ff1c" stroke="none" /><path d="M 119.47837535516314 92.15188598940014 l 3.6170887735440433 -1.4573764271212595 a24.899650913354563,24.899650913354563 0 0,0 0.15675687887807058,0.39892915845455873 l -3.641639202303814 1.3948982637709162" fill="#ff0000" stroke="none" /><path d="M 119.61058180528143 92.48833698450437 l 15.293682716691272 -5.858112317848491 a37.37724674563309,37.37724674563309 0 0,0 0.22496726109955154,0.6028004130615037 l -15.392254566292449 5.593988767757653" fill="#ffb410" stroke="none" /><path d="M 119.85752413597 93.16781622104841 l 11.07573849694997 -3.8107208320950527 a32.7129661705728,32.7129661705728 0 0,0 0.17861701094621013,0.5340421279268945 l -11.13969280166795 3.6195056012458444" fill="#ff730a" stroke="none" /><path d="M 120.08093135843002 93.85539295169968 l 56.234482888494945 -17.207309449275698 a79.80823551357041,79.80823551357041 0 0,0 0.39065790346264057,1.317104244029308 l -56.52234668906929 16.23677581849986" fill="#48fbff" stroke="none" /><path d="M 120.28053869075195 94.5502522615342 l 13.837953269190233 -3.7185084520537814 a35.32886093827029,35.32886093827029 0 0,0 0.15276143638280582,0.5886521296946842 l -13.899911037443342 3.479759896810247" fill="#ff980e" stroke="none" /><path d="M 120.37134235888165 94.90015583598534 l 34.5734184914048 -8.655249291736242 a56.64035081875475,56.64035081875475 0 0,0 0.22863066338812588,0.9478217029382222 l -34.71728195505375 8.058842357138614" fill="#5fff29" stroke="none" /><path d="M 120.53481517161879 95.60439243477599 l 34.73697019526872 -7.435669019038343 a56.52388312259337,56.52388312259337 0 0,0 0.19546686618957876,0.9531658581849703 l -34.85981635737329 6.836627504689961" fill="#61ff29" stroke="none" /><path d="M 120.6074358757038 95.95851677861258 l 15.115588399015465 -2.9644346470122462 a36.403534835383,36.403534835383 0 0,0 0.11530260793798666,0.6159511421365169 l -15.164376730863312 2.7038054274131667" fill="#ffa70f" stroke="none" /><path d="M 120.67395015179393 96.31383870115 l 40.444948941249514 -7.211326545075435 a62.0828081489081,62.0828081489081 0 0,0 0.1785269150337947,1.0536759583586741 l -40.56308771780353 6.514064798400923" fill="#30ff3a" stroke="none" /><path d="M 120.73433829027371 96.67025291283417 l 34.92871161784574 -5.609234986897758 a56.376240789841845,56.376240789841845 0 0,0 0.145622800614089,0.9594723094422466 l -35.02009031189913 5.007163565063429" fill="#62ff29" stroke="none" /><path d="M 120.83666639777658 97.38593545837742 l 34.968872400812025 -4.387020824657502 a56.24298495729684,56.24298495729684 0 0,0 0.11224398312308426,0.9616379011532641 l -35.039206736938695 3.784439185179385" fill="#64ff29" stroke="none" /><path d="M 120.87857604477298 97.74499172005257 l 25.52657423380495 -2.757019258999411 a46.67502964571703,46.67502964571703 0 0,0 0.07939839132439049,0.7995309651743011 l -25.57024975081157 2.3172127631206747" fill="#d2ff1c" stroke="none" /><path d="M 120.94382443527127 98.46500227214037 l 35.17940494217731 -2.5783403036340773 a56.27376320733348,56.27376320733348 0 0,0 0.062489090473927804,0.9666785713055522 l -35.21857462365565 1.9724026680754898" fill="#63ff29" stroke="none" /><path d="M 120.96714384426684 98.82574320788733 l 31.678421114555103 -1.7741377382376808 a52.72806216940029,52.72806216940029 0 0,0 0.042951756598015006,0.906643696126782 l -31.704266479386614 1.2285829354878992" fill="#8bff24" stroke="none" /><path d="M 120.98425023603335 99.18683210126433 l 23.388908182318303 -0.9063516259293537 a44.406462766311805,44.406462766311805 0 0,0 0.023024339749696376,0.7640657449870816 l -23.401044216523644 0.5036157335172731" fill="#eeff19" stroke="none" /><line stroke="#e1ed5e" stroke-width="0.3" x1="184.98032266829074" x2="189.97916517819016" y1="98.17113171792111" y2="98.06355123074" /><path d="M 185.9800911702706 98.14961562048488 a86.0,86.0 0 0,1 -9.607161424134198,41.387399972396054" fill="none" id="id64" stroke="none" /><text fill="#e1ed5e" style="font-size:6.75px; font-family:Arial;" text-anchor="middle"><textPath startOffset="21.466115282336823" xlink:href="#id64">April</textPath></text><path d="M 120.99980553446 99.90962569577887 l 35.38470356986291 -0.15228083707488152 a56.385031244587154,56.385031244587154 0 0,0 -0.004177064092317215,0.9706025888622548 l -35.38208220848109 -0.456831229991058" fill="#62ff29" stroke="none" /><path d="M 120.9764740272857 100.99374915477107 l 16.812812697532244 0.7964979426839741 a37.831668953939214,37.831668953939214 0 0,0 -0.03641505150352756,0.6502152068434158 l -16.796611295141187 -1.0857848658628133" fill="#ffba11" stroke="none" /><path d="M 120.95626037817324 101.35467743843564 l 28.174107461311948 1.8212613814272316 a49.23291207546667,49.23291207546667 0 0,0 -0.061947760190948324,0.8452279700808707 l -28.13858314245666 -2.3059624880048726" fill="#b3ff20" stroke="none" /><path d="M 120.92983693683757 101.71520430193887 l 12.019348740879725 0.9849880211238474 a33.059641186894595,33.059641186894595 0 0,0 -0.05136114955511735,0.5667660054851561 l -12.00061299504753 -1.191735415157574" fill="#ff780b" stroke="none" /><path d="M 120.89721153311464 102.0752229133903 l 35.07370668914719 3.483036943159107 a56.24622600029313,56.24622600029313 0 0,0 -0.10396900202776548,0.9626238335526013 l -35.00855538561837 -4.0862570985965" fill="#64ff29" stroke="none" /><path d="M 120.8583938346157 102.4346265915055 l 32.526700276008135 3.796570821981413 a53.74752175129575,53.74752175129575 0 0,0 -0.11516939812050053,0.9180134192019928 l -32.45652936864079 -4.355901995470801" fill="#7fff26" stroke="none" /><path d="M 120.81339534386255 102.79330883721812 l 34.9917750574634 4.696150382152005 a56.30549744846975,56.30549744846975 0 0,0 -0.1371868671396803,0.959484629253829 l -34.90575413930712 -5.297780483386244" fill="#63ff29" stroke="none" /><path d="M 120.70491114924044 103.5080841355445 l 24.02333480725478 4.070332836144344 a45.365718225787106,45.365718225787106 0 0,0 -0.1370769627268619,0.7688004036227581 l -23.94971140218873 -4.48325199050032" fill="#e2ff1b" stroke="none" /><path d="M 120.64145759157962 103.86396538481128 l 35.24957533273606 6.598523302470254 a56.8618609515942,56.8618609515942 0 0,0 -0.18837540369194647,0.9605221250452041 l -35.130769996068445 -7.204309154583404" fill="#5dff2a" stroke="none" /><path d="M 120.5718875245553 104.21870165774334 l 34.54017987549265 7.083196129940139 a56.25898032057346,56.25898032057346 0 0,0 -0.20270903934946807,0.9469891465266868 l -34.41313679741874 -7.676699095882994" fill="#64ff29" stroke="none" /><path d="M 120.41448212921028 104.9243191809786 l 34.394692749035926 8.29658299220815 a56.381183963332575,56.381183963332575 0 0,0 -0.23569666850615992,0.9414910284645107 l -34.246784766234704 -8.887401860070055" fill="#62ff29" stroke="none" /><path d="M 120.32669344350535 105.2749913415812 l 34.05666126954116 8.838062807376758 a56.184762767644195,56.184762767644195 0 0,0 -0.2509905083577902,0.9340290523602602 l -33.899482684841594 -9.422982792912567" fill="#64ff29" stroke="none" /><path d="M 120.13307415673323 105.97154293290107 l 33.61957099927144 9.971686889193906 a56.06722249610275,56.06722249610275 0 0,0 -0.2824005276204548,0.9229012638488212 l -33.442943699144855 -10.548915125594784" fill="#66ff29" stroke="none" /><path d="M 120.02730092923936 106.31721596034902 l 28.958750977349712 9.134465223858522 a51.36523856474758,51.36523856474758 0 0,0 -0.2732331036229244,0.8409250248315806 l -28.797225622710542 -9.631589148667898" fill="#9aff22" stroke="none" /><path d="M 119.9155931802556 106.66101706037122 l 33.38685000206907 11.166645926284325 a56.20476863016801,56.20476863016801 0 0,0 -0.3147712445534299,0.9148725778257913 l -33.18968792657241 -11.739691207199416" fill="#64ff29" stroke="none" /><path d="M 119.67450827220406 107.3425965602758 l 36.528439213963665 13.6325436150098 a59.98939749243867,59.98939749243867 0 0,0 -0.36937963140529817,0.9643336587298186 l -36.288365302964856 -14.259300840572761" fill="#3cff2e" stroke="none" /><path d="M 119.41010516605496 108.01547362559984 l 23.777290467046942 9.818918702210059 a46.72490440089004,46.72490440089004 0 0,0 -0.3133884256546918,0.7407576648033086 l -23.60475106019994 -10.226750892679531" fill="#d1ff1c" stroke="none" /><path d="M 119.26925614724726 108.34839909993367 l 45.16251967478601 19.56664729155007 a70.21896859552582,70.21896859552582 0 0,0 -0.49005789850709897,1.10495118962663 l -44.81902069154764 -20.341146817669387" fill="#3bff9c" stroke="none" /><path d="M 118.97047184881838 109.00673069616215 l 42.60025584465954 20.225592438511505 a68.15778183417052,68.15778183417052 0 0,0 -0.5123087570899334,1.0555077804467419 l -42.245793830954895 -20.95588917492352" fill="#38ff84" stroke="none" /><path d="M 118.81262510543309 109.33194174019688 l 35.6991324745142 17.708439016919836 a60.84992938323584,60.84992938323584 0 0,0 -0.47353220967714255,0.9343239737053745 l -35.38902159505079 -18.320317202327903" fill="#33ff2f" stroke="none" /><path d="M 118.64920377521936 109.65438752849418 l 40.18365908916834 20.802422550351782 a66.24894741049658,66.24894741049658 0 0,0 -0.5329806427497316,1.0081985170830015 l -39.81962593819371 -21.491036082520917" fill="#36ff6d" stroke="none" /><line stroke="#e1ed5e" stroke-width="0.3" x1="174.80103733775053" x2="179.2010983576182" y1="140.37084112569926" y2="142.7455964860345" /><path d="M 175.68104954172406 140.8457921977663 a86.0,86.0 0 0,1 -30.038265399797805,32.042727171017184" fill="none" id="id65" stroke="none" /><text fill="#e1ed5e" style="font-size:6.75px; font-family:Arial;" text-anchor="middle"><textPath startOffset="22.206326154141568" xlink:href="#id65">May</textPath></text><path d="M 118.30583269289576 110.29060199501025 l 30.709032525220668 17.26304597394857 a56.228645090802495,56.228645090802495 0 0,0 -0.48155283707795865,0.8396279616548542 l -30.40732769199033 -17.78909378146174" fill="#64ff29" stroke="none" /><path d="M 118.12598468904814 110.60418214915192 l 20.48170498876199 11.982341050815013 a44.72923800514303,44.72923800514303 0 0,0 -0.3945100139999127,0.6612214756374617 l -20.27241409906385 -12.333124620338578" fill="#eaff1a" stroke="none" /><path d="M 117.94076556474637 110.91462005526583 l 21.947794705460876 13.352375593815244 a46.6903021864549,46.6903021864549 0 0,0 -0.4236263595765659,0.6830205772068065 l -21.714703706216348 -13.728192502387325" fill="#d2ff1c" stroke="none" /><path d="M 117.75023020441432 111.22182372390056 l 27.927370995384134 17.655885629259892 a54.04040478062169,54.04040478062169 0 0,0 -0.5038499255800631,0.7819862735396373 l -27.61931620642702 -18.13399350272098" fill="#7cff26" stroke="none" /><path d="M 117.35343817320211 111.8261652097733 l 21.326534583062045 14.533783957620004 a46.80798235913288,46.80798235913288 0 0,0 -0.45947404862297064,0.6619066362352549 l -21.07319962727694 -14.898731856042279" fill="#d0ff1d" stroke="none" /><path d="M 117.14729908036423 112.12312394758627 l 28.880601539351428 20.41855749418532 a56.36957216900057,56.36957216900057 0 0,0 -0.5669710827254639,0.7874732452134264 l -28.524850664250362 -20.912664344849876" fill="#62ff29" stroke="none" /><path d="M 116.93607887273984 112.41649034213515 l 20.708953952917664 15.18253006993264 a46.67820073814505,46.67820073814505 0 0,0 -0.4806492857413669,0.6439082648342574 l -20.444543400481205 -15.536751214276213" fill="#d2ff1c" stroke="none" /><path d="M 116.498646956653 112.99209946851258 l 27.876817606921744 21.952005407853353 a56.48249570303652,56.48249570303652 0 0,0 -0.608080026709297,0.7586733298982229 l -27.494819668157593 -22.428606571329826" fill="#61ff29" stroke="none" /><path d="M 116.27256486870786 113.27417163493432 l 32.96403306404377 26.89005920100614 a63.54060130840872,63.54060130840872 0 0,0 -0.6986561433943392,0.8415763319121863 l -32.496280920755886 -27.453496790032098" fill="#32ff4c" stroke="none" /><path d="M 116.0416608686014 113.55231037782055 l 9.81948720517592 8.295695778986014 a33.85460607837128,33.85460607837128 0 0,0 -0.3799091194237541,0.4419201345212811 l -9.675235576181386 -8.463493012668822" fill="#ff840c" stroke="none" /><path d="M 115.80600337817218 113.82643327865902 l 26.697810310793095 23.354132231696568 a56.47095385927278,56.47095385927278 0 0,0 -0.6462997148568205,0.7261245810178739 l -26.291851746287936 -23.81023098245531" fill="#61ff29" stroke="none" /><path d="M 115.56566222782051 114.09645910891815 l 9.531815521005635 8.632131788486134 a33.859595885574194,33.859595885574194 0 0,0 -0.3949537921897463,0.42864433710065647 l -9.381815320820166 -8.794927380388126" fill="#ff840c" stroke="none" /><path d="M 115.32070863581623 114.36230785411682 l 25.769061902421125 24.157054934727412 a56.32149281174636,56.32149281174636 0 0,0 -0.6691354034803553,0.7015857953810632 l -25.349419947561803 -24.597047846690984" fill="#63ff29" stroke="none" /><path d="M 115.07121518719521 114.62390073753431 l 9.235276856833156 8.961173359977105 a33.868293072895156,33.868293072895156 0 0,0 -0.4095795494870661,0.41490192122148023 l -9.079656682290555 -9.11881577517925" fill="#ff840c" stroke="none" /><path d="M 114.81725581225074 114.88116024355365 l 25.05955828151399 25.16763610921528 a56.51607197580376,56.51607197580376 0 0,0 -0.6952823755467592,0.6804801420144044 l -24.622625953591438 -25.59526635415226" fill="#61ff29" stroke="none" /><path d="M 114.55890576462653 115.13401014063108 l 25.910486380403192 26.933999709130227 a58.37370258350765,58.37370258350765 0 0,0 -0.730127613457914,0.6903812307923057 l -25.44302293255447 -27.376015576668454" fill="#4dff2c" stroke="none" /><path d="M 114.0293411484842 115.62618273729858 l 22.479087726779444 25.03769270906733 a54.64811200085273,54.64811200085273 0 0,0 -0.7053708884308766,0.6224077969733349 l -22.044774485441977 -25.420923647812952" fill="#75ff27" stroke="none" /><path d="M 113.75828350139079 115.86535959552629 l 23.228801148406593 26.78628356184043 a56.45535488254966,56.45535488254966 0 0,0 -0.7396579600135224,0.6303525600602747 l -22.764277711816025 -27.18216051212365" fill="#61ff29" stroke="none" /><path d="M 113.20401910651253 116.32954008644616 l 34.19235106842069 42.28601631954827 a75.38036454239004,75.38036454239004 0 0,0 -1.0159927323789602,0.8071660731197158 l -33.45940084332438 -42.86831630667311" fill="#42ffd5" stroke="none" /><path d="M 112.92097659922987 116.55440617244103 l 18.234705916851826 23.362377128720343 a50.63621374228878,50.63621374228878 0 0,0 -0.6917178581202671,0.5303797572439876 l -17.829859330238065 -23.672796227791704" fill="#a3ff22" stroke="none" /><path d="M 112.63410532772338 116.77436683061366 l 10.016147270660314 13.298490410621076 a37.648515049365116,37.648515049365116 0 0,0 -0.5210106816556367,0.3854312466825992 l -9.785751618586113 -13.468931606043444" fill="#ffb811" stroke="none" /><path d="M 112.34349029814194 116.9893568818739 l 20.744992493428697 28.553032608265458 a56.293489267584235,56.293489267584235 0 0,0 -0.7888397862610548,0.5628162425019128 l -20.250425379318756 -28.90589311261159" fill="#63ff29" stroke="none" /><path d="M 112.04921762599082 117.19931262002967 l 8.760766251108468 12.50530633779879 a36.26871677348007,36.26871677348007 0 0,0 -0.5143994092639806,0.35380860423600463 l -8.544209957221604 -12.65425573139989" fill="#ffa50f" stroke="none" /><path d="M 111.7513745106137 117.40417183066458 l 19.842223444352143 29.386984987674513 a56.45854929183377,56.45854929183377 0 0,0 -0.8101137797174474,0.5368992390425023 l -19.33343496589473 -29.724182247808336" fill="#61ff29" stroke="none" /><path d="M 111.45004920935366 117.60387380957326 l 10.20470589601571 15.689221205312986 a39.715974045008196,39.715974045008196 0 0,0 -0.5762942876640847,0.3678182808077239 l -9.933129806304695 -15.86255391494452" fill="#ffd413" stroke="none" /><line stroke="#e1ed5e" stroke-width="0.3" x1="143.8653032363475" x2="146.44561519142675" y1="172.8068346515853" y2="177.08958963109032" /><path d="M 144.38136562736335 173.6633856474863 a86.0,86.0 0 0,1 -40.68145358897372,12.25698825130547" fill="none" id="id66" stroke="none" /><text fill="#e1ed5e" style="font-size:6.75px; font-family:Arial;" text-anchor="middle"><textPath startOffset="21.466115282336833" xlink:href="#id66">June</textPath></text><path d="M 110.8373102113329 117.98757091392108 l 12.444202721660732 20.65466195560266 a45.11375627889625,45.11375627889625 0 0,0 -0.668611924408932,0.3950277101788221 l -12.086822926223418 -20.865808238075232" fill="#e5ff1a" stroke="none" /><path d="M 109.89434966115114 118.52300852407294 l 16.728384824871316 31.31686521264638 a56.504716666888726,56.504716666888726 0 0,0 -0.8618559427889148,0.4508822954397471 l -16.186837979555907 -31.600176927030844" fill="#61ff29" stroke="none" /><path d="M 109.57404056367764 118.69057910512821 l 5.865486569291488 11.450686884420113 a33.86554168387673,33.86554168387673 0 0,0 -0.5211198790167311,0.2613003256102179 l -5.667512782591997 -11.549955050939634" fill="#ff840c" stroke="none" /><path d="M 109.2508944713604 118.85261126421891 l 15.617137204019636 31.826524200319422 a56.45169413614379,56.45169413614379 0 0,0 -0.8760424756616575,0.42055362533116947 l -15.066982060357747 -32.09063210215015" fill="#61ff29" stroke="none" /><path d="M 108.92500713936063 119.00905698771935 l 5.960489192300674 12.695035080862203 a35.02466923374149,35.02466923374149 0 0,0 -0.5479392752830616,0.2515320465581221 l -5.741081921250193 -12.795754197754398" fill="#ff940d" stroke="none" /><path d="M 108.59647513512805 119.15986991738527 l 12.613653754538786 28.113379184025483 a51.81341185562202,51.81341185562202 0 0,0 -0.8168737828971085,0.3580934607144813 l -12.127859296983923 -28.326337198034416" fill="#95ff23" stroke="none" /><path d="M 108.2653958097858 119.30500536409082 l 13.951056008147242 32.58467195886092 a56.44563175356081,56.44563175356081 0 0,0 -0.896487103643281,0.3747316820301484 l -13.3880974450065 -32.81998868391104" fill="#62ff29" stroke="none" /><path d="M 107.59598834532513 119.57807347666477 l 19.56706916110335 50.43260999667394 a75.09545587784632,75.09545587784632 0 0,0 -1.2091433294229856,0.4571945449058544 l -18.69605561092009 -50.761952791686426" fill="#41ffd2" stroke="none" /><path d="M 107.2578585660854 119.70592522655815 l 6.463950203156276 17.55037222229801 a39.702893288742615,39.702893288742615 0 0,0 -0.6433389510744805,0.23067845895178812 l -6.16089169145206 -17.659038222289755" fill="#ffd313" stroke="none" /><path d="M 106.91757812671514 119.82793768551818 l 5.521244832105212 15.82561070827492 a37.761088830559736,37.761088830559736 0 0,0 -0.6155601725688862,0.2088314318217074 l -5.248014926599098 -15.91830512699475" fill="#ffb911" stroke="none" /><path d="M 106.57524785965236 119.94407469862006 l 9.2769563730657 28.138910475998973 a50.628705714628325,50.628705714628325 0 0,0 -0.8300182239628029,0.2657456242012822 l -8.791216804011956 -28.294428946859963" fill="#a3ff22" stroke="none" /><path d="M 106.2309692047433 120.05430185196036 l 10.518280274146047 33.8529626210751 a56.449362450534956,56.449362450534956 0 0,0 -0.9304065248106304,0.2803238536843406 l -9.933998774895171 -34.02900184386517" fill="#61ff29" stroke="none" /><path d="M 105.53697534728816 120.25689768951611 l 2.4699480606768947 9.036248497666776 a30.367733468349034,30.367733468349034 0 0,0 -0.5054196703495781,0.1334859286272235 l -2.314037947515819 -9.077425775597582" fill="#ff5207" stroke="none" /><path d="M 105.18746579009965 120.34920634021253 l 8.746912304965988 34.312076558306806 a56.40942067605559,56.40942067605559 0 0,0 -0.9429686589460812,0.231758754055458 l -8.154990361276695 -34.457556570676296" fill="#62ff29" stroke="none" /><path d="M 104.83641907484287 120.43548508189849 l 8.599809286620046 36.33706501945469 a58.34084913327915,58.34084913327915 0 0,0 -0.9792368469900861,0.2228711182534844 l -7.973052290237098 -36.47971287128586" fill="#4dff2c" stroke="none" /><path d="M 104.48393922423573 120.51570834832081 l 4.691732574048445 21.46644107423213 a42.973175622560056,42.973175622560056 0 0,0 -0.724013164988412,0.15172399817146778 l -4.321527947630655 -21.544021053130137" fill="#fffe18" stroke="none" /><path d="M 104.13013068566511 120.58985236759428 l 7.028526417466191 35.03916275570839 a56.737139088377546,56.737139088377546 0 0,0 -0.9592153253773178,0.18383590006027853 l -6.424343477517169 -35.15495585411714" fill="#5eff29" stroke="none" /><path d="M 103.7750983002368 120.6578951692458 l 4.203260999898593 23.000864666077064 a44.381770215714226,44.381770215714226 0 0,0 -0.752695862391322,0.13086582378624262 l -3.806716166035221 -23.069809068384313" fill="#eeff19" stroke="none" /><path d="M 103.41894727170886 120.7198165907248 l 3.8966848663086946 23.615045604787674 a44.93437970500846,44.93437970500846 0 0,0 -0.7642356629345868,0.11935789325015382 l -3.489613339765591 -23.678621805384935" fill="#e7ff1a" stroke="none" /><path d="M 102.70371172650421 120.8252237178851 l 5.899667843881473 45.441938763530835 a66.82331152652125,66.82331152652125 0 0,0 -1.141954952750623,0.13827484148600686 l -5.11658546807947 -45.536759133742194" fill="#37ff74" stroke="none" /><path d="M 102.34483914955558 120.86867818915974 l 3.139805740680585 27.943748547169214 a49.11959215487722,49.11959215487722 0 0,0 -0.8410382955676672,0.08717705813370709 l -2.658334848507315 -27.99365497375868" fill="#b5ff20" stroke="none" /><path d="M 101.98527174616119 120.90594882070398 l 2.3002088744361364 24.22240134071124 a45.33137249676895,45.33137249676895 0 0,0 -0.7774453042517206,0.06708125217007276 l -1.8829192524428742 -24.25840684515998" fill="#e3ff1b" stroke="none" /><path d="M 101.62511606390274 120.93702456842531 l 1.6291795938703424 20.98937666108882 a42.05250955991099,42.05250955991099 0 0,0 -0.7221762357144732,0.04980550142855861 l -1.267640597376939 -21.014310507033663" fill="#fff216" stroke="none" /><path d="M 101.26447882468166 120.96189622390904 l 3.109578174086688 51.54902851121106 a72.64273246905519,72.64273246905519 0 0,0 -1.2488044363988788,0.06454892500924955 l -2.22178566927433 -51.59491724298251" fill="#3effb7" stroke="none" /><path d="M 100.90346689309514 120.98055641714683 l 1.4491978683709614 33.65367106347747 a54.684859366047995,54.684859366047995 0 0,0 -0.9407869885946151,0.03240260610154516 l -0.8696905281016941 -33.6736304680051" fill="#75ff27" stroke="none" /><line stroke="#e1ed5e" stroke-width="0.3" x1="102.19456741930631" x2="102.32365962044197" y1="184.97166512339345" y2="189.96999836594603" /><path d="M 102.22038585953345 185.97133177190398 a86.0,86.0 0 0,1 -42.740103519485714,-10.115201625700543" fill="none" id="id67" stroke="none" /><text fill="#e1ed5e" style="font-size:6.75px; font-family:Arial;" text-anchor="middle"><textPath startOffset="22.20632615414155" xlink:href="#id67">July</textPath></text><path d="M 100.18074693466247 120.99922214144158 l 0.3114312173920416 36.18215339589516 a57.1834936644771,57.1834936644771 0 0,0 -0.9843563041089692,0.0 l 0.3114312173920167 -36.18215339589516" fill="#5aff2a" stroke="none" /><path d="M 99.81925306533755 120.99922214144158 l -0.3050328791389287 35.43879292583463 a56.440105658667875,56.440105658667875 0 0,0 -0.9714156805599764,-0.01672380189655668 l 0.9150082495915729 -35.42829164665892" fill="#62ff29" stroke="none" /><path d="M 99.45781275523022 120.99299961872073 l -0.3315830702355951 12.838596507348301 a33.84287769975884,33.84287769975884 0 0,0 -0.5822258549374733,-0.02005303566948356 l 0.5525292768477114 -12.830986673252724" fill="#ff830c" stroke="none" /><path d="M 99.09653310690486 120.98055641714683 l -0.42736208212537546 9.924319687978434 a30.93351698133319,30.93351698133319 0 0,0 -0.5317794626759637,-0.027486924018875546 l 0.598129613214828 -9.915492957197356" fill="#ff5a08" stroke="none" /><path d="M 98.73552117531835 120.96189622390904 l -2.126674021309307 35.254936078500535 a56.319021225000995,56.319021225000995 0 0,0 -0.9671779204865333,-0.06670225205182136 l 2.73321470257477 -35.21310548193243" fill="#63ff29" stroke="none" /><path d="M 98.37488393609728 120.93702456842531 l -0.6431456422537473 8.285904257573357 a29.31082701557566,29.31082701557566 0 0,0 -0.502688614350205,-0.04337408884951268 l 0.7856785743454939 -8.27360591644518" fill="#ff4206" stroke="none" /><path d="M 97.65516085044442 120.86867818915974 l -0.6007635592190419 5.346695694454162 a26.380341225533954,26.380341225533954 0 0,0 -0.45081814459004954,-0.05458779904764131 l 0.6927091268604808 -5.335562366681173" fill="#ff1702" stroke="none" /><path d="M 97.2962882734958 120.8252237178851 l -3.816028786296348 29.392798207545034 a50.639478102141155,50.639478102141155 0 0,0 -0.8634547269332049,-0.11966695733554637 l 4.321412104416384 -29.322756684716882" fill="#a3ff22" stroke="none" /><path d="M 96.93821686468263 120.77559828337769 l -5.167553692414144 35.06421417735495 a56.44295031511066,56.44295031511066 0 0,0 -0.9599713145087558,-0.14992777651905154 l 5.770360870531417 -34.97006809348879" fill="#62ff29" stroke="none" /><path d="M 96.58105272829116 120.7198165907248 l -7.211807498672397 43.70565463135079 a65.29666369099169,65.29666369099169 0 0,0 -1.1074035206185877,-0.19253629683723852 l 7.963059990763035 -43.57503975599254" fill="#35ff62" stroke="none" /><path d="M 96.22490169976321 120.6578951692458 l -3.364313939385346 18.41002250773058 a39.71490146962813,39.71490146962813 0 0,0 -0.67143220027677,-0.1286815792051447 l 3.6807137542338113 -18.349383730176967" fill="#ffd313" stroke="none" /><path d="M 95.51606077576429 120.51570834832081 l -5.080011452706311 23.24296297473044 a44.79163391203549,44.79163391203549 0 0,0 -0.751816591893517,-0.17111100861028308 l 5.479348193992691 -23.15207523254247" fill="#e9ff1a" stroke="none" /><path d="M 95.16358092515715 120.4354850818985 l -7.892193097249184 33.34715040332573 a55.268340372803216,55.268340372803216 0 0,0 -0.9238937783603225,-0.22707061249701707 l 8.465040160352716 -33.20635853251468" fill="#6eff28" stroke="none" /><path d="M 94.81253420990036 120.34920634021253 l -8.770032064426458 34.40276992860249 a56.50301453639428,56.50301453639428 0 0,0 -0.9403973138300548,-0.2483674777206985 l 9.360919821068 -34.24671110157821" fill="#61ff29" stroke="none" /><path d="M 94.46302465271185 120.25689768951611 l -6.167019346796036 22.561899253984986 a44.38955804564774,44.38955804564774 0 0,0 -0.7353211288424722,-0.20780909593511315 l 6.554471643743122 -22.452401364711353" fill="#eeff19" stroke="none" /><path d="M 94.11515582081647 120.15858648285463 l -9.929607860820637 34.01396072834628 a56.433693523243576,56.433693523243576 0 0,0 -0.9301482672935245,-0.2802460428129553 l 10.513631102554408 -33.8379993164276" fill="#62ff29" stroke="none" /><path d="M 93.76903079525671 120.05430185196036 l -6.930634937231104 22.306167867299077 a44.35805697307236,44.35805697307236 0 0,0 -0.727215818527085,-0.23283154037372947 l 7.313572100849129 -22.18356348026564" fill="#efff19" stroke="none" /><path d="M 93.08242187328487 119.8279376855182 l -4.24183590185889 12.158425447981289 a33.877130161352646,33.877130161352646 0 0,0 -0.5489392731385246,-0.1968300930236213 l 4.4504947356271405 -12.08360781391771" fill="#ff840c" stroke="none" /><path d="M 92.40401165467489 119.57807347666478 l -21.860744975142385 56.34438231351046 a81.4365914753574,81.4365914753574 0 0,0 -1.302515938836278,-0.5182979729283589 l 22.82738199002052 -55.95973749617603" fill="#4aebff" stroke="none" /><path d="M 92.06813273071674 119.44442032107085 l -4.88324040359905 11.970923833297533 a33.92861377959575,33.92861377959575 0 0,0 -0.5388648111991838,-0.22524553478448983 l 5.0885766742956955 -11.88509325549307" fill="#ff850c" stroke="none" /><path d="M 91.7346041902142 119.30500536409082 l -18.5385160573052 43.29933619208438 a68.10105192330752,68.10105192330752 0 0,0 -1.0736595393269832,-0.47066079009556866 l 19.281096271289925 -42.97381084869436" fill="#38ff83" stroke="none" /><path d="M 91.40352486487194 119.15986991738527 l -2.301073495953454 5.128644957356049 a26.621204348926756,26.621204348926756 0 0,0 -0.4164722676113332,-0.19118199138556782 l 2.3890137593322067 -5.088275895636407" fill="#ff1a02" stroke="none" /><path d="M 90.7491055286396 118.85261126421891 l -10.31058593474994 21.012180944874512 a44.40555340892436,44.40555340892436 0 0,0 -0.6833086219656372,-0.3426251283078721 l 10.670748464398336 -20.83158797565734" fill="#eeff19" stroke="none" /><path d="M 90.42595943632237 118.69057910512821 l -16.17581434729544 31.57865643425462 a56.4805370871251,56.4805370871251 0 0,0 -0.8614871361521825,-0.45068935323828696 l 16.71699238597412 -31.295537662071617" fill="#61ff29" stroke="none" /><path d="M 90.10565033884886 118.52300852407294 l -6.601121858937706 12.35782448053506 a35.01037600095932,35.01037600095932 0 0,0 -0.5291187947907665,-0.288517754874836 l 6.812863465597113 -12.242366073900458" fill="#ff940d" stroke="none" /><line stroke="#e1ed5e" stroke-width="0.3" x1="58.666819895761336" x2="56.23545636021788" y1="174.27360380694188" y2="178.64263932499728" /><path d="M 58.180547188652646 175.14741091055294 a86.0,86.0 0 0,1 -31.652253787137756,-30.449443065178592" fill="none" id="id68" stroke="none" /><text fill="#e1ed5e" style="font-size:6.75px; font-family:Arial;" text-anchor="middle"><textPath startOffset="22.20632615414155" xlink:href="#id68">August</textPath></text><path d="M 89.7882731507175 118.34994917583269 l -17.23031335054927 30.96198898900885 a56.4334370378266,56.4334370378266 0 0,0 -0.8447581199864383,-0.4796757073609498 l 17.760720237456916 -30.66081011585327" fill="#62ff29" stroke="none" /><path d="M 89.4739219176387 118.17145234162733 l -15.230121271054067 26.292168903622674 a51.384778090149624,51.384778090149624 0 0,0 -0.7615520896062578,-0.44993839798026536 l 15.680441231688706 -26.026111933348655" fill="#9aff23" stroke="none" /><path d="M 89.1626897886671 117.98757091392108 l -6.449145125150835 10.704174099538989 a33.49683223855142,33.49683223855142 0 0,0 -0.49132005075484964,-0.30180890401185356 l 6.632444375837994 -10.591576728698756" fill="#ff7f0b" stroke="none" /><path d="M 88.8546689885994 117.79835938074946 l -10.262860513048336 16.389112131249522 a40.33725167548266,40.33725167548266 0 0,0 -0.5853092686158473,-0.37357206818020033 l 10.543451583711107 -16.21002563424552" fill="#ffdc14" stroke="none" /><path d="M 88.24862548938628 117.40417183066458 l -13.07768971343026 19.36848823217091 a44.37015842138223,44.37015842138223 0 0,0 -0.629302200666685,-0.4328397919023702 l 13.409148798719835 -19.14050765090344" fill="#efff19" stroke="none" /><path d="M 87.95078237400918 117.19931262002967 l -21.4470444042317 30.613972868110288 a58.3790188266958,58.3790188266958 0 0,0 -0.8180642794139005,-0.5836671424080541 l 21.970836011494487 -30.240261463858015" fill="#4dff2c" stroke="none" /><path d="M 87.65650970185807 116.9893568818739 l -29.10811983712746 40.06388988273057 a70.52169133812106,70.52169133812106 0 0,0 -0.9759363530648062,-0.7219743826543332 l 29.793441160610833 -39.55690555133648" fill="#3bff9f" stroke="none" /><path d="M 87.36589467227662 116.77436683061367 l -7.271628762686205 9.654579026951938 a33.08666542310101,33.08666542310101 0 0,0 -0.45198160856359876,-0.34656022396204783 l 7.43673909974329 -9.527979461162522" fill="#ff790b" stroke="none" /><path d="M 87.07902340077011 116.55440617244103 l -27.743065626866297 35.54452508513989 a66.08980986769349,66.08980986769349 0 0,0 -0.8907726424183359,-0.7076836604330157 l 28.35079576200199 -35.061707510701744" fill="#36ff6b" stroke="none" /><path d="M 86.79598089348748 116.32954008644616 l -15.456617412240297 19.1153505306237 a45.58258830426499,45.58258830426499 0 0,0 -0.6058791435223742,-0.4985972870768216 l 15.783366684307358 -18.8464581246897" fill="#dfff1b" stroke="none" /><path d="M 86.51685102203217 116.09983520530335 l -7.505903442157173 8.962580527969738 a32.690442087591435,32.690442087591435 0 0,0 -0.42829853353594294,-0.36500530201758535 l 7.659067452270173 -8.832050835729202" fill="#ff730a" stroke="none" /><path d="M 86.24171649860922 115.8653595955263 l -35.38655276200782 40.805990395427315 a75.01237791960348,75.01237791960348 0 0,0 -0.9682227934175978,-0.8543440418571664 l 36.083717908332005 -40.19082321179786" fill="#41ffd1" stroke="none" /><path d="M 85.70375840098266 115.38237550388516 l -42.28026196303967 45.49243669488719 a83.10621827242082,83.10621827242082 0 0,0 -1.0394774037838121,-0.9828907661857982 l 43.0570752012143 -44.75791129195546" fill="#4cdbff" stroke="none" /><path d="M 85.44109423537348 115.13401014063109 l -14.073886946189486 14.629832159449462 a41.300401049924716,41.300401049924716 0 0,0 -0.5080933608641356,-0.4972762930823838 l 14.323630259429416 -14.385405763444508" fill="#ffe815" stroke="none" /><path d="M 85.18274418774928 114.88116024355367 l -19.79061058128542 19.875964288500846 a49.04856901123206,49.04856901123206 0 0,0 -0.5931592346672874,-0.6008671730849924 l 20.129810441008242 -19.532356621435188" fill="#b5ff1f" stroke="none" /><path d="M 84.9287848128048 114.62390073753433 l -15.260175168690273 14.80725237696272 a42.2632939389498,42.2632939389498 0 0,0 -0.5021149978530185,-0.5264655678195821 l 15.512796717922248 -14.542379692560639" fill="#fff517" stroke="none" /><path d="M 84.67929136418377 114.36230785411682 l -9.224650798098102 8.647594426493114 a33.644171452173794,33.644171452173794 0 0,0 -0.39244098320083437,-0.4259171792289925 l 9.372138189294665 -8.487525992462778" fill="#ff810b" stroke="none" /><path d="M 84.43433777217949 114.09645910891817 l -15.937004055847536 14.43275092982497 a42.500985969914595,42.500985969914595 0 0,0 -0.48641599328995755,-0.546493524921813 l 16.183078898785833 -14.156283235162292" fill="#fff817" stroke="none" /><path d="M 84.19399662182784 113.82643327865904 l -19.35803512654988 16.93360267484212 a46.71926172171665,46.71926172171665 0 0,0 -0.5242735224783678,-0.609848549913745 l 19.646651158599028 -16.597877025766845" fill="#d1ff1c" stroke="none" /><path d="M 83.95833913139862 113.55231037782056 l -27.09145830214678 22.88739641773062 a56.46519459581896,56.46519459581896 0 0,0 -0.6208590142364033,-0.7478646781765682 l 27.481413316276722 -22.41767048244029" fill="#61ff29" stroke="none" /><path d="M 83.72743513129214 113.27417163493432 l -38.19446162642913 31.156725643668747 a70.29055134371711,70.29055134371711 0 0,0 -0.756734981457265,-0.9441432426905172 l 38.72511451994126 -30.49465456739997" fill="#3bff9d" stroke="none" /><path d="M 83.50135304334701 112.99209946851258 l -18.356603190119806 14.455174122862347 a44.36486549505017,44.36486549505017 0 0,0 -0.4672955144067829,-0.6040424444400232 l 18.602705521744657 -14.137053684309071" fill="#efff19" stroke="none" /><path d="M 83.28015986056508 112.70617746262583 l -29.669271264974157 22.547047264549253 a58.2643931621654,58.2643931621654 0 0,0 -0.5999532654364854,-0.8037354420135837 l 30.052985797105727 -22.032998943026364" fill="#4eff2b" stroke="none" /><path d="M 83.06392112726016 112.41649034213515 l -9.606280472889603 7.042733422047369 a32.911369299028685,32.911369299028685 0 0,0 -0.33102601221637606,-0.45976617861534036 l 9.726086277481585 -6.87633363798089" fill="#ff760a" stroke="none" /><path d="M 82.85270091963577 112.12312394758628 l -19.09252395150064 13.498396059432679 a44.38228318654817,44.38228318654817 0 0,0 -0.4356630282927771,-0.6276050855398057 l 19.322047886955552 -13.167749711705861" fill="#eeff19" stroke="none" /><path d="M 82.6465618267979 111.8261652097733 l -30.886286013517516 21.0486427799782 a58.37657055680652,58.37657055680652 0 0,0 -0.5587385427947381,-0.835238310837129 l 31.244027661722985 -20.51386755493525" fill="#4dff2c" stroke="none" /><path d="M 82.44556493220864 111.52570212397912 l -9.803075956708 6.436398148925088 a32.72721276964278,32.72721276964278 0 0,0 -0.30513471883431925,-0.473575859784257 l 9.912415538919364 -6.266700689219383" fill="#ff740a" stroke="none" /><path d="M 82.24976979558568 111.22182372390057 l -29.748421364964813 18.807166824176267 a56.19485896633046,56.19485896633046 0 0,0 -0.5098622715218177,-0.8220603253746807 l 30.067748276154585 -18.292310167436323" fill="#64ff29" stroke="none" /><line stroke="#e1ed5e" stroke-width="0.3" x1="26.63291911575756" x2="22.317208475507996" y1="142.92168965132927" y2="145.44649492493687" /><path d="M 25.769776987707644 143.4266507060508 a86.0,86.0 0 0,1 -11.730757126820373,-40.83630448921669" fill="none" id="id69" stroke="none" /><text fill="#e1ed5e" style="font-size:6.75px; font-family:Arial;" text-anchor="middle"><textPath startOffset="21.46611528233685" xlink:href="#id69">September</textPath></text><line stroke="#e1ed5e" stroke-width="0.3" x1="15.007084014347285" x2="10.007500721073583" y1="101.09737516637583" y2="101.16192664675087" /><path d="M 14.007167355692545 101.11028546245083 a86.0,86.0 0 0,1 10.666146001902534,-42.60595125391555" fill="none" id="id70" stroke="none" /><text fill="#e1ed5e" style="font-size:6.75px; font-family:Arial;" text-anchor="middle"><textPath startOffset="22.20632615414155" xlink:href="#id70">October</textPath></text><line stroke="#e1ed5e" stroke-width="0.3" x1="26.266209847984243" x2="21.928928074336255" y1="57.711370442889674" y2="55.22380399835377" /><path d="M 25.398753493254645 57.213857153982495 a86.0,86.0 0 0,1 29.58750427330803,-30.492523968695096" fill="none" id="id71" stroke="none" /><text fill="#e1ed5e" style="font-size:6.75px; font-family:Arial;" text-anchor="middle"><textPath startOffset="21.46611528233685" xlink:href="#id71">November</textPath></text><line stroke="#e1ed5e" stroke-width="0.3" x1="56.762969772571076" x2="54.21961505331055" y1="26.818313649435495" y2="22.513508569990535" /><path d="M 56.25429882871897 25.957352633546506 a86.0,86.0 0 0,1 42.265352541879196,-11.944610805530505" fill="none" id="id72" stroke="none" /><text fill="#e1ed5e" style="font-size:6.75px; font-family:Arial;" text-anchor="middle"><textPath startOffset="22.20632615414155" xlink:href="#id72">December</textPath></text></svg>