<?xml version="1.0" encoding="utf-8" ?>
<svg baseProfile="full" height="200mm" version="1.1" viewBox="0,0,200,200" width="200mm" xmlns="http://www.w3.org/2000/svg" xmlns:ev="http://www.w3.org/2001/xml-events" xmlns:xlink="http://www.w3.org/1999/xlink"><defs /><rect fill="#1a1a1a" height="200" width="200" x="0" y="0" /><text alignment-baseline="middle" fill="#e1ed5e" style="dominant-baseline: central; font-size:9.0px; font-family:Arial;" text-anchor="middle" x="100.0" y="100.0">2022</text><line stroke="#e1ed5e" stroke-width="0.3" x1="100.0" x2="100.0" y1="15.0" y2="10.0" /><path d="M 100.0 14.0 a86.0,86.0 0 0,1 42.46469731375804,11.215312516191453" fill="none" id="id25" stroke="none" /><text fill="#e1ed5e" style="font-size:6.75px; font-family:Arial;" text-anchor="middle"><textPath startOffset="22.20632615414155" xlink:href="#id25">January</textPath></text><path d="M 100.36148047927253 79.00311137660856 l 0.44620893502506787 -25.91841011812966 a46.92225077930661,46.92225077930661 0 0,0 0.8074500784927745,0.02085405331769504 l -0.8922856487127102 25.906889272669606" fill="#fffc17" stroke="none" /><path d="M 101.44485096284872 79.0497635885617 l 1.3406822607385511 -19.439797624327788 a40.485973432166006,40.485973432166006 0 0,0 0.6948353341984874,0.053932594848077865 l -1.6751077842993798 19.413839767291247" fill="#ff9d0e" stroke="none" /><path d="M 102.16513564639614 79.11191278185805 l 3.0050870967907013 -28.99149597410151 a50.14682465167762,50.14682465167762 0 0,0 0.8578290061019964,0.09638708397818749 l -3.503682806402423 28.935472936652722" fill="#d5ff1c" stroke="none" /><line stroke="#e1ed5e" stroke-width="0.3" x1="143.23703022742887" x2="145.7803849466894" y1="26.81831364943548" y2="22.513508569990506" /><path d="M 143.74570117128098 25.957352633546492 a86.0,86.0 0 0,1 28.547481713284135,27.462654790039103" fill="none" id="id26" stroke="none" /><text fill="#e1ed5e" style="font-size:6.75px; font-family:Arial;" text-anchor="middle"><textPath startOffset="19.985693538727396" xlink:href="#id26">February</textPath></text><path d="M 113.6212207817346 84.01681056812373 l 9.545984814784854 -11.201292898292683 a35.71715966745775,35.71715966745775 0 0,0 0.4645037047574471,0.4028130354701393 l -9.737382318189065 11.035314869402871" fill="#ff5207" stroke="none" /><path d="M 117.45458315368197 88.32363383020206 l 18.04834224843694 -12.07356549251819 a42.714364867958714,42.714364867958714 0 0,0 0.40355589087391686,0.6146433081792281 l -18.25349477466878 11.761104120361287" fill="#ffbf11" stroke="none" /><path d="M 117.65298651832404 88.62581576622439 l 16.375077956871174 -10.550801323648967 a40.47979945134757,40.47979945134757 0 0,0 0.37236096016659304,0.5889856163055445 l -16.55426651328372 10.267368059629217" fill="#ff9d0e" stroke="none" /><line stroke="#e1ed5e" stroke-width="0.3" x1="172.23445277983987" x2="176.4835382374775" y1="55.19839476539836" y2="52.563006222186495" /><path d="M 173.08426987136738 54.67131705675599 a86.0,86.0 0 0,1 12.851231095245387,41.99856678651699" fill="none" id="id27" stroke="none" /><text fill="#e1ed5e" style="font-size:6.75px; font-family:Arial;" text-anchor="middle"><textPath startOffset="22.20632615414155" xlink:href="#id27">March</textPath></text><path d="M 118.03404312379186 89.2402003453031 l 21.909683402395938 -13.072154829030397 a46.5130448725229,46.5130448725229 0 0,0 0.4043098263050815,0.6910965521111538 l -22.131452903171347 12.693078864565349" fill="#fff617" stroke="none" /><path d="M 118.3937258080291 89.86733742301442 l 25.637661379625794 -14.123173017473524 a50.27035526087526,50.27035526087526 0 0,0 0.4110006117953677,0.7615217134817904 l -25.876970090639627 13.679770320659275" fill="#d4ff1c" stroke="none" /><path d="M 118.73160827565052 90.50648371742162 l 20.211999462621215 -10.243805186300609 a43.659666082532624,43.659666082532624 0 0,0 0.3339756282836461,0.6732744871507527 l -20.385335103858267 9.894371110650907" fill="#ffcd13" stroke="none" /><path d="M 118.89224826269711 90.83032412892265 l 29.56765256185908 -14.351165964519813 a53.866427286214176,53.866427286214176 0 0,0 0.39769277036887396,0.8376423986981231 l -29.81030352606971 13.840081150181149" fill="#a4ff21" stroke="none" /><path d="M 119.196687751892 91.48605970444005 l 29.08222678721292 -12.89828462745409 a52.8141739046247,52.8141739046247 0 0,0 0.36142321152756335,0.8342146029579016 l -29.299940708583165 12.395770879909586" fill="#b2ff20" stroke="none" /><path d="M 119.34039704204932 91.81776055985345 l 44.411001097638724 -18.788727241092197 a69.22191711073532,69.22191711073532 0 0,0 0.454815397782987,1.1013715613652517 l -44.727838182307906 18.021481109273644" fill="#38ff7d" stroke="none" /><path d="M 119.61058180528143 92.48833698450437 l 15.72123473992003 -6.021882406465792 a37.83509101445462,37.83509101445462 0 0,0 0.2277229475166882,0.6101842826183406 l -15.822562275938344 5.750374986818119" fill="#ff740a" stroke="none" /><path d="M 119.7369772167798 92.82701384747503 l 27.285893261396676 -9.916479731094592 a50.03199168726704,50.03199168726704 0 0,0 0.28720011708806,0.8119534057916427 l -27.452546459294545 9.445328698876335" fill="#d7ff1c" stroke="none" /><path d="M 119.85752413597 93.16781622104841 l 45.70399300303589 -15.724925095925377 a69.33351058731424,69.33351058731424 0 0,0 0.3785699026783373,1.1318758237215156 l -45.967900199485996 14.935876169281547" fill="#38ff7f" stroke="none" /><path d="M 120.08093135843002 93.85539295169968 l 37.94475273985102 -11.610795882404231 a60.68141682842595,60.68141682842595 0 0,0 0.29703294308899514,1.0014474211103344 l -38.138991580051716 10.955919074547367" fill="#50ff2b" stroke="none" /><path d="M 120.28053869075195 94.5502522615342 l 46.63375786238099 -12.531334612061503 a69.28811157548648,69.28811157548648 0 0,0 0.2996006994682816,1.1544837098682283 l -46.84255489371957 11.726754476644423" fill="#38ff7e" stroke="none" /><path d="M 120.45610955862082 95.25157060432595 l 25.66578858823381 -5.95774013852817 a47.34819484166121,47.34819484166121 0 0,0 0.17745565235047178,0.7954988939304698 l -25.76453862758632 5.5150630750477365" fill="#fcff18" stroke="none" /><path d="M 120.91429891909075 98.10471618934814 l 48.30831041750465 -4.377768483105425 a69.50626467051096,69.50626467051096 0 0,0 0.09772420677026913,1.1924828489361166 l -48.37650910809442 3.5455717169615393" fill="#38ff81" stroke="none" /><path d="M 120.96714384426684 98.82574320788733 l 48.21235352299705 -2.70011423628386 a69.2879037556553,69.2879037556553 0 0,0 0.056441239348763356,1.1913853567400794 l -48.25168837057931 1.8698177729207808" fill="#38ff7e" stroke="none" /><line stroke="#e1ed5e" stroke-width="0.3" x1="184.98032266829074" x2="189.97916517819016" y1="98.17113171792111" y2="98.06355123074" /><path d="M 185.9800911702706 98.14961562048488 a86.0,86.0 0 0,1 -9.607161424134198,41.387399972396054" fill="none" id="id28" stroke="none" /><text fill="#e1ed5e" style="font-size:6.75px; font-family:Arial;" text-anchor="middle"><textPath startOffset="21.466115282336823" xlink:href="#id28">April</textPath></text><path d="M 120.99513854157772 99.54816195383933 l 48.4705165793493 -1.043137841850395 a69.48174000617217,69.48174000617217 0 0,0 0.015441466002740198,1.1959585590048116 l -48.48129105246976 0.20864302478512076" fill="#38ff81" stroke="none" /><path d="M 120.9904718944345 100.63252640178507 l 27.667512747262617 0.83373219870339 a48.680071730382025,48.680071730382025 0 0,0 -0.032448436994085075,0.8373499774287737 l -27.649062177417328 -1.3098594231461698" fill="#e9ff1a" stroke="none" /><path d="M 120.92983693683757 101.71520430193887 l 27.38711639492522 2.2443796385053916 a48.47892618700591,48.47892618700591 0 0,0 -0.07531640661452059,0.8311102709762956 l -27.34442539203362 -2.7154712980302578" fill="#ecff1a" stroke="none" /><path d="M 120.8583938346157 102.4346265915055 l 48.151599815132435 5.620335211952002 a69.478497631954,69.478497631954 0 0,0 -0.1488775015825889,1.186700169493675 l -48.047720804303 -6.448353135733072" fill="#38ff81" stroke="none" /><path d="M 120.76222939487914 103.15116336523771 l 47.67163207588674 7.235306849835494 a69.2175711747283,69.2175711747283 0 0,0 -0.18892522605276565,1.1764375629737829 l -47.54002509547269 -8.054823642502482" fill="#38ff7d" stroke="none" /><path d="M 120.64145759157962 103.86396538481128 l 47.506295475475234 8.89291274433714 a69.33148049544471,69.33148049544471 0 0,0 -0.22968551166497733,1.171161475610263 l -47.34618003083459 -9.709337947015348" fill="#38ff7f" stroke="none" /><path d="M 120.5718875245553 104.21870165774334 l 19.033731585217534 3.903270173714151 a40.4298341760066,40.4298341760066 0 0,0 -0.14567439367328108,0.680542269738772 l -18.96372315281981 -4.2303262628690925" fill="#ff9c0e" stroke="none" /><path d="M 120.41448212921028 104.9243191809786 l 46.95704414679336 11.32683512178119 a69.30384238215338,69.30384238215338 0 0,0 -0.2897187255729287,1.157282292676764 l -46.75511410692537 -12.133445253855351" fill="#38ff7e" stroke="none" /><path d="M 119.9155931802556 106.66101706037122 l 25.62178302101805 8.569523000165068 a48.01689267155805,48.01689267155805 0 0,0 -0.2689155641804768,0.7815945060938033 l -25.470476625894342 -9.009290209348173" fill="#f3ff19" stroke="none" /><path d="M 119.67450827220406 107.3425965602758 l 21.017820090476427 7.843925315219029 a43.433812108207746,43.433812108207746 0 0,0 -0.2674400173643844,0.6982014938251514 l -20.879685793518536 -8.204550375877325" fill="#ffc912" stroke="none" /><path d="M 119.41010516605496 108.01547362559984 l 44.47220235682456 18.36495794401286 a69.11495051178701,69.11495051178701 0 0,0 -0.46356061735843646,1.0957203658426824 l -44.149490758273814 -19.127752835521708" fill="#37ff7c" stroke="none" /><path d="M 119.12269723197855 108.67885076344098 l 16.79158955799644 7.620875762813445 a39.44004412349527,39.44004412349527 0 0,0 -0.2858940870739536,0.6157904292253134 l -16.657920854082654 -7.908786259317589" fill="#ff8d0d" stroke="none" /><path d="M 118.64920377521936 109.65438752849418 l 23.264552299782878 12.043677911733399 a47.19712906695899,47.19712906695899 0 0,0 -0.37970650356422453,0.7182616086115172 l -23.05379328799376 -12.44235453543105" fill="#feff18" stroke="none" /><line stroke="#e1ed5e" stroke-width="0.3" x1="174.80103733775053" x2="179.2010983576182" y1="140.37084112569926" y2="142.7455964860345" /><path d="M 175.68104954172406 140.8457921977663 a86.0,86.0 0 0,1 -30.038265399797805,32.042727171017184" fill="none" id="id29" stroke="none" /><text fill="#e1ed5e" style="font-size:6.75px; font-family:Arial;" text-anchor="middle"><textPath startOffset="22.206326154141568" xlink:href="#id29">May</textPath></text><path d="M 118.12598468904814 110.60418214915192 l 29.08996280985125 17.018400359463023 a54.70240179977534,54.70240179977534 0 0,0 -0.4824729027884813,0.8086523368630126 l -28.79270903136454 -17.516614790212138" fill="#99ff23" stroke="none" /><path d="M 117.55443506779139 111.5257021239791 l 24.662265939169632 16.192485250565674 a50.50294798565244,50.50294798565244 0 0,0 -0.48337789108190576,0.722584361593941 l -24.379884942677005 -16.614606526365424" fill="#d0ff1d" stroke="none" /><path d="M 115.32070863581623 114.36230785411682 l 15.186547365311505 14.236539163197145 a41.81610598128516,41.81610598128516 0 0,0 -0.49680211853207357,0.5208950350921836 l -14.939238695400467 -14.495841314871836" fill="#ffb110" stroke="none" /><path d="M 114.55890576462653 115.13401014063108 l 30.64364864618171 31.854130856732443 a65.20089201575539,65.20089201575539 0 0,0 -0.8155208522996876,0.7711258680944303 l -30.090791959491217 -32.376891361572795" fill="#32ff47" stroke="none" /><path d="M 113.48314897796784 116.09983520530334 l 11.907879368240794 14.21885167823781 a39.54651811247332,39.54651811247332 0 0,0 -0.5256483103447487,0.4325727734589584 l -11.661360929351353 -14.421719570553947" fill="#ff8f0d" stroke="none" /><path d="M 112.92097659922987 116.55440617244103 l 17.92402175582219 22.964327356434925 a50.131269914589936,50.131269914589936 0 0,0 -0.6848200544111561,0.5250908154972806 l -17.52607297291754 -23.26945751375958" fill="#d6ff1c" stroke="none" /><path d="M 112.04921762599082 117.19931262002967 l 8.44602762976012 12.056041654381453 a35.72017401713893,35.72017401713893 0 0,0 -0.5066194243370189,0.3484574596615503 l -8.237251320800219 -12.199639903408098" fill="#ff5207" stroke="none" /><path d="M 111.45004920935366 117.60387380957326 l 17.601529693452704 27.06146514426105 a53.28214279293667,53.28214279293667 0 0,0 -0.7731446921400854,0.4934575225988411 l -17.133103199265687 -27.3604370956837" fill="#abff21" stroke="none" /><line stroke="#e1ed5e" stroke-width="0.3" x1="143.8653032363475" x2="146.44561519142675" y1="172.8068346515853" y2="177.08958963109032" /><path d="M 144.38136562736335 173.6633856474863 a86.0,86.0 0 0,1 -40.68145358897372,12.25698825130547" fill="none" id="id30" stroke="none" /><text fill="#e1ed5e" style="font-size:6.75px; font-family:Arial;" text-anchor="middle"><textPath startOffset="21.466115282336833" xlink:href="#id30">June</textPath></text><path d="M 106.91757812671514 119.82793768551818 l 7.128240139493518 20.43176075561035 a42.63951605421863,42.63951605421863 0 0,0 -0.6950855675365744,0.2358107635545944 l -6.775484839019717 -20.55143450606307" fill="#ffbe11" stroke="none" /><path d="M 105.88484417918355 120.15858648285463 l 5.776215505221146 19.7864779865354 a41.61235980363256,41.61235980363256 0 0,0 -0.6893163332047865,0.19480768115842018 l -5.434768003911754 -19.88297446103234" fill="#ffae10" stroke="none" /><path d="M 105.18746579009965 120.34920634021253 l 2.4702977877082044 9.690396320257772 a31.000307595450323,31.000307595450323 0 0,0 -0.5182169596825199,0.12736512053397495 l -2.303127543282473 -9.731482699105777" fill="#ff0400" stroke="none" /><path d="M 104.48393922423573 120.51570834832081 l 10.33506424225399 47.286805898084424 a69.40305326045691,69.40305326045691 0 0,0 -1.1693044212581571,0.24503911040858126 l -9.519568359566454 -47.457700989219546" fill="#38ff80" stroke="none" /><path d="M 103.7750983002368 120.6578951692458 l 5.119149097380668 28.01273953655602 a49.476644181225815,49.476644181225815 0 0,0 -0.8391027482502376,0.14588876846247098 l -4.63619737765838 -28.096706883539497" fill="#deff1b" stroke="none" /><path d="M 103.06178313531738 120.77559828337769 l 3.152660244376578 21.392241013292313 a42.62330322099883,42.62330322099883 0 0,0 -0.726770772981617,0.10072380678488663 l -2.7839608802081304 -21.443339385569804" fill="#ffbd11" stroke="none" /><path d="M 102.34483914955558 120.86867818915974 l 1.6499824885280725 14.68456954813608 a35.77697618007469,35.77697618007469 0 0,0 -0.6125825917320314,0.06349669033212724 l -1.3969673001904384 -14.710795606923966" fill="#ff5307" stroke="none" /><path d="M 101.98527174616119 120.90594882070398 l 2.102493942120668 22.14035979447522 a43.23996431214468,43.23996431214468 0 0,0 -0.741577087984374,0.06398639154494311 l -1.7210725363947523 -22.17327043829883" fill="#ffc712" stroke="none" /><line stroke="#e1ed5e" stroke-width="0.3" x1="102.19456741930631" x2="102.32365962044197" y1="184.97166512339345" y2="189.96999836594603" /><path d="M 102.22038585953345 185.97133177190398 a86.0,86.0 0 0,1 -42.740103519485714,-10.115201625700543" fill="none" id="id31" stroke="none" /><text fill="#e1ed5e" style="font-size:6.75px; font-family:Arial;" text-anchor="middle"><textPath startOffset="22.20632615414155" xlink:href="#id31">July</textPath></text><path d="M 99.45781275523022 120.99299961872073 l -0.5993631197382467 23.20679777238756 a44.21453637266518,44.21453637266518 0 0,0 -0.7606577215040562,-0.026198589932470522 l 0.998741192916946 -23.193042384028995" fill="#ffd513" stroke="none" /><path d="M 98.73552117531835 120.96189622390904 l -1.7807160216227504 29.519817746972496 a50.57347780299328,50.57347780299328 0 0,0 -0.8685085434609314,-0.05989743412044517 l 2.2885873258626117 -29.484791968335767" fill="#d0ff1d" stroke="none" /><path d="M 98.01472825383883 120.90594882070398 l -2.7900780433304653 29.38097965299965 a50.513158096988775,50.513158096988775 0 0,0 -0.8648992901993049,-0.08965034778898928 l 3.2954099301353637 -29.328599936754898" fill="#d0ff1d" stroke="none" /><path d="M 97.65516085044442 120.86867818915974 l -3.3907248241043426 30.176886630215087 a51.366782864268835,51.366782864268835 0 0,0 -0.8778157017171377,-0.10629125668793458 l 3.9096679488728694 -30.1140498448018" fill="#c5ff1e" stroke="none" /><path d="M 97.2962882734958 120.8252237178851 l -2.4147575256557037 18.599566367693775 a39.75566375722161,39.75566375722161 0 0,0 -0.6778745966595707,-0.09394724228962009 l 2.7345607135021055 -18.55524455991155" fill="#ff920d" stroke="none" /><path d="M 96.93821686468263 120.77559828337769 l -4.267391589443688 28.956202794864847 a50.26896498468973,50.26896498468973 0 0,0 -0.8549653079071619,-0.13352799784547928 l 4.7651927609593665 -28.878456489672264" fill="#d4ff1c" stroke="none" /><path d="M 96.22490169976321 120.6578951692458 l -2.2822529599372974 12.488825097118225 a33.69564613871829,33.69564613871829 0 0,0 -0.5696688393893908,-0.10917838889223877 l 2.4968894138983835 -12.447689509877517" fill="#ff3104" stroke="none" /><path d="M 95.86986931433489 120.58985236759428 l -9.550575469402622 47.61228007217414 a69.5607115420265,69.5607115420265 0 0,0 -1.1719606520293515,-0.24559574939273912 l 10.36872758286136 -47.44082834205486" fill="#38ff82" stroke="none" /><path d="M 95.16358092515715 120.4354850818985 l -6.037846182338114 25.511915670785314 a47.216663168962526,47.216663168962526 0 0,0 -0.789297833850025,-0.19399020403944636 l 6.476097300931349 -25.40420420843184" fill="#feff18" stroke="none" /><path d="M 94.46302465271185 120.25689768951611 l -2.5783016380025785 9.432657582503051 a30.778684390309316,30.778684390309316 0 0,0 -0.5098545231492216,-0.14408998104114884 l 2.740287329256414 -9.386878808123381" fill="#ff0000" stroke="none" /><path d="M 93.76903079525671 120.05430185196036 l -14.38290706468664 46.29121895905797 a69.47416805213743,69.47416805213743 0 0,0 -1.138974910853135,-0.3646637988129651 l 15.177603320630714 -46.0367823135853" fill="#38ff81" stroke="none" /><path d="M 93.42475214034765 119.94407469862007 l -9.147940694763632 27.747579475210635 a50.21665596347472,50.21665596347472 0 0,0 -0.8186038689036074,-0.27771487769345293 l 9.624214296604466 -27.586001610619057" fill="#d4ff1c" stroke="none" /><path d="M 92.7421414339146 119.70592522655815 l -8.897192008234937 24.156905076640676 a46.74327268459136,46.74327268459136 0 0,0 -0.7526329749420367,-0.2845813908794199 l 9.311695203937257 -24.000175435654622" fill="#fff917" stroke="none" /><path d="M 92.06813273071674 119.44442032107085 l -15.99791487982339 39.21777440586303 a63.35524890555172,63.35524890555172 0 0,0 -1.006227795268746,-0.4206033000298278 l 16.6706141345896 -38.93658606281323" fill="#31ff2f" stroke="none" /><path d="M 90.10565033884886 118.52300852407294 l -10.964559098909453 20.526525603722437 a44.2714376348723,44.2714376348723 0 0,0 -0.669083066242315,-0.3648374353690083 l 11.316264977020408 -20.334747516593662" fill="#ffd614" stroke="none" /><line stroke="#e1ed5e" stroke-width="0.3" x1="58.666819895761336" x2="56.23545636021788" y1="174.27360380694188" y2="178.64263932499728" /><path d="M 58.180547188652646 175.14741091055294 a86.0,86.0 0 0,1 -31.652253787137756,-30.449443065178592" fill="none" id="id32" stroke="none" /><text fill="#e1ed5e" style="font-size:6.75px; font-family:Arial;" text-anchor="middle"><textPath startOffset="22.20632615414155" xlink:href="#id32">August</textPath></text><path d="M 87.95078237400918 117.19931262002967 l -7.022602251252845 10.024213627354888 a33.23935460823605,33.23935460823605 0 0,0 -0.46578255719733874,-0.3323234872663786 l 7.1941121362990685 -9.901845878244291" fill="#ff2904" stroke="none" /><path d="M 85.70375840098266 115.38237550388516 l -7.538977809478439 8.111739493044528 a32.07413671645906,32.07413671645906 0 0,0 -0.4011774456316026,-0.37933831507829086 l 7.677491089500856 -7.980766541220309" fill="#ff1602" stroke="none" /><path d="M 84.9287848128048 114.62390073753433 l -11.630210249794999 11.285025005426167 a37.20535651652041,37.20535651652041 0 0,0 -0.44202346211819304,-0.46345983284441156 l 11.82274026329215 -11.083158055999256" fill="#ff6a09" stroke="none" /><path d="M 84.4343377721795 114.09645910891817 l -17.685373715944575 16.016096441253428 a44.85975248589461,44.85975248589461 0 0,0 -0.5134116436643302,-0.5768234242963296 l 17.95844420925724 -15.70929884721623" fill="#ffde14" stroke="none" /><path d="M 84.19399662182784 113.82643327865904 l -14.940150975052504 13.06902166773699 a40.84962061373318,40.84962061373318 0 0,0 -0.45840567041990715,-0.5332293571803566 l 15.162899155043192 -12.809915211395102" fill="#ffa30f" stroke="none" /><path d="M 82.6465618267979 111.8261652097733 l -12.667701503240872 8.632890457221523 a36.32962683895461,36.32962683895461 0 0,0 -0.34772105601032666,-0.5197957993230118 l 12.814425664661929 -8.413557743692687" fill="#ff5c08" stroke="none" /><path d="M 82.44556493220864 111.52570212397912 l -29.37082973048757 19.283983409344817 a56.13570342527923,56.13570342527923 0 0,0 -0.5233856057894377,-0.8123060830551394 l 29.698420199654052 -18.77555572636823" fill="#87ff25" stroke="none" /><line stroke="#e1ed5e" stroke-width="0.3" x1="26.63291911575756" x2="22.317208475507996" y1="142.92168965132927" y2="145.44649492493687" /><path d="M 25.769776987707644 143.4266507060508 a86.0,86.0 0 0,1 -11.730757126820373,-40.83630448921669" fill="none" id="id33" stroke="none" /><text fill="#e1ed5e" style="font-size:6.75px; font-family:Arial;" text-anchor="middle"><textPath startOffset="21.46611528233685" xlink:href="#id33">September</textPath></text><path d="M 81.87401531095188 110.60418214915194 l -27.060369916967012 15.831034646979989 a52.35100122862066,52.35100122862066 0 0,0 -0.4483439557329464,-0.7817254778448967 l 27.328865868852336 -15.362889323276786" fill="#b8ff1f" stroke="none" /><path d="M 81.51974371655577 109.97397251340807 l -18.352442031075636 9.904989928946385 a41.85475854562984,41.85475854562984 0 0,0 -0.33672649881605604,-0.636959637065664 l 18.520221038116578 -9.587615276794596" fill="#ffb210" stroke="none" /><path d="M 81.18737489456691 109.33194174019688 l -21.4587764086163 10.644556521954279 a44.95382367189144,44.95382367189144 0 0,0 -0.3378959366344867,-0.6961657109375387 l 21.638825601865506 -10.273601855051457" fill="#ffe015" stroke="none" /><path d="M 80.58989483394504 108.01547362559985 l -23.836166847323273 9.84323191789018 a46.78860338527089,46.78860338527089 0 0,0 -0.30100085713800157,-0.7470594425158851 l 24.002070318718665 -9.431473107531488" fill="#fffa17" stroke="none" /><path d="M 80.32549172779594 107.34259656027581 l -13.984961234612616 5.219237341851678 a35.92714236430391,35.92714236430391 0 0,0 -0.21124430730490165,-0.5812536078831958 l 14.072729802922742 -4.977735936962365" fill="#ff5507" stroke="none" /><path d="M 80.20201598880116 107.00284435728193 l -23.02290661543109 8.143547928359885 a45.4207207486666,45.4207207486666 0 0,0 -0.2543758678671591,-0.7393353427263138 l 23.159673314241477 -7.746039882544274" fill="#ffe615" stroke="none" /><path d="M 79.97269907076064 106.31721596034903 l -18.5372931370363 5.847222472998607 a40.43762453328989,40.43762453328989 0 0,0 -0.20367705043196932,-0.6656283854869477 l 18.6351969599744 -5.527267114959611" fill="#ff9c0e" stroke="none" /><path d="M 79.76711848015287 105.62410040840567 l -25.20923631247175 7.007369469419931 a47.16503052432775,47.16503052432775 0 0,0 -0.21069724966124767,-0.7840828472902516 l 25.326121638474767 -6.572395688954141" fill="#ffff18" stroke="none" /><path d="M 79.58551787078972 104.9243191809786 l -21.751036365759635 5.246718721745831 a43.37488861044265,43.37488861044265 0 0,0 -0.1688304213258472,-0.727317036369105 l 21.838127353016038 -4.871533028028151" fill="#ffc912" stroke="none" /><path d="M 79.50377843672027 104.57218783832718 l -9.61119429699926 2.1440139852541558 a30.847428688933803,30.847428688933803 0 0,0 -0.11114763545844955,-0.5192447499087364 l 9.646675971182152 -1.9782554159292556" fill="#ff0100" stroke="none" /><path d="M 79.35854240842038 103.8639653848113 l -30.139719167170586 5.641986814796855 a51.66324651262895,51.66324651262895 0 0,0 -0.15610556150160995,-0.8755228909567778 l 30.232371171011387 -5.122345173106863" fill="#c1ff1e" stroke="none" /><path d="M 79.18660465613746 102.79330883721812 l -29.961565902944315 4.02105977573076 a51.23018943170015,51.23018943170015 0 0,0 -0.10977529549640848,-0.8750171139830322 l 30.026342707687572 -3.504724907460319" fill="#c7ff1e" stroke="none" /><path d="M 79.04373962182676 101.35467743843564 l -31.594176821282446 2.042345234950192 a52.660119757720196,52.660119757720196 0 0,0 -0.05068824680967232,-0.9050726972249649 l 31.62465141897965 -1.4982008213897893" fill="#b4ff20" stroke="none" /><line stroke="#e1ed5e" stroke-width="0.3" x1="15.007084014347285" x2="10.007500721073583" y1="101.09737516637583" y2="101.16192664675087" /><path d="M 14.007167355692545 101.11028546245083 a86.0,86.0 0 0,1 10.666146001902534,-42.60595125391555" fill="none" id="id34" stroke="none" /><text fill="#e1ed5e" style="font-size:6.75px; font-family:Arial;" text-anchor="middle"><textPath startOffset="22.20632615414155" xlink:href="#id34">October</textPath></text><path d="M 79.16333360222342 97.38593545837743 l -17.429291966748718 -2.186592291016691 a38.565915982643915,38.565915982643915 0 0,0 0.08830493049737857,-0.6579743008598434 l 17.389071037193503 2.4862849339411937" fill="#ff7f0b" stroke="none" /><path d="M 79.21141760316559 97.0276538004421 l -35.555635170172195 -5.083735632066073 a56.917232080592235,56.917232080592235 0 0,0 0.1470202096247434,-0.9686794888470932 l 35.46285906710815 5.695014233305258" fill="#7dff26" stroke="none" /><path d="M 79.32604984820605 96.31383870115002 l -57.93669680050594 -10.330101792893172 a79.85041919311442,79.85041919311442 0 0,0 0.2529139441963856,-1.3510764030055666 l 57.750297132399695 11.325856273361312" fill="#47ffff" stroke="none" /><path d="M 79.46518482838121 95.60439243477599 l -32.73930712676062 -7.008056555847571 a54.48096605282346,54.48096605282346 0 0,0 0.20418846809088817,-0.915336865116367 l 32.613824271667696 7.5705715905138975" fill="#9cff22" stroke="none" /><path d="M 79.54389044137918 95.25157060432595 l -31.511512072895233 -7.314694409524936 a53.34934539407185,53.34934539407185 0 0,0 0.21534641033209856,-0.8927498977514564 l 31.38093286230232 7.856029538935789" fill="#abff21" stroke="none" /><path d="M 79.62865764111835 94.90015583598534 l -17.949583435899026 -4.49357124922862 a39.503505832522514,39.503505832522514 0 0,0 0.17081253493217868,-0.6582103759119492 l 17.86957456909654 4.8018780506894325" fill="#ff8e0d" stroke="none" /><path d="M 79.71946130924805 94.55025226153421 l -50.612690422796504 -13.600545792951879 a73.40819857331502,73.40819857331502 0 0,0 0.3384230843232617,-1.2174878952125394 l 50.37108056790689 14.469744991583362" fill="#3effb3" stroke="none" /><path d="M 79.91906864156998 93.8553929516997 l -57.07715848347948 -17.4651615532419 a80.68947887717795,80.68947887717795 0 0,0 0.4178351593092595,-1.3246516387641163 l 56.76806784040202 18.445063358432428" fill="#48f6ff" stroke="none" /><path d="M 80.02781315780177 93.51064311812611 l -33.37068286471546 -10.842792139487992 a56.088012429283545,56.088012429283545 0 0,0 0.3062477758144818,-0.915641869732643 l 33.1790977951292 11.415607112142958" fill="#88ff25" stroke="none" /><path d="M 80.14247586403 93.16781622104843 l -29.307400151966686 -10.083510036319467 a51.99356188501174,51.99356188501174 0 0,0 0.298460176331556,-0.8437871095688994 l 29.12948689482532 10.586494772314978" fill="#bcff1f" stroke="none" /><path d="M 80.38941819471856 92.48833698450439 l -18.76260066098485 -7.1868512040615045 a41.091939025213804,41.091939025213804 0 0,0 0.25869616128578665,-0.6583535131331333 l 18.636110949817372 7.508753722090401" fill="#ffa60f" stroke="none" /><path d="M 80.52162464483688 92.15188598940014 l -44.95552207308614 -18.113218181828366 a69.46738736270248,69.46738736270248 0 0,0 0.4564282345108787,-1.1052771734309135 l 44.637072151689054 18.884369925712587" fill="#38ff81" stroke="none" /><path d="M 80.803312248108 91.48605970444005 l -55.95595515147103 -24.81707612781794 a82.21238587448907,82.21238587448907 0 0,0 0.5848733317411212,-1.2886908585935626 l 55.52047950276656 25.776588995253576" fill="#4ae5ff" stroke="none" /><path d="M 81.10775173730289 90.83032412892265 l -32.34031359038521 -15.696924424731938 a56.94842582812494,56.94842582812494 0 0,0 0.43562830415969156,-0.8782000787864928 l 32.0653252732721 16.251284092017393" fill="#7dff26" stroke="none" /><path d="M 81.26839172434947 90.50648371742162 l -56.19482482695157 -28.480548847735136 a84.0,84.0 0 0,0 0.6647622673595439,-1.284109110958658 l 55.69625312643191 29.44363068095413" fill="#4dd2ff" stroke="none" /><path d="M 81.6062741919709 89.86733742301443 l -42.81824662243352 -23.587545540875897 a69.88532037802794,69.88532037802794 0 0,0 0.5895071662284777,-1.048667469743202 l 42.40588181491261 24.321096520553883" fill="#39ff86" stroke="none" /><line stroke="#e1ed5e" stroke-width="0.3" x1="26.266209847984243" x2="21.928928074336255" y1="57.711370442889674" y2="55.22380399835377" /><path d="M 25.398753493254645 57.213857153982495 a86.0,86.0 0 0,1 29.58750427330803,-30.492523968695096" fill="none" id="id35" stroke="none" /><text fill="#e1ed5e" style="font-size:6.75px; font-family:Arial;" text-anchor="middle"><textPath startOffset="21.46611528233685" xlink:href="#id35">November</textPath></text><path d="M 83.39014120810768 87.1503855733568 l -42.00098734843416 -32.49253950485945 a74.10224158845065,74.10224158845065 0 0,0 0.7891744738141296,-1.0021714398213704 l 41.43545879402606 33.21070333863387" fill="#3fffbb" stroke="none" /><path d="M 83.84228863543731 86.58626213691792 l -41.72507264896209 -34.63913757357685 a75.22961865440645,75.22961865440645 0 0,0 0.8357272182611465,-0.9892374244870883 l 41.12263481721382 35.35223394769306" fill="#40ffc9" stroke="none" /><path d="M 85.31137513191541 84.99185889309783 l -36.48082538727117 -37.274379325872225 a73.15582398031479,73.15582398031479 0 0,0 0.9075389511529428,-0.8730517519669692 l 35.83380319250579 37.89681416460151" fill="#3dffb0" stroke="none" /><path d="M 85.83668400450813 84.49514656593479 l -23.462121133114973 -25.684433612652608 a55.78737210637963,55.78737210637963 0 0,0 0.7145804822624338,-0.6415574124689414 l 23.016529663256566 26.084490033890827" fill="#8bff24" stroke="none" /><path d="M 86.37877921826538 84.01681056812374 l -35.06487859007252 -41.14525459145372 a75.05994530086087,75.05994530086087 0 0,0 0.9905856245902397,-0.8295869728768362 l 34.35143542852317 41.74274272172437" fill="#40ffc7" stroke="none" /><line stroke="#e1ed5e" stroke-width="0.3" x1="56.76296977257108" x2="54.21961505331056" y1="26.818313649435495" y2="22.513508569990535" /><path d="M 56.25429882871898 25.957352633546506 a86.0,86.0 0 0,1 42.26535254187918,-11.944610805530505" fill="none" id="id36" stroke="none" /><text fill="#e1ed5e" style="font-size:6.75px; font-family:Arial;" text-anchor="middle"><textPath startOffset="22.20632615414155" xlink:href="#id36">December</textPath></text><path d="M 89.94658935756843 81.56283822128135 l -18.485246713968003 -33.90048375687596 a59.61278473545356,59.61278473545356 0 0,0 0.9051348430067236,-0.483491686329501 l 17.898966824432975 34.213654169707205" fill="#5cff2a" stroke="none" /><path d="M 91.23893434514133 80.91482961587045 l -21.785024947650278 -47.456659877653365 a73.21802254694273,73.21802254694273 0 0,0 1.1499339564992668,-0.5159418465109485 l 20.964908872684237 47.824622054680844" fill="#3dffb0" stroke="none" /><path d="M 91.90106846888425 80.62456947434976 l -22.837301880657716 -54.63468289390836 a80.2156308089867,80.2156308089867 0 0,0 1.2785459782338628,-0.5215510068992574 l 21.893472032835472 55.019694786991195" fill="#48fbff" stroke="none" /><path d="M 92.57280143429618 80.3572730644239 l -8.838708651923543 -23.375750490170986 a45.99096800070612,45.99096800070612 0 0,0 0.7429023428889412,-0.27361720249677224 l 8.435023983262035 23.52443096047408" fill="#ffef16" stroke="none" /><path d="M 92.91201910852362 80.23233633223022 l -6.627281143787471 -18.482818547053906 a40.63505632286602,40.63505632286602 0 0,0 0.6604512375664837,-0.23041846848695655 l 6.308147902157701 18.594157868713072" fill="#ff9f0e" stroke="none" /><path d="M 96.04723909329186 79.375362276772 l -5.794268406404703 -30.233219153335074 a51.783454756395464,51.783454756395464 0 0,0 0.8768785313105626,-0.16024394673048997 l 5.272994753991247 30.328478581416302" fill="#bfff1e" stroke="none" /></svg>