<?xml version="1.0" encoding="utf-8" ?>
<svg baseProfile="full" height="200mm" version="1.1" viewBox="0,0,200,200" width="200mm" xmlns="http://www.w3.org/2000/svg" xmlns:ev="http://www.w3.org/2001/xml-events" xmlns:xlink="http://www.w3.org/1999/xlink"><defs /><rect fill="#1a1a1a" height="200" width="200" x="0" y="0" /><text alignment-baseline="middle" fill="#e1ed5e" style="dominant-baseline: central; font-size:9.0px; font-family:Arial;" text-anchor="middle" x="100.0" y="100.0">2024</text><line stroke="#e1ed5e" stroke-width="0.3" x1="100.0" x2="100.0" y1="15.0" y2="10.0" /><path d="M 100.0 14.0 a86.0,86.0 0 0,1 42.35913384403234,11.155469271406648" fill="none" id="id49" stroke="none" /><text fill="#e1ed5e" style="font-size:6.75px; font-family:Arial;" text-anchor="middle"><textPath startOffset="22.145653131862478" xlink:href="#id49">January</textPath></text><path d="M 100.0 79.0 l 0.0 -9.67727815125511 a30.67727815125511,30.67727815125511 0 0,0 0.5266162727213249,0.004520367339115303 l -0.1661233478724701 9.675852182110429" fill="#ff4806" stroke="none" /><path d="M 100.72087961077811 79.0123766808444 l 0.8266361525484222 -24.06660964228935 a45.08080204235388,45.08080204235388 0 0,0 0.7731877898623369,0.03320401051898906 l -1.2396497030115954 24.04887306334453" fill="#efff19" stroke="none" /><path d="M 101.08105385017728 79.02784411241856 l 0.8699285191357463 -16.87638086796134 a37.89878714076538,37.89878714076538 0 0,0 0.6494329809492395,0.03906827544955126 l -1.1595058522174482 16.8589606146871" fill="#ffb010" stroke="none" /><path d="M 102.15924093988457 79.11130261209362 l 1.5646382732889836 -15.136455968650331 a36.21710853668104,36.21710853668104 0 0,0 0.6178709398342915,0.06923372756388352 l -1.8242451147240717 15.107366480579476" fill="#ff980e" stroke="none" /><path d="M 102.51750503828377 79.15144685158666 l 1.4529360398571975 -12.032394687423674 a33.11979971162302,33.11979971162302 0 0,0 0.56386013959239,0.07300298394350382 l -1.6592740013403793 12.005680107279773" fill="#ff6c09" stroke="none" /><path d="M 103.23170211078529 79.25015418208739 l 3.7305859838296205 -23.953038158000343 a45.24180910702348,45.24180910702348 0 0,0 0.7663585381879393,0.12610400582519984 l -4.141222025070631 23.885468153679476" fill="#edff1a" stroke="none" /><path d="M 103.94208987418118 79.37332000966035 l 4.564143907450122 -23.88152954741726 a45.31375872077531,45.31375872077531 0 0,0 0.7627891886474439,0.15257920088665 l -4.9734295816285226 23.799660949867746" fill="#ecff1a" stroke="none" /><path d="M 104.29559338865022 79.4440306129975 l 3.124348806813597 -14.951140067602845 a36.27410045756269,36.27410045756269 0 0,0 0.6084334040231735,0.13260522855419488 l -3.3805446274559046 14.89530338091493" fill="#ff990e" stroke="none" /><path d="M 104.9986988182912 79.60360301121754 l 6.323241794272336 -25.800984332184363 a47.564528591685104,47.564528591685104 0 0,0 0.7913711676268648,0.20116345617787118 l -6.765218255124595 25.688635644171224" fill="#cfff1d" stroke="none" /><path d="M 106.38641147887787 79.99465700312896 l 3.662526839902814 -11.472813161167604 a33.04323647048704,33.04323647048704 0 0,0 0.5388836745557465,0.17714176741631182 l -3.858933252106303 11.40825047234927" fill="#ff6b09" stroke="none" /><path d="M 107.06938296918511 80.22567764915836 l 8.094484432946373 -22.641713589241522 a45.04512159446185,45.04512159446185 0 0,0 0.7258932291726162,0.2665580484210791 l -8.481966813773113 22.499424691811722" fill="#efff19" stroke="none" /><path d="M 108.07796709384702 80.6158196554323 l 5.690785875243759 -13.65581444272872 a35.794130997531155,35.794130997531155 0 0,0 0.5651465882636285,0.24122747283632717 l -5.924367538677817 13.556112320232993" fill="#ff920d" stroke="none" /><path d="M 108.73861861582097 80.90454125486305 l 8.375331968437122 -18.301611857801937 a41.1269764787253,41.1269764787253 0 0,0 0.6394486659354741,0.2992942633137537 l -8.6882693482441 18.15514136291765" fill="#ffdc14" stroke="none" /><path d="M 109.3889696526874 81.21577127319529 l 13.72629779413518 -27.461790470636952 a51.70115937528169,51.70115937528169 0 0,0 0.7904683276786069,0.40361876042252126 l -14.195693343527365 27.222113758541596" fill="#9dff22" stroke="none" /><path d="M 109.71004243097381 81.37971332152246 l 5.613045734384151 -10.763755303503501 a33.139386749337376,33.139386749337376 0 0,0 0.5021582619816116,0.2673709903286185 l -5.796992812152323 10.665813845452309" fill="#ff6c09" stroke="none" /><path d="M 110.34350942703115 81.72400993836675 l 5.985033052510762 -10.574979928995797 a33.151165423049356,33.151165423049356 0 0,0 0.4928592163943793,0.28455240125788295 l -6.165684736765539 10.470680630461743" fill="#ff6c0a" stroke="none" /><line stroke="#e1ed5e" stroke-width="0.3" x1="143.13028292997686" x2="145.6673583964461" y1="26.7553504044142" y2="22.446841604673864" /><path d="M 143.63769802327073 25.89364864446614 a86.0,86.0 0 0,1 29.32050498858742,28.57503671076993" fill="none" id="id50" stroke="none" /><text fill="#e1ed5e" style="font-size:6.75px; font-family:Arial;" text-anchor="middle"><textPath startOffset="20.669276256404974" xlink:href="#id50">February</textPath></text><path d="M 110.65571695917076 81.90426304109057 l 6.132412043836947 -10.414176323763527 a33.08559249593636,33.08559249593636 0 0,0 0.4869368033515757,0.29239155958188473 l -6.310281603745957 10.307370763645721" fill="#ff6b09" stroke="none" /><path d="M 111.27062007382361 82.28071324371311 l 12.930840819602249 -20.329429523987173 a45.09340883048003,45.09340883048003 0 0,0 0.6495906696061404,0.421056823906881 l -13.277917121465396 20.104458858376397" fill="#efff19" stroke="none" /><path d="M 111.8722381534696 82.67804972795209 l 13.637364073150401 -19.897321740289406 a45.12221199020203,45.12221199020203 0 0,0 0.6351593981619957,0.443390588881822 l -13.976918562486158 19.660286335602457" fill="#eeff19" stroke="none" /><path d="M 113.59037401385872 83.9905735841838 l 8.28361606745803 -9.75807889860923 a33.799937458617975,33.799937458617975 0 0,0 0.43911031054490207,0.37929302783089647 l -8.449905857765794 9.614441738313616" fill="#ff760a" stroke="none" /><path d="M 114.13192950727249 84.46653392183569 l 8.101201212693473 -8.904639254321122 a33.03835791701438,33.03835791701438 0 0,0 0.41623647188169394,0.38526226432398936 l -8.252867455889131 8.764259243864759" fill="#ff6a09" stroke="none" /><path d="M 114.91283532996326 85.21462403516908 l 8.607924913513164 -8.534353347790935 a33.12153283960535,33.12153283960535 0 0,0 0.39684832516959706,0.4072013420532946 l -8.753160039833574 8.385329313669898" fill="#ff6c09" stroke="none" /><path d="M 115.41159269507618 85.73525988315684 l 13.71261381194162 -12.69219062689577 a39.68495331717243,39.68495331717243 0 0,0 0.4584600436537519,0.5039278983541817 l -13.92847155643725 12.454925152983915" fill="#ffc812" stroke="none" /><path d="M 115.6541949942343 86.00192230759917 l 9.201091729819414 -8.227672961551658 a33.34320425913788,33.34320425913788 0 0,0 0.3778720812306489,0.42994906341926564 l -9.340974875008653 8.068511620321093" fill="#ff6f0a" stroke="none" /><path d="M 116.1254893667686 86.54754324733833 l 9.891227726170086 -8.251613962875686 a33.881207976089854,33.881207976089854 0 0,0 0.36874561195109135,0.4498096893825046 l -10.031420157359806 8.080601991794687" fill="#ff770a" stroke="none" /><path d="M 116.35404254752997 86.82634096563983 l 28.35441580827917 -22.840310271368224 a57.40951344252159,57.40951344252159 0 0,0 0.6116397789346065,0.7727868799887161 l -28.742322017855336 22.350203447464832" fill="#5cff2a" stroke="none" /><path d="M 116.7966241395341 87.39550010848427 l 9.734186629662656 -7.3047151200336415 a33.17017881240663,33.17017881240663 0 0,0 0.33785877419129295,0.45837031484684027 l -9.858147423437774 7.136538495917926" fill="#ff6c0a" stroke="none" /><path d="M 117.01052211995028 87.68569379921539 l 9.792135672478505 -7.0887510789044885 a33.088685325001045,33.088685325001045 0 0,0 0.3291298463755229,0.462962346987064 l -9.91238061738399 6.919611505207921" fill="#ff6b09" stroke="none" /><path d="M 117.21940702142032 87.97951657250589 l 10.03509512229905 -7.005275760127366 a33.238342313770204,33.238342313770204 0 0,0 0.3225864426091345,0.47066326037936607 l -10.153871301723509 6.8319777646779505" fill="#ff6d0a" stroke="none" /><path d="M 117.62189284568427 88.57770195909679 l 21.591231499876514 -13.995175400361532 a46.73025868832539,46.73025868832539 0 0,0 0.4305465867588814,0.6768907462722269 l -21.828295778261285 13.622470979410632" fill="#daff1c" stroke="none" /><line stroke="#e1ed5e" stroke-width="0.3" x1="172.87174338648825" x2="177.1583165268699" y1="56.24261187166439" y2="53.66864786411523" /><path d="M 173.72905801456457 55.72781907015455 a86.0,86.0 0 0,1 12.242430191666344,42.057860355516425" fill="none" id="id51" stroke="none" /><text fill="#e1ed5e" style="font-size:6.75px; font-family:Arial;" text-anchor="middle"><textPath startOffset="22.145653131862474" xlink:href="#id51">March</textPath></text><path d="M 118.18653347947321 89.5 l 10.540388865210202 -6.0854963486924465 a33.17099269738489,33.17099269738489 0 0,0 0.28047912153214977,0.49557973275695727 l -10.643301351763728 5.903659845836371" fill="#ff6c0a" stroke="none" /><path d="M 118.36410011445183 89.81374322990088 l 21.063905144851244 -11.683793109884782 a45.087322835588886,45.087322835588886 0 0,0 0.3696186809305259,0.6800567418925201 l -21.26136917539711 11.32048153451766" fill="#efff19" stroke="none" /><path d="M 118.70294669586156 90.45014215332178 l 6.9928696350023545 -3.570609061801042 a28.851717952419946,28.851717952419946 0 0,0 0.2214439239791206,0.4430361873620885 l -7.0531334721932115 3.4500410182752033" fill="#ff2c04" stroke="none" /><path d="M 118.8641267826498 90.77261029715802 l 21.741374752953618 -10.634795865852023 a45.203021696819434,45.203021696819434 0 0,0 0.3349775132815828,0.699974167842169 l -21.920731524195112 10.26000919594475" fill="#edff1a" stroke="none" /><path d="M 119.16976305983485 91.42560881287824 l 24.146146276946794 -10.800264103096804 a47.45150439435067,47.45150439435067 0 0,0 0.3262090229460514,0.7464300832215233 l -24.327989181909814 10.384171950099432" fill="#d1ff1c" stroke="none" /><path d="M 119.4528033332814 92.08871423366111 l 11.542174232136468 -4.694101778075269 a33.46019171232628,33.46019171232628 0 0,0 0.21182105819638844,0.5339274384114109 l -11.62105396529898 4.495273322450293" fill="#ff710a" stroke="none" /><path d="M 119.58574465831526 92.42381321644754 l 15.763563302016518 -6.0976849251287515 a37.9018250323101,37.9018250323101 0 0,0 0.22952138912112344,0.6088327534252043 l -15.865915374952081 5.826183891509389" fill="#ffb010" stroke="none" /><path d="M 119.83427380445688 93.10060997987247 l 23.11945244774487 -8.042145684856933 a45.47825951124792,45.47825951124792 0 0,0 0.2501619988125898,0.7395594986152713 l -23.254099868129824 7.644084511767502" fill="#eaff1a" stroke="none" /><path d="M 120.05942366710727 93.78553927170692 l 16.378551457751215 -5.0741171087294905 a38.14653353559564,38.14653353559564 0 0,0 0.18841423035319144,0.6271696944384086 l -16.463242008108033 4.792209810700359" fill="#ffb310" stroke="none" /><path d="M 120.26092885502905 94.47779374421319 l 18.826316787556067 -5.131196357360552 a40.513056650438074,40.513056650438074 0 0,0 0.17712022691733784,0.6725543512281885 l -18.911626495278135 4.807261501759565" fill="#ffd313" stroke="none" /><path d="M 120.35273937422433 94.82641323984039 l 12.724204292863424 -3.2344429736320532 a34.12886119342427,34.12886119342427 0 0,0 0.1394610474376142,0.5690486647445872 l -12.77785286681733 3.015538484279371" fill="#ff7a0b" stroke="none" /><path d="M 120.51834098615036 95.52812308129327 l 25.862471443908056 -5.636605278603632 a47.469581565520485,47.469581565520485 0 0,0 0.16669121956432945,0.7976778285160865 l -25.955420374296754 5.191810998802141" fill="#d1ff1d" stroke="none" /><path d="M 120.65975698304385 96.23510406497455 l 12.081431741531437 -2.201639316973114 a33.28039936676838,33.28039936676838 0 0,0 0.09759902233017904,0.5629252248695821 l -12.117445581353852 1.993921059182939" fill="#ff6e0a" stroke="none" /><path d="M 120.7213421655516 96.59031103205396 l 19.06673325183259 -3.137423700846115 a40.32314012719386,40.32314012719386 0 0,0 0.10652703078839804,0.6839799549971896 l -19.117781774759255 2.8096555639174845" fill="#ffd113" stroke="none" /><path d="M 120.9064616781168 98.02013634271609 l 12.036987329820455 -1.1399152149425393 a33.0908424303485,33.0908424303485 0 0,0 0.048700860066759936,0.5659778155042656 l -12.054781812584956 0.9331163520626117" fill="#ff6b09" stroke="none" /><path d="M 120.93736805541906 98.37931529534042 l 14.500703797008727 -1.1224461827487668 a35.544081134322326,35.544081134322326 0 0,0 0.04186760815669709,0.6087458339214713 l -14.517835366330491 0.8733569246729614" fill="#ff8f0d" stroke="none" /><path d="M 120.98066250479742 99.09900007780936 l 12.066104215817814 -0.5181704322783013 a33.07722532471196,33.07722532471196 0 0,0 0.019492429365194863,0.5675008128616553 l -12.073221332179857 0.3109633548525259" fill="#ff6b09" stroke="none" /><line stroke="#e1ed5e" stroke-width="0.3" x1="184.99686870605535" x2="189.99668451229388" y1="99.2704041080226" y2="99.22748670261217" /><path d="M 185.99683186730306 99.26182062694052 a86.0,86.0 0 0,1 -10.086455211305974,41.156179273409016" fill="none" id="id52" stroke="none" /><text fill="#e1ed5e" style="font-size:6.75px; font-family:Arial;" text-anchor="middle"><textPath startOffset="21.40746469413373" xlink:href="#id52">April</textPath></text><path d="M 120.99922638620191 99.81974689727618 l 12.052699576051893 -0.10345793006017802 a33.05314359882325,33.05314359882325 0 0,0 0.0,0.5674220655680083 l -12.052699576051893 -0.10345793006017656" fill="#ff6b09" stroke="none" /><path d="M 120.98066250479742 100.90099992219065 l 7.2028916872002196 0.309323161183832 a28.20953046151986,28.20953046151986 0 0,0 -0.024929716549628788,0.4836298410354992 l -7.196520381194018 -0.4329247955960619" fill="#ff2203" stroke="none" /><path d="M 120.86939407059847 102.33845913500097 l 11.982329671660283 1.3426450324575123 a33.05731811156748,33.05731811156748 0 0,0 -0.06803182488726581,0.5634011036230633 l -11.957515760513353 -1.548139813003984" fill="#ff6b09" stroke="none" /><path d="M 120.77682067341334 103.0534771498775 l 14.873764514976237 2.185931177490267 a36.033534712757685,36.033534712757685 0 0,0 -0.09519460661179702,0.6112176624508382 l -14.834048416226173 -2.4409370218725557" fill="#ff950d" stroke="none" /><path d="M 120.7213421655516 103.40968896794604 l 12.296369232692545 2.0233628779222825 a33.46172915940889,33.46172915940889 0 0,0 -0.09813079510988672,0.5659923489498264 l -12.259823620090424 -2.234148259792697" fill="#ff710a" stroke="none" /><path d="M 120.592083275326 104.11899336999214 l 16.591308028946383 3.3187262724706277 a37.919971813894,37.919971813894 0 0,0 -0.13315740604914855,0.6372063914687703 l -16.53189291207287 -3.603049115224807" fill="#ffb010" stroke="none" /><path d="M 120.51834098615036 104.47187691870673 l 7.245434096211868 1.5791086385946431 a28.415517469134148,28.415517469134148 0 0,0 -0.10796426939311236,0.47571049169064983 l -7.217258965261092 -1.70325346422431" fill="#ff2603" stroke="none" /><path d="M 120.43855184770803 104.8234425847677 l 14.060499823193933 3.318239673517659 a35.4467425327976,35.4467425327976 0 0,0 -0.14484631684187532,0.5910224016416866 l -14.001465979835762 -3.5591178997674455" fill="#ff8d0d" stroke="none" /><path d="M 120.26092885502905 105.52220625578681 l 16.7927591197833 4.576941172179802 a38.40531957042616,38.40531957042616 0 0,0 -0.17882524095018687,0.6345876938528853 l -16.711715386758534 -4.864536789935696" fill="#ffb710" stroke="none" /><path d="M 120.16314734710363 105.8691983318838 l 7.14935676837325 2.0810735594314824 a28.446084162917394,28.446084162917394 0 0,0 -0.14050154908877438,0.46768396126422995 l -7.112578899280846 -2.2034951242864356" fill="#ff2603" stroke="none" /><path d="M 119.94978838288452 106.5578916946017 l 9.506565504850181 3.124996905828322 a31.007017205913257,31.007017205913257 0 0,0 -0.17056012003997598,0.5042306883509654 l -9.45151996323784 -3.2877292686534476" fill="#ff4d07" stroke="none" /><path d="M 119.83427380445688 106.89939002012753 l 15.9717140403678 5.55579122991046 a37.910424760414266,37.910424760414266 0 0,0 -0.21908584297551234,0.6128220949958011 l -15.873988027348345 -5.829148281287182" fill="#ffb010" stroke="none" /><path d="M 119.71291397450082 107.23885506374661 l 11.396538249688726 4.1849667037889136 a33.14063550183597,33.14063550183597 0 0,0 -0.20068914070111205,0.5323517890139449 l -11.323018425173174 -4.379986772997017" fill="#ff6c09" stroke="none" /><path d="M 119.4528033332814 107.91128576633889 l 11.189989946063541 4.550871494922707 a33.07999612401855,33.07999612401855 0 0,0 -0.21844478691593355,0.5241879665658052 l -11.110219314611122 -4.742291970929791" fill="#ff6b09" stroke="none" /><path d="M 119.31412917781788 108.2440532568976 l 18.482194135803894 7.888949657377335 a41.09544791165845,41.09544791165845 0 0,0 -0.28251382294191074,0.6464469145129446 l -18.34404643084502 -8.205058641666124" fill="#ffdb14" stroke="none" /><path d="M 118.8641267826498 109.22738970284198 l 21.592415621866884 10.561932490400249 a45.03719680659984,45.03719680659984 0 0,0 -0.3456713947613359,0.6915743456101108 l -21.407924313893815 -10.931038692174106" fill="#efff19" stroke="none" /><path d="M 118.5362547648365 109.86951160357373 l 4.401619001982073 2.343614196379214 a25.986659938283324,25.986659938283324 0 0,0 -0.2130344931590592,0.3919594728376384 l -4.360739159207675 -2.4188285026914556" fill="#ff0000" stroke="none" /><line stroke="#e1ed5e" stroke-width="0.3" x1="174.33088141563837" x2="178.70328620479359" y1="141.23008692659167" y2="143.65538615756765" /><path d="M 175.20536237346943 141.71514677278685 a86.0,86.0 0 0,1 -30.301960400862466,31.631185727798858" fill="none" id="id53" stroke="none" /><text fill="#e1ed5e" style="font-size:6.75px; font-family:Arial;" text-anchor="middle"><textPath startOffset="22.145653131862474" xlink:href="#id53">May</textPath></text><path d="M 118.18653347947321 110.5 l 9.06650533845188 5.234549297764368 a31.46909859552874,31.46909859552874 0 0,0 -0.2741202596019373,0.46551612921695745 l -8.975311368720176 -5.389416595274875" fill="#ff5307" stroke="none" /><path d="M 117.81537515405839 111.11811171558189 l 6.545673209825187 4.084984198828364 a28.715758787993607,28.715758787993607 0 0,0 -0.2645710141435781,0.4159495783111147 l -6.474584504055719 -4.19674745181815" fill="#ff2a04" stroke="none" /><path d="M 117.62189284568427 111.42229804090321 l 6.976957412446249 4.522379501539604 a29.314436306270814,29.314436306270814 0 0,0 -0.2773362895652845,0.41992249028924916 l -6.898296683960238 -4.641481870167914" fill="#ff3304" stroke="none" /><path d="M 117.423217284605 111.72311816256416 l 10.16895557323798 6.842127135742531 a33.25652320979127,33.25652320979127 0 0,0 -0.32276289276166503,0.4709207064251814 l -10.050002943660994 -7.015682577237756" fill="#ff6e0a" stroke="none" /><path d="M 116.79662413953412 112.60449989151573 l 9.64738958237963 7.239580997606755 a33.061660697230536,33.061660697230536 0 0,0 -0.34454662233199107,0.4510225887277421 l -9.521690982693334 -7.404124499575373" fill="#ff6b09" stroke="none" /><path d="M 116.57777611688842 112.89097897827486 l 10.405580772004798 8.091442545903563 a34.18133353179314,34.18133353179314 0 0,0 -0.36416722649996935,0.4601133942780103 l -10.265147114863268 -8.268875884096257" fill="#ff7b0b" stroke="none" /><path d="M 116.1254893667686 113.45245675266167 l 13.864693515432736 11.566420445486509 a39.05579708012501,39.05579708012501 0 0,0 -0.43390141835029183,0.511134779787046 l -13.664097533575328 -11.802722007723112" fill="#ffbf11" stroke="none" /><path d="M 115.89218393027572 113.72728997021213 l 11.210865176576467 9.683678327095006 a35.81408532276038,35.81408532276038 0 0,0 -0.40587409815524667,0.46181021842010855 l -11.042980014462636 -9.874700823326407" fill="#ff920d" stroke="none" /><path d="M 115.41159269507618 114.26474011684316 l 11.02768376588143 10.207059459940604 a36.02643910109936,36.02643910109936 0 0,0 -0.4239868692901241,0.45025936237490577 l -10.850841062855048 -10.394860282260007" fill="#ff950d" stroke="none" /><path d="M 115.16444852881244 114.52719865689866 l 17.01057638696712 16.29574738390918 a44.55655093210859,44.55655093210859 0 0,0 -0.53385791951023,0.5477852557332641 l -16.728331666306083 -16.585355331710183" fill="#f6ff19" stroke="none" /><path d="M 114.65682725009322 115.03919595460226 l 6.032983453414283 6.190372500037034 a29.643934349495332,29.643934349495332 0 0,0 -0.3674824637321908,0.3520398874658037 l -5.92582850381678 -6.293024517808417" fill="#ff3805" stroke="none" /><path d="M 114.39649973595853 115.28858382429668 l 14.84374609095636 15.763543954460587 a42.65239284737355,42.65239284737355 0 0,0 -0.5373596823636251,0.4973720996815241 l -14.570956637278767 -16.016033800274492" fill="#fff016" stroke="none" /><path d="M 113.59037401385872 116.0094264158162 l 12.58604518135325 14.826329576473672 a40.4480997019576,40.4480997019576 0 0,0 -0.533193911041927,0.444809324289763 l -12.329676936149427 -15.040201084675305" fill="#ffd213" stroke="none" /><path d="M 112.7482090630111 116.68781488649013 l 12.174988038043386 15.93745016416528 a41.05573861670897,41.05573861670897 0 0,0 -0.5637285484851838,0.4230324122989445 l -11.899606500647437 -16.14410160372824" fill="#ffdb14" stroke="none" /><path d="M 112.45986205192187 116.90419585922612 l 10.875885486939849 14.755227437320489 a39.330347019412486,39.330347019412486 0 0,0 -0.5469146761071456,0.3959240486444285 l -10.620989800458736 -14.939752257337995" fill="#ffc312" stroke="none" /><path d="M 111.5731344415666 117.5232005979908 l 9.470545770321193 14.339613364357241 a38.184753376961844,38.184753376961844 0 0,0 -0.5500684059644585,0.356547695008223 l -9.222991732099725 -14.50007490106936" fill="#ffb410" stroke="none" /><path d="M 111.27062007382361 117.71928675628689 l 12.90784207131414 20.293271671687705 a45.050556377741245,45.050556377741245 0 0,0 -0.6560988646806933,0.4094542164229769 l -12.557579077843732 -20.51186168495223" fill="#efff19" stroke="none" /><line stroke="#e1ed5e" stroke-width="0.3" x1="143.1302829299769" x2="145.66735839644613" y1="173.24464959558577" y2="177.55315839532614" /><path d="M 143.63769802327073 174.10635135553383 a86.0,86.0 0 0,1 -40.68552437913181,11.842963189579606" fill="none" id="id54" stroke="none" /><text fill="#e1ed5e" style="font-size:6.75px; font-family:Arial;" text-anchor="middle"><textPath startOffset="21.407464694133747" xlink:href="#id54">June</textPath></text><path d="M 110.34350942703117 118.27599006163325 l 13.890667202064824 24.543477968024376 a49.20164793208754,49.20164793208754 0 0,0 -0.7386240696613464,0.40970232046519245 l -13.467298944247384 -24.778313203922714" fill="#bbff1f" stroke="none" /><path d="M 109.71004243097381 118.62028667847754 l 5.558109403213099 10.658407644856233 a33.02057542973778,33.02057542973778 0 0,0 -0.5048575187543871,0.25778384632822987 l -5.37432466274513 -10.7522494428573" fill="#ff6a09" stroke="none" /><path d="M 109.3889696526874 118.78422872680471 l 5.705036997419795 11.413895647616986 a33.76026884499769,33.76026884499769 0 0,0 -0.5206150975052178,0.25465893254502975 l -5.508261650652508 -11.51014833025924" fill="#ff750a" stroke="none" /><path d="M 109.06512990194946 118.94263497670748 l 8.807310548587338 18.40389168747793 a41.40274364745284,41.40274364745284 0 0,0 -0.6437363370275311,0.3013011098820426 l -8.490085497688302 -18.552369028930507" fill="#ffdf14" stroke="none" /><path d="M 108.4095320186766 119.2426549942271 l 3.317733011600973 7.591622406979358 a29.284931086401258,29.284931086401258 0 0,0 -0.4623740940143684,0.19736000627157865 l -3.1869238424161734 -7.64745706291034" fill="#ff3304" stroke="none" /><path d="M 108.07796709384702 119.3841803445677 l 9.244653074693696 22.18380198148136 a45.03299150802954,45.03299150802954 0 0,0 -0.7161222196835821,0.29124067243557 l -8.862476393819673 -22.339229910496222" fill="#efff19" stroke="none" /><path d="M 107.74402155503746 119.51999308798841 l 10.089483659872338 25.432089761419466 a48.3603521570123,48.3603521570123 0 0,0 -0.7742900852746862,0.299512038629751 l -9.651421312104121 -25.601541688187258" fill="#c6ff1e" stroke="none" /><path d="M 107.06938296918513 119.77432235084164 l 5.688079148280697 15.9105697237631 a37.896759255307884,37.896759255307884 0 0,0 -0.6144584659348444,0.21374055079854487 l -5.414114910300832 -16.005868707130233" fill="#ffb010" stroke="none" /><path d="M 106.72888874123015 119.89276391827305 l 3.0131593579302542 8.90787023839003 a30.403684464095843,30.403684464095843 0 0,0 -0.49583669622312665,0.16299137061674537 l -2.859799924059393 -8.958282530408795" fill="#ff4406" stroke="none" /><path d="M 106.0420521117495 120.11202640906438 l 3.4935021034440665 11.628732302384027 a33.14215680623825,33.14215680623825 0 0,0 -0.5462774165027692,0.1590133944115817 l -3.2933646745596907 -11.686989391098125" fill="#ff6c09" stroke="none" /><path d="M 105.69591212413111 120.21278271476187 l 3.996307128067619 14.181484173337203 a35.73380344719101,35.73380344719101 0 0,0 -0.5918514978227114,0.1613117575782886 l -3.7522742293102125 -14.247996425059632" fill="#ff910d" stroke="none" /><path d="M 105.3480935250658 120.30758222061773 l 6.302640549377259 23.93215275005931 a45.74815575243589,45.74815575243589 0 0,0 -0.7611506411714852,0.19348151652935966 l -5.890884614980377 -24.036819498423938" fill="#e6ff1a" stroke="none" /><path d="M 104.64783097203109 120.47920084513623 l 5.327240459589856 23.47280440678361 a45.069732811840915,45.069732811840915 0 0,0 -0.7559644652030515,0.16475893667942468 l -4.923513577767668 -23.560794801596753" fill="#efff19" stroke="none" /><path d="M 104.29559338865022 120.5559693870025 l 2.9516083538079187 14.124514467222768 a35.4296188726194,35.4296188726194 0 0,0 -0.5964045137033158,0.11929760602322796 l -2.708707354573644 -14.173101469908858" fill="#ff8d0d" stroke="none" /><path d="M 103.94208987418118 120.62667999033965 l 1.7194172822051152 8.996717777082942 a30.159548381379174,30.159548381379174 0 0,0 -0.5093592506029346,0.09282222310923441 l -1.5647232980511234 -9.024908174123539" fill="#ff4006" stroke="none" /><path d="M 103.58742460773223 120.69131181640829 l 2.687403166626943 15.50022731550365 a36.7314710886262,36.7314710886262 0 0,0 -0.6222005053419046,0.1023828563789464 l -2.420925158231966 -15.544076170378268" fill="#ff9f0e" stroke="none" /><path d="M 103.2317021107853 120.74984581791261 l 1.870969841193091 12.012968523663604 a33.157793422212215,33.157793422212215 0 0,0 -0.5631691651023677,0.08276647347474957 l -1.6644755704830378 -12.043316070437236" fill="#ff6c0a" stroke="none" /><path d="M 102.875027216393 120.80226474461374 l 1.9684194322203947 14.242502444503376 a35.37788409129895,35.37788409129895 0 0,0 -0.6023037227246137,0.07798027544731802 l -1.7236378876050056 -14.274194316151089" fill="#ff8c0c" stroke="none" /><path d="M 102.15924093988457 120.88869738790638 l 2.18536827750826 21.1414556786056 a42.25410507922609,42.25410507922609 0 0,0 -0.722143655319509,0.06838775496868552 l -1.8221250588037357 -21.17585518907947" fill="#ffea16" stroke="none" /><path d="M 101.80034050326958 120.92268563240118 l 1.7054753479720672 19.820208729751855 a40.89344917940255,40.89344917940255 0 0,0 -0.6999225497933556,0.05417843197358428 l -1.3649838034034758 -19.846564928720493" fill="#ffd814" stroke="none" /><path d="M 101.44090949804482 120.95050786540614 l 0.9583585655122285 13.934323211754412 a34.967240762216726,34.967240762216726 0 0,0 -0.5991980513632178,0.03604626682999097 l -0.7190161620165456 -13.948721456409094" fill="#ff860c" stroke="none" /><path d="M 101.08105385017728 120.97215588758144 l 0.4606422025956412 8.93633566880171 a29.94820017793019,29.94820017793019 0 0,0 -0.5136462009742908,0.022058177953412066 l -0.3071702410205209 -8.942926415180954" fill="#ff3d05" stroke="none" /><path d="M 100.72087961077811 120.9876233191556 l 0.6427389251128937 18.712642514979535 a39.72367760936069,39.72367760936069 0 0,0 -0.6817087869790331,0.017558400165036698 l -0.3214168240631166 -18.720918632494616" fill="#ffc912" stroke="none" /><line stroke="#e1ed5e" stroke-width="0.3" x1="101.45913802915013" x2="101.54496967792366" y1="184.9874750549273" y2="189.98673829345242" /><path d="M 101.47630435890484 185.9873277026323 a86.0,86.0 0 0,1 -42.54439059252881,-10.42667462771756" fill="none" id="id55" stroke="none" /><text fill="#e1ed5e" style="font-size:6.75px; font-family:Arial;" text-anchor="middle"><textPath startOffset="22.145653131862474" xlink:href="#id55">July</textPath></text><path d="M 100.36049292484886 120.99690560180557 l 0.3425740014201223 19.953218145590366 a40.95615873137828,40.95615873137828 0 0,0 -0.703066926268972,0.006034983982350788 l -2.4439245913658918e-15 -19.95615873137828" fill="#ffd914" stroke="none" /><path d="M 99.63950707515114 120.99690560180557 l -0.3321311569677649 19.344974809684896 a40.34782575621281,40.34782575621281 0 0,0 -0.6924199623206008,-0.017834282046676357 l 0.6641644333591096 -19.336422810288173" fill="#ffd113" stroke="none" /><path d="M 99.27912038922189 120.98762331915562 l -0.6791689519570026 19.77326299789999 a40.78492355429819,40.78492355429819 0 0,0 -0.6995085152439184,-0.030039905444472333 l 1.0185032278017596 -19.75869052402969" fill="#ffd714" stroke="none" /><path d="M 98.91894614982273 120.97215588758144 l -0.8302629556305081 16.106879532700347 a37.12826416129193,37.12826416129193 0 0,0 -0.6362293120933039,-0.0382739755187786 l 1.1066366198562583 -16.09025357935688" fill="#ffa50f" stroke="none" /><path d="M 98.55909050195518 120.95050786540614 l -1.9053197271311695 27.702930672286655 a48.76837429696085,48.76837429696085 0 0,0 -0.8347078950825798,-0.06461167014107054 l 2.3805966169889854 -27.666141235150533" fill="#c1ff1e" stroke="none" /><path d="M 98.19965949673042 120.92268563240118 l -1.2880442868873512 14.969027051389398 a36.024341215181806,36.024341215181806 0 0,0 -0.6156738948045686,-0.05830495795172795 l 1.544817745076935 -14.944710337932486" fill="#ff950d" stroke="none" /><path d="M 97.84075906011543 120.88869738790638 l -1.6770912415405546 16.224336427375086 a37.31078561998478,37.31078561998478 0 0,0 -0.63652928431951,-0.07132443398103508 l 1.955356427460864 -16.19315623288708" fill="#ffa70f" stroke="none" /><path d="M 97.12497278360702 120.80226474461374 l -2.633071293890236 19.051592219591882 a40.23268651385767,40.23268651385767 0 0,0 -0.6833328196880621,-0.10042639263614035 l 2.959729219185983 -19.00358475365686" fill="#ffcf13" stroke="none" /><path d="M 96.76829788921471 120.74984581791261 l -2.1209290814229584 13.617886154599635 a34.78205947919476,34.78205947919476 0 0,0 -0.5891790974712391,-0.09694919627994944 l 2.354385681947261 -13.579470959824016" fill="#ff840c" stroke="none" /><path d="M 96.41257539226777 120.69131181640829 l -3.3307070001655354 19.21063287601305 a40.49723120388906,40.49723120388906 0 0,0 -0.6839505378748455,-0.12463857159195318 l 3.659992271591438 -19.15062613048973" fill="#ffd313" stroke="none" /><path d="M 96.05791012581884 120.62667999033965 l -5.361290869247759 28.05253929378607 a49.56025911321693,49.56025911321693 0 0,0 -0.8342726559294547,-0.16687789635430889 l 5.842060010708172 -27.956372000768898" fill="#b7ff1f" stroke="none" /><path d="M 95.70440661134978 120.55596938700252 l -2.5944173644874096 12.41522627873046 a33.68340825698019,33.68340825698019 0 0,0 -0.5649791583080822,-0.12313457795119175 l 2.807158939414628 -12.36886024264555" fill="#ff740a" stroke="none" /><path d="M 95.35216902796893 120.47920084513623 l -4.4281254380507 19.51113772402712 a41.00731841554649,41.00731841554649 0 0,0 -0.6851499758745443,-0.16169352873972964 l 4.762407567665132 -19.43224805164116" fill="#ffda14" stroke="none" /><path d="M 94.6519064749342 120.30758222061772 l -4.883113552545092 18.541977528282274 a40.17419434099838,40.17419434099838 0 0,0 -0.6653967616315885,-0.18135684627065513 l 5.200691715111375 -18.455420187867475" fill="#ffcf13" stroke="none" /><path d="M 94.30408787586889 120.21278271476187 l -5.525545245764762 19.608210765763157 a41.371882085305316,41.371882085305316 0 0,0 -0.6819267977503431,-0.19849895231748985 l 5.861332055896711 -19.51046811914315" fill="#ffdf14" stroke="none" /><path d="M 93.95794788825049 120.11202640906438 l -9.07429876927615 30.205389347192806 a52.538998775636415,52.538998775636415 0 0,0 -0.8615379222826748,-0.266906650600342 l 9.591477324430457 -30.045166108785814" fill="#94ff23" stroke="none" /><path d="M 93.61358852112213 120.00534299687104 l -6.5605661758196065 20.550880104581427 a42.57266097680555,42.57266097680555 0 0,0 -0.694293732494624,-0.2282281402968039 l 6.912382645961974 -20.435231042882602" fill="#ffef16" stroke="none" /><path d="M 93.27111125876986 119.89276391827306 l -4.316776328520821 12.761782174385539 a34.47210607651759,34.47210607651759 0 0,0 -0.5589311021193318,-0.1944252512554553 l 4.535213202685174 -12.685798490561494" fill="#ff7f0b" stroke="none" /><path d="M 92.93061703081489 119.77432235084164 l -7.423970556029676 20.76616693960351 a43.05332238417326,43.05332238417326 0 0,0 -0.6937957786731804,-0.25477142000167147 l 7.779355486356975 -20.635664670593123" fill="#fff517" stroke="none" /><path d="M 92.25597844496254 119.51999308798841 l -8.10866895030458 20.439142729370403 a42.988839615978115,42.988839615978115 0 0,0 -0.6836157718264539,-0.27802058308184924 l 8.458339183321474 -20.296934889709263" fill="#fff417" stroke="none" /><path d="M 91.92203290615298 119.3841803445677 l -7.208981908588726 17.298932242896814 a39.74093052392796,39.74093052392796 0 0,0 -0.6274618400868234,-0.2678261483457235 l 7.5048788238459805 -17.17263144489169" fill="#ffc912" stroke="none" /><path d="M 91.26138138417905 119.09545874513695 l -13.974442238238998 30.53667827584016 a54.58234291993408,54.58234291993408 0 0,0 -0.8486548088902406,-0.3972133016540054 l 14.496585761000729 -30.29228874261563" fill="#7cff26" stroke="none" /><path d="M 90.93487009805054 118.94263497670748 l -8.306045550778947 17.356440632414447 a40.2415286325734,40.2415286325734 0 0,0 -0.6205622191278984,-0.30354807814482154 l 8.602768019168915 -17.211298804172404" fill="#ffd013" stroke="none" /><path d="M 90.6110303473126 118.78422872680471 l -10.071879517499022 20.150505919610538 a43.52744206143422,43.52744206143422 0 0,0 -0.6654988930650362,-0.33980847666635566 l 10.416305632277641 -19.974639491271347" fill="#fffb17" stroke="none" /><path d="M 89.97174638481275 118.45085714620012 l -10.433324540955086 19.19614202552372 a42.848252324636256,42.848252324636256 0 0,0 -0.6432457415569223,-0.3567975696568555 l 10.76131447066811 -19.014211540433717" fill="#fff216" stroke="none" /><line stroke="#e1ed5e" stroke-width="0.3" x1="58.13341422392154" x2="55.67067388415222" y1="173.97424548756322" y2="178.32567169271397" /><path d="M 57.64086615596768 174.84453072859336 a86.0,86.0 0 0,1 -31.369924170532247,-30.572349798747897" fill="none" id="id56" stroke="none" /><text fill="#e1ed5e" style="font-size:6.75px; font-family:Arial;" text-anchor="middle"><textPath startOffset="22.145653131862474" xlink:href="#id56">August</textPath></text><path d="M 89.65649057296885 118.27599006163327 l -11.099341640193789 19.611473159847787 a43.53453492631188,43.53453492631188 0 0,0 -0.6472290339137651,-0.37367785695745653 l 11.434363141967953 -19.418048405614158" fill="#fffb17" stroke="none" /><path d="M 89.34428304082925 118.09573695890944 l -8.902569451749486 15.118509216654186 a38.544944108696406,38.544944108696406 0 0,0 -0.567284744015373,-0.34063818936664636 l 9.160786952322287 -14.96345702675162" fill="#ffb811" stroke="none" /><path d="M 89.03521579738668 117.91015095944536 l -13.847397147479725 22.618682568111552 a47.520844799459596,47.520844799459596 0 0,0 -0.6920751890424564,-0.431906103622159 l 14.233636465311895 -22.377640667647846" fill="#d0ff1d" stroke="none" /><path d="M 88.72937992617639 117.7192867562869 l -10.34172194349163 16.258904609526525 a40.26922914540639,40.26922914540639 0 0,0 -0.5800962092581055,-0.3760113543175379 l 10.619303785006744 -16.078979413505092" fill="#ffd013" stroke="none" /><path d="M 88.4268655584334 117.5232005979908 l -8.499972585732245 12.87004185851715 a36.423602413125906,36.423602413125906 0 0,0 -0.5187826039354676,-0.34906008845978176 l 8.719651477764717 -12.722232096000248" fill="#ff9b0e" stroke="none" /><path d="M 87.83215693770417 117.11559508785305 l -13.051292407714135 18.35827722957649 a43.52471034996107,43.52471034996107 0 0,0 -0.6052400923886639,-0.4381471521044061 l 13.364513510476751 -18.13152930609902" fill="#fffb17" stroke="none" /><path d="M 87.54013794807813 116.9041958592261 l -13.36941855563205 18.13818394189338 a43.53297737152455,43.53297737152455 0 0,0 -0.5977430432806833,-0.4485575233211481 l 13.6788145878235 -17.90600739130822" fill="#fffb17" stroke="none" /><path d="M 87.2517909369889 116.68781488649013 l -10.199455559429412 13.351414734215071 a37.801463302754044,37.801463302754044 0 0,0 -0.5122819302000076,-0.3983535274330785 l 10.427147434264647 -13.1743601551612" fill="#ffae10" stroke="none" /><path d="M 86.96720088162412 116.46651593811092 l -14.93800850704859 18.873685762418567 a45.06990054851032,45.06990054851032 0 0,0 -0.6025399932932968,-0.48536356702890043 l 15.259799270697147 -18.614473901596256" fill="#efff19" stroke="none" /><path d="M 86.68645165197938 116.24036423190432 l -7.9050884968162105 9.642922616705665 a33.46901683110058,33.46901683110058 0 0,0 -0.44119442234363043,-0.3680600787424394 l 8.069457253321733 -9.505800354051356" fill="#ff710a" stroke="none" /><path d="M 86.40962598614128 116.0094264158162 l -6.999252924828198 8.245102346076477 a31.815324969828318,31.815324969828318 0 0,0 -0.4133273099896262,-0.35702228603246067 l 7.139759714580687 -8.123735927579293" fill="#ff5908" stroke="none" /><path d="M 86.13680546590413 115.77377054828092 l -8.280786793523273 9.42201528796406 a33.54375549851072,33.54375549851072 0 0,0 -0.4292562016255087,-0.38384354241861907 l 8.441308021972151 -9.278476215662058" fill="#ff720a" stroke="none" /><path d="M 85.60350026404147 115.28858382429668 l -22.347097738341603 23.73184338336244 a53.597441121956734,53.597441121956734 0 0,0 -0.6644232672028176,-0.636502460117941 l 22.751193491409733 -23.344728792938916" fill="#87ff25" stroke="none" /><path d="M 85.34317274990678 115.03919595460226 l -25.09230901114718 25.746919557210088 a56.95174318717168,56.95174318717168 0 0,0 -0.6942907818380624,-0.6883567082489491 l 25.530591713115204 -25.31238283873248" fill="#62ff29" stroke="none" /><path d="M 84.58840730492382 114.26474011684316 l -17.774387697796076 16.451707896879487 a45.21956958238134,45.21956958238134 0 0,0 -0.5223986451250623,-0.5742076217655363 l 18.05418404376302 -16.144162699556276" fill="#edff1a" stroke="none" /><path d="M 84.1078160697243 113.72728997021213 l -14.95935748048964 12.92153670028538 a40.76735912877346,40.76735912877346 0 0,0 -0.45291650077146695,-0.5335344990664449 l 15.17896854476822 -12.66283541876938" fill="#ffd714" stroke="none" /><path d="M 83.64595745247003 113.17365903436017 l -19.037039547613233 15.33489149823477 a45.445199365111,45.445199365111 0 0,0 -0.4841722221029581,-0.611735785968481 l 19.297478200357755 -15.005835768351607" fill="#eaff1a" stroke="none" /><path d="M 83.4222238831116 112.89097897827486 l -25.17692041114049 19.577725592944553 a52.893018997604145,52.893018997604145 0 0,0 -0.5512158390184463,-0.7215592275412825 l 25.50928822751323 -19.1426454521624" fill="#8fff24" stroke="none" /><path d="M 83.20337586046588 112.60449989151573 l -30.66771639503854 23.013626116957337 a59.34235016189822,59.34235016189822 0 0,0 -0.6044385167990087,-0.8200369338161781 l 31.05825693142138 -22.48378287387228" fill="#48ff2c" stroke="none" /><path d="M 82.98947788004972 112.3143062007846 l -13.630779453578446 9.867633148653702 a37.82760626079971,37.82760626079971 0 0,0 -0.37626741936355196,-0.5292672465947191 l 13.79816197147196 -9.632188675349479" fill="#ffaf10" stroke="none" /><path d="M 82.576782715395 111.72311816256416 l -18.543977609889527 12.477215727359713 a43.350839310933196,43.350839310933196 0 0,0 -0.41013106301700336,-0.6209907026485114 l 18.75543311182726 -12.157045146372141" fill="#fff917" stroke="none" /><path d="M 82.18462484594161 111.11811171558189 l -34.56475686682566 21.5709646832641 a61.743452659653165,61.743452659653165 0 0,0 -0.5534331321751369,-0.9039914292935167 l 34.929957963456204 -20.974436137846027" fill="#2fff30" stroke="none" /><path d="M 81.99639281039703 110.81064883170644 l -13.473775289907861 8.090614928581422 a36.716254976473124,36.716254976473124 0 0,0 -0.3198270619416951,-0.5431362720512944 l 13.610676061979326 -7.858127488236569" fill="#ff9f0e" stroke="none" /><line stroke="#e1ed5e" stroke-width="0.3" x1="26.387840678322732" x2="22.057713659400548" y1="142.50000000000003" y2="145.00000000000006" /><path d="M 25.521815274538298 143.00000000000003 a86.0,86.0 0 0,1 -11.493303480769221,-40.785679425670985" fill="none" id="id57" stroke="none" /><text fill="#e1ed5e" style="font-size:6.75px; font-family:Arial;" text-anchor="middle"><textPath startOffset="21.40746469413373" xlink:href="#id57">September</textPath></text><path d="M 81.81346652052679 110.50000000000001 l -24.923417477608215 14.389541789822543 a49.77908357964506,49.77908357964506 0 0,0 -0.4209097315979588,-0.7437071649420773 l 25.166760574227553 -13.959577854781344" fill="#b4ff20" stroke="none" /><path d="M 81.29705330413844 109.54985784667822 l -51.32856131422342 26.20872913752164 a78.63261827812414,78.63261827812414 0 0,0 -0.6035243923074479,-1.20745306957766 l 51.77090561974261 -25.32374421178023" fill="#46fff6" stroke="none" /><path d="M 81.1358732173502 109.22738970284198 l -17.4594418356201 8.540287905589402 a40.43627090575139,40.43627090575139 0 0,0 -0.2996534516041454,-0.6261604648408999 l 17.60347454518416 -8.239314938683398" fill="#ffd213" stroke="none" /><path d="M 80.83023694016515 108.57439118712176 l -22.38132712112647 10.010882942291804 a45.51818877868307,45.51818877868307 0 0,0 -0.3129182957903468,-0.7160182985096345 l 22.549879298933785 -9.625202574006321" fill="#e9ff1a" stroke="none" /><path d="M 80.68587082218212 108.24405325689762 l -19.54292018405683 8.34171053270684 a42.248761468186515,42.248761468186515 0 0,0 -0.27899101504667795,-0.6694768729991578 l 19.68323704363999 -8.0050011502664" fill="#ffea16" stroke="none" /><path d="M 80.5471966667186 107.91128576633889 l -33.82798535681793 13.757547150000951 a57.51852539308766,57.51852539308766 0 0,0 -0.36412328475008054,-0.9178285405047327 l 34.05916731653414 -13.174817592282654" fill="#5bff2a" stroke="none" /><path d="M 80.28708602549918 107.23885506374661 l -34.26591589513576 12.582918949084487 a57.503189469027866,57.503189469027866 0 0,0 -0.3323132045662922,-0.9295391772066515 l 34.476869269746 -11.992844815496914" fill="#5bff2a" stroke="none" /><path d="M 80.16572619554312 106.89939002012753 l -13.922430964816419 4.842944198591453 a35.74069850721972,35.74069850721972 0 0,0 -0.19659865337002888,-0.5812089853971126 l 14.003515039758815 -4.603233538720178" fill="#ff910d" stroke="none" /><path d="M 80.05021161711548 106.5578916946017 l -20.539019885465088 6.751583793124697 a42.62025026615359,42.62025026615359 0 0,0 -0.22250872626544185,-0.6970054158676118 l 20.651893327507782 -6.398009343565693" fill="#ffef16" stroke="none" /><path d="M 79.83685265289637 105.86919833188381 l -49.061766051781746 14.28116506383387 a72.09802896101016,72.09802896101016 0 0,0 -0.3357073328694539,-1.191306892937279 l 49.299691876725774 -13.436850246993593" fill="#3dffaf" stroke="none" /><path d="M 79.73907114497094 105.5222062557868 l -14.3825244260902 3.9200209885761366 a35.90716517041247,35.90716517041247 0 0,0 -0.1569835941488472,-0.596092276719603 l 14.447697501043779 -3.6725482074837306" fill="#ff940d" stroke="none" /><path d="M 79.64726062577567 105.17358676015961 l -18.63448675994646 4.736813664784751 a40.22710327900465,40.22710327900465 0 0,0 -0.16438034445028132,-0.6707279002872332 l 18.713054630913035 -4.416229939889419" fill="#ffcf13" stroke="none" /><path d="M 79.56144815229197 104.8234425847677 l -18.692904654404064 4.411474600298844 a40.20639978152394,40.20639978152394 0 0,0 -0.1527635237350393,-0.6731042723383454 l 18.76587903969677 -4.089935994021472" fill="#ffcf13" stroke="none" /><path d="M 79.407916724674 104.11899336999214 l -35.85658421557637 7.172321065323862 a57.566881478638685,57.566881478638685 0 0,0 -0.1855125862577671,-0.9706802414579596 l 35.97442309411629 -6.555738258832588" fill="#5bff2a" stroke="none" /><path d="M 79.34024301695615 103.76489593502545 l -14.18658842533077 2.5852689912201385 a35.42022561913278,35.42022561913278 0 0,0 -0.10387433615335856,-0.5991195674019275 l 14.228877578976363 -2.3413563908976185" fill="#ff8d0d" stroke="none" /><path d="M 79.2786578344484 103.40968896794605 l -23.68033029020089 3.896589337830047 a44.99878020068304,44.99878020068304 0 0,0 -0.11887929433961741,-0.763290347912018 l 23.743731076678774 -3.489510807986579" fill="#f0ff19" stroke="none" /><path d="M 79.22317932658666 103.0534771498775 l -36.06951645783655 5.300976797285903 a57.4569660354164,57.4569660354164 0 0,0 -0.13503887314041474,-0.9770740165046556 l 36.155199847532174 -4.681014472581162" fill="#5cff2a" stroke="none" /><path d="M 79.13060592940153 102.33845913500099 l -36.2076530767675 4.0571430491889355 a57.434249697902835,57.434249697902835 0 0,0 -0.10137858218627865,-0.9807458194162318 l 36.27196405143544 -3.434992707489772" fill="#5cff2a" stroke="none" /><path d="M 79.0935383218832 101.97986365728391 l -16.73409294520902 1.5847360002821307 a37.80896352811453,37.80896352811453 0 0,0 -0.05564467105748881,-0.6466754247542844 l 16.75883123896425 -1.2972395281521842" fill="#ffae10" stroke="none" /><path d="M 79.00696218219943 100.54070618675478 l -21.588074018576542 0.5560322085480423 a42.59523354003106,42.59523354003106 0 0,0 -0.012552548396822722,-0.7311230140248883 l 21.594437998572033 -0.18536227855410153" fill="#ffef16" stroke="none" /><line stroke="#e1ed5e" stroke-width="0.3" x1="15.003131293944662" x2="10.003315487706104" y1="100.72959589197737" y2="100.7725132973878" /><path d="M 14.003168132696942 100.73817937305945 a86.0,86.0 0 0,1 10.791469493833604,-42.45332614584628" fill="none" id="id58" stroke="none" /><text fill="#e1ed5e" style="font-size:6.75px; font-family:Arial;" text-anchor="middle"><textPath startOffset="22.145653131862435" xlink:href="#id58">October</textPath></text><path d="M 79.00696218219943 99.45929381324524 l -28.761924867552796 -0.7408051590167983 a49.77146354237785,49.77146354237785 0 0,0 0.029330354283893887,-0.8539212627520528 l 28.74496982627205 1.2344326863329897" fill="#b4ff20" stroke="none" /><path d="M 79.01933749520258 99.09900007780938 l -28.793018040462798 -1.236496083389082 a49.8195560417341,49.8195560417341 0 0,0 0.04402722733875729,-0.8541164484035201 l 28.76754922366747 1.730584325169314" fill="#b4ff20" stroke="none" /><path d="M 79.0935383218832 98.0201363427161 l -15.1916344590644 -1.4386635779561876 a36.259603875211525,36.259603875211525 0 0,0 0.06400270310555645,-0.6191680939744678 l 15.16469936347718 1.6992361942135683" fill="#ff990e" stroke="none" /><path d="M 79.17382384314186 97.30363454192245 l -11.96188938032019 -1.5487060656508886 a33.061728235406434,33.061728235406434 0 0,0 0.07770369431327707,-0.5622252239988383 l 11.933541169451706 1.7538195978497941" fill="#ff6b09" stroke="none" /><path d="M 79.22317932658666 96.9465228501225 l -36.17814522653025 -5.316941485446769 a57.56676166673196,57.56676166673196 0 0,0 0.15208181141439375,-0.9764743254107383 l 36.081541922977586 5.937203992788957" fill="#5bff2a" stroke="none" /><path d="M 79.34024301695615 96.23510406497455 l -35.87300713660686 -6.537256893031062 a57.46379531409928,57.46379531409928 0 0,0 0.18518038516400867,-0.9689420249606283 l 35.755500459160686 7.152101483025005" fill="#5cff2a" stroke="none" /><path d="M 79.407916724674 95.88100663000787 l -35.78092412825454 -7.157186928875155 a57.48972261071286,57.48972261071286 0 0,0 0.2018773213993393,-0.9660560633088481 l 35.65278909603084 7.770359443469412" fill="#5cff2a" stroke="none" /><path d="M 79.64726062577567 94.8264132398404 l -36.0223191632372 -9.156732667111545 a58.1679059274944,58.1679059274944 0 0,0 0.2543059830335781,-0.9656412393397339 l 35.859823699398895 9.773754410824063" fill="#54ff2b" stroke="none" /><path d="M 79.73907114497095 94.47779374421319 l -35.28254095717051 -9.616413432367388 a57.56956526534914,57.56956526534914 0 0,0 0.26805899534555255,-0.9512468081630705 l 35.112263469750374 10.220668164433471" fill="#5bff2a" stroke="none" /><path d="M 79.94057633289273 93.78553927170692 l -30.23215817871633 -9.365999883698068 a52.64972893982438,52.64972893982438 0 0,0 0.2748699045984769,-0.8610260612233421 l 30.066923558340594 9.883594978612802" fill="#92ff23" stroke="none" /><path d="M 80.05021161711548 93.44210830539832 l -23.248234293792713 -7.642156380977776 a45.47208515697832,45.47208515697832 0 0,0 0.2501280355778034,-0.7394590923464965 l 23.113620836642543 8.040117147798433" fill="#eaff1a" stroke="none" /><path d="M 80.16572619554312 93.10060997987247 l -18.168437452361516 -6.319925663825764 a40.236256908677845,40.236256908677845 0 0,0 0.2325269188812075,-0.6504191765034655 l 18.057270363436366 6.6308797967101505" fill="#ffd013" stroke="none" /><path d="M 80.41425534168474 92.42381321644754 l -34.042182363075945 -13.168247447406653 a57.50031398326665,57.50031398326665 0 0,0 0.3640079967047119,-0.9175379393186789 l 33.81111569140511 13.750686403938914" fill="#5cff2a" stroke="none" /><path d="M 80.5471966667186 92.08871423366112 l -18.238128231748174 -7.41728797708219 a40.688714593204345,40.688714593204345 0 0,0 0.26868919681470826,-0.644756259487678 l 18.108113190396985 7.7292767460111325" fill="#ffd614" stroke="none" /><path d="M 80.68587082218212 91.75594674310238 l -16.993043537976032 -7.253319817532762 a39.47631394675254,39.47631394675254 0 0,0 0.2713829617510343,-0.6209773258118245 l 16.866026694208017 7.543959213120454" fill="#ffc512" stroke="none" /><path d="M 80.9802524753101 91.09779779509293 l -46.04149923651883 -21.549746414273063 a71.83513767529148,71.83513767529148 0 0,0 0.532335115694345,-1.112375651639906 l 45.66478486286458 22.336934567978055" fill="#3dffac" stroke="none" /><path d="M 81.29705330413844 90.45014215332179 l -17.151697945674833 -8.757779181747923 a40.25823041236976,40.25823041236976 0 0,0 0.31955819843284367,-0.6127949808228196 l 16.99883167826705 9.05092040567523" fill="#ffd013" stroke="none" /><path d="M 81.46374523516351 90.13048839642627 l -38.1247055530223 -20.299258324404263 a64.19204859723078,64.19204859723078 0 0,0 0.5262361754157471,-0.968215291549294 l 37.770624027991204 20.950728449428176" fill="#33ff50" stroke="none" /><path d="M 81.63589988554816 89.8137432299009 l -16.808999941701586 -9.323668918577125 a40.22168778082104,40.22168778082104 0 0,0 0.34009665487626256,-0.6009182017342927 l 16.646469921803952 9.610843890410523" fill="#ffcf13" stroke="none" /><line stroke="#e1ed5e" stroke-width="0.3" x1="26.387840678322718" x2="22.05771365940052" y1="57.49999999999999" y2="54.99999999999999" /><path d="M 25.521815274538284 56.99999999999999 a86.0,86.0 0 0,1 29.574782752854787,-30.34633250058573" fill="none" id="id59" stroke="none" /><text fill="#e1ed5e" style="font-size:6.75px; font-family:Arial;" text-anchor="middle"><textPath startOffset="21.40746469413373" xlink:href="#id59">November</textPath></text><path d="M 81.99639281039701 89.18935116829357 l -16.721732657595936 -10.04092000648305 a40.504779354012236,40.504779354012236 0 0,0 0.3630617650995664,-0.5930341081392224 l 16.546902928040975 10.326491230746816" fill="#ffd313" stroke="none" /><path d="M 82.18462484594161 88.88188828441811 l -30.917109793029752 -19.294563130404292 a57.44376276329618,57.44376276329618 0 0,0 0.5292548486255854,-0.8320765289332 l 30.581337252778276 19.822453334016163" fill="#5cff2a" stroke="none" /><path d="M 82.37810715431573 88.57770195909679 l -30.58606257141375 -19.825516228465997 a57.44939392291188,57.44939392291188 0 0,0 0.5435138367285037,-0.8229492223446457 l 30.241224295764514 20.347645329149703" fill="#5cff2a" stroke="none" /><path d="M 82.78059297857968 87.97951657250589 l -35.49328225881421 -24.77706756386644 a64.285981132097,64.285981132097 0 0,0 0.6394462302229592,-0.899461202853914 l 35.06272093006128 25.382705993429873" fill="#33ff51" stroke="none" /><path d="M 82.98947788004972 87.6856937992154 l -15.762438164140473 -11.410789666268403 a40.459202904697044,40.459202904697044 0 0,0 0.41210199002681863,-0.5590954959501886 l 15.564234154529837 11.679691471487455" fill="#ffd313" stroke="none" /><path d="M 83.42222388311158 87.10902102172516 l -45.10474757627744 -35.07372452894007 a78.136716796222,78.136716796222 0 0,0 0.8324669784175329,-1.0517948326799322 l 44.49601416721834 35.84283930553468" fill="#45fff1" stroke="none" /><path d="M 83.64595745247003 86.82634096563983 l -16.844367548871332 -13.56863014715508 a42.62961955725887,42.62961955725887 0 0,0 0.46395881640279163,-0.5659543173630989 l 16.608961913229912 13.855786746216673" fill="#ffef16" stroke="none" /><path d="M 83.8745106332314 86.54754324733833 l -27.99247531234821 -23.352318492444887 a57.454210361561906,57.454210361561906 0 0,0 0.6383037917503935,-0.7519202616899084 l 27.5874769570907 23.829405536584353" fill="#5cff2a" stroke="none" /><path d="M 84.34580500576568 86.00192230759919 l -18.96032909132361 -16.954443188652586 a46.43515722555181,46.43515722555181 0 0,0 0.5364417097470626,-0.589643409767952 l 18.666489680734685 17.277424173978197" fill="#deff1b" stroke="none" /><path d="M 84.58840730492382 85.73525988315684 l -14.262324159846626 -13.200994318217672 a40.43399447952376,40.43399447952376 0 0,0 0.4758583740168617,-0.5053451028432144 l 14.033609952093494 13.443880881005398" fill="#ffd213" stroke="none" /><path d="M 84.83555147118756 85.47280134310135 l -14.039545098302497 -13.449566616815185 a40.44221357632456,40.44221357632456 0 0,0 0.4845616536419747,-0.4972029441884459 l 13.80659664350972 13.68859225307136" fill="#ffd213" stroke="none" /><path d="M 85.08716467003674 85.21462403516908 l -22.186197715942413 -21.996573233876777 a52.24222468269814,52.24222468269814 0 0,0 0.6368776966264713,-0.6314343302187517 l 21.805328099185967 22.374187574324203" fill="#97ff23" stroke="none" /><path d="M 85.34317274990677 84.96080404539775 l -33.83561000139584 -34.71831661598215 a69.47896464255544,69.47896464255544 0 0,0 0.8612993404785306,-0.8251052847991251 l 33.23463817505201 35.29403403108684" fill="#3aff90" stroke="none" /><path d="M 85.86807049272753 84.46653392183569 l -24.55435255839921 -26.989534751139274 a57.48768580829867,57.48768580829867 0 0,0 0.7356643668418295,-0.6578356131615593 l 24.087423164733988 27.407065894184235" fill="#5cff2a" stroke="none" /><path d="M 86.13680546590413 84.22622945171909 l -5.181611650724836 -5.89572288319354 a28.849117632851435,28.849117632851435 0 0,0 0.37479196576082413,-0.3237363734951056 l 5.079640205201163 5.983803389153357" fill="#ff2c04" stroke="none" /><path d="M 86.40962598614128 83.9905735841838 l -21.932489489494685 -25.83641747016437 a54.89033140734109,54.89033140734109 0 0,0 0.7235739304719369,-0.6036311075983043 l 21.48574122486084 26.20911076167456" fill="#79ff26" stroke="none" /><path d="M 86.96720088162412 83.53348406188908 l -36.05925774204557 -45.55969419406178 a79.10297586151418,79.10297586151418 0 0,0 1.0719962038069155,-0.8335907319913309 l 35.27185159360341 46.17198597767391" fill="#47fffb" stroke="none" /><path d="M 87.25179093698888 83.31218511350988 l -15.437782820817702 -20.208553271936427 a46.430508523571184,46.430508523571184 0 0,0 0.6375284931488375,-0.4784132666170205 l 15.088601338758112 20.470585565817448" fill="#deff1b" stroke="none" /><path d="M 87.54013794807813 83.09580414077388 l -11.3968368745267 -15.461998046192951 a40.208364696794106,40.208364696794106 0 0,0 0.559124096822516,-0.40476272767867527 l 11.129731767330217 15.655361545244707" fill="#ffcf13" stroke="none" /><path d="M 87.83215693770416 82.88440491214696 l -9.120838821363716 -12.829602036186792 a36.741295664977,36.741295664977 0 0,0 0.5171860645334884,-0.3610360397383157 l 8.899257665656462 12.984282891730235" fill="#ff9f0e" stroke="none" /><path d="M 88.12776184653039 82.6780497279521 l -20.60313816077721 -30.06059430881758 a57.443499177101394,57.443499177101394 0 0,0 0.8181697061223127,-0.5505010920329437 l 20.084072166557906 30.409845074907633" fill="#5cff2a" stroke="none" /><path d="M 88.72937992617638 82.28071324371311 l -19.557145365737604 -30.747080870442886 a57.439880857518546,57.439880857518546 0 0,0 0.8365321906797667,-0.5220579566374945 l 19.026449046268137 31.078274623921914" fill="#5cff2a" stroke="none" /><path d="M 89.03521579738668 82.08984904055464 l -19.009245678741205 -31.05017421594993 a57.40693258317134,57.40693258317134 0 0,0 0.8448858289511417,-0.507329664743558 l 18.47342709323263 31.37191788122941" fill="#5dff2a" stroke="none" /><line stroke="#e1ed5e" stroke-width="0.3" x1="56.869717070023135" x2="54.33264160355391" y1="26.7553504044142" y2="22.446841604673864" /><path d="M 56.362301976729285 25.89364864446614 a86.0,86.0 0 0,1 42.16139366436587,-11.88097634709845" fill="none" id="id60" stroke="none" /><text fill="#e1ed5e" style="font-size:6.75px; font-family:Arial;" text-anchor="middle"><textPath startOffset="22.145653131862474" xlink:href="#id60">December</textPath></text><path d="M 89.34428304082924 81.90426304109057 l -8.087475017763458 -13.734300671082016 a36.9385779505774,36.9385779505774 0 0,0 0.5491667744140963,-0.3170615850379753 l 7.8505157754889625 13.871109153396166" fill="#ffa20f" stroke="none" /><path d="M 89.65649057296885 81.72400993836675 l -16.35912229533591 -28.90500159503568 a54.21325036010134,54.21325036010134 0 0,0 0.8138591549985815,-0.4514339540649461 l 15.860518952181227 29.181568464533775" fill="#80ff25" stroke="none" /><path d="M 90.28995756902619 81.37971332152246 l -17.7530370530865 -34.043789374971055 a59.39466004037091,59.39466004037091 0 0,0 0.9080956435494838,-0.46368010603400417 l 17.166014187823436 34.343527432677895" fill="#47ff2c" stroke="none" /><path d="M 90.61103034731259 81.2157712731953 l -9.671197162053414 -19.34887280225021 a42.63124899919022,42.63124899919022 0 0,0 0.6574139547402433,-0.3215741086968388 l 9.337622958051117 19.512040661044264" fill="#ffef16" stroke="none" /><path d="M 91.26138138417902 80.90454125486306 l -24.95460116407868 -54.5303071319863 a80.9690463086332,80.9690463086332 0 0,0 1.2688489487492343,-0.5675399956684675 l 24.01483881247383 54.95065087856461" fill="#49f0ff" stroke="none" /><path d="M 91.5904679813234 80.7573450057729 l -8.290249464529989 -18.969713166884535 a41.70213162498037,41.70213162498037 0 0,0 0.6584268636890191,-0.2810432756273809 l 7.963387525670538 19.10923109217132" fill="#ffe315" stroke="none" /><path d="M 91.92203290615298 80.6158196554323 l -8.14676952520432 -19.549281133179516 a42.17886320180775,42.17886320180775 0 0,0 0.6707353903953512,-0.2727822440859185 l 7.809979673618527 19.686250633844725" fill="#ffe915" stroke="none" /><path d="M 92.592206182469 80.34994680014964 l -12.032397110541083 -31.917362870483096 a55.11006644426027,55.11006644426027 0 0,0 0.8880878256095022,-0.32611815086195944 l 11.482720133277455 32.11921187035378" fill="#76ff27" stroke="none" /><path d="M 92.93061703081487 80.22567764915836 l -7.66772801096939 -21.447999924237234 a43.777417623608805,43.777417623608805 0 0,0 0.7098075245530524,-0.2469079029257068 l 7.298414714371334 21.57646625973153" fill="#fffe18" stroke="none" /><path d="M 93.27111125876988 80.10723608172694 l -5.026609427002765 -14.860277600971562 a36.687404269335644,36.687404269335644 0 0,0 0.598314370331996,-0.19667781756157576 l 4.770772319023008 14.944376339935166" fill="#ff9f0e" stroke="none" /><path d="M 93.95794788825049 79.88797359093562 l -11.055619164927926 -36.800560554782436 a59.42535585087184,59.42535585087184 0 0,0 0.9794996161161119,-0.2851180628710447 l 10.42225953643019 36.984922311956" fill="#47ff2c" stroke="none" /><path d="M 94.30408787586887 79.78721728523814 l -9.885856696640769 -35.08141786666952 a57.44771655621784,57.44771655621784 0 0,0 0.9514944900993054,-0.2593340543846178 l 9.282180805606785 35.245952415198275" fill="#5cff2a" stroke="none" /><path d="M 95.00130118170881 79.60360301121753 l -5.956746903465529 -24.3055601110045 a46.024849369808386,46.024849369808386 0 0,0 0.7689828463252341,-0.18147785790101983 l 5.53863190340039 24.40423411255175" fill="#e3ff1b" stroke="none" /><path d="M 95.35216902796891 79.52079915486377 l -8.599535884815941 -37.89114182935563 a59.85473776216462,59.85473776216462 0 0,0 1.003956580154346,-0.2188076638947761 l 7.947816888042476 38.03318095138412" fill="#42ff2d" stroke="none" /><path d="M 95.70440661134978 79.44403061299748 l -3.247750480422249 -15.541661747728977 a36.877378028626296,36.877378028626296 0 0,0 0.6207753684534351,-0.12417245951884426 l 2.9804786264378373 15.595123603910688" fill="#ffa10e" stroke="none" /><path d="M 96.05791012581881 79.37332000966035 l -11.826269622543562 -61.88003997101895 a84.0,84.0 0 0,0 1.4186610657958458,-0.25852730427455484 l 10.762273823196677 62.07393544922487" fill="#4dd2ff" stroke="none" /><path d="M 96.41257539226777 79.30868818359171 l -4.523389597657397 -26.089709155279618 a47.47893459448994,47.47893459448994 0 0,0 0.8042535793491334,-0.13233962042752084 l 4.074858515255191 26.163514774202806" fill="#d1ff1d" stroke="none" /><path d="M 96.76829788921471 79.25015418208739 l -3.9856374038223783 -25.590651235897354 a46.899164777885844,46.899164777885844 0 0,0 0.7965597449638199,-0.1170668514683583 l 3.5457525532508734 25.655299160664597" fill="#d8ff1c" stroke="none" /><path d="M 97.48249496171623 79.15144685158666 l -4.3672441108482 -36.167046171706794 a57.42976873259161,57.42976873259161 0 0,0 0.9797630626788829,-0.10978449476335402 l 3.745745146568518 36.23668642697712" fill="#5cff2a" stroke="none" /><path d="M 97.84075906011542 79.11130261209362 l -2.6764994791450536 -25.89270453613141 a47.03067032669854,47.03067032669854 0 0,0 0.8037775292641667,-0.07611856770566343 l 2.231622386495871 25.93483485934226" fill="#d6ff1c" stroke="none" /></svg>