<?xml version="1.0" encoding="utf-8" ?>
<svg baseProfile="full" height="200mm" version="1.1" viewBox="0,0,200,200" width="200mm" xmlns="http://www.w3.org/2000/svg" xmlns:ev="http://www.w3.org/2001/xml-events" xmlns:xlink="http://www.w3.org/1999/xlink"><defs /><rect fill="#1a1a1a" height="200" width="200" x="0" y="0" /><text alignment-baseline="middle" fill="#e1ed5e" style="dominant-baseline: central; font-size:9.0px; font-family:Arial;" text-anchor="middle" x="100.0" y="100.0">2026</text><line stroke="#e1ed5e" stroke-width="0.3" x1="100.0" x2="100.0" y1="15.0" y2="10.0" /><path d="M 100.0 14.0 a86.0,86.0 0 0,1 42.46469731375804,11.215312516191453" fill="none" id="id73" stroke="none" /><text fill="#e1ed5e" style="font-size:6.75px; font-family:Arial;" text-anchor="middle"><textPath startOffset="22.20632615414155" xlink:href="#id73">January</textPath></text><path d="M 100.0 79.0 l 0.0 -8.148665970375998 a29.148665970375998,29.148665970375998 0 0,0 0.5017463688155407,0.004318689403377323 l -0.14026588954301228 8.14745865758118" fill="#ff5207" stroke="none" /><path d="M 100.72285384407766 79.0124445844662 l 2.1685615322329816 -62.9626662466014 a84.0,84.0 0 0,0 1.4446366704426739,0.062209093903220936 l -3.2520390350649873 62.916009426173986" fill="#4dd2ff" stroke="none" /><path d="M 101.44485096284872 79.0497635885617 l 0.5608069132801069 -8.131660438681106 a29.150975762692106,29.150975762692106 0 0,0 0.500299888311183,0.038832900186273195 l -0.7006969909536311 8.120802276306367" fill="#ff5207" stroke="none" /><path d="M 102.16513564639614 79.11191278185805 l 2.320806190642261 -22.38991455672978 a43.509873727593046,43.509873727593046 0 0,0 0.7442950175732784,0.08363021750613564 l -2.705867911725264 22.346648385753046" fill="#eeff19" stroke="none" /><path d="M 102.52436894288641 79.15227682838746 l 1.7856104015823713 -14.74662071463153 a35.85433361034546,35.85433361034546 0 0,0 0.6120595484988073,0.07946289562180621 l -2.0391846785890246 14.713699495845587" fill="#ffae10" stroke="none" /><path d="M 102.88285421437855 79.19881850522331 l 3.33660282007737 -24.075196203209448 a45.30530786889931,45.30530786889931 0 0,0 0.7715515926261003,0.11370664864173574 l -3.750523393132126 24.014195070406743" fill="#d8ff1c" stroke="none" /><path d="M 103.2404852339499 79.25152402106235 l 1.25911317619362 -8.061965293751152 a29.159696709321523,29.159696709321523 0 0,0 0.4952577225744446,0.08172176775670004 l -1.3977001049069397 8.039097263054828" fill="#ff5207" stroke="none" /><path d="M 103.59715602781102 79.31037775812273 l 4.159312683577002 -23.92295678689913 a45.28183978671319,45.28183978671319 0 0,0 0.7667830073139043,0.1401246934329778 l -4.570490811993807 23.847816612115416" fill="#d8ff1c" stroke="none" /><path d="M 103.95276090670814 79.375362276772 l 2.79199700014849 -14.568026756861968 a35.83316051411446,35.83316051411446 0 0,0 0.6047845591027817,0.1213140930382822 l -3.042347968718397 14.517808707746477" fill="#ffae10" stroke="none" /><path d="M 104.66035177308747 79.52364482259891 l 7.26001007858135 -31.89856736116237 a53.71431408475067,53.71431408475067 0 0,0 0.8997820650509801,0.2129493440049909 l -7.8080158305948535 31.768872105016513" fill="#78ff26" stroke="none" /><path d="M 105.01212808612495 79.60689891045804 l 3.5426391448540673 -14.41411651166179 a35.84308077598493,35.84308077598493 0 0,0 0.5978815522843893,0.15241332006536693 l -3.790229585823482 14.351000195427556" fill="#ffae10" stroke="none" /><path d="M 105.36241919743992 79.69619591428918 l 3.0352990915886364 -11.492596126497087 a32.88666506225252,32.88666506225252 0 0,0 0.5460785487428712,0.14926389560811243 l -3.2326755295552188 11.438645690062682" fill="#ff860c" stroke="none" /><path d="M 105.71112130821622 79.79150937346287 l 3.6682287145382664 -12.979826831395755 a34.48820990625458,34.48820990625458 0 0,0 0.5698926766989594,0.16636729981457685 l -3.8911116089606526 12.914761202662476" fill="#ff9c0e" stroke="none" /><path d="M 106.0581310904928 79.89281104454417 l 11.537791282623672 -38.29440894938676 a60.99477946512844,60.99477946512844 0 0,0 1.0026804790307737,0.31153770563333716 l -12.195257134365166 38.0901311088709" fill="#30ff33" stroke="none" /><path d="M 106.40334571778207 80.00007090966166 l 4.973930732054379 -15.535357034540782 a37.3121827208357,37.3121827208357 0 0,0 0.6099958698901214,0.20110604771096532 l -5.2406094241869186 15.447437262570581" fill="#ffc212" stroke="none" /><path d="M 107.08798089147638 80.2323363322302 l 9.002975841642154 -25.108391398268747 a47.67367414912779,47.67367414912779 0 0,0 0.770083469844913,0.2836282409456247 l -9.433841637259645 24.949699889516797" fill="#bcff1f" stroke="none" /><path d="M 107.4271985657038 80.35727306442388 l 4.721830183950701 -12.487833753064036 a34.35071803800205,34.35071803800205 0 0,0 0.5512747749122047,0.21388604809844614 l -4.9360881238625725 12.404705001075042" fill="#ff9a0e" stroke="none" /><path d="M 108.09893153111575 80.62456947434976 l 5.7178320172254 -13.679021310583542 a35.82596462266812,35.82596462266812 0 0,0 0.5669309493781988,0.24273024560483694 l -5.952446724393915 13.578571537015913" fill="#ffae10" stroke="none" /><path d="M 108.43124777332544 80.76684994638697 l 14.948112183695235 -34.09925699928242 a58.23177924514821,58.23177924514821 0 0,0 0.9145658127878523,0.4103390212443499 l -15.532860114949868 33.83689764752154" fill="#48ff2c" stroke="none" /><path d="M 108.76106565485865 80.91482961587045 l 9.39587377019924 -20.468041089565308 a43.5216151718666,43.5216151718666 0 0,0 0.6781533696985116,0.3184021001173732 l -9.746805351197349 20.303274006807932" fill="#eeff19" stroke="none" /><path d="M 109.41281617654863 81.2277094730956 l 14.468889203379225 -28.85578413866543 a53.28010274204404,53.28010274204404 0 0,0 0.8163006798783933,0.4181409135241331 l -14.963450370846374 28.602450699828797" fill="#7dff26" stroke="none" /><path d="M 109.73455568895987 81.39251694778311 l 7.7593706219671095 -14.831941175072764 a37.73900568940297,37.73900568940297 0 0,0 0.5730128049124945,0.30608359569412674 l -8.013528473407915 14.696178852876882" fill="#ffc712" stroke="none" /><path d="M 110.05341064243156 81.56283822128135 l 5.6797037031505155 -10.41612839211013 a32.864011329921446,32.864011329921446 0 0,0 0.4943309293136141,0.275094626962285 l -5.858158721536165 10.316818367587665" fill="#ff860c" stroke="none" /><path d="M 110.36928655335952 81.73862282372117 l 22.670190642582696 -39.924530955142934 a66.91193435000545,66.91193435000545 0 0,0 0.9966796048451021,0.5773411583433775 l -23.35406697989313 39.52838563940951" fill="#37ff7a" stroke="none" /><line stroke="#e1ed5e" stroke-width="0.3" x1="143.23703022742887" x2="145.7803849466894" y1="26.81831364943548" y2="22.513508569990506" /><path d="M 143.74570117128098 25.957352633546492 a86.0,86.0 0 0,1 28.547481713284135,27.462654790039103" fill="none" id="id74" stroke="none" /><text fill="#e1ed5e" style="font-size:6.75px; font-family:Arial;" text-anchor="middle"><textPath startOffset="19.985693538727396" xlink:href="#id74">February</textPath></text><path d="M 110.68208982089419 81.91981866633111 l 9.799741802678263 -16.586745832167736 a40.26538545423095,40.26538545423095 0 0,0 0.5936995597618316,0.35769734180678886 l -10.083803428657731 16.41560188090233" fill="#ffe815" stroke="none" /><path d="M 110.99172775467656 82.1063720568725 l 11.781747983034693 -19.179715840252737 a43.509355504958016,43.509355504958016 0 0,0 0.634782534254551,0.39750076471513823 l -12.110149669661507 18.974070734214653" fill="#eeff19" stroke="none" /><path d="M 111.60114157652 82.49532879139004 l 18.73653421878481 -28.271085989718696 a54.91625005170476,54.91625005170476 0 0,0 0.7834595579184405,0.5289953907946388 l -19.220398471109796 27.944378686625384" fill="#6bff28" stroke="none" /><path d="M 111.90073688211348 82.69761687909136 l 8.399685021609187 -12.21223271957843 a35.82205574336393,35.82205574336393 0 0,0 0.5050378677004139,0.3538113011680426 l -8.608654028893252 12.065836575646452" fill="#ffae10" stroke="none" /><path d="M 112.48926042617603 83.11751280151076 l 26.731869508487552 -36.13508161162635 a65.94815869974768,65.94815869974768 0 0,0 0.9067992608145096,0.6829824033252737 l -27.349914923060442 35.669582618795225" fill="#36ff6f" stroke="none" /><path d="M 112.77801427241765 83.33499621200491 l 12.805480710988531 -16.700825340003732 a42.04513965923748,42.04513965923748 0 0,0 0.5705474293646574,0.4453213184924811 l -13.091060695512619 16.477925632288027" fill="#fffe18" stroke="none" /><path d="M 113.06298171725822 83.55741782278167 l 7.391307487413541 -9.303555910081649 a32.88223796031331,32.88223796031331 0 0,0 0.4401469208684643,0.3559015331756761 l -7.550357806846496 9.174948279641843" fill="#ff860c" stroke="none" /><path d="M 113.34407831869373 83.78471172551755 l 14.212013184537549 -17.269974384456475 a43.3658966732222,43.3658966732222 0 0,0 0.572311019809201,0.47929402030638535 l -14.507181741305867 17.022779206756272" fill="#f0ff19" stroke="none" /><path d="M 113.6212207817346 84.01681056812373 l 9.642892663824025 -11.315004916726872 a35.866563664532045,35.866563664532045 0 0,0 0.46644671228639717,0.4044979924525346 l -9.836233174757185 11.147341930854665" fill="#ffaf10" stroke="none" /><path d="M 113.89432698308785 84.25364557470407 l 5.907415939598495 -6.694837773415343 a29.928517004283034,29.928517004283034 0 0,0 0.38335439198565296,0.3441793582190138 l -6.021781319180138 6.592159406427031" fill="#ff5d08" stroke="none" /><path d="M 114.16331599549186 84.49514656593476 l 13.08511823341086 -14.324529682245817 a40.40135226730041,40.40135226730041 0 0,0 0.5094266459242066,0.47345654806502646 l -13.329752763129914 14.097168548106149" fill="#ffea15" stroke="none" /><path d="M 114.42810811169701 84.74124197986012 l 10.449755315891489 -11.051364912187667 a36.20953821075233,36.20953821075233 0 0,0 0.4491995926170189,0.4321296521972014 l -10.638438152120926 10.869852173228164" fill="#ffb310" stroke="none" /><path d="M 114.94478906791727 85.2469230424477 l 6.325988639841336 -6.244838706792612 a29.88910247129916,29.88910247129916 0 0,0 0.3582931056126532,0.36925254018697923 l -6.4325460091570985 6.135021971055518" fill="#ff5d08" stroke="none" /><path d="M 115.19652480421416 85.50635884689758 l 11.80026011416042 -11.254463623188398 a37.30671917362644,37.30671917362644 0 0,0 0.43921143284721637,0.4685201334298645 l -11.992238868978099 11.049674072880478" fill="#ffc212" stroke="none" /><path d="M 115.68641384162765 86.03803664274999 l 13.75319928440971 -12.241272377011374 a39.41193199978942,39.41193199978942 0 0,0 0.446683832765069,0.510636837958569 l -13.96187498075263 12.002719982849857" fill="#ffdd14" stroke="none" /><path d="M 115.9244219780498 86.31012108654704 l 11.243457170883106 -9.665755369340834 a35.82707509974317,35.82707509974317 0 0,0 0.3980036366938125,0.4711107690361886 l -11.408171421064035 9.47078565067554" fill="#ffae10" stroke="none" /><path d="M 116.38621287248628 86.86637796730983 l 14.303753775389 -11.46452186338039 a39.33119291325259,39.33119291325259 0 0,0 0.4188695619247877,0.5319218067744805 l -14.498977417907753 11.216607662652871" fill="#ffdc14" stroke="none" /><path d="M 116.60985879189232 87.15038557335679 l 5.877506771506357 -4.546919799264411 a28.430986846310912,28.430986846310912 0 0,0 0.29612099364095,0.3896605167187791 l -5.954903705371421 4.445074506664598" fill="#ff4806" stroke="none" /><path d="M 116.82858285166822 87.43820079747576 l 17.21826902525544 -12.852682844227774 a42.48628037889243,42.48628037889243 0 0,0 0.4324241224856211,0.589826017102384 l -17.436955760254687 12.554394383453896" fill="#faff18" stroke="none" /><path d="M 117.04232023915458 87.72973835380427 l 18.27725449548444 -13.159399171390442 a43.5217188163936,43.5217188163936 0 0,0 0.4324968324488207,0.6117360978385975 l -18.501063947737144 12.842836573220051" fill="#eeff19" stroke="none" /><path d="M 117.2510076193507 88.02491185347247 l 12.17574016642522 -8.452002628449693 a35.821774422504916,35.821774422504916 0 0,0 0.3472588985121685,0.5095595840691554 l -12.319423530606121 8.241165021110131" fill="#ffae10" stroke="none" /><path d="M 117.45458315368197 88.32363383020206 l 18.585101381524343 -12.43263428996408 a43.36015180515393,43.36015180515393 0 0,0 0.4096571433111279,0.62393593422397 l -18.796355160193396 12.110880291762435" fill="#f0ff19" stroke="none" /><path d="M 117.65298651832404 88.62581576622439 l 8.725755440413636 -5.622184657259745 a31.380162249513976,31.380162249513976 0 0,0 0.2886562558062159,0.4565848757356601 l -8.821239292465808 5.471152133809879" fill="#ff720a" stroke="none" /><line stroke="#e1ed5e" stroke-width="0.3" x1="172.23445277983987" x2="176.4835382374775" y1="55.19839476539836" y2="52.563006222186495" /><path d="M 173.08426987136738 54.67131705675599 a86.0,86.0 0 0,1 12.851231095245387,41.99856678651699" fill="none" id="id75" stroke="none" /><text fill="#e1ed5e" style="font-size:6.75px; font-family:Arial;" text-anchor="middle"><textPath startOffset="22.20632615414155" xlink:href="#id75">March</textPath></text><path d="M 117.84615892207809 88.93136811851018 l 18.972771816129264 -11.76738523517453 a43.325712209466296,43.325712209466296 0 0,0 0.38762937391220836,0.6371607704304103 l -19.172516988327697 11.439056691537038" fill="#f0ff19" stroke="none" /><path d="M 118.21658344932153 89.55222093294921 l 7.758674786317667 -4.449842103820164 a29.944167327860775,29.944167327860775 0 0,0 0.252589544285301,0.44932861458479567 l -7.8341219718954 4.315629979300574" fill="#ff5d08" stroke="none" /><path d="M 118.56541770881063 90.18545643968196 l 18.47182111322272 -9.765064045291615 a41.894129583391305,41.894129583391305 0 0,0 0.3315432925108257,0.640436113020403 l -18.637173838893663 9.445655210010868" fill="#fffc17" stroke="none" /><path d="M 118.73160827565052 90.50648371742162 l 27.88368356772926 -14.13195279727299 a52.260388659925624,52.260388659925624 0 0,0 0.3997670551133481,0.8059059889921489 l -28.122810635796014 13.649887219781892" fill="#88ff25" stroke="none" /><path d="M 118.89224826269711 90.83032412892265 l 20.263338085844378 -9.835157771038267 a43.524058221431716,43.524058221431716 0 0,0 0.32133564752320637,0.6768148244910105 l -20.42963192720934 9.484900530906717" fill="#eeff19" stroke="none" /><path d="M 119.04729006885535 91.15688171328212 l 16.136492587626005 -7.491717308303607 a38.79079034944892,38.79079034944892 0 0,0 0.27596448577943944,0.6080511639362044 l -16.26305939036879 7.21284413552534" fill="#ffd513" stroke="none" /><path d="M 119.196687751892 91.48605970444005 l 10.837225677613688 -4.806427732806057 a32.85526077057003,32.85526077057003 0 0,0 0.22483839063201128,0.5189580048775386 l -10.91835477808838 4.619170583341915" fill="#ff860c" stroke="none" /><path d="M 119.47837535516314 92.15188598940014 l 12.316630060323664 -4.962545139278219 a34.27878873626064,34.27878873626064 0 0,0 0.21580366538934148,0.5491967895848604 l -12.400227275594705 4.749799344797574" fill="#ff990e" stroke="none" /><path d="M 119.61058180528143 92.48833698450437 l 21.028619087175823 -8.05482987871085 a43.51850583605645,43.51850583605645 0 0,0 0.2619304501401323,0.701843382748869 l -21.16415412581758 7.691663358932646" fill="#eeff19" stroke="none" /><path d="M 119.7369772167798 92.82701384747503 l 11.166897536503487 -4.05837228853393 a32.88149764226328,32.88149764226328 0 0,0 0.188750630434969,0.5336234496729049 l -11.235101247748267 3.865551212434411" fill="#ff860c" stroke="none" /><path d="M 119.85752413597 93.16781622104841 l 32.67972810449091 -11.243793875169551 a55.55991217712732,55.55991217712732 0 0,0 0.303364280382486,0.9070205854092048 l -32.868429678645164 10.679600186838032" fill="#64ff29" stroke="none" /><path d="M 119.97218684219823 93.5106431181261 l 14.1052025281448 -4.583058120748431 a35.83108762357436,35.83108762357436 0 0,0 0.18554448998498138,0.588226737856555 l -14.182002501897987 4.339581216465457" fill="#ffae10" stroke="none" /><path d="M 120.18372546131832 94.20196356495316 l 7.828638240174343 -2.2488776831770845 a29.145245700984837,29.145245700984837 0 0,0 0.134364064711865,0.48337903032049545 l -7.866189075452572 2.113787349437637" fill="#ff5207" stroke="none" /><path d="M 120.28053869075195 94.5502522615342 l 24.351814907976358 -6.543773330971676 a46.215706587749544,46.215706587749544 0 0,0 0.19983598492254645,0.7700495681351955 l -24.460847224769207 6.12362733728763" fill="#cdff1d" stroke="none" /><path d="M 120.37134235888165 94.90015583598534 l 14.386083244167821 -3.6014702115990493 a35.83003637194331,35.83003637194331 0 0,0 0.1446291357048868,0.5995811395848338 l -14.445945180133528 3.3533038403548097" fill="#ffae10" stroke="none" /><path d="M 120.45610955862082 95.25157060432595 l 30.458172184357306 -7.070185057634929 a52.26799912947999,52.26799912947999 0 0,0 0.19589451960298515,0.8781567203249535 l -30.57536109096233 6.5448501677600115" fill="#88ff25" stroke="none" /><path d="M 120.53481517161879 95.60439243477599 l 13.765518249776939 -2.94659658011321 a35.07735501047256,35.07735501047256 0 0,0 0.12130201039524421,0.5915116822193645 l -13.81419955608718 2.709209241730434" fill="#ffa40f" stroke="none" /><path d="M 120.6074358757038 95.95851677861258 l 14.551967930635906 -2.853898689024765 a35.82917760300527,35.82917760300527 0 0,0 0.11348341957947516,0.6062329651826247 l -14.59893707412524 2.602987646379577" fill="#ffae10" stroke="none" /><path d="M 120.67395015179393 96.31383870115 l 13.276369792759224 -2.367174156847988 a34.48575205032847,34.48575205032847 0 0,0 0.09916811287592803,0.5852958157787286 l -13.315149767155376 2.1382925527534216" fill="#ff9c0e" stroke="none" /><path d="M 120.78858239683441 97.02765380044208 l 12.684601480360604 -1.8136410787104824 a33.81360248634054,33.81360248634054 0 0,0 0.07742349018148338,0.5768949314082132 l -12.713940969599923 1.5950278052376048" fill="#ff930d" stroke="none" /><path d="M 120.83666639777658 97.38593545837742 l 20.59456521219288 -2.5836917308937615 a41.75600104161575,41.75600104161575 0 0,0 0.08333234588742332,0.7139406493574336 l -20.63598791108389 2.2288073432114754" fill="#fffb17" stroke="none" /><path d="M 120.87857604477298 97.74499172005257 l 12.257555713530206 -1.323887681164325 a33.328842227177525,33.328842227177525 0 0,0 0.056695335335156784,0.570914289638431 l -12.278528174547592 1.112697860821459" fill="#ff8c0c" stroke="none" /><path d="M 120.91429891909075 98.10471618934814 l 24.217870324981302 -2.1946581969097507 a45.317108538616864,45.317108538616864 0 0,0 0.06371481054336404,0.7774820723261259 l -24.252059619344163 1.777462207375856" fill="#d8ff1c" stroke="none" /><path d="M 120.94382443527127 98.46500227214037 l 10.352557470644275 -0.7587512129930347 a31.380325119484986,31.380325119484986 0 0,0 0.03484622075598496,0.5390556117927142 l -10.364084282404676 0.5804365369472854" fill="#ff720a" stroke="none" /><path d="M 120.96714384426684 98.82574320788733 l 22.466834945064008 -1.258246412933795 a43.50204116262367,43.50204116262367 0 0,0 0.03543633137001919,0.7480049477644044 l -22.485164884667523 0.8713303585463906" fill="#eeff19" stroke="none" /><path d="M 120.98425023603335 99.18683210126433 l 2.518049071867651 -0.09757778570367324 a23.51993899779268,23.51993899779268 0 0,0 0.012194870580597901,0.40468838526883066 l -2.5193556369038936 0.054219253009843524" fill="#ff0000" stroke="none" /><line stroke="#e1ed5e" stroke-width="0.3" x1="184.98032266829074" x2="189.97916517819016" y1="98.17113171792111" y2="98.06355123074" /><path d="M 185.9800911702706 98.14961562048488 a86.0,86.0 0 0,1 -9.607161424134198,41.387399972396054" fill="none" id="id76" stroke="none" /><text fill="#e1ed5e" style="font-size:6.75px; font-family:Arial;" text-anchor="middle"><textPath startOffset="21.466115282336823" xlink:href="#id76">April</textPath></text><path d="M 120.99513854157772 99.54816195383933 l 14.899389271203622 -0.320650941357492 a35.90283924898377,35.90283924898377 0 0,0 0.007978966439467142,0.6179797438662552 l -14.902701244760806 0.06413493943077411" fill="#ffaf10" stroke="none" /><path d="M 120.99980553446 99.90962569577887 l 22.556823103313313 -0.09707505100729846 a43.557031987380284,43.557031987380284 0 0,0 -0.0032267520344748317,0.7497835343341378 l -22.555152053989335 -0.2912179615305241" fill="#edff1a" stroke="none" /><path d="M 120.99824983174949 100.27111621757518 l 12.593744416389937 0.16260252062139482 a33.59479408347215,33.59479408347215 0 0,0 -0.012442771547206135,0.5781667008667062 l -12.589079582157723 -0.3793590372782159" fill="#ff900d" stroke="none" /><path d="M 120.9904718944345 100.63252640178507 l 8.949151768323635 0.269673535474308 a29.953214014432206,29.953214014432206 0 0,0 -0.019965767164452412,0.5152277346224692 l -8.94318386830798 -0.42367851711078336" fill="#ff5e08" stroke="none" /><path d="M 120.92983693683757 101.71520430193887 l 13.378465016379485 1.0963678703604824 a34.4233136259885,34.4233136259885 0 0,0 -0.05347973831089183,0.5901444558659739 l -13.357610681791517 -1.3264937147750269" fill="#ff9b0e" stroke="none" /><path d="M 120.89721153311464 102.0752229133903 l 22.400623133507498 2.2245210241190003 a43.51080652833609,43.51080652833609 0 0,0 -0.08042806520300065,0.7446639954306296 l -22.359012766803446 -2.609781341434421" fill="#eeff19" stroke="none" /><path d="M 120.8583938346157 102.4346265915055 l 12.65073923858848 1.4766154286221016 a33.73662421549788,33.73662421549788 0 0,0 -0.07229034156207816,0.5762251493512873 l -12.623447387779555 -1.694158332260784" fill="#ff920d" stroke="none" /><path d="M 120.81339534386255 102.79330883721812 l 8.072089804919205 1.0833330849859613 a29.1444609638518,29.1444609638518 0 0,0 -0.0710097144202426,0.4966417772668843 l -8.05224603948236 -1.222120334233255" fill="#ff5207" stroke="none" /><path d="M 120.76222939487914 103.15116336523771 l 11.74543339198609 1.7826495753290768 a32.8799429743582,32.8799429743582 0 0,0 -0.0897438403805282,0.5588349797167345 l -11.713007797244273 -1.984563784739016" fill="#ff860c" stroke="none" /><path d="M 120.64145759157962 103.86396538481128 l 5.245177725658287 0.9818679266814219 a26.33628653645843,26.33628653645843 0 0,0 -0.0872484390244537,0.4448779108959012 l -5.227499353658169 -1.072009564645268" fill="#ff2a04" stroke="none" /><line stroke="#e1ed5e" stroke-width="0.3" x1="174.80103733775053" x2="179.2010983576182" y1="140.37084112569926" y2="142.7455964860345" /><path d="M 175.68104954172406 140.8457921977663 a86.0,86.0 0 0,1 -30.038265399797805,32.042727171017184" fill="none" id="id77" stroke="none" /><text fill="#e1ed5e" style="font-size:6.75px; font-family:Arial;" text-anchor="middle"><textPath startOffset="22.206326154141568" xlink:href="#id77">May</textPath></text><path d="M 115.80600337817218 113.82643327865902 l 3.353384869390733 2.9334013820549627 a25.455337669638595,25.455337669638595 0 0,0 -0.2913316732433775,0.32731422327479803 l -3.302394346499017 -2.9906897750706274" fill="#ff1d02" stroke="none" /><path d="M 115.32070863581623 114.36230785411682 l 5.419064148614965 5.080069690880135 a28.427877510500764,28.427877510500764 0 0,0 -0.33774139033672446,0.3541204974957711 l -5.330816206899276 -5.172597304958413" fill="#ff4806" stroke="none" /><path d="M 115.07121518719521 114.62390073753431 l 8.524037469276523 8.27104359438993 a32.87726302301708,32.87726302301708 0 0,0 -0.3975947222481033,0.4027613545032921 l -8.380402121972885 -8.416545442873886" fill="#ff860c" stroke="none" /><path d="M 114.81725581225074 114.88116024355365 l 7.33757003984679 7.36921579439697 a31.399292067926883,31.399292067926883 0 0,0 -0.3862861238626313,0.37806227465140063 l -7.209633963608365 -7.4944281719709425" fill="#ff720a" stroke="none" /><path d="M 113.75828350139079 115.86535959552629 l 14.74170538561045 16.999392182198722 a43.50104913643662,43.50104913643662 0 0,0 -0.569935258216759,0.48571119153369186 l -14.446904650816643 -17.25062776395536" fill="#eeff19" stroke="none" /><path d="M 113.48314897796784 116.09983520530334 l 7.613142521979117 9.09063158751991 a32.85746691835914,32.85746691835914 0 0,0 -0.4367381198699357,0.3594057396731371 l -7.455534273564489 -9.220332446050227" fill="#ff860c" stroke="none" /><path d="M 113.20401910651253 116.32954008644616 l 12.12216494847493 14.991600425888562 a40.27939227173762,40.27939227173762 0 0,0 -0.542894294305427,0.4313080612570388 l -11.862313161452152 -15.198042401150726" fill="#ffe815" stroke="none" /><path d="M 112.92097659922987 116.55440617244103 l 7.301246635865467 9.354385982131538 a32.86645437948656,32.86645437948656 0 0,0 -0.4489734075120901,0.3442536636720254 l -7.139144499859883 -9.478678987630934" fill="#ff860c" stroke="none" /><path d="M 112.34349029814194 116.9893568818739 l 4.374012283253343 6.020311426588738 a28.441514168982415,28.441514168982415 0 0,0 -0.3985504940252508,0.2843551953150857 l -4.269734461379208 -6.094710883748043" fill="#ff4806" stroke="none" /><path d="M 112.04921762599082 117.19931262002967 l 6.841468973435362 9.765660087384491 a32.92366615839328,32.92366615839328 0 0,0 -0.46695653801200016,0.3211769647816958 l -6.672355550800479 -9.881977841531281" fill="#ff870c" stroke="none" /><path d="M 111.45004920935366 117.60387380957326 l 12.12795472187335 18.6461193824099 a43.24331481049738,43.24331481049738 0 0,0 -0.6274773791700974,0.40048575145102044 l -11.805195540656321 -18.85211956268473" fill="#f1ff19" stroke="none" /><path d="M 111.1453310114006 117.79835938074945 l 7.8723096958814125 12.571559963587665 a35.83298283778245,35.83298283778245 0 0,0 -0.525585906785981,0.32285779146901106 l -7.654744589163123 -12.705206221885055" fill="#ffae10" stroke="none" /><line stroke="#e1ed5e" stroke-width="0.3" x1="143.8653032363475" x2="146.44561519142675" y1="172.8068346515853" y2="177.08958963109032" /><path d="M 144.38136562736335 173.6633856474863 a86.0,86.0 0 0,1 -40.68145358897372,12.25698825130547" fill="none" id="id78" stroke="none" /><text fill="#e1ed5e" style="font-size:6.75px; font-family:Arial;" text-anchor="middle"><textPath startOffset="21.466115282336833" xlink:href="#id78">June</textPath></text><path d="M 110.8373102113329 117.98757091392108 l 5.361999592731597 8.899749664249295 a31.390215768633453,31.390215768633453 0 0,0 -0.4652211277404876,0.274860842454456 l -5.208010593962728 -8.990729078997502" fill="#ff720a" stroke="none" /><path d="M 110.21172684928248 118.3499491758327 l 8.891336624767284 15.977275692716296 a39.28467132698838,39.28467132698838 0 0,0 -0.5937170724963758,0.32374188646096386 l -8.614996740402258 -16.12795823093703" fill="#ffdb14" stroke="none" /><path d="M 109.89434966115114 118.52300852407294 l 7.737305404202157 14.484850330094156 a37.42183863040691,37.42183863040691 0 0,0 -0.5707883503573695,0.2986094877835395 l -7.486826151318292 -14.615889236822412" fill="#ffc312" stroke="none" /><path d="M 109.57404056367764 118.69057910512821 l 2.7476296301025442 5.363961914665115 a27.02673676264322,27.02673676264322 0 0,0 -0.4158849701397542,0.20853335765842954 l -2.65489075228003 -5.410463113232847" fill="#ff3404" stroke="none" /><path d="M 109.2508944713604 118.85261126421891 l 9.91191957034891 20.19972956350372 a43.5005605265236,43.5005605265236 0 0,0 -0.675061029070627,0.32407031734507924 l -9.56274587327805 -20.36735415734836" fill="#eeff19" stroke="none" /><path d="M 108.92500713936063 119.00905698771935 l 6.484308846170755 13.810700031738321 a36.257185080452594,36.257185080452594 0 0,0 -0.5672212229672718,0.2603834430201307 l -6.245619627436064 -13.920270545092526" fill="#ffb410" stroke="none" /><path d="M 108.2653958097858 119.30500536409082 l 2.9219202804854767 6.824559644371065 a28.42376134214257,28.42376134214257 0 0,0 -0.4514350302874903,0.18869987927263598 l -2.8040137907005254 -6.873844566663673" fill="#ff4806" stroke="none" /><path d="M 107.93186726928326 119.44442032107085 l 8.502975104798262 20.844451414053832 a43.512035456299145,43.512035456299145 0 0,0 -0.6959416975376153,0.27692956404997127 l -8.14291233121878 -20.98772782250987" fill="#eeff19" stroke="none" /><path d="M 107.59598834532513 119.57807347666477 l 4.29350735386841 11.066183704503612 a32.86990426159973,32.86990426159973 0 0,0 -0.529252070076458,0.20011784660347792 l -4.102385063031678 -11.13844980121372" fill="#ff860c" stroke="none" /><path d="M 107.2578585660854 119.70592522655815 l 7.184183658499104 19.505889333498263 a41.78682788521921,41.78682788521921 0 0,0 -0.6771066739367639,0.24278636297216946 l -6.847357423932605 -19.626663237510396" fill="#fffb17" stroke="none" /><path d="M 106.91757812671514 119.82793768551818 l 5.370088901410964 15.392350639548344 a37.30221803988223,37.30221803988223 0 0,0 -0.6080799173155559,0.2062937231060416 l -5.104339251158181 -15.482507349552508" fill="#ffc212" stroke="none" /><path d="M 106.57524785965236 119.94407469862006 l 3.738297962393933 11.33902407925739 a32.93936090105402,32.93936090105402 0 0,0 -0.540015184027569,0.17289580880817845 l -3.542561433275424 -11.401692734725275" fill="#ff870c" stroke="none" /><path d="M 106.2309692047433 120.05430185196036 l 3.522778686543429 11.338022194655473 a32.87268785746786,32.87268785746786 0 0,0 -0.541812377375423,0.16324362474851106 l -3.32709133472776 -11.39698118850971" fill="#ff860c" stroke="none" /><path d="M 105.88484417918355 120.15858648285463 l 2.2177455508814305 7.596907262651071 a28.91399995487585,28.91399995487585 0 0,0 -0.4789656852250545,0.13536048690351674 l -2.0866486975517704 -7.633956542893107" fill="#ff4f07" stroke="none" /><path d="M 105.53697534728816 120.25689768951611 l 5.9354478206455825 21.714700121098748 a43.51128033188811,43.51128033188811 0 0,0 -0.7241718248334769,0.19126036083381412 l -5.560785553000608 -21.813651831236147" fill="#eeff19" stroke="none" /><path d="M 105.18746579009965 120.34920634021253 l 2.567195297268361 10.07050242518005 a31.392569980032565,31.392569980032565 0 0,0 -0.5247742178552053,0.12897673505552226 l -2.3934677946699447 -10.113200418549603" fill="#ff720a" stroke="none" /><path d="M 104.83641907484287 120.43548508189849 l 2.8187445595780902 11.910136715936284 a33.239145292235264,33.239145292235264 0 0,0 -0.557910903186478,0.12697870516328794 l -2.61331350699875 -11.956892154677258" fill="#ff8b0c" stroke="none" /><path d="M 104.48393922423573 120.51570834832081 l 1.594091078866853 7.293566219168971 a28.465737375579565,28.465737375579565 0 0,0 -0.4795914733423304,0.10050305621943753 l -1.4683081440951447 -7.31992525611495" fill="#ff4806" stroke="none" /><path d="M 103.7750983002368 120.6578951692458 l 1.6005188228356617 8.758275263049375 a29.90331657785984,29.90331657785984 0 0,0 -0.5071474740762706,0.08817408902083058 l -1.4495223772873413 -8.784527930591212" fill="#ff5d08" stroke="none" /><path d="M 103.41894727170886 120.7198165907248 l 2.8954361172023817 17.547186467315132 a38.78446803330162,38.78446803330162 0 0,0 -0.6596390966912975,0.10302206073998249 l -2.5929611569025672 -17.59442683540222" fill="#ffd513" stroke="none" /><path d="M 101.98527174616119 120.90594882070398 l 2.2955598069037224 24.1734442303889 a45.28219513937721,45.28219513937721 0 0,0 -0.7766018992658592,0.06700847963902952 l -1.8791135898963214 -24.209376962306592" fill="#d8ff1c" stroke="none" /><path d="M 101.62511606390274 120.93702456842531 l 1.1476591972868238 14.785755518328125 a35.83022885463632,35.83022885463632 0 0,0 -0.6153197530854834,0.04243605276072252 l -0.8929766834224101 -14.803319915605133" fill="#ffae10" stroke="none" /><path d="M 101.26447882468166 120.96189622390904 l 0.8135101996940074 13.485964375378433 a34.51047867319964,34.51047867319964 0 0,0 -0.5932711697993914,0.03066534289384837 l -0.5812509614811363 -13.497969525034483" fill="#ff9c0e" stroke="none" /><line stroke="#e1ed5e" stroke-width="0.3" x1="102.19456741930631" x2="102.32365962044197" y1="184.97166512339345" y2="189.96999836594603" /><path d="M 102.22038585953345 185.97133177190398 a86.0,86.0 0 0,1 -42.740103519485714,-10.115201625700543" fill="none" id="id79" stroke="none" /><text fill="#e1ed5e" style="font-size:6.75px; font-family:Arial;" text-anchor="middle"><textPath startOffset="22.20632615414155" xlink:href="#id79">July</textPath></text><path d="M 100.54218724476979 120.99299961872073 l 0.32507587021906553 12.58664360955534 a33.590840785084964,33.590840785084964 0 0,0 -0.5781468528631966,0.009953322380824836 l -0.10836932746320105 -12.590374409215325" fill="#ff900d" stroke="none" /><line stroke="#e1ed5e" stroke-width="0.3" x1="58.666819895761336" x2="56.23545636021788" y1="174.27360380694188" y2="178.64263932499728" /><path d="M 58.180547188652646 175.14741091055294 a86.0,86.0 0 0,1 -31.652253787137756,-30.449443065178592" fill="none" id="id80" stroke="none" /><text fill="#e1ed5e" style="font-size:6.75px; font-family:Arial;" text-anchor="middle"><textPath startOffset="22.20632615414155" xlink:href="#id80">August</textPath></text><line stroke="#e1ed5e" stroke-width="0.3" x1="26.63291911575756" x2="22.317208475507996" y1="142.92168965132927" y2="145.44649492493687" /><path d="M 25.769776987707644 143.4266507060508 a86.0,86.0 0 0,1 -11.730757126820373,-40.83630448921669" fill="none" id="id81" stroke="none" /><text fill="#e1ed5e" style="font-size:6.75px; font-family:Arial;" text-anchor="middle"><textPath startOffset="21.46611528233685" xlink:href="#id81">September</textPath></text><line stroke="#e1ed5e" stroke-width="0.3" x1="15.007084014347285" x2="10.007500721073583" y1="101.09737516637583" y2="101.16192664675087" /><path d="M 14.007167355692545 101.11028546245083 a86.0,86.0 0 0,1 10.666146001902534,-42.60595125391555" fill="none" id="id82" stroke="none" /><text fill="#e1ed5e" style="font-size:6.75px; font-family:Arial;" text-anchor="middle"><textPath startOffset="22.20632615414155" xlink:href="#id82">October</textPath></text><line stroke="#e1ed5e" stroke-width="0.3" x1="26.266209847984243" x2="21.928928074336255" y1="57.711370442889674" y2="55.22380399835377" /><path d="M 25.398753493254645 57.213857153982495 a86.0,86.0 0 0,1 29.58750427330803,-30.492523968695096" fill="none" id="id83" stroke="none" /><text fill="#e1ed5e" style="font-size:6.75px; font-family:Arial;" text-anchor="middle"><textPath startOffset="21.46611528233685" xlink:href="#id83">November</textPath></text><line stroke="#e1ed5e" stroke-width="0.3" x1="56.762969772571076" x2="54.21961505331055" y1="26.818313649435495" y2="22.513508569990535" /><path d="M 56.25429882871897 25.957352633546506 a86.0,86.0 0 0,1 42.265352541879196,-11.944610805530505" fill="none" id="id84" stroke="none" /><text fill="#e1ed5e" style="font-size:6.75px; font-family:Arial;" text-anchor="middle"><textPath startOffset="22.20632615414155" xlink:href="#id84">December</textPath></text></svg>