<?xml version="1.0" encoding="utf-8" ?>
<svg baseProfile="full" height="200mm" version="1.1" viewBox="0,0,200,200" width="200mm" xmlns="http://www.w3.org/2000/svg" xmlns:ev="http://www.w3.org/2001/xml-events" xmlns:xlink="http://www.w3.org/1999/xlink"><defs /><rect fill="#1a1a1a" height="200" width="200" x="0" y="0" /><text alignment-baseline="middle" fill="#e1ed5e" style="dominant-baseline: central; font-size:9.0px; font-family:Arial;" text-anchor="middle" x="100.0" y="100.0">2024</text><line stroke="#e1ed5e" stroke-width="0.3" x1="100.0" x2="100.0" y1="15.0" y2="10.0" /><path d="M 100.0 14.0 a86.0,86.0 0 0,1 42.35913384403234,11.155469271406648" fill="none" id="id49" stroke="none" /><text fill="#e1ed5e" style="font-size:6.75px; font-family:Arial;" text-anchor="middle"><textPath startOffset="22.145653131862478" xlink:href="#id49">January</textPath></text><path d="M 100.0 79.0 l 0.0 -16.744758879888195 a37.744758879888195,37.744758879888195 0 0,0 0.64793897744408,0.005561776844157481 l -0.2874460525952252 16.742291501238473" fill="#ff820b" stroke="none" /><path d="M 100.72087961077811 79.0123766808444 l 1.430342585949807 -41.642863749272415 a62.66742110034707,62.66742110034707 0 0,0 1.0748186061868863,0.04615733560948846 l -2.1449869527375296 41.612173845237095" fill="#34ff2f" stroke="none" /><path d="M 101.08105385017728 79.02784411241856 l 1.5052521037412796 -29.201488681248644 a50.240258635944215,50.240258635944215 0 0,0 0.8609162295462075,0.05179058252591155 l -2.0063126854199496 29.171346120898043" fill="#caff1d" stroke="none" /><path d="M 102.15924093988457 79.11130261209362 l 2.707320200057559 -26.190867052655896 a47.33042156205509,47.33042156205509 0 0,0 0.8074662289420896,0.09047827516634144 l -3.1565223306004455 26.140533016982584" fill="#f1ff19" stroke="none" /><path d="M 102.51750503828377 79.15144685158666 l 2.5140399268313884 -20.81985705478827 a41.97109545387458,41.97109545387458 0 0,0 0.7145522602047015,0.09251309591812511 l -2.871070008926882 20.773632362669748" fill="#ffc111" stroke="none" /><path d="M 103.23170211078529 79.25015418208739 l 6.455096340474166 -41.44634907951439 a62.94601436114957,62.94601436114957 0 0,0 1.0662530191145432,0.17545152853843857 l -7.16562686264178 41.32943155248028" fill="#31ff2f" stroke="none" /><path d="M 103.94208987418118 79.37332000966035 l 7.897415784566542 -41.32261651511618 a63.070510000826864,63.070510000826864 0 0,0 1.0616974735546298,0.2123692292828402 l -8.60560974365213 41.180957889170486" fill="#2fff30" stroke="none" /><path d="M 104.29559338865022 79.4440306129975 l 5.406113848238908 -25.87021179906614 a47.42903565150763,47.42903565150763 0 0,0 0.7955375666653324,0.17338370995667185 l -5.849413831523374 25.77359663097575" fill="#f0ff19" stroke="none" /><path d="M 104.9986988182912 79.60360301121754 l 10.94121275935315 -44.643881756169975 a66.96505536714079,66.96505536714079 0 0,0 1.114154089721304,0.2832136127414797 l -11.70597214229985 44.44948291159323" fill="#35ff64" stroke="none" /><path d="M 106.38641147887787 79.99465700312896 l 6.3373324468654895 -19.851603628117623 a41.83861677631188,41.83861677631188 0 0,0 0.6823226159122158,0.2242929964995769 l -6.677177800425447 19.739889710216026" fill="#ffbf11" stroke="none" /><path d="M 107.06938296918511 80.22567764915836 l 14.00602400470595 -39.17734188824212 a62.605682614861756,62.605682614861756 0 0,0 1.0088781983318087,0.37047404884658525 l -14.676491354691883 38.93113699038681" fill="#34ff2f" stroke="none" /><path d="M 108.07796709384702 80.6158196554323 l 9.846863532146315 -23.628887852348274 a46.59853633627448,46.59853633627448 0 0,0 0.7357352475002302,0.314041627635731 l -10.251033854816976 23.45637157505314" fill="#fbff18" stroke="none" /><path d="M 108.73861861582097 80.90454125486305 l 14.491979269223537 -31.667590089104724 a55.82604952031121,55.82604952031121 0 0,0 0.8679921537309457,0.40626415543923644 l -15.033460136825987 31.414149702094956" fill="#83ff25" stroke="none" /><path d="M 109.3889696526874 81.21577127319529 l 23.750846393365762 -47.51760284798542 a74.1227379266179,74.1227379266179 0 0,0 1.1332758762045472,0.5786587373003551 l -24.563049491283888 47.102886159012236" fill="#3fffbe" stroke="none" /><path d="M 109.71004243097381 81.37971332152246 l 9.712348444986826 -18.62470876440684 a42.00498723817301,42.00498723817301 0 0,0 0.6364979396156899,0.33889930195633033 l -10.030635200389074 18.455238994727935" fill="#ffc112" stroke="none" /><path d="M 110.34350942703115 81.72400993836675 l 10.356004424597014 -18.298067525084594 a42.02536807751123,42.02536807751123 0 0,0 0.6247922121303913,0.3607239518610632 l -10.668589104587802 18.117596675947357" fill="#ffc212" stroke="none" /><line stroke="#e1ed5e" stroke-width="0.3" x1="143.13028292997686" x2="145.6673583964461" y1="26.7553504044142" y2="22.446841604673864" /><path d="M 143.63769802327073 25.89364864446614 a86.0,86.0 0 0,1 29.32050498858742,28.57503671076993" fill="none" id="id50" stroke="none" /><text fill="#e1ed5e" style="font-size:6.75px; font-family:Arial;" text-anchor="middle"><textPath startOffset="20.669276256404974" xlink:href="#id50">February</textPath></text><path d="M 110.65571695917076 81.90426304109057 l 10.611016798442858 -18.01982631360491 a41.9119061271163,41.9119061271163 0 0,0 0.6168379663872103,0.3703934756212159 l -10.918787521387502 17.835018837447773" fill="#ffc011" stroke="none" /><path d="M 111.27062007382361 82.28071324371311 l 22.374453669121113 -35.176357465833014 a62.68923484013245,62.68923484013245 0 0,0 0.9030663924740313,0.5853567250630444 l -22.97500569385215 34.787086899066075" fill="#33ff2f" stroke="none" /><path d="M 111.8722381534696 82.67804972795209 l 23.59696286424676 -34.42867402271491 a62.73907343699672,62.73907343699672 0 0,0 0.8831418134850545,0.6165015740622448 l -24.184499768905575 34.01852763284754" fill="#33ff2f" stroke="none" /><path d="M 113.59037401385872 83.9905735841838 l 14.333281686768764 -16.88456978648945 a43.147949358509315,43.147949358509315 0 0,0 0.5605545710073463,0.4841936875451353 l -14.621015737538972 16.636031966479592" fill="#ffd213" stroke="none" /><path d="M 114.13192950727249 84.46653392183569 l 14.017646162874456 -15.407848663175608 a41.83017533231229,41.83017533231229 0 0,0 0.5270009073165145,0.4877841721454555 l -14.280076841504934 15.164946744897778" fill="#ffbf11" stroke="none" /><path d="M 114.91283532996326 85.21462403516908 l 14.894438795713045 -14.767136664971375 a41.97409431468219,41.97409431468219 0 0,0 0.5029160066340338,0.5160361272885402 l -15.145741603497891 14.509277845615093" fill="#ffc111" stroke="none" /><path d="M 115.41159269507618 85.73525988315684 l 23.727168766375364 -21.961513184095317 a53.330892332307364,53.330892332307364 0 0,0 0.6161046236177168,0.6772069070002789 l -24.100671090834958 21.550968701537364" fill="#a2ff22" stroke="none" /><path d="M 115.6541949942343 86.00192230759917 l 15.920805420641662 -14.23648237969576 a42.357656139879225,42.357656139879225 0 0,0 0.4800311199017974,0.5461872963509614 l -16.162847604502048 13.9610828055335" fill="#ffc612" stroke="none" /><path d="M 116.1254893667686 86.54754324733833 l 17.11495946608723 -14.277907901236844 a43.2885731163305,43.2885731163305 0 0,0 0.47113052744564626,0.5747026387314669 l -17.357536812771507 13.982002980806882" fill="#ffd413" stroke="none" /><path d="M 116.35404254752997 86.82634096563983 l 49.062127642589914 -39.52097710308052 a84.0,84.0 0 0,0 0.8949342774337627,1.130720224341287 l -49.73332835066524 38.672936934824556" fill="#4dd2ff" stroke="none" /><path d="M 116.7966241395341 87.39550010848427 l 16.843228587409424 -12.639472738041839 a42.0582672683065,42.0582672683065 0 0,0 0.428389448975926,0.5811925621117111 l -17.057720055969178 12.348473866661251" fill="#ffc212" stroke="none" /><path d="M 117.01052211995028 87.68569379921539 l 16.943498801213902 -12.265786486710425 a41.91725770181897,41.91725770181897 0 0,0 0.4169467735685097,0.5864878526990882 l -17.15156067331237 11.973121407301832" fill="#ffc011" stroke="none" /><path d="M 117.21940702142032 87.97951657250589 l 17.36389566707309 -12.12134772371347 a42.17621173336188,42.17621173336188 0 0,0 0.40933070540519345,0.597225732182518 l -17.569416109293613 11.821487256460903" fill="#ffc412" stroke="none" /><path d="M 117.62189284568427 88.57770195909679 l 37.359674872876155 -24.21608988581182 a65.5215039724034,65.5215039724034 0 0,0 0.6036786588916205,0.9490831201377232 l -37.769871223393665 23.571193090995422" fill="#33ff51" stroke="none" /><line stroke="#e1ed5e" stroke-width="0.3" x1="172.87174338648825" x2="177.1583165268699" y1="56.24261187166439" y2="53.66864786411523" /><path d="M 173.72905801456457 55.72781907015455 a86.0,86.0 0 0,1 12.242430191666344,42.057860355516425" fill="none" id="id51" stroke="none" /><text fill="#e1ed5e" style="font-size:6.75px; font-family:Arial;" text-anchor="middle"><textPath startOffset="22.145653131862474" xlink:href="#id51">March</textPath></text><path d="M 118.18653347947321 89.5 l 18.238214019436054 -10.529837773659414 a42.059675547318825,42.059675547318825 0 0,0 0.3556378597728629,0.628378021657093 l -18.41628524423029 10.215202981903204" fill="#ffc212" stroke="none" /><path d="M 118.36410011445183 89.81374322990088 l 36.447233117260886 -20.21666581962879 a62.678704139722306,62.678704139722306 0 0,0 0.513830018939874,0.9453893609682101 l -36.7889084858161 19.588021625185977" fill="#34ff2f" stroke="none" /><path d="M 118.70294669586156 90.45014215332178 l 12.099881194529837 -6.1782855529938265 a34.58596103689647,34.58596103689647 0 0,0 0.2654556286467836,0.5310890789695645 l -12.204156736388358 5.969664617860512" fill="#ff5107" stroke="none" /><path d="M 118.8641267826498 90.77261029715802 l 37.61947029581663 -18.401568057380665 a62.87889984596351,62.87889984596351 0 0,0 0.4659648120330104,0.9736872435146582 l -37.929814365809555 17.753068311800902" fill="#31ff2f" stroke="none" /><path d="M 119.16976305983485 91.42560881287824 l 41.780487340187165 -18.687880560921208 a66.76948767730306,66.76948767730306 0 0,0 0.4590119874137133,1.0503092553070108 l -42.09513320961785 17.96790923583835" fill="#35ff62" stroke="none" /><path d="M 119.4528033332814 92.08871423366111 l 19.97162026821738 -8.122284097138454 a42.56008151868864,42.56008151868864 0 0,0 0.2694282681259156,0.6791352392485858 l -20.10810721130942 7.778247840676303" fill="#ffc912" stroke="none" /><path d="M 119.58574465831526 92.42381321644754 l 27.275961531175625 -10.550927874649078 a50.24551515132225,50.24551515132225 0 0,0 0.3042708477707054,0.8071145732631447 l -27.45306306276077 10.081145021191777" fill="#caff1d" stroke="none" /><path d="M 119.83427380445688 93.10060997987247 l 40.0039815557352 -13.915461379230608 a63.35514851477281,63.35514851477281 0 0,0 0.34849729866210416,1.0302703395826533 l -40.236964275969676 13.226689365173792" fill="#30ff33" stroke="none" /><path d="M 120.05942366710727 93.78553927170692 l 28.34008599063729 -8.779831083285652 a50.668938434122396,50.668938434122396 0 0,0 0.2502651788522295,0.833051386060914 l -28.48662748949315 8.292042093634015" fill="#c5ff1e" stroke="none" /><path d="M 120.26092885502905 94.47779374421319 l 32.575495948014236 -8.87859627742739 a54.76377360599137,54.76377360599137 0 0,0 0.2394233565646798,0.9091294825315693 l -32.723108785383644 8.318086290523022" fill="#90ff24" stroke="none" /><path d="M 120.35273937422433 94.82641323984039 l 22.016906974488755 -5.596611656470051 a43.7170916879038,43.7170916879038 0 0,0 0.17864151291681482,0.7289183342663517 l -22.10973601392186 5.217837497595604" fill="#ffda14" stroke="none" /><path d="M 120.51834098615036 95.52812308129327 l 44.75027395074592 -9.753113924815892 a66.80076691385469,66.80076691385469 0 0,0 0.23457340337693058,1.1225186516865517 l -44.911105064947215 8.983478821843937" fill="#35ff62" stroke="none" /><path d="M 120.65975698304385 96.23510406497455 l 20.904706703044795 -3.809533933714114 a42.24898376705214,42.24898376705214 0 0,0 0.12390054171721597,0.714625399337224 l -20.967022062254244 3.450115501456297" fill="#ffc512" stroke="none" /><path d="M 120.7213421655516 96.59031103205396 l 32.991492642760846 -5.428737559630958 a54.435157817613046,54.435157817613046 0 0,0 0.14380863480662953,0.923354596812422 l -33.079822769705736 4.861594780887095" fill="#95ff23" stroke="none" /><path d="M 120.9064616781168 98.02013634271609 l 20.82780378199333 -1.9724146727407161 a41.92099017786822,41.92099017786822 0 0,0 0.06169647330102368,0.7170065402410413 l -20.858593877992096 1.6145870851240127" fill="#ffc011" stroke="none" /><path d="M 120.93736805541906 98.37931529534042 l 25.090814263522915 -1.9421877093965068 a46.165870807606396,46.165870807606396 0 0,0 0.05437908443549971,0.7906599531236714 l -25.12045730912348 1.5111843321185012" fill="#fffd17" stroke="none" /><path d="M 120.98066250479742 99.09900007780936 l 20.878185224764596 -0.8965991068534345 a41.8974282685212,41.8974282685212 0 0,0 0.024690180421431097,0.7188276636201114 l -20.890500092182876 0.5380651786692031" fill="#ffc011" stroke="none" /><line stroke="#e1ed5e" stroke-width="0.3" x1="184.99686870605535" x2="189.99668451229388" y1="99.2704041080226" y2="99.22748670261217" /><path d="M 185.99683186730306 99.26182062694052 a86.0,86.0 0 0,1 -10.086455211305974,41.156179273409016" fill="none" id="id52" stroke="none" /><text fill="#e1ed5e" style="font-size:6.75px; font-family:Arial;" text-anchor="middle"><textPath startOffset="21.40746469413373" xlink:href="#id52">April</textPath></text><path d="M 120.99922638620191 99.81974689727618 l 20.854990948725003 -0.17901501496527034 a41.855759248873795,41.855759248873795 0 0,0 0.0,0.7185362353781919 l -20.854990948725003 -0.1790150149652678" fill="#ffbf11" stroke="none" /><path d="M 120.98066250479742 100.90099992219065 l 12.463285921411275 0.5352271236841828 a33.47477310546271,33.47477310546271 0 0,0 -0.029582789625678892,0.573898215632409 l -12.452261542329023 -0.7490971326933225" fill="#ff3f05" stroke="none" /><path d="M 120.86939407059847 102.33845913500097 l 20.733228707005683 2.32320152199664 a41.86298247923369,41.86298247923369 0 0,0 -0.08615384598574921,0.7134774348648715 l -20.69029277476027 -2.6787726337849205" fill="#ffbf11" stroke="none" /><path d="M 120.77682067341334 103.0534771498775 l 25.736327565123492 3.782353872959343 a47.012780654125116,47.012780654125116 0 0,0 -0.12419994862484689,0.7974527652030398 l -25.66760612436038 -4.223594820093833" fill="#f6ff19" stroke="none" /><path d="M 120.7213421655516 103.40968896794604 l 21.276616697517156 3.5010591808742264 a42.562741789509275,42.562741789509275 0 0,0 -0.12482067719703971,0.7199324962683683 l -21.213381202827883 -3.865784710063183" fill="#ffc912" stroke="none" /><path d="M 120.592083275326 104.11899336999214 l 28.70822230222123 5.742448481101411 a50.27691483595661,50.27691483595661 0 0,0 -0.17654927584247201,0.8448521964635063 l -28.605415315554392 -6.2344171288503265" fill="#caff1d" stroke="none" /><path d="M 120.51834098615036 104.47187691870673 l 12.536897774861744 2.7323585191138067 a33.831195926113324,33.831195926113324 0 0,0 -0.12854104644849748,0.5663755680668403 l -12.488145866855582 -2.9471684211196636" fill="#ff4506" stroke="none" /><path d="M 120.43855184770803 104.8234425847677 l 24.329121845025952 5.741606510661863 a45.99744417082262,45.99744417082262 0 0,0 -0.18795973610604177,0.7669398647298886 l -24.226974582403614 -6.158402199999852" fill="#fffa17" stroke="none" /><path d="M 120.26092885502905 105.52220625578681 l 29.05679654897027 7.919559109256739 a51.116720309045306,51.116720309045306 0 0,0 -0.23801285676287645,0.8446236620621371 l -28.916565200132812 -8.417190695221885" fill="#bfff1e" stroke="none" /><path d="M 120.16314734710363 105.8691983318838 l 12.370653541376218 3.600916954058129 a33.88408599594039,33.88408599594039 0 0,0 -0.1673610520386864,0.5570905110045898 l -12.3070161693339 -3.8127450686534425" fill="#ff4506" stroke="none" /><path d="M 119.94978838288452 106.5578916946017 l 16.449371886033166 5.407235264980497 a38.31531197108117,38.31531197108117 0 0,0 -0.21076081474584565,0.6230768990535417 l -16.354125649714955 -5.688813838508199" fill="#ff8a0c" stroke="none" /><path d="M 119.83427380445688 106.89939002012753 l 27.636128291899645 9.613280002681579 a50.26039540703942,50.26039540703942 0 0,0 -0.2904568114344038,0.8124593961506081 l -27.467031310421298 -10.086274355213108" fill="#caff1d" stroke="none" /><path d="M 119.71291397450082 107.23885506374661 l 19.719623852261638 7.241319023801868 a42.00714797584767,42.00714797584767 0 0,0 -0.2543819182378168,0.6747782605157692 l -19.59241125020938 -7.578765564511796" fill="#ffc112" stroke="none" /><path d="M 119.4528033332814 107.91128576633889 l 19.362229811582438 7.874450303565341 a41.902222629659555,41.902222629659555 0 0,0 -0.2767026350101049,0.6639855939668909 l -19.224201332035847 -8.20566840697351" fill="#ffc011" stroke="none" /><path d="M 119.31412917781788 108.2440532568976 l 31.98005467427649 13.65038368885029 a55.77149510479156,55.77149510479156 0 0,0 -0.383405440113741,0.8773066789725454 l -31.741015352145784 -14.19735243759868" fill="#84ff25" stroke="none" /><path d="M 118.8641267826498 109.22738970284198 l 37.36172377928384 18.275491320301818 a62.59197021971826,62.59197021971826 0 0,0 -0.4804085329648979,0.9611388788479357 l -37.04249533310721 -18.9141620553135" fill="#35ff2f" stroke="none" /><path d="M 118.5362547648365 109.86951160357373 l 7.616196178030157 4.055195480845319 a29.628502454662076,29.628502454662076 0 0,0 -0.24288973721444862,0.4468897592333364 l -7.5454610912003695 -4.185340073553259" fill="#ff0000" stroke="none" /><line stroke="#e1ed5e" stroke-width="0.3" x1="174.33088141563837" x2="178.70328620479359" y1="141.23008692659167" y2="143.65538615756765" /><path d="M 175.20536237346943 141.71514677278685 a86.0,86.0 0 0,1 -30.301960400862466,31.631185727798858" fill="none" id="id53" stroke="none" /><text fill="#e1ed5e" style="font-size:6.75px; font-family:Arial;" text-anchor="middle"><textPath startOffset="22.145653131862474" xlink:href="#id53">May</textPath></text><path d="M 118.18653347947321 110.5 l 15.687928299953406 9.057429627005643 a39.11485925401129,39.11485925401129 0 0,0 -0.3407207658158428,0.5786183490295644 l -15.530133824007798 -9.325399144328756" fill="#ff970d" stroke="none" /><path d="M 117.81537515405839 111.11811171558189 l 11.326089618582586 7.068317595961908 a34.35070858365012,34.35070858365012 0 0,0 -0.31648830433576103,0.4975721817259205 l -11.203083622620934 -7.2617034523665" fill="#ff4d07" stroke="none" /><path d="M 117.62189284568427 111.42229804090321 l 12.072348005364391 7.825150123106484 a35.386610469870206,35.386610469870206 0 0,0 -0.33478355665691195,0.5069049746054577 l -11.936240009786754 -8.031234976051003" fill="#ff5d08" stroke="none" /><path d="M 117.423217284605 111.72311816256416 l 17.59551668069816 11.83904888573337 a42.20767044678674,42.20767044678674 0 0,0 -0.40963602010342054,0.5976711954516672 l -17.389690923779423 -12.13935481625508" fill="#ffc412" stroke="none" /><path d="M 116.79662413953412 112.60449989151573 l 16.693042181115825 12.526770058854101 a41.87049652902191,41.87049652902191 0 0,0 -0.4363464463128527,0.5711915051326293 l -16.475543757448666 -12.811482477227608" fill="#ffbf11" stroke="none" /><path d="M 116.57777611688842 112.89097897827486 l 18.004953284289233 14.000760575849656 a43.80788546691042,43.80788546691042 0 0,0 -0.46672831340750126,0.5896959771793041 l -17.76195854024017 -14.307776496943642" fill="#ffdb14" stroke="none" /><path d="M 116.1254893667686 113.45245675266167 l 23.99031486238308 20.013573903315088 a52.24225260092065,52.24225260092065 0 0,0 -0.580400073639494,0.6837098273520971 l -23.64322022523647 -20.422450513116743" fill="#b0ff20" stroke="none" /><path d="M 115.89218393027572 113.72728997021213 l 19.398350577776984 16.755833212934416 a46.63306364440304,46.63306364440304 0 0,0 -0.5284834857658592,0.6013171944261378 l -19.107856028052538 -17.08636268517185" fill="#fbff18" stroke="none" /><path d="M 115.41159269507618 114.26474011684316 l 19.081388669126216 17.661448483551148 a47.000502996661226,47.000502996661226 0 0,0 -0.5531381012898215,0.5874134951608567 l -18.775394734100136 -17.9864034386565" fill="#f6ff19" stroke="none" /><path d="M 115.16444852881244 114.52719865689866 l 29.433689468845287 28.196808694161383 a61.76030049304775,61.76030049304775 0 0,0 -0.7399860366163394,0.7592908627801268 l -28.94531663107814 -28.697922249009245" fill="#3eff2e" stroke="none" /><path d="M 114.65682725009322 115.03919595460226 l 10.43897381834326 10.711306761020085 a35.95674653488287,35.95674653488287 0 0,0 -0.44573954484748146,0.42700840092745956 l -10.253561787630467 -10.888927292253126" fill="#ff6609" stroke="none" /><path d="M 114.39649973595853 115.28858382429668 l 25.684386175787505 27.27592805377073 a58.46550339207337,58.46550339207337 0 0,0 -0.7365824572707084,0.6817697259121873 l -25.212373947202828 -27.712815525815298" fill="#64ff29" stroke="none" /><path d="M 113.59037401385872 116.0094264158162 l 21.777847915408447 25.654250084731473 a54.651377493894735,54.651377493894735 0 0,0 -0.7204239982722398,0.6010033221260961 l -21.334249582974312 -26.02431559076944" fill="#92ff23" stroke="none" /><path d="M 112.7482090630111 116.68781488649013 l 21.066588753173185 27.57684092448765 a55.70278543676026,55.70278543676026 0 0,0 -0.7648443661921293,0.5739534712814309 l -20.590091398070292 -27.934413423033096" fill="#85ff25" stroke="none" /><path d="M 112.45986205192187 116.90419585922612 l 18.818729526800215 25.53122084475764 a52.717311027680914,52.717311027680914 0 0,0 -0.7330693286716505,0.5306856612636821 l -18.377679187754598 -25.8505072773944" fill="#aaff21" stroke="none" /><path d="M 111.5731344415666 117.5232005979908 l 16.38704632711273 24.81207674968425 a50.73507087530078,50.73507087530078 0 0,0 -0.7308613280113057,0.47373548280087385 l -15.958699366844417 -25.089726074189016" fill="#c4ff1e" stroke="none" /><path d="M 111.27062007382361 117.71928675628689 l 22.33465854402453 35.11379291938659 a62.61508651275078,62.61508651275078 0 0,0 -0.9119018825968813,0.5690942187120824 l -21.728592532637933 -35.49202293494022" fill="#34ff2f" stroke="none" /><line stroke="#e1ed5e" stroke-width="0.3" x1="143.1302829299769" x2="145.66735839644613" y1="173.24464959558577" y2="177.55315839532614" /><path d="M 143.63769802327073 174.10635135553383 a86.0,86.0 0 0,1 -40.68552437913181,11.842963189579606" fill="none" id="id54" stroke="none" /><text fill="#e1ed5e" style="font-size:6.75px; font-family:Arial;" text-anchor="middle"><textPath startOffset="21.407464694133747" xlink:href="#id54">June</textPath></text><path d="M 110.34350942703117 118.27599006163325 l 24.03525757386437 42.46799711911911 a69.7977907896609,69.7977907896609 0 0,0 -1.047817104776458,0.5812064849807321 l -23.30269628093182 -42.87433651953299" fill="#39ff89" stroke="none" /><path d="M 109.71004243097381 118.62028667847754 l 9.617291177351541 18.442423919945643 a41.79940599231014,41.79940599231014 0 0,0 -0.6390786386987121,0.3263181065351451 l -9.299285316939248 -18.604799978153626" fill="#ffbe11" stroke="none" /><path d="M 109.3889696526874 118.78422872680471 l 9.871522491088667 19.749657652938676 a43.07931008207341,43.07931008207341 0 0,0 -0.664323478044794,0.32495390278572006 l -9.531038763781805 -19.91620530582162" fill="#ffd113" stroke="none" /><path d="M 109.06512990194946 118.94263497670748 l 15.239439149247104 31.844566616949834 a56.30321413986213,56.30321413986213 0 0,0 -0.8754111839035419,0.4097366361688071 l -14.690539251472055 -32.10147948468918" fill="#7eff26" stroke="none" /><path d="M 108.4095320186766 119.2426549942271 l 5.740729824935159 13.135913293505856 a35.33555708639898,35.33555708639898 0 0,0 -0.5579062537696579,0.23813700457774994 l -5.51438849599507 -13.232524947743011" fill="#ff5c08" stroke="none" /><path d="M 108.07796709384702 119.3841803445677 l 15.996180356135154 38.38500964973439 a62.58469372012023,62.58469372012023 0 0,0 -0.9952323459807991,0.40475233096544416 l -15.334893548963914 -38.65394923727913" fill="#35ff2f" stroke="none" /><path d="M 107.74402155503746 119.51999308798841 l 17.458005078134747 44.0055772098904 a68.34208240966808,68.34208240966808 0 0,0 -1.0942144640515934,0.42326566109908 l -16.700018351589623 -44.29878275912752" fill="#37ff76" stroke="none" /><path d="M 107.06938296918513 119.77432235084164 l 9.842180036473072 27.53032924154493 a50.236749751267034,50.236749751267034 0 0,0 -0.8145392057869101,0.2833390182475972 l -9.36813505864114 -27.695226692361118" fill="#caff1d" stroke="none" /><path d="M 106.72888874123015 119.89276391827305 l 5.21372085483324 15.413439289830443 a37.27135507243978,37.27135507243978 0 0,0 -0.607837697588972,0.1998083243882594 l -4.948360419596534 -15.50066853562072" fill="#ff7a0b" stroke="none" /><path d="M 106.0420521117495 120.11202640906438 l 6.044866072281506 20.121393168484364 a42.00978031471413,42.00978031471413 0 0,0 -0.6924411827612651,0.20155953655587558 l -5.698564877138634 -20.222196399342756" fill="#ffc112" stroke="none" /><path d="M 105.69591212413111 120.21278271476187 l 6.914878153088098 24.538463122575795 a46.494150550470735,46.494150550470735 0 0,0 -0.7700728718664812,0.20988678558916626 l -6.492623880286922 -24.653550402309104" fill="#fdff18" stroke="none" /><path d="M 105.3480935250658 120.30758222061773 l 10.905566075130388 41.410210703142994 a63.82215456860774,63.82215456860774 0 0,0 -1.0618629991058128,0.2699214219897362 l -10.193097782799176 -41.591317356968" fill="#30ff3a" stroke="none" /><path d="M 104.64783097203109 120.47920084513623 l 9.217814719880456 40.615392456751046 a62.64826782263525,62.64826782263525 0 0,0 -1.050813069563914,0.22901981767580826 l -8.519239233697407 -40.76764373256057" fill="#34ff2f" stroke="none" /><path d="M 104.29559338865022 120.5559693870025 l 5.1072181061538675 24.439887471712588 a45.967814810547594,45.967814810547594 0 0,0 -0.7737992422852678,0.1547815199687463 l -4.686922378337641 -24.523958388344195" fill="#fffa17" stroke="none" /><path d="M 103.94208987418118 120.62667999033965 l 2.9751369501250933 15.567173696264899 a36.84892225867997,36.84892225867997 0 0,0 -0.6223348967252911,0.11341014924950987 l -2.707467319848745 -15.615952019445771" fill="#ff740a" stroke="none" /><path d="M 103.58742460773223 120.69131181640829 l 4.650059379804001 26.82030679751649 a48.22043182884159,48.22043182884159 0 0,0 -0.8168139244768876,0.13440642043851533 l -4.188967952274042 -26.896179216450676" fill="#e5ff1a" stroke="none" /><path d="M 103.2317021107853 120.74984581791261 l 3.237370919038609 20.786243633427485 a42.03683661712572,42.03683661712572 0 0,0 -0.7139754410000141,0.10492980273237948 l -2.8800703724309096 -20.83875450945875" fill="#ffc212" stroke="none" /><path d="M 102.875027216393 120.80226474461374 l 3.4059896028453043 24.64404407436571 a45.878297239038886,45.878297239038886 0 0,0 -0.7810718455639813,0.10112538801137853 l -2.9824399353905475 -24.69888105857748" fill="#fff917" stroke="none" /><path d="M 102.15924093988457 120.88869738790638 l 3.7813798775522796 36.581420124023204 a57.77633929673598,57.77633929673598 0 0,0 -0.9874263523625736,0.09351030219204406 l -3.152853961804691 -36.64094218172043" fill="#6cff28" stroke="none" /><path d="M 101.80034050326958 120.92268563240118 l 2.9510129843360784 34.29524406981166 a55.42197326478643,55.42197326478643 0 0,0 -0.9485893124810567,0.07342681208413311 l -2.3618546770797857 -34.34084864889085" fill="#88ff25" stroke="none" /><path d="M 101.44090949804482 120.95050786540614 l 1.6582641161240665 24.110796309496916 a45.16775410659573,45.16775410659573 0 0,0 -0.7739938769881197,0.04656154964325976 l -1.2441258870034817 -24.135709836964867" fill="#ffef16" stroke="none" /><path d="M 101.08105385017728 120.97215588758144 l 0.7970570331663169 15.462693507928327 a36.48322286974675,36.48322286974675 0 0,0 -0.6257293832353074,0.026871512063950866 l -0.53150188933018 -15.474097588418108" fill="#ff6e0a" stroke="none" /><path d="M 100.72087961077811 120.9876233191556 l 1.1121420874254873 32.37880342193512 a53.39789763331782,53.39789763331782 0 0,0 -0.9163757792219561,0.023602589464086367 l -0.5561529941327872 -32.393123728749245" fill="#a2ff22" stroke="none" /><line stroke="#e1ed5e" stroke-width="0.3" x1="101.45913802915013" x2="101.54496967792366" y1="184.9874750549273" y2="189.98673829345242" /><path d="M 101.47630435890484 185.9873277026323 a86.0,86.0 0 0,1 -42.54439059252881,-10.42667462771756" fill="none" id="id55" stroke="none" /><text fill="#e1ed5e" style="font-size:6.75px; font-family:Arial;" text-anchor="middle"><textPath startOffset="22.145653131862474" xlink:href="#id55">July</textPath></text><path d="M 100.36049292484886 120.99690560180557 l 0.5927616177441837 34.525392522936556 a55.53048066850958,55.53048066850958 0 0,0 -0.9532545425930318,0.008182543767463751 l -4.228764262370982e-15 -34.53048066850958" fill="#87ff25" stroke="none" /><path d="M 99.63950707515114 120.99690560180557 l -0.574692186480371 33.472938739874124 a54.47787178111189,54.47787178111189 0 0,0 -0.9349095079844691,-0.024079952573340734 l 1.1492150085355841 -33.458141069950734" fill="#94ff23" stroke="none" /><path d="M 99.27912038922189 120.98762331915562 l -1.175177582112941 34.214013072002906 a55.23418953094532,55.23418953094532 0 0,0 -0.9473301049113022,-0.04068243081546245 l 1.7623334476250823 -34.188798072761614" fill="#8bff24" stroke="none" /><path d="M 98.91894614982273 120.97215588758144 l -1.436618104971288 27.87000744083124 a48.90700962718005,48.90700962718005 0 0,0 -0.8380696968882648,-0.05041619185415277 l 1.9148321539919992 -27.841239271152396" fill="#dcff1b" stroke="none" /><path d="M 98.55909050195518 120.95050786540614 l -3.296807110558039 47.934851837810974 a69.04809005399815,69.04809005399815 0 0,0 -1.181810686521837,-0.09147962142994549 l 4.119186791855112 -47.871194449385975" fill="#38ff7f" stroke="none" /><path d="M 98.19965949673042 120.92268563240118 l -2.228724923830874 25.901161951155697 a46.99687298899813,46.99687298899813 0 0,0 -0.80319991596621,-0.0760638671258046 l 2.6730244031820996 -25.859086328524707" fill="#f6ff19" stroke="none" /><path d="M 97.84075906011543 120.88869738790638 l -2.901899482503426 28.07324510222406 a49.222829609663535,49.222829609663535 0 0,0 -0.8397510795601708,-0.09409586001785235 l 3.383386463664396 -28.019293481699236" fill="#d8ff1c" stroke="none" /><path d="M 97.12497278360702 120.80226474461374 l -4.556048016872272 32.96529385730686 a54.278644392923205,54.278644392923205 0 0,0 -0.9218966550763766,-0.13548706104136515 l 5.121269777556334 -32.88222572296661" fill="#97ff23" stroke="none" /><path d="M 96.76829788921471 120.74984581791261 l -3.6698796412257813 23.563259890691914 a44.84733178486377,44.84733178486377 0 0,0 -0.7596764211390213,-0.1250044660076417 l 4.073833565417866 -23.496789426188602" fill="#ffea16" stroke="none" /><path d="M 96.41257539226777 120.69131181640829 l -5.763178937880813 33.24048460849202 a54.736390566826024,54.736390566826024 0 0,0 -0.9244331688017502,-0.16846251784475813 l 6.33294684023362 -33.1366539167159" fill="#91ff24" stroke="none" /><path d="M 96.05791012581884 120.62667999033965 l -9.276732722501789 48.5397855782531 a70.41830181205667,70.41830181205667 0 0,0 -1.1853865320716064,-0.23711050510034484 l 10.108615740104353 -48.373385676489896" fill="#3aff91" stroke="none" /><path d="M 95.70440661134978 120.55596938700252 l -4.489164465785483 21.482277064613513 a42.946316900147295,42.946316900147295 0 0,0 -0.7203479466674582,-0.15699648223578758 l 4.857274829072077 -21.402049124244005" fill="#ffcf13" stroke="none" /><path d="M 95.35216902796893 120.47920084513623 l -7.662060714917191 33.7604532550045 a55.61900313964025,55.61900313964025 0 0,0 -0.9292818972733328,-0.21930799745308543 l 8.240474765930411 -33.62394911390519" fill="#86ff25" stroke="none" /><path d="M 94.6519064749342 120.30758222061772 l -8.449334383333495 32.08349889448239 a54.17743439197242,54.17743439197242 0 0,0 -0.8973294919603959,-0.24457114328081062 l 8.998845276228586 -31.933727257057434" fill="#98ff23" stroke="none" /><path d="M 94.30408787586889 120.21278271476187 l -9.560944862191798 33.92842038917193 a56.249813854292185,56.249813854292185 0 0,0 -0.9271576129076962,-0.2698820685776018 l 10.141962487481102 -33.75929462629181" fill="#7eff26" stroke="none" /><path d="M 93.95794788825049 120.11202640906438 l -15.701413405781695 52.264898619896414 a75.57246568268023,75.57246568268023 0 0,0 -1.239242212134188,-0.3839204050901546 l 16.596296250787518 -51.98766162699961" fill="#41ffcf" stroke="none" /><path d="M 93.61358852112213 120.00534299687104 l -11.351859170793976 35.559537169661326 a58.32754198114396,58.32754198114396 0 0,0 -0.9512312808304043,-0.3126886158629568 l 11.960613189272124 -35.35942763239635" fill="#65ff29" stroke="none" /><path d="M 93.27111125876986 119.89276391827306 l -7.469391457980904 22.08192862163684 a44.31101414361079,44.31101414361079 0 0,0 -0.7184592643205179,-0.24991742712593426 l 7.847356494346443 -21.950452761942316" fill="#ffe315" stroke="none" /><path d="M 92.93061703081489 119.77432235084164 l -12.845822446054571 35.93205163975449 a59.15923858461464,59.15923858461464 0 0,0 -0.9533394341388488,-0.3500794453428886 l 13.46075103184754 -35.70624134540288" fill="#5cff2a" stroke="none" /><path d="M 92.25597844496254 119.51999308798841 l -14.030567716199865 35.36619609001718 a59.04766295472584,59.04766295472584 0 0,0 -0.9389858867076745,-0.38187738564107937 l 14.635608064097982 -35.120131447796815" fill="#5dff2a" stroke="none" /><path d="M 91.92203290615298 119.3841803445677 l -12.47382393500164 29.93263650784512 a53.42775064465931,53.42775064465931 0 0,0 -0.8435603869671149,-0.36006576799501994 l 12.985819397139185 -29.714096090190697" fill="#a1ff22" stroke="none" /><path d="M 91.26138138417905 119.09545874513695 l -24.180214942968057 52.83813348439775 a79.10809878840617,79.10809878840617 0 0,0 -1.2299850989801775,-0.5756951319112044 l 25.083688755819722 -52.41526212091602" fill="#46fff8" stroke="none" /><path d="M 90.93487009805054 118.94263497670748 l -14.372091803016223 30.032144251757437 a54.29394406123572,54.29394406123572 0 0,0 -0.8372636814937963,-0.4095476224367429 l 14.88551573377209 -29.781002879223472" fill="#96ff23" stroke="none" /><path d="M 90.6110303473126 118.78422872680471 l -17.427544331350262 34.86676291182934 a59.979615921285024,59.979615921285024 0 0,0 -0.9170391392571063,-0.4682467186672395 l 18.02351069232095 -34.56245824148927" fill="#52ff2b" stroke="none" /><path d="M 89.97174638481275 118.45085714620012 l -18.05295879929364 33.215410843574254 a58.80440237480847,58.80440237480847 0 0,0 -0.8827823624126405,-0.489664495379943 l 18.620485349862385 -32.90061343276117" fill="#60ff29" stroke="none" /><line stroke="#e1ed5e" stroke-width="0.3" x1="58.13341422392154" x2="55.67067388415222" y1="173.97424548756322" y2="178.32567169271397" /><path d="M 57.64086615596768 174.84453072859336 a86.0,86.0 0 0,1 -31.369924170532247,-30.572349798747897" fill="none" id="id56" stroke="none" /><text fill="#e1ed5e" style="font-size:6.75px; font-family:Arial;" text-anchor="middle"><textPath startOffset="22.145653131862474" xlink:href="#id56">August</textPath></text><line stroke="#e1ed5e" stroke-width="0.3" x1="26.387840678322732" x2="22.057713659400548" y1="142.50000000000003" y2="145.00000000000006" /><path d="M 25.521815274538298 143.00000000000003 a86.0,86.0 0 0,1 -11.493303480769221,-40.785679425670985" fill="none" id="id57" stroke="none" /><text fill="#e1ed5e" style="font-size:6.75px; font-family:Arial;" text-anchor="middle"><textPath startOffset="21.40746469413373" xlink:href="#id57">September</textPath></text><line stroke="#e1ed5e" stroke-width="0.3" x1="15.003131293944662" x2="10.003315487706104" y1="100.72959589197737" y2="100.7725132973878" /><path d="M 14.003168132696942 100.73817937305945 a86.0,86.0 0 0,1 10.791469493833604,-42.45332614584628" fill="none" id="id58" stroke="none" /><text fill="#e1ed5e" style="font-size:6.75px; font-family:Arial;" text-anchor="middle"><textPath startOffset="22.145653131862435" xlink:href="#id58">October</textPath></text><line stroke="#e1ed5e" stroke-width="0.3" x1="26.387840678322718" x2="22.05771365940052" y1="57.49999999999999" y2="54.99999999999999" /><path d="M 25.521815274538284 56.99999999999999 a86.0,86.0 0 0,1 29.574782752854787,-30.34633250058573" fill="none" id="id59" stroke="none" /><text fill="#e1ed5e" style="font-size:6.75px; font-family:Arial;" text-anchor="middle"><textPath startOffset="21.40746469413373" xlink:href="#id59">November</textPath></text><line stroke="#e1ed5e" stroke-width="0.3" x1="56.869717070023135" x2="54.33264160355391" y1="26.7553504044142" y2="22.446841604673864" /><path d="M 56.362301976729285 25.89364864446614 a86.0,86.0 0 0,1 42.16139366436587,-11.88097634709845" fill="none" id="id60" stroke="none" /><text fill="#e1ed5e" style="font-size:6.75px; font-family:Arial;" text-anchor="middle"><textPath startOffset="22.145653131862474" xlink:href="#id60">December</textPath></text></svg>