<?xml version="1.0" encoding="utf-8" ?>
<svg baseProfile="full" height="200mm" version="1.1" viewBox="0,0,200,200" width="200mm" xmlns="http://www.w3.org/2000/svg" xmlns:ev="http://www.w3.org/2001/xml-events" xmlns:xlink="http://www.w3.org/1999/xlink"><defs /><rect fill="#1a1a1a" height="200" width="200" x="0" y="0" /><text alignment-baseline="middle" fill="#e1ed5e" style="dominant-baseline: central; font-size:9.0px; font-family:Arial;" text-anchor="middle" x="100.0" y="100.0">2025</text><line stroke="#e1ed5e" stroke-width="0.3" x1="100.0" x2="100.0" y1="15.0" y2="10.0" /><path d="M 100.0 14.0 a86.0,86.0 0 0,1 42.46469731375804,11.215312516191453" fill="none" id="id61" stroke="none" /><text fill="#e1ed5e" style="font-size:6.75px; font-family:Arial;" text-anchor="middle"><textPath startOffset="22.20632615414155" xlink:href="#id61">January</textPath></text><path d="M 100.0 79.0 l 0.0 -39.84752655804048 a60.84752655804048,60.84752655804048 0 0,0 1.0473901458451604,0.009015217658159604 l -0.6859096665726322 39.84162271699088" fill="#31ff2f" stroke="none" /><path d="M 100.72285384407766 79.0124445844662 l 1.0198337734841447 -29.61015980061924 a50.6277171638948,50.6277171638948 0 0,0 0.8706982947114571,0.037494100132790975 l -1.5293729005849335 29.588217973962255" fill="#9fff22" stroke="none" /><path d="M 101.08401301168833 79.027996857942 l 1.5438700962259138 -29.86868991411004 a50.9085635238351,50.9085635238351 0 0,0 0.8747496075456725,0.0527672851647141 l -2.057781752611198 29.837689359565022" fill="#9cff22" stroke="none" /><path d="M 101.44485096284872 79.0497635885617 l 1.696650674524245 -24.60131435897513 a45.65975043873071,45.65975043873071 0 0,0 0.7836296194945569,0.06082474033636351 l -2.119870483381143 24.568464356450303" fill="#daff1c" stroke="none" /><path d="M 101.80526077348638 79.07773832637324 l 2.5422714694989526 -29.46392549566698 a50.5734010529537,50.5734010529537 0 0,0 0.8666712512640867,0.08230087823810502 l -3.0490678478532836 29.415799072913696" fill="#a0ff22" stroke="none" /><path d="M 102.52436894288641 79.15227682838746 l 2.5625432420620617 -21.162988982391532 a42.31756858875475,42.31756858875475 0 0,0 0.7223916697346472,0.09378717151130017 l -2.926449640304555 21.115743487716095" fill="#fffb17" stroke="none" /><path d="M 102.88285421437855 79.19881850522331 l 4.110329036022179 -29.658003465838966 a50.94147582141006,50.94147582141006 0 0,0 0.8675358064990409,0.12785222670328308 l -4.620233822949875 29.582856754974713" fill="#9bff22" stroke="none" /><path d="M 103.2404852339499 79.25152402106235 l 4.315966666720493 -27.63466710854023 a48.969669187676814,48.969669187676814 0 0,0 0.8317167040135882,0.13724038258595692 l -4.791012576872956 27.55628046301465" fill="#b2ff20" stroke="none" /><path d="M 103.59715602781102 79.31037775812273 l 1.3545998045386825 -7.791198943872568 a28.908079514866884,28.908079514866884 0 0,0 0.4895168626205691,0.0894560777308667 l -1.4885117882621526 7.766727384790963" fill="#ff4506" stroke="none" /><path d="M 103.95276090670814 79.375362276772 l 10.004930317624122 -52.20352763987068 a74.15361632765222,74.15361632765222 0 0,0 1.2515491660003322,0.2510489887364097 l -10.902045893091579 52.023574695057064" fill="#40ffc9" stroke="none" /><path d="M 104.307194497241 79.44645832069477 l 3.6401242020278137 -17.370342702692216 a38.74765645980227,38.74765645980227 0 0,0 0.6516198476561298,0.14241885995786105 l -3.9385867738374714 17.305110344638486" fill="#ffcd13" stroke="none" /><path d="M 105.01212808612495 79.60689891045804 l 6.908988543033404 -28.110953942818874 a49.94753623821984,49.94753623821984 0 0,0 0.8331513322062386,0.21238882546761567 l -7.391848763924668 27.987862121182392" fill="#a7ff21" stroke="none" /><path d="M 105.36241919743992 79.69619591428918 l 2.522640450781851 -9.551509422429435 a30.879020553206637,30.879020553206637 0 0,0 0.5127418878860748,0.14015172689629052 l -2.6866802278916366 9.50667115470685" fill="#ff6108" stroke="none" /><path d="M 106.0581310904928 79.89281104454417 l 8.634956493401733 -28.65977959893332 a50.93234772453332,50.93234772453332 0 0,0 0.8372662588901366,0.2601427022404764 l -9.127008125002588 28.50689676181032" fill="#9bff22" stroke="none" /><path d="M 106.40334571778207 80.00007090966166 l 6.603043116476287 -20.62365518438918 a42.65491472074244,42.65491472074244 0 0,0 0.6973411875912217,0.2299024256800342 l -6.9570671263099255 20.50693903444991" fill="#ffff18" stroke="none" /><path d="M 106.74666289553966 80.11325718540242 l 10.133829297886024 -29.870894706674598 a52.54306337082582,52.54306337082582 0 0,0 0.8539949090526991,0.29794205513888455 l -10.646506211001997 29.692031798363505" fill="#89ff24" stroke="none" /><path d="M 107.4271985657038 80.35727306442388 l 9.969539382128428 -26.36646078925239 a49.18833038764434,49.18833038764434 0 0,0 0.7893950202949809,0.3062730038869917 l -10.421917567423076 26.19094508147485" fill="#b0ff20" stroke="none" /><path d="M 108.09893153111575 80.62456947434976 l 10.150395981360504 -24.283239262993973 a47.31931320688729,47.31931320688729 0 0,0 0.7488083975645662,0.32060067712154616 l -10.566888136715386 24.104919057909637" fill="#c6ff1e" stroke="none" /><path d="M 108.43124777332544 80.76684994638697 l 8.724628299419056 -19.90240232004726 a42.730733008162574,42.730733008162574 0 0,0 0.6711123731958956,0.30110855939686887 l -9.065922791081732 19.749273430133858" fill="#feff18" stroke="none" /><path d="M 109.08828744355905 81.06846463323043 l 12.099422260783884 -25.203938791553767 a48.957727905771264,48.957727905771264 0 0,0 0.7565804479670464,0.37125074002461966 l -12.531473975761363 24.991932891394313" fill="#b2ff20" stroke="none" /><path d="M 109.73455568895987 81.39251694778311 l 12.612441891606128 -24.108527008715228 a48.20835836648534,48.20835836648534 0 0,0 0.7319749458996279,0.3909956662018857 l -13.025561884034067 23.88785261601159" fill="#bbff1f" stroke="none" /><path d="M 110.05341064243156 81.56283822128135 l 12.258319156912396 -22.48078999949181 a46.605708495450315,46.605708495450315 0 0,0 0.7010295535925506,0.3901221875856609 l -12.643472799576982 22.26645241434597" fill="#ceff1d" stroke="none" /><line stroke="#e1ed5e" stroke-width="0.3" x1="143.23703022742887" x2="145.7803849466894" y1="26.81831364943548" y2="22.513508569990506" /><path d="M 143.74570117128098 25.957352633546492 a86.0,86.0 0 0,1 28.547481713284135,27.462654790039103" fill="none" id="id62" stroke="none" /><text fill="#e1ed5e" style="font-size:6.75px; font-family:Arial;" text-anchor="middle"><textPath startOffset="19.985693538727396" xlink:href="#id62">February</textPath></text><path d="M 110.68208982089419 81.91981866633111 l 12.082741080982624 -20.450881186622446 a44.75355075224361,44.75355075224361 0 0,0 0.6598760468737527,0.39756793483795316 l -12.432979194074013 20.23986664232588" fill="#e5ff1a" stroke="none" /><path d="M 110.99172775467656 82.1063720568725 l 10.322288211683409 -16.803835475547483 a40.72101723071927,40.72101723071927 0 0,0 0.5941018940672116,0.3720265515618754 l -10.610009258122883 16.623664582662663" fill="#ffe615" stroke="none" /><path d="M 111.60114157652 82.49532879139004 l 11.127636535587287 -16.790211342529005 a41.14287694930709,41.14287694930709 0 0,0 0.5869625139343667,0.39631970955268836 l -11.415003743928196 16.59617972067765" fill="#ffec16" stroke="none" /><path d="M 112.19680574252982 82.90503203632743 l 11.898049852903993 -16.676233545012177 a41.48561337988146,41.48561337988146 0 0,0 0.577745806518203,0.4197568988122288 l -12.183340975775984 16.468957411383276" fill="#fff016" stroke="none" /><path d="M 112.48926042617603 83.11751280151076 l 16.407016023050385 -22.17835392350494 a48.587489148831196,48.587489148831196 0 0,0 0.66808687480704,0.5031891832112115 l -16.786349051615808 21.89264815078788" fill="#b7ff1f" stroke="none" /><path d="M 112.77801427241765 83.33499621200491 l 10.857465663646789 -14.160236681162036 a38.84367853061122,38.84367853061122 0 0,0 0.5271039913846083,0.4114130260606579 l -11.099602210190826 13.971245265878155" fill="#ffce13" stroke="none" /><path d="M 113.06298171725822 83.55741782278167 l 18.64023310541029 -23.46275691661489 a50.965968236521135,50.965968236521135 0 0,0 0.6822076409598183,0.5516311346281568 l -19.041344144934598 23.138419684722603" fill="#9bff22" stroke="none" /><path d="M 113.34407831869373 83.78471172551755 l 19.071120621369722 -23.17460308665284 a51.01282842350472,51.01282842350472 0 0,0 0.6732295674272403,0.5638104016744343 l -19.46720772575608 22.842891527584587" fill="#9aff22" stroke="none" /><path d="M 113.89432698308785 84.25364557470407 l 14.365804404724665 -16.280676857296758 a42.712594850144576,42.712594850144576 0 0,0 0.5471056526644281,0.4911968568735865 l -14.643921044985083 16.030980991653873" fill="#feff18" stroke="none" /><path d="M 114.16331599549186 84.49514656593476 l 9.422230417296829 -10.314696197463844 a34.970375216242715,34.970375216242715 0 0,0 0.44094665038081665,0.4098118554269707 l -9.598384951472493 10.150979755962233" fill="#ff9a0e" stroke="none" /><path d="M 114.42810811169701 84.74124197986012 l 7.456172994002337 -7.885437133614733 a31.852402245801613,31.852402245801613 0 0,0 0.3951468817251791,0.3801309871451582 l -7.590803119339935 7.755923059707273" fill="#ff6f0a" stroke="none" /><path d="M 114.68862486808459 84.99185889309783 l 28.26034053843671 -28.875077302268508 a61.403179782789266,61.403179782789266 0 0,0 0.7490141150590596,0.745797610413094 l -28.753190453663095 28.384343841205293" fill="#30ff34" stroke="none" /><path d="M 115.4437574822437 85.77008943001954 l 13.176118398118046 -12.14050315671329 a38.91652625202191,38.91652625202191 0 0,0 0.4496829800088625,0.4965511780181283 l -13.383145018742944 11.911899191425613" fill="#ffcf13" stroke="none" /><path d="M 115.68641384162765 86.03803664274999 l 16.176704280440767 -14.398354823791125 a42.656370494813295,42.656370494813295 0 0,0 0.4834553927620654,0.5526730876420126 l -16.42215153678068 14.117766179946164" fill="#ffff18" stroke="none" /><path d="M 115.9244219780498 86.31012108654704 l 19.046069548291815 -16.373491373986443 a46.11660775288688,46.11660775288688 0 0,0 0.5123102443202968,0.6064137383059367 l -19.32509040609923 16.0432186860514" fill="#d4ff1c" stroke="none" /><path d="M 116.15771136456269 86.58626213691792 l 8.531484721106645 -7.082630519245674 a32.08827699052591,32.08827699052591 0 0,0 0.34915331804785926,0.4280206835736398 l -8.652136531230914 6.934725666063933" fill="#ff720a" stroke="none" /><path d="M 116.38621287248628 86.86637796730983 l 32.408287112603766 -25.975385342303294 a62.53333260471768,62.53333260471768 0 0,0 0.6659678411383586,0.8457115281525848 l -32.85060903433609 25.413681420197673" fill="#31ff42" stroke="none" /><path d="M 116.60985879189232 87.15038557335679 l 19.98608818444181 -15.461511761456027 a46.26859843493358,46.26859843493358 0 0,0 0.4819074138013762,0.6341336680105175 l -20.2492715384673 15.115193317564476" fill="#d2ff1c" stroke="none" /><path d="M 116.82858285166822 87.43820079747576 l 7.903167928270539 -5.899368321969112 a30.862180788278863,30.862180788278863 0 0,0 0.3141143758961369,0.42845165571349497 l -8.003544916680303 5.762454222584123" fill="#ff6108" stroke="none" /><path d="M 117.2510076193507 88.02491185347247 l 13.5649313911543 -9.416333972773765 a37.51286495837523,37.51286495837523 0 0,0 0.36365245372370886,0.5336151034836263 l -13.725008310546741 9.181440846019733" fill="#ffbc11" stroke="none" /><path d="M 117.45458315368197 88.32363383020206 l 16.64739548100702 -11.136392298699704 a41.02885442883819,41.02885442883819 0 0,0 0.3876315602900667,0.5903894601945004 l -16.836623676655012 10.84818477452753" fill="#ffea16" stroke="none" /><path d="M 117.65298651832404 88.62581576622439 l 25.257730296480506 -16.274077897299605 a51.04660631647316,51.04660631647316 0 0,0 0.46956169741140485,0.7427338398192969 l -25.534119590137866 15.836896409766101" fill="#9aff23" stroke="none" /><line stroke="#e1ed5e" stroke-width="0.3" x1="172.23445277983987" x2="176.4835382374775" y1="55.19839476539836" y2="52.563006222186495" /><path d="M 173.08426987136738 54.67131705675599 a86.0,86.0 0 0,1 12.851231095245387,41.99856678651699" fill="none" id="id63" stroke="none" /><text fill="#e1ed5e" style="font-size:6.75px; font-family:Arial;" text-anchor="middle"><textPath startOffset="22.20632615414155" xlink:href="#id63">March</textPath></text><path d="M 117.84615892207809 88.93136811851018 l 4.214105820445517 -2.613693301724984 a25.958838628287356,25.958838628287356 0 0,0 0.23225027014726207,0.3817583780253341 l -4.2584718888790025 2.5407671504925684" fill="#ff1902" stroke="none" /><path d="M 118.03404312379186 89.2402003453031 l 33.83897778336217 -20.189627970245198 a60.4042826987091,60.4042826987091 0 0,0 0.5250579727242255,0.8974942754282214 l -34.181495430556716 19.60415428246308" fill="#35ff2f" stroke="none" /><path d="M 118.21658344932153 89.55222093294921 l 7.068552248496581 -4.054035292712801 a29.14859699851987,29.14859699851987 0 0,0 0.24587862977781513,0.437390646499942 l -7.137288519566829 3.9317611362780656" fill="#ff4806" stroke="none" /><path d="M 118.56541770881063 90.18545643968196 l 17.498799845708508 -9.25067973329189 a40.79351084492353,40.79351084492353 0 0,0 0.322833175747942,0.6236109398089953 l -17.65544245461657 8.94809607122255" fill="#ffe715" stroke="none" /><path d="M 118.73160827565052 90.50648371742162 l 8.969795470915122 -4.546053819907427 a31.05603481117405,31.05603481117405 0 0,0 0.23756385856121456,0.4789142425162639 l -9.046719342429745 4.390979988892213" fill="#ff6309" stroke="none" /><path d="M 118.89224826269711 90.83032412892265 l 27.000413841065445 -13.105112735384653 a51.01276940563699,51.01276940563699 0 0,0 0.37662437646590285,0.7932669880281411 l -27.221996411373105 12.638403331715972" fill="#9aff22" stroke="none" /><path d="M 119.196687751892 91.48605970444005 l 23.399899291289756 -10.378110435667265 a46.59805584526701,46.59805584526701 0 0,0 0.3188844537254497,0.7360292849750629 l -23.575074454857887 9.9737820061056" fill="#ceff1d" stroke="none" /><path d="M 119.34039704204932 91.81776055985345 l 20.002474173383057 -8.462340908830972 a42.71889008936991,42.71889008936991 0 0,0 0.2806800186964381,0.6796889286128025 l -20.14517587896569 8.116777409764866" fill="#feff18" stroke="none" /><path d="M 119.47837535516314 92.15188598940014 l 3.0517674427304473 -1.229600435748699 a24.29016743587662,24.29016743587662 0 0,0 0.15291984807030318,0.3891643335737477 l -3.072480840682451 1.1768870972791667" fill="#ff0000" stroke="none" /><path d="M 119.61058180528143 92.48833698450437 l 12.903405450156406 -4.942537373765271 a34.817617301915426,34.817617301915426 0 0,0 0.2095612888699301,0.5615200668536156 l -12.986571327527962 4.719694169882322" fill="#ff980e" stroke="none" /><path d="M 119.85752413597 93.16781622104841 l 9.344691343052157 -3.215136397475745 a30.882325553799937,30.882325553799937 0 0,0 0.16862147726761526,0.5041567544834363 l -9.398650114091541 3.0538065400699947" fill="#ff6109" stroke="none" /><path d="M 120.08093135843002 93.85539295169968 l 47.445494092682296 -14.517948007904527 a70.6169902761037,70.6169902761037 0 0,0 0.34566715067160586,1.165417791719219 l -47.6883671404656 13.699100829438779" fill="#3cffa2" stroke="none" /><path d="M 120.28053869075195 94.5502522615342 l 11.675194584611402 -3.137336056692042 a33.08937740833495,33.08937740833495 0 0,0 0.1430779449907024,0.5513376872161674 l -11.727468861472408 2.935901943927024" fill="#ff800b" stroke="none" /><path d="M 120.37134235888165 94.90015583598534 l 29.16987653376964 -7.302504763065583 a51.07005608258754,51.07005608258754 0 0,0 0.20614598307827864,0.8546081870192208 l -29.291255317108735 6.799311344386956" fill="#9aff23" stroke="none" /><path d="M 120.53481517161879 95.60439243477599 l 29.30786644673657 -6.273534891704354 a50.97179133280457,50.97179133280457 0 0,0 0.17626701786010127,0.859540579043091 l -29.411512760511666 5.76811865649785" fill="#9bff22" stroke="none" /><path d="M 120.6074358757038 95.95851677861258 l 12.753145814729818 -2.501117807233143 a33.9960885830091,33.9960885830091 0 0,0 0.10767739152357846,0.5752169311460863 l -12.794308930163256 2.2812227986244937" fill="#ff8d0d" stroke="none" /><path d="M 120.67395015179393 96.31383870115 l 34.123734895470804 -6.084255307783389 a55.6619019366604,55.6619019366604 0 0,0 0.16006279248565783,0.9446996618855216 l -34.223409549476685 5.495969857582029" fill="#67ff28" stroke="none" /><path d="M 120.73433829027371 96.67025291283417 l 29.469640256415573 -4.732557529923916 a50.847224286633235,50.847224286633235 0 0,0 0.13134105964380724,0.865373480592457 l -29.54673720949868 4.224584936939377" fill="#9cff22" stroke="none" /><path d="M 120.83666639777658 97.38593545837742 l 29.503524238149023 -3.701365424369289 a50.734795248593244,50.734795248593244 0 0,0 0.10125130282398749,0.8674593294673293 l -29.5628658939766 3.192962356577107" fill="#9eff22" stroke="none" /><path d="M 120.87857604477298 97.74499172005257 l 21.53697988861906 -2.326119744457185 a42.662232936341894,42.662232936341894 0 0,0 0.07257226596668694,0.7307928143804459 l -21.57382928026798 1.9550513993723044" fill="#ffff18" stroke="none" /><path d="M 120.94382443527127 98.46500227214037 l 29.681152268755632 -2.1753668454204456 a50.76076311039776,50.76076311039776 0 0,0 0.05636719028092109,0.8719754849368999 l -29.71420005004097 1.6641322962305103" fill="#9dff22" stroke="none" /><path d="M 120.96714384426684 98.82574320788733 l 26.727343520458078 -1.4968545500110215 a47.76922608527301,47.76922608527301 0 0,0 0.038912337895112364,0.8213779516479507 l -26.749149466586687 1.036565491740071" fill="#c0ff1e" stroke="none" /><path d="M 120.98425023603335 99.18683210126433 l 19.733413521359253 -0.7646962949617878 a40.74822446774627,40.74822446774627 0 0,0 0.021127577066418154,0.7011214256963717 l -19.743652792881313 0.4249047218404171" fill="#ffe715" stroke="none" /><line stroke="#e1ed5e" stroke-width="0.3" x1="184.98032266829074" x2="189.97916517819016" y1="98.17113171792111" y2="98.06355123074" /><path d="M 185.9800911702706 98.14961562048488 a86.0,86.0 0 0,1 -9.607161424134198,41.387399972396054" fill="none" id="id64" stroke="none" /><text fill="#e1ed5e" style="font-size:6.75px; font-family:Arial;" text-anchor="middle"><textPath startOffset="21.466115282336823" xlink:href="#id64">April</textPath></text><path d="M 120.99980553446 99.90962569577887 l 29.854364403495218 -0.12848059028463443 a50.85464086534558,50.85464086534558 0 0,0 -0.0037673667921699497,0.8754033648656186 l -29.852152739413544 -0.38543225278466897" fill="#9cff22" stroke="none" /><path d="M 120.9764740272857 100.99374915477107 l 14.185107865290615 0.672011842082354 a35.20101704336096,35.20101704336096 0 0,0 -0.03388290509126663,0.6050020316527516 l -14.171438609311817 -0.9160855900705289" fill="#ff9d0e" stroke="none" /><path d="M 120.95626037817324 101.35467743843564 l 23.770725370993947 1.536613153980205 a44.820339305899914,44.820339305899914 0 0,0 -0.05639560029971079,0.7694731595765057 l -23.7407532120299 -1.9455594500534812" fill="#e4ff1a" stroke="none" /><path d="M 120.92983693683757 101.71520430193887 l 10.140823039380484 0.831042466065879 a31.174818106307104,31.174818106307104 0 0,0 -0.048432906033667185,0.5344530822325507 l -10.125015537069741 -1.0054769368470002" fill="#ff6509" stroke="none" /><path d="M 120.89721153311464 102.0752229133903 l 29.591973786405376 2.938666814789171 a50.73752974313176,50.73752974313176 0 0,0 -0.09378638724525243,0.8683454670553024 l -29.537005097659073 -3.4476086037292646" fill="#9eff22" stroke="none" /><path d="M 120.8583938346157 102.4346265915055 l 27.443043601198024 3.203197917973956 a48.629352489679675,48.629352489679675 0 0,0 -0.10420226039707686,0.8305945408832461 l -27.3838398315541 -3.6751102131445967" fill="#b6ff1f" stroke="none" /><path d="M 120.81339534386255 102.79330883721812 l 29.522847397268567 3.9621805655534126 a50.787537549728015,50.787537549728015 0 0,0 -0.12374250263151558,0.8654547751969123 l -29.450270843620448 -4.469780812730734" fill="#9dff22" stroke="none" /><path d="M 120.70491114924044 103.5080841355445 l 20.268684464373866 3.434173172988269 a41.557556160653505,41.557556160653505 0 0,0 -0.12557022790868716,0.7042645239489432 l -20.20656779412599 -3.7825564476704305" fill="#fff116" stroke="none" /><path d="M 120.64145759157962 103.86396538481128 l 29.740355602363906 5.567228189659946 a51.2569459970897,51.2569459970897 0 0,0 -0.16980710326096643,0.8658427611851057 l -29.640118566127274 -6.078334677912997" fill="#98ff23" stroke="none" /><path d="M 120.5718875245553 104.21870165774334 l 29.1418328411116 5.976150626418241 a50.74829066768257,50.74829066768257 0 0,0 -0.1828532474505512,0.8542294971084373 l -29.034645554936606 -6.476893942942848" fill="#9eff22" stroke="none" /><path d="M 120.41448212921028 104.9243191809786 l 29.019084160154563 6.999895066640584 a50.85139488262002,50.85139488262002 0 0,0 -0.21257986300038473,0.8491508815783126 l -28.894292982859117 -7.498373787616292" fill="#9cff22" stroke="none" /><path d="M 120.32669344350535 105.2749913415812 l 28.733884230507996 7.456746024492016 a50.68567271001305,50.68567271001305 0 0,0 -0.22642478375416236,0.842610852436297 l -28.601271370412057 -7.950247810103862" fill="#9eff22" stroke="none" /><path d="M 120.13307415673323 105.97154293290107 l 28.365107587230753 8.413193953137979 a50.58650301959143,50.58650301959143 0 0,0 -0.25479512819097383,0.8326852212755559 l -28.216085686533646 -8.900206146965592" fill="#9fff22" stroke="none" /><path d="M 120.02730092923936 106.31721596034902 l 24.432735536159843 7.7068231724961525 a46.61940064076542,46.61940064076542 0 0,0 -0.24798801450245897,0.7632286296510014 l -24.296455270641136 -8.126250702124949" fill="#ceff1d" stroke="none" /><path d="M 119.9155931802556 106.66101706037122 l 28.168758974584982 9.421390686229485 a50.70255182018598,50.70255182018598 0 0,0 -0.2839564280299931,0.8253102969128022 l -28.002411715611757 -9.904873686231587" fill="#9eff22" stroke="none" /><path d="M 119.67450827220406 107.3425965602758 l 30.81934354011096 11.501888775908188 a53.895674208879534,53.895674208879534 0 0,0 -0.33185804668442026,0.8663766410741178 l -30.616791213833036 -12.03068898381545" fill="#7aff26" stroke="none" /><path d="M 119.41010516605496 108.01547362559984 l 20.061094838040564 8.284302181740989 a42.70431267603875,42.70431267603875 0 0,0 -0.28642193044175723,0.6770168358938413 l -19.915521926406498 -8.628393543300993" fill="#feff18" stroke="none" /><path d="M 119.26925614724726 108.34839909993367 l 38.10398798704159 16.508540681802344 a62.52644718681497,62.52644718681497 0 0,0 -0.43637182263366453,0.9839032612421483 l -37.81417507967666 -17.16199227953718" fill="#31ff42" stroke="none" /><path d="M 118.97047184881838 109.00673069616215 l 35.942184994077095 17.064498102795305 a60.787407023438526,60.787407023438526 0 0,0 -0.4569092494040769,0.9413683858217234 l -35.6431224880583 -17.680655444582303" fill="#32ff2f" stroke="none" /><path d="M 118.81262510543309 109.33194174019688 l 30.119650647307267 14.940755131221966 a54.62171201778655,54.62171201778655 0 0,0 -0.4250644207856196,0.8386924280820762 l -29.85800755673538 -15.457001771006736" fill="#72ff27" stroke="none" /><path d="M 118.64920377521936 109.65438752849418 l 33.903282505822666 17.551174395668237 a59.1769077759944,59.1769077759944 0 0,0 -0.4760852447505274,0.9005738656590662 l -33.596144752847245 -18.132163276413436" fill="#42ff2d" stroke="none" /><line stroke="#e1ed5e" stroke-width="0.3" x1="174.80103733775053" x2="179.2010983576182" y1="140.37084112569926" y2="142.7455964860345" /><path d="M 175.68104954172406 140.8457921977663 a86.0,86.0 0 0,1 -30.038265399797805,32.042727171017184" fill="none" id="id65" stroke="none" /><text fill="#e1ed5e" style="font-size:6.75px; font-family:Arial;" text-anchor="middle"><textPath startOffset="22.206326154141568" xlink:href="#id65">May</textPath></text><path d="M 118.30583269289576 110.29060199501025 l 25.90946242284083 14.56497337056958 a50.722696585707055,50.722696585707055 0 0,0 -0.4343988443194251,0.757411000658473 l -25.654911582369024 -15.008804217086368" fill="#9eff22" stroke="none" /><path d="M 118.12598468904814 110.60418214915192 l 17.280582360457384 10.109599347969814 a41.02055258210978,41.02055258210978 0 0,0 -0.36179956322062845,0.6063968786297679 l -17.10400192153853 -10.405558320485685" fill="#ffea16" stroke="none" /><path d="M 117.94076556474637 110.91462005526583 l 18.517534270034034 11.265508720259728 a42.67511850413125,42.67511850413125 0 0,0 -0.38719614673319197,0.6242834744709914 l -18.320873483632877 -11.582588526095993" fill="#ffff18" stroke="none" /><path d="M 117.75023020441432 111.22182372390056 l 23.562551792518263 14.896415407342673 a48.876460301896685,48.876460301896685 0 0,0 -0.4557034867836208,0.7072619313353802 l -23.302643442357592 -15.299798938599507" fill="#b3ff20" stroke="none" /><path d="M 117.35343817320211 111.8261652097733 l 17.993372013118826 12.26227263924318 a42.77440623028834,42.77440623028834 0 0,0 -0.41987987128523374,0.6048682707069577 l -17.77963123467146 -12.570182172137159" fill="#fdff18" stroke="none" /><path d="M 117.14729908036423 112.12312394758627 l 24.366800214833145 17.22730430174658 a50.841597916575594,50.841597916575594 0 0,0 -0.5113701365664389,0.7102483939947173 l -24.066650285891104 -17.644186301192427" fill="#9cff22" stroke="none" /><path d="M 116.93607887273984 112.41649034213515 l 17.472314173974635 12.809625051114955 a42.66490841301266,42.66490841301266 0 0,0 -0.43932408341903656,0.5885464030554495 l -17.249228823860506 -13.10848433367972" fill="#ffff18" stroke="none" /><path d="M 116.498646956653 112.99209946851258 l 23.519899484353303 18.521086874152118 a50.93687242772653,50.93687242772653 0 0,0 -0.5483768796121883,0.6841844741160529 l -23.197604692686262 -18.923199181846424" fill="#9bff22" stroke="none" /><path d="M 116.27256486870786 113.27417163493432 l 27.81202485870197 22.68736333012912 a56.891853972932964,56.891853972932964 0 0,0 -0.6255503169439346,0.7535156544999294 l -27.417378541864494 -23.16274024174282" fill="#5aff2a" stroke="none" /><path d="M 116.0416608686014 113.55231037782055 l 8.284781832352554 6.999146517573757 a31.845536500521483,31.845536500521483 0 0,0 -0.35736377205166936,0.41569480210859006 l -8.163075550730106 -7.140718418843875" fill="#ff6f0a" stroke="none" /><path d="M 115.80600337817218 113.82643327865902 l 22.525161365846564 19.704072766807233 a50.92713447954984,50.92713447954984 0 0,0 -0.5828517183299421,0.654840084312333 l -22.182650797868284 -20.08888702086043" fill="#9bff22" stroke="none" /><path d="M 115.56566222782051 114.09645910891815 l 8.042070874753872 7.283000336109878 a31.849746441753425,31.849746441753425 0 0,0 -0.37150999025395115,0.40320072030646664 l -7.9155144765042 -7.4203523112176795" fill="#ff6f0a" stroke="none" /><path d="M 115.32070863581623 114.36230785411682 l 21.741568721981146 20.381505231849502 a50.80103296881733,50.80103296881733 0 0,0 -0.6035488051857694,0.6328185092809545 l -21.387513365416414 -20.75273085771296" fill="#9dff22" stroke="none" /><path d="M 115.07121518719521 114.62390073753431 l 7.791878773456435 7.560615406695255 a31.857084329975457,31.857084329975457 0 0,0 -0.38525739161874567,0.3902637037117045 l -7.660580756782155 -7.6936196043876235" fill="#ff6f0a" stroke="none" /><path d="M 114.81725581225074 114.88116024355365 l 21.142954702159276 21.234140851161822 a50.96520100424054,50.96520100424054 0 0,0 -0.626993433648703,0.6136450394501263 l -20.774311316134778 -21.59493599353452" fill="#9bff22" stroke="none" /><path d="M 114.55890576462653 115.13401014063108 l 21.860889713123964 22.724436296955627 a52.5324991725008,52.5324991725008 0 0,0 -0.6570669077385958,0.6212977733153686 l -21.46648697099456 -23.09736870701692" fill="#89ff24" stroke="none" /><path d="M 114.0293411484842 115.62618273729858 l 18.96579054642651 21.124506539482855 a49.389187864177714,49.389187864177714 0 0,0 -0.6374912883008821,0.5625119420843917 l -18.599356905219043 -21.44784162333954" fill="#adff20" stroke="none" /><path d="M 113.75828350139079 115.86535959552629 l 19.5983299046624 22.599806972853393 a50.913973495044374,50.913973495044374 0 0,0 -0.6670567539584705,0.5684802372106311 l -19.206407674126883 -22.93381160028697" fill="#9cff22" stroke="none" /><path d="M 113.20401910651253 116.32954008644616 l 28.848366825892423 35.67705853133506 a66.88115924831845,66.88115924831845 0 0,0 -0.9014386192197227,0.7161573574747258 l -28.22997071395535 -36.16834980281491" fill="#37ff77" stroke="none" /><path d="M 112.92097659922987 116.55440617244103 l 15.384770827808124 19.711029053998708 a46.004316423204955,46.004316423204955 0 0,0 -0.6284436546244025,0.4818637961538108 l -15.043198444690228 -19.97293219197989" fill="#d5ff1c" stroke="none" /><path d="M 112.63410532772338 116.77436683061366 l 8.450705541364114 11.22004534957325 a35.04648859300154,35.04648859300154 0 0,0 -0.4850017294847901,0.3587926847190715 l -8.25631884146076 -11.36384798303209" fill="#ff9b0e" stroke="none" /><path d="M 112.34349029814194 116.9893568818739 l 17.50272018596404 24.090427623026752 a50.77740614909975,50.77740614909975 0 0,0 -0.7115429996380029,0.5076670376033389 l -17.08544985847715 -24.38813892247431" fill="#9dff22" stroke="none" /><path d="M 112.04921762599082 117.19931262002967 l 7.391530286470849 10.55082944665261 a33.88234147925631,33.88234147925631 0 0,0 -0.480553435354905,0.3305290347572751 l -7.208819966493061 -10.67649927077498" fill="#ff8b0c" stroke="none" /><path d="M 111.7513745106137 117.40417183066458 l 16.741046540454597 24.794040080338515 a50.91666864433772,50.91666864433772 0 0,0 -0.7305943104005945,0.48419807084342187 l -16.31177753131404 -25.078536172273257" fill="#9cff22" stroke="none" /><path d="M 111.45004920935366 117.60387380957326 l 8.609793998942052 13.237124514712246 a36.790820691851785,36.790820691851785 0 0,0 -0.5338491705921704,0.3407277988712203 l -8.380663026302951 -13.383366742407276" fill="#ffb310" stroke="none" /><line stroke="#e1ed5e" stroke-width="0.3" x1="143.8653032363475" x2="146.44561519142675" y1="172.8068346515853" y2="177.08958963109032" /><path d="M 144.38136562736335 173.6633856474863 a86.0,86.0 0 0,1 -40.68145358897372,12.25698825130547" fill="none" id="id66" stroke="none" /><text fill="#e1ed5e" style="font-size:6.75px; font-family:Arial;" text-anchor="middle"><textPath startOffset="21.466115282336833" xlink:href="#id66">June</textPath></text><path d="M 110.8373102113329 117.98757091392108 l 10.499275824931429 17.426507570880297 a41.34497380106295,41.34497380106295 0 0,0 -0.6127563913514565,0.36202727671509416 l -10.197751562551591 -17.60465341988914" fill="#ffee16" stroke="none" /><path d="M 109.89434966115114 118.52300852407294 l 14.113875377183009 26.42229584282229 a50.95562043704448,50.95562043704448 0 0,0 -0.777216609209151,0.4066029964127623 l -13.656967865447363 -26.66132825817977" fill="#9bff22" stroke="none" /><path d="M 109.57404056367764 118.69057910512821 l 4.948759090144711 9.661038370516602 a31.854762960511113,31.854762960511113 0 0,0 -0.49017819868481455,0.245785524753048 l -4.781726983777136 -9.744791736178952" fill="#ff6f0a" stroke="none" /><path d="M 109.2508944713604 118.85261126421891 l 13.176306652043856 26.852299307722486 a50.91088489329944,50.91088489329944 0 0,0 -0.7900577356011719,0.3792757248180881 l -12.71213624844245 -27.075129309040133" fill="#9cff22" stroke="none" /><path d="M 108.92500713936063 119.00905698771935 l 5.028913581788373 10.710905142130706 a32.83272837416703,32.83272837416703 0 0,0 -0.5136477170090006,0.23579047404922351 l -4.843797869011953 -10.795882686514004" fill="#ff7d0b" stroke="none" /><path d="M 108.59647513512805 119.15986991738527 l 10.642243050136582 23.719488425738017 a46.997528119359735,46.997528119359735 0 0,0 -0.7409480905957555,0.32480986845998616 l -10.232374284883072 -23.899162847492455" fill="#c9ff1d" stroke="none" /><path d="M 108.2653958097858 119.30500536409082 l 11.770620292422949 27.491954785138116 a50.90577001142886,50.90577001142886 0 0,0 -0.8085012940509418,0.33795360648469014 l -11.295647538874547 -27.69049343464278" fill="#9cff22" stroke="none" /><path d="M 107.59598834532513 119.57807347666477 l 16.508896616601955 42.55040638357658 a66.64077947302353,66.64077947302353 0 0,0 -1.073011050075079,0.40572096523257956 l -15.774015345766603 -42.82827559891579" fill="#37ff74" stroke="none" /><path d="M 107.2578585660854 119.70592522655815 l 5.453687762851085 14.807392881135135 a36.77978435058487,36.77978435058487 0 0,0 -0.5959733894647916,0.2136948537445168 l -5.1979948127565585 -14.89907527591961" fill="#ffb310" stroke="none" /><path d="M 106.91757812671514 119.82793768551818 l 4.658319515186555 13.352197456165548 a35.141468014813796,35.141468014813796 0 0,0 -0.5728565776423382,0.19434405386931525 l -4.42779320460699 -13.430404496932987" fill="#ff9c0e" stroke="none" /><path d="M 106.57524785965236 119.94407469862006 l 7.827044122893689 23.741029386022277 a45.99798183873446,45.99798183873446 0 0,0 -0.7541011102843264,0.2414393617848674 l -7.417221667518422 -23.87224159446685" fill="#d6ff1c" stroke="none" /><path d="M 106.2309692047433 120.05430185196036 l 8.874359271724945 28.562022011348848 a50.908917631041525,50.908917631041525 0 0,0 -0.8390881150601747,0.25281036592286593 l -8.381396182224524 -28.71054774637744" fill="#9cff22" stroke="none" /><path d="M 105.53697534728816 120.25689768951611 l 2.0839154216896554 7.623956915655611 a28.903633502163988,28.903633502163988 0 0,0 -0.48105219745143346,0.12705025756230873 l -1.9523727814267244 -7.658698522521503" fill="#ff4506" stroke="none" /><path d="M 105.18746579009965 120.34920634021253 l 7.379841598567972 28.949380202940784 a50.8752184285634,50.8752184285634 0 0,0 -0.8504561103485159,0.2090214204293012 l -6.880432203476245 -29.072122881684116" fill="#9cff22" stroke="none" /><path d="M 104.83641907484287 120.43548508189849 l 7.255729576380672 30.657879563762645 a52.504780447286734,52.504780447286734 0 0,0 -0.8812798651533431,0.2005764281079938 l -6.726929561834467 -30.778232725448323" fill="#8aff24" stroke="none" /><path d="M 104.48393922423573 120.51570834832081 l 3.958453224649512 18.11141226634745 a39.538948357804415,39.538948357804415 0 0,0 -0.6661532159568606,0.1395988832901592 l -3.6461085472632733 -18.17686713036415" fill="#ffd714" stroke="none" /><path d="M 104.13013068566511 120.58985236759428 l 5.930025341948665 29.56282878665214 a51.151717138913696,51.151717138913696 0 0,0 -0.864786483551522,0.16573838778182703 l -5.420271243825438 -29.660524372782437" fill="#99ff23" stroke="none" /><path d="M 103.7750983002368 120.6578951692458 l 3.546325754184026 19.406018026427187 a40.72739116043492,40.72739116043492 0 0,0 -0.690719154811859,0.12009037875167324 l -3.2117576279001168 -19.464186983699864" fill="#ffe715" stroke="none" /><path d="M 103.41894727170886 120.7198165907248 l 3.2876649576752563 19.924207518045936 a41.19363231556136,41.19363231556136 0 0,0 -0.700613719562655,0.10942145414680836 l -2.9442153745040844 -19.97784727953985" fill="#ffed16" stroke="none" /><path d="M 102.70371172650421 120.8252237178851 l 4.977598111654969 38.33973616224421 a59.66150348798721,59.66150348798721 0 0,0 -1.0195655953030016,0.12345519473910076 l -4.316905093300587 -38.41973688570866" fill="#3dff2e" stroke="none" /><path d="M 102.34483914955558 120.86867818915974 l 2.6490798362459635 23.57636966718447 a44.724730360165125,44.724730360165125 0 0,0 -0.7657883411009117,0.07937709267472715 l -2.242858898539449 -23.618476128314953" fill="#e5ff1a" stroke="none" /><path d="M 101.98527174616119 120.90594882070398 l 1.9407050791307798 20.436638530136094 a41.52857838759438,41.52857838759438 0 0,0 -0.7122263563051391,0.061453886914220664 l -1.588634405084099 -20.467016669328977" fill="#fff116" stroke="none" /><path d="M 101.62511606390274 120.93702456842531 l 1.3745521755781656 17.708909111112586 a38.7621748552657,38.7621748552657 0 0,0 -0.6656706536193994,0.045908545657127736 l -1.069518761179836 -17.729946001286" fill="#ffcd13" stroke="none" /><path d="M 101.26447882468166 120.96189622390904 l 2.62357659057532 43.492337834097114 a64.57139663129757,64.57139663129757 0 0,0 -1.110049743957337,0.057376892322596115 l -1.8745387782045035 -43.53105453318191" fill="#34ff5b" stroke="none" /><path d="M 100.90346689309514 120.98055641714683 l 1.2227001187022462 28.393878090874484 a49.420191917362494,49.420191917362494 0 0,0 -0.8502147407655197,0.0292831147547082 l -0.7337650262620743 -28.410718004055283" fill="#adff20" stroke="none" /><line stroke="#e1ed5e" stroke-width="0.3" x1="102.19456741930631" x2="102.32365962044197" y1="184.97166512339345" y2="189.96999836594603" /><path d="M 102.22038585953345 185.97133177190398 a86.0,86.0 0 0,1 -42.740103519485714,-10.115201625700543" fill="none" id="id67" stroke="none" /><text fill="#e1ed5e" style="font-size:6.75px; font-family:Arial;" text-anchor="middle"><textPath startOffset="22.20632615414155" xlink:href="#id67">July</textPath></text><path d="M 100.18074693466247 120.99922214144158 l 0.26275707050333696 30.527179357359845 a51.52831015294683,51.52831015294683 0 0,0 -0.8870080103315638,0.0 l 0.2627570705033159 -30.527179357359845" fill="#95ff23" stroke="none" /><path d="M 99.81925306533755 120.99922214144158 l -0.2573587400804718 29.900000036427453 a50.90110759987759,50.90110759987759 0 0,0 -0.8760815293193539,-0.01508253802648463 l 0.7719999592924937 -29.891140021121807" fill="#9cff22" stroke="none" /><path d="M 99.45781275523022 120.99299961872073 l -0.27975935390552026 10.832029094240115 a31.835641171364156,31.835641171364156 0 0,0 -0.5476937736477475,-0.018863680968087236 l 0.4661734792279108 -10.825608614845935" fill="#ff6f0a" stroke="none" /><path d="M 99.09653310690486 120.98055641714683 l -0.3605688912107747 8.373229857266203 a29.38098968904766,29.38098968904766 0 0,0 -0.5050898971222124,-0.02610737833882776 l 0.504646856746476 -8.365782672165174" fill="#ff4b07" stroke="none" /><path d="M 98.73552117531835 120.96189622390904 l -1.7942923013120662 29.74487850750034 a50.798947670823935,50.798947670823935 0 0,0 -0.8723805830162641,-0.060164472638285296 l 2.30603564510726 -29.709585690345765" fill="#9dff22" stroke="none" /><path d="M 98.37488393609728 120.93702456842531 l -0.542627249383447 6.99088533070975 a28.01191286589517,28.01191286589517 0 0,0 -0.480411885218141,-0.04145195892441052 l 0.6628834523431296 -6.980509119506675" fill="#ff3805" stroke="none" /><path d="M 97.65516085044442 120.86867818915974 l -0.5068691385772021 4.51105097720201 a25.539437987521936,25.539437987521936 0 0,0 -0.4364478059238684,-0.05284775116188157 l 0.5844443675524598 -4.50165769731478" fill="#ff1302" stroke="none" /><path d="M 97.2962882734958 120.8252237178851 l -3.219614761937658 24.79894474158655 a46.00707059036604,46.00707059036604 0 0,0 -0.7844674562694895,-0.10872004135520538 l 3.6460108093939785 -24.73985013473874" fill="#d5ff1c" stroke="none" /><path d="M 96.93821686468263 120.77559828337769 l -4.3599074018908555 29.583964876408697 a50.90350765983225,50.90350765983225 0 0,0 -0.8657574929819628,-0.13521351520166713 l 4.868500758481336 -29.504533053859923" fill="#9cff22" stroke="none" /><path d="M 96.58105272829116 120.7198165907248 l -6.084661092274887 36.874819009899944 a58.37345819723834,58.37345819723834 0 0,0 -0.9899889131276063,-0.17212226229607724 l 6.718498976874543 -36.76461816908286" fill="#4aff2c" stroke="none" /><path d="M 96.22490169976321 120.6578951692458 l -2.8384992434898546 15.532686872370679 a36.789915751213144,36.789915751213144 0 0,0 -0.6219815023266463,-0.11920423524935067 l 3.105448360388196 -15.481525438772861" fill="#ffb310" stroke="none" /><path d="M 95.51606077576429 120.51570834832081 l -4.286047296781436 19.610278353597586 a41.07319652013165,41.07319652013165 0 0,0 -0.6894035320654095,-0.15690599939288338 l 4.622970978239708 -19.533595620627015" fill="#ffeb16" stroke="none" /><path d="M 95.16358092515715 120.4354850818985 l -6.6587079980147355 28.135264097760135 a49.91247962478376,49.91247962478376 0 0,0 -0.834362477266751,-0.20506599697395053 l 7.1420237600246965 -28.016476842472155" fill="#a7ff21" stroke="none" /><path d="M 94.81253420990036 120.34920634021253 l -7.399347929106852 29.025898942752825 a50.95418433559621,50.95418433559621 0 0,0 -0.8480464001921896,-0.22397676206454584 l 7.89788477211053 -28.894230831384697" fill="#9bff22" stroke="none" /><path d="M 94.46302465271185 120.25689768951611 l -5.203164765790555 19.03565931062636 a40.733961816376365,40.733961816376365 0 0,0 -0.6747655102635288,-0.19069547325097888 l 5.530061444158697 -18.943275044036863" fill="#ffe715" stroke="none" /><path d="M 94.11515582081647 120.15858648285463 l -8.377691532033325 28.697857433942023 a50.895697628668316,50.895697628668316 0 0,0 -0.8388702210763972,-0.2527447162529654 l 8.870436727549968 -28.549397348583334" fill="#9cff22" stroke="none" /><path d="M 93.76903079525671 120.05430185196036 l -5.8474334977873665 18.81989664378761 a40.7073841032719,40.7073841032719 0 0,0 -0.6673658782828993,-0.2136694795063607 l 6.170520721161206 -18.716454317621544" fill="#ffe615" stroke="none" /><path d="M 93.08242187328487 119.8279376855182 l -3.5788717151153655 10.258163196989848 a31.864540253932965,31.864540253932965 0 0,0 -0.5163276075209557,-0.18513671000064802 l 3.754918883266048 -10.195038945949243" fill="#ff6f0a" stroke="none" /><path d="M 92.40401165467489 119.57807347666478 l -18.44408969913285 47.53821713826807 a71.99084754654292,71.99084754654292 0 0,0 -1.151438495655594,-0.4581811404036782 l 19.2596492708303 -47.213689153458326" fill="#3effb1" stroke="none" /><path d="M 92.06813273071674 119.44442032107085 l -4.120029949977675 10.099966547978491 a31.907977404587783,31.907977404587783 0 0,0 -0.5067724349590531,-0.21183091891334635 l 4.29327384443419 -10.027550586045173" fill="#ff700a" stroke="none" /><path d="M 91.7346041902142 119.30500536409082 l -15.64109793323842 36.532004812636174 a60.739543532703394,60.739543532703394 0 0,0 -0.9576003378287653,-0.41978384682428443 l 16.26761894572493 -36.25735641251744" fill="#32ff2f" stroke="none" /><path d="M 91.40352486487194 119.15986991738527 l -1.9414345673910995 4.327079783238916 a25.742656178764808,25.742656178764808 0 0,0 -0.4027279251752298,-0.18487263789057917 l 2.015630488333749 -4.293020075014263" fill="#ff1602" stroke="none" /><path d="M 90.7491055286396 118.85261126421891 l -8.699125855380721 17.728149272239115 a40.747457235465674,40.747457235465674 0 0,0 -0.62701817035736,-0.3143999273008754 l 9.002997933420842 -17.575781504028935" fill="#ffe715" stroke="none" /><path d="M 90.42595943632237 118.69057910512821 l -13.647667136563078 26.643171242049462 a50.935219927429884,50.935219927429884 0 0,0 -0.7769054440271201,-0.4064402094960984 l 14.104263483116693 -26.404301613608645" fill="#9bff22" stroke="none" /><path d="M 90.10565033884886 118.52300852407294 l -5.569420613048464 10.426397794965535 a32.820669056526,32.820669056526 0 0,0 -0.49602531703572095,-0.27047255217765764 l 5.748068741952825 -10.32898459102811" fill="#ff7c0b" stroke="none" /><line stroke="#e1ed5e" stroke-width="0.3" x1="58.666819895761336" x2="56.23545636021788" y1="174.27360380694188" y2="178.64263932499728" /><path d="M 58.180547188652646 175.14741091055294 a86.0,86.0 0 0,1 -31.652253787137756,-30.449443065178592" fill="none" id="id68" stroke="none" /><text fill="#e1ed5e" style="font-size:6.75px; font-family:Arial;" text-anchor="middle"><textPath startOffset="22.20632615414155" xlink:href="#id68">August</textPath></text><path d="M 89.7882731507175 118.34994917583269 l -14.537356587941582 26.1228838644884 a50.89548122981995,50.89548122981995 0 0,0 -0.7618598706063073,-0.4326039178515016 l 14.984865225469097 -25.868776780842264" fill="#9cff22" stroke="none" /><path d="M 89.4739219176387 118.17145234162733 l -12.849778137543218 22.18291838611092 a46.63588629848677,46.63588629848677 0 0,0 -0.6911707704360163,-0.40835587404343393 l 13.229716779007616 -21.958443939773737" fill="#ceff1d" stroke="none" /><path d="M 89.1626897886671 117.98757091392108 l -5.441196597200257 9.031199415734724 a31.543679779666626,31.543679779666626 0 0,0 -0.4626718801339033,-0.28421085776120997 l 5.595847677266469 -8.936200091145135" fill="#ff6a09" stroke="none" /><path d="M 88.8546689885994 117.79835938074946 l -8.658859525948937 13.82762822500488 a37.31499772047389,37.31499772047389 0 0,0 -0.5414551839050459,-0.34558231643356235 l 8.895596511900907 -13.676531479747512" fill="#ffba11" stroke="none" /><path d="M 88.24862548938628 117.40417183066458 l -11.033753991742158 16.341352259356498 a40.71759419439049,40.71759419439049 0 0,0 -0.5774978621675324,-0.3972082955054751 l 11.313408738532582 -16.149003174485923" fill="#ffe615" stroke="none" /><path d="M 87.95078237400918 117.19931262002967 l -18.095047136899243 25.829259811058556 a52.53698453044885,52.53698453044885 0 0,0 -0.7361999440255654,-0.5252591127413915 l 18.536974408773695 -25.513956436472945" fill="#89ff24" stroke="none" /><path d="M 87.65650970185807 116.9893568818739 l -24.558759267333265 33.8022322447614 a62.781856845760394,62.781856845760394 0 0,0 -0.8688262468765771,-0.6427368867372694 l 25.136970484628407 -33.37448540928437" fill="#32ff46" stroke="none" /><path d="M 87.36589467227662 116.77436683061367 l -6.1351327829990945 8.145647450850811 a31.19761867587637,31.19761867587637 0 0,0 -0.4261762160725714,-0.32677374939831433 l 6.274437727565153 -8.03883435962513" fill="#ff6609" stroke="none" /><path d="M 87.07902340077011 116.55440617244103 l -23.407051842592498 29.989207125779927 a59.042642126891536,59.042642126891536 0 0,0 -0.7957894030565295,-0.6322232305652328 l 23.919798738366385 -29.581849981209565" fill="#43ff2d" stroke="none" /><path d="M 86.79598089348748 116.32954008644616 l -13.040874788151259 16.127777905926276 a41.74053122326241,41.74053122326241 0 0,0 -0.5548109102297923,-0.456571607784649 l 13.31655582692574 -15.900911179284446" fill="#fff417" stroke="none" /><path d="M 86.51685102203217 116.09983520530335 l -6.332792250108356 7.561802645863334 a30.863321800388455,30.863321800388455 0 0,0 -0.40436025403803894,-0.34460458089958845 l 6.462017980723451 -7.4516736747407935" fill="#ff6108" stroke="none" /><path d="M 86.24171649860922 115.8653595955263 l -29.855924582063263 34.428348529339765 a66.57068591877393,66.57068591877393 0 0,0 -0.859261594787496,-0.7581984527674325 l 30.444128529757347 -33.90932693480004" fill="#37ff73" stroke="none" /><path d="M 85.70375840098266 115.38237550388516 l -35.67220353358792 38.3823416807943 a73.3995253589473,73.3995253589473 0 0,0 -0.9180678611675221,-0.8680904656405339 l 36.32760722914625 -37.76261657840783" fill="#3fffc1" stroke="none" /><path d="M 85.44109423537348 115.13401014063109 l -11.874253761531886 12.343309294306735 a38.12761474135185,38.12761474135185 0 0,0 -0.46906052782026764,-0.45907445062660623 l 12.084964241727947 -12.13708474075756" fill="#ffc512" stroke="none" /><path d="M 85.18274418774928 114.88116024355367 l -16.697500344882844 16.769513967191916 a44.664807551788954,44.664807551788954 0 0,0 -0.5401450765651058,-0.5471641108200908 l 16.983686046503482 -16.47960936239116" fill="#e6ff1a" stroke="none" /><path d="M 84.9287848128048 114.62390073753433 l -12.875134857290922 12.49300018590147 a38.940015363381434,38.940015363381434 0 0,0 -0.46263232011268624,-0.4850681380585092 l 13.088273728782564 -12.269524931260461" fill="#ffcf13" stroke="none" /><path d="M 84.67929136418377 114.36230785411682 l -7.782913480613929 7.296046290523157 a31.667991081744432,31.667991081744432 0 0,0 -0.36938991271583427,-0.4008997948592372 l 7.907349801325492 -7.160995240862576" fill="#ff6c0a" stroke="none" /><path d="M 84.43433777217949 114.09645910891817 l -13.446180936456457 12.177030245658443 a39.14055807795354,39.14055807795354 0 0,0 -0.4479565120886371,-0.5032838900859682 l 13.653796298193432 -11.94377218583161" fill="#ffd213" stroke="none" /><path d="M 84.19399662182784 113.82643327865904 l -16.332532888473764 14.287019359102597 a42.69955190137459,42.69955190137459 0 0,0 -0.47916520207286756,-0.5573773824622665 l 16.576040600117413 -14.003764877478801" fill="#feff18" stroke="none" /><path d="M 83.95833913139862 113.55231037782056 l -22.857285402363466 19.310283935348178 a50.92227534177279,50.92227534177279 0 0,0 -0.5599122414732416,-0.674450364212743 l 23.186293643730245 -18.913972314021674" fill="#9cff22" stroke="none" /><path d="M 83.72743513129214 113.27417163493432 l -32.22498030368967 26.287184776023672 a62.586842138133036,62.586842138133036 0 0,0 -0.6737982832610442,-0.8406669595904122 l 32.672696499005575 -25.728589982855" fill="#31ff43" stroke="none" /><path d="M 83.50135304334701 112.99209946851258 l -15.487616556294991 12.195948877397328 a40.713128509065015,40.713128509065015 0 0,0 -0.42883173694904225,-0.5543228271065137 l 15.695255110462103 -11.92754805617756" fill="#ffe615" stroke="none" /><path d="M 83.28015986056508 112.70617746262583 l -25.032207326023382 19.023128565417323 a52.44027391784962,52.44027391784962 0 0,0 -0.5399818288646939,-0.7233939023335713 l 25.35595042158316 -18.589421783574444" fill="#8aff24" stroke="none" /><path d="M 83.06392112726016 112.41649034213515 l -8.10489756494907 5.9420119081498255 a31.049719899326135,31.049719899326135 0 0,0 -0.3123013468483285,-0.43375925612463606 l 8.205978704173006 -5.801619046574052" fill="#ff6309" stroke="none" /><path d="M 82.85270091963577 112.12312394758628 l -16.108518934040884 11.388707383837733 a40.727823958131665,40.727823958131665 0 0,0 -0.3997903182852177,-0.5759277712607775 l 16.302170159488234 -11.109738350389945" fill="#ffe715" stroke="none" /><path d="M 82.6465618267979 111.8261652097733 l -26.059012643629224 17.758912421345528 a52.53491890507804,52.53491890507804 0 0,0 -0.5028264551152285,-0.7516573260079383 l 26.36084220415518 -17.30771818113177" fill="#89ff24" stroke="none" /><path d="M 82.44556493220864 111.52570212397912 l -8.270935527518876 5.430441868888494 a30.894345526195814,30.894345526195814 0 0,0 -0.28804583824658414,-0.44705353761782596 l 8.363186229142507 -5.287266731349219" fill="#ff6109" stroke="none" /><path d="M 82.24976979558568 111.22182372390057 l -25.09898691407415 15.867760787022455 a50.69419095558983,50.69419095558983 0 0,0 -0.45995409240308377,-0.7415924495250972 l 25.36840564614519 -15.433372006132094" fill="#9eff22" stroke="none" /><path d="M 82.05923443525364 110.91462005526583 l -39.126148514712405 23.80316735775967 a66.79788503694081,66.79788503694081 0 0,0 -0.5891545605596361,-0.9874569316049607 l 39.53008395097027 -23.126148332268595" fill="#37ff76" stroke="none" /><line stroke="#e1ed5e" stroke-width="0.3" x1="26.63291911575756" x2="22.317208475507996" y1="142.92168965132927" y2="145.44649492493687" /><path d="M 25.769776987707644 143.4266507060508 a86.0,86.0 0 0,1 -11.730757126820373,-40.83630448921669" fill="none" id="id69" stroke="none" /><text fill="#e1ed5e" style="font-size:6.75px; font-family:Arial;" text-anchor="middle"><textPath startOffset="21.46611528233685" xlink:href="#id69">September</textPath></text><path d="M 81.87401531095188 110.60418214915194 l -14.479771837913445 8.471050852214862 a37.77565185078784,37.77565185078784 0 0,0 -0.3235178847336643,-0.5640807014368087 l 14.623441718799485 -8.220550304919746" fill="#ffc011" stroke="none" /><path d="M 81.51974371655577 109.97397251340807 l -30.39107755356122 16.402357603862136 a55.53483646742151,55.53483646742151 0 0,0 -0.4467843489196187,-0.845147613077874 l 30.668914410705728 -15.876794975698134" fill="#68ff28" stroke="none" /><path d="M 81.35079622478065 109.6543875284942 l -12.257750884271939 6.3456369875561505 a34.80288250760363,34.80288250760363 0 0,0 -0.2708349216507073,-0.5343829945325279 l 12.365164475708914 -6.133699781320937" fill="#ff980e" stroke="none" /><path d="M 81.18737489456691 109.33194174019688 l -37.275288458377126 18.490286086769956 a62.609347618363614,62.609347618363614 0 0,0 -0.4706038870016999,-0.9695833954904973 l 37.58804560199355 -17.845913735314173" fill="#31ff43" stroke="none" /><path d="M 81.02952815118164 109.00673069616217 l -26.912334700817485 12.777339066046542 a50.79151141948901,50.79151141948901 0 0,0 -0.36817891843409684,-0.7930246355727972 l 27.12828823609141 -12.312194363194918" fill="#9dff22" stroke="none" /><path d="M 80.87730276802145 108.67885076344099 l -19.18764735650694 8.708328427130937 a42.07132637193123,42.07132637193123 0 0,0 -0.293615616999359,-0.6620257040744472 l 19.334704058237577 -8.376754386563794" fill="#fff817" stroke="none" /><path d="M 80.58989483394504 108.01547362559985 l -9.83883261226323 4.062981763138804 a31.644738041855845,31.644738041855845 0 0,0 -0.20357720866497686,-0.5052619366610995 l 9.907312435185595 -3.8930204586348998" fill="#ff6c09" stroke="none" /><path d="M 80.45479744820244 107.68017299344265 l -18.340339644571777 7.206729163103567 a40.70545618625914,40.70545618625914 0 0,0 -0.2506403969828138,-0.654342986180311 l 18.4616743211481 -6.889962610090098" fill="#ffe615" stroke="none" /><path d="M 80.32549172779594 107.34259656027581 l -19.257613304543593 7.187009873524167 a41.55501839234079,41.55501839234079 0 0,0 -0.24433507642551291,-0.6723051925832907 l 19.37847264197433 -6.85445688393476" fill="#fff116" stroke="none" /><path d="M 80.20201598880116 107.00284435728193 l -28.28224257736096 10.00385406575333 a50.99937234966056,50.99937234966056 0 0,0 -0.2856187525933557,-0.8301417902108059 l 28.450252160897545 -9.515539572453228" fill="#9bff22" stroke="none" /><path d="M 80.0844068197444 106.66101706037122 l -22.743186764115904 7.606740792093281 a44.98155644793625,44.98155644793625 0 0,0 -0.239275638884975,-0.7364146946433816 l 22.870754654017126 -7.214127197472096" fill="#e2ff1b" stroke="none" /><path d="M 79.97269907076064 106.31721596034903 l -50.13914542373285 15.815401727280882 a73.57433628318583,73.57433628318583 0 0,0 -0.37058071473294674,-1.2110792174039315 l 50.40395291097193 -14.949995537324902" fill="#40ffc3" stroke="none" /><path d="M 79.86692584326677 105.97154293290107 l -16.19399716382075 4.803198387201731 a37.89130719893081,37.89130719893081 0 0,0 -0.18008721221256507,-0.626907210934638 l 16.27427701291942 -4.523733700762497" fill="#ffc112" stroke="none" /><path d="M 79.76711848015287 105.62410040840567 l -9.521026358529644 2.6465438538213877 a30.882010791838674,30.882010791838674 0 0,0 -0.1379571828007835,-0.5133899985334159 l 9.565171617672203 -2.482262922112433" fill="#ff6109" stroke="none" /><path d="M 79.67330655649465 105.27499134158121 l -28.84126136185984 7.48461152262329 a50.79660662873702,50.79660662873702 0 0,0 -0.21235082543846384,-0.848235990370475 l 28.965823501593363 -6.987047692855422" fill="#9dff22" stroke="none" /><path d="M 79.58551787078972 104.9243191809786 l -28.94604916731965 6.982277788189764 a50.77626513699015,50.77626513699015 0 0,0 -0.19763919887893602,-0.8514244960720534 l 29.06194893212914 -6.482984634769137" fill="#9dff22" stroke="none" /><path d="M 79.50377843672027 104.57218783832718 l -10.589774209832472 2.3623103752728496 a31.85006120371469,31.85006120371469 0 0,0 -0.11476026179354608,-0.5361217374410727 l 10.628868510350458 -2.1796748184156134" fill="#ff6f0a" stroke="none" /><path d="M 79.35854240842038 103.8639653848113 l -39.865383667020524 7.462576800023396 a61.557845941506734,61.557845941506734 0 0,0 -0.18600306318689216,-1.0432039578969423 l 39.987933172546605 -6.77525409139324" fill="#30ff36" stroke="none" /><path d="M 79.29508885075956 103.50808413554451 l -31.370343578524444 5.315154643319461 a52.817437437937556,52.817437437937556 0 0,0 -0.1441620406226125,-0.8976971645704365 l 31.45718737350835 -4.774378249055811" fill="#86ff25" stroke="none" /><path d="M 79.18660465613746 102.79330883721812 l -10.754876616404953 1.4433825620216838 a31.851300578937177,31.851300578937177 0 0,0 -0.06825049783700789,-0.5440236200247595 l 10.778128623488808 -1.2580411877095157" fill="#ff6f0a" stroke="none" /><path d="M 79.1416061653843 102.43462659150553 l -35.4244167308273 4.134797129888148 a56.66491059885961,56.66491059885961 0 0,0 -0.10474292452839915,-0.9697893947285781 l 35.49034195685676 -3.524411413274788" fill="#5cff2a" stroke="none" /><path d="M 79.10278846688536 102.07522291339032 l -13.798964344584896 1.3703228750668854 a34.86683820360852,34.86683820360852 0 0,0 -0.054168793949267685,-0.5977481274173784 l 13.820507734811239 -1.1325933591009407" fill="#ff990e" stroke="none" /><path d="M 79.07016306316243 101.71520430193888 l -45.14969768514589 3.7000267099311297 a66.30105295370376,66.30105295370376 0 0,0 -0.08342390396261844,-1.1382528889695713 l 45.20669814777285 -2.9223006844647976" fill="#36ff70" stroke="none" /><path d="M 79.04373962182676 101.35467743843564 l -16.181444487753406 1.0460185821936776 a37.215218178752316,37.215218178752316 0 0,0 -0.03582168390044064,-0.6396202296885378 l 16.19705252254138 -0.7673266361697022" fill="#ffb811" stroke="none" /><path d="M 79.0095281055655 100.63252640178507 l -15.103115211399691 0.4551169296458285 a36.109970897009134,36.109970897009134 0 0,0 -0.01337433762300677,-0.6214529158905313 l 15.108711611707706 -0.19507419796516828" fill="#ffaa0f" stroke="none" /><line stroke="#e1ed5e" stroke-width="0.3" x1="15.007084014347285" x2="10.007500721073583" y1="101.09737516637583" y2="101.16192664675087" /><path d="M 14.007167355692545 101.11028546245083 a86.0,86.0 0 0,1 10.666146001902534,-42.60595125391555" fill="none" id="id70" stroke="none" /><text fill="#e1ed5e" style="font-size:6.75px; font-family:Arial;" text-anchor="middle"><textPath startOffset="22.20632615414155" xlink:href="#id70">October</textPath></text><path d="M 79.00175016825051 100.2711162175752 l -21.66363394694252 0.2797072394932785 a42.6654395738223,42.6654395738223 0 0,0 -0.0031607019042638454,-0.7344358102005039 l 21.665238946136288 0.09323804891090066" fill="#ffff18" stroke="none" /><path d="M 79.00486145842228 99.54816195383935 l -23.665957334747276 -0.5093169498013667 a44.67143722559814,44.67143722559814 0 0,0 0.023161726553227797,-0.7686249441447139 l 23.653683913738405 0.916612041371075" fill="#e6ff1a" stroke="none" /><path d="M 79.12142395522702 97.74499172005258 l -9.810691901973547 -1.0596120838663274 a30.86774814046877,30.86774814046877 0 0,0 0.06160268705434147,-0.5277742025545913 l 9.790998861915616 1.2283300247457805" fill="#ff6108" stroke="none" /><path d="M 79.21141760316559 97.0276538004421 l -29.5817330088321 -4.229588627386531 a50.88257598940801,50.88257598940801 0 0,0 0.13143237495486906,-0.8659751343995832 l 29.50454474043793 4.738162874178206" fill="#9cff22" stroke="none" /><path d="M 79.26566170972629 96.67025291283419 l -10.737198113113399 -1.7242968471404068 a31.874770017674134,31.874770017674134 0 0,0 0.09165990599230232,-0.5409819537363624 l 10.705926345600874 1.908864589192597" fill="#ff6f0a" stroke="none" /><path d="M 79.32604984820605 96.31383870115002 l -45.73604535099851 -8.154728007829181 a67.4573506910399,67.4573506910399 0 0,0 0.21366080229395787,-1.1413845493724644 l 45.58889882479469 8.94079063466422" fill="#38ff7e" stroke="none" /><path d="M 79.3925641242962 95.95851677861259 l -11.813654922535482 -2.3168670008566665 a33.038700732570994,33.038700732570994 0 0,0 0.1142520813930043,-0.5571337246731151 l 11.772023545227484 2.519876381693184" fill="#ff7f0b" stroke="none" /><path d="M 79.46518482838121 95.60439243477599 l -29.04720724627994 -6.217739134893439 a50.70522729685675,50.70522729685675 0 0,0 0.19003742840952986,-0.8519005289648748 l 28.93587543086837 6.716817833408274" fill="#9eff22" stroke="none" /><path d="M 79.54389044137918 95.25157060432595 l -28.04001917301716 -6.508864792440788 a49.785551863902924,49.785551863902924 0 0,0 0.20096103899871545,-0.8331132464267872 l 27.92382533375763 6.990563270526972" fill="#a9ff21" stroke="none" /><path d="M 79.62865764111835 94.90015583598534 l -21.822479736737392 -5.4631277590407095 a43.495919336002146,43.495919336002146 0 0,0 0.18807566782772478,-0.7247322690335924 l 21.72520773703936 5.837956453623166" fill="#f4ff19" stroke="none" /><path d="M 79.71946130924805 94.55025226153421 l -15.362659097411166 -4.128224498845062 a36.907656397349506,36.907656397349506 0 0,0 0.17014997174545335,-0.6121199781187803 l 15.289322355099353 4.392055780382784" fill="#ffb410" stroke="none" /><path d="M 79.91906864156998 93.8553929516997 l -58.62040240516894 -17.937382054831275 a82.30335433828168,82.30335433828168 0 0,0 0.42619230722716867,-1.3511460814604974 l 58.302954614173565 18.943778302718187" fill="#4be2ff" stroke="none" /><path d="M 80.02781315780177 93.51064311812611 l -16.093924708892157 -5.229233127608501 a37.92215387113495,37.92215387113495 0 0,0 0.2070598470889329,-0.6190825877211164 l 16.001527568031452 5.50548881825194" fill="#ffc212" stroke="none" /><path d="M 80.14247586403 93.16781622104843 l -28.107534752121875 -9.670684103659736 a50.724663847964976,50.724663847964976 0 0,0 0.2911762835157242,-0.8231945637189875 l 27.93690538779634 10.153076293805334" fill="#9eff22" stroke="none" /><path d="M 80.2630227832202 92.82701384747504 l -19.276843011389023 -7.005760125594899 a41.510420556953804,41.510420556953804 0 0,0 0.24984412798888922,-0.6694580483248501 l 19.153394294898504 7.336541310949091" fill="#fff116" stroke="none" /><path d="M 80.38941819471856 92.48833698450439 l -29.5197057545214 -11.307266869809693 a52.611189662817495,52.611189662817495 0 0,0 0.33121612484867474,-0.8429089102701273 l 29.320696079791034 11.813724784975584" fill="#88ff25" stroke="none" /><path d="M 80.52162464483688 92.15188598940014 l -18.29451064585634 -7.371118109126864 a40.72365336214488,40.72365336214488 0 0,0 0.26757052355904243,-0.6479432463017673 l 18.1649184354111 7.684935925881942" fill="#ffe715" stroke="none" /><path d="M 80.65960295795068 91.81776055985345 l -7.288821319145585 -3.083643067928173 a28.91427639097932,28.91427639097932 0 0,0 0.19786905407429395,-0.4567090577403494 l 7.23466155522861 3.208651270255122" fill="#ff4506" stroke="none" /><path d="M 80.803312248108 91.48605970444005 l -54.02973053124927 -23.962774509519786 a80.10521418177504,80.10521418177504 0 0,0 0.5698825427576979,-1.2556606421729695 l 53.60924567152822 24.88925716053483" fill="#48f8ff" stroke="none" /><path d="M 80.95270993114464 91.15688171328213 l -15.318953828383579 -7.112157175296614 a37.88943829978579,37.88943829978579 0 0,0 0.2797355689676335,-0.5891944497102451 l 15.194260065574195 7.374794040647392" fill="#ffc112" stroke="none" /><path d="M 81.10775173730289 90.83032412892265 l -17.735954792061328 -8.608449055182241 a40.714702318871346,40.714702318871346 0 0,0 0.3114480596718642,-0.6278602834802658 l 17.58514671943605 8.912468927161468" fill="#ffe615" stroke="none" /><path d="M 81.26839172434947 90.50648371742162 l -36.191599574412805 -18.34255418948069 a61.574390617095816,61.574390617095816 0 0,0 0.48728966092741477,-0.9412885237278577 l 35.870500480325276 18.962815435468883" fill="#30ff37" stroke="none" /><path d="M 81.43458229118936 90.18545643968196 l -17.52427901796893 -9.264149209171874 a40.82233123700202,40.82233123700202 0 0,0 0.3337554116387633,-0.6183980891043411 l 17.362215507111696 9.564428281608688" fill="#ffe815" stroke="none" /><path d="M 81.6062741919709 89.86733742301443 l -18.985332203178032 -10.458564356918275 a42.67543326609252,42.67543326609252 0 0,0 0.359982233696338,-0.6403682258487337 l 18.802492328189263 10.783816092701793" fill="#ffff18" stroke="none" /><line stroke="#e1ed5e" stroke-width="0.3" x1="26.266209847984243" x2="21.928928074336255" y1="57.711370442889674" y2="55.22380399835377" /><path d="M 25.398753493254645 57.213857153982495 a86.0,86.0 0 0,1 29.58750427330803,-30.492523968695096" fill="none" id="id71" stroke="none" /><text fill="#e1ed5e" style="font-size:6.75px; font-family:Arial;" text-anchor="middle"><textPath startOffset="21.46611528233685" xlink:href="#id71">November</textPath></text><path d="M 81.96595687620814 89.24020034530311 l -54.1021293713756 -32.27939896409068 a84.0,84.0 0 0,0 0.7515368068551322,-1.2353289071717022 l 53.53847676623425 33.20589564446946" fill="#4dd2ff" stroke="none" /><path d="M 82.15384107792192 88.93136811851018 l -11.040068513728455 -6.847325234435232 a33.99111140949657,33.99111140949657 0 0,0 0.3126735570116065,-0.49457447847523067 l 10.920567360470885 7.036347360624678" fill="#ff8d0d" stroke="none" /><path d="M 82.34701348167596 88.62581576622439 l -9.13774482228324 -5.887637934917888 a31.870264987103504,31.870264987103504 0 0,0 0.30110322883219065,-0.45860087501655766 l 9.03504495809313 6.044056873912112" fill="#ff6f0a" stroke="none" /><path d="M 82.54541684631803 88.32363383020206 l -13.923856543194482 -9.314461769875047 a37.75210372156057,37.75210372156057 0 0,0 0.3659716517736109,-0.5370182404478508 l 13.761460425752132 9.552758033593314" fill="#ffc011" stroke="none" /><path d="M 82.7489923806493 88.02491185347247 l -37.3626404325102 -25.935929218676144 a66.4822968255257,66.4822968255257 0 0,0 0.6606674454257095,-0.9344672485700667 l 36.910660367280606 26.575222967577997" fill="#36ff72" stroke="none" /><path d="M 82.95767976084542 87.72973835380427 l -11.203494094003743 -8.066378401292969 a34.80524322231312,34.80524322231312 0 0,0 0.3542467503411798,-0.48319216935486814 l 11.062984731148928 8.258033014319338" fill="#ff980e" stroke="none" /><path d="M 83.17141714833178 87.43820079747576 l -13.55785490357237 -10.120344203478295 a37.91853410858039,37.91853410858039 0 0,0 0.39493789147520497,-0.5196919710820954 l 13.381641071873055 10.352220950441417" fill="#ffc212" stroke="none" /><path d="M 83.39014120810768 87.1503855733568 l -36.30591940845578 -28.086756886287155 a66.90191386513949,66.90191386513949 0 0,0 0.7124923826853371,-0.9047929712760796 l 35.81707294517648 28.707542251516283" fill="#37ff77" stroke="none" /><path d="M 83.6137871275137 86.86637796730984 l -4.631097371094295 -3.711845009084687 a26.935053178533735,26.935053178533735 0 0,0 0.29308096510940546,-0.3592826089407353 l 4.5665179139084975 3.7910117876335048" fill="#ff2803" stroke="none" /><path d="M 83.84228863543731 86.58626213691792 l -25.42297380279652 -21.10553274510391 a54.041959830378275,54.041959830378275 0 0,0 0.6003531264182107,-0.710628740555323 l 25.055910062891186 21.54002043528835" fill="#79ff26" stroke="none" /><path d="M 84.07557802195018 86.31012108654704 l -13.479140414955648 -11.587723585353718 a38.775335839771174,38.775335839771174 0 0,0 0.4394688296365329,-0.5023888421432489 l 13.277679721741272 11.81802798369991" fill="#ffcd13" stroke="none" /><path d="M 84.5562425177563 85.77008943001954 l -8.753045969694556 -8.065074934444375 a32.902153059248946,32.902153059248946 0 0,0 0.38735654351314636,-0.4132049529658748 l 8.612922104210954 8.2145493042883" fill="#ff7e0b" stroke="none" /><path d="M 84.80347519578584 85.50635884689758 l -25.710300864784138 -24.521124367141102 a56.52893343159236,56.52893343159236 0 0,0 0.6776358418799671,-0.6983633009294606 l 25.284400759201052 24.960051863620684" fill="#5eff2a" stroke="none" /><path d="M 85.05521093208273 85.24692304244772 l -29.56679529490156 -29.187511740148445 a62.54643457135541,62.54643457135541 0 0,0 0.7629598744932742,-0.7596834823243505 l 29.059999620240973 29.692131073122905" fill="#31ff43" stroke="none" /><path d="M 85.57189188830299 84.74124197986013 l -20.326596707516106 -21.496832303433543 a50.58520462650121,50.58520462650121 0 0,0 0.6378363515105471,-0.5927993748122605 l 19.953552472210703 21.843536264320452" fill="#9fff22" stroke="none" /><path d="M 85.83668400450813 84.49514656593479 l -10.66745250199489 -11.67786467596489 a36.81667051792082,36.81667051792082 0 0,0 0.471584754410478,-0.4233934487567975 l 10.46485675998844 11.859757133490968" fill="#ffb310" stroke="none" /><path d="M 86.10567301691215 84.25364557470407 l -7.842674693583726 -8.888054492872145 a32.85348299098806,32.85348299098806 0 0,0 0.42726142575674225,-0.3705168981122414 l 7.688519469180211 9.021736384404067" fill="#ff7d0b" stroke="none" /><path d="M 86.37877921826538 84.01681056812374 l -6.394286145416625 -7.503078349692589 a30.858147900650135,30.858147900650135 0 0,0 0.40724300543172554,-0.34105430536721215 l 6.264185603025789 7.612033812453613" fill="#ff6108" stroke="none" /><path d="M 86.93701828274178 83.55741782278169 l -27.907582459717226 -35.12771646577095 a65.8641240062203,65.8641240062203 0 0,0 0.8937681487959681,-0.6976002168507136 l 27.29878175576183 35.60289507184489" fill="#36ff6b" stroke="none" /><path d="M 87.22198572758235 83.33499621200491 l -6.61654326947199 -8.629253051250629 a31.87394376752581,31.87394376752581 0 0,0 0.43827256465532727,-0.33009780935524435 l 6.467024551058273 8.741867450111728" fill="#ff6f0a" stroke="none" /><path d="M 87.80319425747018 82.90503203632743 l -25.016393468126434 -35.06282332701531 a64.07228252384134,64.07228252384134 0 0,0 0.9033241748146411,-0.6328363121026498 l 24.409138153728133 35.4882444818819" fill="#33ff55" stroke="none" /><path d="M 88.09926311788651 82.69761687909137 l -16.955066147709694 -24.65083072031774 a50.918852305444005,50.918852305444005 0 0,0 0.726430910329418,-0.49048939337214087 l 16.528230542973738 24.939032025988546" fill="#9cff22" stroke="none" /><path d="M 88.39885842347998 82.49532879139004 l -6.550151858696993 -9.88335965876128 a32.85686668207168,32.85686668207168 0 0,0 0.4741292397179687,-0.3083868462753837 l 6.379055593194737 9.994645429196199" fill="#ff7d0b" stroke="none" /><path d="M 88.70189139769569 82.29822771554957 l -7.423534937645247 -11.631126026267467 a34.79825944129752,34.79825944129752 0 0,0 0.5076914392188265,-0.31791633266312846 l 7.222224346054178 11.757186700253525" fill="#ff980e" stroke="none" /><line stroke="#e1ed5e" stroke-width="0.3" x1="56.762969772571076" x2="54.21961505331055" y1="26.818313649435495" y2="22.513508569990535" /><path d="M 56.25429882871897 25.957352633546506 a86.0,86.0 0 0,1 42.265352541879196,-11.944610805530505" fill="none" id="id72" stroke="none" /><text fill="#e1ed5e" style="font-size:6.75px; font-family:Arial;" text-anchor="middle"><textPath startOffset="22.20632615414155" xlink:href="#id72">December</textPath></text></svg>