<?xml version="1.0" encoding="utf-8" ?>
<svg baseProfile="full" height="200mm" version="1.1" viewBox="0,0,200,200" width="200mm" xmlns="http://www.w3.org/2000/svg" xmlns:ev="http://www.w3.org/2001/xml-events" xmlns:xlink="http://www.w3.org/1999/xlink"><defs /><rect fill="#1a1a1a" height="200" width="200" x="0" y="0" /><text alignment-baseline="middle" fill="#e1ed5e" style="dominant-baseline: central; font-size:9.0px; font-family:Arial;" text-anchor="middle" x="100.0" y="100.0">2024</text><line stroke="#e1ed5e" stroke-width="0.3" x1="100.0" x2="100.0" y1="15.0" y2="10.0" /><path d="M 100.0 14.0 a86.0,86.0 0 0,1 42.35913384403234,11.155469271406648" fill="none" id="id49" stroke="none" /><text fill="#e1ed5e" style="font-size:6.75px; font-family:Arial;" text-anchor="middle"><textPath startOffset="22.145653131862478" xlink:href="#id49">January</textPath></text><path d="M 100.0 79.0 l 0.0 -9.567527755748166 a30.567527755748166,30.567527755748166 0 0,0 0.5247322612413432,0.00450419536646315 l -0.1642393363924884 9.566117958576138" fill="#ff4706" stroke="none" /><path d="M 100.72087961077811 79.0123766808444 l 0.8172612391415196 -23.79366926737516 a44.80770071086741,44.80770071086741 0 0,0 0.7685037867981922,0.03300285927338994 l -1.225590786540548 23.776133839675943" fill="#f2ff19" stroke="none" /><path d="M 101.08105385017728 79.02784411241856 l 0.8600626252815398 -16.684985162884466 a37.70713732525955,37.70713732525955 0 0,0 0.6461488729243565,0.03887071166593393 l -1.1463558503383586 16.66776247339384" fill="#ffae10" stroke="none" /><path d="M 102.15924093988457 79.11130261209362 l 1.546893648546902 -14.964792820896605 a36.04453070495299,36.04453070495299 0 0,0 0.6149267283443992,0.06890382252540359 l -1.803556278492098 14.936033237864232" fill="#ff960d" stroke="none" /><path d="M 102.51750503828377 79.15144685158666 l 1.4364582345768009 -11.895934821829222 a32.9823485821809,32.9823485821809 0 0,0 0.5615200525837368,0.07270001283005961 l -1.6404561090513292 11.869523212798766" fill="#ff6a09" stroke="none" /><path d="M 103.23170211078529 79.25015418208739 l 3.6882772601576805 -23.681385801795983 a44.96688178802784,44.96688178802784 0 0,0 0.7617014985502225,0.12533769172502499 l -4.0942562617609735 23.614582111575288" fill="#f0ff19" stroke="none" /><path d="M 103.94208987418118 79.37332000966035 l 4.5123817702908955 -23.610688173202973 a45.03801541835516,45.03801541835516 0 0,0 0.7581474635761666,0.15165072587330217 l -4.917025719398019 23.52974805066681" fill="#efff19" stroke="none" /><path d="M 104.29559338865022 79.4440306129975 l 3.088915443021635 -14.78157859483622 a36.10087627819849,36.10087627819849 0 0,0 0.6055278770554412,0.13197198247487238 l -3.34220573669621 14.72637515422763" fill="#ff970d" stroke="none" /><path d="M 104.9986988182912 79.60360301121754 l 6.251529658177809 -25.508374345092243 a47.26325921884862,47.26325921884862 0 0,0 0.7863586950467517,0.19988930524912799 l -6.688493646449955 25.397299808007848" fill="#d3ff1c" stroke="none" /><path d="M 106.38641147887787 79.99465700312896 l 3.6209899776827292 -11.342699531866572 a32.90665364780067,32.90665364780067 0 0,0 0.5366562216415574,0.1764095594005812 l -3.8151689369720287 11.27886905106397" fill="#ff6909" stroke="none" /><path d="M 107.06938296918511 80.22567764915836 l 8.002684563803887 -22.384933017004702 a44.772424916350715,44.772424916350715 0 0,0 0.7214987761163929,0.26494434438931663 l -8.385772491574405 22.244257823606663" fill="#f2ff19" stroke="none" /><path d="M 108.07796709384702 80.6158196554323 l 5.626246446822728 -13.500943309272198 a35.626350170858316,35.626350170858316 0 0,0 0.5624975293501226,0.24009674710893153 l -5.857179051343281 13.402371912503865" fill="#ff900d" stroke="none" /><path d="M 108.73861861582097 80.90454125486305 l 8.280346996250628 -18.09405255151623 a40.89871563984339,40.89871563984339 0 0,0 0.635899630693755,0.2976331356193344 l -8.589735340815889 17.949243184326363" fill="#ffd914" stroke="none" /><path d="M 109.3889696526874 81.21577127319529 l 13.570627306193584 -27.15034521522799 a51.35297630858727,51.35297630858727 0 0,0 0.7851448941273753,0.40090057732029666 l -14.034699422034539 26.91338668623486" fill="#a1ff22" stroke="none" /><path d="M 109.71004243097381 81.37971332152246 l 5.549387959985333 -10.641683127501592 a33.00171348252333,33.00171348252333 0 0,0 0.5000721108736387,0.2662602323665514 l -5.731248886645532 10.544852427412467" fill="#ff6b09" stroke="none" /><path d="M 110.34350942703115 81.72400993836675 l 5.917156555176645 -10.45504866200677 a33.013358573829365,33.013358573829365 0 0,0 0.4908104384750027,0.2833695387746211 l -6.095759461512046 10.351932225955977" fill="#ff6b09" stroke="none" /><line stroke="#e1ed5e" stroke-width="0.3" x1="143.13028292997686" x2="145.6673583964461" y1="26.7553504044142" y2="22.446841604673864" /><path d="M 143.63769802327073 25.89364864446614 a86.0,86.0 0 0,1 29.32050498858742,28.57503671076993" fill="none" id="id50" stroke="none" /><text fill="#e1ed5e" style="font-size:6.75px; font-family:Arial;" text-anchor="middle"><textPath startOffset="20.669276256404974" xlink:href="#id50">February</textPath></text><path d="M 110.65571695917076 81.90426304109057 l 6.0628641155142144 -10.296068736842113 a32.948529311884684,32.948529311884684 0 0,0 0.4849195776147989,0.29118027348655334 l -6.238716449686447 10.190474462819639" fill="#ff6a09" stroke="none" /><path d="M 111.27062007382361 82.28071324371311 l 12.784191640772496 -20.098872657085632 a44.82016452490918,44.82016452490918 0 0,0 0.6456544634947529,0.41850542266137264 l -13.127331736524257 19.876453392720364" fill="#f2ff19" stroke="none" /><path d="M 111.8722381534696 82.67804972795209 l 13.482702186067378 -19.67166542490878 a44.84864102685387,44.84864102685387 0 0,0 0.6313084972249462,0.44070236095172294 l -13.818405774466084 19.43731824815193" fill="#f1ff19" stroke="none" /><path d="M 113.59037401385872 83.9905735841838 l 8.189671248943824 -9.647412138620382 a33.65477285999938,33.65477285999938 0 0,0 0.43722441143465735,0.3776640330964739 l -8.354075140141342 9.505403973059188" fill="#ff740a" stroke="none" /><path d="M 114.13192950727249 84.46653392183569 l 8.009325168285352 -8.80365138720255 a32.90183042219652,32.90183042219652 0 0,0 0.41451641899950853,0.38367020905513705 l -8.159271358598826 8.664863432015038" fill="#ff6909" stroke="none" /><path d="M 114.91283532996326 85.21462403516908 l 8.510302095507297 -8.437564907831236 a32.984062054690014,32.984062054690014 0 0,0 0.3952012078390801,0.40551125456906717 l -8.653890104497188 8.290230961194428" fill="#ff6a09" stroke="none" /><path d="M 115.41159269507618 85.73525988315684 l 13.557098514585066 -12.548247989371122 a39.47304652018505,39.47304652018505 0 0,0 0.45601199240821044,0.501237061199874 l -13.770508207835153 12.313673352613575" fill="#ffc612" stroke="none" /><path d="M 115.6541949942343 86.00192230759917 l 9.096741783413012 -8.134362596021353 a33.20321948985772,33.20321948985772 0 0,0 0.3762856609305067,0.42814400833286165 l -9.23503850830211 7.977006309877193" fill="#ff6e0a" stroke="none" /><path d="M 116.1254893667686 86.54754324733833 l 9.779050920044533 -8.158032081499387 a33.7351216853078,33.7351216853078 0 0,0 0.3671556840261452,0.4478702358327348 l -9.917653423309305 7.988959563968156" fill="#ff750a" stroke="none" /><path d="M 116.35404254752997 86.82634096563983 l 28.03284725349672 -22.581277406279106 a56.99659170584362,56.99659170584362 0 0,0 0.6072405192197186,0.7672285590514314 l -28.416354203357997 22.096728903312997" fill="#61ff29" stroke="none" /><path d="M 116.7966241395341 87.39550010848427 l 9.623790832843973 -7.22187205600688 a33.032156331583494,33.032156331583494 0 0,0 0.3364529299103358,0.45646301707951015 l -9.746345782338135 7.055602729658495" fill="#ff6b09" stroke="none" /><path d="M 117.01052211995028 87.68569379921539 l 9.681082673265832 -7.008357271637605 a32.95158706505222,32.95158706505222 0 0,0 0.3277661436840408,0.4610441283703276 l -9.799963915479834 6.841135916557773" fill="#ff6a09" stroke="none" /><path d="M 117.21940702142032 87.97951657250589 l 9.921286710325358 -6.92582864976303 a33.09954678797338,33.09954678797338 0 0,0 0.32123939724525324,0.4686978809365249 l -10.038715844385935 6.754496033756457" fill="#ff6c0a" stroke="none" /><path d="M 117.62189284568427 88.57770195909679 l 21.34636448669822 -13.836455560818685 a46.43845080356666,46.43845080356666 0 0,0 0.42785803137102973,0.6726638906453436 l -21.58074020969514 13.46797799549467" fill="#ddff1b" stroke="none" /><line stroke="#e1ed5e" stroke-width="0.3" x1="172.87174338648825" x2="177.1583165268699" y1="56.24261187166439" y2="53.66864786411523" /><path d="M 173.72905801456457 55.72781907015455 a86.0,86.0 0 0,1 12.242430191666344,42.057860355516425" fill="none" id="id51" stroke="none" /><text fill="#e1ed5e" style="font-size:6.75px; font-family:Arial;" text-anchor="middle"><textPath startOffset="22.145653131862474" xlink:href="#id51">March</textPath></text><path d="M 118.18653347947321 89.5 l 10.420849896848134 -6.016480493129956 a33.03296098625991,33.03296098625991 0 0,0 0.27931198693858766,0.49351751776280983 l -10.522595248808097 5.836706205268028" fill="#ff6b09" stroke="none" /><path d="M 118.36410011445183 89.81374322990088 l 20.82501856078955 -11.551286748613677 a44.81414755152758,44.81414755152758 0 0,0 0.36737923352474955,0.6759364109001097 l -21.02024314392964 11.192095504238965" fill="#f2ff19" stroke="none" /><path d="M 118.70294669586156 90.45014215332178 l 6.913563222995333 -3.5301146427496994 a28.762671307566066,28.762671307566066 0 0,0 0.22076046941027527,0.4416688203963325 l -6.973143605617346 3.4109139661896166" fill="#ff2c04" stroke="none" /><path d="M 118.8641267826498 90.77261029715802 l 21.494804959184496 -10.514186223949613 a44.92853426738199,44.92853426738199 0 0,0 0.3329434210220718,0.6957236973472479 l -21.67212763816648 10.14365002453726" fill="#f0ff19" stroke="none" /><path d="M 119.16976305983485 91.42560881287824 l 23.87230387390295 -10.677777879350042 a47.15151683342094,47.15151683342094 0 0,0 0.3241467353453551,0.7417111656038796 l -24.052084491265276 10.266404643970313" fill="#d4ff1c" stroke="none" /><path d="M 119.4528033332814 92.08871423366111 l 11.411273976177336 -4.640865783548566 a33.31888018369746,33.31888018369746 0 0,0 0.2109264800126514,0.5316725170066722 l -11.489259131156112 4.444292249328329" fill="#ff6f0a" stroke="none" /><path d="M 119.58574465831526 92.42381321644754 l 15.584788105111524 -6.028530838437258 a37.71014076395572,37.71014076395572 0 0,0 0.22836061020063986,0.6057536494297896 l -15.685979399126605 5.760108908813311" fill="#ffae10" stroke="none" /><path d="M 119.83427380445688 93.10060997987247 l 22.85725382015712 -7.950939391533327 a45.20065059883564,45.20065059883564 0 0,0 0.24863495707520605,0.7350450710562311 l -22.99037419880469 7.557392646002934" fill="#edff1a" stroke="none" /><path d="M 120.05942366710727 93.78553927170692 l 16.19280165576935 -5.016571345258861 a37.95207401839548,37.95207401839548 0 0,0 0.18745375146108104,0.6239725725854031 l -16.27653172723406 4.737861169082735" fill="#ffb110" stroke="none" /><path d="M 120.26092885502905 94.47779374421319 l 18.61280678184177 -5.073003255866298 a40.291758300689054,40.291758300689054 0 0,0 0.17615272613698002,0.6688805931771107 l -18.69714898878348 4.752742158316389" fill="#ffd113" stroke="none" /><path d="M 120.35273937422433 94.82641323984039 l 12.57989858708274 -3.197761027525676 a33.979966257677575,33.979966257677575 0 0,0 0.13885261683163222,0.5665660602447272 l -12.632938730430663 2.9813391426728537" fill="#ff790b" stroke="none" /><path d="M 120.51834098615036 95.52812308129327 l 25.569164129042072 -5.572680314478979 a47.169388990675216,47.169388990675216 0 0,0 0.16563708205658573,0.7926333989394593 l -25.661058921923022 5.132930464254115" fill="#d4ff1c" stroke="none" /><path d="M 120.65975698304385 96.23510406497455 l 11.944415744760567 -2.176670438118465 a33.14112687026468,33.14112687026468 0 0,0 0.09719058794372702,0.5605694838657412 l -11.98002115019653 1.971307921332131" fill="#ff6d0a" stroke="none" /><path d="M 120.7213421655516 96.59031103205396 l 18.85049667345723 -3.101842054162118 a40.10399562827082,40.10399562827082 0 0,0 0.10594808746428577,0.6802627235504706 l -18.90096625305978 2.777791148680206" fill="#ffce13" stroke="none" /><path d="M 120.9064616781168 98.02013634271609 l 11.900475378886341 -1.1269873912581385 a32.95371970658233,32.95371970658233 0 0,0 0.04849905213164419,0.5636325013945833 l -11.918068053715727 0.9225338424878932" fill="#ff6a09" stroke="none" /><path d="M 120.93736805541906 98.37931529534042 l 14.336250739860182 -1.109716476051646 a35.3791361330701,35.3791361330701 0 0,0 0.04167331834923979,0.6059209027617934 l -14.353188019374489 0.8634521491355183" fill="#ff8d0d" stroke="none" /><path d="M 120.98066250479742 99.09900007780936 l 11.929262049124253 -0.5122938408448751 a32.940257033081146,32.940257033081146 0 0,0 0.019411713866126373,0.5651508691746108 l -11.936298449987227 0.3074367071061444" fill="#ff6a09" stroke="none" /><line stroke="#e1ed5e" stroke-width="0.3" x1="184.99686870605535" x2="189.99668451229388" y1="99.2704041080226" y2="99.22748670261217" /><path d="M 185.99683186730306 99.26182062694052 a86.0,86.0 0 0,1 -10.086455211305974,41.156179273409016" fill="none" id="id52" stroke="none" /><text fill="#e1ed5e" style="font-size:6.75px; font-family:Arial;" text-anchor="middle"><textPath startOffset="21.40746469413373" xlink:href="#id52">April</textPath></text><path d="M 120.99922638620191 99.81974689727618 l 11.916009431909814 -0.10228460957016383 a32.9164484190013,32.9164484190013 0 0,0 0.0,0.56507542458798 l -11.916009431909814 -0.10228460957016239" fill="#ff6909" stroke="none" /><path d="M 120.98066250479742 100.90099992219065 l 7.121203406765564 0.30581511493892993 a28.12776689048222,28.12776689048222 0 0,0 -0.02485745931539959,0.48222806999512796 l -7.114904357993591 -0.42801497831078855" fill="#ff2203" stroke="none" /><path d="M 120.86939407059847 102.33845913500097 l 11.84643759539618 1.327418041868373 a32.92057558843086,32.92057558843086 0 0,0 -0.06775040933633462,0.5610705791628706 l -11.821905099800182 -1.5305822979546522" fill="#ff6909" stroke="none" /><path d="M 120.77682067341334 103.0534771498775 l 14.7050805614222 2.1611404452687895 a35.86303879905094,35.86303879905094 0 0,0 -0.09474418475994116,0.6083256310510887 l -14.665814884523991 -2.4132542582513286" fill="#ff940d" stroke="none" /><path d="M 120.7213421655516 103.40968896794604 l 12.156915621305712 2.000415839236902 a33.3204001945317,33.3204001945317 0 0,0 -0.09771632986723933,0.5636018235700883 l -12.12078447394624 -2.2088106957275784" fill="#ff6f0a" stroke="none" /><path d="M 120.592083275326 104.11899336999214 l 16.403145346248436 3.281088466127767 a37.728081742169614,37.728081742169614 0 0,0 -0.13248357685109935,0.6339818748271895 l -16.344404058572973 -3.562186792240366" fill="#ffae10" stroke="none" /><path d="M 120.51834098615036 104.47187691870673 l 7.163263340628533 1.5611999048654477 a28.331417791269608,28.331417791269608 0 0,0 -0.10764473411501285,0.47430256029712786 l -7.135407744955856 -1.6839367991015923" fill="#ff2503" stroke="none" /><path d="M 120.43855184770803 104.8234425847677 l 13.901039136779675 3.2806073857128326 a35.28290145248765,35.28290145248765 0 0,0 -0.1441768116818925,0.5882905921197606 l -13.842674798581486 -3.518753802440693" fill="#ff8b0c" stroke="none" /><path d="M 120.26092885502905 105.52220625578681 l 16.60231177227061 4.525033900733482 a38.20792515053638,38.20792515053638 0 0,0 -0.1779061207581447,0.6313260605401465 l -16.522187159437888 -4.809367885176637" fill="#ffb410" stroke="none" /><path d="M 120.16314734710363 105.8691983318838 l 7.068275629577275 2.057472021617152 a28.361637826965776,28.361637826965776 0 0,0 -0.14008444981605478,0.4662955734395329 l -7.03191485975759 -2.178505198647408" fill="#ff2603" stroke="none" /><path d="M 119.94978838288452 106.5578916946017 l 9.398751168239981 3.0895561919197165 a30.89352722670342,30.89352722670342 0 0,0 -0.16993584636834808,0.5023851341669595 l -9.344329900299268 -3.2504430005608365" fill="#ff4c07" stroke="none" /><path d="M 119.83427380445688 106.89939002012753 l 15.790578197679759 5.492782781118731 a37.71864296220222,37.71864296220222 0 0,0 -0.21797752838409898,0.6097219418293536 l -15.693960499251716 -5.7630396793290055" fill="#ffae10" stroke="none" /><path d="M 119.71291397450082 107.23885506374661 l 11.267289657185351 4.137504830342126 a33.00294807287028,33.00294807287028 0 0,0 -0.1998553494540209,0.5301400586706763 l -11.19460362391689 -4.330313169206961" fill="#ff6b09" stroke="none" /><path d="M 119.4528033332814 107.91128576633889 l 11.063083826067404 4.499259880720602 a32.942996408642855,32.942996408642855 0 0,0 -0.2175401050193399,0.5220170593518609 l -10.984217876511577 -4.688509449513741" fill="#ff6a09" stroke="none" /><path d="M 119.31412917781788 108.2440532568976 l 18.272586838737876 7.799480766280177 a40.86754463950669,40.86754463950669 0 0,0 -0.2809470843382831,0.6428619099789482 l -18.136005872382626 -8.11200474603497" fill="#ffd914" stroke="none" /><path d="M 118.8641267826498 109.22738970284198 l 21.347535179514114 10.442149194930055 a44.764590003822306,44.764590003822306 0 0,0 -0.3435790715170142,0.6873882975296914 l -21.16513619478537 -10.807069348623493" fill="#f2ff19" stroke="none" /><path d="M 118.5362547648365 109.86951160357373 l 4.351700066224733 2.3170351747836686 a25.930106030053018,25.930106030053018 0 0,0 -0.21257087324004612,0.3911064644052541 l -4.311283843369348 -2.391396472663526" fill="#ff0000" stroke="none" /><line stroke="#e1ed5e" stroke-width="0.3" x1="174.33088141563837" x2="178.70328620479359" y1="141.23008692659167" y2="143.65538615756765" /><path d="M 175.20536237346943 141.71514677278685 a86.0,86.0 0 0,1 -30.301960400862466,31.631185727798858" fill="none" id="id53" stroke="none" /><text fill="#e1ed5e" style="font-size:6.75px; font-family:Arial;" text-anchor="middle"><textPath startOffset="22.145653131862474" xlink:href="#id53">May</textPath></text><path d="M 118.18653347947321 110.5 l 8.963681741650351 5.175184066471961 a31.350368132943927,31.350368132943927 0 0,0 -0.2730860251726413,0.4637597730507699 l -8.873522006347946 -5.328295007816281" fill="#ff5207" stroke="none" /><path d="M 117.81537515405839 111.11811171558189 l 6.471438470220814 4.038656230937632 a28.628254061418332,28.628254061418332 0 0,0 -0.26376479431065286,0.41468206682420133 l -6.401155984284271 -4.149151972440506" fill="#ff2a04" stroke="none" /><path d="M 117.62189284568427 111.42229804090321 l 6.8978314615866285 4.4710910161650155 a29.220141954205282,29.220141954205282 0 0,0 -0.2764441951222737,0.4185717456006638 l -6.8200628275436275 -4.58884264010474" fill="#ff3304" stroke="none" /><path d="M 117.423217284605 111.72311816256416 l 10.053629044578612 6.764530300401063 a33.117521493731246,33.117521493731246 0 0,0 -0.3214138462696024,0.4689524072765192 l -9.936025461493688 -6.9361174427476255" fill="#ff6c0a" stroke="none" /><path d="M 116.79662413953412 112.60449989151573 l 9.537978154318276 7.157476622246946 a32.92486892465759,32.92486892465759 0 0,0 -0.3431210695252392,0.449156494342844 l -9.413705107438732 -7.320154029830667" fill="#ff6a09" stroke="none" /><path d="M 116.57777611688842 112.89097897827486 l 10.287570667576949 7.9996771749227324 a34.031843505174905,34.031843505174905 0 0,0 -0.3625745628219319,0.45810111574902745 l -10.148729674113454 -8.175098234586443" fill="#ff7a0b" stroke="none" /><path d="M 116.1254893667686 113.45245675266167 l 13.707453476124375 11.435245212259685 a38.85102556898685,38.85102556898685 0 0,0 -0.4316264513604158,0.5084548743932952 l -13.509132461256844 -11.668866869102537" fill="#ffbd11" stroke="none" /><path d="M 115.89218393027572 113.72728997021213 l 11.08372230976276 9.573855346939906 a35.646078193293334,35.646078193293334 0 0,0 -0.40397010587004506,0.45964382471059223 l -10.917741139934128 -9.762711449461792" fill="#ff910d" stroke="none" /><path d="M 115.41159269507618 114.26474011684316 l 10.902618366715037 10.091300793590186 a35.856023659006,35.856023659006 0 0,0 -0.42198128917799876,0.4481295057970611 l -10.727781243800779 -10.276971759331746" fill="#ff940d" stroke="none" /><path d="M 115.16444852881244 114.52719865689866 l 16.81765876518433 16.110936666214425 a44.28939515326565,44.28939515326565 0 0,0 -0.5306569709337671,0.5445008005056347 l -16.538614993099756 -16.397260158787795" fill="#f8ff18" stroke="none" /><path d="M 114.65682725009322 115.03919595460226 l 5.964563148680853 6.120167239880671 a29.54590314704714,29.54590314704714 0 0,0 -0.3662672151969064,0.3508757068590353 l -5.858623447618634 -6.221655077045287" fill="#ff3705" stroke="none" /><path d="M 114.39649973595853 115.28858382429668 l 14.675402577540268 15.584768976976996 a42.40683220092642,42.40683220092642 0 0,0 -0.5342659663452057,0.49450860232137345 l -14.405706839881095 -15.834395325430748" fill="#ffed16" stroke="none" /><path d="M 113.59037401385872 116.0094264158162 l 12.443306343538342 14.658183584439412 a40.22753803153879,40.22753803153879 0 0,0 -0.5302864286004008,0.44238379902884534 l -12.189845580776046 -14.869629567380128" fill="#ffd013" stroke="none" /><path d="M 112.7482090630111 116.68781488649013 l 12.036911015601465 15.756702909456841 a40.828285689246904,40.828285689246904 0 0,0 -0.5606054355424608,0.4206887701229498 l -11.764652591148238 -15.961010706843805" fill="#ffd814" stroke="none" /><path d="M 112.45986205192187 116.90419585922612 l 10.752541638078268 14.587887817467688 a39.122461826518744,39.122461826518744 0 0,0 -0.5440238940125245,0.393831345338681 l -10.500536733691776 -14.770319934179447" fill="#ffc111" stroke="none" /><path d="M 111.5731344415666 117.5232005979908 l 9.363139934949546 14.176987240197452 a37.989860407024196,37.989860407024196 0 0,0 -0.5472608857940661,0.35472789435327096 l -9.11839341689847 -14.335628976254618" fill="#ffb110" stroke="none" /><path d="M 111.27062007382361 117.71928675628689 l 12.761453722201312 20.063124872423835 a44.77779806353729,44.77779806353729 0 0,0 -0.6521265181733402,0.4069751784089111 l -12.415163075238258 -20.279235847674293" fill="#f2ff19" stroke="none" /><line stroke="#e1ed5e" stroke-width="0.3" x1="143.1302829299769" x2="145.66735839644613" y1="173.24464959558577" y2="177.55315839532614" /><path d="M 143.63769802327073 174.10635135553383 a86.0,86.0 0 0,1 -40.68552437913181,11.842963189579606" fill="none" id="id54" stroke="none" /><text fill="#e1ed5e" style="font-size:6.75px; font-family:Arial;" text-anchor="middle"><textPath startOffset="21.407464694133747" xlink:href="#id54">June</textPath></text><path d="M 110.34350942703117 118.27599006163325 l 13.733132594145733 24.265129410505928 a48.88181192385078,48.88181192385078 0 0,0 -0.7338226334502229,0.40703904473662755 l -13.314565772539416 -24.4973013706757" fill="#bfff1e" stroke="none" /><path d="M 109.71004243097381 118.62028667847754 l 5.495074663925959 10.537530220831226 a32.88424960681373,32.88424960681373 0 0,0 -0.5027732087201773,0.25671958277346535 l -5.313374233492199 -10.630307755277526" fill="#ff6909" stroke="none" /><path d="M 109.3889696526874 118.78422872680471 l 5.640335946456683 11.284450204174972 a33.61555412970021,33.61555412970021 0 0,0 -0.5183834604895013,0.25356732705188584 l -5.445792236705112 -11.379611281324081" fill="#ff740a" stroke="none" /><path d="M 109.06512990194946 118.94263497670748 l 8.707426490182488 18.19517242158541 a41.17135532216797,41.17135532216797 0 0,0 -0.6401386751378224,0.2996172224610609 l -8.39379910117316 -18.341965875617007" fill="#ffdd14" stroke="none" /><path d="M 108.4095320186766 119.2426549942271 l 3.2801064698690476 7.505525516026885 a29.190971354205033,29.190971354205033 0 0,0 -0.4608905820361471,0.19672678322315107 l -3.1507808126624695 -7.56072694890944" fill="#ff3204" stroke="none" /><path d="M 108.07796709384702 119.3841803445677 l 9.139809097346559 21.932214602958034 a44.76043239770995,44.76043239770995 0 0,0 -0.7117879387810522,0.2894779581252456 l -8.761966697375065 -22.08587981766257" fill="#f2ff19" stroke="none" /><path d="M 107.74402155503746 119.51999308798841 l 9.975058425335888 25.143663422292086 a48.05005731754322,48.05005731754322 0 0,0 -0.769322002806371,0.2975902776044397 l -9.541964160035986 -25.311193588034566" fill="#c9ff1d" stroke="none" /><path d="M 107.06938296918513 119.77432235084164 l 5.62357041695756 15.730127321195878 a37.7051324381315,37.7051324381315 0 0,0 -0.6113514266410376,0.21265976124672284 l -5.352713218271501 -15.824345515011192" fill="#ffae10" stroke="none" /><path d="M 106.72888874123015 119.89276391827305 l 2.978986998090065 8.806845728552931 a30.297036905451147,30.297036905451147 0 0,0 -0.49409744079830814,0.16241964281260518 l -2.8273668196440225 -8.856686292767554" fill="#ff4306" stroke="none" /><path d="M 106.0420521117495 120.11202640906438 l 3.453882157467046 11.496850387915597 a33.00445212409897,33.00445212409897 0 0,0 -0.5440076499803557,0.15835269845683886 l -3.256014495105084 -11.554446780674954" fill="#ff6b09" stroke="none" /><path d="M 105.69591212413111 120.21278271476187 l 3.950984850355084 14.020651398607326 a35.56670679766037,35.56670679766037 0 0,0 -0.5890839110346994,0.16055743949230414 l -3.7097195383856896 -14.086409332243772" fill="#ff900d" stroke="none" /><path d="M 105.3480935250658 120.30758222061773 l 6.231162052818539 23.660737256095132 a45.467485936042834,45.467485936042834 0 0,0 -0.7564809007810503,0.19229448678298885 l -5.824075858812091 -23.764216974713392" fill="#e9ff1a" stroke="none" /><path d="M 104.64783097203109 120.47920084513623 l 5.2668240141532054 23.206598400607426 a44.79675701693691,44.79675701693691 0 0,0 -0.7513857826164583,0.16376103412039755 l -4.867675814917612 -23.29359089286154" fill="#f2ff19" stroke="none" /><path d="M 104.29559338865022 120.5559693870025 l 2.918134046347819 13.964327788190484 a35.265971992419,35.265971992419 0 0,0 -0.5936497638327093,0.11874657889783698 l -2.6779877969841515 -14.012363763751182" fill="#ff8b0c" stroke="none" /><path d="M 103.94208987418118 120.62667999033965 l 1.6999173025812988 8.894685643784065 a30.05566957973587,30.05566957973587 0 0,0 -0.5076048599904004,0.09250251469780449 l -1.5469777090398413 -8.922556332413233" fill="#ff3f05" stroke="none" /><path d="M 103.58742460773223 120.69131181640829 l 2.6569252206783025 15.324438622470847 a36.55305985078668,36.55305985078668 0 0,0 -0.619178367674873,0.1018855647758946 l -2.393469349950357 -15.367790185742413" fill="#ff9d0e" stroke="none" /><path d="M 103.2317021107853 120.74984581791261 l 1.8497510979841987 11.876728970963182 a33.019911404590715,33.019911404590715 0 0,0 -0.5608273053845703,0.08242230074260178 l -1.645598686991943 -11.906732345004666" fill="#ff6b09" stroke="none" /><path d="M 102.875027216393 120.80226474461374 l 1.9460955093328705 14.080977659138998 a35.214823937306335,35.214823937306335 0 0,0 -0.5995276455142201,0.07762085667343059 l -1.704090041927875 -14.112310112012825" fill="#ff8b0c" stroke="none" /><path d="M 102.15924093988457 120.88869738790638 l 2.160583929157815 20.901689590863405 a42.01306143016154,42.01306143016154 0 0,0 -0.7180240995627215,0.06799762875543176 l -1.801460266210078 -20.93569897512402" fill="#ffe815" stroke="none" /><path d="M 101.80034050326958 120.92268563240118 l 1.6861334843776012 19.595426956083564 a40.6678367828886,40.6678367828886 0 0,0 -0.696061021675728,0.053879525275269256 l -1.3495034679266373 -19.621484248353887" fill="#ffd614" stroke="none" /><path d="M 101.44090949804482 120.95050786540614 l 0.9474897829931695 13.77629349929717 a34.808837730513524,34.808837730513524 0 0,0 -0.5964836596680875,0.03588297576604112 l -0.7108617711926171 -13.790528452887902" fill="#ff850c" stroke="none" /><path d="M 101.08105385017728 120.97215588758144 l 0.45541804109776135 8.834988331388805 a29.846718284648475,29.846718284648475 0 0,0 -0.5119056693683132,0.021983432037204827 l -0.30368661112861856 -8.84150433185184" fill="#ff3c05" stroke="none" /><path d="M 100.72087961077811 120.9876233191556 l 0.6354495974593635 18.50042169370112 a39.51133163863903,39.51133163863903 0 0,0 -0.6780646602809945,0.017464540387902527 l -0.3177716231076251 -18.508603951439067" fill="#ffc612" stroke="none" /><line stroke="#e1ed5e" stroke-width="0.3" x1="101.45913802915013" x2="101.54496967792366" y1="184.9874750549273" y2="189.98673829345242" /><path d="M 101.47630435890484 185.9873277026323 a86.0,86.0 0 0,1 -42.54439059252881,-10.42667462771756" fill="none" id="id55" stroke="none" /><text fill="#e1ed5e" style="font-size:6.75px; font-family:Arial;" text-anchor="middle"><textPath startOffset="22.145653131862474" xlink:href="#id55">July</textPath></text><path d="M 100.36049292484886 120.99690560180557 l 0.33868885607671007 19.72692790685926 a40.729835143347074,40.729835143347074 0 0,0 -0.6991817809255598,0.0060016346822478455 l -2.4162079456004954e-15 -19.729835143347074" fill="#ffd714" stroke="none" /><path d="M 99.63950707515114 120.99690560180557 l -0.32836444433765805 19.125582682761344 a40.12840129659156,40.12840129659156 0 0,0 -0.688654359757995,-0.01773729348217552 l 0.656632118166397 -19.11712767192912" fill="#ffcf13" stroke="none" /><path d="M 99.27912038922189 120.98762331915562 l -0.671466469923493 19.549013637639444 a40.56054195120484,40.56054195120484 0 0,0 -0.6956601117568083,-0.02987463844007475 l 1.0069523422811402 -19.53460643077354" fill="#ffd413" stroke="none" /><path d="M 98.91894614982273 120.97215588758144 l -0.8208469105059405 15.924210772800413 a36.9453528774706,36.9453528774706 0 0,0 -0.6330949474008366,-0.038085419922193914 l 1.0940862100392235 -15.907773375053527" fill="#ffa30f" stroke="none" /><path d="M 98.55909050195518 120.95050786540614 l -1.8837114205028533 27.38875063628237 a48.453452062212335,48.453452062212335 0 0,0 -0.8293177610157566,-0.06419443967470809 l 2.353598176293846 -27.352378429612607" fill="#c4ff1e" stroke="none" /><path d="M 98.19965949673042 120.92268563240118 l -1.273436525520276 14.799262721629894 a35.85394956529587,35.85394956529587 0 0,0 -0.6127618168264919,-0.05802918113952803 l 1.527297905731783 -14.775221784985181" fill="#ff940d" stroke="none" /><path d="M 97.84075906011543 120.88869738790638 l -1.6580712832234084 16.040335584171963 a37.12580435305797,37.12580435305797 0 0,0 -0.6333734678044494,-0.0709708181581192 l 1.933180652628657 -16.009509005506875" fill="#ffa50f" stroke="none" /><path d="M 97.12497278360702 120.80226474461374 l -2.603209527866186 18.835527356263967 a40.01456785295268,40.01456785295268 0 0,0 -0.679628179195525,-0.09988193806003917 l 2.926162812669396 -18.788064344905045" fill="#ffcd13" stroke="none" /><path d="M 96.76829788921471 120.74984581791261 l -2.0968755405522583 13.463445167363778 a34.625756595770284,34.625756595770284 0 0,0 -0.5865314569011553,-0.09651352803168756 l 2.3276845005064772 -13.425465640836421" fill="#ff820c" stroke="none" /><path d="M 96.41257539226777 120.69131181640829 l -3.2929333199144932 18.99276432628994 a40.27611233115731,40.27611233115731 0 0,0 -0.6802161005455932,-0.12395803270991076 l 3.6184841540111434 -18.933438119648663" fill="#ffd113" stroke="none" /><path d="M 96.05791012581884 120.62667999033965 l -5.300488256764063 27.734394332532908 a49.23635608134533,49.23635608134533 0 0,0 -0.8288202340192742,-0.1657872592682913 l 5.775804976314295 -27.639317676601756" fill="#bbff1f" stroke="none" /><path d="M 95.70440661134978 120.55596938700252 l -2.564993974210501 12.274424704868272 a33.53956522066123,33.53956522066123 0 0,0 -0.5625664476652653,-0.12260873889615247 l 2.775322838494903 -12.2285845078384" fill="#ff720a" stroke="none" /><path d="M 95.35216902796893 120.47920084513623 l -4.377905891750132 19.28986113689867 a40.78041462350711,40.78041462350711 0 0,0 -0.681358868978301,-0.1607988378348651 l 4.708396914468321 -19.211866155417574" fill="#ffd714" stroke="none" /><path d="M 94.6519064749342 120.30758222061772 l -4.827733967984155 18.331692225389965 a39.95673904214675,39.95673904214675 0 0,0 -0.6617950950884502,-0.1803751960384231 l 5.141710464007301 -18.246116535207396" fill="#ffcc13" stroke="none" /><path d="M 94.30408787586889 120.21278271476187 l -5.4628798178793865 19.38583326941653 a41.14084376222135,41.14084376222135 0 0,0 -0.6781186262126452,-0.1973904490837526 l 5.794858456473638 -19.28919912603026" fill="#ffdc14" stroke="none" /><path d="M 93.95794788825049 120.11202640906438 l -8.9713867868664 29.862828828059065 a52.18131373905719,52.18131373905719 0 0,0 -0.8556725797670696,-0.26508955249592414 l 9.482699999505103 -29.70442268775649" fill="#97ff23" stroke="none" /><path d="M 93.61358852112213 120.00534299687104 l -6.486162534496941 20.317811757858234 a42.32800457266629,42.32800457266629 0 0,0 -0.6903037679466926,-0.2269165596991328 l 6.833989040091377 -20.20347427675708" fill="#ffec16" stroke="none" /><path d="M 93.27111125876986 119.89276391827306 l -4.267819596889754 12.617050296359416 a34.3193183869318,34.3193183869318 0 0,0 -0.5564538008618776,-0.19356351728218077 l 4.483779169796653 -12.541928346508646" fill="#ff7e0b" stroke="none" /><path d="M 92.93061703081489 119.77432235084164 l -7.339775011371235 20.530657016341763 a42.80321477994043,42.80321477994043 0 0,0 -0.6897653440766952,-0.25329138859050593 l 7.691129507102049 -20.401634778742537" fill="#fff216" stroke="none" /><path d="M 92.25597844496254 119.51999308798841 l -8.016708213987894 20.207341600653198 a42.73946331337805,42.73946331337805 0 0,0 -0.6796501478389247,-0.27640779832945744 l 8.362412823017259 -20.066746545744447" fill="#fff116" stroke="none" /><path d="M 91.92203290615298 119.3841803445677 l -7.127224558711642 17.102744365909988 a39.52838888721759,39.52838888721759 0 0,0 -0.6241060614297268,-0.2663937659839426 l 7.4197656953118 -16.97787595026664" fill="#ffc712" stroke="none" /><path d="M 91.26138138417905 119.09545874513695 l -13.815957534310472 30.19036059582111 a54.20148423633465,54.20148423633465 0 0,0 -0.8427331584799901,-0.39444167026035054 l 14.332179406661952 -29.948742693990233" fill="#80ff25" stroke="none" /><path d="M 90.93487009805054 118.94263497670748 l -8.211846358604395 17.159600550500176 a40.023309692849196,40.023309692849196 0 0,0 -0.6171970778399659,-0.30190201891151336 l 8.505203685706432 -17.01610478149144" fill="#ffcd13" stroke="none" /><path d="M 90.6110303473126 118.78422872680471 l -9.957653932239758 19.921978232405902 a43.27195744712854,43.27195744712854 0 0,0 -0.6615927428305335,-0.3378139685241962 l 10.298173896783874 -19.74810631220887" fill="#fff817" stroke="none" /><path d="M 89.97174638481275 118.45085714620012 l -10.3149997933427 18.978437817111004 a42.6004704280858,42.6004704280858 0 0,0 -0.6395259947494348,-0.35473428880646385 l 10.639269976248238 -18.798570612871394" fill="#fff016" stroke="none" /><line stroke="#e1ed5e" stroke-width="0.3" x1="58.13341422392154" x2="55.67067388415222" y1="173.97424548756322" y2="178.32567169271397" /><path d="M 57.64086615596768 174.84453072859336 a86.0,86.0 0 0,1 -31.369924170532247,-30.572349798747897" fill="none" id="id56" stroke="none" /><text fill="#e1ed5e" style="font-size:6.75px; font-family:Arial;" text-anchor="middle"><textPath startOffset="22.145653131862474" xlink:href="#id56">August</textPath></text><path d="M 89.65649057296885 118.27599006163327 l -10.973463566231434 19.389058664560395 a43.27896987154418,43.27896987154418 0 0,0 -0.6434295417685201,-0.37148421914461544 l 11.304685575860354 -19.197827548139607" fill="#fff817" stroke="none" /><path d="M 89.34428304082925 118.09573695890944 l -8.80160505834401 14.947049603726976 a38.34596620137782,38.34596620137782 0 0,0 -0.5643562890953289,-0.33887973632850393 l 9.056894103996768 -14.793755866862554" fill="#ffb610" stroke="none" /><path d="M 89.03521579738668 117.91015095944536 l -13.690353266966637 22.362163191599233 a47.2200708462441,47.2200708462441 0 0,0 -0.687694833612979,-0.42917243786447834 l 14.07221222936933 -22.123854956893204" fill="#d3ff1c" stroke="none" /><path d="M 88.72937992617639 117.7192867562869 l -10.224436064571863 16.07451172719796 a40.050696053067,40.050696053067 0 0,0 -0.5769481425790591,-0.3739708155300427 l 10.49886983940793 -15.896627069964026" fill="#ffce13" stroke="none" /><path d="M 88.4268655584334 117.5232005979908 l -8.403574059359283 12.724082203117566 a36.24868272615144,36.24868272615144 0 0,0 -0.5162912169040881,-0.34738377207799903 l 8.620761564360375 -12.577948756982446" fill="#ff990e" stroke="none" /><path d="M 87.83215693770417 117.11559508785305 l -12.9032771826441 18.15007527906102 a43.26925671610361,43.26925671610361 0 0,0 -0.601687839433647,-0.43557559490691017 l 13.2129460324517 -17.925898912781044" fill="#fff817" stroke="none" /><path d="M 87.54013794807813 116.9041958592261 l -13.217795449295258 17.932478078086802 a43.277429981047504,43.277429981047504 0 0,0 -0.5942341706027923,-0.4459243998482164 l 13.523682608808818 -17.70293465097457" fill="#fff817" stroke="none" /><path d="M 87.2517909369889 116.68781488649013 l -10.083783129216407 13.199995809931355 a37.6109172407569,37.6109172407569 0 0,0 -0.5096996676127071,-0.39634554442651815 l 10.308892741464343 -13.024949213884042" fill="#ffac0f" stroke="none" /><path d="M 86.96720088162412 116.46651593811092 l -14.76859595983127 18.659638543280767 a44.7969228512981,44.7969228512981 0 0,0 -0.598890551474129,-0.48242383502981045 l 15.08673728166066 -18.403366414457544" fill="#f2ff19" stroke="none" /><path d="M 86.68645165197938 116.24036423190432 l -7.815436574500591 9.533561848679271 a33.32760521644956,33.32760521644956 0 0,0 -0.43933030975396326,-0.36650496972067736 l 7.977941218416447 -9.397994695046725" fill="#ff6f0a" stroke="none" /><path d="M 86.40962598614128 116.0094264158162 l -6.919874119677974 8.15159431320468 a31.69266794019434,31.69266794019434 0 0,0 -0.41173381691174604,-0.3556458646644752 l 7.058787416352582 -8.031604316075482" fill="#ff5708" stroke="none" /><path d="M 86.13680546590413 115.77377054828092 l -8.186874061917022 9.31515983871851 a33.40149626966698,33.40149626966698 0 0,0 -0.42743572400420154,-0.3822156601040241 l 8.345574812744594 -9.173248648731104" fill="#ff700a" stroke="none" /><path d="M 85.60350026404147 115.28858382429668 l -22.093658416160167 23.462699605874235 a53.22775224872898,53.22775224872898 0 0,0 -0.6598404012327874,-0.6321121781872744 l 22.49317130325827 -23.079975297381377" fill="#8bff24" stroke="none" /><path d="M 85.34317274990678 115.03919595460226 l -24.80773613899111 25.45492272087623 a56.54401304112391,56.54401304112391 0 0,0 -0.6893202003240234,-0.6834286100823151 l 25.241048259445098 -25.025314100565257" fill="#66ff29" stroke="none" /><path d="M 84.58840730492382 114.26474011684316 l -17.57280766162921 16.265128424818634 a44.94489448271713,44.94489448271713 0 0,0 -0.5192254636631565,-0.5707197394793271 l 17.849430826134245 -15.961071109781633" fill="#f0ff19" stroke="none" /><path d="M 84.1078160697243 113.72728997021213 l -14.789702813717401 12.77499303984199 a40.543176724526944,40.543176724526944 0 0,0 -0.45042588297733566,-0.5306005575675276 l 15.006823260201848 -12.519225699824908" fill="#ffd413" stroke="none" /><path d="M 83.64595745247003 113.17365903436017 l -18.821139726715675 15.160977885266124 a45.167965389127886,45.167965389127886 0 0,0 -0.48121857700799936,-0.6080039518789733 l 19.078624734365235 -14.835653989472469" fill="#edff1a" stroke="none" /><path d="M 83.4222238831116 112.89097897827486 l -24.89138795773972 19.35569383015251 a52.53131900364008,52.53131900364008 0 0,0 -0.5474464424246368,-0.7166249664007297 l 25.21998637751865 -18.92554795051091" fill="#93ff23" stroke="none" /><path d="M 83.20337586046588 112.60449989151573 l -30.319912606510076 22.752627669986232 a58.907508047290996,58.907508047290996 0 0,0 -0.6000093810792763,-0.8140279605722165 l 30.706024007173184 -22.228793400145136" fill="#4cff2c" stroke="none" /><path d="M 82.98947788004972 112.3143062007846 l -13.476192242927263 9.75572392956799 a37.63676371047802,37.63676371047802 0 0,0 -0.37436912758639784,-0.5265970614805595 l 13.641676469043622 -9.522949641377927" fill="#ffad10" stroke="none" /><path d="M 82.576782715395 111.72311816256416 l -18.33366962399235 12.335711128700888 a43.09735755542854,43.09735755542854 0 0,0 -0.4077329377789916,-0.6173596353851905 l 18.542727000692068 -12.019171614976637" fill="#fff617" stroke="none" /><path d="M 82.18462484594161 111.11811171558189 l -34.17275658767243 21.32632751685719 a61.281379546343366,61.281379546343366 0 0,0 -0.549291372047102,-0.8972261753897294 l 34.53381592417494 -20.736564225342907" fill="#33ff2f" stroke="none" /><path d="M 81.99639281039703 110.81064883170644 l -13.320968669706787 7.998858943641485 a36.538016305165314,36.538016305165314 0 0,0 -0.31827446485342187,-0.5404996227652621 l 13.456316844689978 -7.769008152582664" fill="#ff9d0e" stroke="none" /><line stroke="#e1ed5e" stroke-width="0.3" x1="26.387840678322732" x2="22.057713659400548" y1="142.50000000000003" y2="145.00000000000006" /><path d="M 25.521815274538298 143.00000000000003 a86.0,86.0 0 0,1 -11.493303480769221,-40.785679425670985" fill="none" id="id57" stroke="none" /><text fill="#e1ed5e" style="font-size:6.75px; font-family:Arial;" text-anchor="middle"><textPath startOffset="21.40746469413373" xlink:href="#id57">September</textPath></text><path d="M 81.81346652052679 110.50000000000001 l -24.640760011035617 14.226349425408396 a49.452698850816766,49.452698850816766 0 0,0 -0.41814996788336595,-0.7388309268938434 l 24.881343343940358 -13.801261728415431" fill="#b8ff1f" stroke="none" /><path d="M 81.29705330413844 109.54985784667822 l -50.746442063645944 25.911494900412908 a77.97900446737464,77.97900446737464 0 0,0 -0.5985077479863711,-1.1974164204187014 l 51.183769724844055 -25.036546623830453" fill="#45ffef" stroke="none" /><path d="M 81.1358732173502 109.22738970284198 l -17.261433612973196 8.44343216157423 a40.21584338617972,40.21584338617972 0 0,0 -0.298019970929774,-0.6227471184806377 l 17.403832841862883 -8.145872541028487" fill="#ffd013" stroke="none" /><path d="M 80.83023694016515 108.57439118712176 l -22.12749960215665 9.897349121612304 a45.240127026864414,45.240127026864414 0 0,0 -0.31100673885369823,-0.7116442821491452 l 22.294140223027316 -9.51604276968731" fill="#ecff1a" stroke="none" /><path d="M 80.68587082218212 108.24405325689762 l -19.32128315078806 8.24710686255706 a42.007778421226796,42.007778421226796 0 0,0 -0.2773996759743844,-0.6656582385323017 l 19.460008671298926 -7.914216114583476" fill="#ffe815" stroke="none" /><path d="M 80.5471966667186 107.91128576633889 l -33.44434083259473 13.60152226187451 a57.104367347552724,57.104367347552724 0 0,0 -0.3615014409716589,-0.9112197814679911 l 33.672900948532515 -13.025401463192955" fill="#60ff29" stroke="none" /><path d="M 80.28708602549918 107.23885506374661 l -33.877304783300445 12.440215565993785 a57.08920534881622,57.08920534881622 0 0,0 -0.32992077397422587,-0.9228471230435443 l 34.08586572731862 -11.856833486569318" fill="#60ff29" stroke="none" /><path d="M 80.16572619554312 106.89939002012753 l -13.76453612280358 4.78802017626762 a35.5735236605397,35.5735236605397 0 0,0 -0.1956790756586981,-0.5784904172918143 l 13.844700620034645 -4.551028084501644" fill="#ff900d" stroke="none" /><path d="M 80.05021161711548 106.5578916946017 l -20.306086045957503 6.675013813424612 a42.37505414999549,42.37505414999549 0 0,0 -0.22122862408042726,-0.6929955140053597 l 20.417679385815187 -6.32544926572786" fill="#ffed16" stroke="none" /><path d="M 79.83685265289637 105.86919833188381 l -48.505354616221865 14.119201804169537 a71.51852418699798,71.51852418699798 0 0,0 -0.3330090066478876,-1.1817314850971548 l 48.740582114944324 -13.284462395169387" fill="#3cffa8" stroke="none" /><path d="M 79.73907114497094 105.5222062557868 l -14.219411645876585 3.8755638749986003 a35.738102418699796,35.738102418699796 0 0,0 -0.15624446371973666,-0.5932856780895355 l 14.283845590401054 -3.6308976925362626" fill="#ff920d" stroke="none" /><path d="M 79.64726062577567 105.17358676015961 l -18.423152306187088 4.683093273056072 a40.00904793778767,40.00904793778767 0 0,0 -0.1634893031080831,-0.6670921475424608 l 18.500829135811465 -4.3661453009055124" fill="#ffcd13" stroke="none" /><path d="M 79.56144815229197 104.8234425847677 l -18.480907680985627 4.361443891809924 a39.9885792394934,39.9885792394934 0 0,0 -0.1519359183358174,-0.6694576902459296 l 18.55305446087911 -4.043551867624968" fill="#ffcd13" stroke="none" /><path d="M 79.407916724674 104.11899336999214 l -35.44993327120136 7.090979487524946 a57.15217502481875,57.15217502481875 0 0,0 -0.18417617086040933,-0.9636875513835897 l 35.566435734343926 -6.481389371108041" fill="#5fff29" stroke="none" /><path d="M 79.34024301695615 103.76489593502545 l -14.025697763076499 2.5559493530074624 a35.256685268192896,35.256685268192896 0 0,0 -0.10339473318383395,-0.596353344923239 l 14.067507313752568 -2.3148029751636305" fill="#ff8b0c" stroke="none" /><path d="M 79.2786578344484 103.40968896794605 l -23.41177072474627 3.8523979635333894 a44.72660908215758,44.72660908215758 0 0,0 -0.11816026350443402,-0.7586736541522225 l 23.47445248038897 -3.449936127449717" fill="#f3ff19" stroke="none" /><path d="M 79.22317932658666 103.0534771498775 l -35.660450640452936 5.240858209085584 a57.04350613699949,57.04350613699949 0 0,0 -0.13406713441796717,-0.9700429991801279 l 35.74516229142611 -4.62792690170537" fill="#60ff29" stroke="none" /><path d="M 79.13060592940153 102.33845913500099 l -35.79702064650734 4.011130828880999 a57.02104742637105,57.02104742637105 0 0,0 -0.10064922887071559,-0.97368998770415 l 35.86060226785972 -3.3960363188939175" fill="#60ff29" stroke="none" /><path d="M 79.0935383218832 101.97986365728391 l -16.544310933110044 1.5667634464207434 a37.618332405763965,37.618332405763965 0 0,0 -0.05536411308639739,-0.6434149158560235 l 16.568768668894183 -1.2825274831890578" fill="#ffac0f" stroke="none" /><path d="M 79.00696218219943 100.54070618675478 l -21.34324281451896 0.549726225207589 a42.35032113955657,42.35032113955657 0 0,0 -0.012480374247171709,-0.7269192316406763 l 21.349534620364796 -0.18326007759786028" fill="#ffec16" stroke="none" /><line stroke="#e1ed5e" stroke-width="0.3" x1="15.003131293944662" x2="10.003315487706104" y1="100.72959589197737" y2="100.7725132973878" /><path d="M 14.003168132696942 100.73817937305945 a86.0,86.0 0 0,1 10.791469493833604,-42.45332614584628" fill="none" id="id58" stroke="none" /><text fill="#e1ed5e" style="font-size:6.75px; font-family:Arial;" text-anchor="middle"><textPath startOffset="22.145653131862435" xlink:href="#id58">October</textPath></text><path d="M 79.00696218219943 99.45929381324524 l -28.43573473635919 -0.7324036583133042 a49.44516523269456,49.44516523269456 0 0,0 0.029138066487954396,-0.8483230133776624 l 28.418971982874385 1.2204329362551052" fill="#b8ff1f" stroke="none" /><path d="M 79.01933749520258 99.09900007780938 l -28.466475280361443 -1.2224729322433086 a49.492712313107305,49.492712313107305 0 0,0 0.043738384476881026,-0.8485129740481118 l 28.441295306427993 1.7109576996681324" fill="#b7ff1f" stroke="none" /><path d="M 79.0935383218832 98.0201363427161 l -15.01934552986141 -1.4223476372325403 a36.08654410216299,36.08654410216299 0 0,0 0.06369723111771952,-0.616212929593994 l 14.992715906262026 1.679965089109447" fill="#ff970d" stroke="none" /><path d="M 79.17382384314186 97.30363454192245 l -11.826229118211248 -1.5311421287078197 a32.92493569688036,32.92493569688036 0 0,0 0.07738219612896305,-0.5598990232912835 l 11.798202405527077 1.7339294601991702" fill="#ff6a09" stroke="none" /><path d="M 79.22317932658666 96.9465228501225 l -35.767847445970496 -5.256641841084539 a57.15205657170362,57.15205657170362 0 0,0 0.1509862295155923,-0.9694399037030079 l 35.672339724316636 5.869869926718997" fill="#5fff29" stroke="none" /><path d="M 79.34024301695615 96.23510406497455 l -35.46616993923278 -6.463117603209409 a57.05025796456184,57.05025796456184 0 0,0 0.1838477372724369,-0.9619690480685269 l 35.349995909678185 7.070989216311251" fill="#60ff29" stroke="none" /><path d="M 79.407916724674 95.88100663000787 l -35.37513124793203 -7.076016987918224 a57.07589121867573,57.07589121867573 0 0,0 0.20042413691450328,-0.9591020494902023 l 35.24844940019316 7.682235488693835" fill="#60ff29" stroke="none" /><path d="M 79.64726062577567 94.8264132398404 l -35.61378861224442 -9.052885798595474 a57.7463832315514,57.7463832315514 0 0,0 0.2524631155303819,-0.9586435712609209 l 35.45313601590931 9.662909874229179" fill="#59ff2a" stroke="none" /><path d="M 79.73907114497095 94.47779374421319 l -34.88240026016707 -9.507353306052458 a57.154828374597635,57.154828374597635 0 0,0 0.2661278716041248,-0.9443939312699337 l 34.71405389648836 10.104755161225404" fill="#5fff29" stroke="none" /><path d="M 79.94057633289273 93.78553927170692 l -29.889294073202095 -9.259779707374985 a52.29078810805933,52.29078810805933 0 0,0 0.27299597221230026,-0.8551559947137857 l 29.725933385212535 9.771504735780164" fill="#96ff23" stroke="none" /><path d="M 80.05021161711548 93.44210830539832 l -22.984575146178884 -7.5554863822210026 a45.19454626816281,45.19454626816281 0 0,0 0.24860137901881296,-0.7349458034989346 l 22.851488345587704 7.948933860194099" fill="#edff1a" stroke="none" /><path d="M 80.16572619554312 93.10060997987247 l -17.962388482292255 -6.24825113609821 a40.018097755783515,40.018097755783515 0 0,0 0.23126616851460688,-0.6468926333437904 l 17.852482143733702 6.555678725822922" fill="#ffcd13" stroke="none" /><path d="M 80.41425534168474 92.42381321644754 l -33.656108622105464 -13.018905830590697 a57.08636247405313,57.08636247405313 0 0,0 0.3613874604125874,-0.9109324760015192 l 33.42766248672674 13.594739323805799" fill="#60ff29" stroke="none" /><path d="M 80.5471966667186 92.08871423366112 l -18.03128889578457 -7.333168219816757 a40.465424099756326,40.465424099756326 0 0,0 0.2672146910717589,-0.6412179824795675 l 17.902748360176332 7.641618711737588" fill="#ffd313" stroke="none" /><path d="M 80.68587082218212 91.75594674310238 l -16.800324756929353 -7.171059629671023 a39.26677333714389,39.26677333714389 0 0,0 0.269942458685844,-0.6176811728939186 l 16.67474841622653 7.458402872340809" fill="#ffc312" stroke="none" /><path d="M 80.9802524753101 91.09779779509293 l -45.519340766754766 -21.30534988509672 a71.25861436178214,71.25861436178214 0 0,0 0.5280627830347384,-1.1034481195531798 l 45.146898725760124 22.083610506714987" fill="#3cffa5" stroke="none" /><path d="M 81.29705330413844 90.45014215332179 l -16.957179858695046 -8.6584568605398 a40.039822057098164,40.039822057098164 0 0,0 0.31782453602845173,-0.6094704545704416 l 16.806047253691656 8.94827355821473" fill="#ffcd13" stroke="none" /><path d="M 81.46374523516351 90.13048839642627 l -37.69233175456046 -20.069043630274383 a63.702205860232844,63.702205860232844 0 0,0 0.5222205227904452,-0.9608269430111197 l 37.34226588215467 20.713125406760124" fill="#32ff4a" stroke="none" /><path d="M 81.63589988554816 89.8137432299009 l -16.618368406383084 -9.217928819409167 a40.003693856983844,40.003693856983844 0 0,0 0.33825339547142635,-0.597661338983652 l 16.45768164589029 9.501846928491924" fill="#ffcd13" stroke="none" /><line stroke="#e1ed5e" stroke-width="0.3" x1="26.387840678322718" x2="22.05771365940052" y1="57.49999999999999" y2="54.99999999999999" /><path d="M 25.521815274538284 56.99999999999999 a86.0,86.0 0 0,1 29.574782752854787,-30.34633250058573" fill="none" id="id59" stroke="none" /><text fill="#e1ed5e" style="font-size:6.75px; font-family:Arial;" text-anchor="middle"><textPath startOffset="21.40746469413373" xlink:href="#id59">November</textPath></text><path d="M 81.99639281039701 89.18935116829357 l -16.532090824009238 -9.927045534266691 a40.28357487741043,40.28357487741043 0 0,0 0.3610790141994551,-0.5897954335534056 l 16.359243845354392 10.20937808394464" fill="#ffd113" stroke="none" /><path d="M 82.18462484594161 88.88188828441811 l -30.56647762407876 -19.075742724335782 a57.030452603712284,57.030452603712284 0 0,0 0.525446838923168,-0.8260897051874002 l 30.234513093529703 19.597646104201853" fill="#60ff29" stroke="none" /><path d="M 82.37810715431573 88.57770195909679 l -30.23918482213903 -19.600674262244194 a57.03601990012334,57.03601990012334 0 0,0 0.5396030121612129,-0.8170277354957542 l 29.89825737105709 20.11688187607901" fill="#60ff29" stroke="none" /><path d="M 82.78059297857968 87.97951657250589 l -35.09075153634663 -24.49606985747273 a63.79507310249391,63.79507310249391 0 0,0 0.6345632171089359,-0.8925926333925546 l 34.665073220707725 25.094839717574807" fill="#32ff4b" stroke="none" /><path d="M 82.98947788004972 87.6856937992154 l -15.583675727468774 -11.281379447884108 a40.23851531241539,40.23851531241539 0 0,0 0.40985415048910645,-0.556045869907199 l 15.38771955739585 11.54723162706017" fill="#ffd013" stroke="none" /><path d="M 83.42222388311158 87.10902102172516 l -44.5932128442624 -34.675952027335015 a77.48872702385609,77.48872702385609 0 0,0 0.8255633086709049,-1.043072271480165 l 43.99138310494994 35.43634424272986" fill="#44ffea" stroke="none" /><path d="M 83.64595745247003 86.82634096563983 l -16.65333490811654 -13.414747774254128 a42.38431718359857,42.38431718359857 0 0,0 0.46128907174810707,-0.5626976629787924 l 16.420599017129803 13.698647718931412" fill="#ffed16" stroke="none" /><path d="M 83.8745106332314 86.54754324733833 l -27.675011539091877 -23.0874789218041 a57.04078171535153,57.04078171535153 0 0,0 0.6337106893331186,-0.7465095985915503 l 27.274606286251643 23.559155302845205" fill="#60ff29" stroke="none" /><path d="M 84.34580500576568 86.00192230759919 l -18.745299246754698 -16.762162175699242 a46.146696098191995,46.146696098191995 0 0,0 0.5331092653320513,-0.5859804695975167 l 18.45479228058078 17.081480220854417" fill="#e1ff1b" stroke="none" /><path d="M 84.58840730492382 85.73525988315684 l -14.100574575622025 -13.05128131784046 a40.21359277699227,40.21359277699227 0 0,0 0.4732645171113735,-0.5025905166969211 l 13.874454224774379 13.291413294481892" fill="#ffd013" stroke="none" /><path d="M 84.83555147118756 85.47280134310135 l -13.880322060254715 -13.297034548136246 a40.221718660690115,40.221718660690115 0 0,0 0.4819197759727953,-0.4944921449631481 l 13.650015483131117 13.533349385167124" fill="#ffd013" stroke="none" /><path d="M 85.08716467003674 85.21462403516908 l -21.934583167299504 -21.747109224009257 a51.887905372882884,51.887905372882884 0 0,0 0.632558239189963,-0.6271517910000332 l 21.558033007979567 22.120441025237962" fill="#9bff22" stroke="none" /><path d="M 85.34317274990677 84.96080404539775 l -33.451879005775936 -34.32457480962049 a68.9291627809031,68.9291627809031 0 0,0 0.8544836951494552,-0.8185760507500057 l 32.85772282476118 34.893762990676066" fill="#39ff8a" stroke="none" /><path d="M 85.86807049272753 84.46653392183569 l -24.27588067171982 -26.683445366584202 a57.07387751571854,57.07387751571854 0 0,0 0.7303689020605543,-0.6531003759006867 l 23.814246742835874 27.09624127236829" fill="#60ff29" stroke="none" /><path d="M 86.13680546590413 84.22622945171909 l -5.122846787388063 -5.828859256033468 a28.760100478324958,28.760100478324958 0 0,0 0.373635503550922,-0.3227374489819885 l 5.022031804074293 5.915940837480167" fill="#ff2c04" stroke="none" /><path d="M 86.40962598614128 83.9905735841838 l -21.683752255915042 -25.54340563444843 a54.505979814085016,54.505979814085016 0 0,0 0.7185073406757919,-0.5994043781908498 l 21.242070581077343 25.911872196551162" fill="#7dff26" stroke="none" /><path d="M 86.96720088162412 83.53348406188908 l -35.6503082691648 -45.04299989440221 a78.4440277067477,78.4440277067477 0 0,0 1.0630661994332253,-0.8266467065777008 l 34.87183212509633 45.64834765260071" fill="#46fff4" stroke="none" /><path d="M 87.25179093698888 83.31218511350988 l -15.262702313276922 -19.97936726740575 a46.142100117324986,46.142100117324986 0 0,0 0.6335684121053087,-0.47544154797469707 l 14.917480912260862 20.238427842644448" fill="#e1ff1b" stroke="none" /><path d="M 87.54013794807813 83.09580414077388 l -11.267584895307193 -15.286642912820335 a39.99052187058152,39.99052187058152 0 0,0 0.5560948472030931,-0.40256978456328246 l 11.003509037730131 15.477813468756697" fill="#ffcd13" stroke="none" /><path d="M 87.83215693770416 82.88440491214696 l -9.017399026376538 -12.684101010416903 a36.56277300622725,36.56277300622725 0 0,0 0.5146731038542913,-0.3592817980178746 l 8.79833083134848 12.837027624239905" fill="#ff9e0e" stroke="none" /><path d="M 88.12776184653039 82.6780497279521 l -20.369477153365096 -29.719675915959503 a57.030192006859,57.030192006859 0 0,0 0.8122829580853779,-0.5465402252364763 l 19.856297907182732 30.064965815253085" fill="#60ff29" stroke="none" /><path d="M 88.72937992617638 82.28071324371311 l -19.335347004118937 -30.39837700624968 a57.02661472278211,57.02661472278211 0 0,0 0.8305135426626794,-0.5183018751375493 l 18.81066933266656 30.72581467822877" fill="#60ff29" stroke="none" /><path d="M 89.03521579738668 82.08984904055464 l -18.79366106921338 -30.69803295809862 a56.99404011612166,56.99404011612166 0 0,0 0.8388090891116539,-0.5036807570688626 l 18.26391922354429 31.0161277157034" fill="#61ff29" stroke="none" /><line stroke="#e1ed5e" stroke-width="0.3" x1="56.869717070023135" x2="54.33264160355391" y1="26.7553504044142" y2="22.446841604673864" /><path d="M 56.362301976729285 25.89364864446614 a86.0,86.0 0 0,1 42.16139366436587,-11.88097634709845" fill="none" id="id60" stroke="none" /><text fill="#e1ed5e" style="font-size:6.75px; font-family:Arial;" text-anchor="middle"><textPath startOffset="22.145653131862474" xlink:href="#id60">December</textPath></text><path d="M 89.34428304082924 81.90426304109057 l -7.995754642676696 -13.578539422195416 a36.75781790559851,36.75781790559851 0 0,0 0.5464794102449391,-0.31551003461150184 l 7.761482764571356 13.713796354083092" fill="#ffa00e" stroke="none" /><path d="M 89.65649057296885 81.72400993836675 l -16.173592840255953 -28.577188824998426 a53.83657756986854,53.83657756986854 0 0,0 0.8082044746993268,-0.4482973982238188 l 15.680644177400524 28.850619138655393" fill="#84ff25" stroke="none" /><path d="M 90.28995756902619 81.37971332152246 l -17.551699155428473 -33.6576974088149 a58.959224677356275,58.959224677356275 0 0,0 0.9014381939415189,-0.4602807648279707 l 16.97133373977337 33.9540361253157" fill="#4bff2c" stroke="none" /><path d="M 90.61103034731259 81.2157712731953 l -9.561515731286303 -19.129436468038296 a42.38592814596432,42.38592814596432 0 0,0 0.6536308764564578,-0.319723615535769 l 9.231724605567791 19.290753833671282" fill="#ffed16" stroke="none" /><path d="M 91.26138138417902 80.90454125486306 l -24.67159004208045 -53.911876755044574 a80.28893497488042,80.28893497488042 0 0,0 1.258191066629995,-0.5627728605593194 l 23.742485572594838 54.32745336651374" fill="#48f7ff" stroke="none" /><path d="M 91.5904679813234 80.7573450057729 l -8.19622941639637 -18.754576897142318 a41.46734792876267,41.46734792876267 0 0,0 0.6547199094705606,-0.2794609973006442 l 7.873074431755379 18.892512544102367" fill="#ffe115" stroke="none" /><path d="M 91.92203290615298 80.6158196554323 l -8.05437668875587 -19.32757196013435 a41.9386728738606,41.9386728738606 0 0,0 0.6669158433247246,-0.27122886754393644 l 7.721406384240704 19.462988084257578" fill="#ffe715" stroke="none" /><path d="M 92.592206182469 80.34994680014964 l -11.895937217465962 -31.555386791690754 a54.72322282723143,54.72322282723143 0 0,0 0.8818539171992205,-0.3238289733450752 l 11.352494148612616 31.754946614044552" fill="#7aff26" stroke="none" /><path d="M 92.93061703081487 80.22567764915836 l -7.580768003342203 -21.20475730604168 a43.5190980265335,43.5190980265335 0 0,0 0.7056191278020143,-0.24545096111733297 l 7.215643103495185 21.3317666997276" fill="#fffc17" stroke="none" /><path d="M 93.27111125876988 80.10723608172694 l -4.969602450035701 -14.69174660304442 a36.50949279504227,36.50949279504227 0 0,0 0.5954129115388033,-0.19572405042595886 l 4.716666800849137 14.774891574872406" fill="#ff9d0e" stroke="none" /><path d="M 93.95794788825049 79.88797359093562 l -10.930236949292466 -36.38320393728759 a58.989572365452304,58.989572365452304 0 0,0 0.9723166594376638,-0.28302720886748073 l 10.304060277473177 36.56547484045759" fill="#4bff2c" stroke="none" /><path d="M 94.30408787586887 79.78721728523814 l -9.773740803574226 -34.68355811461599 a57.034361556511534,57.034361556511534 0 0,0 0.9446481778652819,-0.2574680615410366 l 9.176911224774267 34.846226670301164" fill="#60ff29" stroke="none" /><path d="M 95.00130118170881 79.60360301121753 l -5.889191200470124 -24.029909789343073 a45.74104156012153,45.74104156012153 0 0,0 0.7642409875187283,-0.1803587921340966 l 5.47581805921149 24.127464725123403" fill="#e6ff1a" stroke="none" /><path d="M 95.35216902796891 79.52079915486377 l -8.502008207117404 -37.461416886351685 a59.41408463945128,59.41408463945128 0 0,0 0.9965654091517847,-0.21719679257575095 l 7.857680381346501 37.60184513706115" fill="#47ff2c" stroke="none" /><path d="M 95.70440661134978 79.44403061299748 l -3.2109176133533235 -15.365403145156193 a36.697312054390665,36.697312054390665 0 0,0 0.6177442277520739,-0.12356614648652567 l 2.9466769000702726 15.418258688305587" fill="#ff9f0e" stroke="none" /><path d="M 96.05791012581881 79.37332000966035 l -11.692147429488942 -61.178255982313004 a83.28551450016546,83.28551450016546 0 0,0 1.4065942472161919,-0.2563283279624658 l 10.640218448721711 61.36995248420683" fill="#4cd9ff" stroke="none" /><path d="M 96.41257539226777 79.30868818359171 l -4.472089656742657 -25.79382472851219 a47.178635946572,47.178635946572 0 0,0 0.7991667705459355,-0.13150258797471237 l 4.028645383143649 25.866793314982573" fill="#d4ff1c" stroke="none" /><path d="M 96.76829788921471 79.25015418208739 l -3.940436131875881 -25.300426644796215 a46.60544132246322,46.60544132246322 0 0,0 0.7915709934188956,-0.11633367678834892 l 3.5055400328493005 25.364341394883446" fill="#dbff1b" stroke="none" /><path d="M 97.48249496171623 79.15144685158666 l -4.317715022095203 -35.756874265968214 a57.01661727986522,57.01661727986522 0 0,0 0.972714618263962,-0.10899470186501398 l 3.7032645022304416 35.8257247283402" fill="#61ff29" stroke="none" /><path d="M 97.84075906011542 79.11130261209362 l -2.646145192348802 -25.599054346566874 a46.73545546162871,46.73545546162871 0 0,0 0.7987321605037477,-0.07564076603840164 l 2.2063134684600385 25.64070686811046" fill="#d9ff1c" stroke="none" /><path d="M 98.5590905019552 79.04949213459386 l -4.322728494134429 -62.8515235962184 a84.0,84.0 0 0,0 1.439422591470065,-0.0865920887012237 l 3.24316155053188 62.91646766274432" fill="#4dd2ff" stroke="none" /><path d="M 99.27912038922189 79.0123766808444 l -0.40822239554617645 -11.884949636623318 a32.89195834962847,32.89195834962847 0 0,0 0.5644678030164632,-0.01453868830056169 l 0.20414127845896937 11.890206042273926" fill="#ff6909" stroke="none" /><path d="M 99.63950707515114 79.00309439819443 l -0.49199500366630305 -28.656242429369534 a49.660465614752866,49.660465614752866 0 0,0 0.8524879285151482,-0.0073175835777661066 l 7.0197894954359755e-15 28.660465614752866" fill="#b5ff1f" stroke="none" /></svg>