<?xml version="1.0" encoding="utf-8" ?>
<svg baseProfile="full" height="200mm" version="1.1" viewBox="0,0,200,200" width="200mm" xmlns="http://www.w3.org/2000/svg" xmlns:ev="http://www.w3.org/2001/xml-events" xmlns:xlink="http://www.w3.org/1999/xlink"><defs /><rect fill="#1a1a1a" height="200" width="200" x="0" y="0" /><text alignment-baseline="middle" fill="#e1ed5e" style="dominant-baseline: central; font-size:9.0px; font-family:Arial;" text-anchor="middle" x="100.0" y="100.0">2026</text><line stroke="#e1ed5e" stroke-width="0.3" x1="100.0" x2="100.0" y1="15.0" y2="10.0" /><path d="M 100.0 14.0 a86.0,86.0 0 0,1 42.46469731375804,11.215312516191453" fill="none" id="id73" stroke="none" /><text fill="#e1ed5e" style="font-size:6.75px; font-family:Arial;" text-anchor="middle"><textPath startOffset="22.20632615414155" xlink:href="#id73">January</textPath></text><path d="M 100.0 79.0 l 0.0 -8.148665970375998 a29.148665970375998,29.148665970375998 0 0,0 0.5017463688155407,0.004318689403377323 l -0.14026588954301228 8.14745865758118" fill="#ff0000" stroke="none" /><path d="M 100.72285384407766 79.0124445844662 l 2.1685615322329816 -62.9626662466014 a84.0,84.0 0 0,0 1.4446366704426739,0.062209093903220936 l -3.2520390350649873 62.916009426173986" fill="#4dd2ff" stroke="none" /><path d="M 101.44485096284872 79.0497635885617 l 0.5608069132801069 -8.131660438681106 a29.150975762692106,29.150975762692106 0 0,0 0.500299888311183,0.038832900186273195 l -0.7006969909536311 8.120802276306367" fill="#ff0000" stroke="none" /><path d="M 102.16513564639614 79.11191278185805 l 2.320806190642261 -22.38991455672978 a43.509873727593046,43.509873727593046 0 0,0 0.7442950175732784,0.08363021750613564 l -2.705867911725264 22.346648385753046" fill="#ffdc14" stroke="none" /><path d="M 102.52436894288641 79.15227682838746 l 1.7856104015823713 -14.74662071463153 a35.85433361034546,35.85433361034546 0 0,0 0.6120595484988073,0.07946289562180621 l -2.0391846785890246 14.713699495845587" fill="#ff6b09" stroke="none" /><path d="M 102.88285421437855 79.19881850522331 l 3.33660282007737 -24.075196203209448 a45.30530786889931,45.30530786889931 0 0,0 0.7715515926261003,0.11370664864173574 l -3.750523393132126 24.014195070406743" fill="#fff517" stroke="none" /><path d="M 103.2404852339499 79.25152402106235 l 1.25911317619362 -8.061965293751152 a29.159696709321523,29.159696709321523 0 0,0 0.4952577225744446,0.08172176775670004 l -1.3977001049069397 8.039097263054828" fill="#ff0000" stroke="none" /><path d="M 103.59715602781102 79.31037775812273 l 4.159312683577002 -23.92295678689913 a45.28183978671319,45.28183978671319 0 0,0 0.7667830073139043,0.1401246934329778 l -4.570490811993807 23.847816612115416" fill="#fff517" stroke="none" /><path d="M 103.95276090670814 79.375362276772 l 2.79199700014849 -14.568026756861968 a35.83316051411446,35.83316051411446 0 0,0 0.6047845591027817,0.1213140930382822 l -3.042347968718397 14.517808707746477" fill="#ff6b09" stroke="none" /><path d="M 104.66035177308747 79.52364482259891 l 7.26001007858135 -31.89856736116237 a53.71431408475067,53.71431408475067 0 0,0 0.8997820650509801,0.2129493440049909 l -7.8080158305948535 31.768872105016513" fill="#9aff22" stroke="none" /><path d="M 105.01212808612495 79.60689891045804 l 3.5426391448540673 -14.41411651166179 a35.84308077598493,35.84308077598493 0 0,0 0.5978815522843893,0.15241332006536693 l -3.790229585823482 14.351000195427556" fill="#ff6b09" stroke="none" /><path d="M 105.36241919743992 79.69619591428918 l 3.0352990915886364 -11.492596126497087 a32.88666506225252,32.88666506225252 0 0,0 0.5460785487428712,0.14926389560811243 l -3.2326755295552188 11.438645690062682" fill="#ff3d05" stroke="none" /><path d="M 105.71112130821622 79.79150937346287 l 3.6682287145382664 -12.979826831395755 a34.48820990625458,34.48820990625458 0 0,0 0.5698926766989594,0.16636729981457685 l -3.8911116089606526 12.914761202662476" fill="#ff5607" stroke="none" /><path d="M 106.0581310904928 79.89281104454417 l 11.537791282623672 -38.29440894938676 a60.99477946512844,60.99477946512844 0 0,0 1.0026804790307737,0.31153770563333716 l -12.195257134365166 38.0901311088709" fill="#44ff2d" stroke="none" /><path d="M 106.40334571778207 80.00007090966166 l 4.973930732054379 -15.535357034540782 a37.3121827208357,37.3121827208357 0 0,0 0.6099958698901214,0.20110604771096532 l -5.2406094241869186 15.447437262570581" fill="#ff810b" stroke="none" /><path d="M 107.08798089147638 80.2323363322302 l 9.002975841642154 -25.108391398268747 a47.67367414912779,47.67367414912779 0 0,0 0.770083469844913,0.2836282409456247 l -9.433841637259645 24.949699889516797" fill="#e8ff1a" stroke="none" /><line stroke="#e1ed5e" stroke-width="0.3" x1="143.23703022742887" x2="145.7803849466894" y1="26.81831364943548" y2="22.513508569990506" /><path d="M 143.74570117128098 25.957352633546492 a86.0,86.0 0 0,1 28.547481713284135,27.462654790039103" fill="none" id="id74" stroke="none" /><text fill="#e1ed5e" style="font-size:6.75px; font-family:Arial;" text-anchor="middle"><textPath startOffset="19.985693538727396" xlink:href="#id74">February</textPath></text><line stroke="#e1ed5e" stroke-width="0.3" x1="172.23445277983987" x2="176.4835382374775" y1="55.19839476539836" y2="52.563006222186495" /><path d="M 173.08426987136738 54.67131705675599 a86.0,86.0 0 0,1 12.851231095245387,41.99856678651699" fill="none" id="id75" stroke="none" /><text fill="#e1ed5e" style="font-size:6.75px; font-family:Arial;" text-anchor="middle"><textPath startOffset="22.20632615414155" xlink:href="#id75">March</textPath></text><line stroke="#e1ed5e" stroke-width="0.3" x1="184.98032266829074" x2="189.97916517819016" y1="98.17113171792111" y2="98.06355123074" /><path d="M 185.9800911702706 98.14961562048488 a86.0,86.0 0 0,1 -9.607161424134198,41.387399972396054" fill="none" id="id76" stroke="none" /><text fill="#e1ed5e" style="font-size:6.75px; font-family:Arial;" text-anchor="middle"><textPath startOffset="21.466115282336823" xlink:href="#id76">April</textPath></text><line stroke="#e1ed5e" stroke-width="0.3" x1="174.80103733775053" x2="179.2010983576182" y1="140.37084112569926" y2="142.7455964860345" /><path d="M 175.68104954172406 140.8457921977663 a86.0,86.0 0 0,1 -30.038265399797805,32.042727171017184" fill="none" id="id77" stroke="none" /><text fill="#e1ed5e" style="font-size:6.75px; font-family:Arial;" text-anchor="middle"><textPath startOffset="22.206326154141568" xlink:href="#id77">May</textPath></text><line stroke="#e1ed5e" stroke-width="0.3" x1="143.8653032363475" x2="146.44561519142675" y1="172.8068346515853" y2="177.08958963109032" /><path d="M 144.38136562736335 173.6633856474863 a86.0,86.0 0 0,1 -40.68145358897372,12.25698825130547" fill="none" id="id78" stroke="none" /><text fill="#e1ed5e" style="font-size:6.75px; font-family:Arial;" text-anchor="middle"><textPath startOffset="21.466115282336833" xlink:href="#id78">June</textPath></text><line stroke="#e1ed5e" stroke-width="0.3" x1="102.19456741930631" x2="102.32365962044197" y1="184.97166512339345" y2="189.96999836594603" /><path d="M 102.22038585953345 185.97133177190398 a86.0,86.0 0 0,1 -42.740103519485714,-10.115201625700543" fill="none" id="id79" stroke="none" /><text fill="#e1ed5e" style="font-size:6.75px; font-family:Arial;" text-anchor="middle"><textPath startOffset="22.20632615414155" xlink:href="#id79">July</textPath></text><line stroke="#e1ed5e" stroke-width="0.3" x1="58.666819895761336" x2="56.23545636021788" y1="174.27360380694188" y2="178.64263932499728" /><path d="M 58.180547188652646 175.14741091055294 a86.0,86.0 0 0,1 -31.652253787137756,-30.449443065178592" fill="none" id="id80" stroke="none" /><text fill="#e1ed5e" style="font-size:6.75px; font-family:Arial;" text-anchor="middle"><textPath startOffset="22.20632615414155" xlink:href="#id80">August</textPath></text><line stroke="#e1ed5e" stroke-width="0.3" x1="26.63291911575756" x2="22.317208475507996" y1="142.92168965132927" y2="145.44649492493687" /><path d="M 25.769776987707644 143.4266507060508 a86.0,86.0 0 0,1 -11.730757126820373,-40.83630448921669" fill="none" id="id81" stroke="none" /><text fill="#e1ed5e" style="font-size:6.75px; font-family:Arial;" text-anchor="middle"><textPath startOffset="21.46611528233685" xlink:href="#id81">September</textPath></text><line stroke="#e1ed5e" stroke-width="0.3" x1="15.007084014347285" x2="10.007500721073583" y1="101.09737516637583" y2="101.16192664675087" /><path d="M 14.007167355692545 101.11028546245083 a86.0,86.0 0 0,1 10.666146001902534,-42.60595125391555" fill="none" id="id82" stroke="none" /><text fill="#e1ed5e" style="font-size:6.75px; font-family:Arial;" text-anchor="middle"><textPath startOffset="22.20632615414155" xlink:href="#id82">October</textPath></text><line stroke="#e1ed5e" stroke-width="0.3" x1="26.266209847984243" x2="21.928928074336255" y1="57.711370442889674" y2="55.22380399835377" /><path d="M 25.398753493254645 57.213857153982495 a86.0,86.0 0 0,1 29.58750427330803,-30.492523968695096" fill="none" id="id83" stroke="none" /><text fill="#e1ed5e" style="font-size:6.75px; font-family:Arial;" text-anchor="middle"><textPath startOffset="21.46611528233685" xlink:href="#id83">November</textPath></text><line stroke="#e1ed5e" stroke-width="0.3" x1="56.762969772571076" x2="54.21961505331055" y1="26.818313649435495" y2="22.513508569990535" /><path d="M 56.25429882871897 25.957352633546506 a86.0,86.0 0 0,1 42.265352541879196,-11.944610805530505" fill="none" id="id84" stroke="none" /><text fill="#e1ed5e" style="font-size:6.75px; font-family:Arial;" text-anchor="middle"><textPath startOffset="22.20632615414155" xlink:href="#id84">December</textPath></text></svg>