<?xml version="1.0" encoding="utf-8" ?>
<svg baseProfile="full" height="200mm" version="1.1" viewBox="0,0,200,200" width="200mm" xmlns="http://www.w3.org/2000/svg" xmlns:ev="http://www.w3.org/2001/xml-events" xmlns:xlink="http://www.w3.org/1999/xlink"><defs /><rect fill="#1a1a1a" height="200" width="200" x="0" y="0" /><text alignment-baseline="middle" fill="#e1ed5e" style="dominant-baseline: central; font-size:9.0px; font-family:Arial;" text-anchor="middle" x="100.0" y="100.0">2024</text><line stroke="#e1ed5e" stroke-width="0.3" x1="100.0" x2="100.0" y1="15.0" y2="10.0" /><path d="M 100.0 14.0 a86.0,86.0 0 0,1 42.35913384403234,11.155469271406648" fill="none" id="id49" stroke="none" /><text fill="#e1ed5e" style="font-size:6.75px; font-family:Arial;" text-anchor="middle"><textPath startOffset="22.145653131862478" xlink:href="#id49">January</textPath></text><path d="M 100.0 79.0 l 0.0 -15.900656087975413 a36.90065608797541,36.90065608797541 0 0,0 0.633448830571236,0.005437396360575939 l -0.2729559057223812 15.898313089809273" fill="#ff7b0b" stroke="none" /><path d="M 100.72087961077811 79.0123766808444 l 1.3582390591774922 -39.54364823914505 a60.56696765489004,60.56696765489004 0 0,0 1.038793405133989,0.04461025846937731 l -2.0368582249123177 39.51450541224984" fill="#49ff2c" stroke="none" /><path d="M 101.08105385017728 79.02784411241856 l 1.429372390428317 -27.72944251440554 a48.76625807685004,48.76625807685004 0 0,0 0.8356577806819244,0.050271096964497865 l -1.9051745232427038 27.700819439616353" fill="#daff1b" stroke="none" /><path d="M 102.15924093988457 79.11130261209362 l 2.5708442701344816 -24.87058623163335 a46.0031058024077,46.0031058024077 0 0,0 0.7848219630410835,0.08794093794071492 l -2.9974021347763617 24.822789533185666" fill="#fffe18" stroke="none" /><path d="M 102.51750503828377 79.15144685158666 l 2.387307249673081 -19.77032868634579 a40.91394316227926,40.91394316227926 0 0,0 0.6965543844959253,0.0901829105775994 l -2.726339456059798 19.726434179567793" fill="#ffb610" stroke="none" /><path d="M 103.23170211078529 79.25015418208739 l 6.129695127942846 -39.35703986798376 a60.83151703778792,60.83151703778792 0 0,0 1.0304351968453143,0.16955771951431683 l -6.804407827841231 39.24601614997378" fill="#46ff2c" stroke="none" /><path d="M 103.94208987418118 79.37332000966035 l 7.499307292203876 -39.23954465843839 a60.94973685601049,60.94973685601049 0 0,0 1.0259974373601464,0.20522822220611772 l -8.171801215094979 39.105027039569414" fill="#45ff2d" stroke="none" /><path d="M 104.29559338865022 79.4440306129975 l 5.133591811616589 -24.56609519974056 a46.09674875857455,46.09674875857455 0 0,0 0.773190827830249,0.16851334223676562 l -5.554545056065972 24.474350399370078" fill="#feff18" stroke="none" /><path d="M 104.9986988182912 79.60360301121754 l 10.389666552965293 -42.39338501850308 a64.64795830744947,64.64795830744947 0 0,0 1.075602592209916,0.27341397282854313 l -11.115874438400603 42.20878581383927" fill="#32ff47" stroke="none" /><path d="M 106.38641147887787 79.99465700312896 l 6.017867708671878 -18.850884885815145 a40.78814273087117,40.78814273087117 0 0,0 0.6651910218524713,0.21866150125544329 l -6.3405814681720924 18.74480246315768" fill="#ffb510" stroke="none" /><path d="M 107.06938296918511 80.22567764915836 l 13.299980755545194 -37.20241326103412 a60.508341404602646,60.508341404602646 0 0,0 0.9750799593682588,0.3580628673447796 l -13.936649866567578 36.968619544680614" fill="#4aff2c" stroke="none" /><path d="M 108.07796709384702 80.6158196554323 l 9.35048343741399 -22.43775632581928 a45.308114888863685,45.308114888863685 0 0,0 0.7153610336807433,0.3053450872818341 l -9.734279546265162 22.273936588878044" fill="#fff517" stroke="none" /><path d="M 108.73861861582097 80.90454125486305 l 13.761439029782633 -30.07122782440419 a54.07046941060325,54.07046941060325 0 0,0 0.8406961194679767,0.39348823314659903 l -14.275623863122116 29.830563359687055" fill="#96ff23" stroke="none" /><path d="M 109.3889696526874 81.21577127319529 l 22.55356694044924 -45.12224191644271 a71.44482230420982,71.44482230420982 0 0,0 1.0923327424472533,0.5577528814725028 l -23.324826904610074 44.72843108329737" fill="#3bff9f" stroke="none" /><path d="M 109.71004243097381 81.37971332152246 l 9.222749251755694 -17.68583775531273 a40.94612646274974,40.94612646274974 0 0,0 0.6204531138411851,0.33035633595981234 l -9.524991181383438 17.524910951630343" fill="#ffb711" stroke="none" /><path d="M 110.34350942703115 81.72400993836675 l 9.833958552777222 -17.37566249104832 a40.965479904589415,40.965479904589415 0 0,0 0.6090348278060165,0.351626421779661 l -10.130785848443635 17.20428917199249" fill="#ffb711" stroke="none" /><line stroke="#e1ed5e" stroke-width="0.3" x1="143.13028292997686" x2="145.6673583964461" y1="26.7553504044142" y2="22.446841604673864" /><path d="M 143.63769802327073 25.89364864446614 a86.0,86.0 0 0,1 29.32050498858742,28.57503671076993" fill="none" id="id50" stroke="none" /><text fill="#e1ed5e" style="font-size:6.75px; font-family:Arial;" text-anchor="middle"><textPath startOffset="20.669276256404974" xlink:href="#id50">February</textPath></text><path d="M 110.65571695917076 81.90426304109057 l 10.076115760521265 -17.111447410677474 a40.85773756770408,40.85773756770408 0 0,0 0.60132325349286,0.361077336302067 l -10.36837177057156 16.93595607383949" fill="#ffb610" stroke="none" /><path d="M 111.27062007382361 82.28071324371311 l 21.246558132069676 -33.40311834311894 a60.58768176470839,60.58768176470839 0 0,0 0.8727925829554479,0.5657336074908887 l -21.816836347282134 33.03347089392416" fill="#49ff2c" stroke="none" /><path d="M 111.8722381534696 82.67804972795209 l 22.407440675408537 -32.69312559989864 a60.63500799940251,60.63500799940251 0 0,0 0.8535240957781746,0.5958261068749677 l -22.965359862360472 32.303654677218546" fill="#48ff2c" stroke="none" /><path d="M 113.59037401385872 83.9905735841838 l 13.610741387690148 -16.03341913097658 a42.0314718969488,42.0314718969488 0 0,0 0.5460499061551567,0.4716649035076291 l -13.883970773608164 15.797410095004228" fill="#ffc712" stroke="none" /><path d="M 114.13192950727249 84.46653392183569 l 13.3110170410697 -14.631139475109777 a40.780126819809915,40.780126819809915 0 0,0 0.5137717846934582,0.4755394937448875 l -13.560218597077125 14.400482235232515" fill="#ffb410" stroke="none" /><path d="M 114.91283532996326 85.21462403516908 l 14.14361058363673 -14.022725749479998 a40.916790850603675,40.916790850603675 0 0,0 0.4902478396458851,0.5030374719541001 l -14.382245224433428 13.777865585458155" fill="#ffb610" stroke="none" /><path d="M 115.41159269507618 85.73525988315684 l 22.531082901923856 -20.854433964484127 a51.70109302146089,51.70109302146089 0 0,0 0.5972763826663987,0.6565113719724333 l -22.88575698543213 20.46458501695402" fill="#b4ff20" stroke="none" /><path d="M 115.6541949942343 86.00192230759917 l 15.118238097847616 -13.518821730777626 a41.28101733571954,41.28101733571954 0 0,0 0.4678297806873756,0.5323044120938962 l -15.348078942493581 13.257305040872433" fill="#ffbc11" stroke="none" /><path d="M 116.1254893667686 86.54754324733833 l 16.252194873749623 -13.558158993022762 a42.16500681536431,42.16500681536431 0 0,0 0.4589022106893552,0.5597860805852842 l -16.482543903677605 13.277170630738983" fill="#ffc912" stroke="none" /><path d="M 116.35404254752997 86.82634096563983 l 46.58890726256807 -37.52872583501962 a80.82417189330945,80.82417189330945 0 0,0 0.8610990699109659,1.0879705449452572 l -47.2262727631206 36.72343534615968" fill="#49f3ff" stroke="none" /><path d="M 116.7966241395341 87.39550010848427 l 15.994161940499765 -12.002317297165295 a40.9967206481654,40.9967206481654 0 0,0 0.41757694049184046,0.5665233177506684 l -16.197840900575432 11.725987670145752" fill="#ffb811" stroke="none" /><path d="M 117.01052211995028 87.68569379921539 l 16.089377535839727 -11.647468558533276 a40.862819369686804,40.862819369686804 0 0,0 0.4064583808488116,0.5717346148414274 l -16.2869510152185 11.369556716982347" fill="#ffb610" stroke="none" /><path d="M 117.21940702142032 87.97951657250589 l 16.488582208324956 -11.510310949238255 a41.108719536281875,41.108719536281875 0 0,0 0.39897042608926664,0.5821097750398821 l -16.68374237122955 11.225566439128324" fill="#ffb911" stroke="none" /><path d="M 117.62189284568427 88.57770195909679 l 35.476374785287256 -22.995357522422836 a63.27717629513842,63.27717629513842 0 0,0 0.5830006731894714,0.9165738920918096 l -35.865893150102615 22.382969955652356" fill="#30ff35" stroke="none" /><line stroke="#e1ed5e" stroke-width="0.3" x1="172.87174338648825" x2="177.1583165268699" y1="56.24261187166439" y2="53.66864786411523" /><path d="M 173.72905801456457 55.72781907015455 a86.0,86.0 0 0,1 12.242430191666344,42.057860355516425" fill="none" id="id51" stroke="none" /><text fill="#e1ed5e" style="font-size:6.75px; font-family:Arial;" text-anchor="middle"><textPath startOffset="22.145653131862474" xlink:href="#id51">March</textPath></text><path d="M 118.18653347947321 89.5 l 17.318826198820776 -9.999028967937521 a40.99805793587504,40.99805793587504 0 0,0 0.3466612946824763,0.6125172912602342 l -17.487920858524628 9.70025490657817" fill="#ffb811" stroke="none" /><path d="M 118.36410011445183 89.81374322990088 l 34.609929191151366 -19.197544303223278 a60.577681916589455,60.577681916589455 0 0,0 0.49660617387921524,0.9136994260186971 l -34.934380714645926 18.60059004372998" fill="#49ff2c" stroke="none" /><path d="M 118.70294669586156 90.45014215332178 l 11.489926547145647 -5.866838363940527 a33.90109314931904,33.90109314931904 0 0,0 0.2601991017154396,0.5205725038990813 l -11.588945562072823 5.668734003877695" fill="#ff4c07" stroke="none" /><path d="M 118.8641267826498 90.77261029715802 l 35.72307392876482 -17.4739455646218 a60.76778576329543,60.76778576329543 0 0,0 0.45032037679129194,0.9409963908290412 l -36.01777356351602 16.858136671727657" fill="#47ff2c" stroke="none" /><path d="M 119.16976305983485 91.42560881287824 l 39.67433422897773 -17.74582506346328 a64.46224917897916,64.46224917897916 0 0,0 0.4431506985916173,1.0140155224465444 l -39.97311880958631 17.062147471240888" fill="#32ff45" stroke="none" /><path d="M 119.4528033332814 92.08871423366111 l 18.964851490694276 -7.712839999896898 a41.47323845726656,41.47323845726656 0 0,0 0.2625479654264239,0.661792381899489 l -19.094458131086824 7.386146600783844" fill="#ffbf11" stroke="none" /><path d="M 119.58574465831526 92.42381321644754 l 25.90098113010074 -10.019055917570105 a48.771249611445846,48.771249611445846 0 0,0 0.29534316488584744,0.7834328337385259 l -26.069154978801027 9.57295480363742" fill="#daff1c" stroke="none" /><path d="M 119.83427380445688 93.10060997987247 l 37.98738204773149 -13.213983389298427 a61.22002675102252,61.22002675102252 0 0,0 0.336752646736805,0.9955493630533916 l -38.208620116040656 12.559932351770874" fill="#42ff2d" stroke="none" /><path d="M 120.05942366710727 93.78553927170692 l 26.911463107540577 -8.337240062233368 a49.173328139284976,49.173328139284976 0 0,0 0.24287802629884866,0.8084619577518687 l -27.050617453843053 7.874040500890775" fill="#d5ff1c" stroke="none" /><path d="M 120.26092885502905 94.47779374421319 l 30.93336617625094 -8.431026505906566 a53.061742793200196,53.061742793200196 0 0,0 0.2319821978690272,0.8808741909364639 l -31.073537854924695 7.898771810597303" fill="#a3ff22" stroke="none" /><path d="M 120.35273937422433 94.82641323984039 l 20.907035355568556 -5.314486631059741 a42.571923778622676,42.571923778622676 0 0,0 0.17396200382873953,0.7098243403006129 l -20.995184885913588 4.954806466151033" fill="#ffce13" stroke="none" /><path d="M 120.51834098615036 95.52812308129327 l 42.49441398574781 -9.261459744971681 a64.49195163015624,64.49195163015624 0 0,0 0.22646591174342523,1.0837213692752181 l -42.6471376083156 8.53062192441106" fill="#32ff45" stroke="none" /><path d="M 120.65975698304385 96.23510406497455 l 19.850901066383646 -3.617495442601721 a41.17782313394078,41.17782313394078 0 0,0 0.12075922633220183,0.6965071269685409 l -19.910075110208084 3.2761952827125875" fill="#ffba11" stroke="none" /><path d="M 120.7213421655516 96.59031103205396 l 31.328392490117125 -5.155075062397265 a52.74969251683829,52.74969251683829 0 0,0 0.13935591576188125,0.8947649463800198 l -31.41226989801727 4.616521934085804" fill="#a7ff21" stroke="none" /><path d="M 120.9064616781168 98.02013634271609 l 19.777874819271275 -1.8729853083639105 a40.8663636917306,40.8663636917306 0 0,0 0.060144345487046294,0.6989684623029081 l -19.807112787456063 1.5331957986853404" fill="#ffb610" stroke="none" /><path d="M 120.93736805541906 98.37931529534042 l 23.825987070541192 -1.844282085333485 a44.897260016493064,44.897260016493064 0 0,0 0.05288477939762372,0.7689330858278295 l -23.854135811103884 1.4350055753513211" fill="#ffef16" stroke="none" /><path d="M 120.98066250479742 99.09900007780936 l 19.82571653502652 -0.8514015728220252 a40.84398953752566,40.84398953752566 0 0,0 0.024069388324968573,0.7007539790751963 l -19.837410610348336 0.510941329182709" fill="#ffb510" stroke="none" /><line stroke="#e1ed5e" stroke-width="0.3" x1="184.99686870605535" x2="189.99668451229388" y1="99.2704041080226" y2="99.22748670261217" /><path d="M 185.99683186730306 99.26182062694052 a86.0,86.0 0 0,1 -10.086455211305974,41.156179273409016" fill="none" id="id52" stroke="none" /><text fill="#e1ed5e" style="font-size:6.75px; font-family:Arial;" text-anchor="middle"><textPath startOffset="21.40746469413373" xlink:href="#id52">April</textPath></text><path d="M 120.99922638620191 99.81974689727618 l 19.803691481745044 -0.1699908734407254 a40.804421051906424,40.804421051906424 0 0,0 0.0,0.7004879523291021 l -19.803691481745044 -0.169990873440723" fill="#ffb510" stroke="none" /><path d="M 120.98066250479742 100.90099992219065 l 11.835012052666215 0.5082463404641927 a32.84592016811484,32.84592016811484 0 0,0 -0.02902705100745308,0.5631170349055933 l -11.82454341220219 -0.7113351687465167" fill="#ff3b05" stroke="none" /><path d="M 120.86939407059847 102.33845913500097 l 19.688067270971523 2.206089003090875 a40.81128015944095,40.81128015944095 0 0,0 -0.08398944693159138,0.6955531058054361 l -19.64729573778027 -2.54373578581972" fill="#ffb510" stroke="none" /><path d="M 120.77682067341334 103.0534771498775 l 24.438960066007397 3.591685527892769 a45.70147716310056,45.70147716310056 0 0,0 -0.1207357028612315,0.7752098223183973 l -24.373702871007897 -4.010683532142617" fill="#fffa17" stroke="none" /><path d="M 120.7213421655516 103.40968896794604 l 20.204063089211505 3.324570892782047 a41.47576462391508,41.47576462391508 0 0,0 -0.12163297781014008,0.7015466933028783 l -20.14401529390913 -3.6709106190055136" fill="#ffbf11" stroke="none" /><path d="M 120.592083275326 104.11899336999214 l 27.261041678720996 5.452971825744199 a48.801066438921424,48.801066438921424 0 0,0 -0.17136677873420691,0.8200520717153864 l -27.163417189162423 -5.920140348744995" fill="#daff1c" stroke="none" /><path d="M 120.51834098615036 104.47187691870673 l 11.90491313479647 2.594620408279568 a33.18437572508786,33.18437572508786 0 0,0 -0.1260834642310251,0.5555470073623062 l -11.85861880900778 -2.7986017495808913" fill="#ff4106" stroke="none" /><path d="M 120.43855184770803 104.8234425847677 l 23.102691543969872 5.452172299009204 a44.73732376140791,44.73732376140791 0 0,0 -0.18281049566703347,0.7459292065561259 l -23.005693521786544 -5.84795733017343" fill="#ffed16" stroke="none" /><path d="M 120.26092885502905 105.52220625578681 l 27.592044308166958 7.520334372561902 a49.59853734335,49.59853734335 0 0,0 -0.23094379868228726,0.8195380687687228 l -27.45888201741009 -7.992880365233634" fill="#cfff1d" stroke="none" /><path d="M 120.16314734710363 105.8691983318838 l 11.747049268124893 3.419394838620728 a33.23459960808443,33.23459960808443 0 0,0 -0.16415309402649736,0.5464122621138111 l -11.686619854094767 -3.6205447043252628" fill="#ff4106" stroke="none" /><path d="M 119.94978838288452 106.5578916946017 l 15.620159543603497 5.134656697773938 a37.44244761498793,37.44244761498793 0 0,0 -0.20595945483543518,0.6088825316241591 l -15.529714667195698 -5.402040903872257" fill="#ff830c" stroke="none" /><path d="M 119.83427380445688 106.89939002012753 l 26.242991895240586 9.128674846649796 a48.7853797539195,48.7853797539195 0 0,0 -0.2819326376798726,0.7886157650541711 l -26.08241908751677 -9.577825568084888" fill="#daff1c" stroke="none" /><path d="M 119.71291397450082 107.23885506374661 l 18.725558206493744 6.876284349431983 a40.948178277703164,40.948178277703164 0 0,0 -0.24796913479142324,0.6577675905397043 l -18.60475838788788 -7.1967202201658464" fill="#ffb711" stroke="none" /><path d="M 119.4528033332814 107.91128576633889 l 18.38618038866458 7.477499500409776 a40.84854221506311,40.84854221506311 0 0,0 -0.2697446235042665,0.6472888993280276 l -18.255109920623827 -7.79202090917908" fill="#ffb510" stroke="none" /><path d="M 119.31412917781788 108.2440532568976 l 30.367941079227794 12.962268257323924 a54.01866508153045,54.01866508153045 0 0,0 -0.3713554750688687,0.8497340007859343 l -30.14095172214196 -13.481664327885703" fill="#97ff23" stroke="none" /><path d="M 118.8641267826498 109.22738970284198 l 35.478320406384505 17.354224352070172 a60.49532025088624,60.49532025088624 0 0,0 -0.4643162365867567,0.9289435062896688 l -35.175184256586014 -17.960699714523585" fill="#4aff2c" stroke="none" /><path d="M 118.5362547648365 109.86951160357373 l 7.23226395758163 3.850773198524795 a29.1935399052309,29.1935399052309 0 0,0 -0.23932398361312743,0.44032917422610357 l -7.165094624353164 -3.974357206225502" fill="#ff0000" stroke="none" /><line stroke="#e1ed5e" stroke-width="0.3" x1="174.33088141563837" x2="178.70328620479359" y1="141.23008692659167" y2="143.65538615756765" /><path d="M 175.20536237346943 141.71514677278685 a86.0,86.0 0 0,1 -30.301960400862466,31.631185727798858" fill="none" id="id53" stroke="none" /><text fill="#e1ed5e" style="font-size:6.75px; font-family:Arial;" text-anchor="middle"><textPath startOffset="22.145653131862474" xlink:href="#id53">May</textPath></text><path d="M 118.18653347947321 110.5 l 14.897100305814705 8.600844871706972 a38.20168974341395,38.20168974341395 0 0,0 -0.3327663510255481,0.5651100137144685 l -14.74726024465939 -8.85530605371499" fill="#ff8e0d" stroke="none" /><path d="M 117.81537515405839 111.11811171558189 l 10.755141781287497 6.712003918370302 a33.6776997651709,33.6776997651709 0 0,0 -0.3102875757759757,0.48782360651629947 l -10.638336513885632 -6.895641199565273" fill="#ff4806" stroke="none" /><path d="M 117.62189284568427 111.42229804090321 l 11.463781305218586 7.4306845405662525 a34.661381868438106,34.661381868438106 0 0,0 -0.3279223566902329,0.4965162433618959 l -11.334534509607627 -7.626380662267209" fill="#ff5808" stroke="none" /><path d="M 117.423217284605 111.72311816256416 l 16.708527213613976 11.242242787196933 a41.138592416908395,41.138592416908395 0 0,0 -0.39926034988273174,0.5825327825190211 l -16.513077126915924 -11.527410304785997" fill="#ffba11" stroke="none" /><path d="M 116.79662413953412 112.60449989151573 l 15.851546426433943 11.895295956648413 a40.81841542620516,40.81841542620516 0 0,0 -0.4253823573121694,0.5568391606787496 l -15.64501209176747 -12.165656030568039" fill="#ffb510" stroke="none" /><path d="M 116.57777611688842 112.89097897827486 l 17.097324130322633 13.294982655979368 a42.658140645958156,42.658140645958156 0 0,0 -0.4544789556625951,0.5742193138235617 l -16.866578744018476 -13.586521913717613" fill="#ffd013" stroke="none" /><path d="M 116.1254893667686 113.45245675266167 l 22.780963811140026 19.004690244307522 a50.667331586217,50.667331586217 0 0,0 -0.5629030434120058,0.6630983697397727 l -22.451366204220907 -19.392955396496852" fill="#c1ff1e" stroke="none" /><path d="M 115.89218393027572 113.72728997021213 l 18.42048030812078 15.911172164225592 a45.34090167642712,45.34090167642712 0 0,0 -0.5138396642443465,0.5846552136638962 l -18.144629579917847 -16.225039655700783" fill="#fff517" stroke="none" /><path d="M 115.41159269507618 114.26474011684316 l 18.119496439759594 16.771135396266565 a45.68981842198046,45.68981842198046 0 0,0 -0.5377129562210491,0.5710325256397148 l -17.82892764980228 -17.079709381850776" fill="#fffa17" stroke="none" /><path d="M 115.16444852881244 114.52719865689866 l 27.949938067277664 26.775408415274175 a59.70557497014341,59.70557497014341 0 0,0 -0.7153671765413374,0.7340297435399766 l -27.486184089585517 -27.251260850881888" fill="#53ff2b" stroke="none" /><path d="M 114.65682725009322 115.03919595460226 l 9.912745461878163 10.171350109098944 a35.202777391547514,35.202777391547514 0 0,0 -0.4363929299513504,0.4180545552859486 l -9.736680046061501 -10.340016794690472" fill="#ff6008" stroke="none" /><path d="M 114.39649973595853 115.28858382429668 l 24.389637040546866 25.90094934029082 a56.57686849201215,56.57686849201215 0 0,0 -0.7127883350129169,0.6597462415759949 l -23.941418934219982 -26.315813327999194" fill="#78ff26" stroke="none" /><path d="M 113.59037401385872 116.0094264158162 l 20.680027256472158 24.361020108935307 a52.95501256573657,52.95501256573657 0 0,0 -0.6980622196654876,0.5823483310881273 l -20.258790702644774 -24.712430623935305" fill="#a4ff21" stroke="none" /><path d="M 112.7482090630111 116.68781488649013 l 20.004622647230036 26.186693202238093 a53.95341906579971,53.95341906579971 0 0,0 -0.7408241488413437,0.5559282523757136 l -19.552145509477928 -26.52624048187782" fill="#98ff23" stroke="none" /><path d="M 112.45986205192187 116.90419585922612 l 17.870077936904668 24.244192769251214 a51.11844233196099,51.11844233196099 0 0,0 -0.71083599433504,0.5145904417898285 l -17.451260932195662 -24.547383982414118" fill="#bbff1f" stroke="none" /><path d="M 111.5731344415666 117.5232005979908 l 15.560975814235201 23.561300706398377 a49.23612684609101,49.23612684609101 0 0,0 -0.7092683706170902,0.4597391886966535 l -15.1542218113611 -23.824953736798925" fill="#d4ff1c" stroke="none" /><path d="M 111.27062007382361 117.71928675628689 l 21.20876907803327 33.34370767357866 a60.51727125228169,60.51727125228169 0 0,0 -0.8813501131767005,0.5500276549947932 l -20.633254836066854 -33.702871125415" fill="#4aff2c" stroke="none" /><line stroke="#e1ed5e" stroke-width="0.3" x1="143.1302829299769" x2="145.66735839644613" y1="173.24464959558577" y2="177.55315839532614" /><path d="M 143.63769802327073 174.10635135553383 a86.0,86.0 0 0,1 -40.68552437913181,11.842963189579606" fill="none" id="id54" stroke="none" /><text fill="#e1ed5e" style="font-size:6.75px; font-family:Arial;" text-anchor="middle"><textPath startOffset="21.407464694133747" xlink:href="#id54">June</textPath></text><path d="M 110.34350942703117 118.27599006163325 l 22.823640961886195 40.32718666061512 a67.33789562245121,67.33789562245121 0 0,0 -1.0108887120150492,0.5607229280173961 l -22.12800806171505 -40.71304250406566" fill="#36ff6b" stroke="none" /><path d="M 109.71004243097381 118.62028667847754 l 9.13248381812519 17.5127418843827 a40.75090856131258,40.75090856131258 0 0,0 -0.6230479728322091,0.3181327343206923 l -8.830508623579398 -17.666932570376225" fill="#ffb410" stroke="none" /><path d="M 109.3889696526874 118.78422872680471 l 9.373899338977123 18.75407800418124 a41.96629272437524,41.96629272437524 0 0,0 -0.6471597035836528,0.3165582406090694 l -9.050579386131401 -18.91222999488753" fill="#ffc612" stroke="none" /><path d="M 109.06512990194946 118.94263497670748 l 14.471219479717274 30.239282970799216 a54.52358017602261,54.52358017602261 0 0,0 -0.8477411565525329,0.3967856662269489 l -13.949989609293235 -30.4832448685967" fill="#91ff24" stroke="none" /><path d="M 108.4095320186766 119.2426549942271 l 5.451339806983638 12.473732299147667 a34.61290208449338,34.61290208449338 0 0,0 -0.5464963941799178,0.23326681399107974 l -5.236408337633289 -12.56547376279815" fill="#ff5708" stroke="none" /><path d="M 108.07796709384702 119.3841803445677 l 15.189813385108089 36.45002246685798 a60.48841055941427,60.48841055941427 0 0,0 -0.9618968979046393,0.3911950944396294 l -14.561862026013008 -36.7054048178769" fill="#4aff2c" stroke="none" /><path d="M 107.74402155503746 119.51999308798841 l 16.577947566803214 41.7872573852188 a65.95556945814612,65.95556945814612 0 0,0 -1.0560043759458735,0.40848517817360563 l -15.85817092836381 -42.06568245153045" fill="#34ff59" stroke="none" /><path d="M 107.06938296918513 119.77432235084164 l 9.346036036616885 26.142526171834724 a48.76292607494399,48.76292607494399 0 0,0 -0.7906426127006537,0.2750265427075389 l -8.89588765187121 -26.299111147110853" fill="#daff1b" stroke="none" /><path d="M 106.72888874123015 119.89276391827305 l 4.950897343226604 14.63644827844295 a36.45111655223349,36.45111655223349 0 0,0 -0.5944608860234423,0.19541110072943108 l -4.698913719555427 -14.7192803005744" fill="#ff740a" stroke="none" /><path d="M 106.0420521117495 120.11202640906438 l 5.740144555241321 19.107074343559862 a40.950677920446466,40.950677920446466 0 0,0 -0.6749841499213404,0.19647804871769617 l -5.411300392938374 -19.202796086580076" fill="#ffb711" stroke="none" /><path d="M 105.69591212413111 120.21278271476187 l 6.566299353200516 23.30147993400967 a45.20899118738525,45.20899118738525 0 0,0 -0.7487870466643834,0.2040852392764742 l -6.165330905601437 -23.410765667430287" fill="#fff317" stroke="none" /><path d="M 105.3480935250658 120.30758222061773 l 10.355816817022927 39.32272322607919 a61.66349104371835,61.66349104371835 0 0,0 -1.025947493900872,0.26079184101313096 l -9.679264029896657 -39.49470029892759" fill="#3dff2e" stroke="none" /><path d="M 104.64783097203109 120.47920084513623 l 8.753144956869944 38.56797174360156 a60.54877989333206,60.54877989333206 0 0,0 -1.0155979002993878,0.22134483543778619 l -8.08978463995142 -38.712548037173065" fill="#49ff2c" stroke="none" /><path d="M 104.29559338865022 120.5559693870025 l 4.849763394907482 23.207873478744034 a44.70918801629392,44.70918801629392 0 0,0 -0.7526121472770022,0.15054350758789078 l -4.450654762099521 -23.287706382994788" fill="#ffed16" stroke="none" /><path d="M 103.94208987418118 120.62667999033965 l 2.8251603858796828 14.782432938069157 a36.04997856392014,36.04997856392014 0 0,0 -0.6088416787072102,0.11095123544387411 l -2.5709839736214155 -14.828752347444395" fill="#ff6d0a" stroke="none" /><path d="M 103.58742460773223 120.69131181640829 l 4.415650026214136 25.468295937871787 a46.84825067839256,46.84825067839256 0 0,0 -0.7935703194720668,0.13058169408020126 l -3.9778022036889964 -25.54034363044766" fill="#f4ff19" stroke="none" /><path d="M 103.2317021107853 120.74984581791261 l 3.0741751483010624 19.738409716545632 a40.976370315466596,40.976370315466596 0 0,0 -0.6959639311833057,0.10228273104972828 l -2.7348861115100713 -19.788273520894244" fill="#ffb711" stroke="none" /><path d="M 102.875027216393 120.80226474461374 l 3.23429376932448 23.40173855319283 a44.62418302287473,44.62418302287473 0 0,0 -0.7597207195563266,0.0983610572852532 l -2.832095227877378 -23.453811206678477" fill="#ffeb16" stroke="none" /><path d="M 102.15924093988457 120.88869738790638 l 3.590760631564905 34.73735183493546 a55.9224451380096,55.9224451380096 0 0,0 -0.9557423798385322,0.09050979705231531 l -2.993918688341358 -34.79387338749296" fill="#7fff26" stroke="none" /><path d="M 101.80034050326958 120.92268563240118 l 2.8022525084811054 32.56642184691133 a53.68676262697596,53.68676262697596 0 0,0 -0.9188898599179653,0.07112788662328433 l -2.2427936537879045 -32.60972750052967" fill="#9bff22" stroke="none" /><path d="M 101.44090949804482 120.95050786540614 l 1.574671071865286 22.89537179212563 a43.94945834838442,43.94945834838442 0 0,0 -0.753117181304053,0.04530565947231488 l -1.181409538428768 -22.919029429422636" fill="#ffe215" stroke="none" /><path d="M 101.08105385017728 120.97215588758144 l 0.7568774120779844 14.683219592886742 a35.702714070192854,35.702714070192854 0 0,0 -0.612342756415132,0.026296632709182453 l -0.5047088950620229 -14.694048794021755" fill="#ff6809" stroke="none" /><path d="M 100.72087961077811 120.9876233191556 l 1.0560790382210532 30.746588914500364 a51.764720587261095,51.764720587261095 0 0,0 -0.8883483857379507,0.022880703227947465 l -0.5281173384123585 -30.760187335078356" fill="#b3ff20" stroke="none" /><line stroke="#e1ed5e" stroke-width="0.3" x1="101.45913802915013" x2="101.54496967792366" y1="184.9874750549273" y2="189.98673829345242" /><path d="M 101.47630435890484 185.9873277026323 a86.0,86.0 0 0,1 -42.54439059252881,-10.42667462771756" fill="none" id="id55" stroke="none" /><text fill="#e1ed5e" style="font-size:6.75px; font-family:Arial;" text-anchor="middle"><textPath startOffset="22.145653131862474" xlink:href="#id55">July</textPath></text><path d="M 100.36049292484886 120.99690560180557 l 0.5628805224076863 32.784968523430756 a53.78980017573836,53.78980017573836 0 0,0 -0.9233734472565346,0.00792605050203902 l -4.01559238298993e-15 -32.78980017573836" fill="#9aff23" stroke="none" /><path d="M 99.63950707515114 120.99690560180557 l -0.5457219706308502 31.785568903943595 a52.79025327072081,52.79025327072081 0 0,0 -0.9059478297905307,-0.023334002477210167 l 1.0912831144921247 -31.771517184116338" fill="#a6ff21" stroke="none" /><path d="M 99.27912038922189 120.98762331915562 l -1.1159369155156886 32.48928570126093 a53.508445065514415,53.508445065514415 0 0,0 -0.9177315953763552,-0.03941134346148352 l 1.6734942714928827 -32.46534178937362" fill="#9dff22" stroke="none" /><path d="M 98.91894614982273 120.97215588758144 l -1.3641982294736956 26.465081203303203 a47.50021811055018,47.50021811055018 0 0,0 -0.8139629410486734,-0.04896598928519853 l 1.8183055226548155 -26.437763236193312" fill="#ebff1a" stroke="none" /><path d="M 98.55909050195518 120.95050786540614 l -3.1306151631922057 45.51845739723054 a66.62598727834282,66.62598727834282 0 0,0 -1.1403545515022424,-0.08827065439250692 l 3.9115387094696845 -45.45800897584298" fill="#35ff61" stroke="none" /><path d="M 98.19965949673042 120.92268563240118 l -2.1163749673993846 24.595485155593412 a45.686371402894565,45.686371402894565 0 0,0 -0.7808027925644386,-0.07394283625345544 l 2.5382773233488387 -24.555530563834772" fill="#fffa17" stroke="none" /><path d="M 97.84075906011543 120.88869738790638 l -2.7556148167998527 26.658073660293017 a47.80011761720786,47.80011761720786 0 0,0 -0.8154793353097488,-0.09137616044857876 l 3.2128300537104004 -26.606841739337465" fill="#e7ff1a" stroke="none" /><path d="M 97.12497278360702 120.80226474461374 l -4.326377773262515 31.303514384650537 a52.60106892918344,52.60106892918344 0 0,0 -0.8934038431066377,-0.13129959888568096 l 4.8631067219768385 -31.224633712465977" fill="#a9ff21" stroke="none" /><path d="M 96.76829788921471 120.74984581791261 l -3.484881118800761 22.37543666773773 a43.64518850626146,43.64518850626146 0 0,0 -0.7393131159603362,-0.12165369188963553 l 3.8684717378141604 -22.312316977352427" fill="#ffde14" stroke="none" /><path d="M 96.41257539226777 120.69131181640829 l -5.4726572608203545 31.564832778338634 a53.03574013221625,53.03574013221625 0 0,0 -0.8957111859671126,-0.1632284157926988 l 6.013703180338524 -31.466236188614566" fill="#a3ff21" stroke="none" /><path d="M 96.05791012581884 120.62667999033965 l -8.80909290474977 46.092896445996764 a67.92712670285593,67.92712670285593 0 0,0 -1.1434513341544512,-0.2287222910531998 l 9.599040724435179 -45.9348847582807" fill="#36ff72" stroke="none" /><path d="M 95.70440661134978 120.55596938700252 l -4.262865819975989 20.399356123383136 a41.84000372475323,41.84000372475323 0 0,0 -0.701791514316829,-0.1529521941728134 l 4.612419750911955 -20.323172471076603" fill="#ffc412" stroke="none" /><path d="M 95.35216902796893 120.47920084513623 l -7.2758164645425305 32.05858982100679 a53.87386023175964,53.87386023175964 0 0,0 -0.9001240623445624,-0.21242682780256397 l 7.825072680626981 -31.928966849557998" fill="#99ff23" stroke="none" /><path d="M 94.6519064749342 120.30758222061772 l -8.023403690993536 30.466170679401873 a52.50496092133896,52.50496092133896 0 0,0 -0.8696286643637475,-0.2370211595392354 l 8.545213756291979 -30.323949025718495" fill="#aaff21" stroke="none" /><path d="M 94.30408787586889 120.21278271476187 l -9.078977919019302 32.218089736988674 a54.472871797243435,54.472871797243435 0 0,0 -0.8978685318779125,-0.26135644395347224 l 9.63070646327882 -32.05748959873269" fill="#91ff24" stroke="none" /><path d="M 93.95794788825049 120.11202640906438 l -14.909905627863454 49.63022665115993 a72.82146932765704,72.82146932765704 0 0,0 -1.194131194810939,-0.3699448966099001 l 15.759677455546028 -49.36696516674338" fill="#3dffaf" stroke="none" /><path d="M 93.61358852112213 120.00534299687104 l -10.77961229114635 33.766981969592784 a56.4458617116616,56.4458617116616 0 0,0 -0.9205440090535199,-0.30260110010322727 l 11.357679037847614 -33.57695994808754" fill="#79ff26" stroke="none" /><path d="M 93.27111125876986 119.89276391827306 l -7.092859659058206 20.968779263437977 a43.13590662118635,43.13590662118635 0 0,0 -0.6994060581961371,-0.24328973298991566 l 7.4517714892993645 -20.84393109787947" fill="#ffd614" stroke="none" /><path d="M 92.93061703081489 119.77432235084164 l -12.19826492259844 34.12071799644357 a57.23563251434592,57.23563251434592 0 0,0 -0.9223409026091858,-0.33869635519079494 l 12.782194976861744 -33.90629079224405" fill="#70ff27" stroke="none" /><path d="M 92.25597844496254 119.51999308798841 l -13.323287219280303 33.58338720796313 a57.12968140860668,57.12968140860668 0 0,0 -0.9084858209531242,-0.36947327442161576 l 13.897827501423867 -33.34972667696222" fill="#71ff27" stroke="none" /><path d="M 91.92203290615298 119.3841803445677 l -11.845018845308187 28.423733201036136 a51.79306870919802,51.79306870919802 0 0,0 -0.8177507111075207,-0.3490491521087531 l 12.33120463158614 -28.216209399267978" fill="#b3ff20" stroke="none" /><path d="M 91.26138138417905 119.09545874513695 l -22.961291034369697 50.17456476336891 a76.17887127477806,76.17887127477806 0 0,0 -1.184441011226,-0.5543781991864452 l 23.81922075946719 -49.77301033261194" fill="#42ffd7" stroke="none" /><path d="M 90.93487009805054 118.94263497670748 l -13.64759508714391 28.51822476256829 a52.615597341676114,52.615597341676114 0 0,0 -0.8113819965740817,-0.39688759339473967 l 14.135137332980062 -28.27974341907633" fill="#a8ff21" stroke="none" /><path d="M 90.6110303473126 118.78422872680471 l -16.54902234534871 33.109130441278495 a58.01465465412916,58.01465465412916 0 0,0 -0.8869964929108715,-0.4529067293805218 l 17.114946059973164 -32.82016576022514" fill="#67ff28" stroke="none" /><path d="M 89.97174638481275 118.45085714620012 l -17.142909688758355 31.541022981156843 a56.898683587212346,56.898683587212346 0 0,0 -0.8541733660540795,-0.473795567361314 l 17.681827242968534 -31.24209449836238" fill="#74ff27" stroke="none" /><line stroke="#e1ed5e" stroke-width="0.3" x1="58.13341422392154" x2="55.67067388415222" y1="173.97424548756322" y2="178.32567169271397" /><path d="M 57.64086615596768 174.84453072859336 a86.0,86.0 0 0,1 -31.369924170532247,-30.572349798747897" fill="none" id="id56" stroke="none" /><text fill="#e1ed5e" style="font-size:6.75px; font-family:Arial;" text-anchor="middle"><textPath startOffset="22.145653131862474" xlink:href="#id56">August</textPath></text><path d="M 89.65649057296885 118.27599006163327 l -18.23723690331011 32.22345014986017 a58.02630888203656,58.02630888203656 0 0,0 -0.8626786045348002,-0.49806772455230136 l 18.78770797570531 -31.905635528031695" fill="#66ff29" stroke="none" /><path d="M 89.34428304082925 118.09573695890944 l -14.627738599538443 24.841098071127206 a49.82795327309566,49.82795327309566 0 0,0 -0.7333422935476664,-0.44035097663985706 l 15.052013649643536 -24.58633309395143" fill="#ccff1d" stroke="none" /><path d="M 89.03521579738668 117.91015095944536 l -22.752544291302602 37.16457117975685 a64.5761818279539,64.5761818279539 0 0,0 -0.9404625156564864,-0.5869181660765596 l 23.3871709357488 -36.76851721683874" fill="#32ff46" stroke="none" /><path d="M 88.72937992617639 117.7192867562869 l -16.992398214739932 26.71487235589579 a52.661111826341504,52.661111826341504 0 0,0 -0.7586068070851719,-0.4917197671251859 l 17.448490654082114 -26.419238747066707" fill="#a8ff21" stroke="none" /><path d="M 88.4268655584334 117.5232005979908 l -13.966235002289189 21.146659859475854 a46.34239419138482,46.34239419138482 0 0,0 -0.6600562914816649,-0.4441153302852176 l 14.32718758186786 -20.903794855133516" fill="#fbff18" stroke="none" /><path d="M 87.83215693770417 117.11559508785305 l -21.444471145200254 30.1643342304206 a58.010166201489156,58.010166201489156 0 0,0 -0.8066700058189463,-0.5839668755959563 l 21.959122161393154 -29.79176658345158" fill="#67ff28" stroke="none" /><path d="M 87.54013794807813 116.9041958592261 l -21.967181600720135 29.802700760758764 a58.023749676583925,58.023749676583925 0 0,0 -0.7967130853063268,-0.5978683522289777 l 22.475547674937225 -29.421213381265773" fill="#66ff29" stroke="none" /><path d="M 87.2517909369889 116.68781488649013 l -16.758641489915423 21.937599669918278 a48.60634607957223,48.60634607957223 0 0,0 -0.6587087010411768,-0.512215870093577 l 17.13276013559183 -21.646682748203908" fill="#dcff1b" stroke="none" /><path d="M 86.96720088162412 116.46651593811092 l -24.544518840664367 31.01119774900892 a60.54905550007312,60.54905550007312 0 0,0 -0.8094809851124773,-0.6520605814542387 l 25.073250596132105 -30.585288873761275" fill="#49ff2c" stroke="none" /><path d="M 86.68645165197938 116.24036423190432 l -12.988785851586043 15.844206791897424 a41.487738937295404,41.487738937295404 0 0,0 -0.5468986169254462,-0.4562422773625461 l 13.258858802673382 -15.618902330623008" fill="#ffbf11" stroke="none" /><path d="M 86.40962598614128 116.0094264158162 l -11.500414878125103 13.547459809049489 a38.770571449641466,38.770571449641466 0 0,0 -0.5036860701324901,-0.43507203094303465 l 11.731280428020455 -13.34804364564173" fill="#ff970d" stroke="none" /><path d="M 86.13680546590413 115.77377054828092 l -13.606092630972388 15.481235778071804 a41.61054142663049,41.61054142663049 0 0,0 -0.532486082578598,-0.4761523385139052 l 13.869843740374357 -15.245387909674516" fill="#ffc111" stroke="none" /><path d="M 85.60350026404147 115.28858382429668 l -36.71833238105876 38.99359655417156 a74.56058723609561,74.56058723609561 0 0,0 -0.9242939203616732,-0.8854526673321268 l 37.38229878728575 -38.35753175653385" fill="#40ffc4" stroke="none" /><path d="M 85.34317274990678 115.03919595460226 l -41.22896643078413 42.30455163168674 a80.07201335411528,80.07201335411528 0 0,0 -0.9761467804816693,-0.9678036957386755 l 41.94910513139577 -41.590567925719405" fill="#47fbff" stroke="none" /><path d="M 84.58840730492382 114.26474011684316 l -29.20495014606365 27.031665850607205 a60.79497545787592,60.79497545787592 0 0,0 -0.7023333725401041,-0.7719874071194712 l 29.66468121944563 -26.52634086793006" fill="#47ff2c" stroke="none" /><path d="M 84.1078160697243 113.72728997021213 l -24.579597163226936 21.231270610191448 a53.47958510248696,53.47958510248696 0 0,0 -0.5941465688473457,-0.6999031641418748 l 24.940438295581394 -20.806200663600016" fill="#9eff22" stroke="none" /><path d="M 83.64595745247003 113.17365903436017 l -31.279603009088433 25.19663401720292 a61.16570589698433,61.16570589698433 0 0,0 -0.6516581763171803,-0.8233488177836992 l 31.707527616047177 -24.65596525550454" fill="#42ff2d" stroke="none" /><path d="M 83.4222238831116 112.89097897827486 l -41.36799072577572 32.1679998004182 a73.40315704084604,73.40315704084604 0 0,0 -0.7649588463972051,-1.0013556854427883 l 41.91410154952722 -31.453123201734545" fill="#3effb6" stroke="none" /><path d="M 83.20337586046588 112.60449989151573 l -50.38987241860234 37.813499674547174 a84.0,84.0 0 0,0 -0.8555919216646783,-1.1607747629244813 l 51.03156635985085 -36.942918602353814" fill="#4dd2ff" stroke="none" /><path d="M 82.98947788004972 112.3143062007846 l -22.39662154118016 16.213426817611815 a48.64930135878498,48.64930135878498 0 0,0 -0.4839097390912406,-0.6806796497087285 l 22.67164637880136 -15.826569941193583" fill="#dcff1b" stroke="none" /><line stroke="#e1ed5e" stroke-width="0.3" x1="26.387840678322732" x2="22.057713659400548" y1="142.50000000000003" y2="145.00000000000006" /><path d="M 25.521815274538298 143.00000000000003 a86.0,86.0 0 0,1 -11.493303480769221,-40.785679425670985" fill="none" id="id57" stroke="none" /><text fill="#e1ed5e" style="font-size:6.75px; font-family:Arial;" text-anchor="middle"><textPath startOffset="21.40746469413373" xlink:href="#id57">September</textPath></text><line stroke="#e1ed5e" stroke-width="0.3" x1="15.003131293944662" x2="10.003315487706104" y1="100.72959589197737" y2="100.7725132973878" /><path d="M 14.003168132696942 100.73817937305945 a86.0,86.0 0 0,1 10.791469493833604,-42.45332614584628" fill="none" id="id58" stroke="none" /><text fill="#e1ed5e" style="font-size:6.75px; font-family:Arial;" text-anchor="middle"><textPath startOffset="22.145653131862435" xlink:href="#id58">October</textPath></text><line stroke="#e1ed5e" stroke-width="0.3" x1="26.387840678322718" x2="22.05771365940052" y1="57.49999999999999" y2="54.99999999999999" /><path d="M 25.521815274538284 56.99999999999999 a86.0,86.0 0 0,1 29.574782752854787,-30.34633250058573" fill="none" id="id59" stroke="none" /><text fill="#e1ed5e" style="font-size:6.75px; font-family:Arial;" text-anchor="middle"><textPath startOffset="21.40746469413373" xlink:href="#id59">November</textPath></text><line stroke="#e1ed5e" stroke-width="0.3" x1="56.869717070023135" x2="54.33264160355391" y1="26.7553504044142" y2="22.446841604673864" /><path d="M 56.362301976729285 25.89364864446614 a86.0,86.0 0 0,1 42.16139366436587,-11.88097634709845" fill="none" id="id60" stroke="none" /><text fill="#e1ed5e" style="font-size:6.75px; font-family:Arial;" text-anchor="middle"><textPath startOffset="22.145653131862474" xlink:href="#id60">December</textPath></text></svg>