<?xml version="1.0" encoding="utf-8" ?>
<svg baseProfile="full" height="200mm" version="1.1" viewBox="0,0,200,200" width="200mm" xmlns="http://www.w3.org/2000/svg" xmlns:ev="http://www.w3.org/2001/xml-events" xmlns:xlink="http://www.w3.org/1999/xlink"><defs /><rect fill="#1a1a1a" height="200" width="200" x="0" y="0" /><text alignment-baseline="middle" fill="#e1ed5e" style="dominant-baseline: central; font-size:9.0px; font-family:Arial;" text-anchor="middle" x="100.0" y="100.0">2024</text><line stroke="#e1ed5e" stroke-width="0.3" x1="100.0" x2="100.0" y1="15.0" y2="10.0" /><path d="M 100.0 14.0 a86.0,86.0 0 0,1 42.35913384403234,11.155469271406648" fill="none" id="id49" stroke="none" /><text fill="#e1ed5e" style="font-size:6.75px; font-family:Arial;" text-anchor="middle"><textPath startOffset="22.145653131862478" xlink:href="#id49">January</textPath></text><path d="M 100.0 79.0 l 0.0 -10.166386845496717 a31.166386845496717,31.166386845496717 0 0,0 0.5350124738525707,0.004592438627703095 l -0.1745195490037159 10.164888805063448" fill="#ff4c07" stroke="none" /><path d="M 100.72087961077811 79.0123766808444 l 0.8684159715085114 -25.282983485531208 a46.29789319744265,46.29789319744265 0 0,0 0.7940623080082201,0.03410045214569677 l -1.3023040401175678 25.26435046495968" fill="#e1ff1b" stroke="none" /><path d="M 101.08105385017728 79.02784411241856 l 0.9138964195544025 -17.72934638996425 a38.75288511991819,38.75288511991819 0 0,0 0.6640687895983056,0.039948729353960113 l -1.2181095612851705 17.711045682785596" fill="#ffb911" stroke="none" /><path d="M 102.15924093988457 79.11130261209362 l 1.643718172703631 -15.901482259985356 a36.986211167625214,36.986211167625214 0 0,0 0.6309919808177045,0.07070396757394741 l -1.916446055122132 15.870922531904437" fill="#ffa00e" stroke="none" /><path d="M 102.51750503828377 79.15144685158666 l 1.5263702884303834 -12.64053560909411 a33.73235825533429,33.73235825533429 0 0,0 0.5742888664860595,0.07435319143027545 l -1.7431369768072345 12.612470821463438" fill="#ff710a" stroke="none" /><path d="M 103.23170211078529 79.25015418208739 l 3.91913714571498 -25.163671874781492 a46.46703787621544,46.46703787621544 0 0,0 0.7871128923359478,0.12951912690229667 l -4.3505275411039985 25.092686749383525" fill="#dfff1b" stroke="none" /><path d="M 103.94208987418118 79.37332000966035 l 4.794824728235891 -25.088549078204917 a46.54262396512933,46.54262396512933 0 0,0 0.783475292584968,0.15671700102228409 l -5.224796506351816 25.002542680519774" fill="#deff1b" stroke="none" /><path d="M 104.29559338865022 79.4440306129975 l 3.282259547971506 -15.706800128375223 a37.046083572416606,37.046083572416606 0 0,0 0.6213820452987439,0.13542732465289609 l -3.5514040098893838 15.64814134558861" fill="#ffa10e" stroke="none" /><path d="M 104.9986988182912 79.60360301121754 l 6.642830886270213 -27.10501688758076 a48.90715217752653,48.90715217752653 0 0,0 0.8137095282975187,0.20684178010687154 l -7.107145707793126 26.98698987563862" fill="#c1ff1e" stroke="none" /><path d="M 106.38641147887787 79.99465700312896 l 3.8476381586321793 -12.052671730574213 a33.651925357223114,33.651925357223114 0 0,0 0.5488104413916329,0.1804048928459107 l -4.0539713376715545 11.98484591632628" fill="#ff700a" stroke="none" /><path d="M 107.06938296918511 80.22567764915836 l 8.503595615830367 -23.786070380059826 a46.26040938945228,46.26040938945228 0 0,0 0.7454773517291449,0.2737496094921993 l -8.910662119213637 23.636589921558905" fill="#e2ff1b" stroke="none" /><path d="M 108.07796709384702 80.6158196554323 l 5.978409399662974 -14.346006195667275 a36.541855510720154,36.541855510720154 0 0,0 0.5769522655021398,0.2462666144404856 l -6.223796740335544 14.241264931567388" fill="#ff9a0e" stroke="none" /><path d="M 108.73861861582097 80.90454125486305 l 8.798637738809232 -19.226611360593452 a42.14423350396271,42.14423350396271 0 0,0 0.6552651373465939,0.30669717055461704 l -9.12739159002733 19.072737958468302" fill="#ffe715" stroke="none" /><path d="M 109.3889696526874 81.21577127319529 l 14.420051914449491 -28.849763438726928 a53.25285642677131,53.25285642677131 0 0,0 0.814192503077684,0.41573249342273233 l -14.913171639240755 28.59797299363136" fill="#8dff24" stroke="none" /><path d="M 109.71004243097381 81.37971332152246 l 5.896740118998588 -11.30777669250842 a33.75293526050549,33.75293526050549 0 0,0 0.5114553095202401,0.272321144484653 l -6.089984244305389 11.204885080301196" fill="#ff720a" stroke="none" /><path d="M 110.34350942703115 81.72400993836675 l 6.287528408700016 -11.109460238837002 a33.765309251581414,33.765309251581414 0 0,0 0.5019897082555583,0.2898238931917684 l -6.477310584815972 10.99988944836906" fill="#ff720a" stroke="none" /><line stroke="#e1ed5e" stroke-width="0.3" x1="143.13028292997686" x2="145.6673583964461" y1="26.7553504044142" y2="22.446841604673864" /><path d="M 143.63769802327073 25.89364864446614 a86.0,86.0 0 0,1 29.32050498858742,28.57503671076993" fill="none" id="id50" stroke="none" /><text fill="#e1ed5e" style="font-size:6.75px; font-family:Arial;" text-anchor="middle"><textPath startOffset="20.669276256404974" xlink:href="#id50">February</textPath></text><path d="M 110.65571695917076 81.90426304109057 l 6.442356224466245 -10.940529302742144 a33.69642213960604,33.69642213960604 0 0,0 0.49592668116976585,0.2977897229115383 l -6.629215662193445 10.828325579294685" fill="#ff710a" stroke="none" /><path d="M 111.27062007382361 82.28071324371311 l 13.584390978011351 -21.35691892480227 a46.31113715746595,46.31113715746595 0 0,0 0.6671325893642774,0.43242728435864347 l -13.949009199632636 21.12057779873973" fill="#e1ff1b" stroke="none" /><path d="M 111.8722381534696 82.67804972795209 l 14.326623308078034 -20.902971562810613 a46.34139608559943,46.34139608559943 0 0,0 0.65232115070306,0.45537082500435483 l -14.683339549954853 20.65395592200113" fill="#e1ff1b" stroke="none" /><path d="M 113.59037401385872 83.9905735841838 l 8.70228633558789 -10.251271421734792 a34.446871503388294,34.446871503388294 0 0,0 0.4475149240045857,0.3865527327622516 l -8.876980739355337 10.10037455650782" fill="#ff7c0b" stroke="none" /><path d="M 114.13192950727249 84.46653392183569 l 8.510651874852552 -9.354697257232681 a33.646800232051106,33.646800232051106 0 0,0 0.4239019824736714,0.3923573464884955 l -8.669983628640189 9.20722216461181" fill="#ff700a" stroke="none" /><path d="M 114.91283532996326 85.21462403516908 l 9.042986389350991 -8.965696371820178 a33.73417897901772,33.73417897901772 0 0,0 0.40418879445055667,0.4147333101956078 l -9.19556198495236 8.809140369556827" fill="#ff710a" stroke="none" /><path d="M 115.41159269507618 85.73525988315684 l 14.4056763168494 -13.333678934615994 a40.629327652195784,40.629327652195784 0 0,0 0.46936991912720855,0.5159197626283931 l -14.632443936818486 13.084421596429928" fill="#ffd213" stroke="none" /><path d="M 115.6541949942343 86.00192230759917 l 9.666133024616295 -8.643515754945955 a33.96705410860835,33.96705410860835 0 0,0 0.38494205084612854,0.4379933910252597 l -9.813086139421014 8.476310086109399" fill="#ff750a" stroke="none" /><path d="M 116.1254893667686 86.54754324733833 l 10.391149853236977 -8.668666781621468 a34.53224959285094,34.53224959285094 0 0,0 0.3758312134900805,0.45845297115737665 l -10.538427885965685 8.489011528765596" fill="#ff7d0b" stroke="none" /><path d="M 116.35404254752997 86.82634096563983 l 29.78750381868965 -23.994704529577405 a59.24972194944916,59.24972194944916 0 0,0 0.6312453226307337,0.7975578439861909 l -30.195015571961942 23.479826741676536" fill="#4aff2c" stroke="none" /><path d="M 116.7966241395341 87.39550010848427 l 10.226171590467045 -7.673909806630844 a33.78528361507794,33.78528361507794 0 0,0 0.3441239968120397,0.4668702926027272 l -10.356397606862911 7.497233204759242" fill="#ff720a" stroke="none" /><path d="M 117.01052211995028 87.68569379921539 l 10.287049492019948 -7.447030517587056 a33.69967128634205,33.69967128634205 0 0,0 0.3352072626771559,0.47151099411100567 l -10.413371853227066 7.269342296766546" fill="#ff710a" stroke="none" /><path d="M 117.21940702142032 87.97951657250589 l 10.5422885908697 -7.359336191819507 a33.85689223402786,33.85689223402786 0 0,0 0.3285896246110665,0.47942208232745265 l -10.667067952296092 7.177279374422006" fill="#ff730a" stroke="none" /><path d="M 117.62189284568427 88.57770195909679 l 22.682494857291033 -14.702519124367779 a48.03071663040835,48.03071663040835 0 0,0 0.44252828221496027,0.6957279616359008 l -22.931540831131883 14.310977488053206" fill="#ccff1d" stroke="none" /><line stroke="#e1ed5e" stroke-width="0.3" x1="172.87174338648825" x2="177.1583165268699" y1="56.24261187166439" y2="53.66864786411523" /><path d="M 173.72905801456457 55.72781907015455 a86.0,86.0 0 0,1 12.242430191666344,42.057860355516425" fill="none" id="id51" stroke="none" /><text fill="#e1ed5e" style="font-size:6.75px; font-family:Arial;" text-anchor="middle"><textPath startOffset="22.145653131862474" xlink:href="#id51">March</textPath></text><path d="M 118.18653347947321 89.5 l 11.073120874571025 -6.393069317702848 a33.78613863540569,33.78613863540569 0 0,0 0.2856805212576318,0.5047701076833885 l -11.181234760850034 6.202042439920341" fill="#ff720a" stroke="none" /><path d="M 118.36410011445183 89.81374322990088 l 22.12851638987276 -12.274315021360856 a46.304743564408476,46.304743564408476 0 0,0 0.37959890188009604,0.6984192243440168 l -22.3359606413682 11.892640963542236" fill="#e1ff1b" stroke="none" /><path d="M 118.70294669586156 90.45014215332178 l 7.346303036700558 -3.7510746750208357 a29.24855923932286,29.24855923932286 0 0,0 0.22448977698217668,0.4491299337042395 l -7.409612726894471 3.6244128851528457" fill="#ff2f04" stroke="none" /><path d="M 118.8641267826498 90.77261029715802 l 22.84022664604045 -11.172299390931363 a46.42629007391958,46.42629007391958 0 0,0 0.3440425576891304,0.7189166241684585 l -23.028648461689492 10.7785702646978" fill="#e0ff1b" stroke="none" /><path d="M 119.16976305983485 91.42560881287824 l 25.36654005832762 -11.346130718726227 a48.78841551469178,48.78841551469178 0 0,0 0.3353997214475747,0.7674602000018629 l -25.557573661792166 10.909008448948514" fill="#c2ff1e" stroke="none" /><path d="M 119.4528033332814 92.08871423366111 l 12.125538446655526 -4.931350925555216 a34.08995433805235,34.08995433805235 0 0,0 0.2158077952402378,0.5439766200913023 l -12.208404916861888 4.722473288250348" fill="#ff770a" stroke="none" /><path d="M 119.58574465831526 92.42381321644754 l 16.560284832878402 -6.405873928793966 a38.75607655248379,38.75607655248379 0 0,0 0.23469446443878833,0.6225549503036303 l -16.66780998113163 6.120650698296179" fill="#ffb911" stroke="none" /><path d="M 119.83427380445688 93.10060997987247 l 24.28795510123435 -8.448611564347127 a46.71543894948705,46.71543894948705 0 0,0 0.2569673445862818,0.7596782941644932 l -24.429407867392996 8.030431595708471" fill="#dcff1b" stroke="none" /><path d="M 120.05942366710727 93.78553927170692 l 17.2063557010374 -5.330572979346147 a39.01315310540488,39.01315310540488 0 0,0 0.19269465754069087,0.6414178444120999 l -17.29532667858172 5.034417531343324" fill="#ffbc11" stroke="none" /><path d="M 120.26092885502905 94.47779374421319 l 19.777835910745274 -5.390537125603366 a41.49928495862413,41.49928495862413 0 0,0 0.18143194753732042,0.6889266567221453 l -19.867457339087323 5.050229964508422" fill="#ffde14" stroke="none" /><path d="M 120.35273937422433 94.82641323984039 l 13.367310634302903 -3.3979180907781834 a34.79241969146767,34.79241969146767 0 0,0 0.1421725520099113,0.5801125287027632 l -13.423670712829107 3.167949737467325" fill="#ff810b" stroke="none" /><path d="M 120.51834098615036 95.52812308129327 l 27.169611679011258 -5.921490408976329 a48.80740634169004,48.80740634169004 0 0,0 0.17138904154102572,0.820158607305278 l -27.26725843137665 5.454215350385646" fill="#c2ff1e" stroke="none" /><path d="M 120.65975698304385 96.23510406497455 l 12.692051092480147 -2.312914503516764 a33.90107493330322,33.90107493330322 0 0,0 0.09941923271318662,0.5734237146566837 l -12.72988514268557 2.0946977559394875" fill="#ff740a" stroke="none" /><path d="M 120.7213421655516 96.59031103205396 l 20.030403496553966 -3.2959952728954813 a41.29976968031191,41.29976968031191 0 0,0 0.10910712366176291,0.7005460020779355 l -20.084032112353995 2.951661088886105" fill="#ffdb14" stroke="none" /><path d="M 120.9064616781168 98.02013634271609 l 12.64536037268144 -1.1975287746245422 a33.70193741604153,33.70193741604153 0 0,0 0.049600228266538385,0.5764298372621326 l -12.664054223645719 0.9802778899867476" fill="#ff710a" stroke="none" /><path d="M 120.93736805541906 98.37931529534042 l 15.233597921667055 -1.1791768231437136 a36.27916763502705,36.27916763502705 0 0,0 0.04273347140567175,0.6213352955307015 l -15.251595354237793 0.9174981034586779" fill="#ff960d" stroke="none" /><path d="M 120.98066250479742 99.09900007780936 l 12.675948883434026 -0.5443597863058466 a33.68763207507135,33.68763207507135 0 0,0 0.019852142441144114,0.5779734665865249 l -12.683425712872019 0.32668005515520165" fill="#ff710a" stroke="none" /><line stroke="#e1ed5e" stroke-width="0.3" x1="184.99686870605535" x2="189.99668451229388" y1="99.2704041080226" y2="99.22748670261217" /><path d="M 185.99683186730306 99.26182062694052 a86.0,86.0 0 0,1 -10.086455211305974,41.156179273409016" fill="none" id="id52" stroke="none" /><text fill="#e1ed5e" style="font-size:6.75px; font-family:Arial;" text-anchor="middle"><textPath startOffset="21.40746469413373" xlink:href="#id52">April</textPath></text><path d="M 120.99922638620191 99.81974689727618 l 12.661866746777948 -0.1086868975745726 a33.662333211334534,33.662333211334534 0 0,0 0.0,0.5778800005967974 l -12.661866746777948 -0.10868689757457106" fill="#ff700a" stroke="none" /><path d="M 120.98066250479742 100.90099992219065 l 7.566940016991516 0.32495696286862585 a28.573914328038335,28.573914328038335 0 0,0 -0.025251734901545517,0.48987691103478964 l -7.560246692633398 -0.4548056672801461" fill="#ff2403" stroke="none" /><path d="M 120.86939407059847 102.33845913500097 l 12.587940208846108 1.4105049563318823 a33.66671871217331,33.66671871217331 0 0,0 -0.06928596882013684,0.5737872144918011 l -12.561872153766307 -1.6263858477470923" fill="#ff700a" stroke="none" /><path d="M 120.77682067341334 103.0534771498775 l 15.625513862951074 2.2964124437320166 a36.793359161147556,36.793359161147556 0 0,0 -0.09720193645148911,0.6241061599829281 l -15.583790434361317 -2.5643067856463952" fill="#ff9d0e" stroke="none" /><path d="M 120.7213421655516 103.40968896794604 l 12.917851947699027 2.1256276221746893 a34.09156949073806,34.09156949073806 0 0,0 -0.09997788233634665,0.5766458572277181 l -12.879459247870447 -2.3470665123229955" fill="#ff770a" stroke="none" /><path d="M 120.592083275326 104.11899336999214 l 17.429865408300596 3.4864612335105667 a38.77514050814355,38.77514050814355 0 0,0 -0.13616036305606766,0.6515766278295515 l -17.367447334420167 -3.7851543126255276" fill="#ffb911" stroke="none" /><path d="M 120.51834098615036 104.47187691870673 l 7.611632603129043 1.6589198987668539 a28.79031232464666,28.79031232464666 0 0,0 -0.10938829599377727,0.4819850156437206 l -7.5820334455776015 -1.7893392483495913" fill="#ff2803" stroke="none" /><path d="M 120.43855184770803 104.8234425847677 l 14.771145172166861 3.4859500408883064 a36.176909348902285,36.176909348902285 0 0,0 -0.14783000353452597,0.603196861533282 l -14.709127642116039 -3.739002727029688" fill="#ff950d" stroke="none" /><path d="M 120.26092885502905 105.52220625578681 l 17.641498233965507 4.808268791925358 a39.285018696036694,39.285018696036694 0 0,0 -0.18292135080841887,0.6491233427069951 l -17.556358391082508 -5.110400058535362" fill="#ffc011" stroke="none" /><path d="M 120.16314734710363 105.8691983318838 l 7.510699337946175 2.186255115171125 a28.822423919325583,28.822423919325583 0 0,0 -0.14236037501561222,0.4738713882243049 l -7.472062642926933 -2.3148641069861533" fill="#ff2803" stroke="none" /><path d="M 119.94978838288452 106.5578916946017 l 9.987046045775475 3.282940403186669 a31.512791561298787,31.512791561298787 0 0,0 -0.17334223010863636,0.5124555024203973 l -9.929218394094473 -3.4538975800812266" fill="#ff5107" stroke="none" /><path d="M 119.83427380445688 106.89939002012753 l 16.778955919435983 5.836591859123339 a38.76511092778091,38.76511092778091 0 0,0 -0.224025108115389,0.6266380986665507 l -16.67629064127665 -6.1237649141708115" fill="#ffb911" stroke="none" /><path d="M 119.71291397450082 107.23885506374661 l 11.972541734868782 4.3964831620266365 a33.7542471274144,33.7542471274144 0 0,0 -0.20440497740722244,0.5422084873448606 l -11.89530607364712 -4.601359929565656" fill="#ff720a" stroke="none" /><path d="M 119.4528033332814 107.91128576633889 l 11.755554073243871 4.780881501843333 a33.69054291603115,33.69054291603115 0 0,0 -0.22247655171370997,0.5338627343680296 l -11.671751676993678 -4.9819767456526405" fill="#ff710a" stroke="none" /><path d="M 119.31412917781788 108.2440532568976 l 19.416320622527902 8.287672707965392 a42.111111421030316,42.111111421030316 0 0,0 -0.28949607999072224,0.6624236850600925 l -19.27119066052021 -8.61975846280133" fill="#ffe615" stroke="none" /><path d="M 118.8641267826498 109.22738970284198 l 22.683738827138573 11.095753357001843 a46.25208406720625,46.25208406720625 0 0,0 -0.35499594876621693,0.7102296998909707 l -22.489922965160623 -11.48351491305656" fill="#e2ff1b" stroke="none" /><path d="M 118.5362547648365 109.86951160357373 l 4.624085494001761 2.4620650729047027 a26.238695551285144,26.238695551285144 0 0,0 -0.21510064091338357,0.39576095199052375 l -4.5811395034730396 -2.54108085836983" fill="#ff0000" stroke="none" /><line stroke="#e1ed5e" stroke-width="0.3" x1="174.33088141563837" x2="178.70328620479359" y1="141.23008692659167" y2="143.65538615756765" /><path d="M 175.20536237346943 141.71514677278685 a86.0,86.0 0 0,1 -30.301960400862466,31.631185727798858" fill="none" id="id53" stroke="none" /><text fill="#e1ed5e" style="font-size:6.75px; font-family:Arial;" text-anchor="middle"><textPath startOffset="22.145653131862474" xlink:href="#id53">May</textPath></text><path d="M 118.18653347947321 110.5 l 9.524744372001784 5.4991137271376 a31.998227454275206,31.998227454275206 0 0,0 -0.2787293824111641,0.4733434273975173 l -9.428941279460854 -5.6618083228286675" fill="#ff5808" stroke="none" /><path d="M 117.81537515405839 111.11811171558189 l 6.876504423576609 4.291447344380028 a29.10572843099589,29.10572843099589 0 0,0 -0.26816397732090713,0.4215983132011973 l -6.8018227546298125 -4.4088593322598975" fill="#ff2c04" stroke="none" /><path d="M 117.62189284568427 111.42229804090321 l 7.3295865790821475 4.750949467008269 a29.734664289961422,29.734664289961422 0 0,0 -0.2813119576815199,0.42594215853587486 l -7.2469501824799005 -4.876071503883205" fill="#ff3605" stroke="none" /><path d="M 117.423217284605 111.72311816256416 l 10.682914612596813 7.187941714686304 a33.8759920283356,33.8759920283356 0 0,0 -0.3287749929017709,0.47969254020338536 l -10.55794988287972 -7.370268989959733" fill="#ff730a" stroke="none" /><path d="M 116.79662413953412 112.60449989151573 l 10.134987649493755 7.6054836773945125 a33.671280780667175,33.671280780667175 0 0,0 -0.35089967708557257,0.45933894133597775 l -10.002935995053878 -7.778343531971368" fill="#ff700a" stroke="none" /><path d="M 116.57777611688842 112.89097897827486 l 10.93149931487119 8.500399985826338 a34.84754408514613,34.84754408514613 0 0,0 -0.3712650200735848,0.4690812245916509 l -10.783967864156043 -8.68680115433267" fill="#ff820b" stroke="none" /><path d="M 116.1254893667686 113.45245675266167 l 14.565442428030009 12.151010111373875 a39.96837261999476,39.96837261999476 0 0,0 -0.44403993428657956,0.5230779260670573 l -14.354707930236316 -12.399254819890489" fill="#ffc912" stroke="none" /><path d="M 115.89218393027572 113.72728997021213 l 11.777484379014378 10.173110498826773 a36.562818366840474,36.562818366840474 0 0,0 -0.414359344847612,0.4714648715407689 l -11.601113970208182 -10.373787648178835" fill="#ff9a0e" stroke="none" /><path d="M 115.41159269507618 114.26474011684316 l 11.585044619102344 10.722944344767493 a36.78590492330336,36.78590492330336 0 0,0 -0.4329248477393819,0.45975118575193974 l -11.399263937626703 -10.92023699046393" fill="#ff9d0e" stroke="none" /><path d="M 115.16444852881244 114.52719865689866 l 17.87032441475813 17.11936654624577 a45.7471454037313,45.7471454037313 0 0,0 -0.5481231234881897,0.5624226117105301 l -17.573814490119133 -17.423611850024038" fill="#e8ff1a" stroke="none" /><path d="M 114.65682725009322 115.03919595460226 l 6.337902317289038 6.503246116258305 a30.080815813137413,30.080815813137413 0 0,0 -0.3728982858941654,0.35722812258612174 l -6.225331545529561 -6.611086369150007" fill="#ff3b05" stroke="none" /><path d="M 114.39649973595853 115.28858382429668 l 15.593978248669016 16.560264507458896 a43.74674741972938,43.74674741972938 0 0,0 -0.5511469985289483,0.5101334336914685 l -15.3074014788261 -16.825515687282746" fill="#fffc17" stroke="none" /><path d="M 113.59037401385872 116.0094264158162 l 13.222168689234353 15.575681469247801 a41.431044958054365,41.431044958054365 0 0,0 -0.5461512669943743,0.4556188114696284 l -12.952843088078083 -15.8003624646293" fill="#ffdd14" stroke="none" /><path d="M 112.7482090630111 116.68781488649013 l 12.790335908448688 16.74296027945783 a42.06939514011863,42.06939514011863 0 0,0 -0.577646873665959,0.4334769829920664 l -12.501036045871963 -16.96005628971391" fill="#ffe615" stroke="none" /><path d="M 112.45986205192187 116.90419585922612 l 11.42557415622218 15.500985687967626 a40.25679885385703,40.25679885385703 0 0,0 -0.5597976060419875,0.4052502964140272 l -11.157795539806225 -15.69483675575473" fill="#ffcd13" stroke="none" /><path d="M 111.5731344415666 117.5232005979908 l 9.949205802933397 15.064365661330392 a39.053304652816166,39.053304652816166 0 0,0 -0.5625802745390983,0.364657737054197 l -9.68913989613729 -15.232937240088482" fill="#ffbd11" stroke="none" /><path d="M 111.27062007382361 117.71928675628689 l 13.560229827695672 21.318933583445617 a46.26611885738078,46.26611885738078 0 0,0 -0.6738018461078882,0.42050218614039175 l -13.19226385279807 -21.548571566427555" fill="#e2ff1b" stroke="none" /><line stroke="#e1ed5e" stroke-width="0.3" x1="143.1302829299769" x2="145.66735839644613" y1="173.24464959558577" y2="177.55315839532614" /><path d="M 143.63769802327073 174.10635135553383 a86.0,86.0 0 0,1 -40.68552437913181,11.842963189579606" fill="none" id="id54" stroke="none" /><text fill="#e1ed5e" style="font-size:6.75px; font-family:Arial;" text-anchor="middle"><textPath startOffset="21.407464694133747" xlink:href="#id54">June</textPath></text><path d="M 110.34350942703117 118.27599006163325 l 14.592728875931815 25.78395367549705 a50.62701475320509,50.62701475320509 0 0,0 -0.7600219351073835,0.4215713557245807 l -14.147962752668336 -26.030657946654774" fill="#acff21" stroke="none" /><path d="M 109.71004243097381 118.62028667847754 l 5.839027197469635 11.197104555742715 a33.62811898285031,33.62811898285031 0 0,0 -0.5141463614461891,0.2625267955922885 l -5.645953614309863 -11.29568930300784" fill="#ff700a" stroke="none" /><path d="M 109.3889696526874 118.78422872680471 l 5.993380801617068 11.990776409868493 a34.40519795992028,34.40519795992028 0 0,0 -0.5305605110204639,0.25952373266636325 l -5.786660041334535 -12.091893892632081" fill="#ff7b0b" stroke="none" /><path d="M 109.06512990194946 118.94263497670748 l 9.252449367051616 19.33406061427051 a42.43393848843791,42.43393848843791 0 0,0 -0.659769515778917,0.30880544710034563 l -8.919191137401192 -19.49004229294139" fill="#ffea16" stroke="none" /><path d="M 108.4095320186766 119.2426549942271 l 3.4854177712806322 7.975317952836065 a29.70366781817804,29.70366781817804 0 0,0 -0.46898544701412787,0.20018199973182557 l -3.3479972490960734 -8.033974602227294" fill="#ff3505" stroke="none" /><path d="M 108.07796709384702 119.3841803445677 l 9.711896045641435 23.30501501792482 a46.24766622456514,46.24766622456514 0 0,0 -0.7354381817165264,0.29909630603635434 l -9.310403402734467 -23.468298580540466" fill="#e2ff1b" stroke="none" /><path d="M 107.74402155503746 119.51999308798841 l 10.59942603223374 26.717477658782936 a49.743198232979566,49.743198232979566 0 0,0 -0.7964306189624089,0.30807647269299737 l -10.139223150777802 -26.895494019613974" fill="#b7ff1f" stroke="none" /><path d="M 107.06938296918513 119.77432235084164 l 5.975565869389117 16.71472124866481 a38.75075474113636,38.75075474113636 0 0,0 -0.6283051580121874,0.2185571490804912 l -5.687754939331908 -16.81483683031389" fill="#ffb911" stroke="none" /><path d="M 106.72888874123015 119.89276391827305 l 3.165450365387553 9.358091541598883 a30.878965194628268,30.878965194628268 0 0,0 -0.5035877840060566,0.16553930712716042 l -3.0043398437337623 -9.411051770128061" fill="#ff4706" stroke="none" /><path d="M 106.0420521117495 120.11202640906438 l 3.6700705791496278 12.216471332223383 a33.755845321536924,33.755845321536924 0 0,0 -0.5563927562688185,0.16195782239493728 l -3.4598178104992026 -12.277672848920838" fill="#ff720a" stroke="none" /><path d="M 105.69591212413111 120.21278271476187 l 4.198288359840323 14.898244309608513 a36.47847888718892,36.47847888718892 0 0,0 -0.6041854010750167,0.16467341775613603 l -3.941921557830611 -14.96811822150879" fill="#ff990e" stroke="none" /><path d="M 105.3480935250658 120.30758222061773 l 6.621188413890206 25.14173087719561 a46.99897627818382,46.99897627818382 0 0,0 -0.7819615969248829,0.19877158010126383 l -6.188621523739926 -25.25168768913214" fill="#d9ff1c" stroke="none" /><path d="M 104.64783097203109 120.47920084513623 l 5.5964896828090005 24.659166164102892 a46.28626450622204,46.28626450622204 0 0,0 -0.7763696168285295,0.16920614450379398 l -5.172357649361335 -24.751603766740406" fill="#e2ff1b" stroke="none" /><path d="M 104.29559338865022 120.5559693870025 l 3.1007884523107574 14.838395242362417 a36.15892022521879,36.15892022521879 0 0,0 -0.6086812085247878,0.12175328881641341 l -2.845610758255011 -14.889437927841692" fill="#ff940d" stroke="none" /><path d="M 103.94208987418118 120.62667999033965 l 1.8063200175209049 9.451429609855731 a30.622489993538803,30.622489993538803 0 0,0 -0.5171777891851679,0.09424702128814084 l -1.6438074947846797 -9.481044805075236" fill="#ff4306" stroke="none" /><path d="M 103.58742460773223 120.69131181640829 l 2.8232298146973185 16.283639327046462 a37.52657061582741,37.52657061582741 0 0,0 -0.6356688286341587,0.10459906385138863 l -2.5432834830100877 -16.32970438939352" fill="#ffa80f" stroke="none" /><path d="M 103.2317021107853 120.74984581791261 l 1.9655323412771348 12.620127608763639 a33.772272242873804,33.772272242873804 0 0,0 -0.5736057921721671,0.08430029824901857 l -1.7486014434972823 -12.652008980311539" fill="#ff720a" stroke="none" /><path d="M 102.875027216393 120.80226474461374 l 2.0679072265325025 14.962346564356483 a36.10457066617438,36.10457066617438 0 0,0 -0.6146754640128136,0.07958204504796497 l -1.8107539406289135 -14.995640205604843" fill="#ff940d" stroke="none" /><path d="M 102.15924093988457 120.88869738790638 l 2.295821093676457 22.209986480315422 a43.32832940347225,43.32832940347225 0 0,0 -0.7405026828906701,0.07012637396748347 l -1.9142188474007718 -22.24612460978809" fill="#fff617" stroke="none" /><path d="M 101.80034050326958 120.92268563240118 l 1.7916734304772883 20.8219611088697 a41.898903275070694,41.898903275070694 0 0,0 -0.7171316629511345,0.0555105261700346 l -1.4339727727509182 -20.84964940203479" fill="#ffe315" stroke="none" /><path d="M 101.44090949804482 120.95050786540614 l 1.006795894611026 14.638591346318446 a35.6731726146023,35.6731726146023 0 0,0 -0.6112948877484816,0.0367739824678338 l -0.7553566547300792 -14.653717306610972" fill="#ff8d0d" stroke="none" /><path d="M 101.08105385017728 120.97215588758144 l 0.4839239666105477 9.387995670917638 a30.40045983570104,30.40045983570104 0 0,0 -0.5214029761289835,0.022391287253903863 l -0.32269522988073474 -9.394919526597374" fill="#ff4006" stroke="none" /><path d="M 100.72087961077811 120.9876233191556 l 0.6752242160683313 19.658416316585576 a40.67000914636704,40.67000914636704 0 0,0 -0.6979490387129407,0.017976691441563324 l -0.3376618632846467 -19.667110725377185" fill="#ffd313" stroke="none" /><line stroke="#e1ed5e" stroke-width="0.3" x1="101.45913802915013" x2="101.54496967792366" y1="184.9874750549273" y2="189.98673829345242" /><path d="M 101.47630435890484 185.9873277026323 a86.0,86.0 0 0,1 -42.54439059252881,-10.42667462771756" fill="none" id="id55" stroke="none" /><text fill="#e1ed5e" style="font-size:6.75px; font-family:Arial;" text-anchor="middle"><textPath startOffset="22.145653131862474" xlink:href="#id55">July</textPath></text><path d="M 100.36049292484886 120.99690560180557 l 0.3598883660479476 20.961693082506578 a41.96478229129081,41.96478229129081 0 0,0 -0.7203812908967973,0.0061836069786678285 l -2.5674453527850403e-15 -20.96478229129081" fill="#ffe415" stroke="none" /><path d="M 99.63950707515114 120.99690560180557 l -0.3489177196729393 20.322707930652864 a41.32570296963238,41.32570296963238 0 0,0 -0.7092015779486966,-0.018266516936767233 l 0.6977326116923799 -20.31372369636605" fill="#ffdc14" stroke="none" /><path d="M 99.27912038922189 120.98762331915562 l -0.7134954882070789 20.772642647284606 a41.784892551165115,41.784892551165115 0 0,0 -0.7166591377615035,-0.030776426969964334 l 1.069980386569421 -20.757333651888814" fill="#ffe215" stroke="none" /><path d="M 98.91894614982273 120.97215588758144 l -0.8722260803602594 16.92095294191864 a37.94341839174981,37.94341839174981 0 0,0 -0.6501977813177514,-0.03911428394055234 l 1.1625682138104572 -16.903486680153396" fill="#ffad10" stroke="none" /><path d="M 98.55909050195518 120.95050786540614 l -2.001618338092252 29.10309134102082 a50.171842615357505,50.171842615357505 0 0,0 -0.8587293250103141,-0.06647108073961779 l 2.500916657877802 -29.064442493286148" fill="#b1ff20" stroke="none" /><path d="M 98.19965949673042 120.92268563240118 l -1.3531445815609233 15.725591155545352 a36.78370100610037,36.78370100610037 0 0,0 -0.6286517310192608,-0.05953397253426475 l 1.6228958759651995 -15.700045427505904" fill="#ff9d0e" stroke="none" /><path d="M 97.84075906011543 120.88869738790638 l -1.761854735412801 17.044346339346124 a38.13516484438589,38.13516484438589 0 0,0 -0.6505933547751813,-0.07290034241043679 l 2.0541839917887814 -17.011590236428717" fill="#ffb010" stroke="none" /><path d="M 97.12497278360702 120.80226474461374 l -2.7661519021222807 20.014497206728123 a41.204744363236635,41.204744363236635 0 0,0 -0.6998427544866556,-0.10285278450070424 l 3.109319762216621 -19.964063348928537" fill="#ffda14" stroke="none" /><path d="M 96.76829788921471 120.74984581791261 l -2.2281250137274657 14.30616093716783 a35.47863190487778,35.47863190487778 0 0,0 -0.6009784537840176,-0.09889077587103544 l 2.4733809705645466 -14.265804162801127" fill="#ff8b0c" stroke="none" /><path d="M 96.41257539226777 120.69131181640829 l -3.4990474907755997 20.181576091107363 a41.48265966284309,41.48265966284309 0 0,0 -0.7005932639206218,-0.12767143067586742 l 3.844975488247279 -20.11853648650013" fill="#ffde14" stroke="none" /><path d="M 96.05791012581884 120.62667999033965 l -5.632261067223016 29.470369870699425 a51.0037508496052,51.0037508496052 0 0,0 -0.8585716750685152,-0.17173838071584166 l 6.137329227822489 -29.36934209332072" fill="#a7ff21" stroke="none" /><path d="M 95.70440661134978 120.55596938700252 l -2.7255443270101924 13.042716262896752 a34.32445268643065,34.32445268643065 0 0,0 -0.5757315364351963,-0.1254780087188305 l 2.949038280064525 -12.994006796044204" fill="#ff7a0b" stroke="none" /><path d="M 95.35216902796893 120.47920084513623 l -4.651931617545716 20.497269045893617 a42.018527686640425,42.018527686640425 0 0,0 -0.7020452529729723,-0.16568076813150415 l 5.003109024258577 -20.414392134115886" fill="#ffe515" stroke="none" /><path d="M 94.6519064749342 120.30758222061772 l -5.129915727308361 19.47912558538748 a41.14329588077837,41.14329588077837 0 0,0 -0.6814477873419839,-0.18573162470376425 l 5.4635449155850395 -19.38819346653957" fill="#ffd914" stroke="none" /><path d="M 94.30408787586889 120.21278271476187 l -5.804817183378585 20.59924835031505 a42.401517122166936,42.401517122166936 0 0,0 -0.6988981243651405,-0.20343905815229316 l 6.157575320125332 -20.49656559786024" fill="#ffea16" stroke="none" /><path d="M 93.95794788825049 120.11202640906438 l -9.532931698166722 31.73202920519345 a54.13304188029167,54.13304188029167 0 0,0 -0.887677144887171,-0.27500464858071844 l 10.076249475925527 -31.56370796880608" fill="#83ff25" stroke="none" /><path d="M 93.61358852112213 120.00534299687104 l -6.89215010939959 21.58956205381981 a43.662985743415035,43.662985743415035 0 0,0 -0.712075229691923,-0.23407327161096828 l 7.261748076739257 -21.468067860806823" fill="#fffb17" stroke="none" /><path d="M 93.27111125876986 119.89276391827306 l -4.5349547047517484 13.406787775955431 a35.15301284686967,35.15301284686967 0 0,0 -0.5699713318850628,-0.1982656162628438 l 4.764431808681834 -13.326963727123996" fill="#ff860c" stroke="none" /><path d="M 92.93061703081489 119.77432235084164 l -7.799192647199687 21.81572990942632 a44.167940724828604,44.167940724828604 0 0,0 -0.7117576328752305,-0.26136726166226903 l 8.172539431729037 -21.67863179875533" fill="#fdff18" stroke="none" /><path d="M 92.25597844496254 119.51999308798841 l -8.518497046627981 21.472177251632594 a44.100198870549534,44.100198870549534 0 0,0 -0.7012887939730654,-0.28520804733372246 l 8.885840301791488 -21.32278194771958" fill="#feff18" stroke="none" /><path d="M 91.92203290615298 119.3841803445677 l -7.5733380501618495 18.173254343476298 a40.688134057210945,40.688134057210945 0 0,0 -0.6424170528635508,-0.2742096393881866 l 7.884190178195832 -18.04057005442871" fill="#ffd313" stroke="none" /><path d="M 91.26138138417905 119.09545874513695 l -14.68073806740387 32.08006212866815 a56.279660661391425,56.279660661391425 0 0,0 -0.8750449707346205,-0.40956522991456323 l 15.229271752009982 -31.82332066718306" fill="#6aff28" stroke="none" /><path d="M 90.93487009805054 118.94263497670748 l -8.725849449163938 18.233669320245554 a41.214033380044135,41.214033380044135 0 0,0 -0.6355591569856307,-0.3108838319571781 l 9.037568855411637 -18.081191738191155" fill="#ffda14" stroke="none" /><path d="M 90.6110303473126 118.78422872680471 l -10.580932141838831 21.168952169124424 a44.66602334421387,44.66602334421387 0 0,0 -0.6829068671491779,-0.3486971122704445 l 10.942766230701592 -20.984197105181142" fill="#f6ff19" stroke="none" /><path d="M 89.97174638481275 118.45085714620012 l -10.960645308537199 20.166352844498956 a43.952506020659044,43.952506020659044 0 0,0 -0.6598229984817455,-0.3659926946304591 l 11.305212495175047 -19.975227234435348" fill="#fffe18" stroke="none" /><line stroke="#e1ed5e" stroke-width="0.3" x1="58.13341422392154" x2="55.67067388415222" y1="173.97424548756322" y2="178.32567169271397" /><path d="M 57.64086615596768 174.84453072859336 a86.0,86.0 0 0,1 -31.369924170532247,-30.572349798747897" fill="none" id="id56" stroke="none" /><text fill="#e1ed5e" style="font-size:6.75px; font-family:Arial;" text-anchor="middle"><textPath startOffset="22.145653131862474" xlink:href="#id56">August</textPath></text><path d="M 89.65649057296885 118.27599006163327 l -11.660324223490989 20.602675632221008 a44.673474696449695,44.673474696449695 0 0,0 -0.6641616803371161,-0.38345392492807107 l 12.012278371688504 -20.399474810016763" fill="#f6ff19" stroke="none" /><path d="M 89.34428304082925 118.09573695890944 l -9.352522842763225 15.882628443802613 a39.43170013341948,39.43170013341948 0 0,0 -0.5803355649757185,-0.34847483237279053 l 9.623791164296371 -15.719739610893905" fill="#ffc212" stroke="none" /><path d="M 89.03521579738668 117.91015095944536 l -14.54727186758068 23.761875325769303 a48.8612605204199,48.8612605204199 0 0,0 -0.711596484747402,-0.4440888359308328 l 14.953032481117795 -23.508650692996923" fill="#c1ff1e" stroke="none" /><path d="M 88.72937992617639 117.7192867562869 l -10.864412935414284 17.080661665495096 a41.24313393134351,41.24313393134351 0 0,0 -0.5941257421418977,-0.38510512803280456 l 11.15602430981319 -16.891642695758396" fill="#ffdb14" stroke="none" /><path d="M 88.4268655584334 117.5232005979908 l -8.929577938344515 13.52051911770782 a37.203141651212945,37.203141651212945 0 0,0 -0.5298856077300327,-0.3565306849240808 l 9.160359834171555 -13.365238758726619" fill="#ffa30f" stroke="none" /><path d="M 87.83215693770417 117.11559508785305 l -13.710930426579443 19.286140711842837 a44.66315356666359,44.66315356666359 0 0,0 -0.6210709037166685,-0.4496074386685241 l 14.039982340670067 -19.04793250180125" fill="#f6ff19" stroke="none" /><path d="M 87.54013794807813 116.9041958592261 l -14.045135296466519 19.05492347599295 a44.67183841977629,44.67183841977629 0 0,0 -0.6133805280096994,-0.46029218338933076 l 14.370168813386984 -18.811012265339606" fill="#f6ff19" stroke="none" /><path d="M 87.2517909369889 116.68781488649013 l -10.71495612815087 14.026221526462027 a38.65064234348384,38.65064234348384 0 0,0 -0.523789925924574,-0.40730221451399123 l 10.954155998710673 -13.840218260327243" fill="#ffb711" stroke="none" /><path d="M 86.96720088162412 116.46651593811092 l -15.69300487289191 19.827599006876227 a46.28644072063303,46.28644072063303 0 0,0 -0.6188039321578362,-0.4984646449143485 l 16.031059575405006 -19.555286068168467" fill="#e2ff1b" stroke="none" /><path d="M 86.68645165197938 116.24036423190432 l -8.304627236130083 10.130294914578293 a34.09922549570792,34.09922549570792 0 0,0 -0.4495019429720528,-0.37499050791787913 l 8.477303513264028 -9.986242222748544" fill="#ff770a" stroke="none" /><path d="M 86.40962598614128 116.0094264158162 l -7.353008950564159 8.661826054886564 a32.36195279132018,32.36195279132018 0 0,0 -0.42042879982941206,-0.3631563838178218 l 7.500617230156434 -8.53432553860402" fill="#ff5d08" stroke="none" /><path d="M 86.13680546590413 115.77377054828092 l -8.699314064577068 9.898222494431808 a34.1777416025442,34.1777416025442 0 0,0 -0.4373692606094036,-0.39109828978962213 l 8.867948352009842 -9.747428674758805" fill="#ff780b" stroke="none" /><path d="M 85.60350026404147 115.28858382429668 l -23.47656406389846 24.93129748065706 a55.244979987077606,55.244979987077606 0 0,0 -0.6848470623074461,-0.6560679938232388 l 23.901083612071222 -24.52461735652824" fill="#76ff27" stroke="none" /><path d="M 85.34317274990678 115.03919595460226 l -26.360523720296296 27.04821957241503 a58.76881508395358,58.76881508395358 0 0,0 -0.7164424526609643,-0.710319049689662 l 26.820958093087224 -26.591720512496707" fill="#4fff2b" stroke="none" /><path d="M 84.58840730492382 114.26474011684316 l -18.672740253332115 17.283209610658727 a46.443674322203854,46.443674322203854 0 0,0 -0.5365401034246478,-0.5897515616556513 l 18.966678057598642 -16.960120473445404" fill="#e0ff1b" stroke="none" /><path d="M 84.1078160697243 113.72728997021213 l -15.715432865491024 13.574616610182554 a41.76644038498653,41.76644038498653 0 0,0 -0.4640160764177838,-0.5466097712683201 l 15.94614350541592 -13.30284005646468" fill="#ffe215" stroke="none" /><path d="M 83.64595745247003 113.17365903436017 l -19.99920901405058 16.109947111993844 a46.6807078784624,46.6807078784624 0 0,0 -0.4973353044679508,-0.6283669105326745 l 20.272810749160094 -15.76426025754649" fill="#ddff1b" stroke="none" /><path d="M 83.4222238831116 112.89097897827486 l -26.449411547061864 20.567222396830843 a54.50495498141357,54.50495498141357 0 0,0 -0.5680143629559773,-0.7435490346153731 l 26.798577887372137 -20.1101524489746" fill="#7eff26" stroke="none" /><path d="M 83.20337586046588 112.60449989151573 l -32.21772317245082 24.17678009929581 a61.28024804276136,61.28024804276136 0 0,0 -0.6241772045594564,-0.846816254687973 l 32.628002396594106 -23.620157535338958" fill="#34ff2f" stroke="none" /><path d="M 82.98947788004972 112.3143062007846 l -14.319705888866494 10.366362759310523 a38.67810661810981,38.67810661810981 0 0,0 -0.3847272614272164,-0.54116707391231 l 14.495548248823672 -10.119018458688709" fill="#ffb811" stroke="none" /><path d="M 82.576782715395 111.72311816256416 l -19.481226755057722 13.107838780329239 a44.48049474293674,44.48049474293674 0 0,0 -0.4208184404826964,-0.6371727542909041 l 19.703369634461147 -12.771486147699273" fill="#f9ff18" stroke="none" /><path d="M 82.18462484594161 111.11811171558189 l -36.31172774372653 22.661203715857656 a63.802706988999184,63.802706988999184 0 0,0 -0.5718911147521284,-0.934141156661789 l 36.69538682293406 -22.034525443071313" fill="#32ff4a" stroke="none" /><path d="M 81.99639281039703 110.81064883170644 l -14.154766425591706 8.499530539094993 a37.510585451402584,37.510585451402584 0 0,0 -0.32674629654691906,-0.5548866451001354 l 14.298586432268396 -8.255292725701299" fill="#ffa70f" stroke="none" /><line stroke="#e1ed5e" stroke-width="0.3" x1="26.387840678322732" x2="22.057713659400548" y1="142.50000000000003" y2="145.00000000000006" /><path d="M 25.521815274538298 143.00000000000003 a86.0,86.0 0 0,1 -11.493303480769221,-40.785679425670985" fill="none" id="id57" stroke="none" /><text fill="#e1ed5e" style="font-size:6.75px; font-family:Arial;" text-anchor="middle"><textPath startOffset="21.40746469413373" xlink:href="#id57">September</textPath></text><path d="M 81.81346652052679 110.50000000000001 l -26.183096076071394 15.116817567737673 a51.23363513547532,51.23363513547532 0 0,0 -0.43320877089184917,-0.7654383889031979 l 26.438738211984624 -14.665122408735353" fill="#a5ff21" stroke="none" /><path d="M 81.29705330413844 109.54985784667822 l -53.92280787914663 27.533369918310047 a81.54548429593952,81.54548429593952 0 0,0 -0.6258813445719271,-1.2521819504352125 l 54.3875091369303 -26.603656111711082" fill="#4aeaff" stroke="none" /><path d="M 81.1358732173502 109.22738970284198 l -18.341876407090993 8.971930873856099 a41.41861831119465,41.41861831119465 0 0,0 -0.3069331483744423,-0.641372231263706 l 18.49318881342535 -8.655746140527288" fill="#ffdd14" stroke="none" /><path d="M 80.83023694016515 108.57439118712176 l -23.51252346709371 10.516852679606306 a46.75738632072701,46.75738632072701 0 0,0 -0.32143725476934676,-0.7355113438038083 l 23.689594603880025 -10.111679266026648" fill="#dcff1b" stroke="none" /><path d="M 80.68587082218212 108.24405325689762 l -20.530657854039184 8.763317009509876 a43.3227157158081,43.3227157158081 0 0,0 -0.2860829054416959,-0.6864948282351536 l 20.678066604017367 -8.40958967183344" fill="#fff617" stroke="none" /><path d="M 80.5471966667186 107.91128576633889 l -35.53771835075399 14.452880674296889 a59.36424357866295,59.36424357866295 0 0,0 -0.37580767623719963,-0.9472808398617186 l 35.780584701957316 -13.840698817221604" fill="#49ff2c" stroke="none" /><path d="M 80.28708602549918 107.23885506374661 l -35.997782760850356 13.218884451030554 a59.34813254680171,59.34813254680171 0 0,0 -0.3429752035280654,-0.959362685890995 l 36.21939813442236 -12.598986808758639" fill="#49ff2c" stroke="none" /><path d="M 80.16572619554312 106.89939002012753 l -14.626098041802008 5.087716135104488 a36.48572243712921,36.48572243712921 0 0,0 -0.20069680218821903,-0.5933244341847684 l 14.711280265562594 -4.835890026445558" fill="#ff990e" stroke="none" /><path d="M 80.05021161711548 106.5578916946017 l -21.577102395874213 7.092822133234797 a43.71298028915946,43.71298028915946 0 0,0 -0.22821357229644068,-0.7148757648064372 l 21.69568068394791 -6.721377334736968" fill="#fffb17" stroke="none" /><path d="M 79.83685265289637 105.86919833188381 l -51.541444320372364 15.002963268602292 a74.68062396683811,74.68062396683811 0 0,0 -0.3477325725851934,-1.2339802264034694 l 51.79139538503213 -14.115975118295827" fill="#41ffcb" stroke="none" /><path d="M 79.73907114497094 105.5222062557868 l -15.109445532623715 4.118146568636424 a36.66060265328556,36.66060265328556 0 0,0 -0.1602775696956926,-0.6086000383989287 l 15.17791258312414 -3.8581660258646924" fill="#ff9b0e" stroke="none" /><path d="M 79.64726062577567 105.17358676015961 l -19.576310415788974 4.976221555127162 a41.19887894069966,41.19887894069966 0 0,0 -0.16835131936462963,-0.6869308330362863 l 19.6588492616699 -4.639434897482777" fill="#ffda14" stroke="none" /><path d="M 79.56144815229197 104.8234425847677 l -19.63768086566886 4.634439213665085 a41.177129047686975,41.177129047686975 0 0,0 -0.15645179286874916,-0.6893554666727971 l 19.714343520095277 -4.296649413053261" fill="#ffda14" stroke="none" /><path d="M 79.407916724674 104.11899336999214 l -37.66884659054697 7.534824295685917 a59.41504367600044,59.41504367600044 0 0,0 -0.19146839522726358,-1.001843550671683 l 37.792641278056394 -6.88707817998092" fill="#48ff2c" stroke="none" /><path d="M 79.34024301695615 103.76489593502545 l -14.903606540549118 2.7159335769430366 a36.149052218203785,36.149052218203785 0 0,0 -0.10601171325432533,-0.6114473905344423 l 14.948033071295677 -2.4596931534880015" fill="#ff940d" stroke="none" /><path d="M 79.2786578344484 103.40968896794605 l -24.87718081432765 4.093530636120067 a46.211725810376514,46.211725810376514 0 0,0 -0.12208369493691423,-0.7838648984285502 l 24.94378600140283 -3.6658775557600665" fill="#e3ff1b" stroke="none" /><path d="M 79.22317932658666 103.0534771498775 l -37.89254084763674 5.568898603293855 a59.299572889832426,59.299572889832426 0 0,0 -0.13936948038319485,-1.0084081332238284 l 37.98255484457515 -4.917602161869941" fill="#49ff2c" stroke="none" /><path d="M 79.13060592940153 102.33845913500099 l -38.03765916330681 4.262199048213087 a59.275708423887956,59.275708423887956 0 0,0 -0.10462898548704187,-1.0121905228229413 l 38.10522054127552 -3.6086040031072137" fill="#49ff2c" stroke="none" /><path d="M 79.0935383218832 101.97986365728391 l -17.57986695540292 1.664831678395416 a38.65852164500348,38.65852164500348 0 0,0 -0.0568949931384777,-0.6612060625932215 l 17.60585557123914 -1.3628045684265324" fill="#ffb711" stroke="none" /><path d="M 79.00696218219943 100.54070618675478 l -22.679177790668458 0.5841351713055958 a43.6866991684358,43.6866991684358 0 0,0 -0.01287419647773166,-0.7498574022092819 l 22.685863418744855 -0.19473085312726154" fill="#fffb17" stroke="none" /><line stroke="#e1ed5e" stroke-width="0.3" x1="15.003131293944662" x2="10.003315487706104" y1="100.72959589197737" y2="100.7725132973878" /><path d="M 14.003168132696942 100.73817937305945 a86.0,86.0 0 0,1 10.791469493833604,-42.45332614584628" fill="none" id="id58" stroke="none" /><text fill="#e1ed5e" style="font-size:6.75px; font-family:Arial;" text-anchor="middle"><textPath startOffset="22.145653131862435" xlink:href="#id58">October</textPath></text><path d="M 79.00696218219943 99.45929381324524 l -30.215609188285004 -0.7782469105455748 a51.22562996651926,51.22562996651926 0 0,0 0.030187295458056772,-0.8788701700329726 l 30.197797205830096 1.296823345142686" fill="#a5ff21" stroke="none" /><path d="M 79.01933749520258 99.09900007780938 l -30.248273871382494 -1.2989910303492305 a51.27615315549663,51.27615315549663 0 0,0 0.04531447149273727,-0.8790886411006905 l 30.221517810433184 1.818051464826633" fill="#a4ff21" stroke="none" /><path d="M 79.0935383218832 98.0201363427161 l -15.959449579962318 -1.5113764681995914 a37.03085430424676,37.03085430424676 0 0,0 0.065364055877072,-0.6323379471192011 l 15.931153131603581 1.7851189376017054" fill="#ffa10e" stroke="none" /><path d="M 79.17382384314186 97.30363454192245 l -12.566466824930703 -1.6269807199178346 a33.67135173235548,33.67135173235548 0 0,0 0.07913646871381161,-0.5725920658253367 l 12.536685839661683 1.8424610939432382" fill="#ff700a" stroke="none" /><path d="M 79.22317932658666 96.9465228501225 l -38.006659928211775 -5.585670178232003 a59.41491780856402,59.41491780856402 0 0,0 0.1569643326069813,-1.0078236139515266 l 37.90517410346653 6.23728197411498" fill="#48ff2c" stroke="none" /><path d="M 79.34024301695615 96.23510406497455 l -37.68609955834633 -6.867662729558315 a59.30674733370814,59.30674733370814 0 0,0 0.19111940403605696,-1.000017481289684 l 37.56265386202811 7.513582775881314" fill="#49ff2c" stroke="none" /><path d="M 79.407916724674 95.88100663000787 l -37.5893624934222 -7.518925250178981 a59.33398504694855,59.33398504694855 0 0,0 0.2083535182511798,-0.9970470096545561 l 37.454751264346655 8.163088711118945" fill="#49ff2c" stroke="none" /><path d="M 79.64726062577567 94.8264132398404 l -37.84295810882752 -9.619531967527388 a60.046445084037494,60.046445084037494 0 0,0 0.2625188237617149,-0.9968267333049733 l 37.67224980426108 10.267739205205146" fill="#41ff2d" stroke="none" /><path d="M 79.73907114497095 94.47779374421319 l -37.065790055456425 -10.102445903861723 a59.41786310657615,59.41786310657615 0 0,0 0.2766651548698607,-0.9817870322189247 l 36.88690640851198 10.737240859983661" fill="#48ff2c" stroke="none" /><path d="M 79.94057633289273 93.78553927170692 l -31.760150986175297 -9.839375961328786 a54.24936856502731,54.24936856502731 0 0,0 0.2832211876919571,-0.8871863365675795 l 31.58656508270608 10.383131331587759" fill="#81ff25" stroke="none" /><path d="M 80.05021161711548 93.44210830539832 l -24.42324583537841 -8.028406013391763 a46.70895253119414,46.70895253119414 0 0,0 0.2569316647827289,-0.7595728131651748 l 24.281828749023315 8.446480501031099" fill="#dcff1b" stroke="none" /><path d="M 80.16572619554312 93.10060997987247 l -19.086706058455295 -6.63934715206075 a41.20849521284183,41.20849521284183 0 0,0 0.23814552246549828,-0.6661354107097115 l 18.969920365945853 6.966017519151383" fill="#ffda14" stroke="none" /><path d="M 80.41425534168474 92.42381321644754 l -35.76274129550461 -13.833796604285656 a59.34511172832772,59.34511172832772 0 0,0 0.3756865613069934,-0.9469755511194713 l 35.51999605923149 14.44567317261871" fill="#49ff2c" stroke="none" /><path d="M 80.5471966667186 92.08871423366112 l -19.1599191470671 -7.7921723175528745 a41.68382099972309,41.68382099972309 0 0,0 0.2752604130299619,-0.6605247862370192 l 19.02333288950066 8.119929613231157" fill="#ffe015" stroke="none" /><path d="M 80.68587082218212 91.75594674310238 l -17.851905421053377 -7.61991688433404 a40.410143237142634,40.410143237142634 0 0,0 0.27780264315638953,-0.6356668131913548 l 17.718468895880008 7.925245767301262" fill="#ffcf13" stroke="none" /><path d="M 80.9802524753101 91.09779779509293 l -48.36852727276257 -22.638913033768837 a74.40444563785421,74.40444563785421 0 0,0 0.5513750019640373,-1.152161691057526 l 47.97277301283863 23.46588722689145" fill="#40ffc8" stroke="none" /><path d="M 81.29705330413844 90.45014215332179 l -18.018578534939223 -9.200414587395068 a41.23157930068052,41.23157930068052 0 0,0 0.3272843606115873,-0.6276109155332293 l 17.857986105352698 9.508371746032783" fill="#ffda14" stroke="none" /><path d="M 81.46374523516351 90.13048839642627 l -40.05160324676751 -21.32522281337937 a66.37505978703228,66.37505978703228 0 0,0 0.544132152947464,-1.0011418745416962 l 39.6796257442047 22.009619521395685" fill="#36ff6a" stroke="none" /><path d="M 81.63589988554816 89.8137432299009 l -17.658559899004928 -9.794905505872578 a41.19318973257365,41.19318973257365 0 0,0 0.34831124213568554,-0.6154325903151444 l 17.487815291847873 10.096594866286827" fill="#ffda14" stroke="none" /><line stroke="#e1ed5e" stroke-width="0.3" x1="26.387840678322718" x2="22.05771365940052" y1="57.49999999999999" y2="54.99999999999999" /><path d="M 25.521815274538284 56.99999999999999 a86.0,86.0 0 0,1 29.574782752854787,-30.34633250058573" fill="none" id="id59" stroke="none" /><text fill="#e1ed5e" style="font-size:6.75px; font-family:Arial;" text-anchor="middle"><textPath startOffset="21.40746469413373" xlink:href="#id59">November</textPath></text><path d="M 81.99639281039701 89.18935116829357 l -17.56688195451402 -10.548407876170709 a41.4905893113373,41.4905893113373 0 0,0 0.37189800390563493,-0.6074674401598084 l 17.383215986152994 10.84841243245506" fill="#ffde14" stroke="none" /><path d="M 82.18462484594161 88.88188828441811 l -32.4797214038815 -20.269748345830834 a59.28570229833939,59.28570229833939 0 0,0 0.5462254540125232,-0.8587571393440986 l 32.126978258243085 20.824319159853605" fill="#49ff2c" stroke="none" /><path d="M 82.37810715431573 88.57770195909679 l -32.131942403787484 -20.827536859020377 a59.29161806785094,59.29161806785094 0 0,0 0.5609426422346727,-0.8493386552688023 l 31.769675322632082 21.376055392628242" fill="#49ff2c" stroke="none" /><path d="M 82.78059297857968 87.97951657250589 l -37.287182637476555 -26.02934934949714 a66.47373985718241,66.47373985718241 0 0,0 0.6612076476386571,-0.9300713617060585 l 36.83485989130792 26.665597937912718" fill="#36ff6b" stroke="none" /><path d="M 82.98947788004972 87.6856937992154 l -16.559102828318483 -11.987513446106261 a41.442709338524665,41.442709338524665 0 0,0 0.4221196109754876,-0.5726863227068674 l 16.350881197759175 12.270006078081993" fill="#ffdd14" stroke="none" /><path d="M 83.42222388311158 87.10902102172516 l -47.38443033896304 -36.846419633742315 a81.02451897661382,81.02451897661382 0 0,0 0.8632335636280158,-1.090667408028335 l 46.744930344693465 37.654406985685334" fill="#49efff" stroke="none" /><path d="M 83.64595745247003 86.82634096563983 l -17.69571505468687 -14.2544154341122 a43.72282312268719,43.72282312268719 0 0,0 0.4758566807884256,-0.580467777347884 l 17.44841155465981 14.556085493158577" fill="#fffb17" stroke="none" /><path d="M 83.8745106332314 86.54754324733833 l -29.407270137361824 -24.53259065439287 a59.29667793879486,59.29667793879486 0 0,0 0.6587732061470756,-0.7760331803795896 l 28.981802367707633 25.033790617222017" fill="#49ff2c" stroke="none" /><path d="M 84.34580500576568 86.00192230759919 l -19.918621460242 -17.811354134063393 a47.72070015859297,47.72070015859297 0 0,0 0.5512929321862186,-0.6059675047798317 l 19.609930827213915 18.150659214400882" fill="#d0ff1d" stroke="none" /><path d="M 84.58840730492382 85.73525988315684 l -14.983170108226064 -13.868198566432538 a41.41622682990274,41.41622682990274 0 0,0 0.4874180404602748,-0.5176210680182496 l 14.742896234029518 14.123361094395298" fill="#ffdd14" stroke="none" /><path d="M 84.83555147118756 85.47280134310135 l -14.749131354215397 -14.129334198489246 a41.42486133604088,41.42486133604088 0 0,0 0.4963353272688423,-0.5092837705336475 l 14.504409225795753 14.380440661090624" fill="#ffdd14" stroke="none" /><path d="M 85.08716467003674 85.21462403516908 l -23.307531837523214 -23.10832336072582 a53.82126824028933,53.82126824028933 0 0,0 0.6561275970650452,-0.6505197025823839 l 22.90741232032819 23.505023073536876" fill="#86ff25" stroke="none" /><path d="M 85.34317274990677 84.96080404539775 l -35.5457283598833 -36.47304870499493 a71.92918698027236,71.92918698027236 0 0,0 0.8916736400144906,-0.854203176660122 l 34.914382234003504 37.07786401196062" fill="#3dffac" stroke="none" /><path d="M 85.86807049272753 84.46653392183569 l -25.795377889083646 -28.3536389852008 a59.33184530052948,59.33184530052948 0 0,0 0.7592638978741167,-0.6789384593325603 l 25.30484896438614 28.792272974416758" fill="#49ff2c" stroke="none" /><path d="M 86.13680546590413 84.22622945171909 l -5.443500507171979 -6.193704327556092 a29.24582749448281,29.24582749448281 0 0,0 0.3799458034195613,-0.32818813571427446 l 5.336375223989569 6.286236595735077" fill="#ff2f04" stroke="none" /><path d="M 86.40962598614128 83.9905735841838 l -23.04100069770907 -27.14224088612913 a56.6032154934423,56.6032154934423 0 0,0 0.7461534675023387,-0.6224677604581285 l 22.571672896044824 27.53377083049914" fill="#67ff28" stroke="none" /><path d="M 86.96720088162412 83.53348406188908 l -37.881763636148236 -47.86237085469019 a82.03961467782132,82.03961467782132 0 0,0 1.111793261107827,-0.8645371644588687 l 37.05456043040516 48.505609070769864" fill="#4ae5ff" stroke="none" /><path d="M 87.25179093698888 83.31218511350988 l -16.21803876463351 -21.229933348943593 a47.71581650206002,47.71581650206002 0 0,0 0.6551768128596194,-0.4916568947432469 l 15.851208962863135 21.505209270950843" fill="#d0ff1d" stroke="none" /><path d="M 87.54013794807813 83.09580414077388 l -11.97285545279412 -16.2434778751838 a41.1791932736442,41.1791932736442 0 0,0 0.5726241149230799,-0.4145356996917744 l 11.692250327497073 16.44661434624865" fill="#ffda14" stroke="none" /><path d="M 87.83215693770416 82.88440491214696 l -9.581823976133371 -13.478035387122862 a37.53689174561352,37.53689174561352 0 0,0 0.5283852124801105,-0.3688539147747189 l 9.349043672479496 13.640534117702707" fill="#ffa80f" stroke="none" /><path d="M 88.12776184653039 82.6780497279521 l -21.644461335082184 -31.57991594044863 a59.28542538997927,59.28542538997927 0 0,0 0.8444043236138948,-0.5681529134950593 l 21.0991607233713 31.946818528000797" fill="#49ff2c" stroke="none" /><path d="M 88.72937992617638 82.28071324371311 l -20.545602004414313 -32.301098884726464 a59.28162419339951,59.28162419339951 0 0,0 0.8633546277119057,-0.5387971411244151 l 19.98808324791271 32.649031822692415" fill="#49ff2c" stroke="none" /><path d="M 89.03521579738668 82.08984904055464 l -19.970010388314126 -32.61951116476626 a59.24701064838512,59.24701064838512 0 0,0 0.8719671553956538,-0.5235912231637783 l 19.407110476361037 32.95751638846596" fill="#4aff2c" stroke="none" /><line stroke="#e1ed5e" stroke-width="0.3" x1="56.869717070023135" x2="54.33264160355391" y1="26.7553504044142" y2="22.446841604673864" /><path d="M 56.362301976729285 25.89364864446614 a86.0,86.0 0 0,1 42.16139366436587,-11.88097634709845" fill="none" id="id60" stroke="none" /><text fill="#e1ed5e" style="font-size:6.75px; font-family:Arial;" text-anchor="middle"><textPath startOffset="22.145653131862474" xlink:href="#id60">December</textPath></text><path d="M 89.34428304082924 81.90426304109057 l -8.496231931001184 -14.428459272556475 a37.74414506641605,37.74414506641605 0 0,0 0.561143161138325,-0.32397615513712774 l 8.247296302002459 14.572182324969777" fill="#ffab0f" stroke="none" /><path d="M 89.65649057296885 81.72400993836675 l -17.18594455049376 -30.365917295321296 a55.8919134367684,55.8919134367684 0 0,0 0.8390595498103457,-0.4654121882643172 l 16.662140812527312 30.656462399018757" fill="#6fff28" stroke="none" /><path d="M 90.28995756902619 81.37971332152246 l -18.650310504995268 -35.76442952894542 a61.33520176550057,61.33520176550057 0 0,0 0.9377649351241552,-0.4788294577141037 l 18.033618348157532 36.07931693833236" fill="#34ff2f" stroke="none" /><path d="M 90.61103034731259 81.2157712731953 l -10.159998511126096 -20.326802935438344 a43.72453491982244,43.72453491982244 0 0,0 0.6742734518841883,-0.32982093359011805 l 9.809564809979854 20.49821761912568" fill="#fffb17" stroke="none" /><path d="M 91.26138138417902 80.90454125486306 l -26.215855847462933 -57.286376235410835 a84.0,84.0 0 0,0 1.3163463885775248,-0.5887849963606175 l 25.22859605602979 57.7279649826813" fill="#4dd2ff" stroke="none" /><path d="M 91.5904679813234 80.7573450057729 l -8.709254997610334 -19.928479825460872 a42.7484581239039,42.7484581239039 0 0,0 0.6749471097348652,-0.28809478630980007 l 8.365872812705037 20.075049261430078" fill="#ffef16" stroke="none" /><path d="M 91.92203290615298 80.6158196554323 l -8.55852329961073 -20.53734029805651 a43.24928465340303,43.24928465340303 0 0,0 0.6877574127004129,-0.2797049523696105 l 8.204711425719877 20.68123250700541" fill="#fff517" stroke="none" /></svg>