<?xml version="1.0" encoding="utf-8" ?>
<svg baseProfile="full" height="200mm" version="1.1" viewBox="0,0,200,200" width="200mm" xmlns="http://www.w3.org/2000/svg" xmlns:ev="http://www.w3.org/2001/xml-events" xmlns:xlink="http://www.w3.org/1999/xlink"><defs /><rect fill="#1a1a1a" height="200" width="200" x="0" y="0" /><text alignment-baseline="middle" fill="#e1ed5e" style="dominant-baseline: central; font-size:9.0px; font-family:Arial;" text-anchor="middle" x="100.0" y="100.0">2021</text><line stroke="#e1ed5e" stroke-width="0.3" x1="100.0" x2="100.0" y1="15.0" y2="10.0" /><path d="M 100.0 14.0 a86.0,86.0 0 0,1 42.46469731375804,11.215312516191453" fill="none" id="id13" stroke="none" /><text fill="#e1ed5e" style="font-size:6.75px; font-family:Arial;" text-anchor="middle"><textPath startOffset="22.20632615414155" xlink:href="#id13">January</textPath></text><line stroke="#e1ed5e" stroke-width="0.3" x1="143.23703022742887" x2="145.7803849466894" y1="26.81831364943548" y2="22.513508569990506" /><path d="M 143.74570117128098 25.957352633546492 a86.0,86.0 0 0,1 28.547481713284135,27.462654790039103" fill="none" id="id14" stroke="none" /><text fill="#e1ed5e" style="font-size:6.75px; font-family:Arial;" text-anchor="middle"><textPath startOffset="19.985693538727396" xlink:href="#id14">February</textPath></text><line stroke="#e1ed5e" stroke-width="0.3" x1="172.23445277983987" x2="176.4835382374775" y1="55.19839476539836" y2="52.563006222186495" /><path d="M 173.08426987136738 54.67131705675599 a86.0,86.0 0 0,1 12.851231095245387,41.99856678651699" fill="none" id="id15" stroke="none" /><text fill="#e1ed5e" style="font-size:6.75px; font-family:Arial;" text-anchor="middle"><textPath startOffset="22.20632615414155" xlink:href="#id15">March</textPath></text><path d="M 117.84615892207809 88.93136811851018 l 36.934779896671294 -22.907869647756144 a64.46203467181606,64.46203467181606 0 0,0 0.5767332345314246,0.947997795776156 l -37.32362892948894 22.268704078772906" fill="#30ff38" stroke="none" /><path d="M 118.21658344932153 89.55222093294921 l 9.991286414642808 -5.730314542582459 a32.51791252685824,32.51791252685824 0 0,0 0.2742999869168576,0.48794906951004596 l -10.088444042852098 5.557481963137619" fill="#ff0d01" stroke="none" /><path d="M 118.89224826269711 90.83032412892265 l 38.698537214872545 -18.782997026662272 a64.01601748040466,64.01601748040466 0 0,0 0.4726266177723641,0.9954721918435184 l -39.01612202648666 18.114082419178214" fill="#30ff31" stroke="none" /><path d="M 119.04729006885535 91.15688171328212 l 40.09562312689838 -18.615264261165912 a65.20618799950194,65.20618799950194 0 0,0 0.46388825746561896,1.022116284606802 l -40.41011370132735 17.922325967717047" fill="#31ff42" stroke="none" /><path d="M 119.196687751892 91.48605970444005 l 35.03900866213681 -15.540182328362267 a59.33052823565104,59.33052823565104 0 0,0 0.4060165760668666,0.9371422365663888 l -35.30131594804636 14.934740947209274" fill="#65ff29" stroke="none" /><path d="M 119.47837535516314 92.15188598940014 l 40.816585459798425 -16.445581850181334 a65.00512255394867,65.00512255394867 0 0,0 0.4092426901125031,1.0414780081022628 l -41.09362169979263 15.740554837183286" fill="#31ff3f" stroke="none" /><path d="M 120.73433829027371 96.67025291283417 l 16.94914040638646 -2.721878562413721 a38.16630372048478,38.16630372048478 0 0,0 0.09858557362104864,0.6495557536387923 l -16.993481873446807 2.4297236963828466" fill="#ff6b09" stroke="none" /><line stroke="#e1ed5e" stroke-width="0.3" x1="184.98032266829074" x2="189.97916517819016" y1="98.17113171792111" y2="98.06355123074" /><path d="M 185.9800911702706 98.14961562048488 a86.0,86.0 0 0,1 -9.607161424134198,41.387399972396054" fill="none" id="id16" stroke="none" /><text fill="#e1ed5e" style="font-size:6.75px; font-family:Arial;" text-anchor="middle"><textPath startOffset="21.466115282336823" xlink:href="#id16">April</textPath></text><path d="M 120.5718875245553 104.21870165774334 l 21.676429237806282 4.445211352158912 a43.12752784354785,43.12752784354785 0 0,0 -0.15539456436763782,0.7259516712113597 l -21.5967006347142 -4.817676842786441" fill="#ffb911" stroke="none" /><line stroke="#e1ed5e" stroke-width="0.3" x1="174.80103733775053" x2="179.2010983576182" y1="140.37084112569926" y2="142.7455964860345" /><path d="M 175.68104954172406 140.8457921977663 a86.0,86.0 0 0,1 -30.038265399797805,32.042727171017184" fill="none" id="id17" stroke="none" /><text fill="#e1ed5e" style="font-size:6.75px; font-family:Arial;" text-anchor="middle"><textPath startOffset="22.206326154141568" xlink:href="#id17">May</textPath></text><line stroke="#e1ed5e" stroke-width="0.3" x1="143.8653032363475" x2="146.44561519142675" y1="172.8068346515853" y2="177.08958963109032" /><path d="M 144.38136562736335 173.6633856474863 a86.0,86.0 0 0,1 -40.68145358897372,12.25698825130547" fill="none" id="id18" stroke="none" /><text fill="#e1ed5e" style="font-size:6.75px; font-family:Arial;" text-anchor="middle"><textPath startOffset="21.466115282336833" xlink:href="#id18">June</textPath></text><path d="M 105.53697534728816 120.25689768951611 l 8.573979365501883 31.36770744049966 a53.518397750086486,53.518397750086486 0 0,0 -0.890723404717661,0.23524814684498052 l -8.032765517972726 -31.510646936648225" fill="#b0ff20" stroke="none" /><line stroke="#e1ed5e" stroke-width="0.3" x1="102.19456741930631" x2="102.32365962044197" y1="184.97166512339345" y2="189.96999836594603" /><path d="M 102.22038585953345 185.97133177190398 a86.0,86.0 0 0,1 -42.740103519485714,-10.115201625700543" fill="none" id="id19" stroke="none" /><text fill="#e1ed5e" style="font-size:6.75px; font-family:Arial;" text-anchor="middle"><textPath startOffset="22.20632615414155" xlink:href="#id19">July</textPath></text><path d="M 99.45781275523022 120.99299961872073 l -0.37557536589748874 14.541938397010286 a35.5467875903208,35.5467875903208 0 0,0 -0.61153956760606,-0.021062659204342363 l 0.6258352851781918 -14.53331893937985" fill="#ff4006" stroke="none" /><path d="M 99.09653310690486 120.98055641714683 l -1.8869409470786056 43.81906110624723 a64.8596701124255,64.8596701124255 0 0,0 -1.1150054661595539,-0.05763304655417611 l 2.6409344816516485 -43.78008825293086" fill="#31ff3d" stroke="none" /><path d="M 96.58105272829116 120.7198165907248 l -7.120419346422445 43.151815802406865 a64.73533558478496,64.73533558478496 0 0,0 -1.0978836357439605,-0.19088114282521793 l 7.862151953638455 -43.022856081060645" fill="#31ff3c" stroke="none" /><path d="M 95.86986931433489 120.58985236759428 l -8.701903747804142 43.381415049691 a65.2455681458562,65.2455681458562 0 0,0 -1.099259005423559,-0.23036041248162537 l 9.447354214657087 -43.22519865648283" fill="#31ff43" stroke="none" /><path d="M 94.46302465271185 120.25689768951611 l -10.478220965678064 38.33433178889629 a60.740585153049274,60.740585153049274 0 0,0 -1.006178876468261,-0.28435620093907465 l 11.13653101025094 -38.1482867946187" fill="#54ff2b" stroke="none" /><path d="M 92.7421414339146 119.70592522655815 l -15.32618652001887 41.61236855496774 a65.34502463637692,65.34502463637692 0 0,0 -1.0521475597481904,-0.3978321784088549 l 16.040204300527343 -41.34238812645225" fill="#32ff44" stroke="none" /><line stroke="#e1ed5e" stroke-width="0.3" x1="58.666819895761336" x2="56.23545636021788" y1="174.27360380694188" y2="178.64263932499728" /><path d="M 58.180547188652646 175.14741091055294 a86.0,86.0 0 0,1 -31.652253787137756,-30.449443065178592" fill="none" id="id20" stroke="none" /><text fill="#e1ed5e" style="font-size:6.75px; font-family:Arial;" text-anchor="middle"><textPath startOffset="22.20632615414155" xlink:href="#id20">August</textPath></text><path d="M 86.51685102203217 116.09983520530335 l -27.020133876447307 32.26395431415025 a63.083849428096634,63.083849428096634 0 0,0 -0.8265021356230519,-0.7043630505588796 l 27.571501488647414 -31.794066873368415" fill="#39ff2e" stroke="none" /><path d="M 86.24171649860922 115.8653595955263 l -28.6540602664983 33.042419132729954 a64.73621647901331,64.73621647901331 0 0,0 -0.8355831676443396,-0.7373049938571136 l 29.21858578704923 -32.54429099710055" fill="#31ff3c" stroke="none" /><path d="M 85.44109423537348 115.13401014063109 l -17.938028145144454 18.646614260746006 a46.87410050852108,46.87410050852108 0 0,0 -0.576663147558011,-0.5643862613893658 l 18.25634124507826 -18.33507789643407" fill="#fff116" stroke="none" /><path d="M 84.9287848128048 114.62390073753433 l -18.80512875807836 18.24699155966795 a47.202777879196304,47.202777879196304 0 0,0 -0.5607992303606545,-0.5879957509873686 l 19.116434539817973 -17.92058869209808" fill="#fff617" stroke="none" /><path d="M 84.43433777217949 114.09645910891817 l -16.99683953848808 15.392551246994952 a43.930834877702935,43.930834877702935 0 0,0 -0.5027803519245726,-0.564879055325178 l 17.25927874006099 -15.09769802192891" fill="#ffc612" stroke="none" /><path d="M 83.72743513129214 113.27417163493432 l -18.105611944858715 14.769460281810876 a44.3655759807842,44.3655759807842 0 0,0 -0.47763152622020966,-0.5959187681641966 l 18.357161383133786 -14.45561368006842" fill="#ffcc13" stroke="none" /><path d="M 83.50135304334701 112.99209946851258 l -22.624249249478275 17.815794072199033 a49.796860463000485,49.796860463000485 0 0,0 -0.5245107646837527,-0.67800086811636 l 22.927566831380098 -17.42371520996942" fill="#e3ff1b" stroke="none" /><path d="M 83.28015986056508 112.70617746262583 l -45.27623460169946 34.407498330789466 a77.86662783295144,77.86662783295144 0 0,0 -0.8017990937772692,-1.0741409142499083 l 45.861794962171814 -33.623044537030246" fill="#44ffe7" stroke="none" /><path d="M 82.44556493220864 111.52570212397912 l -32.49966215283138 21.338278540832633 a59.87865958510322,59.87865958510322 0 0,0 -0.5582833492506981,-0.8664681558842573 l 32.86215036545912 -20.775688785026926" fill="#5fff29" stroke="none" /><path d="M 82.24976979558568 111.22182372390057 l -22.27274477511754 14.08099009620948 a47.35051122667405,47.35051122667405 0 0,0 -0.4296165104038495,-0.6926786076459291 l 22.51182592518935 -13.695515157198285" fill="#fff817" stroke="none" /><line stroke="#e1ed5e" stroke-width="0.3" x1="26.63291911575756" x2="22.317208475507996" y1="142.92168965132927" y2="145.44649492493687" /><path d="M 25.769776987707644 143.4266507060508 a86.0,86.0 0 0,1 -11.730757126820373,-40.83630448921669" fill="none" id="id21" stroke="none" /><text fill="#e1ed5e" style="font-size:6.75px; font-family:Arial;" text-anchor="middle"><textPath startOffset="21.46611528233685" xlink:href="#id21">September</textPath></text><path d="M 81.87401531095188 110.60418214915194 l -22.473997997445466 13.147885341014414 a47.03742450646078,47.03742450646078 0 0,0 -0.40283747160096306,-0.7023810870078201 l 22.696987465198806 -12.759084408148286" fill="#fff417" stroke="none" /><path d="M 81.51974371655577 109.97397251340807 l -50.94177117375537 27.49376511225874 a78.88757354015894,78.88757354015894 0 0,0 -0.634659889611176,-1.2005373333201812 l 51.40748357159143 -26.612812763852432" fill="#45fff3" stroke="none" /><path d="M 81.18737489456691 109.33194174019688 l -23.145822944471586 11.481410490891118 a46.837025886064595,46.837025886064595 0 0,0 -0.3520510479032097,-0.7253294327565738 l 23.340027248989514 -11.081292102169261" fill="#fff116" stroke="none" /><path d="M 80.73074385275274 108.34839909993369 l -23.87581011122691 10.344187140365005 a47.020309684211256,47.020309684211256 0 0,0 -0.31536973728833523,-0.7454409002352447 l 24.050330829707555 -9.9316717144636" fill="#fff316" stroke="none" /><path d="M 80.58989483394504 108.01547362559985 l -33.441210289826124 13.80966959184793 a57.18040242844712,57.18040242844712 0 0,0 -0.3678534706568438,-0.9129821467267193 l 33.67396637474035 -13.231988077278405" fill="#80ff25" stroke="none" /><path d="M 80.32549172779594 107.34259656027581 l -45.27431676116422 16.896536265102853 a69.32449374745866,69.32449374745866 0 0,0 -0.4076139569479123,-1.1215785462921304 l 45.55845497911736 -16.114709921804604" fill="#37ff7b" stroke="none" /><path d="M 80.0844068197444 106.66101706037122 l -25.010539265504192 8.365084947696731 a47.37236660850727,47.37236660850727 0 0,0 -0.25199335418425445,-0.7755557976504559 l 25.150824870704696 -7.9333302500684715" fill="#fff917" stroke="none" /><path d="M 79.67330655649465 105.27499134158121 l -54.656830237951404 14.184023932116126 a77.46729696529738,77.46729696529738 0 0,0 -0.32384534217608846,-1.2936011620411763 l 54.89288689442255 -13.241094930677558" fill="#43ffe2" stroke="none" /><path d="M 79.50377843672027 104.57218783832718 l -25.484116359911674 5.684860818447261 a47.11049270256375,47.11049270256375 0 0,0 -0.16974574840498594,-0.7929956252786641 l 25.5781961470411 -5.245351373752433" fill="#fff517" stroke="none" /><path d="M 79.35854240842038 103.8639653848113 l -27.686321229306287 5.1827244460898 a49.167233018108696,49.167233018108696 0 0,0 -0.14856361215890976,-0.8332236337845575 l 27.771431283804386 -4.7053820615720285" fill="#ecff1a" stroke="none" /><line stroke="#e1ed5e" stroke-width="0.3" x1="15.007084014347285" x2="10.007500721073583" y1="101.09737516637583" y2="101.16192664675087" /><path d="M 14.007167355692545 101.11028546245083 a86.0,86.0 0 0,1 10.666146001902534,-42.60595125391555" fill="none" id="id22" stroke="none" /><text fill="#e1ed5e" style="font-size:6.75px; font-family:Arial;" text-anchor="middle"><textPath startOffset="22.20632615414155" xlink:href="#id22">October</textPath></text><path d="M 79.03285615573316 98.82574320788736 l -15.23462028255679 -0.8532090243154861 a36.258493398526085,36.258493398526085 0 0,0 0.040263173196381646,-0.6228534684457283 l 15.217676518355995 1.115321557014226" fill="#ff4c07" stroke="none" /><path d="M 79.21141760316559 97.0276538004421 l -20.721697415911652 -2.962783002074868 a41.932434806156294,41.932434806156294 0 0,0 0.10831368866545975,-0.7136518771086187 l 20.667627833806893 3.319033991575579" fill="#ffa70f" stroke="none" /><path d="M 79.26566170972629 96.67025291283419 l -28.98745855127158 -4.655123511740583 a50.35886455861752,50.35886455861752 0 0,0 0.14481324222143466,-0.8546959529985549 l 28.90303344752992 5.1534052530549666" fill="#dbff1b" stroke="none" /><path d="M 79.62865764111835 94.90015583598534 l -56.34685007474822 -14.10609813785923 a79.08570838012625,79.08570838012625 0 0,0 0.34196535321669697,-1.3177320023907786 l 56.09568838966121 15.073926565798871" fill="#46fff5" stroke="none" /><path d="M 79.71946130924805 94.55025226153421 l -11.367356786618407 -3.0546144698048185 a32.770618924823815,32.770618924823815 0 0,0 0.15107759279292038,-0.5435064834038772 l 11.313092423259127 3.2498322566276383" fill="#ff1101" stroke="none" /><path d="M 79.81627453868168 94.20196356495316 l -29.08351472824888 -8.354616117662678 a51.25971644648671,51.25971644648671 0 0,0 0.2509141222107087,-0.8459576840027337 l 28.935394708926463 8.85400318841195" fill="#cfff1d" stroke="none" /><path d="M 80.02781315780177 93.51064311812611 l -29.879851108869456 -9.708552145778325 a52.41753470684013,52.41753470684013 0 0,0 0.28620649444277785,-0.8557209893336898 l 29.708307320654903 10.221446238034337" fill="#bfff1e" stroke="none" /><path d="M 80.52162464483688 92.15188598940014 l -31.604403275747995 -12.733862841353409 a55.07329701215472,55.07329701215472 0 0,0 0.361853362826305,-0.8762566200351697 l 31.38052822603549 13.27599403184189" fill="#9bff22" stroke="none" /><path d="M 80.65960295795068 91.81776055985345 l -32.274054167386325 -13.654013323908098 a56.04349657566788,56.04349657566788 0 0,0 0.3835224338487326,-0.8852226549765252 l 32.03424102369491 14.20753512347122" fill="#8fff24" stroke="none" /><path d="M 80.95270993114464 91.15688171328213 l -27.914175254656595 -12.959762399834945 a51.77590976084798,51.77590976084798 0 0,0 0.3822585983242075,-0.8051340961674431 l 27.686958462490633 13.43833891164292" fill="#c7ff1e" stroke="none" /><path d="M 81.10775173730289 90.83032412892265 l -31.90632324492723 -15.48627978658772 a56.46601647546929,56.46601647546929 0 0,0 0.4319381026281794,-0.870760857678114 l 31.635025129345635 16.033200232764795" fill="#89ff24" stroke="none" /><path d="M 81.6062741919709 89.86733742301443 l -17.907999253513776 -9.86508746289763 a41.445449075881655,41.445449075881655 0 0,0 0.34960688604743456,-0.6219116400937359 l 17.73553472617391 10.17188261292615" fill="#ff9f0e" stroke="none" /><line stroke="#e1ed5e" stroke-width="0.3" x1="26.266209847984243" x2="21.928928074336255" y1="57.711370442889674" y2="55.22380399835377" /><path d="M 25.398753493254645 57.213857153982495 a86.0,86.0 0 0,1 29.58750427330803,-30.492523968695096" fill="none" id="id23" stroke="none" /><text fill="#e1ed5e" style="font-size:6.75px; font-family:Arial;" text-anchor="middle"><textPath startOffset="21.46611528233685" xlink:href="#id23">November</textPath></text><path d="M 81.78341655067845 89.55222093294921 l -50.18805480784813 -28.784415579144305 a78.85657633863633,78.85657633863633 0 0,0 0.6854526245243021,-1.1716607280448332 l 49.68514250885351 29.644055719543033" fill="#45fff2" stroke="none" /><path d="M 82.15384107792192 88.93136811851018 l -31.656986146158932 -19.634450620954926 a58.25152913700075,58.25152913700075 0 0,0 0.5358375193210847,-0.8475662739073568 l 31.314321030591884 20.1764645425765" fill="#73ff27" stroke="none" /><path d="M 82.54541684631803 88.32363383020206 l -46.85270157382705 -31.34244426254722 a77.3695348314759,77.3695348314759 0 0,0 0.7500259235370814,-1.1005704944527095 l 46.306251184621225 32.14429278027035" fill="#43ffe1" stroke="none" /><path d="M 82.7489923806493 88.02491185347247 l -8.836635812696706 -6.134105039586537 a31.75701525158884,31.75701525158884 0 0,0 0.31558515789058844,-0.446372825277539 l 8.729738035002239 6.285304365195862" fill="#ff0000" stroke="none" /><path d="M 83.17141714833178 87.43820079747576 l -29.407411740316327 -21.951343413993285 a57.69683014844144,57.69683014844144 0 0,0 0.6009373774412926,-0.7907631476251437 l 29.025198422650927 22.454291337499455" fill="#7aff26" stroke="none" /><path d="M 83.6137871275137 86.86637796730984 l -45.95197772663163 -36.83071322291473 a79.89045502878574,79.89045502878574 0 0,0 0.8692899734657471,-1.0656467214655467 l 45.31118926108949 37.616244113988365" fill="#47fffe" stroke="none" /><path d="M 83.84228863543731 86.58626213691792 l -13.250743721589442 -11.000444231359868 a38.22184608172134,38.22184608172134 0 0,0 0.4246071916092541,-0.5026009868628948 l 13.059425916493064 11.22690416785188" fill="#ff6c0a" stroke="none" /><path d="M 84.5562425177563 85.77008943001954 l -11.207796340790642 -10.326887080386518 a36.24005562941599,36.24005562941599 0 0,0 0.4266536192952462,-0.4551243335008467 l 11.02837539952494 10.518280830765415" fill="#ff4c07" stroke="none" /><path d="M 84.80347519578584 85.50635884689758 l -38.84607011753509 -37.049325931128465 a74.6811858617844,74.6811858617844 0 0,0 0.8952344433543125,-0.9226177872058461 l 38.20257141047767 37.71250791388444" fill="#3fffc0" stroke="none" /><path d="M 85.31137513191541 84.99185889309783 l -37.7877847153086 -38.609768458097086 a75.02435463824051,75.02435463824051 0 0,0 0.9307191200202545,-0.8953510560516827 l 37.11758235167592 39.25450260091108" fill="#40ffc4" stroke="none" /><path d="M 86.10567301691215 84.25364557470407 l -13.485137986719877 -15.282623078568326 a41.381548387756624,41.381548387756624 0 0,0 0.5381694041092832,-0.46669520403419745 l 13.22007478396382 15.512483276022204" fill="#ff9e0e" stroke="none" /><path d="M 86.65592168130627 83.78471172551755 l -18.894089074029345 -22.959480130593708 a50.73422825305009,50.73422825305009 0 0,0 0.679105673256442,-0.5491228924727608 l 18.4960800022084 23.2813091203306" fill="#d6ff1c" stroke="none" /><path d="M 87.22198572758235 83.33499621200491 l -32.6631965997075 -42.59913030752656 a74.68026001305108,74.68026001305108 0 0,0 1.0268672531948577,-0.7734151259156152 l 31.92508319275425 43.15506202294802" fill="#3fffc0" stroke="none" /><path d="M 87.80319425747018 82.90503203632743 l -31.375292937943474 -43.97541774029564 a75.02079573993032,75.02079573993032 0 0,0 1.0576819762975316,-0.7409738163986569 l 30.61367982206228 44.50897639945824" fill="#40ffc4" stroke="none" /><path d="M 88.70189139769569 82.29822771554957 l -31.944921037040633 -50.051007451557865 a80.37660588968237,80.37660588968237 0 0,0 1.172659649615386,-0.7343193650091551 l 31.078642235053003 50.59347115788995" fill="#48faff" stroke="none" /><line stroke="#e1ed5e" stroke-width="0.3" x1="56.762969772571076" x2="54.21961505331055" y1="26.818313649435495" y2="22.513508569990535" /><path d="M 56.25429882871897 25.957352633546506 a86.0,86.0 0 0,1 42.265352541879196,-11.944610805530505" fill="none" id="id24" stroke="none" /><text fill="#e1ed5e" style="font-size:6.75px; font-family:Arial;" text-anchor="middle"><textPath startOffset="22.20632615414155" xlink:href="#id24">December</textPath></text><path d="M 89.63071344664047 81.73862282372117 l -31.107859660078574 -54.78413152883649 a84.0,84.0 0 0,0 1.2635036437118177,-0.7031384097592617 l 30.16023192729471 55.31148533615593" fill="#4dd2ff" stroke="none" /><path d="M 90.26544431104013 81.39251694778311 l -12.632954283154737 -24.147736191989388 a48.25260899653814,48.25260899653814 0 0,0 0.7392748043388674,-0.3786852683715497 l 12.215418991227105 24.361613985673443" fill="#f9ff18" stroke="none" /><path d="M 90.91171255644093 81.06846463323043 l -23.672150686456934 -49.310737662216546 a75.69844208854823,75.69844208854823 0 0,0 1.179532362954655,-0.5538062602094518 l 22.81984011220267 49.710908905066006" fill="#41ffcd" stroke="none" /><path d="M 92.23578459929587 80.48803036053334 l -8.029811700427869 -20.179430119258885 a42.7183626427588,42.7183626427588 0 0,0 0.6855622559170776,-0.26598750444714364 l 7.6812662795111155 20.31466032759658" fill="#ffb310" stroke="none" /><path d="M 99.63851952072746 79.00311137660856 l -0.38305889514558195 -22.250288518365746 a43.253585627212274,43.253585627212274 0 0,0 0.7445393744181122,-0.006408485455086018 l 5.450556481583411e-15 22.253585627212274" fill="#ffbb11" stroke="none" /></svg>