<?xml version="1.0" encoding="utf-8" ?>
<svg baseProfile="full" height="200mm" version="1.1" viewBox="0,0,200,200" width="200mm" xmlns="http://www.w3.org/2000/svg" xmlns:ev="http://www.w3.org/2001/xml-events" xmlns:xlink="http://www.w3.org/1999/xlink"><defs /><rect fill="#1a1a1a" height="200" width="200" x="0" y="0" /><text alignment-baseline="middle" fill="#e1ed5e" style="dominant-baseline: central; font-size:9.0px; font-family:Arial;" text-anchor="middle" x="100.0" y="100.0">2025</text><line stroke="#e1ed5e" stroke-width="0.3" x1="100.0" x2="100.0" y1="15.0" y2="10.0" /><path d="M 100.0 14.0 a86.0,86.0 0 0,1 42.46469731375804,11.215312516191453" fill="none" id="id61" stroke="none" /><text fill="#e1ed5e" style="font-size:6.75px; font-family:Arial;" text-anchor="middle"><textPath startOffset="22.20632615414155" xlink:href="#id61">January</textPath></text><path d="M 100.0 79.0 l 0.0 -38.649699894205014 a59.649699894205014,59.649699894205014 0 0,0 1.0267715288676054,0.008837746712304091 l -0.665291049595077 38.64397352410127" fill="#3dff2e" stroke="none" /><path d="M 100.72285384407766 79.0124445844662 l 0.9891773139224721 -28.720070954629026 a49.737100539151555,49.737100539151555 0 0,0 0.855381420480386,0.03683452330850023 l -1.4833995667921895 28.698788704796332" fill="#a9ff21" stroke="none" /><path d="M 101.08401301168833 79.027996857942 l 1.4974609730883954 -28.97082958792788 a50.009504586922546,50.009504586922546 0 0,0 0.8593012939852934,0.05183540070323764 l -1.9959243159133009 28.940760917844337" fill="#a5ff21" stroke="none" /><path d="M 101.44485096284872 79.0497635885617 l 1.6456489288023515 -23.86179266591203 a44.91847214242251,44.91847214242251 0 0,0 0.7709075256658785,0.05983726100376333 l -2.056146643830571 23.829930142719803" fill="#e2ff1b" stroke="none" /><path d="M 101.80526077348638 79.07773832637324 l 2.465850150137048 -28.57823248963899 a49.68441718415747,49.68441718415747 0 0,0 0.8514368247497122,0.08085418587377638 l -2.9574121019770043 28.531552759250033" fill="#a9ff21" stroke="none" /><path d="M 102.52436894288641 79.15227682838746 l 2.4855125481216884 -20.52682421435652 a41.67675711889956,41.67675711889956 0 0,0 0.7114525519372031,0.09236696006640897 l -2.838479828566738 20.480998931125974" fill="#fff417" stroke="none" /><path d="M 102.88285421437855 79.19881850522331 l 3.9867715120862046 -28.766476427246957 a50.04142753256005,50.04142753256005 0 0,0 0.852207940441666,0.125593297686908 l -4.481348432956526 28.69358864539908" fill="#a5ff21" stroke="none" /><path d="M 103.2404852339499 79.25152402106235 l 4.186227623919612 -26.80396206940533 a48.128893901841764,48.128893901841764 0 0,0 0.8174367045537024,0.1348840603193189 l -4.646993534612189 26.727931746146385" fill="#bbff1f" stroke="none" /><path d="M 103.59715602781102 79.31037775812273 l 1.3138801939415385 -7.556993545336124 a28.670360656988933,28.670360656988933 0 0,0 0.4854914347316526,0.08872045651405475 l -1.443766749776092 7.533257607471331" fill="#ff4206" stroke="none" /><path d="M 103.95276090670814 79.375362276772 l 9.704179597581053 -50.634276477888804 a72.55580526091501,72.55580526091501 0 0,0 1.224581646315721,0.24563955798493012 l -10.5743276533639 50.45973296382667" fill="#3effb8" stroke="none" /><path d="M 104.307194497241 79.44645832069477 l 3.530701153585629 -16.84818583508995 a38.21415744582512,38.21415744582512 0 0,0 0.6426479877302751,0.14045795887889923 l -3.820191865469432 16.78491437811518" fill="#ffc712" stroke="none" /><path d="M 105.01212808612495 79.60689891045804 l 6.7013026108859 -27.26593160173295 a49.07736602306288,49.07736602306288 0 0,0 0.8186364326014518,0.20868865437063433 l -7.169647932172377 27.14653995119345" fill="#b0ff20" stroke="none" /><path d="M 105.36241919743992 79.69619591428918 l 2.446809244776753 -9.264388648461273 a30.582054712328826,30.582054712328826 0 0,0 0.5078108109554772,0.13880387729864802 l -2.6059179449559413 9.22089823033633" fill="#ff5e08" stroke="none" /><path d="M 106.0581310904928 79.89281104454417 l 8.375387530851693 -27.798259420679674 a50.03257382856973,50.03257382856973 0 0,0 0.8224750631691987,0.25554700573012956 l -8.85264796673161 27.649972280067022" fill="#a5ff21" stroke="none" /><path d="M 106.40334571778207 80.00007090966166 l 6.404553980749126 -20.0037029258813 a42.003962541369226,42.003962541369226 0 0,0 0.6866991368732427,0.2263939088767681 l -6.747935939864786 19.890495292745296" fill="#fff817" stroke="none" /><path d="M 106.74666289553966 80.11325718540242 l 9.829203842098089 -28.972968103873782 a51.59487095768837,51.59487095768837 0 0,0 0.8385837121853429,0.29256539115864677 l -10.326469558346705 28.79948185954293" fill="#93ff23" stroke="none" /><path d="M 107.4271985657038 80.35727306442388 l 9.669852522501715 -25.57387835083336 a48.34098209117873,48.34098209117873 0 0,0 0.775796418341754,0.30099695759609674 l -10.108632105843137 25.403638689346717" fill="#b9ff1f" stroke="none" /><path d="M 108.09893153111575 80.62456947434976 l 9.845272526903367 -23.553278987262857 a46.528148036644495,46.528148036644495 0 0,0 0.7362885386911248,0.3152403269367108 l -10.249244823384807 23.380319132363354" fill="#ceff1d" stroke="none" /><path d="M 108.43124777332544 80.76684994638697 l 8.46236377984152 -19.304131103925236 a42.07750171201292,42.07750171201292 0 0,0 0.6608529749936443,0.2965054664777982 l -8.793398873301944 19.15560530693091" fill="#fff917" stroke="none" /><path d="M 109.08828744355905 81.06846463323043 l 11.735710586488082 -24.446302056580354 a48.117311577871675,48.117311577871675 0 0,0 0.7435928648205227,0.3648777893790748 l -12.154774718319036 24.240669107066445" fill="#bbff1f" stroke="none" /><path d="M 109.73455568895987 81.39251694778311 l 12.23330871826258 -23.383818627260887 a47.39046827528743,47.39046827528743 0 0,0 0.7195564550913486,0.38436213849167505 l -12.63401021988224 23.169777762267454" fill="#c4ff1e" stroke="none" /><path d="M 110.05341064243156 81.56283822128135 l 11.889831001980934 -21.805011801659266 a45.83599446219472,45.83599446219472 0 0,0 0.6894517382873767,0.3836791459033664 l -12.263406829340346 21.59711725819572" fill="#d7ff1c" stroke="none" /><line stroke="#e1ed5e" stroke-width="0.3" x1="143.23703022742887" x2="145.7803849466894" y1="26.81831364943548" y2="22.513508569990506" /><path d="M 143.74570117128098 25.957352633546492 a86.0,86.0 0 0,1 28.547481713284135,27.462654790039103" fill="none" id="id62" stroke="none" /><text fill="#e1ed5e" style="font-size:6.75px; font-family:Arial;" text-anchor="middle"><textPath startOffset="19.985693538727396" xlink:href="#id62">February</textPath></text><path d="M 110.68208982089419 81.91981866633111 l 11.719530847144393 -19.836122557913427 a44.03951304628053,44.03951304628053 0 0,0 0.6493478011634143,0.39122478459881954 l -12.059240714525444 19.631451163855992" fill="#edff1a" stroke="none" /><path d="M 110.99172775467656 82.1063720568725 l 10.011997633578407 -16.298707957582295 a40.128198495972796,40.128198495972796 0 0,0 0.5854529270938198,0.36661056923659524 l -10.29106971304449 16.123953047022752" fill="#ffe015" stroke="none" /><path d="M 111.60114157652 82.49532879139004 l 10.793136984444967 -16.285493369426714 a40.53737700538727,40.53737700538727 0 0,0 0.5783241834231535,0.39048707023084067 l -11.071865862274663 16.097294386897204" fill="#ffe515" stroke="none" /><path d="M 112.19680574252982 82.90503203632743 l 11.540391483803134 -16.174941773151065 a40.86981069271329,40.86981069271329 0 0,0 0.5691698836580004,0.41352612613739825 l -11.817106683814924 15.973896412196993" fill="#ffe915" stroke="none" /><path d="M 112.48926042617603 83.11751280151076 l 15.913816997566082 -21.51166703013254 a47.75820229102311,47.75820229102311 0 0,0 0.6566840286246729,0.49460079587244576 l -16.28174717994914 21.234549644754246" fill="#c0ff1e" stroke="none" /><path d="M 112.77801427241765 83.33499621200491 l 10.531087516821263 -13.734576407413016 a38.30729306905083,38.30729306905083 0 0,0 0.5198253059355371,0.4057318966150623 l -10.76594537791623 13.551266121574729" fill="#ffc812" stroke="none" /><path d="M 113.06298171725822 83.55741782278167 l 18.079903013120944 -22.75746054644056 a50.06518369951682,50.06518369951682 0 0,0 0.6701501422942198,0.5418814759167361 l -18.468956553979655 22.442872973259693" fill="#a5ff21" stroke="none" /><path d="M 113.34407831869373 83.78471172551755 l 18.497837942048957 -22.47796869303337 a50.110635257501585,50.110635257501585 0 0,0 0.6613230895146326,0.5538390688345993 l -18.882018568522703 22.156228466804954" fill="#a4ff21" stroke="none" /><path d="M 113.89432698308785 84.25364557470407 l 13.93396471353681 -15.791275618889806 a42.059908791583894,42.059908791583894 0 0,0 0.5387453965548041,0.48369093639240246 l -14.203721097687605 15.549085673728106" fill="#fff817" stroke="none" /><path d="M 114.16331599549186 84.49514656593476 l 9.138995802716659 -10.0046338372145 a34.55042222585001,34.55042222585001 0 0,0 0.4356514008078278,0.4048904980460238 l -9.309855087319333 9.845838753093835" fill="#ff950d" stroke="none" /><path d="M 114.42810811169701 84.74124197986012 l 7.232038559726297 -7.648398911408288 a31.526176306589182,31.526176306589182 0 0,0 0.3910998663188403,0.37623776153070637 l -7.362621669657555 7.522778063115279" fill="#ff6b09" stroke="none" /><path d="M 114.68862486808459 84.99185889309783 l 27.410827598738848 -28.007085220938475 a60.18865004335686,60.18865004335686 0 0,0 0.7341989227316932,0.731046039229834 l -27.888862321637863 27.53110333105852" fill="#37ff2e" stroke="none" /><path d="M 115.4437574822437 85.77008943001954 l 12.780040967311136 -11.77555658036035 a38.37795096964596,38.37795096964596 0 0,0 0.4434597077576463,0.4896792853629782 l -12.980844315684818 11.553824507727823" fill="#ffc912" stroke="none" /><path d="M 115.68641384162765 86.03803664274999 l 15.690428483827151 -13.965536658824723 a42.00537455450561,42.00537455450561 0 0,0 0.47607718654439785,0.54423852248331 l -15.928497533949399 13.693382580138465" fill="#fff817" stroke="none" /><path d="M 115.9244219780498 86.31012108654704 l 18.473539910524245 -15.881300107879278 a45.36159621088607,45.36159621088607 0 0,0 0.503922807203939,0.5964856582940199 l -18.7441733312153 15.560955499956151" fill="#ddff1b" stroke="none" /><path d="M 116.15771136456269 86.58626213691792 l 8.275026146038973 -6.869724865649081 a31.75496059720099,31.75496059720099 0 0,0 0.34552649431022125,0.4235746265117616 l -8.392051132425603 6.726266069529219" fill="#ff6f0a" stroke="none" /><path d="M 116.38621287248628 86.86637796730983 l 31.434085856318294 -25.194558730114654 a61.28483018739916,61.28483018739916 0 0,0 0.6526715329954129,0.8288265670722763 l -31.863111469907672 24.64973976908934" fill="#30ff33" stroke="none" /><path d="M 116.60985879189232 87.15038557335679 l 19.38530135020202 -14.996734831723595 a45.50901801482826,45.50901801482826 0 0,0 0.47399605602939004,0.6237232485415178 l -19.640573346455522 14.660826807301044" fill="#dbff1b" stroke="none" /><path d="M 116.82858285166822 87.43820079747576 l 7.6655967139201815 -5.7220318274304045 a30.565721154967378,30.565721154967378 0 0,0 0.31109701839522425,0.4243359834732247 l -7.762956344829032 5.589233400285686" fill="#ff5e08" stroke="none" /><path d="M 117.2510076193507 88.02491185347247 l 13.157166144050276 -9.133276606798 a37.016484087290394,37.016484087290394 0 0,0 0.35884050129214146,0.5265541570540443 l -13.31243111101115 8.905444426473549" fill="#ffb711" stroke="none" /><path d="M 117.45458315368197 88.32363383020206 l 16.14697058859823 -10.80162954711751 a40.42678203054274,40.42678203054274 0 0,0 0.38194331316721236,0.5817258695781897 l -16.330510537123367 10.522085613561647" fill="#ffe415" stroke="none" /><path d="M 117.65298651832404 88.62581576622439 l 24.498476575348743 -15.784875025288787 a50.14339777851747,50.14339777851747 0 0,0 0.4612533657748298,0.7295920544203933 l -24.76655753736953 15.360835323154188" fill="#a4ff21" stroke="none" /><line stroke="#e1ed5e" stroke-width="0.3" x1="172.23445277983987" x2="176.4835382374775" y1="55.19839476539836" y2="52.563006222186495" /><path d="M 173.08426987136738 54.67131705675599 a86.0,86.0 0 0,1 12.851231095245387,41.99856678651699" fill="none" id="id63" stroke="none" /><text fill="#e1ed5e" style="font-size:6.75px; font-family:Arial;" text-anchor="middle"><textPath startOffset="22.20632615414155" xlink:href="#id63">March</textPath></text><path d="M 117.84615892207809 88.93136811851018 l 4.08742874028594 -2.5351250241348025 a25.809774692738735,25.809774692738735 0 0,0 0.2309166149789351,0.37956619958961996 l -4.130461153551099 2.464391051338101" fill="#ff1802" stroke="none" /><path d="M 118.03404312379186 89.2402003453031 l 32.821769605915875 -19.582722678885325 a59.21978005669254,59.21978005669254 0 0,0 0.5147618061592513,0.8798947892172513 l -33.15399108654545 19.014848477314178" fill="#41ff2d" stroke="none" /><path d="M 118.21658344932153 89.55222093294921 l 6.856069791257215 -3.932169972849892 a28.9036481246303,28.9036481246303 0 0,0 0.24381240019288367,0.43371505462444176 l -6.922739832742532 3.813571408290656" fill="#ff4606" stroke="none" /><path d="M 118.56541770881063 90.18545643968196 l 16.972781524100032 -8.972601975391417 a40.19851293391312,40.19851293391312 0 0,0 0.3181244595527341,0.6145151988741165 l -17.124715416812883 8.679114054256956" fill="#ffe115" stroke="none" /><path d="M 118.73160827565052 90.50648371742162 l 8.700161164540722 -4.409398299450351 a30.75374787720998,30.75374787720998 0 0,0 0.23525150764900782,0.4742526841788204 l -8.77477268514314 4.258986026772582" fill="#ff6008" stroke="none" /><path d="M 118.89224826269711 90.83032412892265 l 26.188774614567603 -12.711169752646471 a50.110578013725785,50.110578013725785 0 0,0 0.36996354870864895,0.779237586048502 l -26.403696357118008 12.258489750957429" fill="#a4ff21" stroke="none" /><path d="M 119.196687751892 91.48605970444005 l 22.69649243713169 -10.066141827478639 a45.828571852599396,45.828571852599396 0 0,0 0.31361864427908387,0.7238750707562647 l -22.866401791253455 9.67396761213577" fill="#d7ff1c" stroke="none" /><path d="M 119.34039704204932 91.81776055985345 l 19.401194772197144 -8.207960814139298 a42.06601479433583,42.06601479433583 0 0,0 0.27639036955917723,0.6693012029750078 l -19.53960682864252 7.872785040710988" fill="#fff917" stroke="none" /><path d="M 119.47837535516314 92.15188598940014 l 2.960030546353627 -1.192638337595424 a24.191264175785033,24.191264175785033 0 0,0 0.15229719812164436,0.3875797573700875 l -2.9801212943569717 1.141509575329552" fill="#ff0000" stroke="none" /><path d="M 119.61058180528143 92.48833698450437 l 12.515525839110422 -4.793963458024828 a34.40225625282243,34.40225625282243 0 0,0 0.20706130169276318,0.5548213441342336 l -12.596191729304811 4.577818976861261" fill="#ff930d" stroke="none" /><path d="M 119.85752413597 93.16781622104841 l 9.063787572532888 -3.1184885892572134 a30.585260363773592,30.585260363773592 0 0,0 0.16699946304787128,0.49930713842026847 l -9.116124329352528 2.962008347914631" fill="#ff5e08" stroke="none" /><path d="M 120.08093135843002 93.85539295169968 l 46.01927061503974 -14.081534841764457 a69.12549107739147,69.12549107739147 0 0,0 0.3383663258101659,1.140803039720897 l -46.254842837961604 13.28730241529703" fill="#3aff91" stroke="none" /><path d="M 120.28053869075195 94.5502522615342 l 11.324235300889109 -3.043026946272242 a32.72596768482849,32.72596768482849 0 0,0 0.14150656708935072,0.5452825271568714 l -11.374938199848762 2.8476479935665204" fill="#ff7c0b" stroke="none" /><path d="M 120.37134235888165 94.90015583598534 l 28.293022713444188 -7.082989634435336 a50.16614263876845,50.16614263876845 0 0,0 0.20249730634308133,0.8394820663782858 l -28.41075282004809 6.5949223363976435" fill="#a4ff21" stroke="none" /><path d="M 120.53481517161879 95.60439243477599 l 28.426864614944165 -6.084950856034281 a50.07083175206236,50.07083175206236 0 0,0 0.17315138361697607,0.8443476399786328 l -28.52739529447614 5.594727559892236" fill="#a5ff21" stroke="none" /><path d="M 120.6074358757038 95.95851677861258 l 12.369783046091863 -2.425933577302741 a33.60542289369407,33.60542289369407 0 0,0 0.10644001792748108,0.5686068319176659 l -12.409708787929203 2.212648667922512" fill="#ff880c" stroke="none" /><path d="M 120.67395015179393 96.31383870115 l 33.09796684766207 -5.901361063980574 a54.61995645232759,54.61995645232759 0 0,0 0.1570665473334546,0.927015653389505 l -33.194645256515756 5.330759622275232" fill="#72ff27" stroke="none" /><path d="M 120.73433829027371 96.67025291283417 l 28.583775463243082 -4.590295661066856 a49.950009222608315,49.950009222608315 0 0,0 0.12902350585614852,0.8501036967706617 l -28.65855486253853 4.097592851904111" fill="#a6ff21" stroke="none" /><path d="M 120.83666639777658 97.38593545837742 l 28.616640883969048 -3.5901014493908083 a49.840959829710364,49.840959829710364 0 0,0 0.09946747773454603,0.8521766054646185 l -28.674198714707185 3.096981105601337" fill="#a7ff21" stroke="none" /><path d="M 120.87857604477298 97.74499172005257 l 20.88957285994188 -2.256196000278822 a42.01106076956836,42.01106076956836 0 0,0 0.07146456399178781,0.7196384066607957 l -20.925314549615898 1.8962820629135912" fill="#fff817" stroke="none" /><path d="M 120.94382443527127 98.46500227214037 l 28.788929371329594 -2.109974771278206 a49.866147091062125,49.866147091062125 0 0,0 0.05537376566906921,0.8566076458916921 l -28.82098372800308 1.6141080611334784" fill="#a7ff21" stroke="none" /><path d="M 120.96714384426684 98.82574320788733 l 25.923912856432715 -1.451858726009874 a46.96453642082231,46.96453642082231 0 0,0 0.038256845673657607,0.8075415468646929 l -25.94506331033987 1.0054060725221814" fill="#c9ff1d" stroke="none" /><path d="M 120.98425023603335 99.18683210126433 l 19.140222151000383 -0.7417093321321817 a40.15458787661634,40.15458787661634 0 0,0 0.02081978199086901,0.6909072056032238 l -19.150153627446898 0.4121319791039587" fill="#ffe015" stroke="none" /><line stroke="#e1ed5e" stroke-width="0.3" x1="184.98032266829074" x2="189.97916517819016" y1="98.17113171792111" y2="98.06355123074" /><path d="M 185.9800911702706 98.14961562048488 a86.0,86.0 0 0,1 -9.607161424134198,41.387399972396054" fill="none" id="id64" stroke="none" /><text fill="#e1ed5e" style="font-size:6.75px; font-family:Arial;" text-anchor="middle"><textPath startOffset="21.466115282336823" xlink:href="#id64">April</textPath></text><path d="M 120.99980553446 99.90962569577887 l 28.9569347057628 -0.12461843144764634 a49.957202857100455,49.957202857100455 0 0,0 -0.003700883613982809,0.8599550156332199 l -28.954789524859315 -0.3738460623892582" fill="#a6ff21" stroke="none" /><path d="M 120.9764740272857 100.99374915477107 l 13.758699957495423 0.6518109972021338 a34.774130901674276,34.774130901674276 0 0,0 -0.03347200382083658,0.5976651134413626 l -13.745441602787057 -0.8885478269789197" fill="#ff990e" stroke="none" /><path d="M 120.95626037817324 101.35467743843564 l 23.056171391674464 1.4904221763505936 a44.10429391922691,44.10429391922691 0 0,0 -0.05549462966788099,0.757180131129688 l -23.027100203342247 -1.8870754439770518" fill="#ecff1a" stroke="none" /><path d="M 120.92983693683757 101.71520430193887 l 9.835987349965379 0.8060611206570651 a30.868960516635674,30.868960516635674 0 0,0 -0.047957728541059993,0.5292095381975321 l -9.820655025147243 -0.9752520474031678" fill="#ff6209" stroke="none" /><path d="M 120.89721153311464 102.0752229133903 l 28.702431616573403 2.8503297517156128 a49.84361212465574,49.84361212465574 0 0,0 -0.09213401464540007,0.85304654895948 l -28.649115300426953 -3.3439726225598845" fill="#a7ff21" stroke="none" /><path d="M 120.8583938346157 102.4346265915055 l 26.618098812857554 3.106908983449933 a47.79880720932353,47.79880720932353 0 0,0 -0.10242258020097304,0.8164087386773343 l -26.560674723409733 -3.5646354764146624" fill="#bfff1e" stroke="none" /><path d="M 120.81339534386255 102.79330883721812 l 28.63538318406867 3.843076421876197 a49.89211668401648,49.89211668401648 0 0,0 -0.12156083318705524,0.8501961841836696 l -28.56498829986501 -4.335418078040276" fill="#a7ff21" stroke="none" /><path d="M 120.70491114924044 103.5080841355445 l 19.659402714929985 3.3309410642439 a40.939590855412824,40.939590855412824 0 0,0 -0.12370298518828382,0.6937920351473917 l -19.599153287402512 -3.6688518501245104" fill="#ffea16" stroke="none" /><path d="M 120.64145759157962 103.86396538481128 l 28.846353037849106 5.399875910980417 a50.34741459546672,50.34741459546672 0 0,0 -0.16679395275755457,0.8504787716838482 l -28.749129152115888 -5.895618409732211" fill="#a1ff22" stroke="none" /><path d="M 120.5718875245553 104.21870165774334 l 28.265822021236108 5.796506036508899 a49.85404957310984,49.85404957310984 0 0,0 -0.17963117068707732,0.8391770271540746 l -28.161856811824588 -6.282196883079143" fill="#a7ff21" stroke="none" /><path d="M 120.41448212921028 104.9243191809786 l 28.14676319648098 6.78947646154449 a49.95405444943148,49.95405444943148 0 0,0 -0.20882860884516938,0.8341664859353459 l -28.02572327334075 -7.272970786877232" fill="#a6ff21" stroke="none" /><path d="M 120.32669344350535 105.2749913415812 l 27.870136448403347 7.232594364775429 a49.79331392698663,49.79331392698663 0 0,0 -0.22243840784801858,0.8277760647212989 l -27.741509964213552 -7.711261362672277" fill="#a8ff21" stroke="none" /><path d="M 120.13307415673323 105.97154293290107 l 27.512445323713404 8.160291228287308 a49.69712530238495,49.69712530238495 0 0,0 -0.25031549240001866,0.8180455123207223 l -27.367903058807254 -8.632663713160088" fill="#a9ff21" stroke="none" /><path d="M 120.02730092923936 106.31721596034902 l 23.69828136488212 7.475154130854766 a45.849275018180194,45.849275018180194 0 0,0 -0.24389139546752053,0.7506205326890926 l -23.566097718398353 -7.881973563521654" fill="#d7ff1c" stroke="none" /><path d="M 119.9155931802556 106.66101706037122 l 27.321998999715124 9.138181314176261 a49.80968564686526,49.80968564686526 0 0,0 -0.2789559876146051,0.8107766764114107 l -27.160652181157285 -9.607130693676972" fill="#a8ff21" stroke="none" /><path d="M 119.67450827220406 107.3425965602758 l 29.892906326988605 11.156139108355168 a52.9068219739774,52.9068219739774 0 0,0 -0.3257692728458683,0.8504807739128161 l -29.69644277454923 -11.669043449101128" fill="#85ff25" stroke="none" /><path d="M 119.41010516605496 108.01547362559984 l 19.458053284941 8.03527397593489 a42.05187558171337,42.05187558171337 0 0,0 -0.2820459721289253,0.6666733630794952 l -19.316856331619764 -8.369021864680548" fill="#fff817" stroke="none" /><path d="M 119.26925614724726 108.34839909993367 l 36.95857253088112 16.012289799558182 a61.27815174688922,61.27815174688922 0 0,0 -0.4276599737950733,0.9642603419720505 l -36.677471472354775 -16.64609847802292" fill="#30ff33" stroke="none" /><path d="M 118.97047184881838 109.00673069616215 l 34.86175387924482 16.55153500073864 a59.59138756792398,59.59138756792398 0 0,0 -0.44791935530510485,0.9228465412591649 l -34.571681267325005 -17.14917049796308" fill="#3dff2e" stroke="none" /><path d="M 118.81262510543309 109.33194174019688 l 29.214246378407324 14.491632276684259 a53.611034903862254,53.611034903862254 0 0,0 -0.4171993637201871,0.8231739243338208 l -28.960468344900868 -14.992360412720775" fill="#7dff26" stroke="none" /><path d="M 118.64920377521936 109.65438752849418 l 32.88414131225651 17.02358168192386 a58.02930033264994,58.02930033264994 0 0,0 -0.4668526066983612,0.8831091938748624 l -32.58623619733325 -17.587105890884857" fill="#4dff2c" stroke="none" /><line stroke="#e1ed5e" stroke-width="0.3" x1="174.80103733775053" x2="179.2010983576182" y1="140.37084112569926" y2="142.7455964860345" /><path d="M 175.68104954172406 140.8457921977663 a86.0,86.0 0 0,1 -30.038265399797805,32.042727171017184" fill="none" id="id65" stroke="none" /><text fill="#e1ed5e" style="font-size:6.75px; font-family:Arial;" text-anchor="middle"><textPath startOffset="22.206326154141568" xlink:href="#id65">May</textPath></text><path d="M 118.30583269289576 110.29060199501025 l 25.130617470180667 14.12714661020818 a49.82922485567148,49.82922485567148 0 0,0 -0.4267469820746071,0.7440693338572446 l -24.88371849195368 -14.557635789923742" fill="#a7ff21" stroke="none" /><path d="M 118.12598468904814 110.60418214915192 l 16.76112371130356 9.80570225056645 a40.41872973941361,40.41872973941361 0 0,0 -0.35649151084401,0.597500277527953 l -16.589851324761327 -10.092764621980507" fill="#ffe415" stroke="none" /><path d="M 117.94076556474637 110.91462005526583 l 17.960892535575915 10.926864696592592 a42.02355899395124,42.02355899395124 0 0,0 -0.3812844740641485,0.614751975810937 l -17.7701434218438 -11.234413003768802" fill="#fff817" stroke="none" /><path d="M 117.75023020441432 111.22182372390056 l 22.854255563291275 14.448625416049376 a48.03848689859583,48.03848689859583 0 0,0 -0.44789057645096897,0.6951361209971212 l -22.602160123463257 -14.83988313696795" fill="#bcff1f" stroke="none" /><path d="M 117.35343817320211 111.8261652097733 l 17.45248672784946 11.893665641639169 a42.11986210610452,42.11986210610452 0 0,0 -0.41345476976230006,0.5956124327564563 l -17.245171050925027 -12.192319336582646" fill="#fff917" stroke="none" /><path d="M 117.14729908036423 112.12312394758627 l 23.63432807588706 16.709447204428812 a49.944551982648775,49.944551982648775 0 0,0 -0.5023475542610749,0.6977168163099157 l -23.34320072925038 -17.11379762618986" fill="#a6ff21" stroke="none" /><path d="M 116.93607887273984 112.41649034213515 l 16.94709201831554 12.424564502435452 a42.01365582073794,42.01365582073794 0 0,0 -0.4326180817230831,0.5795626179045849 l -16.730712669897365 -12.714439999849352" fill="#fff817" stroke="none" /><path d="M 116.498646956653 112.99209946851258 l 22.812885394230225 17.96433834752128 a50.03696251804769,50.03696251804769 0 0,0 -0.5386886171672969,0.6720968770776 l -22.500278865008074 -18.354363058177128" fill="#a5ff21" stroke="none" /><path d="M 116.27256486870786 113.27417163493432 l 26.975988401019112 22.005375486056327 a55.81293582124677,55.81293582124677 0 0,0 -0.613687149467182,0.7392257050529231 l -26.59320525165839 -22.46646244822302" fill="#65ff29" stroke="none" /><path d="M 116.0416608686014 113.55231037782055 l 8.035739208128511 6.788750414050755 a31.519516947337845,31.519516947337845 0 0,0 -0.3537052506357593,0.4114391151729348 l -7.917691447921974 -6.926066628385217" fill="#ff6b09" stroke="none" /><path d="M 115.80600337817218 113.82643327865902 l 21.848049353588852 19.11176338690487 a50.02751729504078,50.02751729504078 0 0,0 -0.5725557645679882,0.6432724711141213 l -21.515834739372526 -19.485010027759856" fill="#a5ff21" stroke="none" /><path d="M 115.56566222782051 114.09645910891815 l 7.800324202919582 7.064071515456272 a31.523600336678207,31.523600336678207 0 0,0 -0.3677056731131712,0.3990718854119105 l -7.677572121810689 -7.197294655669517" fill="#ff6b09" stroke="none" /><path d="M 115.32070863581623 114.36230785411682 l 21.088011701550595 19.76883206177829 a49.90520642741595,49.90520642741595 0 0,0 -0.5929058121771749,0.6216593736615684 l -20.744599337994458 -20.128898552022367" fill="#a7ff21" stroke="none" /><path d="M 115.07121518719521 114.62390073753431 l 7.557652939071833 7.333341407242524 a31.53071764613594,31.53071764613594 0 0,0 -0.38131054023633704,0.38626556409905105 l -7.43030177377996 -7.46234746532224" fill="#ff6b09" stroke="none" /><path d="M 114.81725581225074 114.88116024355365 l 20.50739216962358 20.595837240067873 a50.06443953043143,50.06443953043143 0 0,0 -0.6159119208079109,0.6027994467861287 l -20.149830296439873 -20.945786789776573" fill="#a5ff21" stroke="none" /><path d="M 114.55890576462653 115.13401014063108 l 21.203745873708854 22.0413340301819 a51.58462432182027,51.58462432182027 0 0,0 -0.6452110621787892,0.6100873313340032 l -20.821198977139257 -22.403055998261827" fill="#93ff23" stroke="none" /><path d="M 114.0293411484842 115.62618273729858 l 18.395674115632787 20.489498563354076 a48.535801741482864,48.535801741482864 0 0,0 -0.6264762009446995,0.5527924081948069 l -18.0402555617815 -20.80311411332117" fill="#b7ff1f" stroke="none" /><path d="M 113.75828350139079 115.86535959552629 l 19.009199181774115 21.92045109488721 a50.0147519330375,50.0147519330375 0 0,0 -0.6552754732006418,0.5584399741593817 l -18.629058231996424 -22.244415459269536" fill="#a5ff21" stroke="none" /><path d="M 113.20401910651253 116.32954008644616 l 27.981177668195812 34.60459718461117 a65.50196006928616,65.50196006928616 0 0,0 -0.8828494766637478,0.7013890183701383 l -27.381370698814713 -35.08112011698644" fill="#35ff67" stroke="none" /><path d="M 112.92097659922987 116.55440617244103 l 14.92230074982964 19.11851056635493 a45.25268038679831,45.25268038679831 0 0,0 -0.6181759029351604,0.4739909219978931 l -14.590996118400986 -19.372540830180196" fill="#deff1b" stroke="none" /><path d="M 112.63410532772338 116.77436683061366 l 8.196675208742992 10.882767966255965 a34.62424761537271,34.62424761537271 0 0,0 -0.4791584164274521,0.3544699414131385 l -8.008131821896976 -11.022247856408873" fill="#ff970d" stroke="none" /><path d="M 112.34349029814194 116.9893568818739 l 16.97658401794212 23.366263313655402 a49.88228983583757,49.88228983583757 0 0,0 -0.6989997487146831,0.49871776111351784 l -16.571856941378552 -23.65502533661314" fill="#a7ff21" stroke="none" /><path d="M 112.04921762599082 117.19931262002967 l 7.1693390282308656 10.233668861581597 a33.49509505646992,33.49509505646992 0 0,0 -0.4750611172129363,0.3267513682575984 l -6.992121026395045 -10.35556101920429" fill="#ff870c" stroke="none" /><path d="M 111.7513745106137 117.40417183066458 l 16.237806473660026 24.048725003650482 a50.01736606546568,50.01736606546568 0 0,0 -0.7176903760909495,0.4756460468130206 l -15.82144139882911 -24.32466907155482" fill="#a5ff21" stroke="none" /><path d="M 111.45004920935366 117.60387380957326 l 8.350981427299951 12.839213224706894 a36.3161446529013,36.3161446529013 0 0,0 -0.5269614359635756,0.3363317207493661 l -8.128738189289445 -12.981059374280068" fill="#ffad10" stroke="none" /><line stroke="#e1ed5e" stroke-width="0.3" x1="143.8653032363475" x2="146.44561519142675" y1="172.8068346515853" y2="177.08958963109032" /><path d="M 144.38136562736335 173.6633856474863 a86.0,86.0 0 0,1 -40.68145358897372,12.25698825130547" fill="none" id="id66" stroke="none" /><text fill="#e1ed5e" style="font-size:6.75px; font-family:Arial;" text-anchor="middle"><textPath startOffset="21.466115282336833" xlink:href="#id66">June</textPath></text><path d="M 110.8373102113329 117.98757091392108 l 10.183664954687131 16.902662373223503 a40.7333987749832,40.7333987749832 0 0,0 -0.6036924962375197,0.3566721677177117 l -9.89120458742123 -17.075453113234964" fill="#ffe815" stroke="none" /><path d="M 109.89434966115114 118.52300852407294 l 13.689608735884308 25.628034988659053 a50.05514695749331,50.05514695749331 0 0,0 -0.7634818545646814,0.39941762192736885 l -13.24643597879313 -25.859882029531136" fill="#a5ff21" stroke="none" /><path d="M 109.57404056367764 118.69057910512821 l 4.799998148046101 9.370625128839315 a31.52846605762116,31.52846605762116 0 0,0 -0.485157171584619,0.24326787753019716 l -4.637987068778722 -9.451860847278814" fill="#ff6b09" stroke="none" /><path d="M 109.2508944713604 118.85261126421891 l 12.780223562276618 26.045112441324868 a50.01175617543733,50.01175617543733 0 0,0 -0.7761046566017217,0.3725773989711375 l -12.330006237674663 -26.261244116795567" fill="#a5ff21" stroke="none" /><path d="M 108.92500713936063 119.00905698771935 l 4.877743175524477 10.3889326414193 a32.477033585135274,32.477033585135274 0 0,0 -0.5080830921549201,0.2332360277063291 l -4.698192087602138 -10.471355739459705" fill="#ff790b" stroke="none" /><path d="M 108.59647513512805 119.15986991738527 l 10.322334549168433 23.006474641871108 a46.21603588972729,46.21603588972729 0 0,0 -0.7286273324935213,0.319408810181671 l -9.924786542017157 -23.180748005347233" fill="#d2ff1c" stroke="none" /><path d="M 108.2653958097858 119.30500536409082 l 11.41679248793901 26.66553971431479 a50.006795048201376,50.006795048201376 0 0,0 -0.7942234936969615,0.3319854847787625 l -10.956097534744586 -26.858110242113526" fill="#a5ff21" stroke="none" /><path d="M 107.59598834532513 119.57807347666477 l 16.012635034868257 41.27133047282853 a65.26880617045501,65.26880617045501 0 0,0 -1.0509203343645888,0.3973681467782762 l -15.299844479743392 -41.54084686971344" fill="#35ff64" stroke="none" /><path d="M 107.2578585660854 119.70592522655815 l 5.289748537939317 14.362278929355053 a36.305440066826804,36.305440066826804 0 0,0 -0.5882871951176503,0.21093885791332823 l -5.041741782191933 -14.451205328308342" fill="#ffad10" stroke="none" /><path d="M 106.91757812671514 119.82793768551818 l 4.518289259711899 12.95082704461703 a34.716371931892624,34.716371931892624 0 0,0 -0.565926898804541,0.19199313056684988 l -4.294692627970131 -13.026683162082003" fill="#ff980e" stroke="none" /><path d="M 106.57524785965236 119.94407469862006 l 7.591761209266344 23.02736807547499 a45.24653622152917,45.24653622152917 0 0,0 -0.7417817442686718,0.23749508981941125 l -7.194258119906731 -23.154636011954107" fill="#deff1b" stroke="none" /><path d="M 106.2309692047433 120.05430185196036 l 8.607593801485672 27.703440450748932 a50.00984804957735,50.00984804957735 0 0,0 -0.8242695206856848,0.2483456449966154 l -8.129449306359742 -27.847501464851273" fill="#a5ff21" stroke="none" /><path d="M 105.53697534728816 120.25689768951611 l 2.0212724003306772 7.394778854522922 a28.666048292545376,28.666048292545376 0 0,0 -0.477097992622465,0.12600591612776973 l -1.8936839648967148 -7.428476119954276" fill="#ff4206" stroke="none" /><path d="M 105.18746579009965 120.34920634021253 l 7.158001705224248 28.079154557740832 a49.97716185359586,49.97716185359586 0 0,0 -0.8354437384077008,0.2053317446554435 l -6.673604682073337 -28.198207560710305" fill="#a6ff21" stroke="none" /><path d="M 104.83641907484287 120.43548508189849 l 7.037620521618914 29.73629599835259 a51.557738828453125,51.557738828453125 0 0,0 -0.8653840038045234,0.19695858181748382 l -6.524716368421528 -29.853031313747756" fill="#94ff23" stroke="none" /><path d="M 104.48393922423573 120.51570834832081 l 3.8394611257767166 17.566978661397126 a38.981662910485575,38.981662910485575 0 0,0 -0.6567640564481676,0.13763129362602464 l -3.536505607899171 -17.63046593574969" fill="#ffd113" stroke="none" /><path d="M 104.13013068566511 120.58985236759428 l 5.751767289683866 28.67416272283822 a50.24534894321629,50.24534894321629 0 0,0 -0.8494631472374844,0.16280163390739394 l -5.257336527874677 -28.76892155509408" fill="#a3ff22" stroke="none" /><path d="M 103.7750983002368 120.6578951692458 l 3.439722310659853 18.822668246935393 a40.13438082375913,40.13438082375913 0 0,0 -0.6806619528435357,0.11834180527554458 l -3.115211386344267 -18.879088630731946" fill="#ffe015" stroke="none" /><path d="M 103.41894727170886 120.7198165907248 l 3.1888369227073916 19.32528083219143 a40.5866066525748,40.5866066525748 0 0,0 -0.6902895387679854,0.10780902943418286 l -2.8557115203308894 -19.37730816897272" fill="#ffe615" stroke="none" /><path d="M 102.70371172650421 120.8252237178851 l 4.8279702613212 37.187234056682875 a58.49932897573924,58.49932897573924 0 0,0 -0.9997049971089809,0.12105035288392892 l -4.187137841160839 -37.26482993829215" fill="#48ff2c" stroke="none" /><path d="M 102.34483914955558 120.86867818915974 l 2.569447830533829 22.867658069171945 a44.011559002431795,44.011559002431795 0 0,0 -0.7535772376116054,0.0781113618698707 l -2.175437996316621 -22.908498799497576" fill="#edff1a" stroke="none" /><path d="M 101.98527174616119 120.90594882070398 l 1.8823669966644123 19.822308039260882 a40.911484161495295,40.911484161495295 0 0,0 -0.7016430233518786,0.06054071241467073 l -1.540879655570992 -19.851773003954218" fill="#ffea16" stroke="none" /><path d="M 101.62511606390274 120.93702456842531 l 1.333232791692635 17.17657485217603 a38.22823941467179,38.22823941467179 0 0,0 -0.6565012725137769,0.04527617145098502 l -1.0373687583999278 -17.196979368143303" fill="#ffc712" stroke="none" /><path d="M 101.26447882468166 120.96189622390904 l 2.544711218838174 42.18494722719608 a63.26162949708162,63.26162949708162 0 0,0 -1.0875334790501063,0.05621305861683484 l -1.8181896713745884 -42.222500092575125" fill="#32ff4c" stroke="none" /><path d="M 100.90346689309514 120.98055641714683 l 1.1859454458137526 27.540350978786257 a48.565873805036176,48.565873805036176 0 0,0 -0.8355172289950803,0.028776902731855084 l -0.7117078651440201 -27.55668467994421" fill="#b6ff1f" stroke="none" /><line stroke="#e1ed5e" stroke-width="0.3" x1="102.19456741930631" x2="102.32365962044197" y1="184.97166512339345" y2="189.96999836594603" /><path d="M 102.22038585953345 185.97133177190398 a86.0,86.0 0 0,1 -42.740103519485714,-10.115201625700543" fill="none" id="id67" stroke="none" /><text fill="#e1ed5e" style="font-size:6.75px; font-family:Arial;" text-anchor="middle"><textPath startOffset="22.20632615414155" xlink:href="#id67">July</textPath></text><path d="M 100.18074693466247 120.99922214144158 l 0.2548585269211711 29.609524673005165 a50.610621476592584,50.610621476592584 0 0,0 -0.8712109231672327,0.0 l 0.2548585269211507 -29.609524673005165" fill="#9eff22" stroke="none" /><path d="M 99.81925306533755 120.99922214144158 l -0.249622471667664 29.001198520098775 a50.00227278991322,50.00227278991322 0 0,0 -0.8606112849170308,-0.014816203739471033 l 0.7487934464773627 -28.992604839080144" fill="#a5ff21" stroke="none" /><path d="M 99.45781275523022 120.99299961872073 l -0.2713497174108355 10.506415577084324 a31.509919074262136,31.509919074262136 0 0,0 -0.5420901181861848,-0.01867067974373886 l 0.45216018727166346 -10.500188098914492" fill="#ff6b09" stroke="none" /><path d="M 99.09653310690486 120.98055641714683 l -0.34973009971357183 8.121528463182237 a29.129055032469942,29.129055032469942 0 0,0 -0.5007588772648455,-0.025883514082873548 l 0.48947704539190623 -8.114305142337162" fill="#ff4906" stroke="none" /><path d="M 98.73552117531835 120.96189622390904 l -1.740355423747137 28.85073998332032 a49.903183814004365,49.903183814004365 0 0,0 -0.8569974494773389,-0.05910356168392435 l 2.236715634003406 -28.816508077120112" fill="#a7ff21" stroke="none" /><path d="M 98.37488393609728 120.93702456842531 l -0.5263157378800049 6.7807375605402935 a27.80113300273286,27.80113300273286 0 0,0 -0.4767969535313045,-0.041140047407631004 l 0.6429570091528511 -6.770673260853999" fill="#ff3605" stroke="none" /><path d="M 97.65516085044442 120.86867818915974 l -0.49163252487223974 4.375447650994468 a25.402981340649227,25.402981340649227 0 0,0 -0.43411587504267907,-0.052565386807511785 l 0.5668758229663081 -4.366336735461608" fill="#ff1202" stroke="none" /><path d="M 97.2962882734958 120.8252237178851 l -3.122832332957784 24.053482229548628 a45.25535176300229,45.25535176300229 0 0,0 -0.771649883910179,-0.10694364262019034 l 3.536410808054794 -23.99616402143583" fill="#deff1b" stroke="none" /><path d="M 96.93821686468263 120.77559828337769 l -4.2288474895464425 28.694663456424234 a50.0046007034624,50.0046007034624 0 0,0 -0.850469048850147,-0.13282577465101136 l 4.722152402005107 -28.617619374426116" fill="#a5ff21" stroke="none" /><path d="M 96.58105272829116 120.7198165907248 l -5.901754650488265 35.76635268213857 a57.25000265017481,57.25000265017481 0 0,0 -0.9709355870041726,-0.16880959732261844 l 6.516539208964488 -35.659464506294945" fill="#55ff2b" stroke="none" /><path d="M 96.22490169976321 120.6578951692458 l -2.7531732427862323 15.065770400914596 a36.31526691500571,36.31526691500571 0 0,0 -0.6139569447761941,-0.11766630969619862 l 3.0120978021341216 -15.01614689286993" fill="#ffad10" stroke="none" /><path d="M 95.51606077576429 120.51570834832081 l -4.157207637761024 19.020788457331115 a40.46979118742672,40.46979118742672 0 0,0 -0.6792755215164864,-0.15460089716591996 l 4.484003308670373 -18.94641082658751" fill="#ffe415" stroke="none" /><path d="M 95.16358092515715 120.4354850818985 l -6.458545561957407 27.289510987306425 a49.04336322023801,49.04336322023801 0 0,0 -0.8198338839814377,-0.20149522222333902 l 6.927332730682055 -27.174294506769055" fill="#b1ff20" stroke="none" /><path d="M 94.81253420990036 120.34920634021253 l -7.1769216705643 28.153373125001476 a50.05375402561553,50.05375402561553 0 0,0 -0.8330602573864534,-0.2200187855426185 l 7.660472370762243 -28.025662990155276" fill="#a5ff21" stroke="none" /><path d="M 94.46302465271185 120.25689768951611 l -5.046756325138283 18.463442607219587 a40.14075396413148,40.14075396413148 0 0,0 -0.6649389139477384,-0.18791837897691893 l 5.363826407190635 -18.373835434904148" fill="#ffe015" stroke="none" /><path d="M 94.11515582081647 120.15858648285463 l -8.125856018884438 27.835192626397323 a49.99702544379827,49.99702544379827 0 0,0 -0.8240581766498265,-0.24828196877229283 l 8.60378916997451 -27.691195288519303" fill="#a6ff21" stroke="none" /><path d="M 93.76903079525671 120.05430185196036 l -5.671658177117155 18.254165820377004 a40.11497518376312,40.11497518376312 0 0,0 -0.6576537951417274,-0.21055997718203442 l 5.9850333173498225 -18.153832996535264" fill="#ffe015" stroke="none" /><path d="M 93.08242187328487 119.8279376855182 l -3.471289931825312 9.949800232944073 a31.53794944314527,31.53794944314527 0 0,0 -0.5110355853976638,-0.18323917914836418 l 3.6420450778527025 -9.88857351275575" fill="#ff6c09" stroke="none" /><path d="M 92.40401165467489 119.57807347666478 l -17.889655726935985 46.10920638256966 a70.45804985296829,70.45804985296829 0 0,0 -1.1269225699430527,-0.44842574761161375 l 18.680699372920895 -45.794433790551984" fill="#3cffa0" stroke="none" /><path d="M 92.06813273071674 119.44442032107085 l -3.9961808141299153 9.79635901496403 a31.580080862133666,31.580080862133666 0 0,0 -0.5015646799475983,-0.20965407689619683 l 4.164216953574976 -9.72611989504786" fill="#ff6c0a" stroke="none" /><path d="M 91.7346041902142 119.30500536409082 l -15.170922598044015 35.4338435658094 a59.54496286575063,59.54496286575063 0 0,0 -0.9387669587201165,-0.4115278468850463 l 15.778610231421874 -35.1674511656299" fill="#3eff2e" stroke="none" /><path d="M 91.40352486487194 119.15986991738527 l -1.883074556324273 4.197006677362259 a25.60009074198534,25.60009074198534 0 0,0 -0.400497577142875,-0.18384879450058805 l 1.9550401292345674 -4.163970812527596" fill="#ff1502" stroke="none" /><path d="M 90.7491055286396 118.85261126421891 l -8.43762794568091 17.19523664922317 a40.15384370753095,40.15384370753095 0 0,0 -0.6178836993145621,-0.3098197138915083 l 8.732365552678232 -17.04744909442236" fill="#ffe015" stroke="none" /><path d="M 90.42595943632237 118.69057910512821 l -13.237414832156807 25.842270817869398 a50.03535969232531,50.03535969232531 0 0,0 -0.7631800430862323,-0.39925972842633567 l 13.680285777769534 -25.610581670498345" fill="#a5ff21" stroke="none" /><path d="M 90.10565033884886 118.52300852407294 l -5.40200242957082 10.112977656619584 a32.465336773613586,32.465336773613586 0 0,0 -0.49065510937843343,-0.2675442867829178 l 5.575280350817894 -10.018492718076901" fill="#ff790b" stroke="none" /><line stroke="#e1ed5e" stroke-width="0.3" x1="58.666819895761336" x2="56.23545636021788" y1="174.27360380694188" y2="178.64263932499728" /><path d="M 58.180547188652646 175.14741091055294 a86.0,86.0 0 0,1 -31.652253787137756,-30.449443065178592" fill="none" id="id68" stroke="none" /><text fill="#e1ed5e" style="font-size:6.75px; font-family:Arial;" text-anchor="middle"><textPath startOffset="22.20632615414155" xlink:href="#id68">August</textPath></text><path d="M 89.7882731507175 118.34994917583269 l -14.100359995007336 25.337623409649765 a49.99681554995367,49.99681554995367 0 0,0 -0.7484076484828999,-0.42496539504839953 l 14.534416410411444 -25.091154848806735" fill="#a6ff21" stroke="none" /><path d="M 89.4739219176387 118.17145234162733 l -12.46351057699338 21.516094283845334 a45.865265112886846,45.865265112886846 0 0,0 -0.6797497193776879,-0.40160811576587213 l 12.83202816739945 -21.29836759578571" fill="#d6ff1c" stroke="none" /><path d="M 89.1626897886671 117.98757091392108 l -5.277632859867555 8.759719291345437 a31.22673411538225,31.22673411538225 0 0,0 -0.4580230297962434,-0.28135515418638407 l 5.427635089596106 -8.667575670330674" fill="#ff6709" stroke="none" /><path d="M 88.8546689885994 117.79835938074946 l -8.398572032232607 13.41196624504762 a36.824564788293436,36.824564788293436 0 0,0 -0.5343388106045281,-0.3410403102936227 l 8.62819264488406 -13.265411505930192" fill="#ffb410" stroke="none" /><path d="M 88.24862548938628 117.40417183066458 l -10.702076573464788 15.850127103113131 a40.124878356976424,40.124878356976424 0 0,0 -0.5690913701890201,-0.39142623366816803 l 10.9733248282767 -15.663560080079861" fill="#ffe015" stroke="none" /><path d="M 87.95078237400918 117.19931262002967 l -17.551105471853436 25.052825769067137 a51.58897484878102,51.58897484878102 0 0,0 -0.7229154991565407,-0.5157810140512298 l 17.979748298858865 -24.747000493171686" fill="#93ff23" stroke="none" /><path d="M 87.65650970185807 116.9893568818739 l -23.82051679102096 32.786128647441274 a61.52588372729065,61.52588372729065 0 0,0 -0.8514450723538355,-0.6298787093505415 l 24.38134683379336 -32.37123998935097" fill="#30ff36" stroke="none" /><path d="M 87.36589467227662 116.77436683061367 l -5.950709149503466 7.90078724110553 a30.891075695352868,30.891075695352868 0 0,0 -0.4219886744252298,-0.32356292102906903 l 6.085826552422183 -7.797184978249095" fill="#ff6209" stroke="none" /><path d="M 87.07902340077011 116.55440617244103 l -22.703429980944506 29.087724021923506 a57.899070742706186,57.899070742706186 0 0,0 -0.7803761024928865,-0.6199779724120187 l 23.200763576154753 -28.692612135506355" fill="#4fff2b" stroke="none" /><path d="M 86.79598089348748 116.32954008644616 l -12.648862814252837 15.642972848427998 a41.117065641649724,41.117065641649724 0 0,0 -0.5465238689130133,-0.4497519369598404 l 12.91625681171054 -15.422925792610977" fill="#ffec16" stroke="none" /><path d="M 86.51685102203217 116.09983520530335 l -6.142426923350583 7.334492957702802 a30.56682786796617,30.56682786796617 0 0,0 -0.4004756960954294,-0.34129407634721176 l 6.267768096023069 -7.227674491132639" fill="#ff5e08" stroke="none" /><path d="M 86.24171649860922 115.8653595955263 l -28.958447984970935 33.39342371913363 a65.20081964606385,65.20081964606385 0 0,0 -0.8415800362773332,-0.7425965331817704 l 29.528970374154856 -32.89000404417957" fill="#35ff63" stroke="none" /><path d="M 85.70375840098266 115.38237550388516 l -34.599888129316604 37.22855884263664 a71.82438245626682,71.82438245626682 0 0,0 -0.8983662613461985,-0.8494613732976145 l 35.23559022505361 -36.62746283259309" fill="#3dffb0" stroke="none" /><path d="M 85.44109423537348 115.13401014063109 l -11.517310708918716 11.972266314483306 a37.61275433727609,37.61275433727609 0 0,0 -0.4627265178244204,-0.45287528871328236 l 11.72168717911893 -11.772240922847454" fill="#ffbf11" stroke="none" /><path d="M 85.18274418774928 114.88116024355367 l -16.195569287672303 16.265418162394454 a43.95343748873675,43.95343748873675 0 0,0 -0.5315422624428704,-0.5384495055335311 l 16.473152175170707 -15.984228162880258" fill="#eeff19" stroke="none" /><path d="M 84.9287848128048 114.62390073753433 l -12.488105067372167 12.117457460252554 a38.40073399241413,38.40073399241413 0 0,0 -0.45622531206412836,-0.47835041573447684 l 12.694836930815253 -11.900699927935577" fill="#ffc912" stroke="none" /><path d="M 84.67929136418377 114.36230785411682 l -7.548957145185558 7.076725305200846 a31.347308588474498,31.347308588474498 0 0,0 -0.36564932563872204,-0.39684012636195204 l 7.66965287882001 -6.945733924037549" fill="#ff6909" stroke="none" /><path d="M 84.43433777217949 114.09645910891817 l -13.041985357868064 11.810985655830889 a38.595248342580675,38.595248342580675 0 0,0 -0.44171554213161446,-0.49627209417918494 l 13.243359749648018 -11.58473939191084" fill="#ffcc13" stroke="none" /><path d="M 84.19399662182784 113.82643327865904 l -15.841572844735841 13.857547966188411 a42.047257917132214,42.047257917132214 0 0,0 -0.47184529905626577,-0.5488626815498854 l 16.077760653362887 -13.582808185476997" fill="#fff817" stroke="none" /><path d="M 83.95833913139862 113.55231037782056 l -22.170189658090138 18.729811946696564 a50.02280422416663,50.02280422416663 0 0,0 -0.55002217104298,-0.662537137264483 l 22.489307829026654 -18.345413552318323" fill="#a5ff21" stroke="none" /><path d="M 83.72743513129214 113.27417163493432 l -31.25628929615351 25.49698539448798 a61.33673121079067,61.33673121079067 0 0,0 -0.6603398218983492,-0.8238754597074144 l 31.69054703010672 -24.955182101202304" fill="#30ff34" stroke="none" /><path d="M 83.50135304334701 112.99209946851258 l -15.022054909868379 11.829335588744588 a40.12054691127427,40.12054691127427 0 0,0 -0.4225900698217404,-0.5462546309592802 l 15.223451796908188 -11.569002963672055" fill="#ffe015" stroke="none" /><path d="M 83.28015986056508 112.70617746262583 l -24.279732882067766 18.451288539361077 a51.49517138150432,51.49517138150432 0 0,0 -0.530250030040762,-0.7103565674610799 l 24.59374417880361 -18.03061909239069" fill="#94ff23" stroke="none" /><path d="M 83.06392112726016 112.41649034213515 l -7.861262307016301 5.76339353669225 a30.74762279319944,30.74762279319944 0 0,0 -0.3092628223969567,-0.42953901141853923 l 7.959304921788865 -5.627220919822573" fill="#ff6008" stroke="none" /><path d="M 82.85270091963577 112.12312394758628 l -15.624292806078135 11.046359977377994 a40.13480061144833,40.13480061144833 0 0,0 -0.39396911377488536,-0.5675418919976958 l 15.812122827015154 -10.775776823193285" fill="#ffe015" stroke="none" /><path d="M 82.6465618267979 111.8261652097733 l -25.275672173743366 17.225075050335253 a51.586971316628045,51.586971316628045 0 0,0 -0.4937533826622839,-0.7380943137414224 l 25.56842866181638 -16.78744382238801" fill="#93ff23" stroke="none" /><path d="M 82.44556493220864 111.52570212397912 l -8.022309126698344 5.267201421391995 a30.59691901277808,30.59691901277808 0 0,0 -0.2852727589689692,-0.44274965699695346 l 8.11178674904436 -5.128330164473593" fill="#ff5e08" stroke="none" /><path d="M 82.24976979558568 111.22182372390057 l -24.344505058916976 15.39077190947259 a49.801576111960344,49.801576111960344 0 0,0 -0.4518552975998135,-0.728534613589821 l 24.605824996184744 -14.969440964517505" fill="#a8ff21" stroke="none" /><path d="M 82.05923443525364 110.91462005526583 l -37.95000665617458 23.087638164163852 a65.42118910163313,65.42118910163313 0 0,0 -0.5770121598183269,-0.9671055695329408 l 38.341799691691136 -22.4309705007448" fill="#35ff66" stroke="none" /><line stroke="#e1ed5e" stroke-width="0.3" x1="26.63291911575756" x2="22.317208475507996" y1="142.92168965132927" y2="145.44649492493687" /><path d="M 25.769776987707644 143.4266507060508 a86.0,86.0 0 0,1 -11.730757126820373,-40.83630448921669" fill="none" id="id69" stroke="none" /><text fill="#e1ed5e" style="font-size:6.75px; font-family:Arial;" text-anchor="middle"><textPath startOffset="21.46611528233685" xlink:href="#id69">September</textPath></text><path d="M 81.87401531095188 110.60418214915194 l -14.04450625703872 8.216408934435862 a37.27137153966675,37.27137153966675 0 0,0 -0.3191991320034364,-0.5565505920229054 l 14.183857385194532 -7.97343849655465" fill="#ffba11" stroke="none" /><path d="M 81.51974371655577 109.97397251340807 l -29.477514123637324 15.909298611629504 a54.496710603031374,54.496710603031374 0 0,0 -0.43843250316078125,-0.8293490683774062 l 29.746999135022993 -15.399534528165972" fill="#73ff27" stroke="none" /><path d="M 81.35079622478065 109.6543875284942 l -11.889279811758882 6.154885544762229 a34.387964390131174,34.387964390131174 0 0,0 -0.26760604209417754,-0.5280121088436116 l 11.993464523639327 -5.949319224215932" fill="#ff930d" stroke="none" /><path d="M 81.18737489456691 109.33194174019688 l -36.154783918338296 17.934463439549464 a61.358560170628856,61.358560170628856 0 0,0 -0.46120232865445615,-0.9502134006455765 l 36.45813950360747 -17.309461082938604" fill="#30ff34" stroke="none" /><path d="M 81.02952815118164 109.00673069616217 l -26.1033431554138 12.393249042193135 a49.89597109825364,49.89597109825364 0 0,0 -0.3616873008847902,-0.7790422688929995 l 26.312805073138417 -11.942086706021309" fill="#a7ff21" stroke="none" /><path d="M 80.87730276802145 108.67885076344099 l -18.610861854239456 8.44655388581128 a41.437917005005644,41.437917005005644 0 0,0 -0.28919505558327996,-0.65205850507532 l 18.753497994554017 -8.124947044243264" fill="#fff116" stroke="none" /><path d="M 80.58989483394504 108.01547362559985 l -9.543074830991237 3.940847510126232 a31.324754540809508,31.324754540809508 0 0,0 -0.20151868797582786,-0.5001528571286848 l 9.609496133224452 -3.775995285154742" fill="#ff6909" stroke="none" /><path d="M 80.45479744820244 107.68017299344265 l -17.78902442509214 6.990093073080955 a40.11310522042034,40.11310522042034 0 0,0 -0.24699304610799158,-0.6448209039788444 l 17.90671175079364 -6.682848602268953" fill="#ffe014" stroke="none" /><path d="M 80.32549172779594 107.34259656027581 l -18.678724608292498 6.970966550302669 a40.937129373053445,40.937129373053445 0 0,0 -0.24070201436488137,-0.6623085661304999 l 18.795950883662606 -6.648410187166053" fill="#ffea16" stroke="none" /><path d="M 80.20201598880116 107.00284435728193 l -27.432071256868056 9.703135698112012 a50.09758367661931,50.09758367661931 0 0,0 -0.2805683422837752,-0.815462933806502 l 27.59503043009506 -9.229500061216214" fill="#a4ff21" stroke="none" /><path d="M 80.0844068197444 106.66101706037122 l -22.059520853586484 7.378080251962071 a44.26066483345241,44.26066483345241 0 0,0 -0.23544091605091538,-0.7246126313073663 l 22.18325402065365 -6.997268720676901" fill="#eaff1a" stroke="none" /><path d="M 79.97269907076064 106.31721596034903 l -48.63195011004149 15.339986776227068 a71.99393852018478,71.99393852018478 0 0,0 -0.3626205351083414,-1.1850648898178104 l 48.88879741765596 -14.50059491385721" fill="#3effb2" stroke="none" /><path d="M 79.86692584326677 105.97154293290107 l -15.707201538786247 4.658813036419631 a37.383550258975085,37.383550258975085 0 0,0 -0.17767397977067165,-0.6185064322180532 l 15.785068155443023 -4.387749128696982" fill="#ffbc11" stroke="none" /><path d="M 79.76711848015287 105.62410040840567 l -9.234821913124087 2.5669880803783434 a30.584955063635995,30.584955063635995 0 0,0 -0.1366301652152412,-0.5084516724349541 l 9.277640154681102 -2.4076454747678504" fill="#ff5e08" stroke="none" /><path d="M 79.67330655649465 105.27499134158121 l -27.97428579619798 7.259622219029004 a49.90091314423099,49.90091314423099 0 0,0 -0.2086064562099275,-0.83327909658717 l 28.095103566702964 -6.777015283044443" fill="#a7ff21" stroke="none" /><path d="M 79.58551787078972 104.9243191809786 l -28.075923653887713 6.772388762911929 a49.88118312283878,49.88118312283878 0 0,0 -0.19415522281786596,-0.8364156183850885 l 28.188339442636135 -6.288104487178265" fill="#a7ff21" stroke="none" /><path d="M 79.50377843672027 104.57218783832718 l -10.271442935391677 2.2912987316358118 a31.523905636815805,31.523905636815805 0 0,0 -0.11358507729379469,-0.5306316666972992 l 10.309362051409913 -2.1141532455223486" fill="#ff6b09" stroke="none" /><path d="M 79.35854240842038 103.8639653848113 l -38.66702021400082 7.238249865728795 a60.338666898468624,60.338666898468624 0 0,0 -0.1823191942484983,-1.0225428645199763 l 38.78588585058851 -6.571588250475605" fill="#36ff2f" stroke="none" /><path d="M 79.29508885075956 103.50808413554451 l -30.42734316575594 5.155379758800506 a51.860997271380015,51.860997271380015 0 0,0 -0.14155149431758998,-0.8814412902370999 l 30.51157641443482 -4.630859238870192" fill="#90ff24" stroke="none" /><path d="M 79.18660465613746 102.79330883721812 l -10.431582322124823 1.3999941194194452 a31.52510775610759,31.52510775610759 0 0,0 -0.06755153665977733,-0.5384522117281954 l 10.45413536803145 -1.2202241534038412" fill="#ff6b09" stroke="none" /><path d="M 79.1416061653843 102.43462659150553 l -34.359549860127096 4.010504088900614 a55.592814422039275,55.592814422039275 0 0,0 -0.10276119566393786,-0.9514410466694118 l 34.42349335729209 -3.4184667203464203" fill="#67ff28" stroke="none" /><path d="M 79.10278846688536 102.07522291339032 l -13.384164008077603 1.3291306250177397 a34.44999756183918,34.44999756183918 0 0,0 -0.05352119422422731,-0.5906019184151725 l 13.405059798578906 -1.098547318054001" fill="#ff940d" stroke="none" /><path d="M 79.07016306316243 101.71520430193888 l -43.792486424552216 3.588802977045139 a64.93929191569475,64.93929191569475 0 0,0 -0.0817104557292363,-1.1148742491660333 l 43.84777343894579 -2.834455591382345" fill="#34ff60" stroke="none" /><path d="M 79.04373962182676 101.35467743843564 l -15.695026199316548 1.01457500070076 a36.72778464467516,36.72778464467516 0 0,0 -0.03535250245170321,-0.6312426797430607 l 15.710165052655782 -0.7442606046222615" fill="#ffb310" stroke="none" /><path d="M 79.0095281055655 100.63252640178507 l -14.649111772043353 0.44143600034903385 a35.65576137402023,35.65576137402023 0 0,0 -0.013206108423117228,-0.6136359660156124 l 14.654539943151478 -0.1892102185432926" fill="#ffa50f" stroke="none" /><line stroke="#e1ed5e" stroke-width="0.3" x1="15.007084014347285" x2="10.007500721073583" y1="101.09737516637583" y2="101.16192664675087" /><path d="M 14.007167355692545 101.11028546245083 a86.0,86.0 0 0,1 10.666146001902534,-42.60595125391555" fill="none" id="id70" stroke="none" /><text fill="#e1ed5e" style="font-size:6.75px; font-family:Arial;" text-anchor="middle"><textPath startOffset="22.20632615414155" xlink:href="#id70">October</textPath></text><path d="M 79.00175016825051 100.2711162175752 l -21.0124196654382 0.2712991695709246 a42.014171014720134,42.014171014720134 0 0,0 -0.0031124552250897165,-0.7232249810929142 l 21.01397641795279 0.09043528972566497" fill="#fff817" stroke="none" /><path d="M 79.00486145842228 99.54816195383935 l -22.95455270893035 -0.49400675427575946 a43.95986787288489,43.95986787288489 0 0,0 0.022792784432830622,-0.7563815513202963 l 22.942648230041875 0.8890584530210502" fill="#eeff19" stroke="none" /><path d="M 79.12142395522702 97.74499172005258 l -9.515780037525907 -1.0277598782964628 a30.57112115115113,30.57112115115113 0 0,0 0.06101070932044097,-0.5227024988452416 l 9.496678975201878 1.191406115466566" fill="#ff5e08" stroke="none" /><path d="M 79.21141760316559 97.0276538004421 l -28.692498679347956 -4.102446130158769 a49.98429824431219,49.98429824431219 0 0,0 0.12911207620600806,-0.8506872647131225 l 28.617630709702645 4.595732507263984" fill="#a6ff21" stroke="none" /><path d="M 79.26566170972629 96.67025291283419 l -10.414435239085629 -1.672464050520928 a31.547871697617175,31.547871697617175 0 0,0 0.09071986880085442,-0.5354338010199823 l 10.384103508764552 1.8514836398567383" fill="#ff6c09" stroke="none" /><path d="M 79.32604984820605 96.31383870115002 l -44.3612083321934 -7.9095948342587725 a66.06083105241622,66.06083105241622 0 0,0 0.20923754073163806,-1.1177553092364148 l 44.218485067551896 8.67202822095776" fill="#36ff6e" stroke="none" /><path d="M 79.3925641242962 95.95851677861259 l -11.45853348625379 -2.247221396476571 a32.67681436267536,32.67681436267536 0 0,0 0.11300063172726202,-0.5510312116596532 l 11.418153558611534 2.4441282642996267" fill="#ff7c0b" stroke="none" /><path d="M 79.46518482838121 95.60439243477599 l -28.17404089556882 -6.030832333697124 a49.81228069803484,49.81228069803484 0 0,0 0.1866907660554954,-0.8368980978462803 l 28.066055742511285 6.514908601093364" fill="#a8ff21" stroke="none" /><path d="M 79.54389044137918 95.25157060432595 l -27.197129148940608 -6.313206680805442 a48.92025093975198,48.92025093975198 0 0,0 0.19746822298576286,-0.8186332691027199 l 27.084428125694032 6.780425181567559" fill="#b2ff20" stroke="none" /><path d="M 79.62865764111835 94.90015583598534 l -21.166490510866648 -5.298904765470783 a42.81968634651142,42.81968634651142 0 0,0 0.18515164706791212,-0.7134648242628979 l 21.072142531928428 5.662466015282544" fill="#fcff18" stroke="none" /><path d="M 79.71946130924805 94.55025226153421 l -14.900853703606101 -4.004129032798684 a36.429468247725616,36.429468247725616 0 0,0 0.16794545083869217,-0.6041891434829225 l 14.829721482201048 4.260029479700549" fill="#ffaf10" stroke="none" /><path d="M 79.91906864156998 93.8553929516997 l -56.858258374888905 -17.398179841780856 a80.4605600985441,80.4605600985441 0 0,0 0.4166497468407399,-1.3208935572957405 l 56.55035314427996 18.374323565503012" fill="#48f4ff" stroke="none" /><path d="M 80.02781315780177 93.51064311812611 l -15.610137287005575 -5.072041065447812 a37.41346967245959,37.41346967245959 0 0,0 0.20428236581104461,-0.6107782722247203 l 15.520517627422759 5.3399924405948545" fill="#ffbc11" stroke="none" /><path d="M 80.14247586403 93.16781622104843 l -27.26261519276769 -9.379980908819752 a49.831132981531454,49.831132981531454 0 0,0 0.2860471219371574,-0.8086937332360526 l 27.097114990020724 9.847872268482416" fill="#a7ff21" stroke="none" /><path d="M 80.2630227832202 92.82701384747504 l -18.69737626531685 -6.7951652153524815 a40.89387215980766,40.89387215980766 0 0,0 0.24613322854289163,-0.6595146827527051 l 18.57763844827233 7.116003035134528" fill="#ffea16" stroke="none" /><path d="M 80.38941819471856 92.48833698450439 l -28.63233597989211 -10.967367585671353 a51.66094935621953,51.66094935621953 0 0,0 0.32523384400607236,-0.8276846580442683 l 28.439308586004348 11.458601248611386" fill="#93ff23" stroke="none" /><path d="M 80.52162464483688 92.15188598940014 l -17.744573057597016 -7.149540446068354 a40.130755384625175,40.130755384625175 0 0,0 0.2636749491406256,-0.6385098038533799 l 17.61887642157019 7.453924820375045" fill="#ffe015" stroke="none" /><path d="M 80.65960295795068 91.81776055985345 l -7.069717518278846 -2.9909479822461122 a28.676371253447876,28.676371253447876 0 0,0 0.19624099795813094,-0.4529512797581388 l 7.0171858104780345 3.1121984065908506" fill="#ff4306" stroke="none" /><path d="M 80.803312248108 91.48605970444005 l -52.40558325134449 -23.24244748482551 a78.32849658763493,78.32849658763493 0 0,0 0.5572426621874608,-1.2278103408161127 l 51.99773827219367 24.141079834483694" fill="#46fff5" stroke="none" /><path d="M 80.95270993114464 91.15688171328213 l -14.858462225950616 -6.898363942997734 a37.3817375394081,37.3817375394081 0 0,0 0.27598724311635386,-0.5812995195251783 l 14.73751678899251 7.153105878163444" fill="#ffbc11" stroke="none" /><path d="M 81.10775173730289 90.83032412892265 l -17.20280753315764 -8.349676912887608 a40.12207341196225,40.12207341196225 0 0,0 0.30691473110380174,-0.618721369714511 l 17.056532789100423 8.64455787110108" fill="#ffe015" stroke="none" /><path d="M 81.26839172434947 90.50648371742162 l -35.10367099460638 -17.79117240022448 a60.35471423695106,60.35471423695106 0 0,0 0.4776373414522968,-0.9226433147735129 l 34.79222421999397 18.392788437258325" fill="#35ff2f" stroke="none" /><path d="M 81.43458229118936 90.18545643968196 l -16.99749478603823 -8.985666555440957 a40.22646697776185,40.22646697776185 0 0,0 0.3288837417684432,-0.6093716247130647 l 16.840302945051317 9.276919163486495" fill="#ffe115" stroke="none" /><path d="M 81.6062741919709 89.86733742301443 l -18.414628345270646 -10.144177283635102 a42.02386429408884,42.02386429408884 0 0,0 0.3544860210981762,-0.630591076920486 l 18.237284682880038 10.459651870490372" fill="#fff817" stroke="none" /><line stroke="#e1ed5e" stroke-width="0.3" x1="26.266209847984243" x2="21.928928074336255" y1="57.711370442889674" y2="55.22380399835377" /><path d="M 25.398753493254645 57.213857153982495 a86.0,86.0 0 0,1 29.58750427330803,-30.492523968695096" fill="none" id="id71" stroke="none" /><text fill="#e1ed5e" style="font-size:6.75px; font-family:Arial;" text-anchor="middle"><textPath startOffset="21.46611528233685" xlink:href="#id71">November</textPath></text><path d="M 81.96595687620814 89.24020034530311 l -52.47580576413947 -31.309072117944975 a82.10620416522673,82.10620416522673 0 0,0 0.7345932678729769,-1.2074781840886453 l 51.92909669798028 32.20771807524069" fill="#4be4ff" stroke="none" /><path d="M 82.15384107792192 88.93136811851018 l -10.708201279333048 -6.641492916842986 a33.60059533526831,33.60059533526831 0 0,0 0.309081322308594,-0.4888924258520947 l 10.59229236077849 6.824832990409297" fill="#ff880c" stroke="none" /><path d="M 82.34701348167596 88.62581576622439 l -8.863061916193383 -5.710654058762322 a31.543502089397816,31.543502089397816 0 0,0 0.29801604510147617,-0.453898882395178 l 8.763449235733987 5.862371005135167" fill="#ff6c09" stroke="none" /><path d="M 82.54541684631803 88.32363383020206 l -13.505301915805878 -9.034466707923553 a37.24853127312278,37.24853127312278 0 0,0 0.3610899836657431,-0.5298549948657606 l 13.347787466471395 9.26559972605973" fill="#ffba11" stroke="none" /><path d="M 82.7489923806493 88.02491185347247 l -36.23951007017338 -25.156288667480855 a65.11508755117487,65.11508755117487 0 0,0 0.647080811061704,-0.9152499177944013 l 35.8011166393078 25.776365085607043" fill="#35ff62" stroke="none" /><path d="M 82.95767976084542 87.72973835380427 l -10.86671424558896 -7.823901039101323 a34.39025414116315,34.39025414116315 0 0,0 0.35002300357735294,-0.47743098351575036 l 10.730428629497975 8.009794466288573" fill="#ff930d" stroke="none" /><path d="M 83.17141714833178 87.43820079747576 l -13.150302377463706 -9.816124113017674 a37.40995872087723,37.40995872087723 0 0,0 0.38964085940375104,-0.5127216977871821 l 12.979385577835846 10.041030586685883" fill="#ffbc11" stroke="none" /><path d="M 83.39014120810768 87.1503855733568 l -35.21455434570423 -27.242461914802394 a65.52209079710897,65.52209079710897 0 0,0 0.6977975351297497,-0.8861320071656174 l 34.74040272998051 27.84458631592106" fill="#35ff67" stroke="none" /><path d="M 83.6137871275137 86.86637796730984 l -4.491885420113218 -3.6002660151556625 a26.756643988237464,26.756643988237464 0 0,0 0.29113969039463744,-0.35690283567933584 l 4.429247237642188 3.6770530204430805" fill="#ff2603" stroke="none" /><path d="M 83.84228863543731 86.58626213691792 l -24.658752820331664 -20.471095126003142 a53.04871021292564,53.04871021292564 0 0,0 0.5893190981367976,-0.6975679313818064 l 24.30272310870774 20.892522007014062" fill="#83ff25" stroke="none" /><path d="M 84.07557802195018 86.31012108654704 l -13.073954066159347 -11.239393701854564 a38.24100477667507,38.24100477667507 0 0,0 0.4334128705622484,-0.4954658340429634 l 12.878549332019256 11.46277509210047" fill="#ffc712" stroke="none" /><path d="M 84.5562425177563 85.77008943001954 l -8.48992720780588 -7.822636754793819 a32.54437134673403,32.54437134673403 0 0,0 0.38314438489719116,-0.40871171583864013 l 8.354015500938234 7.967617887510508" fill="#ff7a0b" stroke="none" /><path d="M 84.80347519578584 85.50635884689758 l -24.93744275861754 -23.78401320538794 a55.46092476259734,55.46092476259734 0 0,0 0.6648331776580189,-0.6851690300627861 l 24.5243453172564 24.209746431000852" fill="#69ff28" stroke="none" /><path d="M 85.05521093208273 85.24692304244772 l -28.678009996852698 -28.31012780108672 a61.29753830562664,61.29753830562664 0 0,0 0.7477254691321102,-0.7445144983412855 l 28.186448727553273 28.799578150078112" fill="#30ff34" stroke="none" /><path d="M 85.57189188830299 84.74124197986013 l -19.715574101487377 -20.85063212125796 a49.69586593931736,49.69586593931736 0 0,0 0.6266225480342368,-0.5823773666054824 l 19.353743669658282 21.186914073938087" fill="#a9ff21" stroke="none" /><path d="M 85.83668400450813 84.49514656593479 l -10.346786198567594 -11.326825128625398 a36.34121742670146,36.34121742670146 0 0,0 0.4654946754842143,-0.4179257157656935 l 10.15028053548741 11.50324985316037" fill="#ffae10" stroke="none" /><path d="M 86.10567301691215 84.25364557470407 l -7.606921921072768 -8.620877340842956 a32.497164312958084,32.497164312958084 0 0,0 0.42262748096493413,-0.3664983868524357 l 7.45740064146106 8.750540721115073" fill="#ff790b" stroke="none" /><path d="M 86.37877921826538 84.01681056812374 l -6.202072296709664 -7.277533928635043 a30.561809496954417,30.561809496954417 0 0,0 0.4033321504272571,-0.3377790767711387 l 6.075882609323297 7.383214162799994" fill="#ff5e08" stroke="none" /><path d="M 86.93701828274178 83.55741782278169 l -27.068673516529863 -34.07176847961265 a64.51549716219282,64.51549716219282 0 0,0 0.8754674466156863,-0.6833162285180758 l 26.47817351475475 34.53266309735395" fill="#34ff5b" stroke="none" /><path d="M 87.22198572758235 83.33499621200491 l -6.417648315752575 -8.369855535605186 a31.547070284755982,31.547070284755982 0 0,0 0.4337779943989378,-0.3267125922203452 l 6.272624167595247 8.479084717331386" fill="#ff6c09" stroke="none" /><path d="M 87.80319425747018 82.90503203632743 l -24.264394392713946 -34.00882604491861 a62.77751888514566,62.77751888514566 0 0,0 0.8850699274328725,-0.6200480452596214 l 23.675393325697414 34.42145893294217" fill="#32ff46" stroke="none" /><path d="M 88.09926311788651 82.69761687909137 l -16.445392597728148 -23.909820552986975 a50.01948408517026,50.01948408517026 0 0,0 0.7136001247678009,-0.4818259896855443 l 16.031387778553807 24.189358454971185" fill="#a5ff21" stroke="none" /><path d="M 88.39885842347998 82.49532879139004 l -6.353252647472663 -9.58626338327988 a32.50044628943725,32.50044628943725 0 0,0 0.4689860429726761,-0.3050415680449205 l 6.187299578715701 9.694203875484336" fill="#ff790b" stroke="none" /><path d="M 88.70189139769569 82.29822771554957 l -7.200381611546732 -11.28149145448543 a34.38348029436021,34.38348029436021 0 0,0 0.501639992237066,-0.3141269171183108 l 7.005122466937423 11.403762712926671" fill="#ff930d" stroke="none" /><path d="M 89.00827224532344 82.1063720568725 l -32.97518326402967 -53.68088382938249 a84.0,84.0 0 0,0 1.2385517351294033,-0.746213562165523 l 32.046269462682616 54.240544001006626" fill="#4dd2ff" stroke="none" /><line stroke="#e1ed5e" stroke-width="0.3" x1="56.762969772571076" x2="54.21961505331055" y1="26.818313649435495" y2="22.513508569990535" /><path d="M 56.25429882871897 25.957352633546506 a86.0,86.0 0 0,1 42.265352541879196,-11.944610805530505" fill="none" id="id72" stroke="none" /><text fill="#e1ed5e" style="font-size:6.75px; font-family:Arial;" text-anchor="middle"><textPath startOffset="22.20632615414155" xlink:href="#id72">December</textPath></text><path d="M 89.3179101791058 81.91981866633112 l -5.347575485832908 -9.051144120715495 a31.51283850682791,31.51283850682791 0 0,0 0.4693961359156406,-0.27190453934647857 l 5.190982617451947 9.14185281745202" fill="#ff6b09" stroke="none" /><path d="M 89.94658935756843 81.56283822128135 l -14.635089191151996 -26.83959868548487 a51.570408784163405,51.570408784163405 0 0,0 0.7830228711138427,-0.418263699949718 l 14.17092127350985 27.087541111936336" fill="#94ff23" stroke="none" /><path d="M 90.26544431104013 81.39251694778311 l -8.863202023692965 -16.94190127560542 a40.12026069239527,40.12026069239527 0 0,0 0.6146796720468068,-0.3148628023103631 l 8.570261864057395 17.09195660322829" fill="#ffe015" stroke="none" /></svg>